<?xml version="1.0" encoding="utf-8"?>
<!-- Generator: Adobe Illustrator 16.0.0, SVG Export Plug-In . SVG Version: 6.00 Build 0)  -->
<!DOCTYPE svg PUBLIC "-//W3C//DTD SVG 1.1//EN" "http://www.w3.org/Graphics/SVG/1.1/DTD/svg11.dtd">
<svg version="1.1" id="Layer_1" xmlns="http://www.w3.org/2000/svg" xmlns:xlink="http://www.w3.org/1999/xlink" x="0px" y="0px"
	 width="590.992px" height="688.932px" viewBox="0 0 590.992 688.932" enable-background="new 0 0 590.992 688.932"
	 xml:space="preserve">
<g id="body">
	<path fill="#FFFFFF" d="M-3.568,688.932c0-229.645,0-459.288,0-688.932C195.286,0,394.14,0,592.994,0
		c0,229.644,0,459.288,0,688.932C394.14,688.932,195.286,688.932-3.568,688.932z M300.04,545.272
		c-2.757,1.904-4.74,4.173-7.146,4.787c-12.061,3.083-24.443,3.572-36.832,3.826c-14.179,0.291-28.387,0.169-42.521,1.115
		c-15.167,1.015-29.359,5.475-41.178,15.65c-12.857,11.069-18.629,25.175-17.47,42.055c0.685,9.975,4.645,18.736,10.392,26.817
		c9.861,13.867,22.375,24.666,37.709,31.938c15.957,7.568,32.939,10.531,50.594,10.516c13.246-0.012,26.196-1.649,38.903-5.2
		c29.864-8.344,54.73-24.041,72.608-49.857c1.12-1.619,2.107-1.808,3.631-0.572c1.737,1.408,3.543,2.755,5.433,3.948
		c13.973,8.824,29.319,14.217,45.244,18.239c16.432,4.151,33.091,6.374,50.035,6.379c20.807,0.005,40.979-3.81,60.57-10.621
		c15.047-5.232,29.038-12.397,40.175-24.187c7.032-7.445,11.758-16.148,12.204-26.481c1.05-24.25-10.679-41.338-31.155-52.887
		c-16.291-9.188-33.896-10.479-51.872-6.593c-9.792,2.116-19.31,5.487-29.082,7.717c-7.398,1.688-15.021,5.728-22.441-0.658
		c-1.642-1.412-2.293-2.095-1.214-4.013c7.354-13.056,15.481-25.585,25.323-36.917c1.12-1.289,3.063-2.35,4.749-2.58
		c10.115-1.389,19.588-4.413,27.892-10.465c1.146-0.836,2.02-2.668,2.165-4.123c0.32-3.175,0.146-6.405,0.066-9.61
		c-0.052-2.114,0.794-2.746,2.909-2.604c11.652,0.775,22.578-1.742,32.309-8.252c13.421-8.977,20.184-21.532,18.684-37.86
		c-0.932-10.132-7.737-18.396-19.082-17.999c-2.077,0.072-3.014-0.778-3.316-2.932c-1.021-7.262-3.109-14.23-7.208-20.373
		c-2.516-3.769-4.863-7.23-3.845-12.242c0.461-2.272,0.944-3.49,3.212-3.824c1.053-0.154,2.089-0.455,3.117-0.743
		c9.707-2.726,18.271-7.196,24.184-15.76c7.085-10.26,4.124-24.312-6.844-29.333c-5.625-2.575-11.917-4.557-18.038-5
		c-11.573-0.838-23.242-0.376-34.872-0.445c-3.213-0.019-6.426-0.003-9.899-0.003c0.95-3.701,2.383-5.991,5.521-7.564
		c11.274-5.655,20.467-13.614,25.457-25.527c3.735-8.914,1.927-17.169-4.678-23.49c-6.211-5.945-15.35-7.766-23.469-3.552
		c-5.313,2.756-9.997,6.796-14.729,10.554c-1.979,1.571-3.217,3.832-6.416,3.17c-2.501-0.517-5.149-0.32-8.161-0.459
		c1.461-3.649,2.737-6.676,3.891-9.749c5.878-15.671,8.667-31.653,4.953-48.328c-0.613-2.757-1.143-5.647-0.976-8.432
		c0.175-2.94,1.4-5.801,1.863-8.745c0.932-5.923,1.51-11.867-0.213-17.786c-1.41-4.841-5.153-7.533-9.451-6.669
		c-5.095,1.023-5.095,1.023-7.826-3.414c-0.56-0.909-1.115-1.821-1.688-2.723c-7.847-12.378-16.66-23.828-29.826-31.111
		c-0.327-0.181-0.524-0.597-1.009-1.171c3.534-1.478,6.9-2.723,10.129-4.263c17.613-8.406,26.909-22.443,27.879-41.896
		c0.786-15.799-3.895-30.177-12.214-43.396c-9.153-14.548-20.979-26.223-37.548-32.029c-14.229-4.986-28.291-5-41.564,3.219
		c-16.235,10.052-23.628,25.63-25.484,43.763c-2.444,23.89,5.374,44.145,24.191,59.681c1.118,0.923,2.167,1.928,3.903,3.483
		c-28.68,0.87-53.699,8.999-73.965,30.135c-0.132-1.676-0.208-2.481-0.257-3.289c-0.617-10.208-0.481-20.53-2.012-30.6
		c-2.748-18.087-10.1-34.276-24.128-46.544c-21.26-18.59-48.078-15.805-66.552,4.458c-10.303,11.3-16.558,24.751-19.151,39.874
		c-3.81,22.204,0.29,42.715,13.366,61.165c15.219,21.471,38.813,29.007,63.545,20.539c2.655-0.91,5.264-1.96,8.131-3.034
		c-0.598,5.085-1.572,9.699-1.604,14.319c-0.109,16.831,3.483,32.777,11.923,47.532c1.694,2.962,2.537,6.413,3.771,9.638
		c-1.53,0.066-2.367-0.305-3.168-0.739c-13.147-7.119-26.318-14.195-39.407-21.421c-2.374-1.31-4.557-3.074-6.561-4.918
		c-4.303-3.958-8.028-8.66-12.719-12.05c-8.042-5.814-17.289-8.871-27.224-6.278c-4.686,1.223-9.142,2.553-14.005,1.888
		c-1.261-0.172-2.566-0.195-3.837-0.1c-22.282,1.675-42.105,9.545-59.523,23.557c-1.165,0.938-2.791,1.693-4.258,1.804
		c-19.114,1.438-38.207,0.843-57.299-0.655c-12.027-0.943-24.071-1.936-36.123-2.194c-6.193-0.133-12.44,1.176-15.781,7.734
		c-3.487,6.846-1.889,16.287,4.044,23.235c4.602,5.389,10.346,9.29,16.709,12.17c16.009,7.249,32.987,9.239,50.37,8.784
		c1.111-0.029,2.227,0.109,3.879,0.199c-2.371,2.838-4.472,5.077-6.259,7.543c-6.307,8.706-4.828,19.424,3.448,26.316
		c5.743,4.782,12.479,7.278,19.649,8.896c8.344,1.883,16.772,2.026,25.172,0.873c11.601-1.593,22.452-5.365,31.623-12.898
		c3.155-2.592,5.78-5.829,8.909-9.04c1.593,3.561,2.742,6.541,4.213,9.352c9.722,18.563,32.94,25.392,50.515,15.036
		c9.235-5.442,15.271-19.712,5.414-29.076c-3.01-2.858-6.412-5.308-9.688-7.879c-4.612-3.622-4.94-4.426-2.605-9.948
		c0.523-1.238,1.798-2.495,3.035-3.029c3.21-1.383,6.57-2.434,9.914-3.478c1.253-0.391,2.766-0.854,3.928-0.507
		c11.759,3.513,23.714,6.557,35.14,10.963c17.123,6.603,33.954,13.994,50.746,21.418c17.908,7.918,35.007,17.395,51.205,28.421
		c2.87,1.953,5.951,4.101,7.853,6.895c10.929,16.075,15.543,33.949,14.413,53.369c-0.976,16.782-5.392,32.7-12.813,47.626
		c-5.26,10.578-11.613,20.629-17.787,30.726c-1.521,2.489-1.789,3.87,0.923,5.022c-0.072,0.41-0.043,0.664-0.153,0.815
		c-9.985,13.598-19.941,27.218-30.048,40.726c-0.889,1.188-2.672,1.868-4.174,2.408c-4.594,1.65-9.238,3.163-13.895,4.631
		c-1.377,0.435-2.921,0.938-4.28,0.727c-8.422-1.313-16.287-4.26-23.692-8.479c-13.176-7.514-23.023-18.56-32.26-30.261
		c-6.479-8.207-12.334-17.053-20.874-23.32c-22.591-16.587-46.818-23.407-73.855-11.326c-3.6,1.608-10.701,6.185-11.437,9.091
		c0.451-0.283,0.813-0.49,1.155-0.727c12.259-8.484,25.77-12.758,40.722-11.639c21.861,1.641,39.001,12.179,52.705,28.771
		c5.771,6.991,10.957,14.475,16.836,21.368c9.365,10.979,19.993,20.494,33.65,25.957C290.392,541.927,294.716,543.35,300.04,545.272
		z"/>
	<path d="M300.04,545.272c-5.323-1.923-9.646-3.346-13.866-5.032c-13.657-5.463-24.285-14.979-33.649-25.957
		c-5.879-6.895-11.064-14.377-16.836-21.368c-13.703-16.594-30.843-27.132-52.705-28.771c-14.952-1.119-28.463,3.153-40.722,11.639
		c-0.343,0.235-0.704,0.442-1.155,0.727c0.733-2.906,7.836-7.481,11.437-9.091c27.037-12.081,51.265-5.261,73.855,11.326
		c8.539,6.269,14.396,15.112,20.874,23.319c9.235,11.702,19.084,22.748,32.26,30.262c7.405,4.221,15.271,7.166,23.692,8.479
		c1.358,0.211,2.903-0.292,4.28-0.727c4.655-1.468,9.301-2.979,13.895-4.631c1.502-0.54,3.285-1.22,4.174-2.408
		c10.105-13.508,20.063-27.128,30.048-40.727c0.11-0.15,0.081-0.404,0.153-0.814c-2.712-1.152-2.445-2.533-0.923-5.022
		c6.174-10.097,12.527-20.146,17.787-30.726c7.423-14.926,11.839-30.844,12.813-47.626c1.129-19.42-3.484-37.294-14.414-53.369
		c-1.899-2.794-4.98-4.941-7.852-6.895c-16.198-11.026-33.297-20.503-51.205-28.421c-16.792-7.425-33.623-14.816-50.746-21.418
		c-11.425-4.406-23.38-7.45-35.14-10.963c-1.162-0.347-2.674,0.116-3.928,0.507c-3.344,1.044-6.704,2.095-9.914,3.478
		c-1.236,0.534-2.512,1.791-3.035,3.029c-2.335,5.522-2.006,6.326,2.605,9.948c3.274,2.571,6.677,5.021,9.688,7.879
		c9.857,9.363,3.822,23.633-5.414,29.076c-17.574,10.356-40.793,3.527-50.515-15.036c-1.472-2.811-2.621-5.791-4.213-9.352
		c-3.129,3.21-5.754,6.447-8.909,9.04c-9.171,7.533-20.022,11.305-31.623,12.898c-8.399,1.154-16.829,1.01-25.172-0.873
		c-7.171-1.618-13.907-4.114-19.649-8.896c-8.276-6.892-9.755-17.61-3.448-26.316c1.787-2.466,3.888-4.705,6.259-7.543
		c-1.653-0.09-2.768-0.228-3.879-0.199c-17.382,0.456-34.36-1.535-50.37-8.784c-6.363-2.881-12.107-6.782-16.709-12.17
		c-5.933-6.948-7.531-16.389-4.044-23.235c3.34-6.558,9.588-7.867,15.781-7.734c12.052,0.259,24.096,1.251,36.123,2.194
		c19.092,1.498,38.186,2.094,57.299,0.655c1.467-0.11,3.093-0.866,4.258-1.804c17.417-14.011,37.241-21.882,59.523-23.557
		c1.271-0.095,2.576-0.073,3.837,0.1c4.864,0.665,9.319-0.665,14.005-1.888c9.935-2.592,19.182,0.464,27.224,6.278
		c4.69,3.39,8.417,8.092,12.719,12.05c2.004,1.844,4.188,3.608,6.561,4.918c13.089,7.226,26.26,14.302,39.407,21.421
		c0.802,0.434,1.638,0.805,3.168,0.739c-1.234-3.226-2.077-6.676-3.771-9.638c-8.438-14.755-12.032-30.702-11.923-47.532
		c0.031-4.62,1.005-9.233,1.604-14.319c-2.867,1.074-5.476,2.124-8.132,3.034c-24.729,8.468-48.325,0.932-63.544-20.539
		c-13.076-18.45-17.175-38.961-13.366-61.165c2.595-15.123,8.85-28.574,19.151-39.874c18.474-20.263,45.292-23.048,66.551-4.458
		c14.03,12.268,21.381,28.457,24.129,46.544c1.53,10.069,1.395,20.392,2.012,30.6c0.049,0.808,0.125,1.613,0.257,3.289
		c20.266-21.136,45.285-29.265,73.965-30.135c-1.736-1.555-2.786-2.56-3.903-3.483c-18.817-15.537-26.637-35.791-24.191-59.681
		c1.856-18.133,9.249-33.711,25.484-43.763c13.273-8.219,27.337-8.205,41.564-3.219c16.569,5.806,28.395,17.48,37.548,32.029
		c8.319,13.22,13,27.599,12.214,43.397c-0.97,19.454-10.266,33.491-27.88,41.896c-3.228,1.54-6.594,2.785-10.128,4.263
		c0.483,0.574,0.682,0.99,1.009,1.171c13.166,7.284,21.979,18.733,29.826,31.111c0.571,0.902,1.127,1.813,1.688,2.723
		c2.73,4.437,2.73,4.438,7.826,3.414c4.298-0.863,8.041,1.828,9.451,6.669c1.723,5.918,1.145,11.862,0.213,17.786
		c-0.463,2.944-1.688,5.805-1.863,8.745c-0.167,2.785,0.361,5.675,0.976,8.432c3.714,16.675,0.925,32.656-4.954,48.328
		c-1.151,3.073-2.429,6.1-3.89,9.749c3.012,0.14,5.66-0.058,8.161,0.459c3.199,0.662,4.437-1.599,6.416-3.17
		c4.732-3.758,9.418-7.798,14.729-10.554c8.12-4.213,17.259-2.393,23.47,3.552c6.604,6.321,8.413,14.577,4.678,23.49
		c-4.99,11.913-14.183,19.872-25.457,25.527c-3.138,1.574-4.569,3.864-5.521,7.564c3.476,0,6.688-0.016,9.9,0.003
		c11.63,0.068,23.299-0.394,34.872,0.445c6.121,0.443,12.413,2.425,18.038,5c10.968,5.023,13.929,19.074,6.844,29.333
		c-5.912,8.563-14.477,13.035-24.184,15.761c-1.028,0.288-2.064,0.589-3.117,0.743c-2.269,0.334-2.751,1.552-3.212,3.824
		c-1.02,5.012,1.329,8.475,3.845,12.242c4.099,6.143,6.188,13.111,7.208,20.373c0.304,2.152,1.239,3.004,3.316,2.932
		c11.345-0.397,18.15,7.867,19.082,17.999c1.5,16.327-5.263,28.885-18.684,37.86c-9.729,6.509-20.656,9.027-32.309,8.252
		c-2.115-0.142-2.961,0.49-2.909,2.604c0.08,3.205,0.254,6.437-0.066,9.609c-0.146,1.456-1.021,3.288-2.166,4.123
		c-8.303,6.053-17.774,9.077-27.891,10.466c-1.688,0.23-3.629,1.29-4.749,2.579c-9.842,11.332-17.97,23.862-25.323,36.917
		c-1.08,1.918-0.428,2.602,1.214,4.014c7.42,6.386,15.043,2.347,22.441,0.658c9.772-2.229,19.29-5.601,29.082-7.718
		c17.975-3.885,35.581-2.596,51.872,6.594c20.477,11.549,32.205,28.637,31.155,52.887c-0.446,10.333-5.172,19.036-12.204,26.481
		c-11.137,11.787-25.128,18.952-40.175,24.187c-19.592,6.812-39.765,10.626-60.57,10.621c-16.944-0.005-33.604-2.228-50.035-6.379
		c-15.925-4.022-31.271-9.415-45.244-18.239c-1.89-1.193-3.694-2.54-5.433-3.948c-1.522-1.234-2.511-1.047-3.631,0.572
		c-17.878,25.816-42.744,41.515-72.608,49.857c-12.707,3.551-25.658,5.188-38.903,5.199c-17.653,0.018-34.637-2.945-50.594-10.515
		c-15.334-7.273-27.848-18.071-37.709-31.939c-5.747-8.08-9.708-16.843-10.392-26.816c-1.159-16.88,4.612-30.984,17.47-42.055
		c11.817-10.177,26.011-14.637,41.178-15.65c14.135-0.946,28.343-0.824,42.521-1.115c12.389-0.254,24.771-0.743,36.832-3.826
		C295.299,549.445,297.283,547.177,300.04,545.272z M291.838,554.55c-1.302,0.253-2.825,0.594-4.364,0.838
		c-5.476,0.87-10.935,2.23-16.438,2.453c-15.998,0.65-32.021,0.672-48.022,1.264c-12.101,0.446-23.88,2.406-35.12,7.49
		c-23.439,10.602-33.999,38.646-23.08,62.07c6.079,13.041,16.084,22.53,27.757,30.336c17.749,11.866,37.638,16.949,58.808,17.027
		c17.99,0.063,35.495-3.084,52.188-9.883c21.824-8.888,41.773-20.494,55.585-40.436c9.333-13.478,13.364-28.199,9.97-44.525
		c-0.591-2.839-1.624-5.585-2.475-8.444c-4.139,3.168-7.455,6.468-11.404,8.593c-15.063,8.106-30.818,8.225-46.42,2.019
		c-8.611-3.427-15.318-9.502-16.911-19.382C291.435,561.009,291.838,557.904,291.838,554.55z M461.114,649.301
		c25.086-0.564,40.145-2.604,59.194-8.055c15.398-4.403,30.011-10.629,42.392-21.129c13.923-11.81,18.594-27.595,12.907-43.719
		c-5.352-15.173-15.911-25.93-29.881-33.261c-15.793-8.286-32.483-8.785-49.545-4.429c-12.296,3.14-24.638,6.104-36.975,9.087
		c-1.859,0.45-2.09,1.23-1.96,3.146c0.181,2.664-0.053,5.577-0.989,8.05c-1.971,5.202-6.252,8.604-10.801,11.473
		c-12.11,7.644-25.397,10.737-39.679,10.068c-11.604-0.544-21.729-4.253-29.459-13.212c-1.727-1.999-3.397-2.474-5.504-1.159
		c-2.21,1.38-1.51,3.257-0.941,5.369c1.572,5.841,3.357,11.708,4.063,17.682c1.143,9.678-0.347,19.18-4.14,28.229
		c-0.936,2.229-0.52,3.833,1.591,5.107c4.289,2.595,8.364,5.591,12.813,7.866c14.478,7.404,30.029,11.746,45.917,14.637
		C442.156,647.244,454.383,648.404,461.114,649.301z M447.856,246.379c-2.489,0.917-5.39-0.25-5.622,3.52
		c-0.235,3.82-0.773,7.635-1.388,11.418c-1.13,6.981-2.527,13.875-7.203,19.593c-2.229,2.724-4.876,4.851-8.442,4.224
		c-3.231-0.569-3.741-3.87-4.48-6.474c-4.257-15.006-4.742-30.313-2.902-45.681c0.575-4.8,2.46-9.433,3.543-14.188
		c0.312-1.362,0.441-3.219-0.234-4.282c-7.86-12.358-16.205-24.396-26.272-35.082c-4.608-4.892-9.612-9.638-16.353-11.431
		c-7.376-1.963-14.243-1.539-16.073,8.95c-1.994,11.428-2.517,22.835-1.942,34.415c0.947,19.109,4.665,37.658,10.077,55.933
		c0.27,0.908,0.409,1.854,0.777,3.562c-1.176-0.957-1.577-1.289-1.983-1.615c-9.626-7.744-18.944-15.917-28.968-23.106
		c-9.503-6.816-20.122-11.623-31.987-13.1c-9.903-1.233-19.014,3.057-22.612,10.961c-3.707,8.146-1.418,15.306,3.629,22.092
		c6.489,8.723,14.19,16.264,22.779,22.808c7.199,5.485,14.866,10.358,22.367,15.442c0.86,0.584,1.98,0.784,2.979,1.162
		c0.146-0.214,0.294-0.427,0.44-0.641c-0.915-1.492-1.83-2.983-2.745-4.476c0.229-0.171,0.457-0.343,0.688-0.515
		c2.53,2.418,5.087,4.812,7.587,7.263c3.813,3.738,7.439,7.681,11.437,11.21c2.246,1.983,4.761,4.033,8.433,4.11
		c-0.254-0.791-0.267-1.151-0.45-1.357c-7.178-7.993-11.365-17.759-16.071-27.202c-3.585-7.196-7.741-13.911-13.026-20.063
		c-6.319-7.355-13.666-9.69-22.817-6.847c-0.647,0.201-1.357,0.203-2.038,0.297c4.292-5.337,10.197-4.33,15.74-4.066
		c7.764,0.37,16.477,4.631,17.925,8.359c-3.381-1.09-6.718-2.165-10.055-3.24c-0.117,0.265-0.235,0.531-0.354,0.796
		c2.612,2.896,5.726,5.483,7.736,8.749c4.582,7.438,8.923,15.059,12.816,22.877c5.763,11.562,13.576,21.188,24.564,28.057
		c20.854,13.033,43.294,16.276,67.02,10.203c11.564-2.96,22.439-7.635,31.815-15.256c3.861-3.139,7.312-6.685,10.479-11.662
		c-1.86,0.304-2.779,0.613-3.686,0.575c-4.119-0.173-8.415,0.229-12.314-0.814c-9.283-2.484-13.792-10.573-10.662-19.628
		c1.886-5.454,5.298-10.381,8.044-15.533c0.563-1.055,1.217-2.063,2.099-3.545c-6.993-1-12.979,0.514-18.601,3.069
		c-5.486,2.495-10.654,5.69-15.961,8.578c0.691-1.816,1.566-3.514,2.954-4.259c5.818-3.128,7.563-8.117,7.196-14.273
		c-0.031-0.521,0.16-1.051,0.215-1.58C446.569,258.778,447.181,252.873,447.856,246.379z M498.883,460.932
		c-0.185-0.136-0.368-0.271-0.555-0.406c0.409-0.706,0.855-1.395,1.222-2.121c3.099-6.172,7.163-12.06,9.102-18.578
		c8.68-29.181,3.03-55.476-17.432-78.298c-5.935-6.618-13.189-10.791-22.252-11.252c-3.299-0.168-6.621-0.357-9.911-0.164
		c-27.817,1.632-50.623,13.384-68.714,34.422c-0.896,1.042-1.474,2.938-1.247,4.275c2.424,14.42,0.778,28.573-2.988,42.481
		c-4.528,16.716-11.994,32.171-21.392,46.703c-2.06,3.182-4.012,6.434-6.115,9.818c7.947,2.728,15.397,5.326,22.879,7.842
		c18.625,6.258,37.533,8.939,57.053,4.711c5.483-1.189,10-3.279,12.385-8.808c1.092-2.527,2.791-4.79,4.162-7.201
		c0.37-0.652,0.546-1.414,0.807-2.11c-3.272-0.169-6.174-0.319-9.075-0.471c-0.014-0.378-0.027-0.757-0.04-1.134
		c13.067-3.091,25.797-7.107,37.918-13.239c-1.7,2.185-3.527,4.305-5.839,5.438c-4.867,2.386-10.022,4.176-14.982,6.385
		c-1.362,0.607-2.756,1.614-3.608,2.813c-2.104,2.949-3.924,6.103-5.803,9.207c-0.398,0.66-0.563,1.461-0.884,2.324
		c0.878,0.229,1.377,0.438,1.894,0.486c15.342,1.475,29.986-0.806,43.787-7.942c2.563-1.325,4.336-2.604,3.996-5.987
		c-0.38-3.791-0.095-7.648-0.097-11.478c-0.002-3.523,0-7.048,0-11.116C501.337,458.977,500.11,459.955,498.883,460.932z
		 M127.253,244.479c0.085,0.369,0.17,0.739,0.254,1.108c-3.898,0.845-7.762,1.962-11.703,2.487
		c-15.707,2.092-31.508,2.309-47.302,1.529c-12.468-0.616-24.902-1.864-37.371-2.508c-5.597-0.29-11.38-0.533-16.818,0.528
		c-7.848,1.53-11.007,8.477-7.622,15.766c1.494,3.217,3.729,6.265,6.219,8.813c7.86,8.046,17.944,12.176,28.578,14.968
		c20.357,5.344,40.82,4.206,61.328,0.747c7.847-1.324,15.146-4.898,23.788-2.953c10.043,2.26,19.613,4.943,28.114,10.899
		c1.017,0.711,2.587,0.632,4.521,1.055c0.421,2.115,1.033,5.188,1.645,8.259c0.338-0.021,0.676-0.041,1.014-0.061
		c1.095-1.8,2.189-3.6,3.286-5.4c0.523,0.964,0.474,1.596,0.353,2.214c-1.896,9.693,0.167,18.342,6.359,26.145
		c10.758,13.556,29.196,17.508,43.643,9.145c6.315-3.657,9.207-10.084,7.358-16.488c-1.445-5.005-5.344-8.071-8.973-11.405
		c-4.449-4.089-8.958-8.17-12.929-12.702c-1.661-1.896-2.007-4.944-2.952-7.468c0.354-0.129,0.708-0.259,1.063-0.388
		c1.713,2.686,3.426,5.373,5.52,8.656c1.528-3.942,2.544-7.075,3.929-10.035c4.113-8.803,8.646-17.462,10.177-27.197
		c1.69-10.756-0.777-20.214-9.743-27.137c-5.233-4.041-10.951-6.608-17.821-4.194c-6.932,2.435-13.946,4.636-20.847,7.155
		c-3.326,1.215-6.471,2.926-9.698,4.412c-0.107-0.25-0.216-0.502-0.324-0.752c9.091-8.217,20.75-10.573,32.191-13.529
		c-17.208-5.08-32.12,0.896-46.432,9.833c-0.203-0.321-0.407-0.642-0.61-0.962c1.866-1.532,3.731-3.065,5.597-4.597
		c-0.224-0.274-0.447-0.547-0.671-0.821c-10.553,3.301-20.441,7.916-29.396,14.379c0.126,0.335,0.252,0.67,0.377,1.005
		C123.32,244.815,125.286,244.647,127.253,244.479z M146.829,295.313c-0.992-0.656-1.555-1.149-2.208-1.441
		c-7.774-3.48-15.963-5.338-24.423-6.018c-2.526-0.203-5.372-0.871-7.563-0.019c-8.938,3.476-18.186,5.323-27.639,6.48
		c-1.071,0.131-2.323,0.718-3.035,1.506c-2.352,2.604-4.769,5.218-6.664,8.15c-4.766,7.375-4.243,14.095,1.559,20.106
		c1.81,1.874,4.112,3.434,6.457,4.605c13.549,6.774,27.855,7.459,42.465,4.713c12.409-2.332,23.195-7.728,31.739-17.282
		c2.43-2.717,4.435-5.183,1.41-8.721c-0.577-0.676-0.943-1.808-0.894-2.7c0.241-4.26-3.069-5.374-5.868-7.064
		c-1.482-0.895-2.324-0.591-3.566,0.548c-4.084,3.743-8.453,7.175-12.5,10.956c-1.457,1.361-2.575,3.254-3.375,5.108
		c-1.415,3.272-2.489,6.688-6.376,8.937c1.142-3.226,2.087-5.896,3.032-8.568c-5.38,1.343-9.698,4.18-14.928,3.456
		C126.03,311.781,137.646,305.708,146.829,295.313z M529.03,436.128c-0.286-0.112-0.572-0.224-0.859-0.337
		c7.482-14.683,9.3-29.709,2.84-45.065c-6.406-15.229-17.835-24.906-34.063-30.434c0.427,1.271,0.452,1.729,0.689,2.007
		c8.306,9.726,13.262,21.119,16.228,33.394c4.004,16.57,4.457,33.138-3.172,48.843c-2.941,6.056-3.862,12.055-3.721,18.514
		c0.083,3.8,0.612,4.457,4.478,4.367c10.848-0.251,20.954-3.023,29.621-9.719c11.18-8.637,17.675-19.573,15.553-34.313
		c-1.094-7.602-7.592-13.329-14.928-13.346c-2.076-0.005-3.021,0.631-3.264,2.876c-0.716,6.598-3.093,13.098-0.833,19.833
		c0.225,0.671,0.181,1.534-0.021,2.226c-0.617,2.117-1.375,4.194-2.076,6.288c-0.313-0.088-0.628-0.175-0.941-0.262
		c0-3.573,0-7.146,0-10.721c-0.28-0.053-0.562-0.104-0.842-0.157C532.155,432.125,530.593,434.126,529.03,436.128z M398.055,542.923
		c-0.215-0.264-0.43-0.527-0.646-0.79c-7.365,1.164-14.059,3.785-18.64,10.146c-3.682,5.113-3.037,9.837,1.279,14.436
		c4.028,4.295,9.146,6.625,14.639,8.13c10.438,2.86,20.935,2.228,31.319-0.319c9.081-2.229,17.768-5.416,24.517-12.331
		c6.628-6.79,4.591-15.181-4.354-18.379c-1.746-0.625-2.792-0.475-3.506,1.365c-1.351,3.487-4.005,5.54-7.392,7.074
		c-7.968,3.605-16.311,5.205-24.93,4.347c-4.132-0.411-8.409-1.604-12.114-3.458c-3.9-1.949-3.98-4.307-1.612-7.906
		C397.117,544.478,397.578,543.696,398.055,542.923z M364.84,547.543c-0.92,1.548-1.716,3.146-2.748,4.571
		c-2.226,3.067-4.111,6.6-6.951,8.966c-10.046,8.367-26.321,6.005-35.661-0.667c-5.478-3.911-6.37-9.217-2.763-14.785
		c1.016-1.564,1.982-3.161,3.352-5.346c-1.804,0.227-2.983,0.177-4.021,0.539c-6.564,2.29-12.62,5.582-16.599,11.406
		c-1.886,2.762-3.307,6.298-3.599,9.602c-0.733,8.291,4.381,13.389,11.263,16.563c15.276,7.041,30.723,6.481,45.794-0.569
		c7.486-3.503,12.968-9.261,15.261-17.566C369.474,555.516,368.239,550.148,364.84,547.543z M422.711,507.083
		c-4.508-0.287-8.159-0.659-11.813-0.68c-1.354-0.006-3.025,0.454-4.02,1.315c-8.536,7.402-18.035,13.265-28.159,18.197
		c-1.3,0.633-2.742,1.501-3.479,2.665c-2.626,4.142-4.999,8.448-7.402,12.727c-0.334,0.595-0.654,1.568-0.396,2.061
		c1.79,3.414,3.735,6.746,5.517,9.902c1.922-2.18,3.738-4.679,5.983-6.701c5.575-5.026,12.675-6.818,19.646-8.908
		c1.661-0.497,3.407-1.719,4.451-3.107c4.229-5.622,8.189-11.447,12.268-17.184C417.571,514.183,419.874,511.021,422.711,507.083z
		 M194.994,222.132c3.049,1.308,6.009,2.353,8.763,3.794c12.308,6.439,19.094,16.427,18.935,30.563
		c-0.111,9.859-3.698,18.735-8.284,27.278c-0.659,1.227-1.148,2.543-1.817,4.047c8.777-0.712,18.235-10.454,21.469-21.569
		c3.755-12.91-1.905-29.676-12.805-37.923C212.239,221.5,200.704,218.66,194.994,222.132z M424.982,219.819
		c-6.35,8.138-6.258,53.401-1.656,58.747c1.731-3.793,3.296-7.757,5.309-11.479c2.05-3.791,4.464-7.457,9.947-6.325
		c0.614-3.646,1.437-6.984,1.651-10.361c0.133-2.076-0.182-4.465-1.134-6.27c-2.278-4.318-5.126-8.331-7.605-12.548
		C429.3,227.853,427.292,224.01,424.982,219.819z M467.13,336.217c-0.135,0.363-0.269,0.725-0.402,1.088
		c0.617,0.505,1.175,1.117,1.86,1.498c8.171,4.538,15.545,10.124,22.211,16.668c0.728,0.713,1.729,1.478,2.677,1.584
		c8.005,0.904,14.826,4.549,21.301,9.002c2.85,1.961,5.583,4.088,8.485,6.227c1.4-6.613-6.465-18.078-18.468-26.208
		C493.411,338.365,480.796,334.837,467.13,336.217z M455.384,263.675c5.936-11.89,7.754-23.648,6.734-36.925
		c-0.937,1.382-1.342,1.944-1.711,2.528c-2.437,3.863-4.369,8.189-7.411,11.494c-5.007,5.437-2.751,11.936-4.588,18.478
		C452.876,257.648,453.747,260.566,455.384,263.675z M468.385,212.038c-0.652-0.056-1.306-0.111-1.958-0.167
		c-0.66,3.545-1.691,7.069-1.892,10.64c-0.284,5.087,0.334,10.225,0.046,15.312c-0.599,10.566-3.443,20.56-8.559,29.873
		c-0.508,0.925-0.813,1.962-1.21,2.947c0.313,0.23,0.625,0.459,0.938,0.688c1.144-1.058,2.712-1.902,3.365-3.206
		c6.713-13.371,9.771-27.681,10.186-42.548C469.427,221.074,468.715,216.551,468.385,212.038z M400.478,505.642
		c-5.838-3.078-7.448-2.787-10.933,1.681c-1.111,1.426-2.191,2.877-3.229,4.356c-1.516,2.164-2.979,4.364-4.466,6.551
		c0.25,0.226,0.499,0.448,0.748,0.675C389.116,515.369,395.086,511.097,400.478,505.642z M353.503,336.824
		c-0.2,0.269-0.401,0.538-0.603,0.807c5.523,4.128,11.047,8.257,16.569,12.384c0.209-0.279,0.418-0.562,0.628-0.842
		C364.566,345.058,359.034,340.94,353.503,336.824z M521.431,328.938c-0.083-0.339-0.167-0.678-0.251-1.018
		c-6.219,1.717-12.438,3.434-18.656,5.15c0.082,0.296,0.162,0.593,0.244,0.889C508.989,332.286,515.211,330.612,521.431,328.938z"/>
	<path fill="#FFFFFF" d="M127.253,244.479c-1.967,0.167-3.933,0.335-5.899,0.502c-0.125-0.335-0.251-0.67-0.377-1.005
		c8.955-6.463,18.844-11.078,29.396-14.379c0.225,0.274,0.447,0.547,0.671,0.821c-1.865,1.532-3.73,3.065-5.597,4.597
		c0.203,0.321,0.407,0.642,0.61,0.962c14.312-8.938,29.224-14.913,46.432-9.833c-11.441,2.956-23.101,5.312-32.191,13.529
		c0.108,0.25,0.217,0.502,0.324,0.752c3.228-1.486,6.372-3.197,9.698-4.412c6.9-2.52,13.915-4.721,20.847-7.155
		c6.87-2.414,12.588,0.153,17.821,4.194c8.966,6.923,11.434,16.38,9.743,27.137c-1.53,9.735-6.063,18.395-10.177,27.197
		c-1.385,2.96-2.399,6.093-3.929,10.035c-2.094-3.283-3.806-5.97-5.52-8.656c-0.354,0.129-0.708,0.259-1.063,0.388
		c0.945,2.524,1.291,5.572,2.952,7.468c3.972,4.532,8.479,8.613,12.929,12.702c3.628,3.334,7.527,6.4,8.973,11.405
		c1.849,6.403-1.042,12.831-7.358,16.488c-14.446,8.364-32.885,4.411-43.643-9.145c-6.192-7.802-8.256-16.451-6.359-26.145
		c0.121-0.618,0.171-1.25-0.353-2.214c-1.097,1.8-2.19,3.6-3.286,5.4c-0.337,0.02-0.675,0.041-1.014,0.061
		c-0.61-3.072-1.223-6.145-1.645-8.259c-1.937-0.423-3.506-0.343-4.521-1.055c-8.501-5.956-18.07-8.639-28.114-10.899
		c-8.641-1.945-15.941,1.629-23.788,2.953c-20.508,3.459-40.972,4.597-61.328-0.747c-10.634-2.792-20.718-6.922-28.578-14.968
		c-2.489-2.548-4.725-5.596-6.219-8.813c-3.385-7.289-0.226-14.236,7.622-15.766c5.438-1.061,11.222-0.817,16.818-0.528
		c12.468,0.646,24.903,1.893,37.371,2.508c15.794,0.78,31.595,0.563,47.301-1.529c3.942-0.525,7.806-1.642,11.704-2.487
		C127.423,245.218,127.338,244.849,127.253,244.479z"/>
	<path fill="#FFFFFF" d="M146.829,295.313c-9.183,10.396-20.799,16.468-32.375,22.752c5.229,0.724,9.547-2.113,14.928-3.456
		c-0.945,2.672-1.892,5.343-3.032,8.568c3.887-2.249,4.961-5.664,6.376-8.937c0.801-1.854,1.919-3.748,3.375-5.108
		c4.046-3.781,8.415-7.213,12.5-10.956c1.244-1.139,2.084-1.443,3.566-0.548c2.799,1.69,6.109,2.805,5.868,7.064
		c-0.05,0.893,0.316,2.024,0.895,2.7c3.023,3.538,1.02,6.004-1.411,8.721c-8.544,9.554-19.33,14.95-31.739,17.282
		c-14.609,2.746-28.916,2.062-42.465-4.713c-2.344-1.171-4.647-2.731-6.457-4.605c-5.802-6.011-6.324-12.731-1.559-20.106
		c1.896-2.932,4.313-5.546,6.664-8.15c0.712-0.788,1.963-1.375,3.035-1.506c9.453-1.158,18.699-3.005,27.64-6.48
		c2.19-0.852,5.036-0.184,7.563,0.019c8.46,0.68,16.648,2.537,24.423,6.018C145.274,294.164,145.837,294.657,146.829,295.313z"/>
	<path fill="#FFFFFF" d="M529.03,436.128c1.563-2.002,3.125-4.004,4.688-6.006c0.28,0.053,0.562,0.104,0.842,0.157
		c0,3.573,0,7.146,0,10.721c0.313,0.087,0.628,0.174,0.94,0.262c0.702-2.094,1.459-4.171,2.077-6.288
		c0.202-0.69,0.246-1.555,0.021-2.226c-2.26-6.735,0.117-13.235,0.833-19.833c0.243-2.245,1.188-2.881,3.264-2.876
		c7.336,0.017,13.834,5.744,14.928,13.346c2.122,14.738-4.374,25.676-15.553,34.313c-8.667,6.694-18.773,9.468-29.621,9.719
		c-3.864,0.09-4.395-0.567-4.478-4.367c-0.143-6.459,0.778-12.458,3.721-18.514c7.629-15.705,7.176-32.271,3.172-48.843
		c-2.966-12.273-7.922-23.668-16.228-33.394c-0.237-0.278-0.265-0.735-0.689-2.007c16.228,5.525,27.655,15.204,34.063,30.434
		c6.46,15.356,4.644,30.385-2.84,45.065C528.457,435.905,528.744,436.016,529.03,436.128z"/>
	<path fill="#FFFFFF" d="M422.711,507.083c-2.838,3.938-5.141,7.1-7.406,10.287c-4.077,5.736-8.038,11.562-12.268,17.184
		c-1.044,1.39-2.79,2.61-4.451,3.107c-6.973,2.09-14.071,3.882-19.646,8.908c-2.245,2.022-4.063,4.521-5.983,6.702
		c-1.78-3.157-3.727-6.489-5.517-9.903c-0.258-0.491,0.063-1.466,0.396-2.061c2.403-4.277,4.776-8.585,7.402-12.727
		c0.737-1.164,2.181-2.032,3.479-2.665c10.124-4.934,19.623-10.795,28.158-18.197c0.994-0.861,2.666-1.321,4.021-1.315
		C414.552,506.424,418.204,506.796,422.711,507.083z"/>
	<path fill="#FFFFFF" d="M194.994,222.132c5.71-3.472,17.246-0.632,26.259,6.188c10.899,8.247,16.561,25.013,12.805,37.923
		c-3.233,11.115-12.691,20.857-21.469,21.569c0.669-1.503,1.158-2.82,1.817-4.047c4.586-8.542,8.173-17.418,8.284-27.278
		c0.159-14.135-6.627-24.123-18.935-30.562C201.003,224.485,198.043,223.44,194.994,222.132z"/>
	<path fill="#FFFFFF" d="M424.982,219.819c2.31,4.191,4.317,8.034,6.512,11.765c2.479,4.217,5.327,8.23,7.605,12.548
		c0.952,1.805,1.267,4.193,1.134,6.27c-0.216,3.377-1.037,6.716-1.651,10.361c-5.483-1.132-7.897,2.534-9.947,6.325
		c-2.013,3.722-3.576,7.686-5.309,11.479C418.724,273.22,418.633,227.957,424.982,219.819z"/>
	<path fill="#FFFFFF" d="M467.13,336.217c13.666-1.38,26.28,2.148,37.664,9.859c12.003,8.13,19.868,19.595,18.468,26.208
		c-2.902-2.139-5.638-4.266-8.485-6.227c-6.475-4.453-13.296-8.098-21.301-9.002c-0.947-0.106-1.949-0.871-2.677-1.584
		c-6.666-6.546-14.04-12.131-22.211-16.668c-0.687-0.381-1.243-0.993-1.86-1.498C466.862,336.942,466.996,336.58,467.13,336.217z"/>
	<path fill="#FFFFFF" d="M455.384,263.675c-1.638-3.108-2.51-6.027-6.976-4.425c1.837-6.542-0.419-13.041,4.588-18.478
		c3.042-3.305,4.976-7.631,7.411-11.494c0.369-0.584,0.774-1.146,1.711-2.528C463.137,240.027,461.319,251.785,455.384,263.675z"/>
	<path fill="#FFFFFF" d="M400.478,505.642c-5.393,5.455-11.362,9.728-17.879,13.263c-0.249-0.227-0.498-0.449-0.748-0.675
		c1.486-2.187,2.95-4.387,4.466-6.551c1.037-1.479,2.117-2.932,3.229-4.356C393.03,502.854,394.64,502.563,400.478,505.642z"/>
	<path fill="#FFFFFF" d="M353.503,336.824c5.53,4.116,11.063,8.231,16.596,12.349c-0.21,0.28-0.419,0.563-0.628,0.842
		c-5.522-4.127-11.046-8.256-16.569-12.384C353.101,337.362,353.302,337.093,353.503,336.824z"/>
	<path fill="#FFFFFF" d="M521.431,328.938c-6.221,1.674-12.442,3.348-18.663,5.021c-0.082-0.296-0.162-0.593-0.244-0.889
		c6.219-1.716,12.438-3.433,18.656-5.15C521.264,328.26,521.348,328.599,521.431,328.938z"/>
	<path d="M246.06,565.856c5.375-0.633,10.463,0.709,15.113,2.841c10.93,5.007,21.804,10.194,32.349,15.955
		c7.072,3.86,13.576,8.773,20.256,13.331c1.707,1.165,3.123,2.759,4.427,4.504C294.462,589.638,271.498,575.386,246.06,565.856z"/>
	<path d="M430.699,593.674c16.151-22.845,39.118-36.569,63.95-47.742c0.163,0.224,0.326,0.445,0.489,0.669
		c-11.076,7.392-22.412,14.428-33.154,22.274C451.247,576.718,441.103,585.375,430.699,593.674z"/>
	<path d="M472.538,407.649c-0.474,2.646-0.753,5.642-1.563,8.483c-2.381,8.335-11.281,12.377-19.217,8.833
		c-5.601-2.502-9.472-6.865-12.423-12.084c-6.854-12.113-10.322-24.876-6.433-38.717c3.003-10.678,13.863-13.727,22.121-6.279
		C466.682,378.399,471.033,392.185,472.538,407.649z M434.235,382.708c0.352,3.391,0.437,5.859,0.884,8.26
		c1.953,10.469,5.609,20.163,13.56,27.676c7.249,6.852,16.733,5.183,19.604-3.428c0.627-1.882,0.824-3.979,0.839-5.979
		c0.065-9.284-2.629-17.954-6.942-25.997c-2.487-4.638-5.608-9.142-9.271-12.896c-6.52-6.683-14.549-4.413-17.167,4.497
		C434.908,377.671,434.614,380.662,434.235,382.708z"/>
	<path d="M484.399,377.069c0.236-2.217,0.231-4.491,0.761-6.637c1.065-4.316,4.247-5.355,7.66-2.502
		c1.7,1.422,3.308,3.096,4.517,4.942c5.449,8.334,8.912,17.481,10.038,27.374c0.341,2.99,0.117,6.255-0.744,9.125
		c-1.475,4.902-6.729,6.25-10.008,2.357c-3.022-3.588-5.745-7.811-7.243-12.215c-2.45-7.209-3.802-14.793-5.614-22.218
		C483.976,377.222,484.187,377.146,484.399,377.069z M505.643,404.304c-0.986-4.461-1.706-9.001-3.017-13.363
		c-2.184-7.258-4.827-14.393-9.724-20.347c-0.951-1.157-2.773-1.597-4.196-2.368c-0.533,1.525-1.578,3.07-1.522,4.573
		c0.448,12.118,3.499,23.604,9.217,34.302c1.188,2.224,2.621,5.435,5.855,4.433C505.445,410.544,505.167,407.213,505.643,404.304z"
		/>
</g>
<g id="button">
	<path fill="#FFFFFF" d="M434.235,382.708c0.379-2.046,0.673-5.036,1.505-7.866c2.618-8.911,10.647-11.18,17.167-4.497
		c3.663,3.756,6.784,8.26,9.271,12.896c4.313,8.043,7.009,16.713,6.942,25.996c-0.015,2-0.212,4.098-0.839,5.979
		c-2.871,8.609-12.355,10.278-19.604,3.429c-7.949-7.514-11.605-17.207-13.56-27.676
		C434.671,388.567,434.586,386.099,434.235,382.708z"/>
	<path fill="#FFFFFF" d="M505.643,404.304c-0.477,2.909-0.198,6.24-3.387,7.229c-3.234,1.002-4.667-2.209-5.855-4.433
		c-5.718-10.695-8.769-22.184-9.217-34.302c-0.056-1.503,0.989-3.048,1.522-4.573c1.423,0.771,3.245,1.211,4.196,2.368
		c4.896,5.954,7.54,13.089,9.724,20.347C503.937,395.304,504.657,399.843,505.643,404.304z"/>
</g>
<g id="pants">
	<path fill="#FFFFFF" d="M498.883,460.932c1.228-0.978,2.454-1.955,4.269-3.398c0,4.068-0.002,7.593,0,11.116
		c0.002,3.828-0.283,7.687,0.097,11.478c0.34,3.385-1.433,4.662-3.997,5.987c-13.8,7.138-28.444,9.417-43.786,7.942
		c-0.517-0.049-1.016-0.257-1.894-0.486c0.32-0.863,0.484-1.664,0.884-2.324c1.88-3.104,3.699-6.258,5.803-9.207
		c0.854-1.199,2.246-2.206,3.608-2.813c4.96-2.209,10.115-3.999,14.982-6.385c2.312-1.133,4.139-3.253,5.839-5.438
		c-12.121,6.132-24.851,10.148-37.918,13.239c0.013,0.378,0.026,0.756,0.04,1.134c2.901,0.15,5.803,0.302,9.075,0.471
		c-0.261,0.696-0.437,1.458-0.807,2.11c-1.371,2.411-3.07,4.674-4.161,7.201c-2.386,5.527-6.901,7.617-12.386,8.808
		c-19.52,4.229-38.428,1.547-57.053-4.711c-7.48-2.516-14.932-5.114-22.879-7.841c2.104-3.387,4.057-6.639,6.115-9.819
		c9.396-14.532,16.862-29.987,21.392-46.703c3.768-13.908,5.412-28.063,2.988-42.48c-0.227-1.338,0.351-3.234,1.247-4.276
		c18.091-21.038,40.896-32.79,68.714-34.423c3.29-0.192,6.611-0.004,9.911,0.164c9.063,0.463,16.317,4.635,22.252,11.252
		c20.462,22.824,26.11,49.117,17.432,78.299c-1.938,6.52-6.003,12.406-9.102,18.578c-0.365,0.728-0.813,1.415-1.222,2.121
		C498.514,460.662,498.699,460.796,498.883,460.932z M472.538,407.649c-1.505-15.465-5.854-29.25-17.515-39.764
		c-8.258-7.445-19.118-4.398-22.121,6.279c-3.891,13.841-0.421,26.604,6.433,38.717c2.951,5.219,6.822,9.582,12.423,12.084
		c7.936,3.544,16.836-0.498,19.217-8.833C471.785,413.291,472.064,410.296,472.538,407.649z M484.399,377.069
		c-0.212,0.076-0.423,0.152-0.635,0.229c1.813,7.426,3.164,15.008,5.614,22.217c1.497,4.405,4.221,8.629,7.243,12.217
		c3.278,3.892,8.533,2.543,10.008-2.358c0.861-2.87,1.085-6.136,0.744-9.125c-1.126-9.894-4.589-19.04-10.039-27.374
		c-1.209-1.848-2.814-3.521-4.516-4.941c-3.413-2.854-6.595-1.815-7.66,2.502C484.631,372.578,484.635,374.853,484.399,377.069z"/>
</g>
<g id="head">
	<g>
		<path fill="#FFFFFF" d="M447.856,246.379c-0.675,6.494-1.287,12.399-1.906,18.305c-0.055,0.529-0.246,1.06-0.215,1.58
			c0.365,6.156-1.378,11.146-7.197,14.273c-1.387,0.745-2.262,2.443-2.953,4.259c5.307-2.887,10.475-6.083,15.961-8.578
			c5.62-2.555,11.606-4.07,18.601-3.069c-0.882,1.483-1.535,2.49-2.099,3.545c-2.746,5.152-6.158,10.08-8.044,15.533
			c-3.131,9.055,1.379,17.144,10.661,19.628c3.9,1.043,8.196,0.641,12.315,0.814c0.905,0.038,1.824-0.271,3.685-0.575
			c-3.167,4.977-6.615,8.522-10.478,11.662c-9.376,7.621-20.251,12.295-31.816,15.256c-23.725,6.073-46.165,2.83-67.019-10.203
			c-10.988-6.868-18.803-16.495-24.564-28.057c-3.895-7.818-8.234-15.439-12.816-22.877c-2.012-3.266-5.124-5.854-7.736-8.749
			c0.117-0.266,0.235-0.531,0.354-0.796c3.337,1.075,6.674,2.15,10.055,3.24c-1.448-3.728-10.161-7.989-17.925-8.359
			c-5.543-0.264-11.448-1.271-15.74,4.066c0.681-0.094,1.391-0.096,2.038-0.297c9.151-2.843,16.498-0.509,22.816,6.847
			c5.286,6.152,9.442,12.868,13.027,20.063c4.706,9.443,8.895,19.209,16.071,27.202c0.185,0.206,0.196,0.566,0.45,1.357
			c-3.672-0.078-6.187-2.127-8.433-4.11c-3.996-3.529-7.623-7.473-11.437-11.21c-2.5-2.451-5.058-4.844-7.587-7.263
			c-0.229,0.171-0.458,0.343-0.688,0.515c0.915,1.492,1.83,2.984,2.745,4.476c-0.146,0.213-0.294,0.427-0.441,0.641
			c-0.998-0.378-2.118-0.578-2.979-1.162c-7.501-5.084-15.168-9.957-22.367-15.442c-8.589-6.544-16.29-14.084-22.779-22.808
			c-5.047-6.786-7.335-13.946-3.629-22.092c3.599-7.904,12.708-12.195,22.612-10.961c11.865,1.477,22.484,6.284,31.987,13.1
			c10.022,7.189,19.342,15.362,28.968,23.106c0.406,0.327,0.809,0.658,1.983,1.615c-0.368-1.708-0.51-2.654-0.777-3.562
			c-5.412-18.275-9.13-36.824-10.077-55.933c-0.573-11.58-0.052-22.987,1.942-34.415c1.83-10.489,8.696-10.913,16.072-8.95
			c6.74,1.793,11.744,6.54,16.354,11.431c10.066,10.687,18.412,22.724,26.271,35.082c0.678,1.063,0.547,2.92,0.235,4.282
			c-1.083,4.755-2.968,9.388-3.543,14.188c-1.84,15.368-1.354,30.675,2.902,45.681c0.738,2.604,1.249,5.905,4.48,6.474
			c3.566,0.627,6.215-1.5,8.442-4.224c4.676-5.718,6.073-12.611,7.203-19.593c0.612-3.784,1.151-7.598,1.388-11.418
			C442.467,246.129,445.367,247.296,447.856,246.379z"/>
		<path fill="#FFFFFF" d="M468.385,212.038c0.329,4.513,1.042,9.036,0.917,13.537c-0.414,14.867-3.473,29.177-10.186,42.548
			c-0.653,1.304-2.223,2.148-3.365,3.206c-0.313-0.229-0.625-0.458-0.938-0.688c0.397-0.985,0.702-2.021,1.21-2.947
			c5.114-9.313,7.96-19.307,8.559-29.873c0.288-5.086-0.33-10.223-0.046-15.311c0.199-3.571,1.23-7.095,1.892-10.64
			C467.081,211.927,467.733,211.982,468.385,212.038z"/>
	</g>
</g>
<path id="shoes" fill="#FFFFFF" d="M575.607,576.399c-5.352-15.173-15.911-25.93-29.881-33.261
	c-15.793-8.286-32.483-8.785-49.545-4.429c-12.296,3.14-24.638,6.104-36.974,9.087c-1.86,0.451-2.091,1.231-1.961,3.146
	c0.181,2.663-0.052,5.577-0.989,8.05c-1.971,5.202-6.252,8.604-10.8,11.473c-12.112,7.643-25.399,10.737-39.68,10.068
	c-10.519-0.493-19.814-3.602-27.22-10.848l1.738-2.731c3.991,4.134,9.009,6.413,14.392,7.889
	c10.438,2.861,20.934,2.228,31.319-0.319c9.081-2.228,17.768-5.416,24.517-12.331c6.628-6.79,4.591-15.181-4.354-18.38
	c-1.746-0.623-2.792-0.474-3.506,1.366c-1.351,3.487-4.005,5.54-7.392,7.074c-7.968,3.606-16.311,5.205-24.93,4.347
	c-4.132-0.412-8.409-1.604-12.114-3.458c-3.9-1.949-3.98-4.306-1.612-7.906c0.5-0.759,0.96-1.541,1.438-2.313
	c-0.215-0.263-0.43-0.527-0.646-0.791c-7.366,1.164-14.059,3.785-18.64,10.146c-1.625,2.258-2.404,4.438-2.4,6.566l-4.29,6.744
	c-0.407,0.121-0.824,0.3-1.265,0.574c-2.21,1.38-1.509,3.257-0.94,5.369c1.572,5.841,3.357,11.708,4.063,17.682
	c1.142,9.677-0.347,19.179-4.14,28.229c-0.142,0.338-0.241,0.656-0.319,0.966l-6.056,0.326c6.204-11.549,8.519-23.996,5.699-37.551
	c-0.591-2.839-1.623-5.585-2.475-8.444c-0.051,0.039-0.098,0.078-0.148,0.116l-1.479-5.404c1.348-2.146,2.411-4.539,3.145-7.197
	c1.31-4.739,0.073-10.107-3.325-12.712c-0.92,1.548-1.714,3.146-2.749,4.57c-2.225,3.068-4.111,6.6-6.951,8.966
	c-10.046,8.367-26.321,6.005-35.661-0.667c-5.479-3.911-6.37-9.217-2.763-14.785c1.016-1.565,1.983-3.161,3.352-5.346
	c-1.803,0.226-2.984,0.177-4.021,0.539c-6.565,2.29-12.62,5.582-16.599,11.406c-1.886,2.762-3.307,6.298-3.599,9.602
	c-0.733,8.292,4.381,13.389,11.263,16.563c15.276,7.041,30.722,6.482,45.794-0.569c2.07-0.969,3.979-2.116,5.718-3.436l1.085,3.963
	c-1.449,1.123-2.908,2.146-4.465,2.984c-15.063,8.107-30.818,8.225-46.42,2.019c-8.612-3.427-15.319-9.502-16.911-19.382
	c-0.477-2.961-0.074-6.065-0.074-9.42c-1.302,0.253-2.824,0.594-4.362,0.838c-5.476,0.87-10.935,2.23-16.438,2.453
	c-15.998,0.651-32.021,0.672-48.022,1.264c-12.101,0.446-23.879,2.406-35.12,7.49c-23.439,10.601-33.999,38.646-23.08,62.07
	c6.079,13.041,16.084,22.53,27.757,30.336c17.749,11.866,37.639,16.949,58.808,17.027c17.989,0.063,35.495-3.084,52.188-9.883
	c21.824-8.888,41.773-20.495,55.585-40.436c0.983-1.42,1.895-2.857,2.757-4.305l7.818-0.421c0.335,0.577,0.881,1.095,1.661,1.566
	c4.29,2.595,8.365,5.591,12.813,7.866c14.478,7.405,30.029,11.746,45.917,14.637c12.038,2.189,24.266,3.351,30.996,4.247
	c25.086-0.564,40.144-2.604,59.194-8.054c15.4-4.403,30.011-10.629,42.392-21.129C576.624,608.309,581.294,592.523,575.607,576.399z
	 M246.06,565.856c5.375-0.633,10.463,0.709,15.113,2.841c10.93,5.007,21.804,10.194,32.349,15.955
	c7.071,3.86,13.575,8.773,20.256,13.331c1.707,1.165,3.123,2.759,4.427,4.504C294.463,589.638,271.498,575.386,246.06,565.856z
	 M461.984,568.875c-10.737,7.843-20.881,16.499-31.285,24.799c16.151-22.844,39.118-36.569,63.95-47.742
	c0.163,0.224,0.326,0.445,0.489,0.669C484.062,553.991,472.726,561.027,461.984,568.875z"/>
</svg>
