<?xml version="1.0" encoding="utf-8"?>
<!-- Generator: Adobe Illustrator 16.0.0, SVG Export Plug-In . SVG Version: 6.00 Build 0)  -->
<!DOCTYPE svg PUBLIC "-//W3C//DTD SVG 1.1//EN" "http://www.w3.org/Graphics/SVG/1.1/DTD/svg11.dtd">
<svg version="1.1" id="Layer_1" xmlns="http://www.w3.org/2000/svg" xmlns:xlink="http://www.w3.org/1999/xlink" x="0px" y="0px"
	 width="627px" height="870.137px" viewBox="-133.5 -203.355 627 870.137" enable-background="new -133.5 -203.355 627 870.137"
	 xml:space="preserve">
<g id="dogido">
	<g id="gido">
		<path fill="#686868" d="M411.865,234.002c-6.691-4.618-8.484,2.092-11.944,5.045c-1.928,1.655-3.617,4.653-6.602,3.301
			c-2.429-1.098-2.062-4.119-2.054-6.406c0.051-12.369-6.286-24.292-2.436-36.983c0.62-2.044-0.525-4.638-0.896-6.975
			c-2.291-14.313-4.56-28.63-3.924-43.21c0.154-3.538-0.115-7.108,2.896-9.859c13.697-12.525,11.372-26.499,5.485-42.173
			c-7.072-18.799-9.985-38.929-15.715-58.282c-5.359-18.107-9.061-35.128-26.336-45.544c-3.867-2.331-6.271-5.513-7.86-10.14
			c-5.152-14.968-6.17-32.491-23.189-40.805c-0.979-0.48-1.632-1.685-2.396-2.588c-15.668-18.465-25.745-41.021-42.897-58.444
			c-2.898-2.936-3.47-7.366-3.766-11.618c-0.643-9.309-2.729-18.085-9.724-25.019c-3.67-3.629-4.06-7.954-3.019-13.089
			c1.924-9.468-4.432-21.013-12.986-25.125c-9.819-4.719-16.485-0.54-16.805,10.455c-0.11,3.837-0.261,7.69-0.75,11.49
			c-0.461,3.648-2.14,4.957-6.126,3.293c-19.555-8.158-19.599-8.061-24.836,12.834c-0.217,0.859-0.432,1.718-0.62,2.588
			c-0.875,4.11-3.557,5.912-7.602,6.024c-20.782,0.57-41.554,0.977-60.136-10.661c-5.724-3.583-9.693-2.029-13.6,3.012
			c-7.022,9.053-10.992,9.826-21.146,4.261c-4.875-2.673-10.577-5.681-15.011-2.443c-9.586,6.995-20.583,6.167-31.108,7.401
			c-13.192,1.546-21.811,12.32-34.323,15.431c-5.935,1.477-5.538,9.909-0.268,12.461c9.041,4.381,9.203,5.154,1.374,12.167
			c-2.836,2.543-6.095,4.659-9.324,6.707c-2.991,1.899-5.009,4.051-4.288,7.915c1.615,8.662-2.863,15.359-7.209,22.112
			c-3.804,5.917-8.264,6.508-12.907,1.275c-4.249-4.787-9.186-7.306-15.619-6.531c-13.683,1.646-27.885,2.216-34.309,17.937
			c-0.72,1.762-2.794,2.976-4.256,4.431c-8.736,8.697-7.349,16.555,4.412,19.232c8.258,1.881,10.402,4.961,9.046,13.256
			C-62.68-8.41-57.371,0.331-48.723,6.669c7.876,5.767,12.749-1.622,18.805-4.702C-17.929-4.135-8.346-4.286-2.184,11.72
			C1.824,22.138-4.07,28-8.394,34.637c-6.872,10.552-7.182,12.056,2.167,20.385c6.051,5.396,6.6,11.291,1.477,16.934
			c-2.79,3.077-4.993,4.721-7.665-0.718C-17.6,60.687-36.314,56.868-44.951,64.4c-8.012,6.992-16.08,13.998-23.386,21.702
			c-10.263,10.817-14.834,24.657-18.126,38.848c-0.851,3.665-0.619,7.695,0.764,11.398c2.162,5.79,6.072,6.926,11.164,3.722
			c1.975-1.245,3.488-3.205,5.408-4.568c3.071-2.188,5.331-1.103,5.413,2.488c0.156,6.915,0.689,13.356,6.348,18.527
			c1.793,1.638,1.254,4.98,0.603,7.682c-3.347,13.838-3.327,13.855,9.292,21.429c2.026,1.215,4.091,2.383,6.205,3.431
			c11.181,5.545,14.775,12.482,12.768,24.926c-0.518,3.212-1.223,6.388-1.818,9.587c-1.609,8.697,1.864,14.163,10.271,16.953
			c3.692,1.22,8.251,1.539,9.882,5.982c-0.529,1.735-1.789,1.886-2.937,1.967c-4.506,0.323-9.151,0.49-10.909,5.761
			c-1.565,4.705,1.176,7.882,4.346,10.787c3.099,2.846,4.044,6.299,3.425,10.446c-0.654,4.383-1.315,8.82-1.293,13.234
			c0.046,8.937-3.573,15.38-11.723,19.142c-4.627,2.142-8.383,5.515-8.203,10.65c0.599,16.998-5.456,31.634-14.3,45.648
			c-1.927,3.057-1.725,7.4-2.807,11.063c-5.204,17.603-9.555,22.393-25.093,21.371c-4.862-0.315-9.287,1.315-13.82,2.71
			c-11.631,3.568-12.799,6.097-7.561,16.91c3.543,7.313,4.776,13.95-1.73,21.037c-5.738,6.249-10.059,13.855-14.644,21.094
			c-3.212,5.064-5.023,10.542-3.519,16.87c2.507,10.547,7.659,20.574,6.32,31.938c-0.173,1.443,1.056,3.603,2.304,4.563
			c5.913,4.537,4.331,9.304,1.469,14.816c-4.344,8.368-7.766,17.152-12.485,25.407c-7.252,12.711-3.277,19.69,10.754,21.523
			c8.224,1.073,15.817,0.64,22.478-5.205c1.881-1.653,4.759-2.976,7.211-3.031c7.915-0.182,11.276-3.953,10.893-11.66
			c-0.316-6.337,2.981-8.649,8.914-7.296c3.422,0.771,6.157,0.242,9.052-1.966c6.517-4.984,16.833-4.553,22.191,1.849
			c6.397,7.641,14.432,9.309,23.594,9.89c19.248,1.201,38.239-3.821,57.483-2.062c7.913,0.726,14.634-1.183,18.903-8.666
			c1.725-3.02,4.858-4.35,8.137-4.869c7.152-1.123,12.665-4.429,16.463-10.757c2.696-4.48,6.552-5.354,11.436-3.027
			c3.699,1.766,7.634,3.301,11.633,4.084c4.124,0.801,8.415,0.353,10.887-3.99c2.586-4.548,4.102-9.269,1.032-14.228
			c-0.925-1.499-2.12-2.84-3.179-4.258c-2.787-3.731-1.624-7.216,0.68-10.64c2.384-3.549,5.738-3.938,9.392-2.623
			c3.885,1.402,7.597,3.321,11.515,4.607c11.309,3.721,16.353,1.193,20.521-10.063c0.718-1.929,1.306-3.945,1.664-5.977
			c1.084-6.19,3.7-7.564,9.806-4.812c13.833,6.232,17.712,4.429,23.724-9.702c1.653-3.892,2.939-7.931,8.033-8.348
			c8.456-0.702,16.969-2.675,23.481,5.87c3.257,4.276,8.845,5.577,14.291,6.278c3.784,0.486,7.823,0.853,11.175,2.465
			c6.603,3.159,12.302,1.879,18.604-0.995c11.918-5.426,19.003-13.205,18.046-27.292c-0.485-7.259,1.631-14.66,9.867-17.027
			c6.66-1.91,11.406-6.003,15.956-10.694c2.269-2.333,4.32-4.877,7.897-5.301c11.384-1.328,20.717-6.409,28.104-15.228
			c2.906-3.468,7.091-5.268,11.103-7.171c5.563-2.627,6.987-7.271,8.923-13.003c4.043-12.015,13.03-21.985,16.183-34.639
			c0.057-0.231,0.428-0.397,0.671-0.557c6.796-4.35,8.956-10.775,7.836-18.395c-0.865-5.899,0.845-10.755,3.966-15.782
			c6.588-10.609,9.845-22.401,7.353-34.806c-1.712-8.53-1.321-16.376,2.419-24.146C418.908,243.807,418.055,238.282,411.865,234.002
			z M83.275-149.658c2.821,0.395,5.551,1.893,8.181,3.18c11.649,5.686,17.406,4.749,25.58-5.023c2.709-3.24,5.145-4.599,8.992-2.208
			c19.771,12.271,41.801,11.006,63.701,10.562c5.108-0.105,8.415-2.348,9.498-7.49c0.304-1.451,0.629-2.889,0.963-4.332
			c4.032-17.39,4.846-17.871,20.43-8.427c5.741,3.482,8.56,1.101,9.686-3.968c1.139-5.135,1.056-10.546,1.469-15.84
			c0.59-7.492,4.677-9.848,11.245-6.453c6.971,3.606,11.826,12.948,10.013,20.843c-1.566,6.806,0.158,12.323,4.837,17.026
			c4.856,4.879,7.273,10.614,7.492,17.443c0.34,10.6,5.055,18.721,12.47,26.447c7.266,7.577,12.827,16.882,18.578,25.793
			c8.986,13.943,17.505,28.173,31.994,37.373c1.771,1.125,3.774,2.735,3.49,4.842c-1.257,9.414,5.822,16.563,6.566,25.403
			c0.411,5,4.313,7.4,7.972,10.018c11.222,8.02,20.893,16.796,23.303,31.788c1.677,10.408-3.771,25.663-13.33,30.427
			c-4.271,2.13-8.747-0.192-13.155-0.146c-9.524,1.11-19.583-0.826-28.255,5.044c-2.235,1.515-3.962,0.871-5.359-0.968
			c-4.335-5.733-8.943-3.862-14.001-0.994c-11.88,6.739-24.771,5.598-34.754-3.588c-5.015-4.614-10.996-3.754-16.674-4.614
			c-8.053-1.222-15.873-0.705-18.064-12.256c-1.601-8.434-16.655-11.551-25.178-5.809c-4.89,3.292-7.25,3.075-10.544-1.746
			c-2.546-3.717-7.115-5.908-11.682-5.041c-4.96,0.94-4.034,6.092-4.552,9.59c-1.373,9.183-7.577,9.72-14.969,9.887
			c-8.143,0.186-8.229-5.667-8.582-10.714c-0.551-7.942-0.472-16.002,4.584-22.955c2.915-4.002,3.641-7.975-0.143-12.001
			c-3.404-3.623-3.049-7.86-2.252-12.479c2.041-11.767-1.201-15.663-13-16.537c-14.92-1.112-17.029-3.394-17.113-18.723
			c-0.015-3.019-0.579-5.834-1.907-8.562c-2.557-5.275-1.453-10.397,1.047-15.33c6.274-12.375,1.69-29.145-10.503-36.222
			c-7.65-4.437-15.626-8.442-23.789-11.835c-9.917-4.123-13.708-12.593-16.733-21.655C69.156-144.914,76.374-150.625,83.275-149.658
			z M167.599,155.874c3.532,10.753,0.98,19.119-3.47,28.36c-3.202,6.634,2.07,19.269,8.762,23.075
			c3.053,1.738,6.479,2.863,9.809,4.065c9.527,3.437,9.542,3.403,2.392,9.909c-3.913,3.564-5.134,8.586-6.935,13.22
			c-3.097,7.978-7.452,13.653-16.298,11.207c-7.241,0.471-13.198-0.737-18.987-3.445c-5.147-2.406-9.041-5.235-9.192-11.666
			c-0.116-4.926-2.744-9.333-6.076-12.557c-10.082-9.749-9.3-22.51-9.796-34.643c-0.244-6.061-1.339-9.845-7.057-12.603
			c-13.19-6.37-19.446-18.638-24.136-31.486c-2.304-6.313-0.805-12.341,5.635-17.079c9.384-6.902,9.118-12.644,0.452-20.353
			c-6.451-5.741-6.126-9.08,1.44-13.228c13.473-7.39,25.934-16.522,39.949-22.979c1.315-0.61,2.912-1.398,3.562-2.561
			c5.867-10.531,15.185-12.449,26.254-11.708c7.656,0.509,12.917-3.253,14.104-11.572c0.39-2.723,0.396-6.5,4.394-6.722
			c2.976-0.168,4.508,2.234,5.745,4.794c3.271,6.806,8.25,5.587,13.138,2.238c11.293-7.736,19.83-4.86,22.507,8.11
			c0.928,4.526,3.093,6.678,7.58,7.067c6.474,0.562,12.924,1.282,19.379,2.074c9.477,1.161,11.681,6.163,6.936,14.324
			c-4.744,8.168-9.046,16.605-13.401,24.998c-2.768,5.338-6.422,7.378-12.238,4.506c-9.131-4.506-16.855-1.54-23.003,5.555
			c-5.367,6.184-11.664,10.682-18.947,14.262C177.843,127.065,164.364,146.015,167.599,155.874z M114.255,204.252
			c-0.953,7.708-6.208,9.923-12.444,9.453c-11.56-0.867-16.491-6.851-16.431-19.149c-0.195-4.605,0.119-9.993,3.027-14.624
			c2.825-4.509,5.05-11.091,11.271-10.698c6.624,0.425,12.94,9.84,13.17,16.605C113.054,191.985,115.031,197.944,114.255,204.252z
			 M-1.77,2.839C-10.642-7.701-19.391-8.999-31.584-2.353c-4.798,2.614-8.745,9.703-15.477,4.77
			c-6.848-5.017-9.875-12.295-9.483-20.865c0.039-0.886,0.119-1.77,0.226-3.301c1.772-8.308-0.903-13.767-10.96-14.229
			c-3.246-0.151-6.491-1.776-7.597-5.278c-1.225-3.882,1.881-5.808,4.312-7.955c1.528-1.353,3.624-2.579,4.292-4.311
			c5.835-15.142,19.493-14.873,32.099-16.372c4.735-0.564,8.697,1.833,10.883,6.22c2.155,4.335,0.5,8.011-2.676,11.203
			c-3.484,3.5-3.784,7.083-0.509,10.971c2.606,3.088,2.64,7.119,3.607,10.815c2.272,8.676,7.015,10.104,13.665,4.006
			c1.835-1.684,3.547-3.452,6.111-2.71c6.815,1.969,11.082,6.985,12.931,13.411C11.696-9.514,13.2-2.513,7.238,3.073
			C4.273,5.856,1.402,6.605-1.77,2.839z M-3.681,51.253c-5.631-4.205-5.815-8.243-1.387-13.298c3.5-3.995,4.632-9.588,8.73-13.27
			c0.786-0.705,1.661-2.447,1.325-3.111C-1.519,8.836,14.329,6.543,16.174-2.353c0.535-2.568,4.109-3.169,5.979-1.49
			c6.671,5.981,15.159,4.399,22.81,5.75c14.654,2.588,26.669-8.481,26.535-23.508c-0.066-7.314-11.973-24.873-18.892-27.48
			c-5.997-2.258-11.583-2.118-15.859,3.69c-2.616,3.555-5.566,6.863-8.19,10.42c-5.104,6.922-14.594,9.695-22.057,5.499
			c-6.928-3.894-13.276-8.634-20.153-0.068c-1.417,1.764-3.152,0.648-4.341-1.003c-8.767-12.198-5.248-22.565,8.218-30.355
			c9.338-5.404,13.828-15.632,14.57-26.125c0.404-5.72,2.336-8.559,6.677-11.101c4.383-2.566,8.079-6.064,10.999-10.189
			c4.813-6.802,3.332-11.009-4.473-13.513c-1.365-0.436-3.037-0.26-3.635-1.981c-0.472-1.362,0.351-2.665,1.394-2.849
			c12.7-2.241,20.734-14.388,34.38-15.326c10.966-0.752,15.22,0.147,19.345,10.6c3.395,8.581,9.065,14.261,17.479,17.689
			c5.47,2.229,10.586,5.396,16.151,7.302c11.416,3.912,13.989,14.46,18.449,23.577c1.479,3.019-0.68,5.658-2.289,8.15
			c-4.418,6.839-6.273,13.947-2.566,21.777c1.714,3.607,1.218,7.509,1.133,11.355c-0.248,11.138,1.786,13.783,12.735,16.869
			c0.853,0.243,1.719,0.448,2.579,0.651c14.419,3.396,12.169,3.895,15.301,17.942c2.428,10.889,1.574,19.849-1.8,29.648
			c-1.012,2.948-0.883,6.516-0.463,9.691c2.059,15.358-6.941,23.782-18.653,30.702c-10.69,6.314-21.324,12.716-31.95,19.131
			c-7.543,4.554-14.424,5.938-23.089,0.965c-10.527-6.05-22.261-4.822-33.314,0.235c-11.844,5.417-28.355,1.077-35.517-9.41
			c-1.47-2.152-1.712-4.486-0.918-6.773C5.349,60.635,1.799,55.346-3.681,51.253z M13.964-21.05
			c0.128-3.477,4.011-3.039,6.436-2.804c11.141,1.081,12.362-9.446,17.213-15.144c6.883-8.084,10.777-9.105,18.367-1.545
			c12.314,12.265,13.999,20.34,6.729,31.695c-3.325,5.194-7.884,7.763-16.934,6.801c-8.28,0.662-18.223-3.615-27.984-8.007
			C13.56-11.956,13.819-17.175,13.964-21.05z M-17.67,236.54c-7.738-2.069-9.478-7.12-8.054-14.169
			c1.526-7.563,2.638-15.081,0.646-22.81c-1.582-6.137-4.5-10.762-10.74-13.012c-3.038-1.093-5.823-2.863-8.784-4.192
			c-7.968-3.566-13.857-7.61-7.799-17.754c2.313-3.869,1.325-9.958-1.666-12.542c-5.668-4.9-5.308-10.688-5.492-16.825
			c-0.077-2.629,0.064-5.633-2.685-7.093c-3.255-1.725-5.414,1.144-7.963,2.421c-3.391,1.696-5.378,8.255-9.985,4.868
			c-4.179-3.071-2.546-8.714-1.53-13.319c5.376-24.328,22.248-40.384,40.592-55.064c7.248-5.799,21.869-0.623,25.424,8.219
			c1.961,4.879,4.227,8.124,9.626,3.862c2.652-2.093,4.93-0.942,7.287,0.53c3.508,2.2,7.294,4.017,10.536,6.543
			c9.527,7.422,19.224,7.77,29.734,2.089c11.739-6.341,34.378-4.06,43.722,11.855c2.62,4.458,9.878,5.579,8.937,12.26
			c-0.797,5.623-7.01,6.98-9.64,11.098c-4.32,6.768-3.345,14.141-0.83,21.296c0.867,2.466,2.382,4.774,3.922,6.924
			c5.474,7.655,7.005,14.148-0.579,22.41c-7.821,8.515-7.008,20.289-5.938,31.332c0.237,2.491,1.657,4.646,3.874,5.636
			c8.863,3.954,16.954,12.946,27.878,4.151c3.433-2.765,6.486-0.89,9.217,2.06c6.363,6.879,7.685,15.775,9.765,24.281
			c1.008,4.141-3.125,4.661-5.839,4.972c-11.416,1.3-20.881-3.424-28.453-11.327c-8.87-9.268-15.986-10.009-25.369-0.841
			c-3.244,3.171-6.598,5.769-10.813,3.128c-4.247-2.656-1.177-6.316,0.039-9.444c1.699-4.352-0.235-6.759-4.102-8.227
			c-4.711-1.786-9.482-3.371-14.01-3.184c-12.505-0.691-15.949,8.356-19.43,16.823c-5.459,13.274-6.818,14.379-20.782,13.878
			c-3.095-0.106-5.872-0.707-8-3.083C-8.424,240.426-12.791,237.843-17.67,236.54z M-34.819,338.463
			c1.194-2.427,0.726-5.793,0.633-8.712c-0.275-8.714,0.794-16.168,10.5-20.141c6.339-2.587,9.507-8.507,9.948-15.645
			c0.329-5.305,0.891-10.601,1.641-15.859c0.922-6.51,0.121-12.367-4.938-17.115c-1.504-1.407-3.168-2.969-2.419-5.323
			c0.898-2.833,3.503-2.811,5.847-2.969c8.549-0.584,17.099-1.48,25.651-1.545c7.443-0.066,11.352-3.889,13.76-10.289
			c1.558-4.143,3.196-8.264,5.042-12.284c3.21-6.998,8.815-9.11,16.083-7.383c6.014,1.428,12.052,2.561,7.645,11.397
			c-1.747,3.506,0.104,6.973,3.635,8.993c4.166,2.377,8.538,2.68,12.564-0.056c2.406-1.648,4.122-4.287,6.495-5.989
			c5.595-4.017,10.593-5.346,15.933,1.438c10.621,13.503,26.382,17.353,42.054,10.799c3.398-1.416,6.23-1.136,9.348-0.044
			c4.197,1.466,8.427,2.627,12.935,2.817c10.409,0.441,10.406,0.534,10.358,11.595c2.739,7.138-2.195,11.204-8.402,13.235
			c-16.449,5.397-22.828,19.629-30.195,33.034c-5.353,9.742-2.359,18.923,2.711,27.722c3.207,5.562,8.949,11.496,3.552,17.574
			c-5.283,5.952-10.589,13.857-21.239,10.926c-4.287-1.185-7.94,1.37-10.732,4.838c-4.721,5.882-10.982,7.564-18.246,6.597
			c-7.904-1.057-15.848-1.828-23.735-3c-7.88-1.179-13.477-4.552-12.112-13.979c0.777-5.354-1.522-9.037-6.537-11.271
			c-5.393-2.39-10.518-5.426-15.993-7.59c-10.926-4.324-17.366-1.965-22.042,9.047c-4.302,10.13-10.792,16.654-21.886,18.348
			c-4.601,0.713-8.163-0.15-10.501-4.452c-0.845-1.554-1.618-3.307-2.893-4.438C-36.753,352.999-38.854,346.658-34.819,338.463z
			 M141.558,493.347c-12.151-5.042-16.458-4.21-21.357,3.85c-2.956,4.872-3.281,9.449,0.896,13.736
			c3.714,3.813,5.393,8.145,1.826,12.657c-3.365,4.256-7.924,2.783-12.193,1.163c-13.87-5.268-13.883-5.29-24.246,6.143
			c-1.861,2.061-4.047,3.468-6.708,4.074c-7.327,1.664-14.318,3.668-18.072,11.252c-1.082,2.189-3.718,3.097-6.163,2.865
			c-22.164-2.13-44.023,4.464-66.21,2.183c-7.351-0.761-13.598-2.502-18.407-8.881c-4.089-5.425-19.573-8.184-24.608-4.362
			c-4.173,3.168-8.27,4.14-13.123,3.699c-6.137-0.548-9.829,1.671-9.193,8.438c0.592,6.326-1.572,10.076-8.46,10.727
			c-2.489,0.231-5.253,1.609-7.152,3.303c-5.851,5.202-12.353,5.871-19.805,4.838c-10.58-1.465-13.846-6.342-7.946-15.372
			c5.736-8.784,9.105-18.532,13.715-27.747c2.809-5.621,5.255-11.717-2.267-16.195c-1.568-0.94-2.88-2.557-2.561-4.392
			c1.719-9.885-2.41-18.51-5.367-27.463c-1.936-5.855-1.247-11.793,2.173-17.061c4.504-6.936,8.483-14.434,14.083-20.38
			c8.001-8.479,7.131-17.213,2.372-25.964c-3.764-6.906-1.833-9.419,5.003-11.146c4.927-1.249,9.789-1.937,14.849-2.076
			c14.966-0.43,19.324-3.894,24.871-17.714c2.772-6.906,2.511-14.577,6.128-21.216c4.153-7.623,6.868-8.038,12.101-1.451
			c4.227,5.316,6.366,13.534,15.79,11.616c10.699-2.182,20.493-5.569,25.328-16.926c2.32-5.446,3.784-12.89,11.871-12.535
			c9.813,0.439,17.876,5.623,25.231,11.699c1.016,0.843,0.784,3.336,0.909,5.077c0.851,11.873,4.087,15.558,15.812,17.438
			c6.706,1.08,13.444,1.975,20.183,2.825c10.409,1.322,19.693,0.052,27.358-8.622c4.796-5.426,15.431-2.59,17.25,4.6
			c3.005,11.875,9.759,21.444,16.636,31.042c7.662,10.692,12.303,22.465,11.298,35.587c-0.881,11.489,8.106,19.199,9.792,29.586
			c0.351,2.166,2.044,4.193,1.833,6.677C164.47,494.379,156.241,499.438,141.558,493.347z M294.855,432.717
			c-4.868,5.943-3.42,13.574-4.485,20.48c-1.916,12.513-17.142,22.357-29.125,18.181c-4.266-1.479-8.541-2.237-12.97-2.657
			c-5.181-0.491-9.608-2.464-13.234-6.398c-11.313-12.311-31.344-8.864-37.682,6.389c-3.835,9.229-7.007,9.948-16.535,6.8
			c-16.563-5.449-21.068-18.838-22.299-33.601c-1.389-16.56-6.923-31.043-17.237-43.777c-3.602-4.449-6.291-9.31-8.521-14.462
			c-5.95-13.748-5.83-14.411,4.871-24.699c4.925-4.725,5.976-10.09,3.214-16.117c-1.589-3.479-3.752-6.689-5.663-10.027
			c-5.099-8.892-4.89-17.02-0.072-26.694c7.006-14.104,17.208-23.61,31.265-29.684c1.854-0.804,4.082-2.963,5.643-1.216
			c6.062,6.778,14.768,5.223,22.196,7.498c10.386,3.192,16.844,9.677,18.104,20.437c0.944,8.075,5.408,11.293,12.907,11.642
			c8.569,0.408,17.121,1.059,25.688,1.228c9.064,0.167,17.486-0.765,24.373,8.424c5.562,7.409,31.408,6.302,39.457,0.301
			c2.131-1.589,4.118-3.401,6.366-4.803c8.523-5.3,12.478-3.518,12.742,6.394c0.252,9.412,5.469,14.085,13.232,17.974
			c12.2,6.104,12.644,10.213,0.954,17.353c-13.472,8.236-25.268,18.458-37.505,28.21c-2.527,2.021-5.903,3.949-6.96,6.668
			c-3.954,10.106-11.844,11.22-24.692,9.746c-4.927-1.664-11.462,2.811-18.32,7.186c-8.286,5.292-9.932,8.742-5.753,15.286
			c4.586,7.197,13.64,9.089,19.933,3.742c2.627-2.232,4.67-5.318,6.484-8.315c3.107-5.171,6.701-4.646,11.183-1.958
			C297.051,425.028,298.852,427.834,294.855,432.717z M248.192,273.456c-1.343-4.463,0.175-7.468,4.414-9.206
			c6.113-2.507,10.92-6.635,15.727-11.153c6.508-6.105,15.228-5.444,23.484-4.978c2.204,0.123,3.602,1.91,4.217,4.06
			c0.404,1.416,0.688,2.865,1.063,4.298c4.798,18.405,3.236,16.896-9.908,30.486c-7.642,7.9-19.184,11.004-24.204,21.61
			c-1.983,4.171-6.837,2.392-10.371,2.729c-8.495,1.291-9.569-1.429-6.629-9.181C249.441,293.062,251.145,283.281,248.192,273.456z
			 M365.406,388.225c-4.752,2.477-9.571,4.838-13.08,8.941c-6.297,7.37-14.147,11.437-23.769,12.183
			c-4.552,0.349-7.248,3.317-10.02,6.564c-8.696,10.194-11.06,10.476-22.32,3.591c-10.149-6.205-13.219-5.432-19.929,4.608
			c-1.444,2.168-3.321,4.242-5.45,5.715c-5.271,3.653-9.022,0.296-11.962-3.635c-3.409-4.562,0.008-7.108,3.678-8.865
			c5.345-2.557,9.463-8.919,16.454-5.605c5.932-0.408,11.532-0.709,17.125-1.194c2.781-0.238,5.035-1.554,6.53-4.031
			c10.259-17.008,27.104-26.6,42.558-37.753c1.187-0.859,2.968-1.084,3.86-2.133c7.25-8.56,12.571-7.33,19.35,1.512
			C374.573,376.131,374.643,383.406,365.406,388.225z M391.92,339.274c-4.436,3.357-6.771,6.965-6.515,12.571
			c0.159,3.581-1.277,6.954-3.394,9.905c-1.713,2.404-3.514,5.123-6.954,4.664c-3.66-0.5-7.557-2.3-8.02-6.008
			c-1.445-11.582-10.295-16.203-18.963-20.417c-8.349-4.05-11.347-10.015-9.454-18.533c2.132-9.566,9.621-15.273,19.013-15.184
			c3.92-0.144,7.854,0.271,11.003,2.671c5.758,4.386,11.293,6.86,18.574,2.817c3.683-2.035,6.7,1.313,8.608,4.401
			C400.278,323.396,398.739,334.116,391.92,339.274z M412.79,245.326c-7.857,13.061-3.829,27.01-3.604,40.676
			c0.096,6.12-2.316,11.517-4.616,16.979c-2.371,5.615-5.194,9.758-11.638,4.302c-0.432-0.359-1.265-0.833-1.582-0.664
			c-13.049,7.284-23.493-6.536-35.921-4.42c-2.88,0.492-7.019-0.68-8.472,1.591c-8.826,13.783-26.759,8.097-37.941,18.901
			c-9.239,8.931-34.871-0.106-40.087-11.514c-1.832-4.008,1.342-6.609,4.313-7.396c12.294-3.253,16.646-15.793,26.533-22.013
			c6.579-4.14,7.732-11.494,3.843-18.882c-0.544-1.032-0.625-2.308-1.141-3.354c-2.604-5.244-0.223-13.862-8.261-15.3
			c-9.976-1.792-20.437-1.747-28.644,5.427c-5.396,4.717-10.632,9.26-17.356,11.967c-5.367,2.16-6.737,6.161-4.621,11.51
			c4.281,10.819,0.573,20.982-2.934,31.028c-2.478,7.079-8.633,7.092-14.792,6.548c-5.463-0.486-8.145-3.257-9.291-8.818
			c-3.199-15.534-11.561-22.611-28.089-24.742c-13.284-1.72-19.288-11.385-14.334-23.889c3.376-8.503,7.59-16.67,11.271-25.051
			c1.449-3.282,4.096-4.799,7.102-6.243c5.973-2.87,5.007-6.537,0.743-10.2c-3.706-3.188-8.556-3.89-12.931-5.619
			c-10.544-4.163-15.277-15.125-9.969-25.125c4.171-7.856,5.516-15.03,1.57-23.526c-2.399-5.16-0.889-10.501,3.184-15.533
			c7.732-9.561,16.214-17.891,27.435-23.175c0.794-0.374,1.741-0.759,2.225-1.423c8.328-11.251,17.946-17.181,32.538-10.614
			c4.29,1.932,7.901-3.088,10.065-7.093c3.922-7.287,7.68-14.662,11.357-22.078c4.2-8.485,11.16-11.063,19.909-9.103
			c4.189,0.94,8.236,1.45,12.127-0.333c6.789-3.108,13.352-8.527,19.934,0.582c1.175,1.626,4.081,0.831,5.635-0.766
			c5.597-5.779,13.057-5.731,19.923-5.327c14.426,0.847,28.028,0.797,35.831-16.245c7.65,12.863,12.499,23.451,11.542,35.904
			c-0.514,6.76,2.583,12.585,5.369,18.506c6.747,14.334,5.212,24.085-5.793,35.211c-2.89,2.922-3.062,6.161-3.174,9.712
			c-0.43,15.121,0.745,30.112,3.222,45.036c1.153,6.98,2.443,14.069-1.176,20.831c-0.899,1.669-1.227,3.663-0.081,5.077
			c5.93,7.319,5.008,16.067,5.478,24.554c0.144,2.659,0.195,5.569,3.103,6.856c3.128,1.385,5.751-0.138,8.055-2.188
			c1.987-1.77,3.859-3.662,5.815-5.462c1.503-1.386,2.978-3.222,5.338-1.753C412.262,240.195,414.328,242.77,412.79,245.326z"/>
		<path fill="#686868" d="M21.374,600.379c-12.959-1.021-25.911-2.108-38.875-2.997c-3.863-0.269-7.652,0.315-10.901,2.88
			c-8.106,6.377-17.487,9.596-27.577,11.249c-10.942,1.785-26.968,16.921-28.249,27.751c-1.091,9.221,4.897,16.152,10.913,22.259
			c6.095,6.179,14.002,6.436,21.482,3.247c8.74-3.725,17.599-4.809,31.199-3.449c12.944,2.505,26.25-7.45,40.677-14.02
			c18.118-8.239,18.715-19.621,12.567-38.301C30.874,603.723,26.978,600.821,21.374,600.379z M17.32,643.685
			c-15.76,8.522-31.406,16.164-50.333,12.307c-6.348-1.293-12.704,1.639-18.754,4.262c-9.225,3.989-15.764,2.189-21.919-5.511
			c-7.228-9.045-6.625-13.067-1.082-22.847c5.931-10.466,13.756-16.267,25.788-17.321c6.137-0.536,12.487-2.858,17.13-6.741
			c6.858-5.761,14.291-6.33,22.393-5.621c9.115,0.68,18.222,1.459,27.345,1.988c6.131,0.353,9.61,3.489,11.581,9.15
			C34.54,627.936,31.008,636.286,17.32,643.685z"/>
		<path fill="#686868" d="M-97.783,47.188c7.716,3.542,17.476,3.183,22.288,12.32c1.054,2.003,4.259,1.601,7.807,1.665
			c4.158-0.403,9.755-0.89,14.046-4.038c9.469-6.949,18.091-14.967,29.739-18.637c3.916-1.231,4.981-5.806,4.032-9.846
			c-0.962-4.115-4.484-5.015-8.238-5.313c-4.691-0.375-9.366-1.294-14.048-1.278c-9.348,0.031-19.219-3.469-27.376,4.999
			c-2.84,2.945-7.979,3.307-11.581,0.478c-7.937-6.237-13.523-2.151-19.142,3.448C-108.228,38.919-107.719,42.623-97.783,47.188z
			 M-98.99,37.008c2.39-4.383,6.705-10.292,12.529-6.669c9.042,5.624,15.769,2.714,23.609-2.173
			c7.077-4.41,15.49-1.881,23.179-0.974c4.884,0.575,12.891-1.263,13.96,4.401c1.099,5.829-7.27,5.325-11.32,7.746
			c-5.112,3.057-10.117,6.104-14.234,10.437c-4.564,4.808-10.563,6.205-15.458,7.183c-3.431,0.03-6.018-0.175-6.931-1.982
			c-4.058-8.035-11.987-8.49-19.195-10.755C-96,43.234-101.99,42.504-98.99,37.008z"/>
		<path fill="#686868" d="M464.674,0.223c-6.651-2.659-13.307-2.135-18.85,3.397c-3.812,3.803-3.588,8.502-3.39,13.59
			c0.898,5.227-1.352,11.972,5.627,15.29c5.714,2.714,11.052,1.046,15.966-2.048c5.793-3.647,5.345-10.246,6.406-15.842
			C471.512,8.938,471.024,2.762,464.674,0.223z M465.519,15.464c-0.196,1.74-0.917,3.414-1.274,5.146
			c-1.226,5.979-5.338,8.242-10.93,8.187c-6.113-0.056-5.453-5.018-6.055-8.969c-0.262-1.75-0.477-3.505-0.635-4.679
			c0.048-7.739,4.771-11.876,12.046-11.304C466.566,4.471,466.14,9.938,465.519,15.464z"/>
		<path fill="#686868" d="M480.363,27.604c-5.302-0.343-14.225,9.427-14.067,15.151c0.12,4.369,3.057,5.246,6.622,5.336
			c5.937,0.084,13.416-7.441,13.927-13.928C487.228,29.406,484.279,27.857,480.363,27.604z M480.941,36.241
			c-0.81,3.318-2.467,5.967-5.968,6.597c-1.966-0.183-3.222-1.064-2.644-2.837c1.034-3.141,2.723-6.041,6.328-6.639
			C480.342,33.082,481.362,34.51,480.941,36.241z"/>
	</g>
</g>
</svg>
