<?xml version="1.0" encoding="utf-8"?>
<!-- Generator: Adobe Illustrator 16.0.0, SVG Export Plug-In . SVG Version: 6.00 Build 0)  -->
<!DOCTYPE svg PUBLIC "-//W3C//DTD SVG 1.1//EN" "http://www.w3.org/Graphics/SVG/1.1/DTD/svg11.dtd">
<svg version="1.1" id="Layer_1" xmlns="http://www.w3.org/2000/svg" xmlns:xlink="http://www.w3.org/1999/xlink" x="0px" y="0px"
	 width="19.313px" height="19.513px" viewBox="0 0 19.313 19.513" enable-background="new 0 0 19.313 19.513" xml:space="preserve">
<g id="Gangneung_1_">
	<path fill="#FFFFFF" d="M11.338,6.325C11.36,6.338,11.38,6.347,11.4,6.357c0.414,0.211,0.78,0.487,1.1,0.826
		c0.203,0.218,0.378,0.458,0.525,0.716c0.012,0.021,0.019,0.057,0.061,0.031c0.273-0.168,0.521-0.366,0.695-0.643
		c0.24-0.379,0.276-0.795,0.213-1.228c-0.028-0.192-0.07-0.382-0.094-0.576c-0.035-0.307,0.063-0.545,0.317-0.723
		c0.216-0.148,0.402-0.326,0.564-0.533c0.545-0.698,0.688-1.467,0.408-2.311c-0.011-0.032-0.02-0.066-0.045-0.097
		C15.126,1.883,15.112,1.942,15.094,2c-0.122,0.397-0.32,0.744-0.67,0.987c-0.298,0.208-0.64,0.297-0.993,0.343
		c-0.14,0.018-0.282,0.019-0.418,0.065c-0.569,0.198-0.916,0.609-1.108,1.166c-0.062,0.18-0.051,0.369-0.067,0.554
		c-0.036,0.374-0.142,0.725-0.357,1.037C11.439,6.215,11.389,6.268,11.338,6.325z M12.683,12.295
		c-0.006,0.004-0.009,0.006-0.012,0.008c-0.013,0.013-0.021,0.024-0.031,0.037c-0.479,0.572-1.072,0.978-1.779,1.215
		c-0.049,0.017-0.121,0.015-0.14,0.054c-0.02,0.042,0.021,0.101,0.041,0.147c0.239,0.672,0.705,1.068,1.416,1.17
		c0.208,0.029,0.419,0.029,0.629,0.051c0.343,0.031,0.599,0.171,0.72,0.515c0.065,0.191,0.166,0.369,0.283,0.536
		c0.498,0.712,1.176,1.085,2.049,1.085c0.096,0,0.19-0.006,0.293-0.028c-0.08-0.049-0.154-0.089-0.226-0.134
		c-0.315-0.198-0.569-0.45-0.719-0.799c-0.15-0.349-0.157-0.711-0.117-1.08c0.017-0.158,0.051-0.313,0.038-0.476
		c-0.058-0.672-0.634-1.324-1.226-1.469c-0.056-0.015-0.107-0.033-0.164-0.053c-0.369-0.131-0.696-0.324-0.951-0.633
		C12.752,12.395,12.719,12.344,12.683,12.295z M5.818,8.969c0.004-0.012,0.008-0.018,0.008-0.023c0.19-0.78,0.58-1.444,1.173-1.988
		C7.021,6.937,7.021,6.924,7,6.902C6.917,6.818,6.83,6.736,6.738,6.662C6.4,6.388,6.016,6.25,5.58,6.287
		c-0.25,0.021-0.485,0.092-0.717,0.19c-0.166,0.072-0.334,0.137-0.51,0.181C4.127,6.713,3.927,6.676,3.752,6.52
		C3.715,6.487,3.676,6.457,3.639,6.424C3.437,6.245,3.212,6.095,2.965,5.983c-0.77-0.347-1.52-0.312-2.25,0.106
		C0.682,6.108,0.652,6.131,0.618,6.152C0.758,6.167,0.89,6.179,1.024,6.203c0.418,0.074,0.771,0.258,1.041,0.594
		c0.207,0.258,0.33,0.557,0.426,0.869c0.035,0.109,0.076,0.215,0.139,0.313c0.188,0.303,0.46,0.509,0.781,0.648
		c0.293,0.125,0.6,0.184,0.916,0.125c0.244-0.044,0.488-0.06,0.734-0.033C5.329,8.748,5.583,8.822,5.818,8.969z M6.834,0.53
		C6.907,0.634,6.98,0.737,7.042,0.847c0.211,0.37,0.301,0.762,0.214,1.186C7.191,2.355,7.045,2.642,6.86,2.91
		C6.618,3.261,6.563,3.645,6.633,4.054c0.071,0.421,0.266,0.772,0.596,1.057C7.586,5.423,7.842,5.806,7.92,6.288
		c0.008,0.048,0.028,0.027,0.051,0.017C8.69,5.973,9.44,5.866,10.222,5.982c0.044,0.006,0.052-0.005,0.056-0.045
		c0.021-0.149,0.027-0.298,0.021-0.448C10.28,5.18,10.194,4.894,10.011,4.64C9.812,4.363,9.543,4.171,9.243,4.015
		C9.077,3.929,8.917,3.837,8.77,3.718c-0.137-0.112-0.229-0.25-0.238-0.431C8.528,3.224,8.528,3.162,8.528,3.098
		C8.534,2.88,8.532,2.661,8.493,2.445c-0.129-0.708-0.479-1.271-1.09-1.661C7.23,0.672,7.041,0.583,6.834,0.53z M19.34,9.319
		c-0.045,0.018-0.09,0.035-0.137,0.053c-0.047,0.017-0.092,0.033-0.139,0.049c-0.605,0.198-1.164,0.105-1.666-0.297
		c-0.146-0.118-0.283-0.25-0.408-0.391c-0.104-0.114-0.223-0.206-0.357-0.275c-0.324-0.166-0.668-0.212-1.026-0.171
		c-0.283,0.033-0.541,0.127-0.771,0.3c-0.093,0.07-0.194,0.126-0.3,0.178c-0.317,0.159-0.653,0.258-1.018,0.228
		c-0.072-0.006-0.072-0.006-0.058,0.065c0.088,0.435,0.104,0.87,0.045,1.31c-0.043,0.323-0.126,0.637-0.248,0.938
		c-0.016,0.035-0.018,0.054,0.023,0.064c0.061,0.018,0.115,0.041,0.174,0.059c0.389,0.119,0.773,0.14,1.154-0.02
		c0.289-0.119,0.523-0.311,0.73-0.539c0.119-0.131,0.237-0.262,0.372-0.379c0.197-0.174,0.418-0.236,0.677-0.158
		c0.188,0.057,0.376,0.104,0.57,0.125c0.75,0.082,1.416-0.104,1.979-0.621C19.1,9.688,19.237,9.52,19.34,9.319z M7.978,19.437
		c-0.014-0.087-0.025-0.158-0.033-0.229c-0.041-0.354-0.011-0.699,0.147-1.024c0.146-0.304,0.379-0.529,0.648-0.72
		c0.119-0.084,0.248-0.152,0.371-0.229c0.316-0.195,0.506-0.49,0.615-0.838c0.127-0.404,0.137-0.808-0.039-1.204
		c-0.039-0.087-0.064-0.178-0.092-0.27c-0.103-0.377-0.13-0.754-0.004-1.133c0.016-0.047-0.015-0.037-0.037-0.037
		c-0.174-0.002-0.346-0.018-0.519-0.045c-0.6-0.094-1.149-0.313-1.647-0.662c-0.037-0.024-0.052-0.016-0.072,0.018
		c-0.064,0.104-0.129,0.208-0.182,0.316c-0.162,0.342-0.217,0.697-0.13,1.068c0.064,0.282,0.199,0.532,0.367,0.766
		c0.109,0.154,0.217,0.312,0.297,0.482c0.093,0.199,0.091,0.395-0.014,0.59c-0.067,0.126-0.142,0.251-0.194,0.385
		c-0.353,0.847-0.313,1.659,0.216,2.428C7.762,19.219,7.857,19.33,7.978,19.437z M1.137,14.586c0.076-0.08,0.142-0.149,0.208-0.219
		c0.241-0.236,0.521-0.412,0.854-0.486c0.32-0.071,0.639-0.035,0.949,0.054c0.166,0.047,0.32,0.12,0.485,0.166
		c0.325,0.092,0.644,0.053,0.954-0.068c0.397-0.155,0.723-0.401,0.923-0.792c0.042-0.082,0.095-0.158,0.146-0.234
		c0.226-0.316,0.498-0.576,0.867-0.721c0.043-0.017,0.023-0.033,0.008-0.054c-0.481-0.634-0.75-1.347-0.805-2.139
		c-0.002-0.035-0.017-0.043-0.048-0.039c-0.084,0.012-0.168,0.021-0.251,0.035c-0.367,0.068-0.693,0.217-0.947,0.498
		c-0.216,0.235-0.347,0.516-0.433,0.817c-0.061,0.206-0.114,0.413-0.214,0.604c-0.095,0.18-0.23,0.295-0.433,0.336
		c-0.109,0.022-0.225,0.043-0.334,0.069c-0.816,0.205-1.432,0.661-1.768,1.453C1.211,14.092,1.154,14.33,1.137,14.586z
		 M15.538,6.502c-0.023,0.047-0.043,0.083-0.061,0.12c-0.324,0.648-0.928,0.912-1.551,0.813c-0.031-0.005-0.046,0.005-0.063,0.03
		c-0.174,0.267-0.408,0.465-0.692,0.605c-0.037,0.019-0.043,0.034-0.025,0.071c0.092,0.181,0.166,0.37,0.223,0.564
		c0.013,0.036,0.029,0.052,0.063,0.063c0.213,0.067,0.426,0.075,0.641,0.029c0.359-0.077,0.668-0.254,0.938-0.498
		c0.419-0.379,0.644-0.843,0.604-1.417C15.609,6.754,15.586,6.632,15.538,6.502z M15.929,12.35
		c-0.063,0.013-0.113,0.023-0.165,0.035c-0.646,0.133-1.237-0.129-1.565-0.691c-0.019-0.03-0.035-0.041-0.068-0.037
		c-0.313,0.03-0.61-0.023-0.896-0.152c-0.041-0.02-0.057-0.014-0.076,0.025c-0.084,0.184-0.185,0.355-0.299,0.521
		c-0.021,0.031-0.023,0.056-0.012,0.091c0.088,0.224,0.231,0.405,0.426,0.548c0.336,0.25,0.719,0.375,1.135,0.4
		c0.547,0.035,1.012-0.143,1.381-0.549C15.838,12.487,15.886,12.426,15.929,12.35z M2.868,10.318
		c0.013-0.001,0.016-0.001,0.017-0.003c0.021-0.017,0.042-0.033,0.063-0.051c0.248-0.197,0.523-0.332,0.848-0.354
		c0.334-0.023,0.637,0.068,0.915,0.252c0.022,0.016,0.04,0.031,0.071,0.012c0.273-0.17,0.574-0.252,0.896-0.256
		c0.034-0.001,0.043-0.013,0.043-0.045C5.72,9.668,5.735,9.464,5.765,9.262c0.007-0.037-0.004-0.063-0.03-0.088
		c-0.146-0.133-0.312-0.227-0.5-0.279C4.851,8.788,4.47,8.817,4.095,8.933C3.581,9.092,3.196,9.399,2.979,9.901
		C2.922,10.034,2.882,10.171,2.868,10.318z M11.559,16.333c-0.021-0.017-0.038-0.031-0.059-0.047
		c-0.518-0.406-0.709-0.975-0.536-1.578c0.018-0.061,0.063-0.123,0.054-0.176c-0.012-0.057-0.077-0.1-0.118-0.15
		c-0.164-0.205-0.271-0.436-0.334-0.688c-0.007-0.021,0-0.054-0.045-0.042c-0.205,0.05-0.416,0.081-0.63,0.094
		c-0.03,0.002-0.049,0.016-0.063,0.041c-0.092,0.157-0.146,0.326-0.164,0.508c-0.028,0.301,0.031,0.588,0.144,0.864
		c0.162,0.402,0.407,0.74,0.787,0.966C10.887,16.297,11.209,16.37,11.559,16.333z M5.011,4.904c0.046,0.01,0.075,0.016,0.104,0.022
		c0.689,0.148,1.123,0.626,1.188,1.316c0.003,0.031,0.017,0.043,0.043,0.053c0.295,0.103,0.54,0.278,0.743,0.514
		C7.115,6.84,7.131,6.837,7.158,6.814C7.32,6.681,7.492,6.563,7.674,6.459c0.028-0.017,0.04-0.036,0.043-0.069
		c0.016-0.25-0.045-0.481-0.168-0.695C7.279,5.233,6.891,4.911,6.385,4.739C5.947,4.591,5.522,4.634,5.11,4.844
		C5.082,4.861,5.053,4.88,5.011,4.904z M5.809,15.42c0-0.035,0-0.055,0-0.074c-0.004-0.153,0.009-0.307,0.048-0.455
		c0.133-0.521,0.469-0.848,0.967-1.016c0.033-0.012,0.055-0.021,0.06-0.062c0.037-0.31,0.156-0.587,0.344-0.835
		c0.021-0.027,0.018-0.041-0.008-0.063c-0.17-0.132-0.326-0.277-0.471-0.437c-0.021-0.021-0.038-0.027-0.066-0.022
		c-0.203,0.032-0.387,0.11-0.548,0.235c-0.395,0.306-0.628,0.715-0.743,1.192c-0.083,0.341-0.062,0.677,0.07,1.002
		C5.536,15.084,5.648,15.26,5.809,15.42z M10.603,3.166c0.028,0.057,0.053,0.1,0.072,0.145c0.292,0.616,0.186,1.228-0.299,1.705
		c-0.023,0.021-0.021,0.041-0.013,0.067c0.104,0.288,0.123,0.583,0.07,0.884c-0.006,0.04-0.001,0.054,0.041,0.063
		c0.204,0.044,0.403,0.104,0.598,0.184c0.033,0.014,0.059,0.01,0.086-0.011c0.197-0.145,0.339-0.335,0.429-0.561
		c0.151-0.39,0.179-0.792,0.1-1.201c-0.068-0.358-0.228-0.668-0.494-0.92C11.025,3.363,10.834,3.244,10.603,3.166z"/>
	<path fill="#F7AC1A" d="M11.338,6.325c0.051-0.057,0.101-0.111,0.142-0.17c0.219-0.312,0.321-0.663,0.356-1.037
		c0.019-0.185,0.009-0.374,0.068-0.554c0.192-0.557,0.539-0.968,1.107-1.166c0.137-0.047,0.279-0.047,0.419-0.066
		c0.354-0.046,0.695-0.135,0.993-0.343c0.35-0.244,0.548-0.589,0.67-0.987c0.018-0.058,0.032-0.117,0.051-0.181
		c0.025,0.031,0.034,0.065,0.045,0.097c0.277,0.843,0.137,1.613-0.408,2.311c-0.162,0.206-0.352,0.384-0.564,0.533
		C13.959,4.94,13.863,5.178,13.9,5.484c0.021,0.194,0.063,0.384,0.094,0.576c0.063,0.433,0.027,0.849-0.213,1.228
		c-0.176,0.276-0.422,0.474-0.696,0.643c-0.041,0.025-0.048-0.01-0.06-0.031c-0.146-0.259-0.322-0.499-0.526-0.716
		c-0.317-0.339-0.685-0.615-1.099-0.826C11.38,6.348,11.362,6.338,11.338,6.325z"/>
	<path fill="#F7AC1A" d="M12.683,12.295c0.036,0.049,0.069,0.101,0.107,0.146c0.253,0.309,0.579,0.502,0.948,0.633
		c0.057,0.02,0.108,0.038,0.164,0.053c0.592,0.144,1.168,0.797,1.226,1.469c0.013,0.16-0.021,0.316-0.038,0.476
		c-0.039,0.369-0.031,0.731,0.117,1.08c0.146,0.349,0.402,0.601,0.719,0.799c0.068,0.045,0.146,0.085,0.228,0.134
		c-0.104,0.022-0.199,0.028-0.293,0.028c-0.875,0-1.554-0.373-2.051-1.085c-0.115-0.167-0.216-0.345-0.283-0.536
		c-0.121-0.344-0.377-0.481-0.72-0.515c-0.209-0.021-0.42-0.021-0.629-0.051c-0.711-0.102-1.176-0.498-1.416-1.17
		c-0.018-0.049-0.061-0.105-0.04-0.147c0.018-0.039,0.09-0.037,0.139-0.054c0.707-0.237,1.301-0.643,1.78-1.215
		c0.011-0.014,0.021-0.024,0.031-0.037C12.674,12.301,12.677,12.299,12.683,12.295z"/>
	<path fill="#F7AC1A" d="M5.818,8.969C5.584,8.822,5.333,8.747,5.064,8.718C4.818,8.691,4.574,8.706,4.33,8.751
		c-0.317,0.058-0.622,0-0.915-0.125C3.091,8.487,2.82,8.281,2.631,7.978C2.57,7.88,2.527,7.775,2.494,7.665
		c-0.096-0.312-0.221-0.61-0.426-0.869C1.797,6.46,1.443,6.276,1.025,6.202C0.892,6.178,0.758,6.166,0.621,6.151
		C0.652,6.13,0.684,6.107,0.717,6.088c0.729-0.418,1.481-0.454,2.25-0.106c0.247,0.112,0.471,0.262,0.674,0.441
		c0.037,0.033,0.076,0.063,0.113,0.096c0.175,0.155,0.375,0.193,0.6,0.138C4.53,6.614,4.698,6.548,4.866,6.476
		c0.229-0.098,0.467-0.17,0.717-0.19C6.02,6.25,6.401,6.387,6.741,6.661c0.093,0.075,0.178,0.156,0.262,0.24
		C7.023,6.923,7.023,6.936,7,6.957C6.407,7.501,6.021,8.165,5.829,8.946C5.823,8.952,5.821,8.958,5.818,8.969z"/>
	<path fill="#F7AC1A" d="M6.834,0.53C7.041,0.583,7.23,0.671,7.403,0.783c0.611,0.39,0.961,0.953,1.09,1.661
		C8.532,2.66,8.534,2.878,8.53,3.097C8.528,3.16,8.528,3.223,8.532,3.286C8.543,3.468,8.635,3.605,8.77,3.717
		c0.146,0.119,0.309,0.211,0.475,0.297c0.299,0.155,0.566,0.348,0.768,0.625c0.183,0.253,0.271,0.54,0.286,0.849
		c0.009,0.15,0.001,0.299-0.019,0.448c-0.006,0.04-0.014,0.051-0.058,0.045C9.44,5.865,8.69,5.972,7.971,6.304
		C7.95,6.314,7.928,6.335,7.92,6.287C7.842,5.806,7.586,5.422,7.229,5.11C6.901,4.825,6.708,4.475,6.633,4.053
		C6.563,3.644,6.617,3.26,6.86,2.909c0.186-0.267,0.328-0.555,0.396-0.877c0.086-0.424-0.004-0.816-0.215-1.186
		C6.98,0.738,6.907,0.634,6.834,0.53z"/>
	<path fill="#F7AC1A" d="M19.34,9.319c-0.104,0.201-0.24,0.369-0.401,0.518c-0.562,0.518-1.228,0.703-1.979,0.621
		c-0.194-0.021-0.386-0.068-0.569-0.125c-0.26-0.079-0.479-0.017-0.678,0.158c-0.134,0.117-0.253,0.248-0.372,0.379
		c-0.206,0.229-0.441,0.42-0.729,0.539c-0.383,0.158-0.771,0.139-1.156,0.02c-0.057-0.019-0.113-0.043-0.174-0.059
		c-0.039-0.012-0.039-0.029-0.023-0.064c0.122-0.303,0.206-0.614,0.249-0.938c0.059-0.438,0.043-0.875-0.045-1.31
		c-0.017-0.07-0.017-0.07,0.057-0.064c0.363,0.029,0.697-0.068,1.018-0.228c0.104-0.052,0.207-0.108,0.301-0.178
		c0.229-0.173,0.488-0.268,0.771-0.3c0.358-0.041,0.703,0.005,1.027,0.171c0.137,0.069,0.256,0.161,0.356,0.275
		c0.127,0.142,0.263,0.272,0.408,0.392c0.502,0.401,1.06,0.494,1.668,0.297c0.045-0.016,0.092-0.032,0.14-0.05
		C19.25,9.354,19.295,9.337,19.34,9.319z"/>
	<path fill="#F7AC1A" d="M7.978,19.437c-0.121-0.107-0.216-0.218-0.298-0.338c-0.528-0.771-0.567-1.583-0.217-2.431
		c0.056-0.133,0.127-0.257,0.193-0.384c0.104-0.194,0.105-0.391,0.016-0.59c-0.08-0.172-0.188-0.328-0.297-0.481
		c-0.167-0.233-0.303-0.483-0.367-0.767c-0.088-0.371-0.033-0.728,0.13-1.067c0.053-0.109,0.115-0.216,0.182-0.316
		c0.021-0.033,0.035-0.043,0.071-0.018c0.498,0.35,1.05,0.568,1.649,0.662c0.171,0.026,0.344,0.043,0.517,0.043
		c0.025,0,0.054-0.009,0.038,0.038c-0.126,0.378-0.1,0.757,0.004,1.134c0.024,0.092,0.053,0.183,0.092,0.269
		c0.176,0.396,0.166,0.8,0.039,1.204c-0.109,0.348-0.3,0.643-0.615,0.839c-0.123,0.077-0.252,0.146-0.371,0.229
		c-0.271,0.189-0.502,0.416-0.649,0.719c-0.158,0.326-0.189,0.67-0.148,1.025C7.95,19.279,7.964,19.35,7.978,19.437z"/>
	<path fill="#F7AC1A" d="M1.137,14.586c0.019-0.257,0.074-0.492,0.17-0.719c0.336-0.791,0.949-1.247,1.767-1.451
		c0.11-0.029,0.226-0.049,0.336-0.07c0.199-0.041,0.339-0.156,0.432-0.336c0.099-0.192,0.152-0.399,0.214-0.604
		c0.086-0.303,0.217-0.582,0.432-0.817c0.256-0.281,0.58-0.431,0.948-0.498c0.083-0.015,0.167-0.023,0.251-0.036
		c0.032-0.004,0.045,0.004,0.047,0.039c0.055,0.793,0.322,1.507,0.805,2.139c0.018,0.021,0.037,0.037-0.006,0.055
		c-0.369,0.143-0.645,0.402-0.869,0.721c-0.053,0.074-0.104,0.152-0.146,0.234c-0.199,0.389-0.523,0.637-0.923,0.792
		c-0.313,0.121-0.629,0.16-0.954,0.068c-0.165-0.046-0.32-0.12-0.484-0.167c-0.313-0.087-0.629-0.125-0.951-0.053
		c-0.334,0.074-0.611,0.248-0.854,0.485C1.279,14.436,1.213,14.506,1.137,14.586z"/>
	<path fill="#FCCF13" d="M15.538,6.502c0.049,0.129,0.068,0.252,0.076,0.377c0.037,0.574-0.188,1.039-0.604,1.417
		c-0.271,0.244-0.578,0.42-0.938,0.497c-0.217,0.047-0.43,0.039-0.642-0.029c-0.032-0.01-0.052-0.027-0.063-0.062
		c-0.057-0.194-0.131-0.383-0.223-0.564c-0.019-0.037-0.013-0.052,0.024-0.071c0.283-0.14,0.521-0.339,0.693-0.605
		c0.016-0.024,0.029-0.035,0.063-0.03c0.623,0.102,1.228-0.163,1.551-0.811C15.495,6.585,15.514,6.549,15.538,6.502z"/>
	<path fill="#FCCF13" d="M15.929,12.35c-0.043,0.076-0.091,0.137-0.144,0.193c-0.369,0.405-0.834,0.582-1.381,0.547
		c-0.416-0.025-0.799-0.15-1.135-0.4c-0.193-0.143-0.337-0.323-0.426-0.547c-0.015-0.035-0.011-0.061,0.012-0.092
		c0.115-0.166,0.215-0.34,0.301-0.521c0.02-0.039,0.033-0.045,0.074-0.025c0.285,0.129,0.584,0.185,0.896,0.152
		c0.033-0.003,0.052,0.008,0.068,0.037c0.328,0.563,0.922,0.824,1.565,0.691C15.816,12.374,15.864,12.363,15.929,12.35z"/>
	<path fill="#FCCF13" d="M2.868,10.318c0.015-0.147,0.055-0.284,0.109-0.417c0.217-0.502,0.604-0.809,1.116-0.967
		c0.376-0.117,0.757-0.146,1.14-0.039c0.188,0.053,0.355,0.146,0.5,0.279C5.76,9.199,5.77,9.225,5.764,9.262
		C5.733,9.464,5.719,9.668,5.719,9.873c0,0.032-0.008,0.045-0.043,0.045c-0.32,0.004-0.621,0.086-0.896,0.256
		c-0.03,0.02-0.049,0.004-0.071-0.012C4.431,9.978,4.128,9.887,3.793,9.91c-0.321,0.021-0.6,0.156-0.848,0.354
		c-0.021,0.018-0.043,0.035-0.063,0.052C2.883,10.317,2.88,10.317,2.868,10.318z"/>
	<path fill="#FCCF13" d="M11.559,16.333c-0.35,0.037-0.671-0.033-0.967-0.209c-0.38-0.227-0.625-0.563-0.787-0.967
		c-0.11-0.277-0.172-0.564-0.145-0.865c0.02-0.182,0.072-0.35,0.164-0.508c0.018-0.025,0.035-0.039,0.064-0.04
		c0.213-0.013,0.424-0.044,0.631-0.095c0.045-0.01,0.037,0.021,0.043,0.043c0.063,0.254,0.172,0.484,0.336,0.689
		c0.039,0.051,0.105,0.094,0.117,0.148s-0.035,0.116-0.054,0.178c-0.174,0.604,0.021,1.172,0.536,1.577
		C11.521,16.301,11.539,16.316,11.559,16.333z"/>
	<path fill="#FCCF13" d="M5.011,4.904c0.042-0.025,0.07-0.043,0.102-0.059c0.41-0.211,0.838-0.253,1.274-0.105
		C6.893,4.911,7.283,5.234,7.55,5.696C7.674,5.91,7.734,6.142,7.718,6.391C7.715,6.424,7.704,6.444,7.675,6.46
		C7.493,6.564,7.321,6.682,7.159,6.815C7.133,6.838,7.116,6.841,7.092,6.81C6.889,6.574,6.643,6.398,6.348,6.296
		C6.322,6.287,6.309,6.275,6.305,6.243C6.24,5.553,5.807,5.075,5.117,4.927C5.087,4.921,5.057,4.915,5.011,4.904z"/>
	<path fill="#FCCF13" d="M5.809,15.42c-0.161-0.16-0.271-0.336-0.35-0.531c-0.133-0.325-0.153-0.661-0.07-1.002
		C5.504,13.409,5.74,13,6.132,12.695c0.161-0.125,0.345-0.203,0.548-0.235c0.028-0.005,0.047,0.002,0.064,0.022
		c0.146,0.157,0.303,0.305,0.473,0.437c0.023,0.021,0.027,0.034,0.008,0.063c-0.188,0.248-0.307,0.525-0.344,0.835
		c-0.006,0.04-0.024,0.05-0.061,0.062c-0.498,0.168-0.834,0.496-0.967,1.016c-0.039,0.148-0.051,0.302-0.047,0.455
		C5.809,15.366,5.809,15.385,5.809,15.42z"/>
	<path fill="#FCCF13" d="M10.603,3.166c0.231,0.078,0.422,0.197,0.59,0.354c0.268,0.251,0.426,0.562,0.494,0.92
		c0.079,0.409,0.055,0.812-0.101,1.201c-0.09,0.226-0.229,0.416-0.428,0.561c-0.027,0.021-0.053,0.025-0.086,0.011
		c-0.192-0.08-0.395-0.14-0.598-0.184c-0.043-0.009-0.047-0.023-0.041-0.063c0.053-0.3,0.031-0.596-0.07-0.884
		c-0.01-0.026-0.013-0.044,0.013-0.067c0.481-0.477,0.59-1.089,0.299-1.705C10.654,3.266,10.631,3.223,10.603,3.166z"/>
	<circle fill="#F7AC1A" cx="9.618" cy="9.848" r="3.568"/>
</g>
</svg>
