<?xml version="1.0" encoding="utf-8"?>
<!-- Generator: Adobe Illustrator 16.0.0, SVG Export Plug-In . SVG Version: 6.00 Build 0)  -->
<!DOCTYPE svg PUBLIC "-//W3C//DTD SVG 1.1//EN" "http://www.w3.org/Graphics/SVG/1.1/DTD/svg11.dtd">
<svg version="1.1" id="Layer_1" xmlns="http://www.w3.org/2000/svg" xmlns:xlink="http://www.w3.org/1999/xlink" x="0px" y="0px"
	 width="64px" height="63.141px" viewBox="0 3.116 64 63.141" enable-background="new 0 3.116 64 63.141" xml:space="preserve">
<path opacity="0.3" fill="#FFFFFF" enable-background="new    " d="M53.247,23.235c-1.647-3.355-4.937-5.759-8.822-6.164
	c0.054-0.475,0.087-0.956,0.087-1.443c0-6.909-5.604-12.511-12.511-12.511c-6.136,0-11.238,4.42-12.303,10.25
	c-0.958-0.27-1.97-0.418-3.016-0.418c-6.146,0-11.128,4.983-11.128,11.129c0,0.256,0.012,0.509,0.029,0.761
	c-2.978,1.869-4.959,5.181-4.959,8.957c0,5.817,4.7,10.535,10.51,10.567c1.293,2.652,4.008,4.484,7.157,4.484
	c3.148,0,5.861-1.832,7.156-4.479h27.358c5.836,0,10.569-4.732,10.569-10.572C63.375,28.104,58.881,23.467,53.247,23.235z"/>
<path opacity="0.3" fill="#FFFFFF" enable-background="new    " d="M51.273,23.991c-1.496-3.046-4.479-5.226-8.004-5.592
	c0.049-0.431,0.078-0.868,0.078-1.311c0-6.268-5.082-11.348-11.348-11.348c-5.566,0-10.193,4.01-11.16,9.298
	c-0.869-0.244-1.787-0.378-2.735-0.378c-5.575,0-10.094,4.521-10.094,10.094c0,0.231,0.011,0.462,0.027,0.689
	c-2.7,1.695-4.498,4.699-4.498,8.123c0,5.279,4.263,9.559,9.533,9.586c1.173,2.406,3.636,4.068,6.492,4.068
	c2.855,0,5.316-1.662,6.491-4.063H50.87c5.296,0,9.588-4.293,9.588-9.592C60.459,28.406,56.383,24.2,51.273,23.991z"/>
<path opacity="0.3" fill="#FFFFFF" enable-background="new    " d="M45.051,27.456c-1.216-2.478-3.644-4.25-6.51-4.547
	c0.04-0.352,0.063-0.707,0.063-1.066c0-5.097-4.133-9.23-9.229-9.23c-4.528,0-8.292,3.262-9.078,7.563
	c-0.707-0.198-1.453-0.308-2.225-0.308c-4.535,0-8.21,3.677-8.21,8.21c0,0.188,0.009,0.375,0.022,0.561
	c-2.197,1.38-3.659,3.822-3.659,6.608c0,4.293,3.467,7.771,7.754,7.797c0.954,1.957,2.957,3.31,5.28,3.31
	c2.323,0,4.325-1.351,5.28-3.306h20.184c4.31,0,7.799-3.491,7.799-7.801C52.521,31.047,49.206,27.626,45.051,27.456z"/>
<path opacity="0.3" fill="#FFFFFF" enable-background="new    " d="M40.6,29.225c-1.021-2.081-3.063-3.572-5.471-3.822
	c0.034-0.294,0.055-0.594,0.055-0.896c0-4.283-3.473-7.756-7.754-7.756c-3.805,0-6.967,2.74-7.627,6.354
	c-0.594-0.167-1.221-0.258-1.87-0.258c-3.811,0-6.899,3.09-6.899,6.899c0,0.157,0.008,0.314,0.019,0.471
	c-1.846,1.16-3.075,3.213-3.075,5.555c0,3.604,2.914,6.528,6.516,6.551c0.802,1.646,2.485,2.779,4.437,2.779
	c1.952,0,3.634-1.136,4.436-2.776h16.96c3.617,0,6.553-2.935,6.553-6.554C46.877,32.243,44.09,29.368,40.6,29.225z"/>
<path opacity="0.3" fill="#FFFFFF" enable-background="new    " d="M34.587,31.804c-0.748-1.527-2.245-2.619-4.012-2.803
	c0.025-0.217,0.04-0.437,0.04-0.658c0-3.141-2.547-5.688-5.688-5.688c-2.791,0-5.11,2.011-5.594,4.661
	c-0.436-0.123-0.896-0.189-1.371-0.189c-2.795,0-5.06,2.266-5.06,5.06c0,0.116,0.006,0.231,0.014,0.345
	c-1.354,0.853-2.255,2.355-2.255,4.074c0,2.646,2.137,4.789,4.779,4.807c0.588,1.205,1.822,2.039,3.254,2.039
	c1.432,0,2.666-0.834,3.254-2.037h12.439c2.653,0,4.807-2.151,4.807-4.809C39.191,34.018,37.146,31.909,34.587,31.804z"/>
<path opacity="0.3" fill="#FFFFFF" enable-background="new    " d="M30.085,33.877c-0.497-1.013-1.489-1.737-2.661-1.859
	c0.017-0.144,0.026-0.289,0.026-0.437c0-2.083-1.689-3.773-3.773-3.773c-1.851,0-3.39,1.333-3.711,3.091
	c-0.289-0.081-0.594-0.125-0.909-0.125c-1.854,0-3.357,1.503-3.357,3.356c0,0.076,0.004,0.154,0.009,0.229
	c-0.898,0.563-1.496,1.563-1.496,2.703c0,1.754,1.417,3.176,3.17,3.188c0.39,0.799,1.208,1.352,2.158,1.352s1.769-0.553,2.159-1.352
	h8.251c1.761,0,3.188-1.429,3.188-3.188C33.141,35.346,31.783,33.947,30.085,33.877z"/>
<path opacity="0.3" fill="#FFFFFF" enable-background="new    " d="M26.78,34.576c-0.299-0.607-0.896-1.046-1.6-1.117
	c0.01-0.086,0.016-0.174,0.016-0.265c0-1.251-1.016-2.268-2.269-2.268c-1.113,0-2.038,0.803-2.231,1.859
	c-0.173-0.051-0.357-0.075-0.546-0.075c-1.115,0-2.019,0.903-2.019,2.018c0,0.047,0.002,0.094,0.005,0.14
	c-0.54,0.34-0.899,0.938-0.899,1.625c0,1.055,0.852,1.909,1.906,1.916c0.235,0.479,0.727,0.813,1.298,0.813
	c0.571,0,1.063-0.332,1.298-0.813H26.7c1.059,0,1.917-0.857,1.917-1.916C28.616,35.459,27.801,34.619,26.78,34.576z"/>
<path opacity="0.3" fill="#FFFFFF" enable-background="new    " d="M44.253,55.608c0,1.76,1.354,3.188,3.024,3.188h7.829
	c0.371,0.799,1.147,1.352,2.049,1.352c0.902,0,1.678-0.553,2.049-1.352c1.662-0.013,3.008-1.435,3.008-3.188
	c0-1.14-0.568-2.14-1.42-2.703c0.004-0.074,0.008-0.152,0.008-0.229c0-1.854-1.426-3.356-3.186-3.356
	c-0.299,0-0.588,0.044-0.861,0.125c-0.306-1.758-1.766-3.091-3.522-3.091c-1.978,0-3.58,1.69-3.58,3.773
	c0,0.147,0.009,0.293,0.024,0.437c-1.111,0.122-2.053,0.847-2.524,1.859C45.538,52.492,44.251,53.892,44.253,55.608z"/>
<path opacity="0.3" fill="#FFFFFF" enable-background="new    " d="M47.663,55.271c0,1.231,0.947,2.229,2.115,2.229h5.475
	c0.26,0.559,0.802,0.944,1.434,0.944c0.629,0,1.172-0.387,1.432-0.944c1.163-0.009,2.104-1.002,2.104-2.229
	c0-0.799-0.396-1.495-0.992-1.89c0.003-0.054,0.006-0.108,0.006-0.163c0-1.296-0.998-2.347-2.229-2.347
	c-0.208,0-0.411,0.029-0.603,0.088c-0.213-1.229-1.233-2.162-2.462-2.162c-1.384,0-2.503,1.182-2.503,2.637
	c0,0.105,0.006,0.208,0.017,0.308c-0.776,0.083-1.436,0.593-1.766,1.3C48.563,53.091,47.664,54.068,47.663,55.271z"/>
<path opacity="0.3" fill="#FFFFFF" enable-background="new    " d="M50.21,54.601c0,0.732,0.563,1.325,1.258,1.325h3.254
	c0.154,0.332,0.477,0.562,0.852,0.562c0.374,0,0.697-0.23,0.852-0.562c0.691-0.005,1.25-0.596,1.25-1.325
	c0-0.475-0.235-0.888-0.59-1.123c0.002-0.031,0.003-0.064,0.003-0.097c0-0.77-0.593-1.395-1.324-1.395
	c-0.124,0-0.244,0.017-0.357,0.052c-0.127-0.73-0.733-1.285-1.464-1.285c-0.822,0-1.488,0.703-1.488,1.567
	c0,0.063,0.004,0.124,0.011,0.184c-0.462,0.049-0.854,0.352-1.05,0.771C50.745,53.306,50.211,53.886,50.21,54.601z"/>
<path opacity="0.3" fill="#FFFFFF" enable-background="new    " d="M11.054,60.901c-0.239-0.512-0.716-0.881-1.278-0.94
	c0.008-0.072,0.012-0.146,0.012-0.223c0-1.053-0.81-1.908-1.812-1.908c-0.889,0-1.627,0.676-1.781,1.564
	C6.057,59.352,5.91,59.33,5.759,59.33c-0.89,0-1.612,0.761-1.612,1.698c0,0.039,0.002,0.079,0.004,0.118
	c-0.431,0.285-0.718,0.789-0.718,1.367c0,0.888,0.681,1.605,1.522,1.612c0.188,0.403,0.581,0.684,1.036,0.684
	c0.457,0,0.849-0.279,1.037-0.684h3.961c0.845,0,1.531-0.722,1.531-1.612C12.52,61.643,11.869,60.937,11.054,60.901z"/>
<path opacity="0.3" fill="#FFFFFF" enable-background="new    " d="M9.806,61.07c-0.142-0.304-0.425-0.522-0.76-0.558
	c0.005-0.043,0.008-0.087,0.008-0.133c0-0.626-0.482-1.135-1.077-1.135c-0.528,0-0.967,0.401-1.059,0.931
	c-0.082-0.025-0.169-0.038-0.258-0.038c-0.529,0-0.958,0.452-0.958,1.01c0,0.022,0,0.047,0.002,0.069
	c-0.256,0.171-0.427,0.47-0.427,0.813c0,0.528,0.404,0.956,0.905,0.959c0.111,0.24,0.345,0.406,0.616,0.406s0.504-0.166,0.616-0.406
	h2.354c0.503,0,0.91-0.429,0.91-0.959C10.677,61.512,10.291,61.092,9.806,61.07z"/>
<polygon fill="#FFE48D" points="31.157,50.432 31.514,52.63 33.527,53.58 31.549,54.601 31.266,56.81 29.685,55.242 27.497,55.656 
	28.499,53.668 27.428,51.715 29.63,52.053 "/>
</svg>
