<?xml version="1.0" encoding="utf-8"?>
<!-- Generator: Adobe Illustrator 16.0.0, SVG Export Plug-In . SVG Version: 6.00 Build 0)  -->
<!DOCTYPE svg PUBLIC "-//W3C//DTD SVG 1.1//EN" "http://www.w3.org/Graphics/SVG/1.1/DTD/svg11.dtd">
<svg version="1.1" id="Layer_1" xmlns="http://www.w3.org/2000/svg" xmlns:xlink="http://www.w3.org/1999/xlink" x="0px" y="0px"
	 width="64px" height="64px" viewBox="0 0 64 64" enable-background="new 0 0 64 64" xml:space="preserve">
<path opacity="0.3" fill="#FFFFFF" enable-background="new    " d="M53.247,23.235c-1.648-3.356-4.937-5.759-8.822-6.164
	c0.054-0.475,0.086-0.956,0.086-1.444c0-6.909-5.603-12.511-12.51-12.511c-6.136,0-11.238,4.42-12.303,10.25
	c-0.958-0.269-1.97-0.417-3.016-0.417c-6.146,0-11.128,4.983-11.128,11.128c0,0.256,0.012,0.509,0.029,0.761
	c-2.978,1.869-4.959,5.181-4.959,8.957c0,5.818,4.7,10.535,10.51,10.568c1.293,2.652,4.008,4.484,7.157,4.484
	c3.148,0,5.861-1.832,7.156-4.48h27.357c5.837,0,10.57-4.732,10.57-10.572C63.375,28.104,58.881,23.467,53.247,23.235z"/>
<path opacity="0.3" fill="#FFFFFF" enable-background="new    " d="M51.273,23.991c-1.495-3.045-4.479-5.225-8.003-5.591
	c0.048-0.431,0.078-0.868,0.078-1.311c0-6.267-5.082-11.348-11.347-11.348c-5.566,0-10.193,4.01-11.16,9.298
	c-0.869-0.244-1.787-0.378-2.735-0.378c-5.575,0-10.094,4.521-10.094,10.094c0,0.232,0.011,0.462,0.027,0.69
	c-2.701,1.695-4.499,4.699-4.499,8.124c0,5.279,4.263,9.557,9.533,9.586c1.173,2.406,3.636,4.068,6.492,4.068
	c2.855,0,5.316-1.662,6.491-4.064h24.814c5.296,0,9.588-4.293,9.588-9.59C60.459,28.407,56.383,24.2,51.273,23.991z"/>
<path opacity="0.3" fill="#FFFFFF" enable-background="new    " d="M45.051,27.456c-1.216-2.477-3.644-4.25-6.51-4.547
	c0.04-0.351,0.063-0.707,0.063-1.066c0-5.097-4.133-9.23-9.229-9.23c-4.528,0-8.292,3.261-9.078,7.563
	c-0.707-0.198-1.453-0.308-2.225-0.308c-4.535,0-8.21,3.677-8.21,8.21c0,0.189,0.009,0.375,0.022,0.561
	c-2.197,1.38-3.659,3.822-3.659,6.608c0,4.293,3.467,7.773,7.754,7.797c0.954,1.957,2.957,3.309,5.28,3.309s4.325-1.35,5.28-3.305
	h20.184c4.308,0,7.799-3.492,7.799-7.801C52.522,31.047,49.206,27.626,45.051,27.456z"/>
<path opacity="0.3" fill="#FFFFFF" enable-background="new    " d="M40.599,29.225c-1.021-2.081-3.062-3.572-5.47-3.822
	c0.034-0.294,0.054-0.594,0.054-0.896c0-4.283-3.472-7.756-7.755-7.756c-3.805,0-6.967,2.74-7.627,6.354
	c-0.594-0.167-1.221-0.258-1.87-0.258c-3.811,0-6.899,3.09-6.899,6.899c0,0.158,0.008,0.315,0.019,0.471
	c-1.846,1.16-3.075,3.212-3.075,5.554c0,3.605,2.914,6.529,6.516,6.551c0.802,1.645,2.485,2.779,4.437,2.779
	s3.634-1.135,4.436-2.777h16.96c3.619,0,6.553-2.934,6.553-6.553C46.877,32.243,44.09,29.368,40.599,29.225z"/>
<path opacity="0.3" fill="#FFFFFF" enable-background="new    " d="M34.587,31.804c-0.748-1.527-2.245-2.619-4.012-2.803
	c0.025-0.217,0.04-0.436,0.04-0.658c0-3.141-2.547-5.688-5.688-5.688c-2.791,0-5.11,2.01-5.594,4.661
	c-0.436-0.123-0.896-0.19-1.371-0.19c-2.795,0-5.06,2.266-5.06,5.06c0,0.116,0.006,0.231,0.014,0.346
	c-1.354,0.851-2.255,2.355-2.255,4.074c0,2.645,2.137,4.789,4.779,4.805c0.588,1.205,1.822,2.039,3.254,2.039
	c1.432,0,2.666-0.834,3.254-2.037h12.438c2.654,0,4.807-2.152,4.807-4.807C39.192,34.018,37.147,31.909,34.587,31.804z"/>
<path opacity="0.3" fill="#FFFFFF" enable-background="new    " d="M30.085,33.877c-0.497-1.012-1.489-1.737-2.661-1.859
	c0.017-0.144,0.026-0.289,0.026-0.437c0-2.083-1.689-3.773-3.773-3.773c-1.851,0-3.39,1.333-3.711,3.091
	c-0.289-0.081-0.594-0.125-0.909-0.125c-1.854,0-3.357,1.503-3.357,3.356c0,0.076,0.004,0.154,0.009,0.229
	c-0.898,0.564-1.496,1.563-1.496,2.703c0,1.754,1.417,3.176,3.17,3.188c0.39,0.799,1.208,1.352,2.158,1.352
	c0.95,0,1.769-0.553,2.159-1.352h8.251c1.761,0,3.188-1.428,3.188-3.188C33.14,35.346,31.783,33.947,30.085,33.877z"/>
<path opacity="0.3" fill="#FFFFFF" enable-background="new    " d="M26.78,34.576c-0.299-0.607-0.896-1.045-1.6-1.117
	c0.01-0.086,0.016-0.174,0.016-0.264c0-1.251-1.016-2.268-2.269-2.268c-1.113,0-2.038,0.803-2.231,1.859
	c-0.173-0.049-0.357-0.075-0.546-0.075c-1.115,0-2.019,0.904-2.019,2.017c0,0.047,0.002,0.094,0.005,0.139
	c-0.54,0.34-0.899,0.939-0.899,1.625c0,1.055,0.852,1.91,1.906,1.916c0.235,0.48,0.727,0.813,1.298,0.813s1.063-0.332,1.298-0.813
	h4.961c1.059,0,1.917-0.857,1.917-1.916C28.616,35.459,27.801,34.619,26.78,34.576z"/>
<path opacity="0.3" fill="#FFFFFF" enable-background="new    " d="M50.466,58.807c0,1.303,0.759,2.357,1.694,2.357h4.384
	c0.207,0.592,0.642,1,1.146,1s0.939-0.408,1.146-1c0.932-0.008,1.685-1.061,1.685-2.357c0-0.842-0.318-1.58-0.795-1.998
	c0.003-0.055,0.005-0.111,0.005-0.17c0-1.369-0.799-2.482-1.783-2.482c-0.168,0-0.33,0.035-0.483,0.094
	c-0.171-1.301-0.988-2.285-1.972-2.285c-1.106,0-2.005,1.248-2.005,2.789c0,0.109,0.005,0.217,0.015,0.322
	c-0.623,0.092-1.15,0.627-1.414,1.375C51.186,56.504,50.466,57.537,50.466,58.807z"/>
<path opacity="0.3" fill="#FFFFFF" enable-background="new    " d="M50.933,58.756c0,1.182,0.688,2.139,1.536,2.139h3.977
	c0.188,0.535,0.583,0.906,1.04,0.906c0.458,0,0.853-0.371,1.041-0.906c0.845-0.008,1.527-0.961,1.527-2.139
	c0-0.764-0.287-1.434-0.721-1.813c0.002-0.051,0.005-0.102,0.005-0.152c0-1.244-0.725-2.252-1.617-2.252
	c-0.153,0-0.3,0.029-0.439,0.084c-0.154-1.18-0.896-2.074-1.788-2.074c-1.004,0-1.818,1.135-1.818,2.531
	c0,0.1,0.005,0.197,0.013,0.293c-0.564,0.082-1.043,0.568-1.283,1.246C51.586,56.666,50.933,57.604,50.933,58.756z"/>
<path opacity="0.3" fill="#FFFFFF" enable-background="new    " d="M52.205,59.131c0,0.961,0.559,1.74,1.249,1.74h3.235
	c0.152,0.436,0.474,0.736,0.846,0.736s0.693-0.303,0.846-0.738c0.688-0.006,1.243-0.781,1.243-1.738
	c0-0.621-0.234-1.166-0.587-1.475c0.002-0.041,0.004-0.082,0.004-0.125c0-1.012-0.589-1.83-1.316-1.83
	c-0.124,0-0.242,0.023-0.355,0.068c-0.126-0.961-0.729-1.688-1.455-1.688c-0.816,0-1.479,0.922-1.479,2.059
	c0,0.08,0.004,0.16,0.01,0.238c-0.459,0.066-0.849,0.461-1.043,1.014C52.735,57.432,52.205,58.193,52.205,59.131z"/>
<path opacity="0.3" fill="#FFFFFF" enable-background="new    " d="M53.109,59.248c0,0.807,0.47,1.461,1.05,1.461h2.718
	c0.129,0.367,0.398,0.619,0.712,0.619c0.313,0,0.582-0.254,0.711-0.619c0.576-0.006,1.044-0.658,1.044-1.461
	c0-0.523-0.197-0.98-0.493-1.24c0.002-0.033,0.003-0.068,0.003-0.104c0-0.85-0.495-1.539-1.105-1.539c-0.104,0-0.205,0.02-0.3,0.057
	c-0.105-0.807-0.612-1.416-1.222-1.416c-0.687,0-1.242,0.773-1.242,1.729c0,0.068,0.002,0.135,0.008,0.201
	c-0.386,0.055-0.714,0.389-0.876,0.852C53.556,57.82,53.109,58.461,53.109,59.248z"/>
<path opacity="0.3" fill="#FFFFFF" enable-background="new    " d="M54.341,59.434c0,0.592,0.346,1.072,0.771,1.072h1.993
	c0.094,0.268,0.292,0.453,0.521,0.453c0.23,0,0.428-0.186,0.522-0.453c0.424-0.004,0.766-0.482,0.766-1.072
	c0-0.383-0.145-0.719-0.361-0.908c0.001-0.025,0.002-0.051,0.002-0.078c0-0.623-0.362-1.127-0.811-1.127
	c-0.076,0-0.149,0.014-0.22,0.041c-0.078-0.592-0.449-1.039-0.896-1.039c-0.504,0-0.911,0.568-0.911,1.27
	c0,0.049,0.002,0.098,0.006,0.146c-0.282,0.041-0.522,0.283-0.643,0.623C54.669,58.387,54.341,58.857,54.341,59.434z"/>
<path opacity="0.3" fill="#FFFFFF" enable-background="new    " d="M55.312,59.535c0,0.393,0.228,0.711,0.511,0.711h1.321
	c0.063,0.178,0.194,0.301,0.347,0.301c0.151,0,0.282-0.123,0.345-0.301c0.282-0.002,0.509-0.32,0.509-0.711
	c0-0.254-0.096-0.477-0.24-0.604c0.001-0.016,0.002-0.033,0.002-0.051c0-0.412-0.241-0.748-0.538-0.748
	c-0.051,0-0.1,0.01-0.145,0.027c-0.052-0.393-0.299-0.689-0.596-0.689c-0.334,0-0.604,0.377-0.604,0.842
	c0,0.033,0.001,0.066,0.004,0.098c-0.188,0.027-0.347,0.189-0.427,0.414C55.528,58.84,55.312,59.152,55.312,59.535z"/>
<path opacity="0.3" fill="#FFFFFF" enable-background="new    " d="M56.036,59.408c0,0.236,0.138,0.428,0.307,0.428h0.795
	c0.038,0.107,0.116,0.182,0.209,0.182c0.091,0,0.169-0.074,0.207-0.182c0.169-0.002,0.305-0.193,0.305-0.428
	c0-0.152-0.057-0.287-0.144-0.363c0-0.01,0.001-0.02,0.001-0.031c0-0.248-0.145-0.449-0.324-0.449c-0.029,0-0.059,0.006-0.086,0.018
	c-0.031-0.236-0.18-0.414-0.357-0.414c-0.201,0-0.364,0.227-0.364,0.506c0,0.02,0.001,0.039,0.002,0.059
	c-0.112,0.016-0.208,0.113-0.255,0.248C56.166,58.99,56.036,59.178,56.036,59.408z"/>
</svg>
