<?xml version="1.0" encoding="utf-8"?>
<!-- Generator: Adobe Illustrator 16.0.0, SVG Export Plug-In . SVG Version: 6.00 Build 0)  -->
<!DOCTYPE svg PUBLIC "-//W3C//DTD SVG 1.1//EN" "http://www.w3.org/Graphics/SVG/1.1/DTD/svg11.dtd">
<svg version="1.1" id="Layer_1" xmlns="http://www.w3.org/2000/svg" xmlns:xlink="http://www.w3.org/1999/xlink" x="0px" y="0px"
	 width="64px" height="64px" viewBox="0 0 64 64" enable-background="new 0 0 64 64" xml:space="preserve">
<g>
	<path fill="#B3760A" d="M18.178,14.901c3.748,0.087,2.998-3.126,3.621-5.173c0.365-1.199-0.08-2.621,0.032-3.926
		c0.135-1.575-0.575-3.646,0.947-4.574c1.751-1.068,2.676,1.423,4.217,1.777c2.364,1.64,2.568,5.877,7.133,5.083
		c2.292-0.398,2.325-2.516,3.958-3.054c0.953-0.345,1.207,0.289,1.405,1c0.004,0.332-0.042,0.657-0.144,0.971
		c-0.666,2.031-3.506,4.399-0.851,6.066c2.317,1.457,2.862-2.531,4.763-3.324c0.799,0.165,1.346,0.476,0.83,1.409
		c0.725,4.377,3.979,3.715,7.066,3.691c2.248-0.019,5.55-0.916,6.464,1.06c1.177,2.544-2.048,4.109-3.718,5.745
		c-4.813,4.713-4.87,4.632-0.139,9.249c1.066,1.042,2.057,2.166,3.034,3.292c2.216,2.555,1.005,3.389-1.75,3.41
		c-0.583-0.406-0.764-1.039-0.954-1.668c-1.451-2.519-3.352-4.556-6.185-5.458c-1.086-0.346-2.499-0.584-3.138,0.647
		c-0.674,1.3,0.519,2.075,1.41,2.827c1.226,1.034,3.379,0.594,4.025,2.543c-0.553,1.2-1.464,1.03-2.434,0.644
		c-3.026-0.298-3.785,1.516-3.756,4.049c0.032,2.916,0.073,5.832,0.111,8.748c-0.676,2.721-2.377,1.719-3.975,1.104
		c-1.971-1.535-3.635-3.388-5.278-5.249c-0.476-0.604-0.808-1.339-1.526-1.716c-0.979-0.038-1.371,0.683-1.786,1.362
		c-0.395,1.448-0.197,2.936-0.394,4.383c-0.171,1.254-0.073,2.877-1.673,3.173c-1.525,0.282-2.196-1.076-2.806-2.248
		c-0.164-0.45-0.238-0.919-0.238-1.397c-0.023-3.789,1.588-7.076,3.214-10.357c0.363-0.275,0.776-0.422,1.221-0.471
		c2.192-0.176,1.704-1.926,1.84-3.244c0.213-2.037-0.265-4.16,0.813-6.084c0.327-0.367,0.739-0.525,1.226-0.506
		c2.334,1.358,2.883,4.518,5.861,5.653c-0.58-3.419-3.678-3.852-5.661-5.419c-0.37-1.105,0.187-1.774,1.072-2.288
		c2.767-0.795,5.705,0.815,8.828-0.482c-3.261-1.759-6.056,0.343-8.896,0.037c-0.531-0.551-0.647-1.211-0.514-1.937
		c1.34-2.72,4.779-3.533,5.982-6.69c-3.793,0.504-4.553,4.534-7.379,5.935c-0.688,0.234-1.373,0.233-2.058-0.001
		c-2.751-1.948-4.021-5.479-7.333-6.929c-0.719,1.148,0.495,2.58-0.605,3.605c-0.459,0.185-0.921,0.202-1.394,0.059
		c-2-2.625-5.827-2.198-7.885-4.724C15.687,13.972,16.942,14.49,18.178,14.901z"/>
	<path fill="#B3760C" d="M30.785,38.999c-0.291,0.002-0.582,0.007-0.873,0.013c-2,0.194-1.416-1.775-2.185-2.613
		c-4.578,4.313-4.786,8.066-0.714,12.83l-0.028,0.358c-0.382,1.521-1.737,1.655-2.91,2.058c-0.773,0.123-1.513,0.032-2.2-0.369
		c-1.043-1.231-1.557-2.586-0.936-4.19c0.05-1.162,0.1-2.323,0.151-3.487c0.284-6.418,0.284-6.398-6.535-6.412
		c-2.162-0.004-4.323-0.141-6.484-0.217c-0.64-3.693,2.299-5.59,4.536-6.923c4.774-2.845,3.448-5.284,0.429-8.159
		c-0.172-0.896,0.366-1.224,1.107-1.389c3.074,0.863,6.086,0.568,9.055-0.506c0.353-0.026,0.705-0.052,1.057-0.077
		c2.749,0.146,5.069,1.232,6.993,3.188c-0.044,0.822-0.48,1.28-1.291,1.386c-3.138,1.27-6.49-1.112-9.768,0.5
		c3.445,1.64,6.647-0.237,9.897-0.168c0.485,0.594,0.562,1.255,0.329,1.968c-2.07,2.545-5.547,3.689-6.989,7.104
		c3.809-0.518,4.179-4.711,6.937-6.187c0.796,0.235,1.221,0.814,1.468,1.565C31.461,32.51,32.321,35.884,30.785,38.999z"/>
	<path fill="#244F11" d="M23.823,50.844c0.768-1.141,2.092-0.878,3.162-1.256c0.671,0.883,1.343,1.766,2.18,2.867
		c1.902-2.696-0.707-6.211,1.805-8.537c2.799,4.585,0.798,9.568,1.337,14.084c0.427-3.159,0.229-6.623,0.335-10.075
		c0.057-1.784-0.119-3.657,1.379-5.061c0.371,0.688,0.742,1.379,1.113,2.067c1.344,2.396,1.284,5.025,1.27,7.643
		c0.031,0.486,0.019,1.002,0.178,1.462c0.591,1.701-1.018,4.489,1.794,5.006c2.679,0.493,4.019-1.806,5.156-3.856
		c1.118-2.014,2.012-4.192,4.435-5.049c1.092,3.725-2.271,5.748-3.482,8.547c-1.389,3.213-11.31,5.744-14.491,4.321
		c-0.625-1.261-0.843-2.698-1.693-3.86C27.889,55.796,25.877,53.311,23.823,50.844z"/>
	<path fill="#056636" d="M47.965,50.139c-1.242,2.104-2.559,4.17-3.714,6.321c-1.417,2.64-3.362,4.625-6.51,4.258
		c-3.938-0.46-1.782-3.69-2.267-5.726c-0.074-0.313-0.262-0.598-0.396-0.896c1.063-2.086,2.087-4.219,5.021-3.883
		c1.381,0.443,2.82,1.74,4.032-0.277C45.41,50.003,46.688,50.07,47.965,50.139z"/>
	<path fill="#2A5416" d="M28.945,58.979c1.53,1.037,0.975,2.614,1.045,4.028c-0.695-0.991-1.072-1.839-2.763-2.133
		c-7.724-1.342-12.875-8.074-13.014-16.58c2.304,0.956,4.516,1.873,6.726,2.79c0.358,1.292,0.717,2.584,1.076,3.876
		c-1.664,0.817-2.299-1.787-4.11-1.158C19.844,55.066,24.073,57.402,28.945,58.979z"/>
	<path fill="#BD861D" d="M38.975,5.93c-0.295-0.299-0.592-0.597-0.889-0.896c1.686-1.61,3.357-4.747,5.596-3.56
		c1.922,1.021,1.379,4.462,1.197,6.914c-0.068,0.938-0.516,1.847-0.788,2.769c-0.319-0.377-0.641-0.755-0.961-1.133
		c-2.104-1.797-1.052-4.182-1.157-6.25C41.626,5.311,40.968,6.503,38.975,5.93z"/>
	<path fill="#C6932A" d="M55.057,36.168c-0.002,0.479-0.005,0.957-0.007,1.436c-2.467,0.524-4.924,0.875-7.272-0.465
		c0.718-0.318,1.435-0.637,2.149-0.955C51.632,34.454,53.343,34.62,55.057,36.168z"/>
	<path fill="#BE892A" d="M13.936,21c-0.3,0.295-0.6,0.59-0.9,0.885c-2.425-1.514-5.574-4.161-4.717-6.168
		c1.138-2.661,5.135-1.726,8.026-1.451c0.625,0.06,1.223,0.415,1.833,0.635c-1.045,0.283-2.09,0.567-3.135,0.85
		C10.712,16.665,15.059,19.41,13.936,21z"/>
	<path fill="#EFC93C" d="M27.013,49.229c-0.695-1.978-4.499,0.6-4.26-3.152c0.294-4.639-0.269-9.448,5.625-11.313
		c1.348,1.069-0.079,3.248,1.536,4.25C30.146,42.758,27.827,45.779,27.013,49.229z"/>
	<path fill="#FAD742" d="M42.848,45.504c-0.131,0.596,0.713,2.335-0.707,2.959c-1.455,0.641-2.104-1.181-3.121-1.895
		c-0.133-0.094-0.236-0.229-0.351-0.351c-2.565-2.723-4.913-5.489-2.913-9.624c0.446-0.923,0.753-1.078,1.779-0.658
		C41.602,37.6,43.23,40.628,42.848,45.504z"/>
	<path fill="#F9D541" d="M42.568,22.151c3.322-6.092,5.037-6.846,12.803-5.625C52.955,22.786,49.583,24.266,42.568,22.151z"/>
	<path fill="#FAD742" d="M55.057,36.168c-1.709,0.004-3.418,0.009-5.129,0.014c-3.49,0.051-5.979-1.34-7.183-4.789
		c-0.341-0.977-0.229-1.647,0.696-1.939c3.404-1.076,6.563-0.823,8.863,2.273C53.338,33.116,55.881,33.622,55.057,36.168z"/>
	<path fill="#F9D642" d="M29.246,15.606c-5.191-1.647-6.998-5.062-6.19-10c0.125-0.763-0.219-1.782,0.814-2.122
		c0.928-0.304,1.527,0.449,2.097,1.005C29.095,7.544,32.254,10.609,29.246,15.606z"/>
	<path fill="#FAD642" d="M13.936,21c-1.109-1.367-2.218-2.735-3.71-4.575c1.852-0.259,3.335-0.465,4.818-0.674
		c3.394,0.112,6.562,0.659,8.154,4.239C20.402,22.998,17.336,23.529,13.936,21z"/>
	<path fill="#FBD843" d="M38.975,5.93c1.412-0.351,1.955-2.205,4.153-2.165c0,2.124,0,4.192,0.001,6.259
		c0.13,3.321-2.464,4.341-4.768,5.552c-0.701,0.368-1.145-0.13-1.412-0.844c-0.967-2.567-1.569-5.052,0.861-7.227
		C38.288,7.081,38.592,6.46,38.975,5.93z"/>
	<path fill="#036533" d="M34.021,42.866c-0.198,5.606,0.235,11.229-0.506,16.836c-0.152,1.151,0.364,2.571-1.156,2.709
		c-1.818,0.164-1.33-1.548-1.343-2.56c-0.067-5.311-0.042-10.623-0.048-15.935C31.891,43.29,32.645,42.177,34.021,42.866z"/>
	<path fill="#F3CD3C" d="M31.03,23.088c-2.491-0.563-4.821-1.472-6.777-3.175c-0.271-1.901-2.138-3.302-1.74-5.796
		c4.788,1.31,7.325,4.687,9.254,8.734C31.623,23.245,31.372,23.309,31.03,23.088z"/>
	<path fill="#F9D542" d="M34.137,22.886c2.146-3.716,4.672-6.946,9.797-7.67c-1.113,4.771-4.303,7.047-7.973,8.896
		C34.878,24.41,34.354,23.877,34.137,22.886z"/>
	<path fill="#F5CE3E" d="M30.785,38.999c-1.099-3.36-0.551-6.665,0.326-9.96c0.998-0.874,1.942-0.882,2.821,0.175
		c0.23,3.14,0.672,6.306-0.348,9.378C32.992,40.375,32.08,41.378,30.785,38.999z"/>
	<path fill="#F6D03F" d="M36.188,25.821c3.805-2.452,7.578-2.653,11.939,0.339c-4.161,2.838-8.035,1.952-11.932,0.802
		c-0.279-0.251-0.373-0.504-0.283-0.758C36.003,25.949,36.094,25.821,36.188,25.821z"/>
	<path fill="#F9D541" d="M34.95,28.996c5.313-0.458,6.866,3.066,8.36,7.802c-4.955-1.094-7.209-3.879-8.322-7.853L34.95,28.996z"/>
	<path fill="#FAD742" d="M32.895,10.594c0.588,0.112,0.797,0.093,0.842,0.17c1.854,3.105,1.996,6.251,0.084,9.375
		c-0.416,0.682-1.157,0.672-1.624,0.026C29.833,16.892,31.43,13.887,32.895,10.594z"/>
	<path fill="#FA304F" d="M36.188,25.821c0.002,0.38,0.004,0.761,0.008,1.141c-0.414,0.678-0.828,1.355-1.243,2.033
		c-0.001,0,0.038-0.05,0.038-0.051c-0.354,0.089-0.705,0.178-1.059,0.268c-0.94-0.057-1.882-0.115-2.821-0.174
		c-0.327-0.338-0.654-0.677-0.981-1.015c-0.294-0.17-0.44-0.384-0.436-0.643c0.004-0.281,0.044-0.422,0.119-0.422
		c0.006-0.635,0.012-1.271,0.018-1.907c-0.256-0.238-0.323-0.451-0.202-0.638c0.113-0.174,0.221-0.262,0.324-0.262
		c0.359-0.355,0.719-0.711,1.079-1.066c0.247-0.078,0.493-0.157,0.738-0.235c0.787,0.012,1.578,0.023,2.367,0.034
		c0.608,0.409,1.217,0.817,1.825,1.226C36.036,24.683,36.111,25.252,36.188,25.821z"/>
	<path fill="#036635" d="M28.945,58.979c-4.865,0.967-12.917-5.442-12.811-10.183c0.03-1.344,0.618-1.627,1.88-1.292
		c1.931,0.516,2.662,2.316,4.001,3.457c0.603-0.039,1.205-0.077,1.807-0.115C28.108,51.934,29.056,55.121,28.945,58.979z"/>
	<path fill="#FAD742" d="M14.309,35.947c-1.166-0.354-3.208,0.869-3.775-0.918c-0.487-1.535,1.481-2.353,2.403-3.45
		c0.421-0.502,0.933-0.945,1.46-1.34c2.172-1.63,4.445-2.983,7.29-1.777c0.946,0.4,1.065,1.146,0.423,1.969
		c-1.72,2.199-2.075,5.915-6.137,5.523C15.481,35.906,14.981,35.947,14.309,35.947z"/>
	<path fill="#F9D541" d="M29.812,26.959c0.105,0.354,0.211,0.709,0.317,1.063c-1.133,4.347-3.729,7.096-8.732,7.96
		C22.578,31.029,25.675,28.514,29.812,26.959z"/>
	<path fill="#FAD642" d="M29.952,24.153c0.021,0.308-0.019,0.606-0.121,0.898c-4.086,2.346-8.123,3.148-12.302-0.194
		C21.723,21.518,25.881,23.849,29.952,24.153z"/>
</g>
</svg>
