<?xml version="1.0" encoding="utf-8"?>
<!-- Generator: Adobe Illustrator 16.0.0, SVG Export Plug-In . SVG Version: 6.00 Build 0)  -->
<!DOCTYPE svg PUBLIC "-//W3C//DTD SVG 1.1//EN" "http://www.w3.org/Graphics/SVG/1.1/DTD/svg11.dtd">
<svg version="1.1" id="Layer_1" xmlns="http://www.w3.org/2000/svg" xmlns:xlink="http://www.w3.org/1999/xlink" x="0px" y="0px"
	 width="64px" height="64px" viewBox="0 0 64 64" enable-background="new 0 0 64 64" xml:space="preserve">
<path fill-rule="evenodd" clip-rule="evenodd" d="M23.624,0.203c1.911,1.09,3.168,2.793,4.306,4.603
	c0.302,0.481,0.733,0.568,1.232,0.53c1.688-0.128,3.375-0.188,5.062,0.004c1.984,0.225,3.93,0.603,5.702,1.582
	c1.214,0.669,2.132,1.591,2.456,2.993c0.111,0.478,0.472,0.667,0.888,0.781c0.748,0.205,1.484,0.435,2.21,0.708
	c1.473,0.555,2.585,1.521,3.42,2.841c2.915,4.604,4.788,9.613,5.908,14.93c0.389,1.846,0.815,3.689,1.043,5.556
	c0.331,2.716-0.331,5.257-2.105,7.352c-2.965,3.496-6.492,6.192-11.135,7.101c-0.635,0.123-0.676,0.248-0.27,0.746
	c0.265,0.324,0.501,0.657,0.652,1.058c0.219,0.576,0.656,0.987,1.162,1.324c0.265,0.177,0.541,0.336,0.8,0.52
	c0.662,0.472,0.964,1.45-0.165,1.886c-0.439,0.169-0.834,0.457-1.24,0.709c-0.383,0.237-0.758,0.279-1.084-0.06
	c-0.546-0.569-1.242-0.84-1.969-1.064c-0.266-0.081-0.524-0.187-0.792-0.261c-0.258-0.071-0.454-0.431-0.724-0.257
	c-0.082,0.053,0.07,0.458,0.108,0.703c0.293,1.896,0.488,3.794-0.205,5.652c-0.185,0.498-0.029,0.847,0.366,1.136
	c0.24,0.177,0.475,0.364,0.729,0.518c0.513,0.312,0.67,0.765,0.561,1.328c-0.11,0.562-0.472,0.85-1.031,0.912
	c-1.269,0.145-2.539,0.144-3.806-0.029c-0.557-0.076-0.85-0.391-0.854-0.961c-0.001-0.159-0.01-0.317-0.006-0.477
	c0.03-1.394-0.375-1.87-1.758-2.034c-0.996-0.119-1.936,0.11-2.845,0.494c-0.373,0.157-0.601,0.451-0.659,0.857
	c-0.042,0.295-0.079,0.591-0.105,0.887c-0.075,0.823-0.321,1.095-1.134,1.16c-1.251,0.102-2.504,0.087-3.752-0.06
	c-0.62-0.072-0.938-0.52-0.827-1.136c0.124-0.69,0.124-0.683-0.596-0.659c-2.096,0.066-4.063-0.374-5.85-1.508
	c-0.354-0.224-0.683-0.484-0.955-0.806c-0.307-0.362-0.297-0.709,0.168-0.91c0.699-0.305,1.01-0.856,1.117-1.57
	c0.024-0.154,0.07-0.312,0.13-0.457c0.238-0.574,0.565-0.674,1.062-0.303c0.334,0.25,0.638,0.541,0.967,0.797
	c0.15,0.119,0.297,0.371,0.475,0.303c0.231-0.088,0.133-0.387,0.151-0.59c0.045-0.494,0.046-0.992,0.067-1.488
	c0.005-0.119,0.011-0.239,0.031-0.355c0.091-0.535-0.052-1.006-0.429-1.391c-0.467-0.479-0.222-1.541,0.484-1.718
	c1.079-0.27,1.698-0.892,2.064-1.921c0.24-0.673,0.929-1.069,1.368-1.698c-1.026-0.287-2.021-0.548-3.007-0.842
	c-3.273-0.972-6.417-2.229-9.179-4.293c-2.426-1.813-3.967-4.145-4.219-7.227c-0.007-0.084-0.027-0.153-0.117-0.181
	c0-0.519,0-1.035,0-1.553c0.206-0.09,0.299-2.157,0.431-3.021c0.51-3.356,1.551-6.562,2.852-9.685
	c0.35-0.84,0.463-1.655,0.254-2.549c-0.263-1.124-0.405-2.269-0.298-3.43c0.087-0.94,0.568-1.528,1.399-1.698
	c0.451-0.093,0.862,0.048,1.271,0.214c0.884,0.357,1.212,0.149,1.234-0.804c0.017-0.735,0.003-1.472,0.004-2.208
	c0.002-1.039,0.106-2.066,0.454-3.049c0.298-0.841,1.052-1.024,1.669-0.398c0.55,0.557,1.197,0.982,1.821,1.439
	c1.172,0.858,1.927,0.618,2.303-0.81c0.494-1.881,1.05-3.743,1.602-5.607c0.14-0.474,0.233-0.967,0.291-1.458
	c0.047-0.399,0.13-0.77,0.36-1.102C23.306,0.203,23.465,0.203,23.624,0.203z M41.896,13.698c1.316-0.506,2.664-0.877,4.1-0.904
	c-0.969-0.675-2.048-0.998-3.133-1.301c-0.224-0.062-0.391,0.044-0.422,0.217c-0.12,0.682-0.549,1.279-0.539,1.994
	c-0.01,0.013-0.02,0.027-0.028,0.041C41.881,13.729,41.889,13.714,41.896,13.698z M34.372,59.751c0.446,0.231,0.874,0.51,1.14,0.938
	c0.629,1.015,1.221,0.84,1.873-0.041c0.151-0.204,0.243-0.453,0.342-0.689c0.336-0.802,0.405-1.66,0.452-2.506
	c0.123-2.115-0.063-4.203-0.708-6.235c-0.034-0.104-0.148-0.225-0.023-0.323c0.141-0.109,0.265-0.008,0.36,0.096
	c0.256,0.276,0.5,0.565,0.759,0.84c0.564,0.593,1.172,1.143,1.947,1.437c0.955,0.363,2.064-0.448,1.826-1.354
	c-0.332-1.263-1.034-2.2-2.413-2.523c-0.71-0.166-1.382,0.018-2.07,0.027c-1.609,0.023-3.213-0.08-4.813-0.237
	c-1.813-0.177-3.623-0.389-5.436-0.558c-0.698-0.065-1.465-0.438-2.092,0.015c-0.883,0.637-1.685,1.399-2.233,2.365
	c-0.275,0.483-0.176,0.988,0.192,1.381c0.351,0.375,0.8,0.586,1.344,0.444c0.609-0.158,1.151-0.436,1.599-0.881
	c0.396-0.393,0.78-0.795,1.182-1.18c0.146-0.14,0.289-0.458,0.502-0.308c0.229,0.161-0.026,0.383-0.13,0.564
	c-0.396,0.691-0.698,1.42-0.891,2.198c-0.335,1.354-0.426,2.74-0.572,4.117c-0.104,0.978,0.061,1.941,0.469,2.849
	c0.369,0.816,0.771,0.959,1.541,0.527c0.657-0.369,1.297-0.772,1.944-1.16C31.779,59.363,33.085,59.387,34.372,59.751z
	 M13.028,19.462c-0.323,0.114-0.374,0.394-0.47,0.613c-0.755,1.708-1.411,3.457-2.01,5.225c-1.114,3.287-1.882,6.645-1.836,10.135
	c0.03,2.308,0.871,4.315,2.603,5.873c1.42,1.278,2.99,2.358,4.67,3.281c2.339,1.283,4.85,2.029,7.445,2.572
	c1.867,0.392,3.757,0.588,5.64,0.854c2.636,0.372,5.285,0.577,7.938,0.648c1.603,0.043,3.217-0.049,4.805-0.328
	c2.674-0.47,5.151-1.468,7.422-2.945c1.28-0.833,2.199-2.063,3.167-3.218c0.828-0.99,1.607-2.019,2.063-3.257
	c0.745-2.026,0.509-4.067,0.148-6.113c-0.709-4.002-2.017-7.835-3.375-11.65c-0.04-0.112-0.072-0.231-0.138-0.328
	c-0.186-0.276-0.348-0.219-0.46,0.062c-0.045,0.11-0.057,0.232-0.09,0.346c-0.463,1.572-1.106,1.871-2.603,1.21
	c-0.072-0.032-0.144-0.068-0.215-0.102c-2.467-1.176-4.408-2.953-5.968-5.176c-0.2-0.284-0.383-0.828-0.661-0.758
	c-0.336,0.084-0.377,0.635-0.522,0.997c-0.239,0.589-0.061,0.938,0.512,1.238c1.109,0.58,2.173,1.242,3.06,2.154
	c1.159,1.193,2.115,2.534,2.904,3.989c1.953,3.593,3.299,7.353,2.966,11.53c-0.209,2.594-1.316,4.828-3.231,6.521
	c-3.186,2.817-7.069,4.016-11.251,4.301c-1.548,0.105-3.093-0.063-4.637-0.212c-2.695-0.262-5.349-0.698-7.885-1.68
	c-2.191-0.85-4.215-1.962-5.757-3.801c-1.374-1.64-2.023-3.551-1.97-5.667c0.034-1.389,0.37-2.749,0.699-4.097
	c1.263-5.177,3.583-9.707,7.997-12.941c0.341-0.25,0.558-0.591,0.472-1.029c-0.188-0.952-0.635-1.804-1.028-2.73
	c-0.105,0.111-0.151,0.148-0.182,0.194c-0.098,0.149-0.191,0.302-0.284,0.455c-1.78,2.95-4.246,5.067-7.525,6.195
	c-1.04,0.357-1.572,0.102-1.956-0.955C13.316,20.413,13.182,19.942,13.028,19.462z M20.571,29.001
	c-0.499,0.027-0.803,0.226-1.014,0.558c-0.779,1.223-1.545,2.457-2.079,3.812c-0.709,1.802-1.083,3.669-0.295,5.507
	c1.26,2.94,3.492,4.914,6.58,5.736c2.815,0.75,5.694,1.27,8.613,1.419c2.003,0.103,4.01,0.106,6.011-0.174
	c1.39-0.195,2.661-0.681,3.952-1.216c1.768-0.73,3.268-1.781,4.625-3.085c0.716-0.687,1.214-1.514,1.542-2.448
	c0.377-1.076,0.521-2.2,0.622-3.322c0.179-1.995,0.074-3.973-0.608-5.88c-0.384-1.07-1.26-1.646-2.387-1.625
	c-0.172,0.003-0.376-0.06-0.491,0.129c-0.123,0.201,0.06,0.325,0.149,0.471c0.304,0.488,0.635,0.964,0.903,1.472
	c0.289,0.547,0.17,0.899-0.376,1.171c-0.389,0.194-0.803,0.336-1.209,0.495c-0.42,0.165-0.527,0.397-0.183,0.749
	c0.126,0.127,0.248,0.258,0.366,0.393c1.246,1.431,1.442,3.618,0.463,5.162c-1.191,1.88-3.687,2.609-5.784,1.691
	c-2.086-0.911-3.052-2.948-2.459-5.212c0.103-0.391,0.235-0.786-0.003-1.147c-0.815-1.243-0.175-2.203,0.887-2.792
	c1.6-0.888,3.242-1.676,4.935-2.37c0.355-0.146,0.753-0.225,1.093-0.548c-6.829-1.533-13.554-0.945-20.289,0.306
	c0.065,0.23,0.201,0.287,0.318,0.356c1.329,0.795,2.667,1.578,3.988,2.387c1.045,0.641,1.215,1.218,0.731,2.344
	c-0.175,0.407-0.248,0.81-0.196,1.265c0.359,3.145-1.251,5.191-4.231,5.42c-2.474,0.188-4.673-1.852-4.722-4.319
	c-0.028-1.397,0.527-2.503,1.503-3.431c0.356-0.338,0.336-0.517-0.13-0.691c-0.388-0.145-0.765-0.332-1.125-0.539
	c-0.454-0.259-0.573-0.641-0.292-1.106C20.153,29.651,20.338,29.37,20.571,29.001z M28.164,19.937
	c-0.015-1.695-0.858-2.546-2.514-1.514c-1.688,1.054-3.228,2.299-4.516,3.817c-1.37,1.612-2.351,3.462-3.021,5.468
	c-0.2,0.6-0.003,0.781,0.594,0.634c1.19-0.292,2.373-0.613,3.579-0.837c2.134-0.397,4.255-0.876,6.442-0.91
	c0.509-0.008,1.016-0.132,1.525-0.192c1.174-0.139,2.329-0.479,3.526-0.396c1.796,0.126,3.598,0.057,5.387,0.341
	c1.811,0.288,3.642,0.443,5.435,0.844c0.771,0.172,1.539,0.368,2.318,0.472c0.743,0.099,0.868-0.069,0.563-0.729
	c-0.444-0.954-0.91-1.902-1.437-2.813c-1.282-2.224-3.509-3.45-5.413-5.012c-0.31-0.253-0.61-0.063-0.642,0.349
	c-0.015,0.212,0.067,0.393,0.182,0.556c0.643,0.917,0.912,1.973,1.112,3.047c0.155,0.829-0.442,1.489-1.179,1.232
	c-1.467-0.512-2.989-0.329-4.478-0.406c-2.349-0.124-4.718-0.173-7.021,0.537c-0.459,0.141-0.858-0.036-0.99-0.588
	c-0.237-0.994-0.24-1.96,0.265-2.883C28.064,20.621,28.235,20.283,28.164,19.937z M32.453,6.16c-2.501-0.071-4.847,0.508-7.04,1.694
	c-1.02,0.551-1.958,1.218-2.553,2.263c-0.382,0.672-0.318,1.345,0.208,1.916c0.557,0.604,1.184,1.12,1.934,1.471
	c2.48,1.163,5.114,1.558,7.82,1.482c1.823-0.052,3.644-0.204,5.463-0.334c1.048-0.076,2.087-0.25,2.69-1.257
	c1.207-2.015,0.906-4.415-1.494-5.748C37.288,6.429,34.89,6.206,32.453,6.16z M39.48,22.302c0.479,0.009,0.567-0.213,0.448-0.614
	c-0.323-1.087-0.972-1.929-1.879-2.595c-0.825-0.606-0.974-0.57-1.323,0.399c-0.088,0.247-0.167,0.523-0.486,0.517
	c-0.31-0.006-0.427-0.276-0.508-0.519c-0.139-0.415-0.271-0.833-0.504-1.205c-0.241-0.389-0.621-0.544-1.064-0.517
	c-0.41,0.025-0.691,0.26-0.863,0.633c-0.201,0.435-0.307,0.897-0.358,1.369c-0.033,0.3-0.229,0.418-0.463,0.467
	c-0.269,0.057-0.464-0.104-0.553-0.348c-0.083-0.221-0.133-0.455-0.178-0.686c-0.157-0.799-0.646-1.021-1.305-0.565
	c-1.067,0.739-1.812,1.704-2.054,3.012c-0.107,0.583,0.021,0.786,0.605,0.769c0.759-0.023,1.498,0.058,2.232,0.249
	c0.865,0.225,1.739,0.349,2.637,0.132c0.279-0.067,0.585-0.03,0.885,0.041c0.699,0.165,1.419,0.219,2.079-0.109
	C37.686,22.307,38.54,21.989,39.48,22.302z M38.03,36.26c0.042,0.293,0.058,0.593,0.131,0.879c0.492,1.926,2.274,2.917,4.427,2.473
	c1.529-0.315,2.737-1.545,2.984-3.037c0.234-1.408-0.463-2.858-1.738-3.655c-0.34-0.212-0.687-0.295-1.077-0.199
	c-1.174,0.288-2.348,0.578-3.523,0.859c-0.244,0.06-0.43,0.164-0.546,0.403C38.335,34.702,38.067,35.442,38.03,36.26z M27.303,5.798
	c-0.03-0.1-0.051-0.198-0.09-0.289c-0.675-1.571-1.635-2.942-2.908-4.084c-0.382-0.342-0.721-0.17-0.812,0.344
	c-0.382,2.184-0.842,4.348-1.664,6.417c-0.089,0.224-0.218,0.447-0.006,0.66c0.211,0.212,0.461,0.171,0.716,0.074
	c0.228-0.087,0.424-0.21,0.593-0.387c0.64-0.666,1.391-1.175,2.235-1.546c0.49-0.214,0.985-0.416,1.479-0.62
	C27.106,6.26,27.264,6.076,27.303,5.798z M28.3,35.892c0.002-1.431-0.319-2.129-1.059-2.322c-1.212-0.317-2.385-0.736-3.561-1.159
	c-0.326-0.116-0.657-0.136-0.987,0.004c-0.908,0.384-2.019,2.205-2.015,3.188c0.006,1.388,0.761,2.271,1.833,3.006
	c1.246,0.854,2.526,0.874,3.819,0.198C27.617,38.131,28.247,37.015,28.3,35.892z M25.776,56.315
	c-1.362,1.21-2.864,1.888-4.485,2.329c-1.089,0.296-2.2,0.484-3.308,0.685c-0.135,0.025-0.322-0.009-0.367,0.138
	c-0.058,0.187,0.146,0.251,0.265,0.34c0.53,0.393,1.104,0.693,1.742,0.879c0.896,0.259,1.808,0.455,2.731,0.536
	c1.13,0.101,2.256,0.033,3.323-0.438c0.313-0.139,0.563-0.347,0.434-0.67C25.642,58.926,25.789,57.692,25.776,56.315z
	 M38.832,32.697c0.078-0.004,0.178,0.004,0.275-0.015c2.062-0.381,4.057-1.013,6.071-1.577c0.187-0.052,0.388-0.139,0.413-0.377
	c0.064-0.582-0.199-1.044-0.588-1.431c-0.334-0.331-0.728-0.213-1.105-0.057c-0.896,0.371-1.812,0.701-2.682,1.123
	c-0.941,0.457-1.943,0.814-2.748,1.519c-0.187,0.161-0.354,0.35-0.235,0.617C38.348,32.753,38.6,32.684,38.832,32.697z
	 M21.106,30.047c0.018,0.435,0.252,0.639,0.604,0.753c2.087,0.68,4.174,1.362,6.259,2.048c0.177,0.059,0.353,0.139,0.479-0.052
	c0.117-0.176,0.127-0.393,0.002-0.562c-0.115-0.153-0.273-0.288-0.438-0.39c-1.693-1.053-3.3-2.262-5.217-2.917
	c-0.287-0.097-0.627-0.423-0.855-0.166C21.601,29.146,21.13,29.488,21.106,30.047z M17.518,12.277
	c1.718,0.025,3.327,0.142,4.767,1.047c0.13,0.082,0.284,0.335,0.445,0.16c0.146-0.159,0.098-0.416-0.021-0.616
	c-0.102-0.17-0.219-0.331-0.329-0.495c-0.418-0.627-0.536-1.313-0.397-2.047c0.102-0.54,0.006-0.622-0.547-0.453
	C19.948,10.325,18.676,11.129,17.518,12.277z M14.946,16.517c-0.857,1.39-1.224,2.686-0.71,4.12
	c0.183,0.509,0.576,0.661,1.103,0.461c0.686-0.26,1.343-0.585,1.936-1.021c0.224-0.164,0.527-0.267,0.633-0.612
	C16.204,19.288,15.317,18.279,14.946,16.517z M49.215,17.455c-0.492,1.642-1.485,2.475-3.049,2.595
	c-0.068,0.005-0.173,0.05-0.191,0.102c-0.054,0.143,0.09,0.198,0.173,0.271c0.693,0.606,1.478,1.063,2.332,1.397
	c0.694,0.272,0.902,0.182,1.194-0.5C50.232,20.01,49.821,18.806,49.215,17.455z M15.774,10.539c0,0.688-0.004,1.184,0.002,1.68
	c0.001,0.129-0.054,0.315,0.123,0.35c0.084,0.016,0.208-0.092,0.293-0.166c0.717-0.624,1.428-1.255,2.147-1.876
	c0.269-0.232,0.333-0.418-0.02-0.641c-0.635-0.403-1.262-0.82-1.877-1.253c-0.379-0.267-0.501-0.122-0.595,0.263
	C15.701,9.506,15.814,10.121,15.774,10.539z M25.976,53.545c-1.356,0.123-2.563,0.503-3.524,1.499
	c0.44,0.311,0.885,0.643,1.349,0.946c0.663,0.434,1.181,0.333,1.629-0.317C25.864,55.046,25.97,54.327,25.976,53.545z M27.029,15.13
	c0.533,1.319,1.035,2.561,1.583,3.917c0.111-0.261,0.169-0.383,0.215-0.51c0.293-0.798,0.585-1.597,0.876-2.396
	c0.168-0.458-0.055-0.682-0.479-0.742C28.541,15.302,27.853,15.229,27.029,15.13z M11.802,16.976
	c-0.061,0.46,0.023,0.908,0.161,1.345c0.046,0.145,0.096,0.326,0.277,0.359c0.205,0.038,0.254-0.15,0.328-0.285
	c0.292-0.542,0.59-1.079,0.87-1.626c0.614-1.2,0.495-1.477-0.794-1.932c-0.418-0.148-0.712,0.008-0.715,0.424
	C11.926,15.838,11.708,16.394,11.802,16.976z M32.417,19.265c0.401-1.131,0.759-2.113,1.097-3.102
	c0.118-0.343,0.046-0.581-0.404-0.56c-0.494,0.024-0.991,0.008-1.488,0.013c-0.426,0.004-0.588,0.222-0.433,0.616
	C31.571,17.206,31.972,18.172,32.417,19.265z M36.29,15.377c-0.158,0-0.317-0.003-0.477,0c-0.718,0.019-0.925,0.261-0.698,0.919
	c0.237,0.691,0.538,1.36,0.811,2.04c0.054,0.132,0.111,0.26,0.284,0.257c0.19-0.003,0.19-0.173,0.237-0.295
	c0.222-0.591,0.44-1.184,0.656-1.778C37.508,15.401,37.483,15.366,36.29,15.377z M22.003,58.035
	c0.549-0.046,1.015-0.289,1.473-0.581c0.33-0.21,0.327-0.396,0.077-0.659c-0.483-0.508-1.053-0.9-1.637-1.275
	c-0.158-0.101-0.313-0.307-0.519-0.161c-0.171,0.12-0.209,0.351-0.161,0.547c0.126,0.508,0.105,1.021,0.112,1.534
	C21.354,57.867,21.594,58.041,22.003,58.035z M23.784,13.801c-0.037,0.035-0.076,0.07-0.113,0.104
	c0.433,1.107,0.865,2.214,1.326,3.391c0.621-0.683,0.731-1.485,0.996-2.215c0.07-0.195-0.108-0.335-0.272-0.411
	C25.078,14.375,24.43,14.09,23.784,13.801z M39.673,18.292c0.432-1.223,0.804-2.281,1.198-3.399
	c-0.677,0.171-1.229,0.337-1.791,0.443c-0.406,0.078-0.517,0.33-0.397,0.641C38.962,16.71,39.297,17.421,39.673,18.292z
	 M16.621,32.666c0.335-0.055,0.356-0.19,0.415-0.284c0.464-0.76,0.876-1.552,1.443-2.247c0.11-0.136,0.403-0.213,0.252-0.464
	c-0.146-0.242-0.38-0.229-0.633-0.139c-0.21,0.076-0.39,0.173-0.552,0.331C16.752,30.632,17.005,31.697,16.621,32.666z
	 M43.327,53.111c-0.439-0.012-0.833,0.107-1.08,0.488c-0.181,0.28-0.231,0.63,0.035,0.868c0.28,0.249,0.523,0.108,0.719-0.2
	c0.221-0.35,0.583-0.357,0.952-0.286c0.173,0.033,0.347,0.061,0.521,0.082c0.111,0.016,0.194-0.052,0.234-0.144
	c0.046-0.105-0.023-0.199-0.108-0.249C44.199,53.434,43.845,53.087,43.327,53.111z M23.221,53.094
	c-0.036-0.178-0.123-0.34-0.308-0.453c-0.439-0.27-1.324-0.22-1.737,0.11c-0.122,0.098-0.29,0.208-0.253,0.37
	c0.046,0.206,0.261,0.107,0.403,0.125c0.32,0.037,0.693-0.108,0.92,0.247c0.115,0.179,0.176,0.442,0.467,0.317
	C23.005,53.686,23.145,53.42,23.221,53.094z M37.958,23.197c0.673,0.18,1.242,0.338,1.815,0.482c0.22,0.055,0.518,0.188,0.646-0.052
	c0.13-0.243-0.081-0.492-0.256-0.68c-0.183-0.195-0.43-0.297-0.697-0.269C38.955,22.732,38.468,22.862,37.958,23.197z M30.63,23.131
	c-0.847-0.389-1.636-0.214-2.474,0.213C29.081,23.844,29.842,23.369,30.63,23.131z M18.756,57.145
	c-0.062,0.045-0.124,0.09-0.187,0.134c-0.088,0.35-0.267,0.683-0.072,1.065c0.11,0.215,0.271,0.251,0.48,0.246
	c0.236-0.006,0.436-0.1,0.533-0.304c0.098-0.205-0.112-0.307-0.217-0.438C19.112,57.615,18.935,57.379,18.756,57.145z
	 M26.495,15.604c-0.198,0.5-0.362,0.916-0.529,1.332c-0.067,0.166-0.091,0.294,0.139,0.355c0.486,0.129,0.941-0.272,0.824-0.764
	C26.856,16.225,26.752,15.925,26.495,15.604z M38.437,16.755c-0.008-0.129-0.087-0.513-0.344-0.57
	c-0.217-0.049-0.452,0.305-0.466,0.577c-0.016,0.32,0.237,0.482,0.541,0.516C38.422,17.305,38.451,17.125,38.437,16.755z"/>
<path fill-rule="evenodd" clip-rule="evenodd" fill="#F27002" d="M13.028,19.462c0.154,0.479,0.289,0.951,0.456,1.41
	c0.384,1.056,0.916,1.312,1.956,0.955c3.28-1.127,5.745-3.245,7.525-6.195c0.092-0.153,0.186-0.306,0.284-0.455
	c0.031-0.046,0.076-0.083,0.182-0.194c0.394,0.926,0.84,1.778,1.028,2.73c0.086,0.438-0.131,0.779-0.472,1.029
	c-4.413,3.235-6.733,7.765-7.997,12.941c-0.329,1.348-0.665,2.708-0.699,4.097c-0.053,2.116,0.596,4.027,1.97,5.667
	c1.542,1.839,3.565,2.951,5.757,3.801c2.537,0.981,5.19,1.418,7.885,1.68c1.544,0.149,3.089,0.317,4.637,0.212
	c4.182-0.285,8.065-1.483,11.251-4.301c1.915-1.693,3.022-3.928,3.231-6.521c0.333-4.178-1.013-7.938-2.966-11.53
	c-0.789-1.455-1.745-2.795-2.904-3.989c-0.887-0.912-1.95-1.574-3.06-2.154c-0.572-0.301-0.751-0.649-0.512-1.238
	c0.146-0.362,0.187-0.912,0.522-0.997c0.278-0.07,0.461,0.474,0.661,0.758c1.56,2.223,3.501,4,5.968,5.176
	c0.071,0.034,0.143,0.07,0.215,0.102c1.496,0.661,2.14,0.362,2.603-1.21c0.033-0.114,0.045-0.236,0.09-0.346
	c0.112-0.281,0.274-0.338,0.46-0.062c0.065,0.096,0.098,0.216,0.138,0.328c1.358,3.815,2.666,7.647,3.375,11.65
	c0.36,2.046,0.597,4.087-0.148,6.113c-0.455,1.238-1.234,2.267-2.063,3.257c-0.968,1.155-1.887,2.385-3.167,3.218
	c-2.271,1.478-4.748,2.476-7.422,2.945c-1.588,0.279-3.202,0.371-4.805,0.328c-2.653-0.071-5.302-0.276-7.938-0.648
	c-1.883-0.267-3.773-0.463-5.64-0.854c-2.595-0.543-5.106-1.289-7.445-2.572c-1.681-0.923-3.25-2.003-4.67-3.281
	c-1.732-1.558-2.573-3.565-2.603-5.873c-0.046-3.49,0.723-6.848,1.836-10.135c0.599-1.768,1.254-3.516,2.01-5.225
	C12.654,19.856,12.705,19.576,13.028,19.462z"/>
<path fill-rule="evenodd" clip-rule="evenodd" fill="#F9E2CE" d="M20.571,29.001c-0.232,0.369-0.417,0.649-0.59,0.938
	c-0.281,0.465-0.162,0.847,0.292,1.106c0.36,0.207,0.737,0.394,1.125,0.539c0.466,0.174,0.486,0.353,0.13,0.691
	c-0.977,0.928-1.531,2.033-1.503,3.431c0.048,2.468,2.248,4.508,4.722,4.319c2.98-0.229,4.59-2.275,4.231-5.42
	c-0.052-0.455,0.021-0.857,0.196-1.265c0.484-1.126,0.314-1.704-0.731-2.344c-1.322-0.809-2.659-1.592-3.988-2.387
	c-0.117-0.07-0.253-0.126-0.318-0.356c6.735-1.251,13.46-1.838,20.289-0.306c-0.34,0.323-0.737,0.402-1.093,0.548
	c-1.692,0.693-3.335,1.482-4.935,2.37c-1.062,0.589-1.702,1.549-0.887,2.792c0.238,0.361,0.105,0.757,0.003,1.147
	c-0.593,2.264,0.373,4.301,2.459,5.212c2.098,0.918,4.593,0.188,5.784-1.691c0.979-1.544,0.783-3.731-0.463-5.162
	c-0.118-0.135-0.24-0.266-0.366-0.393c-0.345-0.352-0.237-0.584,0.183-0.749c0.406-0.159,0.82-0.301,1.209-0.495
	c0.546-0.272,0.665-0.624,0.376-1.171c-0.269-0.508-0.6-0.984-0.903-1.472c-0.09-0.146-0.272-0.27-0.149-0.471
	c0.115-0.188,0.319-0.126,0.491-0.129c1.127-0.021,2.003,0.555,2.387,1.625c0.683,1.907,0.787,3.885,0.608,5.88
	c-0.101,1.122-0.245,2.246-0.622,3.322c-0.328,0.935-0.826,1.762-1.542,2.448c-1.357,1.304-2.857,2.354-4.625,3.085
	c-1.291,0.535-2.563,1.021-3.952,1.216c-2.001,0.28-4.008,0.276-6.011,0.174c-2.918-0.149-5.797-0.669-8.613-1.419
	c-3.088-0.822-5.32-2.796-6.58-5.736c-0.787-1.838-0.414-3.705,0.295-5.507c0.534-1.355,1.3-2.589,2.079-3.812
	C19.768,29.227,20.072,29.028,20.571,29.001z M33.354,44.748c0.531-0.064,1.022-0.271,1.453-0.604
	c0.627-0.486,1.244-0.985,1.856-1.491c0.269-0.222,0.636-0.438,0.296-0.867c-0.31-0.396-0.619-0.203-0.926,0.023
	c-0.639,0.473-1.296,0.922-1.914,1.419c-0.454,0.365-0.828,0.335-1.26-0.035c-0.588-0.503-1.208-0.969-1.822-1.439
	c-0.263-0.203-0.561-0.358-0.838-0.026c-0.274,0.328-0.09,0.593,0.168,0.818c0.716,0.627,1.44,1.249,2.159,1.874
	C32.759,44.622,33.032,44.723,33.354,44.748z"/>
<path fill-rule="evenodd" clip-rule="evenodd" d="M28.164,19.937c0.072,0.346-0.1,0.684-0.282,1.019
	c-0.505,0.923-0.502,1.889-0.265,2.883c0.132,0.552,0.531,0.729,0.99,0.588c2.303-0.71,4.672-0.661,7.021-0.537
	c1.488,0.078,3.011-0.106,4.478,0.406c0.736,0.257,1.334-0.404,1.179-1.232c-0.2-1.075-0.47-2.13-1.112-3.047
	c-0.114-0.163-0.196-0.344-0.182-0.556c0.031-0.412,0.332-0.602,0.642-0.349c1.904,1.562,4.131,2.788,5.413,5.012
	c0.526,0.911,0.992,1.859,1.437,2.813c0.306,0.659,0.181,0.828-0.563,0.729c-0.779-0.104-1.548-0.3-2.318-0.472
	c-1.793-0.401-3.624-0.557-5.435-0.844c-1.789-0.284-3.591-0.215-5.387-0.341c-1.197-0.084-2.352,0.256-3.526,0.396
	c-0.509,0.06-1.016,0.184-1.525,0.192c-2.187,0.034-4.308,0.513-6.442,0.91c-1.206,0.224-2.389,0.545-3.579,0.837
	c-0.598,0.147-0.794-0.035-0.594-0.634c0.67-2.005,1.651-3.855,3.021-5.468c1.289-1.518,2.828-2.763,4.516-3.817
	C27.305,17.39,28.148,18.241,28.164,19.937z"/>
<path fill-rule="evenodd" clip-rule="evenodd" fill="#F27002" d="M32.453,6.16c2.437,0.046,4.835,0.27,7.028,1.487
	c2.4,1.333,2.701,3.733,1.494,5.748c-0.604,1.007-1.643,1.181-2.69,1.257c-1.819,0.131-3.64,0.282-5.463,0.334
	c-2.706,0.076-5.34-0.319-7.82-1.482c-0.75-0.351-1.376-0.867-1.934-1.471c-0.526-0.571-0.59-1.244-0.208-1.916
	c0.594-1.045,1.533-1.712,2.553-2.263C27.606,6.668,29.952,6.088,32.453,6.16z M30.191,10.892c-0.005-0.907-0.878-1.86-1.69-1.841
	c-0.802,0.018-1.658,0.964-1.649,1.822c0.01,0.952,0.821,1.765,1.745,1.749C29.497,12.606,30.194,11.85,30.191,10.892z
	 M37.596,10.871c0.01-0.873-0.668-1.589-1.499-1.586c-0.833,0.003-1.72,0.899-1.719,1.737c0.001,0.867,0.72,1.607,1.564,1.608
	C36.819,12.63,37.585,11.817,37.596,10.871z"/>
<path fill-rule="evenodd" clip-rule="evenodd" fill="#F27002" d="M30.463,59.555c-0.647,0.388-1.287,0.791-1.944,1.16
	c-0.769,0.432-1.172,0.289-1.541-0.527c-0.409-0.907-0.573-1.871-0.469-2.849c0.146-1.377,0.237-2.764,0.572-4.117
	c0.192-0.778,0.494-1.507,0.891-2.198c0.104-0.182,0.359-0.403,0.13-0.564c-0.214-0.15-0.356,0.168-0.502,0.308
	c-0.402,0.385-0.787,0.787-1.182,1.18c-0.448,0.445-0.99,0.723-1.599,0.881c-0.543,0.142-0.993-0.069-1.344-0.444
	c-0.369-0.393-0.468-0.897-0.192-1.381c0.549-0.966,1.351-1.729,2.233-2.365c0.627-0.452,1.394-0.08,2.092-0.015
	c1.813,0.169,3.623,0.381,5.436,0.558c1.601,0.157,3.204,0.261,4.813,0.237c0.688-0.01,1.36-0.193,2.07-0.027
	c1.379,0.323,2.081,1.261,2.413,2.523c0.238,0.905-0.871,1.717-1.826,1.354c-0.775-0.294-1.383-0.844-1.947-1.437
	c-0.259-0.274-0.503-0.563-0.759-0.84c-0.096-0.104-0.22-0.205-0.36-0.096c-0.125,0.099-0.011,0.219,0.023,0.323
	c0.646,2.032,0.831,4.12,0.708,6.235c-0.047,0.846-0.116,1.704-0.452,2.506c-0.099,0.236-0.19,0.485-0.342,0.689
	c-0.652,0.881-1.244,1.056-1.873,0.041c-0.266-0.429-0.693-0.707-1.14-0.938c0.52-0.29,0.943-0.694,1.147-1.247
	c0.909-2.47,1.066-4.91-0.164-7.361c-1.132-2.254-3.721-1.996-4.937-0.394c-1.34,1.767-1.847,3.745-1.516,5.929
	C29.075,57.813,29.401,58.89,30.463,59.555z"/>
<path fill-rule="evenodd" clip-rule="evenodd" fill="#FBEEA5" d="M30.463,59.555c-1.062-0.665-1.388-1.742-1.56-2.877
	c-0.331-2.184,0.176-4.162,1.516-5.929c1.215-1.603,3.805-1.86,4.937,0.394c1.23,2.451,1.073,4.892,0.164,7.361
	c-0.204,0.553-0.628,0.957-1.147,1.247C33.085,59.387,31.779,59.363,30.463,59.555z"/>
<path fill-rule="evenodd" clip-rule="evenodd" fill="#9B5C43" d="M39.48,22.302c-0.94-0.313-1.795,0.005-2.652,0.43
	c-0.66,0.328-1.38,0.274-2.079,0.109c-0.3-0.071-0.605-0.108-0.885-0.041c-0.898,0.217-1.772,0.093-2.637-0.132
	c-0.735-0.191-1.474-0.272-2.232-0.249c-0.584,0.017-0.712-0.186-0.605-0.769c0.242-1.309,0.986-2.273,2.054-3.012
	c0.66-0.457,1.148-0.234,1.305,0.565c0.045,0.231,0.095,0.465,0.178,0.686c0.089,0.244,0.285,0.404,0.553,0.348
	c0.234-0.049,0.43-0.167,0.463-0.467c0.052-0.471,0.157-0.934,0.358-1.369c0.172-0.373,0.453-0.607,0.863-0.633
	c0.443-0.027,0.823,0.128,1.064,0.517c0.233,0.373,0.365,0.79,0.504,1.205c0.081,0.243,0.198,0.513,0.508,0.519
	c0.319,0.006,0.398-0.27,0.486-0.517c0.35-0.97,0.498-1.005,1.323-0.399c0.907,0.666,1.556,1.508,1.879,2.595
	C40.048,22.088,39.96,22.311,39.48,22.302z"/>
<path fill-rule="evenodd" clip-rule="evenodd" fill="#FEFEFE" d="M38.03,36.26c0.037-0.817,0.305-1.558,0.657-2.277
	c0.116-0.239,0.302-0.344,0.546-0.403c1.176-0.281,2.35-0.571,3.523-0.859c0.391-0.096,0.737-0.013,1.077,0.199
	c1.275,0.797,1.973,2.247,1.738,3.655c-0.247,1.492-1.455,2.722-2.984,3.037c-2.152,0.444-3.935-0.547-4.427-2.473
	C38.088,36.853,38.072,36.553,38.03,36.26z"/>
<path fill-rule="evenodd" clip-rule="evenodd" fill="#77219B" d="M27.303,5.798c-0.039,0.278-0.197,0.461-0.456,0.569
	c-0.494,0.204-0.99,0.406-1.479,0.62c-0.844,0.371-1.595,0.88-2.235,1.546c-0.169,0.176-0.365,0.3-0.593,0.387
	c-0.255,0.097-0.505,0.139-0.716-0.074c-0.212-0.213-0.083-0.436,0.006-0.66c0.822-2.069,1.282-4.234,1.664-6.417
	c0.09-0.514,0.429-0.686,0.812-0.344c1.273,1.143,2.233,2.514,2.908,4.084C27.252,5.601,27.272,5.698,27.303,5.798z"/>
<path fill-rule="evenodd" clip-rule="evenodd" fill="#FEFEFE" d="M28.3,35.892c-0.054,1.123-0.684,2.239-1.97,2.914
	c-1.293,0.676-2.574,0.655-3.819-0.198c-1.071-0.735-1.827-1.618-1.833-3.006c-0.004-0.982,1.107-2.804,2.015-3.188
	c0.33-0.14,0.661-0.12,0.987-0.004c1.176,0.423,2.349,0.842,3.561,1.159C27.981,33.763,28.303,34.461,28.3,35.892z"/>
<path fill-rule="evenodd" clip-rule="evenodd" fill="#F27002" d="M25.776,56.315c0.012,1.377-0.135,2.61,0.336,3.798
	c0.128,0.323-0.121,0.531-0.434,0.67c-1.067,0.472-2.193,0.539-3.323,0.438c-0.924-0.081-1.835-0.277-2.731-0.536
	c-0.639-0.186-1.212-0.486-1.742-0.879c-0.12-0.089-0.323-0.153-0.265-0.34c0.045-0.146,0.231-0.112,0.367-0.138
	c1.108-0.2,2.219-0.389,3.308-0.685C22.912,58.203,24.415,57.525,25.776,56.315z"/>
<path fill-rule="evenodd" clip-rule="evenodd" fill="#9B5C43" d="M38.832,32.697c-0.232-0.014-0.484,0.056-0.599-0.198
	c-0.119-0.268,0.049-0.456,0.235-0.617c0.805-0.705,1.807-1.062,2.748-1.519c0.87-0.422,1.785-0.752,2.682-1.123
	c0.378-0.157,0.771-0.274,1.105,0.057c0.389,0.387,0.652,0.85,0.588,1.431c-0.025,0.239-0.227,0.325-0.413,0.377
	c-2.015,0.564-4.01,1.196-6.071,1.577C39.01,32.701,38.91,32.693,38.832,32.697z"/>
<path fill-rule="evenodd" clip-rule="evenodd" fill="#9B5C43" d="M21.106,30.047c0.024-0.559,0.495-0.901,0.834-1.284
	c0.229-0.257,0.569,0.068,0.855,0.166c1.917,0.655,3.524,1.864,5.217,2.917c0.165,0.102,0.323,0.236,0.438,0.39
	c0.125,0.169,0.115,0.386-0.002,0.562c-0.126,0.19-0.302,0.11-0.479,0.052c-2.085-0.687-4.172-1.368-6.259-2.048
	C21.358,30.686,21.124,30.481,21.106,30.047z"/>
<path fill-rule="evenodd" clip-rule="evenodd" fill="#F27002" d="M17.518,12.277c1.158-1.148,2.43-1.952,3.918-2.404
	c0.553-0.168,0.648-0.087,0.547,0.453c-0.139,0.734-0.021,1.42,0.397,2.047c0.11,0.165,0.227,0.325,0.329,0.495
	c0.119,0.2,0.167,0.458,0.021,0.616c-0.161,0.175-0.315-0.078-0.445-0.16C20.845,12.418,19.236,12.302,17.518,12.277z"/>
<path fill-rule="evenodd" clip-rule="evenodd" fill="#FFFFFF" d="M14.946,16.517c0.371,1.762,1.258,2.771,2.962,2.948
	c-0.106,0.345-0.41,0.448-0.633,0.612c-0.593,0.436-1.25,0.761-1.936,1.021c-0.527,0.2-0.92,0.048-1.103-0.461
	C13.723,19.203,14.089,17.907,14.946,16.517z"/>
<path fill-rule="evenodd" clip-rule="evenodd" fill="#FFFFFF" d="M49.215,17.455c0.606,1.352,1.018,2.556,0.459,3.864
	c-0.292,0.682-0.5,0.772-1.194,0.5c-0.854-0.334-1.639-0.791-2.332-1.397c-0.083-0.073-0.227-0.128-0.173-0.271
	c0.019-0.052,0.123-0.097,0.191-0.102C47.729,19.929,48.723,19.096,49.215,17.455z"/>
<path fill-rule="evenodd" clip-rule="evenodd" fill="#5CA020" d="M15.774,10.539c0.04-0.418-0.074-1.033,0.074-1.643
	c0.094-0.385,0.216-0.53,0.595-0.263c0.615,0.433,1.242,0.85,1.877,1.253c0.353,0.223,0.289,0.409,0.02,0.641
	c-0.719,0.621-1.43,1.253-2.147,1.876c-0.086,0.074-0.209,0.182-0.293,0.166c-0.177-0.035-0.122-0.221-0.123-0.35
	C15.77,11.723,15.774,11.227,15.774,10.539z"/>
<path fill-rule="evenodd" clip-rule="evenodd" fill="#FFFFFF" d="M27.029,15.13c0.824,0.099,1.512,0.172,2.195,0.269
	c0.424,0.06,0.647,0.284,0.479,0.742c-0.291,0.799-0.583,1.598-0.876,2.396c-0.046,0.126-0.104,0.249-0.215,0.51
	C28.064,17.69,27.562,16.449,27.029,15.13z"/>
<path fill-rule="evenodd" clip-rule="evenodd" fill="#77219B" d="M11.802,16.976c-0.094-0.582,0.125-1.138,0.127-1.715
	c0.003-0.416,0.297-0.572,0.715-0.424c1.289,0.455,1.408,0.732,0.794,1.932c-0.28,0.547-0.579,1.085-0.87,1.626
	c-0.073,0.135-0.123,0.323-0.328,0.285c-0.181-0.033-0.231-0.214-0.277-0.359C11.825,17.884,11.741,17.437,11.802,16.976z"/>
<path fill-rule="evenodd" clip-rule="evenodd" fill="#FFFFFF" d="M32.417,19.265c-0.445-1.093-0.846-2.059-1.228-3.032
	c-0.155-0.394,0.007-0.611,0.433-0.616c0.497-0.005,0.994,0.011,1.488-0.013c0.45-0.021,0.522,0.217,0.404,0.56
	C33.176,17.152,32.818,18.134,32.417,19.265z"/>
<path fill-rule="evenodd" clip-rule="evenodd" fill="#FFFFFF" d="M36.29,15.376c1.193-0.01,1.218,0.024,0.813,1.144
	c-0.216,0.594-0.435,1.187-0.656,1.778C36.4,18.42,36.4,18.59,36.21,18.594c-0.173,0.003-0.23-0.125-0.284-0.257
	c-0.272-0.679-0.573-1.348-0.811-2.04c-0.227-0.659-0.02-0.9,0.698-0.919C35.973,15.374,36.132,15.377,36.29,15.376z"/>
<path fill-rule="evenodd" clip-rule="evenodd" fill="#F27002" d="M41.902,13.704c-0.01-0.715,0.419-1.312,0.539-1.994
	c0.031-0.173,0.198-0.279,0.422-0.217c1.085,0.304,2.164,0.626,3.133,1.301c-1.436,0.027-2.783,0.398-4.1,0.904L41.902,13.704z"/>
<path fill-rule="evenodd" clip-rule="evenodd" fill="#77219B" d="M22.003,58.035c-0.409,0.006-0.649-0.168-0.656-0.596
	c-0.007-0.514,0.015-1.026-0.112-1.534c-0.048-0.196-0.01-0.427,0.161-0.547c0.206-0.146,0.361,0.061,0.519,0.161
	c0.584,0.375,1.154,0.768,1.637,1.275c0.25,0.263,0.253,0.449-0.077,0.659C23.019,57.746,22.552,57.989,22.003,58.035z"/>
<path fill-rule="evenodd" clip-rule="evenodd" fill="#FFFFFF" d="M23.784,13.801c0.646,0.289,1.294,0.573,1.936,0.87
	c0.165,0.076,0.343,0.216,0.272,0.411c-0.265,0.729-0.375,1.532-0.996,2.215c-0.46-1.177-0.893-2.284-1.326-3.391
	C23.708,13.871,23.747,13.836,23.784,13.801z"/>
<path fill-rule="evenodd" clip-rule="evenodd" fill="#FFFFFF" d="M39.673,18.292c-0.376-0.871-0.711-1.582-0.99-2.315
	c-0.119-0.312-0.009-0.563,0.397-0.641c0.563-0.106,1.114-0.271,1.791-0.443C40.477,16.011,40.104,17.069,39.673,18.292z"/>
<path fill-rule="evenodd" clip-rule="evenodd" fill="#9B5C43" d="M16.621,32.666c0.384-0.969,0.131-2.034,0.924-2.803
	c0.162-0.158,0.342-0.255,0.552-0.331c0.253-0.091,0.488-0.104,0.633,0.139c0.151,0.251-0.142,0.328-0.252,0.464
	c-0.567,0.694-0.979,1.487-1.443,2.247C16.978,32.476,16.957,32.611,16.621,32.666z"/>
<path fill-rule="evenodd" clip-rule="evenodd" fill="#F9E2CE" d="M43.327,53.111c0.518-0.024,0.872,0.322,1.273,0.56
	c0.085,0.05,0.154,0.144,0.108,0.249c-0.04,0.092-0.123,0.159-0.234,0.144c-0.175-0.021-0.349-0.049-0.521-0.082
	c-0.369-0.071-0.731-0.063-0.952,0.286c-0.195,0.309-0.438,0.449-0.719,0.2c-0.267-0.238-0.216-0.588-0.035-0.868
	C42.494,53.219,42.888,53.1,43.327,53.111z"/>
<path fill-rule="evenodd" clip-rule="evenodd" fill="#F9E2CE" d="M23.221,53.094c-0.077,0.326-0.216,0.592-0.507,0.717
	c-0.291,0.125-0.352-0.139-0.467-0.317c-0.228-0.355-0.601-0.21-0.92-0.247c-0.143-0.018-0.357,0.081-0.403-0.125
	c-0.037-0.162,0.131-0.272,0.253-0.37c0.413-0.33,1.298-0.38,1.737-0.11C23.099,52.754,23.186,52.916,23.221,53.094z"/>
<path fill-rule="evenodd" clip-rule="evenodd" fill="#F9E2CE" d="M37.958,23.197c0.51-0.335,0.997-0.465,1.508-0.519
	c0.268-0.028,0.515,0.074,0.697,0.269c0.175,0.188,0.386,0.437,0.256,0.68c-0.128,0.241-0.426,0.107-0.646,0.052
	C39.2,23.536,38.631,23.377,37.958,23.197z"/>
<path fill-rule="evenodd" clip-rule="evenodd" fill="#F9E2CE" d="M30.63,23.131c-0.788,0.237-1.549,0.713-2.474,0.213
	C28.994,22.917,29.783,22.742,30.63,23.131z"/>
<path fill-rule="evenodd" clip-rule="evenodd" fill="#5CA020" d="M18.756,57.145c0.179,0.234,0.355,0.471,0.538,0.703
	c0.105,0.132,0.315,0.233,0.217,0.438c-0.098,0.204-0.297,0.298-0.533,0.304c-0.209,0.005-0.37-0.031-0.48-0.246
	c-0.195-0.383-0.016-0.716,0.072-1.065C18.632,57.234,18.694,57.189,18.756,57.145z"/>
<path fill-rule="evenodd" clip-rule="evenodd" fill="#F27002" d="M26.495,15.604c0.257,0.32,0.362,0.621,0.434,0.923
	c0.117,0.491-0.338,0.893-0.824,0.764c-0.23-0.061-0.206-0.189-0.139-0.355C26.132,16.521,26.296,16.104,26.495,15.604z"/>
<path fill-rule="evenodd" clip-rule="evenodd" fill="#F27002" d="M38.437,16.755c0.015,0.37-0.015,0.55-0.269,0.522
	c-0.304-0.034-0.557-0.196-0.541-0.516c0.014-0.272,0.249-0.626,0.466-0.577C38.35,16.242,38.429,16.626,38.437,16.755z"/>
<path fill-rule="evenodd" clip-rule="evenodd" fill="#F27002" d="M41.896,13.698c-0.008,0.016-0.016,0.031-0.022,0.046
	c0.009-0.013,0.019-0.027,0.028-0.041L41.896,13.698z"/>
<path fill-rule="evenodd" clip-rule="evenodd" fill="#020202" d="M33.354,44.748c-0.321-0.025-0.595-0.126-0.827-0.329
	c-0.719-0.625-1.443-1.247-2.159-1.874c-0.258-0.226-0.442-0.49-0.168-0.818c0.277-0.332,0.575-0.177,0.838,0.026
	c0.614,0.471,1.234,0.937,1.822,1.439c0.432,0.37,0.806,0.4,1.26,0.035c0.618-0.497,1.275-0.946,1.914-1.419
	c0.307-0.227,0.616-0.42,0.926-0.023c0.34,0.43-0.027,0.646-0.296,0.867c-0.612,0.506-1.229,1.005-1.856,1.491
	C34.376,44.477,33.885,44.684,33.354,44.748z"/>
<path fill-rule="evenodd" clip-rule="evenodd" d="M30.191,10.892c0.003,0.958-0.695,1.714-1.594,1.73
	c-0.924,0.016-1.735-0.797-1.745-1.749c-0.009-0.858,0.847-1.805,1.649-1.822C29.313,9.032,30.187,9.985,30.191,10.892z"/>
<path fill-rule="evenodd" clip-rule="evenodd" d="M37.596,10.871c-0.011,0.946-0.776,1.76-1.653,1.759
	c-0.845,0-1.563-0.741-1.564-1.608c-0.001-0.838,0.886-1.734,1.719-1.737C36.928,9.282,37.605,9.998,37.596,10.871z"/>
<path fill-rule="evenodd" clip-rule="evenodd" d="M42.989,38.687c-1.396,0.003-2.455-1.047-2.452-2.432
	c0.004-1.354,1.058-2.413,2.41-2.422c1.39-0.009,2.476,1.042,2.487,2.407C45.448,37.607,44.372,38.683,42.989,38.687z"/>
<path fill-rule="evenodd" clip-rule="evenodd" d="M25.718,38.329c-1.389-0.006-2.443-1.071-2.43-2.459
	c0.014-1.369,1.108-2.426,2.492-2.407c1.339,0.02,2.408,1.103,2.411,2.441C28.193,37.269,27.107,38.333,25.718,38.329z"/>
<path fill-rule="evenodd" clip-rule="evenodd" fill="#FFFFFF" d="M44.363,35.081c0.279,0.008,0.454,0.148,0.471,0.426
	c0.018,0.294-0.177,0.43-0.444,0.44c-0.254,0.01-0.422-0.144-0.44-0.388C43.929,35.288,44.081,35.116,44.363,35.081z"/>
<path fill-rule="evenodd" clip-rule="evenodd" fill="#FFFFFF" d="M27.72,35.113c0.015,0.23-0.133,0.366-0.389,0.377
	c-0.241,0.011-0.43-0.075-0.445-0.36c-0.017-0.294,0.133-0.458,0.416-0.459C27.546,34.67,27.715,34.795,27.72,35.113z"/>
<ellipse fill-rule="evenodd" clip-rule="evenodd" fill="#F9A685" cx="24.107" cy="41.925" rx="1.633" ry="1.216"/>
<ellipse fill-rule="evenodd" clip-rule="evenodd" fill="#F9A685" cx="43.25" cy="42.559" rx="1.583" ry="1.024"/>
<rect y="0.102" fill="none" width="64" height="64"/>
</svg>
