<?xml version="1.0" encoding="utf-8"?>
<!-- Generator: Adobe Illustrator 16.0.0, SVG Export Plug-In . SVG Version: 6.00 Build 0)  -->
<!DOCTYPE svg PUBLIC "-//W3C//DTD SVG 1.1//EN" "http://www.w3.org/Graphics/SVG/1.1/DTD/svg11.dtd">
<svg version="1.1" id="Layer_1" xmlns="http://www.w3.org/2000/svg" xmlns:xlink="http://www.w3.org/1999/xlink" x="0px" y="0px"
	 width="64.424px" height="64.025px" viewBox="0 0.85 64.424 64.025" enable-background="new 0 0.85 64.424 64.025"
	 xml:space="preserve">
<circle fill="#DDCBA1" cx="32.411" cy="32.862" r="32.013"/>
<path fill="#CBBD96" d="M6.646,52.171c0.191-0.962-0.631-1.427-1.03-2.101c-0.491-0.588-1.04-1.153-0.811-2.029
	c0.166-0.208,0.377-0.339,0.641-0.382c1.282-0.007,1.478,1.278,2.243,1.888c0.988,1.729,2.604,2.958,3.681,4.62
	c0.049,0.259,0.035,0.515-0.029,0.769c-0.108,0.24-0.271,0.437-0.487,0.59c-1.815-0.418-2.972-1.744-4.161-3.025
	C6.742,52.381,6.726,52.271,6.646,52.171z"/>
<path fill="#DDCBA1" d="M3.001,21.026c0.961-1.343,1.251-3.072,2.452-4.278c0.569-0.713,1.332-1.29,1.575-2.232L6.979,14.55
	c1.024-0.807,2.068-1.252,3.198-0.178c0.291,0.368,0.422,0.785,0.38,1.252c0.219,1.865-1.092,2.876-2.218,3.992
	c-2.035,0.439-2.79,1.981-2.977,3.792c-0.165,1.597-0.721,3-1.451,4.379c-2.003,0.786-0.966,2.734-1.548,4.067
	c-0.119,1.235,0.512,2.675-0.98,3.526c-1.699-0.517-0.773-1.897-0.81-2.832C0.414,28.523,1.501,24.722,3.001,21.026z"/>
<path fill="#DAC9A1" d="M9.773,14.656c-0.931-0.035-1.862-0.07-2.793-0.104c1.459-3.043,4.325-4.799,6.541-7.15
	c0.315-0.078,0.629-0.154,0.944-0.232c0.098,0.077,0.197,0.153,0.295,0.229c0.648,1.957,0.197,3.434-1.791,4.323
	C11.591,12.336,11.553,14.451,9.773,14.656z"/>
<path fill="#DAC9A1" d="M7.028,14.516c-0.02,1.101-0.646,1.773-1.575,2.232C5.724,15.824,6.229,15.066,7.028,14.516z"/>
<path fill="#DFC392" d="M10.869,54.766c-0.013-0.16-0.025-0.32-0.038-0.48c-0.215-0.576-0.673-1.072-0.577-1.75
	c0.045-0.166,0.076-0.35,0.178-0.479c1.521-1.969,3.155-3.888,1.86-6.662c-0.127-0.271,0.255-0.603,0.529-0.824
	c0.525-0.258,1.004-0.123,1.465,0.168c1.642,1.875,3.553,3.41,5.78,4.548c-0.313,2.063-0.164,4.134-0.071,6.206
	c-1.424,0.787-2.37-0.631-3.597-0.787c-1.339-0.17-2.689-1.318-3.953,0.318C12.09,55.48,11.323,55.336,10.869,54.766z"/>
<path fill="#E0CDA6" d="M7.136,50.066c-0.801-0.506-1.194-1.314-1.588-2.125c-0.002-0.123-0.004-0.248-0.006-0.371
	c-0.054-2.432,2.063-3.918,2.646-6.077c1.648-2.706,3.309-3.515,5.807-2.826c0.805,1.534-0.587,1.894-1.374,2.576
	c-2.098,1.786-3.222,4.091-3.29,6.812c-0.03,1.197-0.104,2.09-1.5,2.252C7.571,50.311,7.341,50.227,7.136,50.066z"/>
<path fill="#D6BB88" d="M10.869,54.766c3.222-3.527,6.034-0.717,8.943,0.58c1.242,0.291,1.598,1.057,1.191,2.229
	c-0.581,0.538-1.262,0.581-1.986,0.403c-0.67-0.106-1.218-0.465-1.74-0.869c-0.195-0.146-0.392-0.295-0.588-0.438
	c-1.426-1.263-2.551,0.655-3.885,0.374c-0.309-0.165-0.618-0.33-0.927-0.495c-0.169-0.052-0.339-0.104-0.509-0.155
	c-0.182-0.354-0.363-0.709-0.544-1.063C10.839,55.143,10.854,54.954,10.869,54.766z"/>
<path fill="#DDC699" d="M7.136,50.066c0.176-0.004,0.351-0.008,0.526-0.01c1.311-0.377,1.936,0.516,2.572,1.389
	c0.271,0.385,0.482,0.798,0.598,1.256c0,0.527-0.001,1.056-0.001,1.583C9.274,53.163,7.945,51.844,7.136,50.066z"/>
<path fill="#E0CDA6" d="M4.991,47.956c-0.309-0.384-0.618-0.767-0.926-1.147c-0.041-0.322-0.083-0.645-0.124-0.967
	c0.19-0.176,0.413-0.273,0.673-0.285c0.393,0.059,0.701,0.258,0.945,0.564c0.342,0.602,0.219,1.199-0.004,1.799l-0.007,0.021
	C5.362,47.947,5.177,47.951,4.991,47.956z"/>
<path fill="#C1A060" d="M41.969,62.617c-1.4,0.371-2.801,0.742-4.201,1.113c-3.521,0.045-7.044,0.092-10.566,0.138
	c-0.195-0.138-0.391-0.274-0.586-0.411c-0.174-0.268-0.196-0.546-0.067-0.837c0.636-0.806,1.55-0.615,2.396-0.669
	c4.664,0.313,9.281,0.16,13.748-1.455c0.492-0.18,1.027-0.113,1.521,0.111c0.234,0.148,0.395,0.354,0.482,0.617
	C43.787,61.689,42.878,62.152,41.969,62.617z"/>
<path fill="#BB9F66" d="M26.686,62.741c-0.024,0.237-0.048,0.478-0.072,0.715c-2.267-0.563-4.532-1.128-6.799-1.692
	c-1.517-1.223-3.488-1.755-4.867-3.191c0.414-0.734,1.13-0.949,1.774-0.59C19.946,59.777,23.767,60.32,26.686,62.741z"/>
<path fill="#CDAC6F" d="M26.686,62.741c-3.135-0.774-6.125-1.962-9.063-3.272c-0.872-0.389-1.644-1.004-2.674-0.896
	c-0.613-0.221-1.184-0.502-1.552-1.075c0.697-1.015,1.795-0.753,2.774-0.871c2.886,1.655,6.184,2.19,9.238,3.396
	c1.249,0.92,3.236,0.293,4.12,1.973c0.053,0.281-0.018,0.527-0.21,0.74C28.442,62.736,27.563,62.738,26.686,62.741z"/>
<path fill="#D4B47A" d="M16.11,57.45c-0.904,0.016-1.809,0.03-2.713,0.046c-0.198-0.15-0.396-0.301-0.594-0.452
	c1.245-1.185,2.12-3.741,4.373-1.177C17.144,56.611,16.88,57.202,16.11,57.45z"/>
<path fill="#DAC9A1" d="M14.465,7.168c1.097-1.337,2.743-1.793,4.173-2.595c0.938-0.183,1.753-0.892,2.791-0.646
	c1.02,1.36-0.128,2.045-0.931,2.751c-0.5,0.44-1.318,0.417-1.778,0.996c-1.404,0.203-2.922,1.961-4.144-0.307L14.465,7.168z"/>
<path fill="#DAC596" d="M21.408,4.09c-0.923,0.161-1.847,0.323-2.77,0.483c1.833-1.278,4.097-1.538,6.042-2.55
	c0.653-0.031,1.306-0.062,1.959-0.092c0.665-0.371,1.364-0.215,2.059-0.138c0.61,1.887-1.14,1.792-2.028,2.417
	C24.923,3.946,23.129,5.575,21.408,4.09z"/>
<path fill="#C8AC75" d="M28.765,2.019C28.056,1.99,27.348,1.96,26.64,1.932c3.656-1.464,7.415-0.517,11.133-0.471
	c1.555,0.721,3.385,0.565,4.86,1.529c-0.477,0.84-1.396,0.788-2.147,1.073c-2.041,0.311-4.077,0.484-6.057-0.311
	c-0.188-0.166-0.396-0.347-0.457-0.596c-0.129-0.507,0.111-0.841,0.611-0.895c0.092-0.01,0.104,0.135-0.111,0.003
	c-0.106-0.066-0.324,0.058-0.48,0.128c-1.4,0.625-2.859,0.344-4.308,0.289C29.291,2.579,29.003,2.333,28.765,2.019z"/>
<path fill="#E2C89A" d="M7.659,18.884c0.705-1.057,1.41-2.114,2.115-3.171c1.592-1.617,3.192-3.222,4.924-4.696
	c0.764-0.65,1.45-1.297,2.548-0.862c1.388,0.954-0.061,2.423,0.638,3.505c0.358,1.971-1.864,2.223-2.396,3.6
	c-1.527,1.061-3.026,2.137-2.335,4.383c-0.121,2.021,0.426,4.15-0.966,5.964c-0.23,0.113-0.478,0.163-0.734,0.166
	c-0.787-0.129-1.264-0.654-1.359-1.386c-0.196-1.502-1.208-1.474-2.303-1.353c-0.939,0.084-0.945,1.314-1.812,1.487
	c-0.269,0-0.504-0.083-0.713-0.251C4.199,23.203,5.045,20.757,7.659,18.884z"/>
<path fill="#DFD0AC" d="M4.49,45.832c-0.183,0.003-0.366,0.006-0.549,0.01c-1.089-1.224-1.137-2.938-2.003-4.266
	c0.004-2.079-1.027-4.039-0.704-6.154c0.058-1.449,0.116-2.9,0.174-4.35c0.767-0.796,1.642-0.664,2.545-0.298
	c0.247,0.094,0.464,0.234,0.658,0.412c0.575,1.062,1.811,1.403,2.534,2.309c0.122,0.247,0.198,0.504,0.235,0.776
	c0.067,1.045-0.552,1.791-1.107,2.566c-2.213,0.943-1.764,2.984-1.248,4.408C5.676,43.039,5.229,44.373,4.49,45.832z"/>
<path fill="#E3CDA1" d="M17.17,10.428c-1.482,1.439-3.053,2.8-4.415,4.346c-0.881,1-1.759,1.347-2.981,0.939
	c0-0.353,0-0.705-0.001-1.058c0.389-2.003,1.109-3.74,3.255-4.503c1.278-0.455,0.757-2.006,1.546-2.787
	c1.239,0.646,2.418-0.659,3.653-0.109C19.591,8.886,18.33,9.64,17.17,10.428z"/>
<path fill="#E2CB9F" d="M7.659,18.884c-1.493,2.241-3.021,4.471-2.112,7.397c0.844,0.97,0.997,2.061,0.262,3.101
	c-0.581,0.824-1.463,0.828-2.334,0.364c-0.757-0.789-0.685-1.594-0.043-2.409c0.872-2.295,0.375-4.928,1.975-7.096
	C6.062,19.352,6.616,18.865,7.659,18.884z"/>
<path fill="#DDCCA6" d="M3.431,27.338c0,0.705,0.001,1.409,0.001,2.114c0.571,0.606,1.147,1.211,0.524,2.113
	c-0.85-0.165-1.7-0.329-2.548-0.493c0.15-0.861,0.375-1.718,0.432-2.585C1.912,27.384,2.501,27.166,3.431,27.338z"/>
<path fill="#CBAE76" d="M40.404,3.043c0.742-0.018,1.486-0.035,2.229-0.053c1.828,0.369,3.555,0.974,5.021,2.172
	c-0.213,0.54-0.493,1.017-1.104,1.188c-1.146,0.146-2.181-0.562-3.324-0.446C42.1,5.134,39.686,5.633,40.404,3.043z"/>
<path fill="#D3BA88" d="M46.744,5.679c0.304-0.172,0.607-0.344,0.913-0.516c0.913,0.527,1.825,1.056,2.739,1.583
	c0.041,1.061,0.029,2.095-1.293,2.437c-0.892,0.146-1.752,0.916-2.691,0.133C45.619,8.02,45.412,6.778,46.744,5.679z"/>
<path fill="#D8C293" d="M48.885,8.328c0.717-0.325,0.149-1.875,1.512-1.582c0.179,0.003,0.355,0.007,0.535,0.011
	c0.256,0.312,0.512,0.623,0.768,0.935c-0.014,0.637,0.445,1.163,0.431,1.806c-0.039,0.266-0.13,0.509-0.276,0.734
	c-0.398,0.387-0.858,0.657-1.414,0.75c-0.281,0.006-0.547-0.059-0.797-0.188C48.975,10.1,48.248,9.422,48.885,8.328z"/>
<path fill="#DBCAA2" d="M51.514,9.374c-0.563-0.629-0.947-1.239,0.186-1.682c0.255,0.074,0.511,0.149,0.766,0.223
	c1.946,2.27,4.717,3.816,5.914,6.742c-0.292,1.058,0.379,1.819,0.816,2.652c0.603,1.144,0.675,2.168-0.648,2.88
	c-2.326,0.122-1.85-2.389-3.097-3.286c-0.112-0.237-0.171-0.493-0.188-0.753c-0.14-1.728-1.309-2.826-2.436-3.948
	c-0.159-0.177-0.295-0.372-0.401-0.586C52.143,10.86,52.195,9.967,51.514,9.374z"/>
<path fill="#DCCDA9" d="M58.385,19.937c1.012-1.762-1.26-3.519-0.007-5.28c0.858,1.112,1.718,2.225,2.575,3.337
	c0.652,2.03,1.777,3.933,1.652,6.17c-0.666,0.569-1.316,0.389-1.676-0.27c-0.468-0.854-1.293-0.978-2.039-1.306
	C58.041,21.834,57.544,21.012,58.385,19.937z"/>
<path fill="#E0C593" d="M20.873,57.441c-0.354-0.698-0.707-1.397-1.061-2.098c-1.301-1.938-2.515-3.875,0.001-5.813
	c0.423-0.588,1.094-0.614,1.714-0.758c0.637-0.039,1.273-0.049,1.909,0.022c0.832,0.294,1.666,0.581,2.502,0.864
	c0.362,0.124,0.743,0.201,1.064,0.43c0.365,1.297,1.921,1.223,2.551,2.217c0.894,1.432,2.494,2.467,2.157,4.555
	c-0.321,1.994-1.296,2.813-3.571,2.619c-1.224-0.896-0.645-2.156-0.667-3.295c-0.554-2.063-2.579-2.734-3.945-2.385
	c-2.062,0.529-0.621,1.887,0.144,2.842c1.083,1.297,3.293,0.707,4.104,2.459c0.231,0.85-0.338,1.197-0.949,1.52
	c-0.544,0.109-1.07-0.003-1.593-0.133C23.535,59.824,21.677,59.389,20.873,57.441z"/>
<path fill="#E0C697" d="M10.833,52.701c-0.353-0.176-0.706-0.35-1.059-0.523c-0.139-0.133-0.206-0.277-0.2-0.439
	c0.006-0.166,0.027-0.25,0.063-0.252c1.536-2.83,1.061-6.008,1.557-9.021c0.181-0.501,0.135-1.088,0.572-1.489
	c0.381-0.213,0.774-0.289,1.193-0.121c1.132,1.312,0.076,2.613-0.015,3.92c0.047,0.34,0.047,0.695,0.15,1.017
	c0.696,2.166,2.306,4.507-1.313,5.72C11.376,51.646,11.145,52.292,10.833,52.701z"/>
<path fill="#E1C18C" d="M21.401,49.534c-0.53,0.423-1.059,0.235-1.588-0.001c-2.976,0.02-4.524-1.928-5.814-4.229
	c-0.291-0.332-0.347-0.695-0.147-1.095c0.992-0.795,1.721,0.149,2.558,0.386c1.952,1.021,3.465,2.647,5.289,3.85
	C21.793,48.861,21.692,49.225,21.401,49.534z"/>
<path fill="#DDC08D" d="M14.001,44.248c0,0.354-0.001,0.705-0.002,1.059c-0.352-0.178-0.703-0.354-1.055-0.531
	c-0.718-1.23-0.326-2.461,0.008-3.689c0.137-0.617,0.646-0.846,1.139-1.092c1.016-0.374,1.999-1.156,3.114-0.241
	c0.473,0.698,0.201,1.271-0.302,1.804C15.664,42.156,15.175,43.572,14.001,44.248z"/>
<path fill="#E3D3B0" d="M4.49,45.832c-0.942-2.771-0.465-5.6-0.284-8.406c0.042-0.656,0.73-0.926,1.337-1.107
	c0.649,0.222,0.909,0.752,1.08,1.354c0.213,0.755,0.709,1.067,1.326,0.524c2.493-2.188,5.6-1.02,8.382-1.608
	c0.643,0.026,1.309-0.05,1.844,0.435c0.618,2.287-1.617,1.521-2.432,2.274c-0.241,0.106-0.492,0.179-0.753,0.212
	c-0.414-0.029-0.742-0.215-0.991-0.545c-2.394,0.002-4.028,1.27-5.283,3.172c-1.099,1.525-1.763,3.432-3.701,4.223
	C4.84,46.184,4.665,46.007,4.49,45.832z"/>
<path fill="#E1CCA2" d="M11.892,41.083c-0.002,0.526-0.005,1.052-0.007,1.576c-1.21,2.558-0.961,5.415-1.657,8.079
	c-0.091,0.346-0.227,0.639-0.448,0.906c-0.002,0.176-0.004,0.354-0.006,0.531c-0.704-0.705-1.407-1.412-2.111-2.119
	c1.024-2.226,0.707-4.854,2.133-6.973c0.62-0.92,0.956-2.049,2.091-2.537c0.136,0.117,0.183,0.234,0.139,0.355
	C11.981,41.023,11.937,41.083,11.892,41.083z"/>
<path fill="#DFD0AC" d="M5.016,46.357c1.348-1.307,1.971-3.25,3.701-4.223c-0.367,2.305-2.07,3.877-3.161,5.785
	C5.375,47.398,5.196,46.879,5.016,46.357z"/>
<path fill="#E3CB9E" d="M11.892,41.083c-0.002-0.179-0.004-0.356-0.006-0.535c0.673-0.569,1.646-0.737,2.113-1.583
	c0.353-0.001,0.706-0.002,1.058-0.003c0.789,1.29-0.559,1.151-1.057,1.582c-0.35,0.181-0.699,0.36-1.047,0.541
	C12.599,41.084,12.246,41.084,11.892,41.083z"/>
<path fill="#D7B376" d="M20.873,57.441c1.411,0.885,2.822,1.769,4.233,2.652c0.064,0.09,0.129,0.182,0.193,0.272
	c-0.069,0.089-0.137,0.178-0.206,0.266c-3.028-0.966-6.488-0.711-8.984-3.182c-0.28-0.394-0.864-0.728-0.532-1.292
	c0.374-0.635,1.013-0.463,1.599-0.292c0.175,0.002,0.351,0.005,0.527,0.007c0.477,0.426,1.174,0.521,1.583,1.05
	C19.814,57.098,20.343,57.27,20.873,57.441z"/>
<path fill="#D4B47A" d="M19.286,56.924c-0.688-0.109-1.216-0.457-1.583-1.05C18.439,55.909,19.029,56.165,19.286,56.924z"/>
<path fill="#D4BD8C" d="M64.191,34.742c-0.026,0.854-0.055,1.707-0.08,2.561l0.039,0.014c-0.584,0.809,0.242,1.92-0.576,2.678
	c-0.479,1.247-0.961,2.494-1.44,3.742c-0.62,0.83-0.536,2.137-1.739,2.578c-0.436,0.08-0.832-0.008-1.189-0.271
	c-0.307-0.318-0.441-0.707-0.449-1.143c0.622-2.184,0.992-4.463,2.398-6.348c0.48-0.703,0.953-1.414,1.154-2.266
	c0.131-0.771,0.342-1.488,1.197-1.766C63.768,34.492,63.997,34.561,64.191,34.742z"/>
<path fill="#C3AA76" d="M60.537,45.859c0.531-0.707,1.064-1.416,1.597-2.123c-1.745,5.639-5.247,9.957-10.014,13.328
	c-0.091-0.086-0.183-0.174-0.272-0.26c-0.138-0.375-0.086-0.732,0.094-1.078c0.317-0.521,0.748-0.953,1.127-1.426
	c0.599-0.568,1.152-1.181,1.732-1.768C57.047,50.598,58.203,47.723,60.537,45.859z"/>
<path fill="#C4A569" d="M50.923,58.342c-0.302,0.094-0.604,0.186-0.903,0.278c-0.084-0.115-0.166-0.229-0.248-0.345
	c0.197-1.344,0.729-2.166,2.252-1.439l0.098,0.229C51.721,57.49,51.322,57.916,50.923,58.342z"/>
<path fill="#C4A569" d="M50.02,58.62c-1.043,1.222-2.65,1.563-3.883,2.489c-0.48,0.039-0.961,0.076-1.441,0.115l-0.1-0.156
	c-0.162-0.201-0.266-0.43-0.298-0.688c0.029-0.259,0.124-0.49,0.281-0.695c0.795-0.471,1.612-0.867,2.354-1.463
	c0.914-0.736,2.027-0.822,2.938,0.207L50.02,58.62z"/>
<path fill="#CCA561" d="M44.627,60.602c-0.006,0.156-0.016,0.313-0.031,0.467c-1.715,0.377-3.511,0.541-5.125,1.17
	c-3.367,1.314-6.753,0.715-10.151,0.496c0.002-0.176,0.003-0.35,0.004-0.523c0.395-0.848,1.238-1.031,1.993-1.35
	c3.626-0.643,7.328-0.766,10.943-1.514C43.322,59.128,44.061,59.762,44.627,60.602z"/>
<path fill="#D7B376" d="M31.44,61.676c-0.706,0.178-1.412,0.355-2.117,0.534c-1.342-0.708-3.087-0.334-4.229-1.577l0.013-0.015
	c2.588-0.438,5.125-1.413,7.823-0.759C33.406,61.264,31.881,61.023,31.44,61.676z"/>
<path fill="#E1C796" d="M17.17,10.428c0.228-1.099,1.113-1.979,1.057-3.171c0.888-1.229,2.754-1.475,3.18-3.167
	c1.648,0.405,2.961-2.153,4.746-0.537c-0.668,1.416-1.922,2.173-3.228,2.872C21.81,6.638,21.6,7.774,20.907,8.417
	c-1.288,0.67-1.647,1.865-1.827,3.18c-0.11,0.807,0.15,1.763-0.817,2.269c-0.413,0.113-0.777,0.029-1.091-0.265
	C15.523,12.544,17.606,11.486,17.17,10.428z"/>
<path fill="#DBB77B" d="M22.459,5.687c1.232-0.711,2.463-1.422,3.694-2.134c0.871-0.511,1.741-1.023,2.611-1.534
	c0.364-0.002,0.729-0.005,1.092-0.008c0.281,0.277,0.415,0.608,0.37,1.004c-0.074,0.234-0.196,0.441-0.37,0.617
	c-1.576,1.049-3.496,1.771-3.842,3.991c1.326,1.138,3.062,1.375,4.604,1.642c1.79,0.31,3.217,0.521,3.56,2.61
	c0.112,0.702,0.823,0.818,1.375,1.054c0.618,0.356,1.023,0.834,0.936,1.601c-2.321,1.809-4.933,1.719-6.583-0.406
	c-0.71-0.914-1.302-1.245-2.413-0.847c-2.986,1.068-3.675,0.765-5.79-2.309C21.4,9.124,21.044,7.277,22.459,5.687z"/>
<path fill="#D8AF6C" d="M40.404,3.043c0.509,1.539,2.686,0.548,3.186,2.101c2.487,1.2,2.735,3.643,3.284,5.918
	c-0.959,0.548-1.817,0.132-2.679-0.271c-0.737-1.021-1.235-2.489-3.004-1.438c-1.504,0.895-1.657,2.121-1.027,3.6
	c0.408,0.958,0.908,1.904,0.415,2.99c-2.524,1.346-3.267-0.944-4.476-2.228c-1.192-1.267-0.598-2.333,0.424-3.388
	c0.48-0.498,1.007-0.98,1.402-1.542c0.672-0.956-0.123-1.169-0.826-1.375c-0.347-0.117-0.693-0.211-1.064-0.17
	c-1.277-0.067-1.525,1.283-2.43,1.76c-2.889,1.523-5.269,0.104-5.896-3.571c0.078-1.366,1.421-1.6,2.138-2.394l0.007-0.005
	c1.407-0.764,2.814-0.793,4.223-0.002C36.188,3.034,38.296,3.038,40.404,3.043z"/>
<path fill="#DCBB84" d="M11.891,21.523c-0.046-2.319,0.645-4.147,3.165-4.757c0.571-0.152,1.048-0.001,1.436,0.443
	c0.22,0.342,0.297,0.716,0.234,1.117c-0.697,1.032-1.86,1.999-0.473,3.336c0.231,0.894-0.274,1.564-0.679,2.267
	c-1.046,0.973-1.93,0.842-2.651-0.389C12.645,22.835,12.375,22.125,11.891,21.523z"/>
<path fill="#E3CFA7" d="M11.357,27.338c0.177-0.001,0.354-0.001,0.531-0.002c1.275-0.479,2.284,0.232,3.338,0.747
	c0.164,0.226,0.252,0.478,0.268,0.755c-0.019,0.279-0.113,0.529-0.281,0.752c-0.737,0.6-1.564,0.136-2.347,0.2
	c-1.144-0.075-2.224,0.277-3.31,0.533c-1.129,0.266-2.061,0.201-2.572-1.02C6.829,28.31,6.819,27.319,7,26.328
	c1.809-2.012,2.261-2.012,3.521,0.065C10.75,26.77,10.981,27.109,11.357,27.338z"/>
<path fill="#DEC391" d="M15.081,28.385c-1.217,0.115-2.24-0.362-3.193-1.049c0.051-1.938,0.626-3.875,0.003-5.813
	c0.591,0.37,0.939,0.903,1.061,1.587c0.349,0.93,1.286,1.331,1.858,2.061c0.329,0.518,0.84,0.884,1.168,1.404
	c0.094,0.243,0.126,0.494,0.11,0.753C15.957,27.875,15.646,28.251,15.081,28.385z"/>
<path fill="#E8CA98" d="M16.1,17.309c-0.348-0.181-0.695-0.362-1.044-0.543c-0.577-1.913,2.021-1.703,2.117-3.166
	c0.351,0,0.703,0,1.054,0c0.901,0.227,1.333,0.878,1.558,1.72c-0.052,0.945-0.724,1.458-1.384,1.977
	C17.635,17.728,16.871,18.028,16.1,17.309z"/>
<path fill="#DEC9A0" d="M3.957,31.565c-0.174-0.704-0.349-1.409-0.524-2.113c2.391,0.067,2.088-1.661,2.114-3.17
	c0.171,0.001,0.342,0.001,0.513,0.002c1.255,0.807,0.725,2.351,1.407,3.397c0.223,0.428,0.235,0.866,0.076,1.316
	c-0.953,1.715-2.207,1.524-3.583,0.571L3.957,31.565z"/>
<path fill="#E4CDA0" d="M11.357,27.338c-1.263-0.242-1.886-2.732-3.696-1.054c-0.558-0.144-0.833-0.527-0.912-1.077
	c0.054-0.563,0.324-0.939,0.909-1.04C10.912,22.867,10.754,25.546,11.357,27.338z"/>
<path fill="#D3BC91" d="M7.659,24.167c-0.168,0.356-0.335,0.712-0.502,1.068c0.493,1.26,0.153,2.563,0.205,3.846
	c-0.079,0.121-0.157,0.243-0.236,0.364c-0.887-0.875-1.054-1.992-1.065-3.161c0.075-1.292,0.194-2.573,0.921-3.734
	C7.734,22.921,7.312,23.7,7.659,24.167z"/>
<path fill="#E4D7B6" d="M16.115,37.377c-3.059,0.477-6.409,0.1-8.587,3.098c-0.462,0.635-1.244,0.594-1.918,0.176
	c-0.809-0.5-0.898-1.162-0.561-2.041c0.276-0.721,0.338-1.524,0.495-2.291c0.354-0.703,0.708-1.405,1.062-2.109
	c2.086-1.613,3.43-4.211,6.313-4.774c0.887-0.258,1.479,0.042,1.762,0.928c0.104,0.737-0.01,1.438-0.746,1.761
	c-0.857,0.377-2.022,0.504-1.679,1.821c0.275,1.059,1.12,1.707,2.2,1.986c0.251,0.064,0.507,0.107,0.765,0.146
	c0.405,0.059,0.732,0.25,0.982,0.572C16.342,36.914,16.312,37.156,16.115,37.377z"/>
<path fill="#E3D5B2" d="M12.942,29.979c-2.243,1.213-3.753,3.525-6.337,4.229c-0.001-0.177-0.004-0.354-0.005-0.53
	c-0.437-0.508-0.343-1.002,0.035-1.49c1.917-1.35,3.468-3.495,6.285-2.886C13.163,29.52,13.17,29.745,12.942,29.979z"/>
<path fill="#DDCCA6" d="M7.132,32.623c-0.177,0.352-0.354,0.702-0.532,1.055c-0.606-1.047-3.485,0.756-2.639-2.109
	c1.195,0.059,2.321-0.089,3.171-1.061C7.825,31.213,7.579,31.917,7.132,32.623z"/>
<path fill="#DECBA3" d="M59.447,22.051c1.779-0.383,1.992,1.579,3.158,2.113c0.875,0.868,0.473,2.205,1.152,3.145
	c-0.105,0.426-0.369,0.696-0.797,0.805c-1.764-0.469-2.742-1.95-3.852-3.18C58.307,24.043,58.25,22.886,59.447,22.051z"/>
<path fill="#D9B475" d="M46.764,10.956c-1.058-1.937-2.115-3.874-3.174-5.812c1.053,0.178,2.104,0.357,3.154,0.535
	c0.1,1.236-0.215,2.532,0.54,3.671c1.848-0.452,1.834,1.854,3.183,2.145c0.188,0.217,0.344,0.453,0.477,0.707
	c0.316,2.056,1.563,4.064,0.318,6.2c-0.779,0.442-1.35,0.119-1.834-0.501c-0.132-0.231-0.219-0.482-0.262-0.745
	c-0.116-1.002-0.493-1.919-0.965-2.803C48.514,12.886,46.41,12.44,46.764,10.956z"/>
<path fill="#E2C28B" d="M49.932,12.014c-1.134-0.639-1.813-1.729-2.646-2.665c0.061-1.082,0.548-1.494,1.602-1.022
	c0.35,0.698,0.699,1.395,1.051,2.093C50.259,10.953,50.549,11.484,49.932,12.014z"/>
<path fill="#E5C794" d="M49.932,12.014c0.002-0.531,0.002-1.062,0.004-1.593c0.174,0.001,0.351,0.002,0.523,0.003
	c1.363-0.282,1.803,0.702,2.186,1.667c0.346,0.871,0.694,1.746,0.942,2.656c-0.034,0.84-0.433,1.325-1.312,1.331
	c-1.692-0.825-1.816-2.559-2.351-4.057L49.932,12.014z"/>
<path fill="#E0C596" d="M53.104,14.657c-1.699-0.901-0.832-3.403-2.645-4.233c0.352-0.175,0.704-0.35,1.057-0.525
	c1.355-0.3,0.826,1.29,1.588,1.585v0.001c0.506,0.921,1.152,1.825,0.367,2.909C53.35,14.482,53.225,14.569,53.104,14.657z"/>
<path fill="#DEC79B" d="M53.104,11.484c-0.842-0.216-1.098-1.019-1.588-1.585c0-0.175-0.002-0.351-0.002-0.525
	C52.671,9.604,53.072,10.404,53.104,11.484z"/>
<path fill="#DFC89B" d="M63.141,27.867c1.012,2.229,0.325,4.586,0.521,6.876c-0.169,0.528-0.34,1.058-0.51,1.585
	c-0.192,0.176-0.42,0.253-0.682,0.234c-1.807-0.633-1.132-2.656-2.113-3.756c-0.584-0.95,0.896-3.322-1.901-2.734
	c-2.517-0.084-2.749-2.229-3.517-3.896c-0.239-1.772,0.816-3.551-0.037-5.321c-0.346-1.777-0.381-3.464,1.371-4.616
	c1.371,0.851,0.922,2.742,2.11,3.696c0.354,0.705,0.708,1.409,1.063,2.114c-0.125,1.445,0.652,2.469,1.707,3.241
	C62.093,25.977,62.654,26.874,63.141,27.867z"/>
<path fill="#E0C596" d="M56.273,16.241c0.109,1.586-0.572,3.171-0.002,4.757c-1.578,1.812-1.469,4.688-3.803,6.026
	c-0.281-0.01-0.529-0.104-0.748-0.285c-0.703-1.216-0.91-2.774-0.16-3.702c1.422-1.759,0.724-3.424,0.438-5.162
	c-0.119-0.736-0.724-1.457,0.054-2.162c0.537-0.166,0.887-0.519,1.049-1.056l0.002-0.001c1.519-1.03,2.16,0.558,3.168,1.059
	C56.271,15.89,56.271,16.065,56.273,16.241z"/>
<path fill="#DEC79B" d="M56.271,15.714c-1.225,0.148-2.133-0.645-3.168-1.059c0-1.057,0-2.113,0-3.169
	C54.829,12.394,55.7,13.941,56.271,15.714z"/>
<path fill="#E0BF89" d="M27.742,59.043c3.329-0.462,4.058-2.164,2.024-4.824c-0.48-0.628-0.93-1.229-0.971-2.045
	c-0.769-0.441-1.549-0.869-2.114-1.584c-0.354-0.004-0.708-0.007-1.061-0.012c-1.356-1.531-1.281-2.959,0.312-4.275
	c0.225-0.127,0.466-0.209,0.72-0.25c0.503,0.03,1.008,0.053,1.5,0.18c0.631,0.201,0.852,0.816,1.264,1.242
	c0.17,0.156,0.336,0.317,0.502,0.479c0.426,0.57,1.166,0.8,1.547,1.422c0.419,1.16-0.375,2.43,0.326,3.568
	c0.127,0.318,0.215,0.652,0.409,0.94c1.876,2.779,1.868,2.921-0.313,5.679c-1.619,1.336-3.391,1.148-5.207,0.533
	c0.354-0.351,0.707-0.701,1.061-1.051L27.742,59.043z"/>
<path fill="#E1C99D" d="M22.988,57.451c-0.077-0.041-0.162-0.07-0.228-0.125c-1.37-1.124-2.785-2.571-1.85-4.293
	c0.972-1.789,2.855-1.027,4.423-0.389c1.569,0.639,2.944,1.469,3.461,3.228C27.25,57.834,24.95,57.021,22.988,57.451z"/>
<path fill="#E5CDA0" d="M22.988,57.451c1.478-2.21,3.792-1.348,5.807-1.579c0.104,1.208-0.37,2.226-1.053,3.171l-0.001,0.003
	C25.902,59.271,24.324,58.723,22.988,57.451z"/>
<path fill="#E1BC7F" d="M26.68,60.098c1.846,0.067,3.681,0.076,5.288-1.057c0.607-0.626,0.874-1.904,2.205-1.15
	c0.739,1.065,0.532,1.823-0.729,2.238c-0.139-0.008-0.279-0.016-0.42-0.021c-2.573,1.181-5.258,0.64-7.917,0.512
	c-0.002-0.176-0.002-0.35-0.001-0.523C25.631,60.096,26.155,60.096,26.68,60.098z"/>
<path fill="#DCB77E" d="M26.174,46.928c-1.037,1.088,0.342,2.543-0.555,3.65c-0.811-0.137-1.531-0.453-2.12-1.04
	c-0.413-0.294-0.862-0.562-0.778-1.185c0.207-0.629,0.6-1.108,1.167-1.449c0.314-0.217,0.636-0.418,1-0.545
	c0.254-0.041,0.505-0.024,0.753,0.047C25.874,46.523,26.051,46.697,26.174,46.928z"/>
<path fill="#E0C28F" d="M26.681,50.59c1.082,0.023,1.881,0.428,2.114,1.584C27.201,52.833,26.775,51.934,26.681,50.59z"/>
<path fill="#EAC58A" d="M22.964,48.536c0.179,0.334,0.357,0.668,0.535,1.002c-0.7-0.001-1.399-0.003-2.099-0.004
	c-0.003-0.353-0.006-0.706-0.009-1.06c-0.206-0.426,0.038-0.652,0.371-0.841c0.237-0.056,0.472-0.046,0.706,0.021
	C22.802,47.854,22.988,48.137,22.964,48.536z"/>
<path fill="#DDC699" d="M9.78,51.645c-0.308-3.23-0.091-6.34,2.105-8.984c-0.088,2.179-0.038,4.376-0.325,6.527
	C11.433,50.139,10.893,51.202,9.78,51.645z"/>
<path fill="#DFBA7D" d="M22.016,47.889c-0.208,0.195-0.416,0.391-0.624,0.586c-2.295-0.166-3.507-2.134-5.278-3.172
	c-0.308-0.316-0.333-0.675-0.158-1.064c0.933-0.788,1.684,0.09,2.511,0.273c1.184,0.484,2.082,1.457,3.279,1.926
	C22.125,46.868,22.272,47.341,22.016,47.889z"/>
<path fill="#DCBB82" d="M16.117,44.244c-0.001,0.354-0.002,0.705-0.003,1.059c-0.705-0.352-1.409-0.703-2.113-1.055
	c0.119-1.447,0.698-2.589,2.113-3.172c0.392,0.283,0.622,0.667,0.708,1.141C16.933,43.012,16.898,43.758,16.117,44.244z"/>
<path fill="#DAB67B" d="M16.118,42.135c-0.001-0.354-0.002-0.705-0.003-1.059c0.35-0.354,0.7-0.706,1.05-1.059
	c-0.064-0.681,0.257-1.16,0.794-1.529c0.577-0.264,0.838-0.965,1.515-1.092c0.415-0.041,0.781,0.067,1.097,0.345
	c0.263,0.325,0.366,0.7,0.324,1.114c-0.292,0.891-1.168,1.363-1.563,2.182c-0.249,0.29-0.457,0.619-0.807,0.809
	C17.761,42.262,17.036,43.009,16.118,42.135z"/>
<path fill="#E0C697" d="M18.221,38.962c-0.352,0.353-0.704,0.704-1.056,1.056c-1.055,0.176-2.11,0.353-3.165,0.526
	c0.353-0.526,0.705-1.056,1.057-1.582l0,0C16.111,38.561,17.166,38.085,18.221,38.962z"/>
<path fill="#ECD9B7" d="M16.115,37.377c-0.001-0.176-0.002-0.35-0.004-0.525c0.107-1.213-0.487-2.621,0.969-3.459
	c1.177-0.199,1.978,0.443,2.722,1.215c0.332,1.082,0.455,2.111-0.724,2.804c-0.291,0.163-0.576,0.153-0.856-0.024
	C17.52,37.383,16.817,37.38,16.115,37.377z"/>
<path fill="#E3CB9E" d="M18.222,37.385c0.173-0.008,0.346-0.014,0.519-0.017c0.178-0.21,0.383-0.241,0.616-0.095
	c0.138,0.229,0.118,0.442-0.063,0.643c-0.358,0.35-0.716,0.697-1.073,1.046c-1.055,0-2.109,0-3.164,0
	C15.884,37.98,17.257,38.092,18.222,37.385z"/>
<path fill="#E0C594" d="M62.607,39.482c-2.61,0.83-1.959,3.617-3.168,5.287c-0.393,0.404-0.694,1.049-1.428,0.521
	c-0.421-0.382-0.523-0.903-0.429-1.401c0.319-1.656-0.431-2.691-1.847-3.388c-0.853-2.253-1.949-4.438-1.901-6.94
	c0.252-0.342,0.595-0.537,1.011-0.605c0.344-0.036,0.823-0.189,1.021,0c2.021,1.929,4.92,2.378,6.992,4.201
	C62.787,37.934,63.122,38.754,62.607,39.482z"/>
<path fill="#E2C28B" d="M54.168,33.68c0.926,2.221,1.977,4.402,2.107,6.867c1.211,0.596,1.283,1.707,1.322,2.852
	c0.023,0.724-0.308,1.619,0.789,1.906c0.352-0.178,0.701-0.355,1.053-0.533c0,0.354,0.002,0.709,0.002,1.063
	c-0.498,2.833-2.406,4.654-4.559,4.354c-1.455-1.814-0.904-3.795-0.469-5.764c0.335-1.488,0.527-2.968-0.316-4.374
	c-2.137-3.456-1.197-7.18-0.949-10.844c0.188-0.265,0.438-0.42,0.759-0.469c0.319,0.064,0.567,0.231,0.747,0.502
	C55.023,30.778,55.335,32.31,54.168,33.68z"/>
<path fill="#D6BB87" d="M55.225,50.068c1.808-1.014,2.916-2.721,4.219-4.235c0.363,0.009,0.729,0.019,1.094,0.026
	c-1.258,2.83-2.952,5.345-5.314,7.377C54.225,52.18,54.223,51.123,55.225,50.068z"/>
<path fill="#DAB577" d="M55.225,50.068c0,1.056-0.002,2.111-0.004,3.168c-0.527,0.529-1.056,1.061-1.584,1.59
	c-0.767,0.182-0.895-0.36-1.025-0.9c0.757-1.785,0.395-3.517-0.26-5.236c0.197-2.221,1.387-4.285,1.021-6.592
	c0.039-0.594,0.105-1.174,0.607-1.589c0.713-0.29,1.119,0.089,1.438,0.658c0.007,1.028,0.297,2.073-0.191,3.071
	C54.975,46.182,54.631,48.125,55.225,50.068z"/>
<path fill="#D5B06D" d="M49.871,58.432c-1.926-0.021-3.333,1.582-5.227,1.66c-0.354-0.289-0.476-0.672-0.44-1.115
	c0.647-1.588,2.231-1.957,3.524-2.705c1.549-0.211,2.84-2.022,4.627-0.748c0.074,0.117,0.148,0.233,0.223,0.352
	c-0.186,0.32-0.371,0.643-0.557,0.963C51.105,57.098,50.434,57.688,49.871,58.432z"/>
<path fill="#D5B06D" d="M53.122,53.773c0.171,0.352,0.343,0.701,0.515,1.053c-0.353,0.349-0.705,0.699-1.059,1.048l-0.021-0.011
	c-0.473-0.508-1.263-0.004-1.729-0.541c-0.092-1.422,0.677-1.889,1.967-1.779C52.902,53.619,53.014,53.697,53.122,53.773z"/>
<path fill="#DAAF68" d="M44.646,59.048c0,0.349,0,0.696-0.002,1.046c-0.004,0.168-0.011,0.338-0.019,0.508
	c-1.285-0.373-2.601-0.595-3.871-0.061c-3.006,1.264-6.278,0.216-9.315,1.135c0.527-0.521,1.055-1.046,1.582-1.568l0.004-0.004
	c0.494-0.396,1.203-0.295,1.678-0.731c1.313-0.194,1.721-1.209,2.055-2.293c0.342-0.417,0.776-0.708,1.244-0.958
	c0.715-0.51,1.467-0.799,2.337-0.426c1.024,0.824,1.438,2.504,3.208,2.304C44.018,58.238,44.506,58.462,44.646,59.048z"/>
<path fill="#DBBA82" d="M22.459,5.687c-0.001,1.933-0.002,3.865-0.003,5.797c0.17,0.314,0.104,0.565-0.198,0.754
	c-2.56-0.114-2.776-1.778-2.493-3.771c0.134-0.43,0.315-0.838,0.585-1.203C20.971,6.628,21.448,5.799,22.459,5.687z"/>
<path fill="#DFC28E" d="M20.35,7.263c-0.002,0.351-0.006,0.702-0.008,1.053c-0.91,1.257-0.455,2.433,0.249,3.566
	c0.841,1.355,0.871,2.545-0.584,3.504c-0.28,0.069-0.524,0.002-0.731-0.199c-0.589-0.371-0.932-0.904-1.048-1.587
	C18.259,11.262,17.843,8.773,20.35,7.263z"/>
<path fill="#DCBA80" d="M22.454,12.015c0.001-0.177,0.001-0.354,0.002-0.532c0.743,0.034,1.356,0.321,1.817,0.917
	c0.64,0.828,1.202,0.594,1.997,0.072c2.994-1.966,3.533-1.811,4.831,1.269c0.398,0.947,1.174,1.004,1.934,1.035
	c1.049,0.042,2.104-0.07,3.154-0.117c1.197,0.155,2.215,0.586,2.744,1.775c0.168,1.163,0.422,2.356-1.068,2.908
	c-1.788-0.241-2.77-1.95-4.426-2.436c-1.856-0.765-3.689-0.031-5.532,0.071c-1.635-0.371-3.141-1.138-4.763-1.553
	c-0.562-0.497-0.964-1.104-1.262-1.788C21.755,12.985,22.027,12.473,22.454,12.015z"/>
<path fill="#DBB474" d="M28.79,5.676c0.046,1.073,0.035,2.317,1.404,2.477c1.238,0.144,2.673,0.449,3.503-1.049
	c0.559-1.003,1.232-1.8,2.498-0.909c0.135,0.861,0.908,1.297,1.312,1.98c0.382,0.563,0.484,1.305-0.05,1.629
	c-1.464,0.892-1.627,2.488-2.32,3.796c-0.607-0.048-1.509,0.056-1.658-0.535c-0.904-3.564-4.271-2.647-6.549-3.622
	c-0.966-0.414-2.064-0.375-2.359-1.656C25.657,6.446,26.9,5.414,28.79,5.676z"/>
<path fill="#DBB270" d="M35.137,13.6c0.065-1.543-0.023-3.128,1.608-4.093c0.168-0.1-0.007-0.779-0.022-1.19
	c0.094-0.726-0.033-1.507,0.528-2.116c2.292-0.399,2.304,0.858,1.761,2.464c-0.105,0.314-0.391,0.57-0.602,0.846
	c-2.783,3.622-2.428,4.727,2.007,6.203c0.254,0.163,0.437,0.385,0.551,0.665c0.173,1.024-0.11,1.723-1.278,1.784
	c-1.043-0.219-0.724-1.421-1.381-1.919c-0.707-0.528-1.412-1.056-2.119-1.584C35.838,14.306,35.486,13.953,35.137,13.6z"/>
<path fill="#D8B375" d="M28.79,5.676c-1.197,1.123-2.338,2.359-4.221,2.111c-0.611-0.468-1.141-1.127-0.23-1.608
	c1.874-0.989,3.18-2.976,5.511-3.144C29.569,3.945,28.77,4.646,28.79,5.676z"/>
<path fill="#D9AD65" d="M40.422,16.242c-0.002-0.176-0.003-0.352-0.005-0.528c-0.843-2.063-3.261-3.827-0.845-6.433
	c2.386-2.573,3.423-2.528,5.074,0.621c-1.981,1.439-2.871,3.299-2.404,5.787c0.139,0.739,0.128,1.559-0.221,2.299
	c-0.25,0.343-0.574,0.534-1.013,0.487C40.242,17.881,41.061,16.87,40.422,16.242z"/>
<path fill="#D7AA63" d="M41.479,17.818c-0.051-1.229,0-2.47-0.168-3.683c-0.496-3.572-0.307-3.854,3.336-4.234
	c0.705,0.352,1.412,0.703,2.117,1.054c1.219,0.712,2.17,1.604,2.115,3.166c0.33,0.426,0.482,0.888,0.299,1.42
	c-0.799,0.892-1.33,0.231-1.968-0.282c-2.298-1.85-2.36-1.813-3.63,0.887c-0.26,0.553-0.201,1.232-0.689,1.691
	C42.413,18.178,41.939,18.275,41.479,17.818z"/>
<path fill="#E1B877" d="M37.251,6.202c0.367,0.841,0.67,1.666-0.528,2.116c-0.795-0.554-1.203-1.204-0.525-2.123
	C36.548,6.197,36.898,6.2,37.251,6.202z"/>
<path fill="#E7C083" d="M15.053,23.637c0.179-0.697,0.357-1.395,0.536-2.092c-0.153-0.866,0.458-1.066,1.09-1.248
	c0.967-0.177,1.875,0.074,2.716,0.493c1.417,0.706,1.927,1.655,0.575,2.933c-1.628,0.486-3.189,1.301-4.974,1.073
	C14.717,24.395,14.765,24.01,15.053,23.637z"/>
<path fill="#CFA867" d="M16.606,20.962c-0.339,0.194-0.678,0.389-1.017,0.583c-1.55,0.471-1.67-0.334-1.292-1.494
	c0.29-0.891,1.059-1.333,1.837-1.739c0.469-0.426,0.988-0.765,1.602-0.945c0.388-0.059,0.747,0.002,1.063,0.249
	c0.91,1.802-1.158,1.866-1.661,2.844C16.971,20.637,16.793,20.805,16.606,20.962z"/>
<path fill="#DFBE86" d="M15.053,23.637c0.002,0.354,0.005,0.708,0.007,1.062c0.205,0.197,0.282,0.437,0.231,0.715
	c-0.285,0.584-0.69,0.763-1.265,0.378c-0.415-0.872-1.368-1.527-1.075-2.682C13.597,23.508,14.211,24.026,15.053,23.637z"/>
<path fill="#E8C58C" d="M17.676,17.794c-0.514,0.173-1.027,0.346-1.542,0.519c-0.011-0.335-0.022-0.669-0.034-1.004
	c0.707-0.183,1.414-0.366,2.122-0.548c0.041,0.106,0.081,0.211,0.122,0.316C18.251,17.438,17.967,17.619,17.676,17.794z"/>
<path fill="#E3D1AD" d="M7.132,32.623c0-0.706,0-1.41,0-2.115C7.13,30.154,7.127,29.8,7.125,29.445l0,0
	c0.179-0.354,0.355-0.353,0.53,0.003c1.855,0.753,3.41-1.521,5.289-0.521c0.148,0.118,0.197,0.234,0.147,0.351
	c-0.05,0.117-0.1,0.175-0.149,0.175C10.357,29.321,9.195,31.798,7.132,32.623z"/>
<path fill="#DCBA81" d="M15.088,29.446c0.058-0.239,0.116-0.479,0.174-0.717c0.167-0.335,0.399-0.595,0.785-0.677
	c0.375-0.024,0.713,0.101,1.046,0.252c0.646,0.357,1.296,0.708,1.994,0.962c1.388,0.772,3.222-0.151,4.463,1.175
	c0.203,0.691-0.199,1.032-0.743,1.293c-0.402,0.124-0.812,0.219-1.215,0.333c-1.208,0.387-2.439,0.334-3.674,0.182
	c-1.01-0.388-1.756-1.181-2.656-1.74C14.998,30.189,14.833,29.852,15.088,29.446z"/>
<path fill="#E8D4AF" d="M15.088,29.446c0.183,0.168,0.366,0.335,0.549,0.504c0.254,0.324,0.307,0.677,0.146,1.059
	c-0.171,0.196-0.387,0.313-0.641,0.363c-0.621,0.03-0.851-0.456-1.143-0.862c-0.132-0.616-0.525-0.712-1.058-0.532
	c0.001-0.176,0-0.352,0-0.527c0-0.176,0.001-0.351,0.002-0.526C13.658,29.099,14.374,29.272,15.088,29.446z"/>
<path fill="#DEC9A0" d="M7.655,29.448c-0.176-0.001-0.354-0.002-0.53-0.003c0.01-1.403,0.021-2.807,0.031-4.21
	c0.169,0.35,0.337,0.699,0.506,1.049C7.66,27.339,7.657,28.394,7.655,29.448z"/>
<path fill="#CBA86C" d="M16.063,28.416c-0.268,0.105-0.536,0.211-0.802,0.315c-0.071-0.11-0.131-0.225-0.18-0.346
	c0.162-0.352,0.324-0.703,0.486-1.055c0.276-0.294,0.603-0.339,0.968-0.199c0.487,0.453,0.254,0.828-0.127,1.188
	C16.292,28.352,16.177,28.383,16.063,28.416z"/>
<path fill="#DFAF66" d="M16.675,27.352c-0.369-0.007-0.739-0.014-1.108-0.021c-0.003-0.171-0.006-0.341-0.01-0.511
	c0.092-0.264,0.251-0.479,0.478-0.644c0.726-0.423,1.482-0.738,2.35-0.664c0.586,0.011,1.153,0.074,1.581,0.546
	c0.164,0.261,0.239,0.543,0.227,0.85C19.199,28.49,18.079,29.048,16.675,27.352z"/>
<path fill="#CBA86C" d="M16.178,26.773c-0.208,0.015-0.415,0.031-0.622,0.046c-0.697-0.064-1.313-0.249-1.529-1.027
	c0.351-0.18,0.701-0.361,1.052-0.541c0.394-0.368,0.861-0.557,1.399-0.571c0.255,0.051,0.482,0.162,0.684,0.325
	C17.724,26.089,16.465,26.161,16.178,26.773z"/>
<path fill="#E8C58C" d="M19.275,15.188c0.18-0.001,0.359-0.003,0.54-0.006c0.209,0.181,0.334,0.408,0.376,0.683
	c-0.005,0.597-0.285,1.01-0.831,1.247c-0.418,0.092-0.787-0.003-1.102-0.297l-0.036-0.053
	C18.573,16.237,18.924,15.712,19.275,15.188z"/>
<path fill="#EADDC2" d="M17.171,33.68c-0.113,1.137,0.382,2.479-1.06,3.172c-0.351-0.002-0.702-0.004-1.053-0.006
	c-0.68-0.787-2.051-0.236-2.581-1.466c-0.764-1.772-0.297-2.673,2.195-3.74C15.966,31.753,16.959,32.236,17.171,33.68z"/>
<path fill="#E6DABE" d="M15.056,32.094c-2.716,1.451-2.716,1.99,0.001,4.751c-1.889,0.273-3.207-0.373-3.746-2.303
	c-0.561-2.01,0.647-2.819,2.249-3.409c0.196-0.072,0.295-0.409,0.439-0.624c0.349,0.178,0.697,0.354,1.045,0.534
	C15.374,31.39,15.336,31.741,15.056,32.094z"/>
<path fill="#E1BD85" d="M52.055,15.712c1.104,2.587,2.198,5.142,0.325,7.894c-0.608,0.895-0.28,2.047-0.272,3.09
	c-0.094,0.083-0.188,0.166-0.283,0.25c-0.402,0.039-0.729-0.113-0.999-0.404c-1.14-1.556-2.027-3.091-0.462-4.955
	c0.591-0.704,0.273-1.693,0.238-2.564c0.063-0.244,0.186-0.455,0.357-0.638c0.453-2.251-1.061-4.183-1.033-6.365
	C50.635,13.251,51.346,14.481,52.055,15.712z"/>
<path fill="#D7A150" d="M41.479,17.818c0.353-0.174,0.703-0.348,1.057-0.521c2.596-3.021,2.863-3.067,6.304-1.074
	c0.44,0.032,0.774,0.27,1.082,0.562c0.002,0.172,0.001,0.344-0.001,0.516c-0.495,0.815-1.348,0.747-2.124,0.866
	c-0.948,0.033-1.549,0.842-2.403,1.087c-1.332,0.008-2.404,1.072-3.772,0.937c-0.401-0.03-0.79-0.099-1.12-0.354
	c-0.197-0.193-0.307-0.429-0.322-0.705c0.079-0.437,0.346-0.69,0.773-0.782C41.125,18.172,41.301,17.995,41.479,17.818z"/>
<path fill="#CD9C51" d="M47.297,17.313c0.874-0.004,1.748-0.01,2.622-0.014c0.347,0.361,0.692,0.724,1.04,1.085
	c0.018,0.162,0.031,0.323,0.045,0.483c0.631,2.726-0.005,3.541-2.85,3.659c-0.398-0.23-0.6-0.57-0.557-1.037
	C49.188,19.981,47.337,18.711,47.297,17.313z"/>
<path fill="#D6AB67" d="M49.92,16.784c-0.348-0.006-0.693-0.011-1.04-0.018c-0.312-0.35-0.335-0.7-0.005-1.053
	c0.001-0.53,0.003-1.061,0.004-1.591C49.852,14.765,49.952,15.748,49.92,16.784z"/>
<path fill="#E0C899" d="M62.615,36.322c-0.002,0.176-0.002,0.351-0.006,0.525c-3.557,1.489-5.293-1.265-7.392-3.172
	c-0.411-0.423-0.54-0.931-0.444-1.502c0.738-1.41,2.149-1.811,3.483-2.326c2.078-0.245,1.632,2.522,3.298,2.77
	C62.338,33.73,62.469,35.029,62.615,36.322z"/>
<path fill="#DDC495" d="M61.557,32.619c-0.726,0.652-1.488,1.367-2.521,0.734c-0.856-0.523-0.363-1.395-0.351-2.146
	c0.008-0.408-0.191-0.819-0.299-1.229c-0.135-0.116-0.181-0.233-0.136-0.351c0.044-0.118,0.088-0.176,0.134-0.176
	c0.541-0.607,0.764-1.856,1.807-1.525c0.941,0.298,1.252,1.369,1.316,2.36C61.561,31.063,61.543,31.842,61.557,32.619z"/>
<path fill="#E4C899" d="M52.583,26.72c0.551-2.345,0.831-4.865,3.688-5.722c-0.018,1.776,0.496,3.607-0.526,5.284
	c-0.022,0.41-0.164,0.763-0.487,1.03c-0.349,0.208-0.738,0.263-1.134,0.297C53.432,27.625,52.493,28.062,52.583,26.72z"/>
<path fill="#E3CA9D" d="M55.217,26.81c0.176-0.176,0.352-0.353,0.528-0.528c0.88,1.057,1.761,2.114,2.642,3.171
	c0,0.175,0.002,0.351,0.002,0.526c-0.559,1.453-1.893,1.74-3.168,2.115c-0.945-0.859-0.328-2.24-1.061-3.171h0.001
	C53.639,27.781,54.777,27.471,55.217,26.81z"/>
<path fill="#D4B481" d="M52.583,26.72c0.513,0.036,1.026,0.072,1.54,0.107c0.91,1.174,0.91,1.174-1.229,1.686
	c-0.276-0.01-0.533-0.087-0.769-0.231c-0.216-0.178-0.351-0.405-0.403-0.679c-0.014-0.283,0.08-0.527,0.274-0.732l0.108-0.173
	C52.266,26.724,52.424,26.732,52.583,26.72z"/>
<path fill="#DDB87B" d="M30.914,53.223c-1.627-1.219-0.298-2.451-0.019-3.679c1.397-0.202,2.942-0.063,3.744-1.638
	c0.414-0.137,0.821-0.121,1.229,0.025c1.048,0.737,2.401,1.256,2.097,2.95c-0.074,0.419-0.275,0.776-0.535,1.104
	c-1.384,0.795-1.326,2.441-2.115,3.591c-0.512,0.294-1.006,0.155-1.494-0.063C32.747,54.885,32.186,53.604,30.914,53.223z"/>
<path fill="#DEBD84" d="M30.914,53.223c1.803-0.955,2.398,0.488,3.165,1.592c0.586,0.91,1.058,1.834,0.356,2.901
	c-0.119,0.091-0.24,0.179-0.359,0.269c-0.702,0.353-1.406,0.705-2.108,1.058C32.678,56.909,32.109,55.009,30.914,53.223z"/>
<path fill="#D7B478" d="M34.609,48.479c-0.478,3.008-2.1,2.023-3.714,1.064c-0.719-0.048-1.307-0.288-1.54-1.049
	c0.98-1.24,2.36-0.666,3.586-0.787C33.598,47.746,34.229,47.844,34.609,48.479z"/>
<path fill="#D4B177" d="M28.282,46.914c-0.53-0.021-1.061-0.042-1.592-0.063c-0.053-1.576,1.324-1.705,2.285-2.258
	c1.342-0.094,2.684-0.191,4.017,0.094c0.734,0.36,1.131,0.951,1.193,1.764c0,0.285-0.069,0.561-0.203,0.813
	c-0.731,0.944-1.732,0.26-2.594,0.42c-0.493-0.006-0.988,0.002-1.48-0.043C29.308,47.527,28.745,47.332,28.282,46.914z"/>
<path fill="#D1AA6B" d="M28.787,45.311c-0.462,0.836-1.414,1.008-2.097,1.543c-0.172,0.023-0.344,0.049-0.516,0.074
	c-0.182-0.012-0.364-0.021-0.546-0.031c-0.521-0.547-1.001-1.109-0.82-1.951c0.643-1.204,1.737-0.926,2.771-0.844
	C28.181,44.307,28.612,44.682,28.787,45.311z"/>
<path fill="#E9C488" d="M31.413,46.854c0.917-0.57,1.457,0.25,2.132,0.576c0.268,0.563-0.17,0.764-0.521,1.01
	c-1.224,0.019-2.445,0.037-3.668,0.056c-0.191-0.013-0.383-0.024-0.574-0.038c-0.196-0.645,0.223-0.863,0.712-1.034
	C30.159,47.318,30.958,47.668,31.413,46.854z"/>
<path fill="#F3D199" d="M29.854,47.945c-0.357,0.171-0.715,0.341-1.072,0.511c-1.459-0.097-1.305-0.714-0.5-1.543
	c0.52-0.267,1.042-0.466,1.58-0.04C30.167,47.232,30.165,47.59,29.854,47.945z"/>
<path fill="#DFB675" d="M35.137,60.098c-0.703,0.002-1.406,0.004-2.111,0.006c0.582-0.592,1.063-1.232,1.052-2.119l0.002-0.002
	c0.344-0.303,0.705-0.565,1.188-0.586c0.979,0.117,1.694,0.635,1.678,1.637C36.924,60.184,35.652,59.576,35.137,60.098z"/>
<path fill="#D6AB65" d="M25.091,45.298c0.179,0.532,0.358,1.063,0.536,1.599l-0.241,0.002l-0.242-0.004
	c-0.277,0.237-0.614,0.158-0.933,0.178c-0.649,0.06-1.3,0.138-1.947-0.031c-0.317-0.081-0.638-0.128-0.966-0.122
	c-1.314,0.015-2.089-0.999-3.074-1.612c-1.188-0.856-1.768-1.841-0.665-3.17c1.345,0.324,2.003-0.363,2.304-1.578
	c0.292-0.277,0.638-0.422,1.04-0.435C23.325,41.018,23.667,43.596,25.091,45.298z"/>
<path fill="#AD823D" d="M21.299,46.918c0.209-0.186,0.418-0.372,0.627-0.559c0.876-0.401,1.75-0.416,2.623,0.013
	c0.198,0.174,0.396,0.349,0.595,0.521c-0.146,0.193-0.293,0.387-0.441,0.578c-0.657,0.602-1.34,1.082-2.252,0.477
	c-0.145-0.02-0.291-0.039-0.435-0.059C21.777,47.564,21.538,47.242,21.299,46.918z"/>
<path fill="#BA8F48" d="M22.451,47.947c0.75-0.158,1.5-0.316,2.251-0.477c-0.35,0.729-0.977,1.006-1.738,1.064
	C22.793,48.341,22.622,48.145,22.451,47.947z"/>
<path fill="#DBB475" d="M18.221,42.123c-0.75,1.063-0.459,2.122,0.005,3.182c-0.703-0.354-1.406-0.707-2.108-1.061
	c0-0.703,0-1.406,0-2.109c0.705-0.354,1.41-0.705,2.115-1.059C18.506,41.43,18.505,41.777,18.221,42.123z"/>
<path fill="#D3A760" d="M18.221,42.123c0.003-0.35,0.008-0.698,0.012-1.047c0.181-0.168,0.361-0.336,0.542-0.504
	c0.613-0.113,1.172-0.059,1.566,0.506c-0.288,0.874,0.665,1.156,0.854,1.791c0.26,0.869,0.382,1.837-0.572,2.322
	c-1.015,0.518-1.387-0.475-1.743-1.11C18.549,43.49,18.432,42.779,18.221,42.123z"/>
<path fill="#D0AB6B" d="M20.33,38.958c-0.002-0.356-0.005-0.715-0.008-1.071c-0.301-0.623-0.09-1.119,0.379-1.554
	c2.276-0.802,2.49-0.665,2.541,1.626c-0.055,0.896-0.387,1.6-1.331,1.863C21.175,39.921,20.631,39.66,20.33,38.958z"/>
<path fill="#CEA765" d="M20.33,38.958c0.533-0.173,0.937-0.087,1.071,0.536c0.265,0.578-0.042,0.865-0.538,1.054
	c-0.174,0.177-0.348,0.354-0.522,0.53c-0.522-0.169-1.044-0.338-1.566-0.506C19.098,39.848,19.497,39.193,20.33,38.958z"/>
<path fill="#E0C28E" d="M20.886,36.855c-0.188,0.344-0.376,0.688-0.564,1.031c-0.343,0.01-0.685,0.02-1.028,0.028
	c-0.002-0.179-0.005-0.354-0.007-0.533c0.276-0.795,0.509-1.603,0.67-2.43c0.478-0.767,1.057-1.406,1.991-1.611
	c0.27,0.013,0.51,0.101,0.73,0.253c0.18,0.202,0.295,0.438,0.349,0.702c0.017,0.267-0.026,0.522-0.125,0.771
	C22.295,35.734,21.594,36.3,20.886,36.855z"/>
<path fill="#E6D4AF" d="M15.056,32.094c-0.003-0.35-0.007-0.7-0.011-1.05c0.184-0.003,0.367-0.006,0.55-0.009
	c0.653-0.429,1.125,0.035,1.631,0.331c0.554,0.821,1.547,1.18,2.105,1.997c0.24,0.47,0.348,0.933-0.053,1.377
	c-0.702-0.354-1.405-0.707-2.107-1.061C16.466,33.15,15.761,32.622,15.056,32.094z"/>
<path fill="#EAD0A3" d="M19.278,34.738c-0.174-0.35-0.349-0.701-0.523-1.053c0.52-0.521,1.082-0.526,1.675-0.138
	c0.436,0.595,0.285,1.162-0.081,1.72c-0.149,0.808-0.476,1.525-1.063,2.114c-0.182-0.006-0.363-0.01-0.545-0.015
	C19.167,36.542,19.303,35.656,19.278,34.738z"/>
<path fill="#E3C693" d="M58.389,45.305c-0.225,0.789-0.556,1.674-1.508,1.467c-0.915-0.199-0.623-1.168-0.486-1.791
	c0.33-1.502-0.246-2.953-0.117-4.434c0.52-0.965,1.177-1.439,2.312-0.85c1.149,0.6,0.636,1.447,0.464,2.271
	C58.82,43.08,58.607,44.193,58.389,45.305z"/>
<path fill="#E6C995" d="M54.16,28.922c0.889,0.878,1.07,1.993,1.061,3.171c-0.002,0.527-0.002,1.055-0.002,1.583
	c-0.351,0.002-0.701,0.002-1.051,0.002C54.165,32.094,54.163,30.508,54.16,28.922z"/>
<path fill="#DBB77D" d="M55.211,41.081c-0.352-0.179-0.699-0.356-1.051-0.533c-1.069-0.086-1.442-0.88-1.762-1.729
	c-0.133-2.885-1.045-5.762-0.088-8.659c0.03-0.452,0.178-0.855,0.502-1.181c0.26-0.194,0.529-0.21,0.812-0.049
	c0.001,1.652,0.093,3.311-0.019,4.956c-0.15,2.25,0.263,4.305,1.611,6.139C55.542,40.377,55.516,40.729,55.211,41.081z"/>
<path fill="#E6C995" d="M53.624,28.929c-0.181,0.003-0.358,0.007-0.538,0.01c-0.837-0.079-0.939-0.451-0.425-1.068
	c0.653-0.116,1.724,0.352,1.462-1.044c0.363-0.005,0.729-0.012,1.094-0.017c0.006,0.882-0.469,1.526-1.056,2.112
	C53.982,28.924,53.805,28.927,53.624,28.929z"/>
<path fill="#D6BB87" d="M55.211,41.081c0.002-0.353,0.004-0.706,0.007-1.06c0.736,1.404,0.744,2.81,0.009,4.217
	C55.221,43.186,55.216,42.133,55.211,41.081z"/>
<path fill="#D8AC65" d="M52.661,27.871c0.142,0.356,0.282,0.712,0.426,1.068c0.003,0.346,0.009,0.692,0.013,1.039
	c-2.037,3.309-0.604,6.555,0.178,9.814c0.464,0.717,0.267,1.683,0.881,2.343c0.339,2.395-0.735,4.571-1.049,6.865
	c0.326,0.406,0.324,0.801-0.043,1.182c-0.652,0.174-1.149-0.059-1.535-0.58c-0.446-1.084-0.219-2.222-0.264-3.334
	c0.854-2.797,0.625-5.451-1.065-7.904c-0.662-0.57-1.544-0.631-2.302-0.983c-0.197-0.155-0.348-0.351-0.455-0.575
	c-0.072-0.234-0.094-0.476-0.067-0.718c0.833-1.328-1.269-1.771-0.905-2.961c0.715-1.493,2.902-1.107,3.5-2.751
	c0.182-0.296,0.35-0.6,0.506-0.91c0.148-0.317,0.264-0.648,0.396-0.972c0.27-0.446,0.659-0.665,1.184-0.633
	C52.259,27.863,52.46,27.867,52.661,27.871z"/>
<path fill="#D5B06D" d="M53.102,50.061c0.002-0.354,0.004-0.707,0.008-1.061c1.117,1.588,1.787,3.178,0.014,4.773L53.1,53.755
	c-0.763-0.489-1.037-1.175-0.82-2.056C52.368,51.063,52.512,50.447,53.102,50.061z"/>
<path fill="#D8B06F" d="M54.157,42.135c-0.772-0.494-1.042-1.24-1.058-2.113c-0.322-0.357-0.295-0.715,0.008-1.067
	c0.352,0.53,0.701,1.063,1.053,1.595C54.159,41.076,54.158,41.605,54.157,42.135z"/>
<path fill="#DCB16C" d="M50.991,55.344c0.522,0.174,1.044,0.348,1.565,0.52c-1.731-0.326-3.054,1.171-4.734,1.066
	c-0.116-0.047-0.233-0.092-0.352-0.138c-1.043-1.065-2.554-1.705-3.025-3.3c0.093-1.186,0.576-2.139,1.627-2.76
	c1.977-0.395,2.598,1.188,3.484,2.385C49.98,53.891,50.553,54.575,50.991,55.344z"/>
<path fill="#DDB371" d="M44.646,59.048c-0.527-0.002-1.056-0.005-1.582-0.008c-1.627-0.875-1.65-2.063-0.672-3.442
	c0.586-0.675,1.187-1.318,2.215-1.018c0.063,2.152,2.344,1.281,3.207,2.348l0.008,0.002C47.046,58.059,45.613,58.205,44.646,59.048z
	"/>
<path fill="#D0A257" d="M50.991,55.344c-1.03,0.006-2.026-0.074-2.656-1.066c-0.368-1.725-0.587-3.401,1.36-4.411
	c1.587-0.271,2.707,0.344,3.395,1.784c0.003,0.701,0.006,1.404,0.01,2.105C52.396,54.284,51.693,54.813,50.991,55.344z"/>
<path fill="#D7AA63" d="M40.422,56.4c-0.705,0.177-1.41,0.353-2.115,0.527c-2.892-1.748-2.617-3.926,0.777-6.188
	c0.639-0.184,1.171,0.025,1.645,0.447c0.777,1.541,2.797,2.594,1.896,4.801C41.975,56.577,41.318,57.135,40.422,56.4z"/>
<path fill="#DBB270" d="M35.137,60.098c1.17-0.705,1.676-1.408-0.002-2.111c-0.635-0.881-0.686-1.762,0.002-2.643
	c-0.066-1.488,0.082-2.884,1.586-3.697c0.764,1.883-0.291,3.933,0.529,5.812C38.381,59.855,38.381,59.855,35.137,60.098z"/>
<path fill="#D8AD69" d="M37.252,57.457c-1.932-1.777-0.029-3.902-0.529-5.813c0.176-0.176,0.35-0.354,0.524-0.531
	c0.709-0.653,1.417-1.327,2.12,0.007c-2.141,1.61-2.732,3.503-1.061,5.81C37.955,57.104,37.604,57.279,37.252,57.457z"/>
<path fill="#DCB16C" d="M40.422,56.4c0.703-0.176,1.406-0.354,2.11-0.53c0.178-0.183,0.354-0.188,0.53,0.002
	c-0.553,1.058-0.556,2.112,0.002,3.168C41.381,58.965,40.501,58.083,40.422,56.4z"/>
<path fill="#DDBD86" d="M19.826,15.716c-0.003-0.178-0.007-0.356-0.011-0.534c0.374-1.042,0.288-1.995-0.18-3.045
	c-0.599-1.346-0.627-2.752,0.707-3.82c0.038,1.614,0.674,2.886,2.113,3.699c0,0.528,0,1.056,0.001,1.584
	c0.048,0.566,0.17,1.136-0.077,1.69C21.675,16.317,20.855,16.645,19.826,15.716z"/>
<path fill="#E3C188" d="M34.081,15.715c1.627,0.479,2.833,1.379,3.157,3.159c0.064,0.392,0.041,0.772-0.163,1.126
	c-0.663,1.208-1.614,1.178-2.687,0.628c-0.814-0.578-1.775-0.853-2.676-1.258c-0.332-1.367-2.107-0.99-2.611-2.154
	c0.214-1.503,1.384-1.256,2.351-1.206C32.359,16.057,33.279,16.52,34.081,15.715z"/>
<path fill="#DFBB7F" d="M19.826,15.716c0.877-0.004,1.517-0.478,2.103-1.062c0.527-0.446,1.055-0.382,1.583,0
	c1.622-0.034,2.851,0.976,4.229,1.588c0.418,0.504,0.509,1.041,0.163,1.622c-2.975,0.412-5.837-0.065-8.627-1.103
	C19.459,16.413,19.642,16.064,19.826,15.716z"/>
<path fill="#E0BD83" d="M27.735,17.818c0.001-0.525,0.004-1.05,0.005-1.576c2.071-0.685,4.214-0.518,6.341-0.527
	c-0.451,1.075-1.302,1.012-2.208,0.766c-1.03-0.281-1.91-0.116-2.547,0.819c0.304,0.295,0.338,0.639,0.183,1.018
	c-0.601,0.565-1.128,0.352-1.629-0.151C27.832,18.05,27.783,17.935,27.735,17.818z"/>
<path fill="#E2B775" d="M36.717,19.407c0.174-0.178,0.35-0.354,0.521-0.533c1.253-0.514,1.013-1.632,1.07-2.631
	c0.764,0.254,1.021,0.849,1.067,1.586c0.448,0.481,0.546,1.047,0.401,1.672c-0.258,0.6-0.75,0.919-1.34,1.122
	c-0.617,0.077-1.199,0.023-1.683-0.425C36.521,19.945,36.508,19.682,36.717,19.407z"/>
<path fill="#DBBA82" d="M23.511,14.654c-0.527,0-1.055,0-1.583,0c0.175-0.351,0.352-0.703,0.527-1.055
	C22.807,13.951,23.159,14.303,23.511,14.654z"/>
<path fill="#E0AF65" d="M39.334,19.388c0.016-0.52,0.027-1.04,0.043-1.559c0.756-0.261,1.007-0.854,1.045-1.587
	c0.482,0.625,0.528,1.361,0.527,2.107c-0.174,0.182-0.346,0.364-0.518,0.546C40.171,19.293,39.938,19.753,39.334,19.388z"/>
<path fill="#D7A557" d="M48.875,15.713c0.001,0.352,0.004,0.702,0.005,1.053c-2.258-1.526-4.274-0.172-6.346,0.53
	c0.354-1.408-0.226-2.952,0.817-4.284c1.102-1.408,2.084-1.808,3.287-0.179C47.361,13.81,48.128,14.754,48.875,15.713z"/>
<path fill="#E4B671" d="M16.606,20.962c0.015-0.168,0.026-0.337,0.035-0.506c0.909-1.256,2.438-0.695,3.597-1.228
	c0.301-0.029,0.601-0.023,0.9,0.018c2.934,1.177,3.062,1.731,1.219,5.307c-0.931,0.547-1.851,1.157-2.997,0.566
	c-0.247-0.195-0.41-0.445-0.49-0.749c-0.069-0.484,0.106-0.889,0.414-1.249c0.952-0.472,0.839-1.05,0-1.412
	C18.44,21.347,17.503,21.202,16.606,20.962z"/>
<path fill="#DEB778" d="M19.284,23.123c-0.001,0.35-0.003,0.7-0.004,1.049c-0.613,0.995-1.782,0.568-2.607,1.021
	c-0.531,0.02-1.063,0.039-1.594,0.058c-0.006-0.184-0.013-0.368-0.019-0.552C16.189,23.426,17.856,23.594,19.284,23.123z"/>
<path fill="#C79A51" d="M20.328,19.91c-1.133,0.829-2.449,0.426-3.687,0.546c-0.622-1.972,1.828-1.401,2.147-2.594
	c2.396-1.601,4.694-0.911,6.968,0.3c-0.111,0.46-0.428,0.719-0.854,0.868c-0.65,0.142-1.316,0.106-1.974,0.126
	C22.021,19.26,20.983,18.923,20.328,19.91z"/>
<path fill="#DFB471" d="M25.674,18.316c-2.261-0.668-4.529-1.239-6.886-0.454c-0.371-0.022-0.741-0.044-1.112-0.067
	c0.194-0.328,0.388-0.655,0.583-0.981c0.339-0.017,0.678-0.035,1.017-0.052c2.924-0.483,5.723,0.039,8.459,1.057l0.004,0.019
	c0.17,0.294,0.132,0.557-0.115,0.791C26.886,19.08,26.223,19.057,25.674,18.316z"/>
<path fill="#D9B070" d="M18.227,29.982c-0.531-0.347-1.063-0.694-1.594-1.041c1.461-0.914,3.232-0.728,4.777-1.349
	c1.733-0.534,3.47-1.033,5.316-0.883c0.28,0.104,0.513,0.273,0.699,0.506c0.579,2.304-1.684,1.963-2.641,2.839
	c-0.433,0.136-0.875,0.101-1.317,0.064C21.717,30.219,19.961,30.496,18.227,29.982z"/>
<path fill="#E8C791" d="M21.401,31.05c0.35-0.002,0.699-0.004,1.048-0.006c0.495,0.527,1.313-0.093,1.788,0.506
	c0.341,0.692,0.104,1.302-0.271,1.894c-0.448,0.408-0.939,0.559-1.507,0.252l-0.006-0.02c-0.542-0.42-1.475-0.186-1.751-1.047
	C20.577,31.944,21.097,31.544,21.401,31.05z"/>
<path fill="#CDA15C" d="M21.383,28.392c-1.422,1.578-3.134,0.65-4.75,0.549c-0.19-0.175-0.38-0.351-0.57-0.526
	c0,0.001,0.101-0.025,0.101-0.025C17.904,27.931,19.644,27.304,21.383,28.392z"/>
<path fill="#DFC38F" d="M21.401,31.05c-0.177,0.524-0.353,1.048-0.529,1.572c-0.087,0.101-0.175,0.198-0.262,0.298
	c-1.237,0.395-2.352,0.41-3.007-0.98c0.037-0.126,0.074-0.253,0.111-0.38C18.968,31.57,20.229,31.623,21.401,31.05z"/>
<path fill="#E1BF86" d="M24.039,31.566c-0.53-0.174-1.059-0.348-1.589-0.522c0.354-0.179,0.708-0.357,1.063-0.535
	c0.088-0.102,0.176-0.204,0.264-0.307c1.006-0.132,1.912-1.278,3.029-0.3c0.119,0.27,0.141,0.546,0.068,0.832
	C26.165,31.816,25.331,32.473,24.039,31.566z"/>
<path fill="#DCB575" d="M18.227,29.982c1.774-0.077,3.589,0.253,5.294-0.521c0.304,0.352,0.303,0.701-0.009,1.048l0,0
	C21.749,30.351,19.913,30.917,18.227,29.982z"/>
<path fill="#E0C697" d="M17.146,31.582c-0.517-0.182-1.034-0.365-1.551-0.547c0.014-0.361,0.027-0.723,0.041-1.084
	c0.943,0.213,1.591,0.807,2.078,1.609l-0.025,0.008C17.515,31.837,17.334,31.829,17.146,31.582z"/>
<path fill="#D09F53" d="M21.383,28.392c-1.74-0.001-3.48-0.002-5.22-0.003c0.171-0.346,0.341-0.691,0.511-1.038
	c1.114,0.235,2.194,0.26,3.144-0.512c0.683-0.551,0.861-1.625,1.885-1.836c1.078-0.048,2.159-0.076,3.239,0.003
	c0.814,0.207,1.634,0.396,2.28,0.989c0.365,0.668,0.007,1.042-0.544,1.337C24.918,27.71,23.217,28.383,21.383,28.392z"/>
<path fill="#A77528" d="M25.083,25.738c-1.235,0.025-2.47,0.05-3.706,0.076c-0.429,0.43-0.917,0.699-1.55,0.563
	c-0.518-0.059-1.035-0.119-1.553-0.177c-0.341-0.254-0.392-0.59-0.277-0.974c0.293-0.499,0.79-0.519,1.283-0.547
	c0.89-0.162,1.779-0.323,2.668-0.484c0.304-0.304,0.643-0.551,1.053-0.69c1.034-0.274,1.984,0.043,2.927,0.414
	c0.272,0.125,0.498,0.306,0.681,0.542C27.188,26.185,26.347,26.214,25.083,25.738z"/>
<path fill="#B38946" d="M18.244,25.25c0.01,0.317,0.02,0.633,0.031,0.95c-0.699,0.191-1.398,0.383-2.097,0.574
	c-0.45-1.053,0.626-1.042,1.041-1.492C17.55,24.92,17.893,24.959,18.244,25.25z"/>
<path fill="#E9B66B" d="M19.827,26.376c0.517-0.188,1.033-0.375,1.55-0.563c0.164,1.381-0.921,0.864-1.56,1.026
	C19.82,26.685,19.823,26.531,19.827,26.376z"/>
<path fill="#E9BF7C" d="M18.244,25.25c-0.341,0.011-0.683,0.021-1.025,0.032c-0.182-0.029-0.364-0.059-0.546-0.088
	c0.625-0.966,1.599-1.037,2.607-1.021c-0.001,0.169,0,0.338,0,0.507C18.935,24.869,18.589,25.059,18.244,25.25z"/>
<path fill="#D8A75E" d="M47.827,22.05c2.006-0.115,3.278-0.961,3.176-3.182c0.901,1.081,1.386,2.153,0.222,3.406
	c-1.302,1.398-0.004,2.739,0.192,4.103c-0.752,0.9-1.64,0.711-2.554,0.323c-0.594-0.278-1.188-0.554-1.814-0.76
	c-0.253-0.102-0.465-0.257-0.645-0.46c-0.159-0.219-0.258-0.464-0.301-0.73c0.153-0.987-0.332-2.125,0.67-2.92
	C47.168,21.692,47.527,21.73,47.827,22.05z"/>
<path fill="#B17D2A" d="M48.959,25.708c0.818,0.223,1.639,0.446,2.458,0.669c0.192,0.165,0.388,0.329,0.581,0.494
	c0.008,0.14-0.005,0.277-0.036,0.414c-1.578,1.418-2.944,0.717-4.267-0.426C47.455,25.747,47.79,25.27,48.959,25.708z"/>
<path fill="#D9A85B" d="M39.334,19.388c0.365-0.164,0.73-0.329,1.098-0.493c0.006,0.188,0.012,0.376,0.019,0.565
	c0.457,1.199-0.306,2.071-1.026,2.7c-1.324,1.156-1.464,2.44-0.962,3.957c0.131,0.634,0.665,0.972,1.05,1.42
	c0.28,0.413,0.559,0.827,0.596,1.347c0.013,0.257,0.004,0.511-0.021,0.767c-0.07,0.401-0.27,0.719-0.607,0.946
	c-1.48,0.404-1.813-1.179-2.807-1.62c-0.41-0.331-0.873-0.587-1.311-0.881C33.725,27,32.658,25.767,34.37,23.85
	c0.407-0.457,0.356-1.167,0.616-1.727c0.109-0.236,0.265-0.441,0.447-0.625c0.933-0.565,1.83-1.202,2.877-1.562
	C38.65,19.754,38.992,19.571,39.334,19.388z"/>
<path fill="#B57E28" d="M41.482,19.426c1.134-0.654,2.322-1.136,3.654-1.173c0.793-0.548,1.627-0.433,2.473-0.155
	c1.455,1.689,1.396,1.836-1.172,2.938c-0.576,0.239-1.176,0.442-1.623,0.92c-0.198,0.166-0.424,0.28-0.666,0.366
	c-0.254,0.055-0.508,0.105-0.76,0.169c-0.646,0.251-1.293,0.44-1.963,0.082C39.866,21.496,40.372,20.455,41.482,19.426z"/>
<path fill="#C78D36" d="M41.482,19.426c-0.194,0.949-0.643,1.948,0.522,2.627c0.241,0.32,0.169,0.646,0.022,0.974
	c-0.303,0.453-0.594,0.917-0.842,1.407c-0.361,0.444-0.429,1.058-0.832,1.48c-0.254,0.257-0.494,0.531-0.818,0.707
	c-0.567,0.307-1.199,0.114-1.792,0.235c-1.397-1.878-0.763-3.556,0.553-5.123c0.669-0.798,1.433-1.518,2.151-2.272
	C40.794,19.448,41.139,19.437,41.482,19.426z"/>
<path fill="#C89241" d="M47.814,18.365c-0.893-0.037-1.785-0.073-2.678-0.111c0.461-0.909,1.307-0.932,2.159-0.94
	c3.19,1.484,3.399,2.313,1.058,4.203c-1.396-0.402-3.033,1.061-4.275-0.546c0.543-0.169,1.085-0.338,1.627-0.507
	c0.523-0.475,1.191-0.112,1.757-0.298C48.609,19.785,48.915,19.204,47.814,18.365z"/>
<path fill="#D59B44" d="M44.078,20.97c1.431,0.143,2.934-0.272,4.275,0.546c-0.176,0.178-0.353,0.355-0.526,0.533
	c-0.354,0.001-0.708,0.002-1.062,0.003c-1.195,0.628-2.326,0.873-3.182-0.533C43.749,21.336,43.914,21.153,44.078,20.97z"/>
<path fill="#D19C4B" d="M39.361,29.458c0.002-0.179,0.004-0.359,0.007-0.539c0.342-0.482,0.674-0.973,1.069-1.417
	c0.752-0.819,1.061-2.051,2.269-2.45c0.925-0.093,1.849-0.2,2.746,0.143c0.215,0.131,0.394,0.306,0.532,0.508
	c0.289,0.628,0.764,0.996,1.482,1.013c0.117,0.004,0.23,0.01,0.346,0.015c1.385,0.17,2.719,0.731,4.149,0.553
	c0.031,0.191,0.063,0.383,0.095,0.574c-0.181,0.353-0.361,0.707-0.541,1.06c-0.684,0.486-1.463,0.234-2.201,0.291
	c-0.512,0.004-1.02,0.027-1.525,0.085c-0.809,0.02-1.455,0.553-2.223,0.703C43.535,29.388,41.294,31.188,39.361,29.458z"/>
<path fill="#DCB06C" d="M39.367,51.12c-0.706-0.304-1.413-0.121-2.12-0.007c0.062-1.227-1.007-1.779-1.574-2.631
	c0.222-0.416,0.581-0.633,1.029-0.727c1.302,0.027,2.598-0.508,3.903-0.039c0.498,0.426,0.563,1.01,0.59,1.607
	c-0.018,0.719,0.172,1.479-0.403,2.09c-0.123,0.078-0.247,0.156-0.371,0.232C40.068,51.473,39.718,51.296,39.367,51.12z"/>
<path fill="#EBC07C" d="M36.718,48.464c-0.349,0.007-0.696,0.013-1.046,0.019c-0.354-0.002-0.708-0.004-1.063-0.004
	c-0.528-0.015-1.057-0.025-1.586-0.039c0.174-0.336,0.349-0.674,0.521-1.01c0.01-0.162,0.014-0.324,0.016-0.486
	c0.293-0.352,0.646-0.604,1.111-0.672c0.695-0.021,1.346,0.236,2.023,0.336c0.664,0.095,1.545,0.103,1.584,0.972
	C38.325,48.633,37.105,47.906,36.718,48.464z"/>
<path fill="#E1BC7F" d="M35.137,55.344c0,0.881,0,1.762-0.002,2.643c-0.352-0.002-0.703-0.002-1.057-0.004
	c0.001-1.055,0.001-2.11,0.002-3.166C34.432,54.991,34.784,55.167,35.137,55.344z"/>
<path fill="#CA9D56" d="M34.611,46.9c-0.352,0.015-0.701,0.027-1.053,0.041c-0.17-0.541-0.34-1.084-0.51-1.627
	c-0.059-0.367-0.025-0.717,0.18-1.039c0.242-0.276,0.522-0.504,0.858-0.658c0.233-0.074,0.474-0.12,0.718-0.139
	c0.482-0.016,0.967-0.037,1.444,0.056c0.444,0.151,0.823,0.422,1.203,0.688c0.173,0.139,0.327,0.297,0.465,0.471
	c0.194,0.269,0.419,0.513,0.681,0.725c0.524,0.346,1.02,0.711,0.885,1.459c-0.178,0.221-0.402,0.355-0.68,0.41
	C37.424,46.941,35.969,47.453,34.611,46.9z"/>
<path fill="#D7B57D" d="M33.584,44.799c-0.18,0.172-0.355,0.344-0.534,0.516c-1.421,0-2.842-0.002-4.263-0.004
	c-0.354-0.174-0.708-0.35-1.062-0.523c-0.174-0.284-0.155-0.557,0.056-0.813c0.342-0.33,0.768-0.44,1.225-0.47
	C30.591,43.725,32.336,43.384,33.584,44.799z"/>
<path fill="#EECD91" d="M29.854,47.945c0.002-0.357,0.005-0.715,0.008-1.072c0.518-0.006,1.034-0.014,1.552-0.02
	C31.717,48.395,30.486,47.742,29.854,47.945z"/>
<path fill="#DCB472" d="M27.729,44.251c-0.001,0.179-0.003,0.356-0.004,0.535c-0.912-0.005-1.835-0.063-2.634,0.512
	c-2.876-0.276-2.653-3.313-4.229-4.75c0.179-0.353,0.358-0.702,0.538-1.054c0.59-0.372,0.946-0.902,1.066-1.59
	c0.334-0.518,0.699-0.938,1.368-0.465c0.892,1.47,0.494,3.188,0.909,4.744C25.081,43.818,27.186,42.913,27.729,44.251z"/>
<path fill="#BA8F48" d="M24.549,46.372c-0.874-0.004-1.749-0.009-2.623-0.013C22.804,45.744,23.679,45.684,24.549,46.372z"/>
<path fill="#D4B176" d="M23.511,37.375c-0.348,0.178-0.696,0.354-1.043,0.529c0.363-1.693-0.695-1.24-1.581-1.049
	c0.362-0.826,0.764-1.623,1.567-2.125C24.343,34.887,24.546,35.396,23.511,37.375z"/>
<path fill="#DCB87C" d="M23.511,37.375c-0.045-1.004,0.177-2.115-1.057-2.645c0.003-0.172,0.006-0.342,0.01-0.515
	c0.961-0.75,1.989-0.604,3.032-0.229c0.863,0.389,1.596,1.123,2.658,1C28.697,34.999,29.236,35,29.78,35
	c1.607,0.188,3.316-0.471,4.813,0.592c-0.192,2.417-2.221,1.135-3.348,1.664c-0.527,0.08-1.05,0.193-1.563,0.336
	c-0.237,0.057-0.479,0.113-0.716,0.174c-0.664,0.315-1.548,0.157-1.976,0.916c0.374,0.809,1.028,0.36,1.568,0.377
	c1.162-0.189,2.344-0.76,3.439,0.195c0.503,1.521-0.954,1.792-1.631,2.561c-1.252,0.492-2.463,1.125-3.853,1.16
	c-1.003-0.002-1.948,0.814-2.994,0.213C23.517,41.25,23.513,39.313,23.511,37.375z"/>
<path fill="#DBBD88" d="M25.622,34.74c-1.053-0.174-2.105-0.35-3.158-0.523c-0.002-0.174-0.004-0.348-0.004-0.521
	c0.35-0.182,0.7-0.364,1.049-0.549c0.515-0.875,1.227-1.452,2.281-1.515C28.083,32.795,26.17,33.73,25.622,34.74z"/>
<path fill="#E9CC99" d="M20.872,32.622c0.736,0.038,1.328,0.291,1.582,1.054c-0.702,0.529-1.403,1.061-2.104,1.592
	c-0.003-0.527-0.007-1.057-0.011-1.584c-0.347-0.615,0.219-0.771,0.529-1.055L20.872,32.622z"/>
<path fill="#E1C99C" d="M20.867,32.629c-0.176,0.352-0.353,0.703-0.529,1.055c-0.528,0.002-1.055,0.002-1.583,0.002
	c-0.81-0.492-1.409-1.146-1.609-2.104c0.181-0.004,0.362-0.01,0.542-0.014C18.479,32.729,19.696,32.609,20.867,32.629z"/>
<path fill="#D7AF6E" d="M53.107,38.953c-0.002,0.355-0.004,0.712-0.008,1.068c-0.707-1.49-1.007-3.11-1.744-4.629
	c-0.992-2.045,0.545-3.792,1.742-5.416C52.521,32.971,53.119,35.961,53.107,38.953z"/>
<path fill="#D7A456" d="M39.361,29.458c2.156,0.336,4.136-1.444,6.342-0.531c1.912,0.461,4.044-0.3,5.798,1.043
	c-0.171,0.179-0.343,0.358-0.515,0.537c-2.106,1.674-4.988,1.571-7.151,3.12c-0.392,0.152-0.786,0.166-1.183,0.053
	c-0.236-0.084-0.446-0.221-0.631-0.391c-0.304-0.467-0.715-0.809-1.27-0.968c-0.689-0.272-1.089-0.81-1.344-1.476
	c-0.018-0.113-0.033-0.226-0.049-0.339C39.359,30.157,39.359,29.808,39.361,29.458z"/>
<path fill="#D5A458" d="M50.986,37.377c1.111,2.727,2.627,5.4,1.062,8.462c-0.463,0.349-0.726,0.985-1.429,0.991
	c-0.404-0.01-0.745-0.163-1.027-0.454c-1.158-1.491,1.118-2.603,0.445-4.039c0.363-2.146-1.249-2.508-2.715-3.008
	c-0.674-0.858-1.698-1.613-0.831-2.91c0.653-0.513,1.011-0.103,1.329,0.429l0,0C48.736,37.852,49.982,36.895,50.986,37.377z"/>
<path fill="#D8A85C" d="M43.592,33.146c0.104-0.631,0.285-1.402,0.983-1.389c2.241,0.043,4.169-1.403,6.411-1.251
	c-0.687,2.035-2.545,2.198-4.225,2.646c-0.506,0.391-0.258,1.089-0.621,1.543c-0.154,0.211-0.347,0.369-0.576,0.488
	c-0.392,0.144-0.778,0.131-1.164-0.021C43.736,34.65,43.139,34.107,43.592,33.146z"/>
<path fill="#DEB067" d="M45.721,34.725c-0.271-0.596-0.541-1.19-0.822-1.809c0.695-0.492,1.258,0.064,1.865,0.236
	c0.748,0.717,2.366,0.248,2.502,1.771c0.088,0.983-0.613,1.292-1.443,1.399C47.01,35.938,45.708,36.195,45.721,34.725z"/>
<path fill="#CA984A" d="M51.501,29.97c-1.985-0.05-4.063,0.396-5.798-1.043c0.64-0.492,1.388-0.529,2.148-0.513
	c0.515,0.485,1.027,0.55,1.537-0.008c0.709,0.171,1.418,0.342,2.127,0.513C51.512,29.269,51.506,29.619,51.501,29.97z"/>
<path fill="#D8AC65" d="M50.99,46.363c0.134-0.616,0.523-0.713,1.058-0.524c-0.001,1.229-0.002,2.459-0.002,3.688
	c-0.463,0.334-0.919,0.322-1.368-0.023C49.798,48.357,50.145,47.336,50.99,46.363z"/>
<path fill="#D4A75E" d="M50.986,49.527c0.354,0,0.707,0,1.06,0c0.353,0.178,0.703,0.354,1.056,0.531
	c-0.004,0.529-0.008,1.062-0.012,1.59c-1.029-0.426-1.938-1.209-3.16-1.064C49.782,49.73,50.113,49.357,50.986,49.527z"/>
<path fill="#D8A85D" d="M50.986,37.377c-1.176,0.547-2.295,0.745-3.166-0.529C48.854,37.16,50.152,35.877,50.986,37.377z"/>
<path fill="#D8A85C" d="M45.721,34.725c0.7,0.533,1.4,1.066,2.102,1.598c0,0.177-0.002,0.352-0.002,0.525
	c-0.354-0.175-0.709-0.35-1.063-0.525c-1.202,0.058-1.558-0.465-1.071-1.563L45.721,34.725z"/>
<path fill="#E0B065" d="M50.986,49.527c-0.353,0.353-0.705,0.703-1.059,1.057c-1,1.027-1.687,2.191-1.593,3.693
	c-0.669-1.073-0.517-2.692-2.101-3.157c-0.049-0.116-0.098-0.231-0.147-0.349c1.054-1.528,2.163-3.013,3.468-4.34
	c0.123-0.027,0.245-0.057,0.368-0.086c0.354,0.006,0.711,0.012,1.065,0.018C50.988,47.418,50.988,48.475,50.986,49.527z"/>
<path fill="#D8AD69" d="M43.063,55.872c-0.176,0-0.354-0.001-0.529-0.002c-0.704-1.407-1.408-2.813-2.111-4.222l0.006-0.018
	c0.385-0.363,0.829-0.54,1.362-0.453c1.071,0.436,1.581-0.421,2.216-0.988c0.357-0.194,0.735-0.242,1.133-0.164
	c0.574,0.152,0.813,0.645,1.098,1.088l0.002,0.007c-0.354,0.879-0.706,1.758-1.061,2.637c0.01,0.445-0.068,0.847-0.527,1.06
	C44.12,55.168,43.592,55.521,43.063,55.872z"/>
<path fill="#E0B876" d="M44.648,54.816c0.176-0.354,0.353-0.707,0.527-1.061c1.133,0.846,2.879,1.182,2.639,3.17
	C46.139,57.154,43.916,58.202,44.648,54.816z"/>
<path fill="#E4BA7A" d="M36.717,19.407c0.006,0.185,0.014,0.371,0.02,0.557c0.604,0.905-0.223,1.429-0.557,2.083l0.004-0.003
	c-0.436,0.903-0.627,2.361-2.047,1.813c-1.781-0.687-0.814-2.195-0.621-3.42c0.264-0.388,0.573-0.676,1.096-0.5
	C35.408,20.138,36.132,20.051,36.717,19.407z"/>
<path fill="#ECC78E" d="M29.339,18.339c-0.004-0.346-0.009-0.693-0.013-1.039c0.688,0.017,1.382-0.014,2.063,0.063
	c1.113,0.124,1.339,0.646,0.567,1.51c-0.117,0.252-0.297,0.446-0.539,0.582c-0.532,0.195-1.056,0.194-1.566-0.073
	C29.506,19.119,29.323,18.778,29.339,18.339z"/>
<path fill="#E0BD83" d="M31.414,18.903c0.181-0.01,0.361-0.02,0.542-0.03c1.024,0.006,2.019,0.088,2.653,1.064
	c-0.176,0.176-0.352,0.353-0.526,0.529C32.691,20.799,31.326,21.092,31.414,18.903z"/>
<path fill="#E0B675" d="M29.339,18.339c0.177,0.177,0.353,0.354,0.528,0.531c-0.142,0.685-0.738,0.815-1.261,1.037
	c-0.231,0.031-0.458,0.009-0.679-0.062c-0.205-0.111-0.359-0.273-0.473-0.477c-0.087-0.354-0.012-0.666,0.248-0.929
	c0.012-0.201,0.025-0.401,0.038-0.602C28.272,18.004,28.806,18.172,29.339,18.339z"/>
<path fill="#D8A960" d="M36.18,22.047c0.186-0.694,0.37-1.39,0.557-2.084c0.523-0.008,1.049-0.017,1.572-0.025
	C37.6,20.641,36.891,21.344,36.18,22.047z"/>
<path fill="#D59E4A" d="M22.981,24.144c-0.344,0.017-0.688,0.033-1.033,0.05c0.179-1.567,1.68-3.467-1.08-4.295
	c-0.041-1.072,0.769-0.924,1.425-0.996c0.824,0.071,1.629,0.281,2.455,0.341c1.212,0.438,2.458,0.775,3.64,1.303
	c0.38,0.223,0.729,0.487,1.102,0.713c0.943,0.57,1.316,1.375,0.98,2.438c-0.316,1.001-1.17,1.156-2.066,1.302
	c-0.813,0.132-1.554-0.083-2.315-0.26c-0.156,0.002-0.312-0.013-0.464-0.046C24.819,24.152,24.137,23.014,22.981,24.144z"/>
<path fill="#BC8C40" d="M22.45,19.404c-0.527,0.166-1.054,0.331-1.581,0.495c-0.18,0.003-0.36,0.007-0.541,0.011
	c-0.845-2.634,1.382-1.062,2.11-1.542C22.761,18.71,22.783,19.055,22.45,19.404z"/>
<path fill="#C3903F" d="M27.752,21.015c-1.149-0.099-2.237-0.384-3.189-1.069c-0.42-0.53-0.428-1.056,0.015-1.578
	c0.366-0.017,0.731-0.035,1.097-0.052c0.676,0.04,1.352,0.081,2.028,0.123c0.028,0.311,0.057,0.622,0.085,0.933l-0.13,0.171
	l0.15-0.163c0.155-0.031,0.311-0.052,0.468-0.061c0.288-0.142,0.53-0.086,0.728,0.166C29.265,20.55,28.916,21.115,27.752,21.015z"/>
<path fill="#C89445" d="M24.578,18.368c-0.005,0.526-0.01,1.052-0.015,1.578c-0.704-0.181-1.408-0.361-2.112-0.542
	c-0.003-0.345-0.007-0.69-0.012-1.036C23.152,18.368,23.865,18.368,24.578,18.368z"/>
<path fill="#D8A960" d="M28.761,19.448c-0.166-0.03-0.328-0.073-0.485-0.129c0.53-0.15,1.061-0.3,1.592-0.449
	c0.516,0.011,1.031,0.022,1.547,0.033c0.612,0.996,1.754,1.086,2.669,1.563c-0.008,0.263-0.038,0.528-0.02,0.789
	c0.049,0.661-0.484,1.549,0.306,1.926c0.989,0.474,1.224-0.713,1.813-1.137c-0.027,0.346,0.082,0.825-0.104,1.019
	c-2.284,2.386-0.9,3.925,1.172,5.329c-0.111,0.248-0.285,0.442-0.52,0.581c-0.496,0.203-1.006,0.199-1.521,0.106
	c-2.335-1.113-4.738-1.874-7.376-1.361c-0.235-0.077-0.441-0.203-0.622-0.371c-0.178-0.005-0.355-0.009-0.534-0.014
	c0.179-0.35,0.358-0.699,0.538-1.048c0.153-1.113,1.021-1.31,1.902-1.456c1.227-0.204,1.827-0.919,1.827-2.15
	c0.318-1.171-0.39-1.696-1.313-2.085C29.191,20.326,29.135,19.767,28.761,19.448z"/>
<path fill="#DFBB80" d="M23.513,30.508c0.003-0.349,0.006-0.699,0.009-1.048c0.35-0.003,0.698-0.006,1.048-0.009
	c2.438-1.112,4.797-2.518,7.657-2.057c0.388,0.075,0.699,0.304,1.026,0.501c0.793,0.697,1.735,1.003,2.776,1.057
	c0.262,0.047,0.509,0.13,0.746,0.25c0.871,0.654,1.996,1.187,1.226,2.61c-0.188,0.209-0.417,0.36-0.683,0.454
	c-1.666,0.958-2.719-0.773-4.125-0.943c-1.483-0.236-2.558-2.068-4.351-1.124c-0.736,0.069-1.461,0.036-2.164-0.222
	C25.625,30.155,24.569,30.332,23.513,30.508z"/>
<path fill="#DCB575" d="M32.495,27.87c-2.707,0.202-5.313,0.91-7.926,1.582c0.54-1.13,2.226-0.821,2.643-2.105
	c0.171-0.008,0.342-0.014,0.514-0.016C29.406,26.712,31.035,26.547,32.495,27.87z"/>
<path fill="#E3C38D" d="M25.625,32.094c-0.705,0.351-1.41,0.702-2.116,1.052c0.177-0.526,0.354-1.053,0.53-1.581
	c0.881-0.352,1.762-0.705,2.643-1.058c0.074,0.093,0.147,0.185,0.221,0.277C27.18,31.909,26.076,31.683,25.625,32.094z"/>
<path fill="#E3C38D" d="M26.68,29.978c0.627-0.484,1.365-0.532,2.115-0.533c-0.014,1.72-0.906,1.703-2.11,1.066l-0.003-0.003
	C26.681,30.331,26.681,30.155,26.68,29.978z"/>
<path fill="#D19D4C" d="M28.761,19.448c0.364,0.164,0.728,0.327,1.091,0.491c0.931,0.911,2.938,1.1,2.126,3.177
	c-0.679,2.422-3.009,2.361-4.761,3.168c-0.757-0.005-1.503-0.048-2.133-0.547c0.573-0.092,1.347,0.018,1.007-0.997
	c0.327-0.125,0.657-0.245,0.981-0.378c0.846-0.348,2.18,0.128,2.494-1.054c0.36-1.354-1.194-1.526-1.814-2.294
	C28.313,20.638,28.676,20.133,28.761,19.448z"/>
<path fill="#CD9844" d="M22.981,24.144c0.252-0.713,0.683-1.311,1.489-1.264c1.127,0.064,0.78,1.197,1.155,1.815
	C24.744,24.512,23.863,24.328,22.981,24.144z"/>
<path fill="#E1AB5C" d="M43.585,21.52c1.083,0.042,2.203-0.141,3.181,0.533c0.445,0.929,1.702,1.896-0.129,2.715
	c-0.697,0.624-1.496,0.448-2.294,0.297C42.425,24.238,42.393,23.009,43.585,21.52L43.585,21.52z"/>
<path fill="#B17D2A" d="M45.639,25.785c-1.035-0.004-2.068-0.009-3.104-0.013c-0.571,0.007-0.842-0.356-0.65-0.818
	c0.408-0.983,1.225-0.756,2.002-0.515c0.859,0.784,2.043,0.275,2.982,0.742c0.141,0,0.279,0.018,0.415,0.054
	C47.091,26.48,46.359,26.118,45.639,25.785z"/>
<path fill="#B07F31" d="M45.639,25.785c0.549-0.184,1.098-0.368,1.646-0.551c0.558,0.159,1.116,0.317,1.675,0.475
	c-0.54,0.163-0.941,0.48-1.145,1.022v0.172c-0.896,0.424-1.645,0.397-2.045-0.676C45.736,26.076,45.693,25.929,45.639,25.785z"/>
<path fill="#AF7E2E" d="M46.868,25.18c-0.948,0.041-1.901,0.114-2.753-0.445c0.14-0.257,0.313-0.295,0.525-0.082
	c0.666,0.039,1.33,0.076,1.994,0.114C46.713,24.906,46.791,25.043,46.868,25.18z"/>
<path fill="#B67F28" d="M37.744,26.855c0.105-0.842-0.186-1.74,0.424-2.667c0.956,0.411,0.568,1.582,1.186,2.115
	c0.473,0.764,0.615,1.418-0.547,1.638C38.452,27.578,38.098,27.217,37.744,26.855z"/>
<path fill="#DAAD66" d="M36.723,28.395c0.176-0.001,0.354-0.002,0.529-0.003c1.123,0.285,1.376,1.438,2.107,2.115l0.002,0.003
	c0.486,0.728,1.49,1.396,0.264,2.32c-0.598,0.124-1.002-0.178-1.348-0.608c-0.123-0.224-0.195-0.466-0.223-0.72
	c0.123-0.887-0.477-1.344-1.078-1.799C36.693,29.306,36.369,28.917,36.723,28.395z"/>
<path fill="#C7903B" d="M38.807,27.94c0.184-0.546,0.364-1.092,0.547-1.638c0.006-0.361,0.012-0.721,0.018-1.083
	c2.477,0.078,1.574,1.853,1.591,3.167c-0.53,0.178-1.063,0.355-1.593,0.533C39.182,28.593,38.993,28.267,38.807,27.94z"/>
<path fill="#D59B44" d="M40.961,28.387c-0.529-1.055-1.061-2.111-1.591-3.167c0.174-0.528,0.347-1.056,0.521-1.584
	c0.481-0.423,1.18-0.521,1.59-1.051c0.176-0.178,0.352-0.355,0.525-0.533c0.526-0.178,1.055-0.356,1.58-0.534
	c-0.038,1.177,0.057,2.308,1.057,3.135c-0.177,0.026-0.352,0.054-0.526,0.081c-0.681,0.113-1.874-0.56-1.581,1.037
	C42.518,26.949,41.713,27.652,40.961,28.387z"/>
<path fill="#BC852F" d="M47.814,18.365c0.607,0.273,1.145,0.714,0.735,1.382c-0.668,1.096-1.858,0.605-2.846,0.716
	C46.332,19.688,48.309,20.268,47.814,18.365z"/>
<path fill="#D0933B" d="M41.48,22.585c-0.258,0.763-0.851,1.019-1.592,1.051C40.262,23.045,40.792,22.696,41.48,22.585z"/>
<path fill="#E3AC5A" d="M45.77,26.227c0.682,0.225,1.362,0.45,2.045,0.676c-1.36,1.498-2.689,0.629-4.129,0.053
	C44.225,25.916,45.111,26.439,45.77,26.227z"/>
<path fill="#BA8532" d="M49.391,28.405c0.104,0.452,0.113,0.892-0.49,0.923c-0.604,0.031-0.879-0.403-1.049-0.916
	C48.363,28.411,48.877,28.408,49.391,28.405z"/>
<path fill="#DAA85D" d="M45.176,50.59c-0.349-0.002-0.699-0.003-1.048-0.004c-0.506,0.053-0.985,0.258-1.502,0.255
	c-1.116,0.204-1.627-0.608-2.204-1.31c-0.003-0.525-0.005-1.053-0.008-1.577c-0.371-0.295-1.227-0.065-1.045-0.962l-0.016-0.145
	c0.336-0.525,0.822-0.742,1.434-0.701c0.271,0.015,0.533,0.074,0.783,0.179c0.736,1.554,2.338,1.233,3.604,1.649
	c0.367,0.264,0.572,0.627,0.662,1.063C45.891,49.673,45.756,50.227,45.176,50.59z"/>
<path fill="#E5B771" d="M40.422,49.531c0.883,0.176,1.764,0.353,2.645,0.527c1.033-0.101,0.859,0.717,0.719,1.174
	c-0.359,1.154-1.363,1.041-2.307,0.938c-0.351-0.18-0.701-0.357-1.051-0.537C40.425,50.932,40.424,50.23,40.422,49.531z"/>
<path fill="#E4B46C" d="M39.369,46.992c0.349,0.32,0.695,0.642,1.045,0.962c-1.178,0.575-2.439,0.524-3.696,0.51
	c0.068-0.341,1.529-0.612,0.097-1.005c-0.728-0.197-1.539-0.07-2.203-0.559C36.197,46.932,37.783,46.962,39.369,46.992z"/>
<path fill="#D7A352" d="M37.259,44.788c-0.356-0.185-0.712-0.368-1.067-0.552c-0.31-1.532-0.877-2.92-2.176-3.902
	c-0.513-0.389-0.861-0.834-0.512-1.521c2.971-1.526,4.077-0.961,4.949,2.527c0.262,1.249,1.004,2.607-0.764,3.403
	C37.547,44.758,37.402,44.773,37.259,44.788z"/>
<path fill="#E2B36C" d="M33.561,39.451c2.771,0.662,3.897,2.713,2.631,4.785c-0.526-0.002-1.053-0.002-1.58-0.004
	c-0.521-0.494-0.311-1.299-0.787-1.809c-0.155-0.16-0.278-0.341-0.391-0.529c-0.453-0.746-1.232-1.345-1.087-2.365
	c0.152-0.189,0.349-0.301,0.585-0.35C33.175,39.193,33.387,39.279,33.561,39.451z"/>
<path fill="#B17C2B" d="M40.979,46.84c-0.541,0.004-1.082,0.006-1.623,0.01c-0.521-0.18-1.041-0.357-1.562-0.537
	c-0.337-0.351-0.317-0.737-0.116-1.144c0.813-0.884,1.842-1.202,3.008-1.163c0.275,0.008,0.549,0.04,0.816,0.1
	c0.516,0.207,0.941,0.521,1.216,1.019C42.986,46.557,41.604,46.314,40.979,46.84z"/>
<path fill="#E0C089" d="M33.584,44.799c-1.621,0.021-3.23-0.052-4.79-0.556c-0.191-0.237-0.208-0.485-0.048-0.745
	c0.278-0.322,0.641-0.475,1.056-0.518c1.194-0.019,2.29,0.58,3.485,0.56c0.253,0.078,0.475,0.21,0.669,0.392
	c0.058,0.116,0.112,0.234,0.171,0.353C33.945,44.455,33.766,44.627,33.584,44.799z"/>
<path fill="#E5BE80" d="M35.141,41.605c0.826,1.078-0.084,1.806-0.529,2.627c-0.161,0.019-0.322,0.035-0.483,0.051l-0.095-0.061
	C33.154,42.822,33.529,41.952,35.141,41.605z"/>
<path fill="#BA8433" d="M40.963,44.764c-1.054,0.186-2.107,0.37-3.16,0.557c-0.199,0.182-0.392,0.166-0.576-0.022
	c0.012-0.17,0.021-0.34,0.032-0.509l0.007,0.001C38.496,44.455,39.711,42.035,40.963,44.764z"/>
<path fill="#B58436" d="M37.227,45.297c0.191,0.008,0.383,0.016,0.576,0.021c-0.004,0.332-0.006,0.662-0.009,0.994
	c-0.546-0.043-1.317,0.305-1.498-0.463C36.182,45.355,36.839,45.375,37.227,45.297z"/>
<path fill="#E4BE81" d="M28.793,43.721c0.001,0.174,0.001,0.348,0.001,0.522c-0.354,0.003-0.709,0.005-1.064,0.008
	c-1.426-0.269-3.163,0.694-4.21-1.063c0.804-0.537,1.606-1.078,2.636-1.051C26.619,43.355,28.343,42.479,28.793,43.721z"/>
<path fill="#E5C48D" d="M28.793,43.721c-0.973-0.371-2.95,0.928-2.638-1.584c1.309-0.092,2.516-0.539,3.7-1.063
	c1.863-0.861,3.729-1.744,5.282,0.525l0.004,0.006c-0.543,0.799-1.065,1.605-1.107,2.617c-0.167,0.006-0.334,0.008-0.501,0.008
	c-1.576-0.738-3.212-1.229-4.961-1.228c-0.367,0.063-0.089,0.485-0.102,0.134c-0.004-0.121,0.064-0.177,0.206-0.164
	c0.518,0.047,1.34-0.389,1.179,0.741C29.5,43.716,29.146,43.719,28.793,43.721z"/>
<path fill="#E0C492" d="M26.685,30.511c0.873-0.02,1.621-0.286,2.11-1.066c1.803-1.205,2.949,0.19,4.227,1.066
	c0.299,0.292,0.358,0.638,0.238,1.027c-0.295,0.507-0.808,0.791-1.317,0.675c-2.063-0.464-3.009,0.867-3.917,2.303
	c-0.135,0.424-0.272,0.851-0.264,1.305c-1.512,1.223-2.017,0.449-2.14-1.079c-0.333-0.884,0.837-1.765,0.003-2.646
	C25.978,31.566,26.332,31.039,26.685,30.511z"/>
<path fill="#EACC9A" d="M27.762,35.82c-0.923-0.16-1.802-0.352-1.074-1.612c2.342-0.481,4.413-1.716,6.681-2.417
	c1.898-0.01,2.715,0.906,2.402,2.793c-0.185,0.415-0.486,0.706-0.912,0.863c-1.836,0.191-3.719-0.311-5.529,0.347
	C28.808,35.803,28.285,35.813,27.762,35.82z"/>
<path fill="#D5AC69" d="M30.334,36.359c1.422-0.19,2.936,0.281,4.27-0.572c0.143-0.355,0.381-0.623,0.739-0.773
	c0.604-0.275,1.263-0.152,1.89-0.267c1.947-0.289,3.813-0.171,5.453,1.077c-0.367,1.707-2.014,1.421-3.104,2.001
	c-0.581-0.072-1.164-0.138-1.752-0.114c-1.711-0.121-3.348,0.646-5.068,0.439c-0.567-0.066-1.071-0.328-1.593-0.531
	C30.62,37.378,30.188,37.061,30.334,36.359z"/>
<path fill="#E1BB7D" d="M28.271,40.02c-1.438,0.681-2.507-0.348-3.64-0.875c-0.579-0.271-0.763-1.056-0.287-1.584
	c0.49-0.545,0.902,0.092,1.314,0.34c0.927-0.119,1.737,0.19,2.501,0.677C28.501,39.033,28.59,39.512,28.271,40.02z"/>
<path fill="#C8A05F" d="M27.716,39.012c-0.686-0.369-1.372-0.74-2.058-1.111c1.052-0.338,2.104-0.676,3.157-1.016
	c0.379,0.486,1.186,0.406,1.426,1.079c0.111,0.384,0.061,0.742-0.162,1.075C29.28,39.945,28.498,39.496,27.716,39.012z"/>
<path fill="#E5BE80" d="M35.137,41.602c-1.627-1.519-3.478-0.789-5.281-0.526c0.466-0.843,1.435-1.013,2.11-1.575
	c0.175-0.128,0.352-0.137,0.531-0.007C33.372,40.201,35.109,39.83,35.137,41.602z"/>
<path fill="#E0C08B" d="M35.161,35.277c-0.187,0.17-0.372,0.341-0.56,0.51c-1.758,0.004-3.516,0.006-5.272,0.008
	c1.67-0.951,3.45-0.822,5.249-0.543C34.783,35.033,34.979,35.041,35.161,35.277z"/>
<path fill="#D8AE6B" d="M32.497,39.492c-0.177,0.002-0.354,0.005-0.531,0.007c-1.232,0.173-2.464,0.347-3.695,0.521
	c-0.185-0.336-0.369-0.672-0.554-1.008c0.71-0.017,1.421-0.033,2.132-0.051c0.729-0.732,1.593-0.87,2.554-0.585
	c0.433,0.231,0.75,0.538,0.68,1.086C32.887,39.473,32.691,39.482,32.497,39.492z"/>
<path fill="#B58D49" d="M29.863,37.926c-0.648-0.046-1.319-0.07-1.048-1.041c0.161-0.029,0.324-0.049,0.489-0.059
	c0.709-0.121,1.402,0.629,2.119,0.037c0.367,0.168,0.735,0.338,1.103,0.508c0.101,0.521-0.198,0.785-0.627,0.966
	C31.167,38.461,30.462,38.46,29.863,37.926z"/>
<path fill="#AF8540" d="M31.424,36.863c-0.716,0.533-1.422,0.523-2.119-0.037c0.343-0.156,0.687-0.311,1.029-0.467
	C30.697,36.527,31.061,36.695,31.424,36.863z"/>
<path fill="#D3A65D" d="M39.382,32.627c0.483-0.71,0.074-1.412-0.021-2.117c0.529,0.351,1.058,0.702,1.586,1.053
	c0.842-0.118,1.099,0.643,1.586,1.057c0.003,0.18,0.007,0.36,0.01,0.541c0.309,0.375,0.307,0.765,0.061,1.168
	c-1.301,0.362-2.535,0.468-3.385-0.89C39.143,33.143,39.197,32.872,39.382,32.627z"/>
<path fill="#CC9749" d="M42.507,34.211c0.013-0.35,0.024-0.699,0.036-1.051c0.35-0.004,0.699-0.01,1.049-0.014
	c0.35,0.539,0.698,1.078,1.049,1.617c0.428,0.502,0.307,0.983-0.19,1.284c-0.696,0.423-1.304,0.203-1.741-0.478
	c-0.167-0.196-0.305-0.416-0.402-0.655C42.27,34.652,42.335,34.416,42.507,34.211z"/>
<path fill="#D9A85B" d="M42.533,32.619c-0.689-0.111-1.217-0.465-1.586-1.057c0.215-0.66,0.48-1.584,1.295-1.244
	C43.343,30.781,42.354,31.844,42.533,32.619z"/>
<path fill="#D29944" d="M42.587,34.715c0.671,0.609,1.334,1.551,2.054,0.049c0.348-0.002,0.696-0.004,1.045-0.006
	c0.131,0.676,0.485,1.199,1.07,1.564c-0.021,1.031,0.782,1.728,1.068,2.633c0.965,0.703,2.363,1.15,1.664,2.83
	c-0.123,0.24-0.303,0.434-0.531,0.576c-2.205-0.119-3.227-2.152-4.896-3.153c-0.901-0.54-1.647-0.843-2.627-0.774
	c-1.113-0.037-1.912-0.467-2.104-1.664c1.053-0.324,2.105-0.647,3.158-0.974C42.214,35.408,42.255,35.049,42.587,34.715z"/>
<path fill="#D29B47" d="M50.986,42.133c0.324,1.576-0.867,2.77-1.063,4.215l0.004,0.012c-1.08,0.969-1.465,2.81-3.396,2.718
	c-0.313-0.269-0.466-0.618-0.509-1.021c-0.037-0.521-0.092-1.154,0.312-1.461c1.496-1.136,1.979-2.8,2.521-4.451l0.041-0.022
	C49.598,41.531,50.293,41.563,50.986,42.133z"/>
<path fill="#D7A04C" d="M50.986,42.133c-0.696-0.004-1.396-0.007-2.092-0.012c0.123-1.219-0.674-2.124-1.07-3.166
	C50.007,38.891,51.068,39.943,50.986,42.133z"/>
<path fill="#D9A75C" d="M46.768,49.006c0.853-1.122,1.979-1.917,3.16-2.646c-0.589,2.084-2.084,3.463-3.693,4.754
	c-0.353-0.174-0.705-0.348-1.059-0.522c0-0.524-0.001-1.052-0.001-1.577C45.703,48.469,46.234,48.87,46.768,49.006z"/>
<path fill="#DDB26D" d="M41.479,52.17c0.707-0.57,2.478-0.34,1.588-2.109c0.635-0.391,0.89-0.017,1.063,0.525
	C44.313,52.855,43.703,53.221,41.479,52.17z"/>
<path fill="#B98531" d="M27.807,19.379c-0.665,0.378-1.33,0.839-2.171-0.137c0.837,0.05,1.494,0.089,2.151,0.129L27.807,19.379z"/>
<path fill="#DDB473" d="M32.495,27.87c-1.509-0.895-3.175-0.395-4.769-0.539c2.778-1.784,5.1-0.396,7.415,1.061
	c-0.09,0.098-0.18,0.195-0.27,0.292c-0.682,0.327-1.281,0.124-1.848-0.289C32.848,28.22,32.671,28.045,32.495,27.87z"/>
<path fill="#D1A157" d="M31.978,23.116c-0.709-1.059-1.417-2.118-2.126-3.177C32.843,20.692,33.191,21.214,31.978,23.116z"/>
<path fill="#DDB473" d="M36.723,28.395c0.176,0.352,0.353,0.704,0.527,1.056c-0.352,0.342-0.703,0.293-1.057,0.001l-0.002-0.002
	c-0.25-0.454-1.379-0.023-1.057-1.052l0.004-0.006C35.667,28.393,36.193,28.394,36.723,28.395z"/>
<path fill="#E0C08B" d="M35.121,34.729c0.05-1.471-0.938-2.121-2.088-2.646c-0.139-0.11-0.188-0.223-0.145-0.338
	c0.043-0.117,0.086-0.175,0.131-0.175c0.002-0.353,0.002-0.706,0.002-1.058c1.543-0.186,2.685,1.233,4.226,1.059
	c0.905,1.016,1.088,2.085,0.235,3.232C36.676,35.409,35.895,35.208,35.121,34.729z"/>
<path fill="#E7C085" d="M37.244,34.729c0.001-1.054,0.002-2.105,0.003-3.16c0.177-0.001,0.354-0.002,0.53-0.003
	c0.175-0.36,0.353-0.361,0.531-0.003l0,0c0.56,0.664,0.771,1.535,1.309,2.214c0.076,0.248,0.07,0.492-0.008,0.738
	c-0.58,0.67-1.321,0.641-2.094,0.486C37.426,34.912,37.335,34.82,37.244,34.729z"/>
<path fill="#DCB575" d="M35.137,28.397c0.352,0.351,0.703,0.701,1.057,1.052c-1.17-0.015-2.387,0.116-3.17-1.055
	C33.729,28.396,34.432,28.396,35.137,28.397z"/>
<path fill="#DEB677" d="M38.309,31.564c-0.178,0-0.354,0.001-0.531,0.002c-0.527-0.705-1.055-1.41-1.582-2.114
	c0.352,0,0.703,0,1.056-0.001C38.023,29.944,38.301,30.687,38.309,31.564z"/>
<path fill="#DEB677" d="M39.355,33.688c-0.586-0.59-0.912-1.31-1.047-2.123c0.356,0.354,0.715,0.709,1.072,1.063
	c0.003,0.173,0.008,0.347,0.012,0.519c0.166,0.133,0.215,0.258,0.148,0.373C39.479,33.631,39.416,33.688,39.355,33.688z"/>
<path fill="#9E6913" d="M40.979,46.84c0.194-0.859,1.012-1.059,1.599-1.499c0.094-1.03,0.897-1.532,1.579-2.129
	c0.207-0.178,0.443-0.296,0.709-0.36c2.601-0.199,2.876,0.223,2.076,3.168c-0.494,0.765-0.637,1.795-1.639,2.178
	c-0.266,0.021-0.533,0.027-0.8,0.016c-1.364,0.381-2.299-0.268-3.075-1.287C41.273,46.911,41.124,46.883,40.979,46.84z"/>
<path fill="#B17C2B" d="M41.428,46.925c1.086,0.353,2.174,0.706,3.262,1.06c0.176,0.127,0.226,0.24,0.149,0.336
	c-0.067,0.09-0.137,0.135-0.207,0.135C43.098,48.922,41.491,49.537,41.428,46.925z"/>
<path fill="#CD9848" d="M44.632,48.454c0.021-0.156,0.038-0.313,0.058-0.47c0.162-0.021,0.326-0.035,0.49-0.049
	c0.523-0.229,1.049-0.393,1.575-0.011c0.004,0.36,0.009,0.72,0.013,1.08c-0.529,0.431-1.062,0.242-1.593,0.007
	C44.994,48.826,44.813,48.641,44.632,48.454z"/>
<path fill="#D19943" d="M31.97,37.911c0.186-0.181,0.371-0.36,0.557-0.54c1.74-0.176,3.48-0.35,5.222-0.521
	c0.194,0.215,0.349,0.469,0.583,0.65c0.299,0.129,0.604,0.24,0.848,0.475c0.256,0.28,0.391,0.609,0.412,0.987
	c-0.117,1.146,0.211,2.378-0.691,3.358c-0.408,0.162-0.781,0.115-1.11-0.188c-0.552-2.247-1.296-4.188-4.228-2.681
	c-0.16,0.008-0.319,0.012-0.479,0.011c-0.188-0.17-0.376-0.34-0.563-0.51C32.2,38.676,31.638,38.527,31.97,37.911z"/>
<path fill="#D79B44" d="M37.788,42.132c0.351-0.001,0.7-0.001,1.052-0.002c0.727-1.169,1.938-1.12,3.086-1.231
	c0.768,0.123,1.276,0.554,1.528,1.287c0.125,1.172-0.702,1.881-1.313,2.696c-0.24,0.126-0.461,0.104-0.658-0.087
	c-0.174-0.016-0.346-0.025-0.52-0.031c-1.238-0.888-2.465,0.035-3.697,0.024C37.854,43.984,38.074,43.107,37.788,42.132z"/>
<path fill="#BA8433" d="M41.48,44.795c0.176-0.027,0.351-0.051,0.524-0.07c0.438-0.789,1.291-0.925,2.011-1.271
	c0.241,0.012,0.448,0.104,0.618,0.273c0,1.416-0.937,1.635-2.059,1.614C42.212,45.159,41.848,44.977,41.48,44.795z"/>
<path fill="#E8C893" d="M29.854,43.715c-0.363-0.216-0.726-0.432-1.089-0.646c2.372-0.65,2.885-0.525,4.768,1.164
	C32.266,44.346,31.06,44.027,29.854,43.715z"/>
<path fill="#E7CFA3" d="M33.021,31.569c0.004,0.172,0.008,0.343,0.013,0.514c-1.217,2.308-3.449,3.056-6.345,2.125
	c0.32-0.399,0.664-0.784,0.956-1.204C29.818,29.876,29.815,29.874,33.021,31.569z"/>
<path fill="#E7C085" d="M35.121,34.729c0.708,0,1.416,0.002,2.123,0.002l0.012,0.015c0.324,0.603-0.201,0.76-0.533,1.019
	c-0.521-0.162-1.041-0.322-1.562-0.484c-0.193-0.008-0.388-0.018-0.583-0.025C34.759,35.078,34.939,34.902,35.121,34.729z"/>
<path fill="#B77C20" d="M36.809,37.402c0.313-0.187,0.627-0.369,0.939-0.555c0.527-0.025,1.055-0.052,1.582-0.078
	c0.887,0.186,1.771,0.369,2.658,0.555c0.525-0.227,0.838,0.113,1.041,0.482c0.734,1.342,1.699,2.141,3.308,2.533
	c1.22,0.299,2.368,1.418,1.166,3.04c-0.706-0.132-1.28-0.749-2.073-0.562c-1.539,0.289-2.098-1.74-3.605-1.523
	c-1.842,0.277-2.254-1.227-2.957-2.365c-0.182-0.175-0.362-0.349-0.543-0.521C38.049,37.727,36.563,38.868,36.809,37.402z"/>
<path fill="#EEBB72" d="M36.723,35.762c0.178-0.34,0.355-0.679,0.533-1.018c0.766-0.004,1.52-0.055,2.148-0.568
	c1.137-0.363,2.131,0.023,3.093,0.581c0,0,0.089-0.041,0.09-0.041c-0.032,0.36-0.063,0.72-0.099,1.08
	C40.566,35.863,38.646,35.314,36.723,35.762z"/>
<path fill="#D5AC69" d="M31.97,37.911c0.182,0.348,0.364,0.694,0.545,1.041c-0.889,0.003-1.777,0.006-2.667,0.009
	c0.005-0.346,0.01-0.689,0.015-1.035C30.565,37.921,31.268,37.916,31.97,37.911z"/>
<path fill="#DAAD66" d="M42.497,34.757c-1.03-0.194-2.062-0.388-3.093-0.581c-0.018-0.162-0.034-0.326-0.049-0.488
	c0.013-0.182,0.023-0.361,0.037-0.543c1.039,0.355,2.076,0.711,3.114,1.066C42.504,34.393,42.501,34.575,42.497,34.757z"/>
<path fill="#C1862D" d="M47.299,43.193c0.45-0.947,0.213-2.053-0.744-2.021c-2.814,0.092-3.531-2.001-4.566-3.848
	c2.425,0.082,3.725,2.07,5.482,3.271c0.555,0.379,0.928,1.024,1.385,1.549c0.66,1.719,0.615,3.186-1.211,4.254
	c-0.442,0.258-0.601,1.006-0.89,1.527c-0.522,0.246-1.049,0.268-1.575,0.01c0.35-0.701,0.699-1.402,1.049-2.104
	C46.109,44.759,47.122,44.146,47.299,43.193z"/>
<path fill="#AF751B" d="M41.982,41.107c1.527-0.691,2.369,1.102,3.725,1.031c0.281,0.682-0.247,1.088-0.531,1.577
	c-0.181,0.003-0.359,0.007-0.539,0.011c-0.171,0-0.341-0.002-0.511-0.004c-0.694,0.008-1.237-0.148-1.124-1.027
	c-0.337-0.359-0.674-0.721-1.011-1.08c-0.188-0.109-0.253-0.221-0.192-0.334C41.859,41.166,41.921,41.107,41.982,41.107z"/>
<path fill="#AA7218" d="M45.176,43.717c0.178-0.525,0.354-1.052,0.531-1.576c0.529,0.352,1.061,0.703,1.592,1.055
	c0.032,1.037-0.525,1.834-1.07,2.637C44.882,45.622,48.111,43.135,45.176,43.717z"/>
<path fill="#CC9037" d="M41.982,41.107c0.006,0.17,0.01,0.338,0.009,0.506c-1.05,0.173-2.101,0.345-3.151,0.517
	c-0.634-1.071-0.264-2.136,0.025-3.2C40.197,39.236,40.751,40.656,41.982,41.107z"/>
<path fill="#C08B39" d="M36.809,37.402c0.506,0.334,1.01,0.67,1.516,1.006C37.706,38.242,36.566,38.861,36.809,37.402z"/>
<path fill="#DFA24D" d="M43.002,42.695c0.375,0.343,0.749,0.686,1.124,1.027c-0.353,1.086-1.226,1.067-2.12,1.002
	C40.852,43.318,42.107,43.098,43.002,42.695z"/>
</svg>
