<?xml version="1.0" encoding="utf-8"?>
<!-- Generator: Adobe Illustrator 16.0.0, SVG Export Plug-In . SVG Version: 6.00 Build 0)  -->
<!DOCTYPE svg PUBLIC "-//W3C//DTD SVG 1.1//EN" "http://www.w3.org/Graphics/SVG/1.1/DTD/svg11.dtd">
<svg version="1.1" id="Layer_1" xmlns="http://www.w3.org/2000/svg" xmlns:xlink="http://www.w3.org/1999/xlink" x="0px" y="0px"
	 width="64px" height="64px" viewBox="0 0 64 64" enable-background="new 0 0 64 64" xml:space="preserve">
<path fill-rule="evenodd" clip-rule="evenodd" fill="#CBBD96" d="M6.646,52.171c0.191-0.962-0.631-1.427-1.03-2.1
	c-0.491-0.588-1.04-1.154-0.811-2.03c0.166-0.208,0.377-0.339,0.641-0.382c1.282-0.007,1.478,1.279,2.243,1.888
	c0.988,1.728,2.604,2.958,3.681,4.62c0.049,0.259,0.035,0.514-0.029,0.768c-0.108,0.241-0.271,0.437-0.487,0.59
	c-1.815-0.417-2.972-1.744-4.161-3.025C6.742,52.381,6.726,52.271,6.646,52.171z"/>
<path fill-rule="evenodd" clip-rule="evenodd" fill="#DDCBA1" d="M3.001,21.026c0.961-1.343,1.251-3.072,2.452-4.278
	c0.569-0.713,1.332-1.29,1.575-2.232L6.979,14.55c1.024-0.807,2.068-1.252,3.198-0.178c0.291,0.368,0.422,0.785,0.38,1.252
	c0.219,1.865-1.092,2.876-2.218,3.992c-2.035,0.439-2.79,1.981-2.977,3.792c-0.165,1.597-0.721,3-1.451,4.379
	c-2.003,0.786-0.966,2.734-1.548,4.067c-0.119,1.235,0.512,2.675-0.98,3.526c-1.699-0.516-0.773-1.897-0.81-2.832
	C0.414,28.523,1.501,24.722,3.001,21.026z"/>
<path fill-rule="evenodd" clip-rule="evenodd" fill="#DAC9A1" d="M9.773,14.656c-0.931-0.035-1.862-0.07-2.793-0.105
	c1.459-3.043,4.325-4.799,6.541-7.15c0.315-0.078,0.629-0.154,0.944-0.232c0.098,0.077,0.197,0.153,0.295,0.229
	c0.648,1.957,0.197,3.434-1.791,4.323C11.591,12.336,11.553,14.451,9.773,14.656z"/>
<path fill-rule="evenodd" clip-rule="evenodd" fill="#DAC9A1" d="M7.028,14.516c-0.02,1.101-0.646,1.773-1.575,2.232
	C5.724,15.824,6.229,15.066,7.028,14.516z"/>
<path fill-rule="evenodd" clip-rule="evenodd" fill="#DFC392" d="M10.869,54.766c-0.013-0.16-0.025-0.321-0.038-0.481
	c-0.215-0.576-0.673-1.072-0.577-1.75c0.045-0.166,0.076-0.349,0.178-0.479c1.521-1.968,3.155-3.887,1.86-6.661
	c-0.127-0.271,0.255-0.603,0.529-0.824c0.525-0.259,1.004-0.123,1.465,0.167c1.642,1.875,3.553,3.411,5.78,4.548
	c-0.313,2.063-0.164,4.134-0.071,6.206c-1.424,0.788-2.37-0.631-3.597-0.787c-1.339-0.17-2.689-1.318-3.953,0.318
	C12.09,55.481,11.323,55.336,10.869,54.766z"/>
<path fill-rule="evenodd" clip-rule="evenodd" fill="#E0CDA6" d="M7.136,50.066c-0.801-0.505-1.194-1.314-1.588-2.124
	c-0.002-0.124-0.004-0.248-0.006-0.372c-0.054-2.432,2.063-3.918,2.646-6.077c1.648-2.706,3.309-3.514,5.807-2.826
	c0.805,1.534-0.587,1.893-1.374,2.576c-2.098,1.786-3.222,4.091-3.29,6.812c-0.03,1.197-0.104,2.09-1.5,2.252
	C7.571,50.311,7.341,50.226,7.136,50.066z"/>
<path fill-rule="evenodd" clip-rule="evenodd" fill="#D6BB88" d="M10.869,54.766c3.222-3.527,6.034-0.717,8.943,0.579
	c1.242,0.292,1.598,1.057,1.191,2.23c-0.581,0.539-1.262,0.581-1.986,0.403c-0.67-0.106-1.218-0.464-1.74-0.869
	c-0.195-0.146-0.392-0.294-0.588-0.438c-1.426-1.263-2.551,0.655-3.885,0.374c-0.309-0.165-0.618-0.33-0.927-0.495
	c-0.169-0.052-0.339-0.104-0.509-0.156c-0.182-0.354-0.363-0.708-0.544-1.062C10.839,55.143,10.854,54.954,10.869,54.766z"/>
<path fill-rule="evenodd" clip-rule="evenodd" fill="#DDC699" d="M7.136,50.066c0.176-0.003,0.351-0.007,0.526-0.009
	c1.311-0.378,1.936,0.516,2.572,1.388c0.271,0.385,0.482,0.798,0.598,1.256c0,0.528-0.001,1.056-0.001,1.583
	C9.274,53.163,7.945,51.843,7.136,50.066z"/>
<path fill-rule="evenodd" clip-rule="evenodd" fill="#E0CDA6" d="M4.991,47.956c-0.309-0.383-0.618-0.766-0.926-1.148
	c-0.041-0.321-0.083-0.644-0.124-0.966c0.19-0.176,0.413-0.274,0.673-0.285c0.393,0.058,0.701,0.258,0.945,0.564
	c0.342,0.601,0.219,1.2-0.004,1.799l-0.007,0.022C5.362,47.947,5.177,47.951,4.991,47.956z"/>
<path fill-rule="evenodd" clip-rule="evenodd" fill="#C1A060" d="M41.969,62.617c-1.4,0.372-2.801,0.743-4.201,1.114
	c-3.522,0.045-7.045,0.091-10.567,0.137c-0.195-0.138-0.391-0.274-0.586-0.411c-0.174-0.268-0.196-0.546-0.067-0.837
	c0.636-0.806,1.55-0.615,2.396-0.669c4.664,0.313,9.281,0.161,13.747-1.455c0.493-0.179,1.028-0.113,1.522,0.112
	c0.234,0.148,0.395,0.354,0.483,0.616C43.787,61.689,42.878,62.153,41.969,62.617z"/>
<path fill-rule="evenodd" clip-rule="evenodd" fill="#BB9F66" d="M26.686,62.741c-0.024,0.238-0.048,0.477-0.072,0.715
	c-2.267-0.563-4.532-1.128-6.799-1.692c-1.517-1.223-3.488-1.755-4.867-3.191c0.414-0.735,1.13-0.95,1.774-0.591
	C19.946,59.778,23.767,60.32,26.686,62.741z"/>
<path fill-rule="evenodd" clip-rule="evenodd" fill="#CDAC6F" d="M26.686,62.741c-3.135-0.774-6.125-1.962-9.063-3.272
	c-0.872-0.389-1.644-1.004-2.674-0.896c-0.613-0.221-1.184-0.503-1.552-1.076c0.697-1.015,1.795-0.753,2.774-0.871
	c2.886,1.655,6.184,2.191,9.238,3.396c1.249,0.92,3.236,0.293,4.12,1.972c0.053,0.282-0.018,0.528-0.21,0.74
	C28.442,62.736,27.563,62.738,26.686,62.741z"/>
<path fill-rule="evenodd" clip-rule="evenodd" fill="#D4B47A" d="M16.11,57.45c-0.904,0.016-1.809,0.03-2.713,0.046
	c-0.198-0.15-0.396-0.301-0.594-0.452c1.245-1.184,2.12-3.741,4.373-1.177C17.144,56.612,16.88,57.202,16.11,57.45z"/>
<path fill-rule="evenodd" clip-rule="evenodd" fill="#DAC9A1" d="M14.465,7.168c1.097-1.337,2.743-1.793,4.173-2.595
	c0.938-0.183,1.753-0.892,2.791-0.647c1.02,1.36-0.128,2.045-0.931,2.751c-0.5,0.44-1.318,0.417-1.778,0.996
	c-1.404,0.203-2.922,1.961-4.144-0.307L14.465,7.168z"/>
<path fill-rule="evenodd" clip-rule="evenodd" fill="#DAC596" d="M21.408,4.09c-0.923,0.161-1.847,0.323-2.77,0.483
	c1.833-1.278,4.097-1.538,6.042-2.55c0.653-0.031,1.306-0.062,1.959-0.092c0.665-0.371,1.364-0.215,2.059-0.138
	c0.61,1.887-1.14,1.792-2.028,2.417C24.923,3.946,23.129,5.575,21.408,4.09z"/>
<path fill-rule="evenodd" clip-rule="evenodd" fill="#C8AC75" d="M28.765,2.019C28.056,1.99,27.348,1.96,26.64,1.932
	c3.656-1.464,7.414-0.517,11.134-0.471c1.554,0.721,3.384,0.565,4.86,1.529c-0.477,0.84-1.396,0.788-2.148,1.073
	c-2.041,0.311-4.077,0.484-6.057-0.311c-0.188-0.166-0.395-0.347-0.457-0.596c-0.128-0.507,0.112-0.841,0.612-0.895
	c0.092-0.01,0.104,0.135-0.111,0.003c-0.107-0.066-0.324,0.058-0.481,0.128c-1.4,0.625-2.859,0.344-4.308,0.289
	C29.291,2.579,29.003,2.333,28.765,2.019z"/>
<path fill-rule="evenodd" clip-rule="evenodd" fill="#E2C89A" d="M7.659,18.884c0.705-1.057,1.41-2.114,2.115-3.171
	c1.592-1.617,3.192-3.222,4.924-4.696c0.764-0.65,1.45-1.297,2.548-0.862c1.388,0.954-0.061,2.423,0.638,3.505
	c0.358,1.971-1.864,2.223-2.396,3.6c-1.527,1.061-3.026,2.137-2.335,4.383c-0.121,2.021,0.426,4.15-0.966,5.964
	c-0.23,0.113-0.478,0.163-0.734,0.166c-0.787-0.129-1.264-0.654-1.359-1.386c-0.196-1.502-1.208-1.474-2.303-1.353
	c-0.939,0.084-0.945,1.314-1.812,1.487c-0.269,0-0.504-0.083-0.713-0.251C4.199,23.203,5.045,20.757,7.659,18.884z"/>
<path fill-rule="evenodd" clip-rule="evenodd" fill="#DFD0AC" d="M4.49,45.832c-0.183,0.003-0.366,0.006-0.549,0.01
	c-1.089-1.224-1.137-2.937-2.003-4.266c0.004-2.079-1.027-4.039-0.704-6.154c0.058-1.45,0.116-2.9,0.174-4.35
	c0.767-0.796,1.642-0.664,2.545-0.298c0.247,0.094,0.464,0.234,0.658,0.412c0.575,1.062,1.811,1.403,2.534,2.309
	c0.122,0.247,0.198,0.504,0.235,0.776c0.067,1.045-0.552,1.792-1.107,2.567c-2.213,0.943-1.764,2.984-1.248,4.408
	C5.676,43.039,5.229,44.373,4.49,45.832z"/>
<path fill-rule="evenodd" clip-rule="evenodd" fill="#E3CDA1" d="M17.17,10.428c-1.482,1.439-3.053,2.8-4.415,4.346
	c-0.881,1-1.759,1.347-2.981,0.939c0-0.353,0-0.705-0.001-1.058c0.389-2.003,1.109-3.74,3.255-4.503
	c1.278-0.455,0.757-2.006,1.546-2.787c1.239,0.645,2.418-0.659,3.653-0.109C19.591,8.886,18.33,9.64,17.17,10.428z"/>
<path fill-rule="evenodd" clip-rule="evenodd" fill="#E2CB9F" d="M7.659,18.884c-1.493,2.241-3.021,4.471-2.112,7.397
	c0.844,0.97,0.997,2.061,0.262,3.101c-0.581,0.824-1.463,0.828-2.334,0.364c-0.757-0.789-0.685-1.594-0.043-2.409
	c0.872-2.295,0.375-4.928,1.975-7.096C6.062,19.352,6.616,18.865,7.659,18.884z"/>
<path fill-rule="evenodd" clip-rule="evenodd" fill="#DDCCA6" d="M3.431,27.338c0,0.705,0.001,1.409,0.001,2.114
	c0.571,0.606,1.147,1.211,0.524,2.113c-0.85-0.165-1.7-0.329-2.548-0.493c0.15-0.861,0.375-1.718,0.432-2.585
	C1.912,27.384,2.501,27.166,3.431,27.338z"/>
<path fill-rule="evenodd" clip-rule="evenodd" fill="#CBAE76" d="M40.404,3.043c0.742-0.018,1.486-0.035,2.229-0.053
	c1.828,0.369,3.554,0.974,5.022,2.172c-0.213,0.54-0.494,1.017-1.104,1.188c-1.147,0.146-2.181-0.562-3.325-0.446
	C42.1,5.134,39.685,5.633,40.404,3.043z"/>
<path fill-rule="evenodd" clip-rule="evenodd" fill="#D3BA88" d="M46.744,5.679c0.304-0.172,0.608-0.344,0.913-0.516
	c0.913,0.527,1.825,1.056,2.739,1.583c0.041,1.061,0.03,2.095-1.292,2.437c-0.892,0.146-1.753,0.916-2.692,0.133
	C45.619,8.02,45.412,6.778,46.744,5.679z"/>
<path fill-rule="evenodd" clip-rule="evenodd" fill="#D8C293" d="M48.885,8.328c0.716-0.325,0.149-1.875,1.512-1.582
	c0.178,0.003,0.355,0.007,0.534,0.011c0.256,0.312,0.512,0.623,0.768,0.935c-0.013,0.637,0.446,1.163,0.431,1.806
	c-0.039,0.266-0.13,0.509-0.276,0.734c-0.399,0.387-0.859,0.657-1.414,0.75c-0.282,0.006-0.547-0.059-0.797-0.188
	C48.974,10.1,48.248,9.422,48.885,8.328z"/>
<path fill-rule="evenodd" clip-rule="evenodd" fill="#DBCAA2" d="M51.513,9.374c-0.563-0.629-0.947-1.239,0.186-1.682
	c0.255,0.074,0.511,0.149,0.766,0.223c1.946,2.27,4.717,3.816,5.914,6.742c-0.292,1.058,0.379,1.819,0.817,2.652
	c0.602,1.144,0.674,2.168-0.649,2.88c-2.326,0.122-1.85-2.389-3.097-3.286c-0.112-0.237-0.171-0.493-0.189-0.753
	c-0.139-1.728-1.308-2.826-2.435-3.948c-0.159-0.177-0.295-0.372-0.401-0.586C52.142,10.86,52.196,9.967,51.513,9.374z"/>
<path fill-rule="evenodd" clip-rule="evenodd" fill="#DCCDA9" d="M58.385,19.937c1.011-1.762-1.26-3.519-0.007-5.28
	c0.858,1.112,1.718,2.225,2.575,3.337c0.652,2.03,1.777,3.933,1.652,6.17c-0.666,0.569-1.316,0.389-1.676-0.27
	c-0.467-0.854-1.293-0.978-2.039-1.306C58.041,21.834,57.544,21.012,58.385,19.937z"/>
<path fill-rule="evenodd" clip-rule="evenodd" fill="#E0C593" d="M20.873,57.442c-0.354-0.699-0.707-1.398-1.061-2.098
	c-1.301-1.937-2.515-3.875,0.001-5.812c0.423-0.589,1.094-0.615,1.714-0.758c0.637-0.04,1.273-0.049,1.909,0.022
	c0.832,0.294,1.666,0.581,2.502,0.864c0.362,0.124,0.743,0.202,1.064,0.43c0.365,1.296,1.921,1.222,2.551,2.216
	c0.894,1.433,2.494,2.468,2.157,4.555c-0.321,1.994-1.296,2.813-3.571,2.62c-1.224-0.896-0.645-2.157-0.667-3.295
	c-0.554-2.063-2.579-2.735-3.945-2.385c-2.062,0.529-0.621,1.886,0.144,2.841c1.083,1.298,3.293,0.708,4.104,2.46
	c0.231,0.849-0.338,1.197-0.949,1.519c-0.544,0.109-1.07-0.003-1.593-0.132C23.535,59.824,21.677,59.388,20.873,57.442z"/>
<path fill-rule="evenodd" clip-rule="evenodd" fill="#E0C697" d="M10.833,52.701c-0.353-0.175-0.706-0.35-1.059-0.524
	c-0.139-0.132-0.206-0.277-0.2-0.438c0.006-0.167,0.027-0.251,0.063-0.252c1.536-2.831,1.061-6.009,1.557-9.021
	c0.181-0.501,0.135-1.088,0.572-1.49c0.381-0.212,0.774-0.289,1.193-0.12c1.132,1.311,0.076,2.612-0.015,3.919
	c0.047,0.34,0.047,0.695,0.15,1.017c0.696,2.166,2.306,4.507-1.313,5.72C11.376,51.646,11.145,52.292,10.833,52.701z"/>
<path fill-rule="evenodd" clip-rule="evenodd" fill="#E1C18C" d="M21.401,49.534c-0.53,0.423-1.059,0.236-1.588-0.001
	c-2.976,0.019-4.524-1.927-5.814-4.228c-0.291-0.332-0.347-0.696-0.147-1.095c0.992-0.795,1.721,0.149,2.558,0.385
	c1.952,1.022,3.465,2.648,5.289,3.851C21.793,48.862,21.692,49.225,21.401,49.534z"/>
<path fill-rule="evenodd" clip-rule="evenodd" fill="#DDC08D" d="M14.001,44.248c0,0.353-0.001,0.705-0.002,1.058
	c-0.352-0.177-0.703-0.354-1.055-0.531c-0.718-1.23-0.326-2.46,0.008-3.689c0.137-0.617,0.646-0.846,1.139-1.092
	c1.016-0.374,1.999-1.156,3.114-0.241c0.473,0.698,0.201,1.271-0.302,1.804C15.664,42.157,15.175,43.572,14.001,44.248z"/>
<path fill-rule="evenodd" clip-rule="evenodd" fill="#E3D3B0" d="M4.49,45.832c-0.942-2.772-0.465-5.6-0.284-8.406
	c0.042-0.656,0.73-0.926,1.337-1.107c0.649,0.221,0.909,0.752,1.08,1.354c0.213,0.754,0.709,1.067,1.326,0.525
	c2.493-2.188,5.6-1.021,8.382-1.609c0.643,0.026,1.309-0.05,1.844,0.435c0.618,2.286-1.617,1.521-2.432,2.274
	c-0.241,0.106-0.492,0.179-0.753,0.212c-0.414-0.029-0.742-0.215-0.991-0.545c-2.394,0.002-4.028,1.27-5.283,3.171
	c-1.099,1.526-1.763,3.433-3.701,4.223C4.84,46.183,4.665,46.007,4.49,45.832z"/>
<path fill-rule="evenodd" clip-rule="evenodd" fill="#E1CCA2" d="M11.892,41.083c-0.002,0.526-0.005,1.052-0.007,1.576
	c-1.21,2.558-0.961,5.415-1.657,8.079c-0.091,0.346-0.227,0.639-0.448,0.906c-0.002,0.177-0.004,0.354-0.006,0.532
	c-0.704-0.706-1.407-1.412-2.111-2.119c1.024-2.226,0.707-4.854,2.133-6.973c0.62-0.92,0.956-2.049,2.091-2.537
	c0.136,0.117,0.183,0.235,0.139,0.355C11.981,41.023,11.937,41.083,11.892,41.083z"/>
<path fill-rule="evenodd" clip-rule="evenodd" fill="#DFD0AC" d="M5.016,46.358c1.348-1.307,1.971-3.25,3.701-4.223
	c-0.367,2.304-2.07,3.877-3.161,5.785C5.375,47.399,5.196,46.879,5.016,46.358z"/>
<path fill-rule="evenodd" clip-rule="evenodd" fill="#E3CB9E" d="M11.892,41.083c-0.002-0.179-0.004-0.357-0.006-0.535
	c0.673-0.569,1.646-0.738,2.113-1.583c0.353-0.001,0.706-0.002,1.058-0.003c0.789,1.29-0.559,1.152-1.057,1.582
	c-0.35,0.181-0.699,0.36-1.047,0.541C12.599,41.084,12.246,41.084,11.892,41.083z"/>
<path fill-rule="evenodd" clip-rule="evenodd" fill="#D7B376" d="M20.873,57.442c1.411,0.884,2.822,1.768,4.233,2.651
	c0.064,0.091,0.129,0.183,0.193,0.273c-0.069,0.089-0.137,0.178-0.206,0.266c-3.028-0.966-6.488-0.711-8.984-3.182
	c-0.28-0.394-0.864-0.728-0.532-1.292c0.374-0.635,1.013-0.463,1.599-0.292c0.175,0.002,0.351,0.005,0.527,0.007
	c0.477,0.426,1.174,0.521,1.583,1.05C19.814,57.097,20.343,57.27,20.873,57.442z"/>
<path fill-rule="evenodd" clip-rule="evenodd" fill="#D4B47A" d="M19.286,56.924c-0.688-0.109-1.216-0.457-1.583-1.05
	C18.439,55.909,19.029,56.165,19.286,56.924z"/>
<path fill-rule="evenodd" clip-rule="evenodd" fill="#D4BD8C" d="M64.191,34.742c-0.026,0.854-0.054,1.707-0.08,2.561l0.039,0.014
	c-0.584,0.808,0.243,1.919-0.576,2.677c-0.479,1.247-0.96,2.495-1.44,3.743c-0.62,0.83-0.537,2.136-1.739,2.577
	c-0.436,0.08-0.833-0.007-1.19-0.271c-0.307-0.319-0.441-0.707-0.449-1.143c0.622-2.183,0.992-4.462,2.399-6.347
	c0.48-0.703,0.952-1.414,1.154-2.266c0.131-0.771,0.341-1.488,1.197-1.766C63.767,34.492,63.997,34.561,64.191,34.742z"/>
<path fill-rule="evenodd" clip-rule="evenodd" fill="#C3AA76" d="M60.537,45.86c0.532-0.708,1.064-1.416,1.597-2.124
	c-1.746,5.639-5.248,9.958-10.014,13.328c-0.091-0.086-0.182-0.174-0.273-0.26c-0.137-0.374-0.086-0.732,0.095-1.078
	c0.317-0.521,0.747-0.953,1.127-1.425c0.598-0.568,1.151-1.181,1.732-1.768C57.047,50.597,58.203,47.722,60.537,45.86z"/>
<path fill-rule="evenodd" clip-rule="evenodd" fill="#C4A569" d="M50.923,58.342c-0.302,0.093-0.604,0.186-0.904,0.278
	c-0.083-0.115-0.165-0.229-0.247-0.344c0.197-1.345,0.729-2.166,2.251-1.44l0.098,0.229C51.721,57.49,51.322,57.916,50.923,58.342z"
	/>
<path fill-rule="evenodd" clip-rule="evenodd" fill="#C4A569" d="M50.019,58.62c-1.043,1.222-2.65,1.563-3.883,2.49
	c-0.48,0.038-0.96,0.076-1.44,0.114l-0.1-0.156c-0.163-0.201-0.266-0.429-0.298-0.687c0.029-0.259,0.124-0.49,0.281-0.695
	c0.795-0.471,1.612-0.867,2.354-1.464c0.915-0.735,2.028-0.822,2.938,0.208L50.019,58.62z"/>
<path fill-rule="evenodd" clip-rule="evenodd" fill="#CCA561" d="M44.627,60.602c-0.006,0.156-0.016,0.313-0.031,0.467
	c-1.715,0.376-3.511,0.541-5.126,1.17c-3.366,1.313-6.752,0.714-10.15,0.495c0.002-0.175,0.003-0.349,0.004-0.523
	c0.395-0.847,1.238-1.032,1.993-1.349c3.627-0.643,7.327-0.766,10.943-1.514C43.323,59.128,44.06,59.762,44.627,60.602z"/>
<path fill-rule="evenodd" clip-rule="evenodd" fill="#D7B376" d="M31.44,61.676c-0.706,0.178-1.412,0.356-2.117,0.534
	c-1.342-0.708-3.087-0.334-4.229-1.577l0.013-0.015c2.588-0.439,5.125-1.413,7.822-0.758C33.406,61.263,31.881,61.024,31.44,61.676z
	"/>
<path fill-rule="evenodd" clip-rule="evenodd" fill="#E1C796" d="M17.17,10.428c0.228-1.099,1.113-1.979,1.057-3.171
	c0.888-1.229,2.754-1.475,3.18-3.167c1.648,0.405,2.961-2.153,4.746-0.537c-0.668,1.416-1.922,2.173-3.228,2.872
	c-1.115,0.213-1.325,1.349-2.018,1.992c-1.288,0.67-1.647,1.865-1.827,3.18c-0.11,0.807,0.15,1.763-0.817,2.269
	c-0.413,0.113-0.777,0.029-1.091-0.265C15.523,12.544,17.606,11.486,17.17,10.428z"/>
<path fill-rule="evenodd" clip-rule="evenodd" fill="#DBB77B" d="M22.459,5.687c1.232-0.711,2.463-1.422,3.694-2.134
	c0.871-0.511,1.741-1.023,2.611-1.534c0.364-0.002,0.729-0.005,1.092-0.008c0.281,0.277,0.415,0.608,0.37,1.004
	c-0.074,0.234-0.196,0.441-0.37,0.617c-1.576,1.049-3.496,1.771-3.842,3.991c1.326,1.138,3.062,1.375,4.604,1.642
	c1.79,0.31,3.217,0.521,3.559,2.61c0.113,0.702,0.824,0.818,1.376,1.054c0.618,0.356,1.023,0.834,0.936,1.601
	c-2.322,1.809-4.934,1.719-6.584-0.406c-0.71-0.914-1.302-1.245-2.413-0.847c-2.986,1.068-3.675,0.765-5.79-2.309
	C21.4,9.124,21.044,7.277,22.459,5.687z"/>
<path fill-rule="evenodd" clip-rule="evenodd" fill="#D8AF6C" d="M40.404,3.043c0.509,1.539,2.686,0.548,3.186,2.101
	c2.487,1.2,2.735,3.643,3.284,5.918c-0.959,0.548-1.818,0.132-2.679-0.271c-0.737-1.021-1.235-2.489-3.003-1.438
	c-1.504,0.895-1.658,2.121-1.028,3.6c0.408,0.958,0.909,1.904,0.415,2.99c-2.525,1.346-3.267-0.944-4.476-2.228
	c-1.192-1.267-0.597-2.333,0.425-3.388c0.48-0.498,1.006-0.98,1.401-1.542c0.672-0.956-0.123-1.169-0.826-1.375
	c-0.346-0.117-0.693-0.211-1.064-0.17C34.761,7.173,34.514,8.523,33.61,9c-2.89,1.523-5.269,0.104-5.897-3.571
	c0.078-1.366,1.421-1.6,2.138-2.394l0.007-0.005c1.407-0.764,2.814-0.793,4.223-0.002C36.188,3.034,38.296,3.038,40.404,3.043z"/>
<path fill-rule="evenodd" clip-rule="evenodd" fill="#DCBB84" d="M11.891,21.523c-0.046-2.319,0.645-4.147,3.165-4.757
	c0.571-0.152,1.048-0.001,1.436,0.443c0.22,0.342,0.297,0.716,0.234,1.117c-0.697,1.032-1.86,1.999-0.473,3.336
	c0.231,0.894-0.274,1.564-0.679,2.267c-1.046,0.973-1.93,0.842-2.651-0.389C12.645,22.835,12.375,22.125,11.891,21.523z"/>
<path fill-rule="evenodd" clip-rule="evenodd" fill="#E3CFA7" d="M11.357,27.338c0.177-0.001,0.354-0.001,0.531-0.002
	c1.275-0.479,2.284,0.232,3.338,0.747c0.164,0.226,0.252,0.478,0.268,0.755c-0.019,0.279-0.113,0.529-0.281,0.752
	c-0.737,0.6-1.564,0.136-2.347,0.2c-1.144-0.075-2.224,0.277-3.31,0.533c-1.129,0.266-2.061,0.201-2.572-1.02
	C6.829,28.31,6.819,27.319,7,26.328c1.809-2.012,2.261-2.012,3.521,0.065C10.75,26.77,10.981,27.109,11.357,27.338z"/>
<path fill-rule="evenodd" clip-rule="evenodd" fill="#DEC391" d="M15.081,28.385c-1.217,0.115-2.24-0.362-3.193-1.049
	c0.051-1.938,0.626-3.875,0.003-5.813c0.591,0.37,0.939,0.903,1.061,1.587c0.349,0.93,1.286,1.331,1.858,2.061
	c0.329,0.518,0.84,0.884,1.168,1.404c0.094,0.243,0.126,0.494,0.11,0.753C15.957,27.875,15.646,28.251,15.081,28.385z"/>
<path fill-rule="evenodd" clip-rule="evenodd" fill="#E8CA98" d="M16.1,17.309c-0.348-0.181-0.695-0.362-1.044-0.543
	c-0.577-1.913,2.021-1.703,2.117-3.166c0.351,0,0.703,0,1.054,0c0.901,0.227,1.333,0.878,1.558,1.72
	c-0.052,0.945-0.724,1.458-1.384,1.977C17.635,17.728,16.871,18.028,16.1,17.309z"/>
<path fill-rule="evenodd" clip-rule="evenodd" fill="#DEC9A0" d="M3.957,31.565c-0.174-0.704-0.349-1.409-0.524-2.113
	c2.391,0.067,2.088-1.661,2.114-3.17c0.171,0.001,0.342,0.001,0.513,0.002c1.255,0.807,0.725,2.351,1.407,3.397
	c0.223,0.428,0.235,0.866,0.076,1.316c-0.953,1.715-2.207,1.525-3.583,0.571L3.957,31.565z"/>
<path fill-rule="evenodd" clip-rule="evenodd" fill="#E4CDA0" d="M11.357,27.338c-1.263-0.242-1.886-2.732-3.696-1.054
	c-0.558-0.144-0.833-0.527-0.912-1.077c0.054-0.563,0.324-0.939,0.909-1.04C10.912,22.867,10.754,25.546,11.357,27.338z"/>
<path fill-rule="evenodd" clip-rule="evenodd" fill="#D3BC91" d="M7.659,24.167c-0.168,0.356-0.335,0.712-0.502,1.068
	c0.493,1.26,0.153,2.563,0.205,3.846c-0.079,0.121-0.157,0.243-0.236,0.364c-0.887-0.875-1.054-1.992-1.065-3.161
	c0.075-1.292,0.194-2.573,0.921-3.734C7.734,22.921,7.312,23.7,7.659,24.167z"/>
<path fill-rule="evenodd" clip-rule="evenodd" fill="#E4D7B6" d="M16.115,37.377c-3.059,0.477-6.409,0.099-8.587,3.097
	c-0.462,0.636-1.244,0.594-1.918,0.177c-0.809-0.5-0.898-1.162-0.561-2.042c0.276-0.721,0.338-1.524,0.495-2.29
	c0.354-0.703,0.708-1.406,1.062-2.11c2.086-1.614,3.43-4.211,6.313-4.774c0.887-0.258,1.479,0.042,1.762,0.928
	c0.104,0.737-0.01,1.438-0.746,1.761c-0.857,0.377-2.022,0.504-1.679,1.822c0.275,1.058,1.12,1.707,2.2,1.986
	c0.251,0.064,0.507,0.107,0.765,0.146c0.405,0.059,0.732,0.25,0.982,0.572C16.342,36.914,16.312,37.156,16.115,37.377z"/>
<path fill-rule="evenodd" clip-rule="evenodd" fill="#E3D5B2" d="M12.942,29.979c-2.243,1.213-3.753,3.525-6.337,4.229
	c-0.001-0.177-0.004-0.354-0.005-0.531c-0.437-0.507-0.343-1.001,0.035-1.489c1.917-1.35,3.468-3.495,6.285-2.886
	C13.163,29.52,13.17,29.745,12.942,29.979z"/>
<path fill-rule="evenodd" clip-rule="evenodd" fill="#DDCCA6" d="M7.132,32.623c-0.177,0.351-0.354,0.702-0.532,1.054
	c-0.606-1.046-3.485,0.756-2.639-2.108c1.195,0.059,2.321-0.089,3.171-1.061C7.825,31.213,7.579,31.917,7.132,32.623z"/>
<path fill-rule="evenodd" clip-rule="evenodd" fill="#DECBA3" d="M59.447,22.051c1.78-0.383,1.992,1.579,3.158,2.113
	c0.876,0.868,0.473,2.205,1.153,3.145c-0.106,0.426-0.369,0.696-0.797,0.805c-1.764-0.469-2.742-1.95-3.852-3.18
	C58.307,24.043,58.25,22.886,59.447,22.051z"/>
<path fill-rule="evenodd" clip-rule="evenodd" fill="#D9B475" d="M46.764,10.956c-1.058-1.937-2.115-3.874-3.174-5.812
	c1.052,0.178,2.104,0.357,3.154,0.535c0.1,1.236-0.215,2.532,0.54,3.671c1.848-0.452,1.834,1.854,3.183,2.145
	c0.187,0.217,0.344,0.453,0.477,0.707c0.316,2.056,1.563,4.064,0.318,6.2c-0.779,0.442-1.35,0.119-1.835-0.501
	c-0.131-0.231-0.218-0.482-0.261-0.745c-0.116-1.002-0.493-1.919-0.965-2.803C48.514,12.886,46.41,12.44,46.764,10.956z"/>
<path fill-rule="evenodd" clip-rule="evenodd" fill="#E2C28B" d="M49.931,12.014c-1.133-0.639-1.812-1.729-2.646-2.665
	c0.061-1.082,0.548-1.494,1.601-1.022c0.351,0.698,0.7,1.395,1.051,2.093C50.259,10.953,50.549,11.484,49.931,12.014z"/>
<path fill-rule="evenodd" clip-rule="evenodd" fill="#E5C794" d="M49.931,12.014c0.002-0.531,0.003-1.062,0.005-1.593
	c0.174,0.001,0.35,0.002,0.523,0.003c1.364-0.282,1.803,0.702,2.186,1.667c0.345,0.871,0.694,1.746,0.942,2.656
	c-0.035,0.84-0.432,1.325-1.312,1.331c-1.692-0.825-1.816-2.559-2.35-4.057L49.931,12.014z"/>
<path fill-rule="evenodd" clip-rule="evenodd" fill="#E0C596" d="M53.103,14.657c-1.698-0.901-0.831-3.403-2.644-4.233
	c0.352-0.175,0.704-0.35,1.056-0.525c1.356-0.3,0.827,1.29,1.589,1.585v0.001c0.506,0.921,1.152,1.825,0.367,2.909
	C53.349,14.482,53.225,14.569,53.103,14.657z"/>
<path fill-rule="evenodd" clip-rule="evenodd" fill="#DEC79B" d="M53.104,11.484c-0.842-0.216-1.098-1.019-1.589-1.585
	c0-0.175-0.001-0.351-0.002-0.525C52.671,9.604,53.073,10.404,53.104,11.484z"/>
<path fill-rule="evenodd" clip-rule="evenodd" fill="#DFC89B" d="M63.14,27.867c1.012,2.229,0.326,4.586,0.522,6.876
	c-0.169,0.528-0.339,1.058-0.509,1.585c-0.193,0.176-0.421,0.253-0.682,0.235c-1.807-0.634-1.132-2.657-2.113-3.757
	c-0.585-0.949,0.896-3.321-1.902-2.733c-2.517-0.084-2.749-2.229-3.516-3.896c-0.24-1.772,0.816-3.551-0.038-5.321
	c-0.345-1.777-0.381-3.464,1.371-4.616c1.371,0.851,0.922,2.742,2.111,3.696c0.354,0.705,0.708,1.409,1.063,2.114
	c-0.125,1.445,0.652,2.469,1.708,3.241C62.093,25.977,62.655,26.874,63.14,27.867z"/>
<path fill-rule="evenodd" clip-rule="evenodd" fill="#E0C596" d="M56.273,16.241c0.11,1.586-0.572,3.171-0.002,4.757
	c-1.577,1.812-1.468,4.688-3.802,6.026c-0.282-0.01-0.53-0.104-0.748-0.285c-0.704-1.216-0.91-2.774-0.16-3.702
	c1.422-1.759,0.723-3.424,0.438-5.162c-0.119-0.736-0.723-1.457,0.054-2.162c0.537-0.166,0.886-0.519,1.049-1.056l0.001-0.001
	c1.519-1.03,2.161,0.558,3.168,1.059C56.272,15.89,56.272,16.065,56.273,16.241z"/>
<path fill-rule="evenodd" clip-rule="evenodd" fill="#DEC79B" d="M56.271,15.714c-1.224,0.148-2.132-0.645-3.168-1.059
	c0-1.057,0-2.113,0-3.169C54.829,12.394,55.7,13.941,56.271,15.714z"/>
<path fill-rule="evenodd" clip-rule="evenodd" fill="#E0BF89" d="M27.742,59.043c3.329-0.462,4.058-2.164,2.024-4.824
	c-0.48-0.628-0.93-1.228-0.971-2.045c-0.769-0.442-1.549-0.87-2.114-1.584c-0.354-0.004-0.708-0.007-1.061-0.012
	c-1.356-1.531-1.281-2.959,0.312-4.276c0.225-0.126,0.466-0.208,0.72-0.249c0.503,0.03,1.008,0.053,1.5,0.179
	c0.631,0.201,0.852,0.817,1.264,1.242c0.17,0.157,0.336,0.318,0.502,0.479c0.426,0.57,1.166,0.8,1.547,1.422
	c0.419,1.16-0.375,2.43,0.326,3.568c0.127,0.318,0.215,0.653,0.409,0.941c1.876,2.779,1.868,2.92-0.313,5.678
	c-1.619,1.336-3.391,1.149-5.207,0.534c0.354-0.351,0.707-0.701,1.061-1.051L27.742,59.043z"/>
<path fill-rule="evenodd" clip-rule="evenodd" fill="#E1C99D" d="M22.988,57.451c-0.077-0.041-0.162-0.07-0.228-0.125
	c-1.37-1.124-2.785-2.571-1.85-4.293c0.972-1.789,2.855-1.027,4.423-0.389c1.569,0.639,2.944,1.469,3.461,3.228
	C27.25,57.834,24.95,57.022,22.988,57.451z"/>
<path fill-rule="evenodd" clip-rule="evenodd" fill="#E5CDA0" d="M22.988,57.451c1.478-2.21,3.792-1.347,5.807-1.579
	c0.104,1.208-0.37,2.225-1.053,3.171l-0.001,0.003C25.902,59.271,24.324,58.723,22.988,57.451z"/>
<path fill-rule="evenodd" clip-rule="evenodd" fill="#E1BC7F" d="M26.68,60.097c1.846,0.068,3.681,0.077,5.288-1.056
	c0.607-0.626,0.874-1.905,2.205-1.151c0.739,1.066,0.532,1.824-0.729,2.239c-0.14-0.008-0.28-0.015-0.421-0.021
	c-2.573,1.18-5.258,0.639-7.916,0.511c-0.002-0.176-0.002-0.35-0.001-0.524C25.631,60.095,26.155,60.096,26.68,60.097z"/>
<path fill-rule="evenodd" clip-rule="evenodd" fill="#DCB77E" d="M26.174,46.927c-1.037,1.088,0.342,2.543-0.555,3.651
	c-0.811-0.136-1.531-0.453-2.12-1.04c-0.413-0.294-0.862-0.562-0.778-1.184c0.207-0.629,0.6-1.109,1.167-1.449
	c0.314-0.217,0.636-0.419,1-0.545c0.254-0.042,0.505-0.025,0.753,0.046C25.874,46.523,26.051,46.697,26.174,46.927z"/>
<path fill-rule="evenodd" clip-rule="evenodd" fill="#E0C28F" d="M26.681,50.59c1.082,0.024,1.881,0.428,2.114,1.584
	C27.201,52.833,26.775,51.934,26.681,50.59z"/>
<path fill-rule="evenodd" clip-rule="evenodd" fill="#EAC58A" d="M22.964,48.536c0.179,0.334,0.357,0.668,0.535,1.002
	c-0.7-0.001-1.399-0.003-2.099-0.004c-0.003-0.353-0.006-0.706-0.009-1.06c-0.206-0.425,0.038-0.651,0.371-0.84
	c0.237-0.056,0.472-0.046,0.706,0.021C22.802,47.854,22.988,48.137,22.964,48.536z"/>
<path fill-rule="evenodd" clip-rule="evenodd" fill="#DDC699" d="M9.78,51.645c-0.308-3.231-0.091-6.34,2.105-8.985
	c-0.088,2.179-0.038,4.376-0.325,6.527C11.433,50.139,10.893,51.202,9.78,51.645z"/>
<path fill-rule="evenodd" clip-rule="evenodd" fill="#DFBA7D" d="M22.016,47.889c-0.208,0.195-0.416,0.391-0.624,0.586
	c-2.295-0.167-3.507-2.134-5.278-3.173c-0.308-0.315-0.333-0.674-0.158-1.063c0.933-0.789,1.684,0.089,2.511,0.272
	c1.184,0.485,2.082,1.458,3.279,1.926C22.125,46.868,22.272,47.341,22.016,47.889z"/>
<path fill-rule="evenodd" clip-rule="evenodd" fill="#DCBB82" d="M16.117,44.244c-0.001,0.353-0.002,0.705-0.003,1.058
	c-0.705-0.351-1.409-0.702-2.113-1.054c0.119-1.447,0.698-2.589,2.113-3.172c0.392,0.283,0.622,0.667,0.708,1.141
	C16.933,43.012,16.898,43.758,16.117,44.244z"/>
<path fill-rule="evenodd" clip-rule="evenodd" fill="#DAB67B" d="M16.118,42.135c-0.001-0.353-0.002-0.706-0.003-1.059
	c0.35-0.353,0.7-0.706,1.05-1.059c-0.064-0.68,0.257-1.16,0.794-1.529c0.577-0.263,0.838-0.965,1.515-1.092
	c0.415-0.041,0.781,0.068,1.097,0.345c0.263,0.326,0.366,0.7,0.324,1.114c-0.292,0.891-1.168,1.363-1.563,2.182
	c-0.249,0.29-0.457,0.62-0.807,0.809C17.761,42.262,17.036,43.009,16.118,42.135z"/>
<path fill-rule="evenodd" clip-rule="evenodd" fill="#E0C697" d="M18.221,38.962c-0.352,0.352-0.704,0.704-1.056,1.056
	c-1.055,0.176-2.11,0.352-3.165,0.526c0.353-0.527,0.705-1.055,1.057-1.582l0,0C16.111,38.561,17.166,38.085,18.221,38.962z"/>
<path fill-rule="evenodd" clip-rule="evenodd" fill="#ECD9B7" d="M16.115,37.377c-0.001-0.176-0.002-0.35-0.004-0.525
	c0.107-1.213-0.487-2.621,0.969-3.46c1.177-0.198,1.978,0.444,2.722,1.215c0.332,1.083,0.455,2.112-0.724,2.804
	c-0.291,0.163-0.576,0.154-0.856-0.025C17.52,37.383,16.817,37.38,16.115,37.377z"/>
<path fill-rule="evenodd" clip-rule="evenodd" fill="#E3CB9E" d="M18.222,37.385c0.173-0.008,0.346-0.014,0.519-0.017
	c0.178-0.21,0.383-0.241,0.616-0.095c0.138,0.229,0.118,0.443-0.063,0.643c-0.358,0.349-0.716,0.697-1.073,1.046
	c-1.055,0-2.109,0-3.164,0C15.884,37.98,17.257,38.092,18.222,37.385z"/>
<path fill-rule="evenodd" clip-rule="evenodd" fill="#E0C594" d="M62.607,39.482c-2.61,0.831-1.958,3.617-3.167,5.288
	c-0.393,0.404-0.695,1.049-1.429,0.52c-0.42-0.382-0.523-0.904-0.428-1.401c0.319-1.657-0.43-2.692-1.846-3.388
	c-0.853-2.253-1.95-4.439-1.902-6.94c0.252-0.342,0.595-0.537,1.01-0.606c0.345-0.036,0.824-0.19,1.022,0
	c2.021,1.929,4.92,2.378,6.992,4.202C62.787,37.934,63.122,38.754,62.607,39.482z"/>
<path fill-rule="evenodd" clip-rule="evenodd" fill="#E2C28B" d="M54.168,33.679c0.926,2.222,1.976,4.403,2.108,6.868
	c1.21,0.595,1.282,1.707,1.321,2.852c0.024,0.723-0.307,1.618,0.79,1.906c0.351-0.178,0.701-0.356,1.053-0.534
	c0,0.354,0.001,0.709,0.002,1.063c-0.499,2.833-2.407,4.654-4.559,4.354c-1.456-1.815-0.905-3.795-0.469-5.764
	c0.335-1.488,0.527-2.968-0.316-4.374c-2.137-3.456-1.198-7.18-0.949-10.844c0.187-0.265,0.438-0.42,0.758-0.469
	c0.32,0.064,0.568,0.231,0.748,0.502C55.024,30.778,55.335,32.31,54.168,33.679z"/>
<path fill-rule="evenodd" clip-rule="evenodd" fill="#D6BB87" d="M55.225,50.068c1.807-1.013,2.915-2.72,4.218-4.235
	c0.364,0.009,0.729,0.018,1.094,0.026c-1.257,2.83-2.952,5.345-5.315,7.378C54.224,52.18,54.222,51.123,55.225,50.068z"/>
<path fill-rule="evenodd" clip-rule="evenodd" fill="#DAB577" d="M55.225,50.068c-0.001,1.056-0.002,2.112-0.004,3.169
	c-0.527,0.529-1.056,1.06-1.584,1.589c-0.767,0.182-0.895-0.36-1.026-0.9c0.757-1.785,0.395-3.517-0.259-5.237
	c0.197-2.221,1.387-4.285,1.021-6.592c0.039-0.593,0.105-1.173,0.607-1.588c0.713-0.29,1.12,0.089,1.438,0.658
	c0.007,1.028,0.297,2.073-0.192,3.071C54.974,46.182,54.631,48.125,55.225,50.068z"/>
<path fill-rule="evenodd" clip-rule="evenodd" fill="#D5B06D" d="M49.871,58.431c-1.925-0.021-3.333,1.583-5.226,1.661
	c-0.354-0.29-0.476-0.672-0.441-1.116c0.647-1.588,2.231-1.957,3.524-2.705c1.55-0.21,2.84-2.022,4.628-0.748
	c0.074,0.117,0.148,0.234,0.222,0.352c-0.186,0.321-0.371,0.643-0.556,0.963C51.105,57.098,50.433,57.688,49.871,58.431z"/>
<path fill-rule="evenodd" clip-rule="evenodd" fill="#D5B06D" d="M53.122,53.773c0.171,0.352,0.343,0.701,0.515,1.053
	c-0.353,0.349-0.706,0.699-1.059,1.048l-0.021-0.011c-0.473-0.508-1.263-0.003-1.729-0.541c-0.092-1.422,0.677-1.889,1.967-1.779
	C52.903,53.619,53.013,53.697,53.122,53.773z"/>
<path fill-rule="evenodd" clip-rule="evenodd" fill="#DAAF68" d="M44.646,59.048c0,0.348,0,0.696-0.001,1.045
	c-0.004,0.169-0.011,0.339-0.019,0.509c-1.285-0.374-2.601-0.595-3.871-0.061c-3.006,1.264-6.278,0.216-9.315,1.135
	c0.527-0.522,1.055-1.046,1.582-1.569c0,0.001,0.003-0.003,0.003-0.003c0.494-0.396,1.204-0.296,1.678-0.732
	c1.313-0.195,1.721-1.209,2.055-2.293c0.341-0.417,0.776-0.708,1.244-0.958c0.715-0.509,1.467-0.799,2.337-0.425
	c1.025,0.824,1.439,2.503,3.208,2.303C44.017,58.239,44.506,58.462,44.646,59.048z"/>
<path fill-rule="evenodd" clip-rule="evenodd" fill="#DBBA82" d="M22.459,5.687c-0.001,1.933-0.002,3.865-0.003,5.797
	c0.17,0.314,0.104,0.565-0.198,0.754c-2.56-0.114-2.776-1.778-2.493-3.771c0.134-0.43,0.315-0.838,0.585-1.203
	C20.971,6.628,21.448,5.799,22.459,5.687z"/>
<path fill-rule="evenodd" clip-rule="evenodd" fill="#DFC28E" d="M20.35,7.263c-0.002,0.351-0.006,0.702-0.008,1.053
	c-0.91,1.257-0.455,2.433,0.249,3.566c0.841,1.355,0.871,2.545-0.584,3.504c-0.28,0.069-0.524,0.002-0.731-0.199
	c-0.589-0.371-0.932-0.904-1.048-1.587C18.259,11.262,17.843,8.773,20.35,7.263z"/>
<path fill-rule="evenodd" clip-rule="evenodd" fill="#DCBA80" d="M22.454,12.015c0.001-0.177,0.001-0.354,0.002-0.532
	c0.743,0.034,1.356,0.321,1.817,0.917c0.64,0.828,1.202,0.594,1.997,0.072c2.994-1.966,3.533-1.811,4.831,1.269
	c0.398,0.947,1.174,1.004,1.934,1.035c1.049,0.042,2.103-0.07,3.154-0.117c1.197,0.155,2.216,0.586,2.744,1.775
	c0.169,1.163,0.423,2.356-1.068,2.908c-1.788-0.241-2.769-1.95-4.426-2.436c-1.856-0.765-3.689-0.031-5.532,0.071
	c-1.635-0.371-3.141-1.138-4.763-1.553c-0.562-0.497-0.964-1.104-1.262-1.788C21.755,12.985,22.027,12.473,22.454,12.015z"/>
<path fill-rule="evenodd" clip-rule="evenodd" fill="#DBB474" d="M28.79,5.676c0.046,1.073,0.035,2.317,1.404,2.477
	c1.238,0.144,2.673,0.449,3.504-1.049c0.558-1.003,1.232-1.8,2.498-0.909c0.134,0.861,0.908,1.297,1.311,1.98
	c0.382,0.563,0.484,1.305-0.05,1.629c-1.464,0.892-1.627,2.488-2.32,3.796c-0.607-0.048-1.509,0.056-1.659-0.535
	c-0.904-3.564-4.271-2.647-6.549-3.622c-0.966-0.414-2.064-0.375-2.359-1.656C25.657,6.446,26.9,5.414,28.79,5.676z"/>
<path fill-rule="evenodd" clip-rule="evenodd" fill="#DBB270" d="M35.137,13.6c0.065-1.543-0.023-3.128,1.608-4.093
	c0.168-0.1-0.007-0.779-0.022-1.19c0.094-0.726-0.033-1.507,0.528-2.116c2.292-0.399,2.303,0.858,1.761,2.464
	c-0.106,0.314-0.391,0.57-0.602,0.846c-2.783,3.622-2.427,4.727,2.007,6.203c0.254,0.163,0.437,0.385,0.551,0.665
	c0.173,1.024-0.11,1.723-1.279,1.784c-1.042-0.219-0.723-1.421-1.38-1.919c-0.707-0.528-1.413-1.056-2.119-1.584
	C35.838,14.306,35.487,13.953,35.137,13.6z"/>
<path fill-rule="evenodd" clip-rule="evenodd" fill="#D8B375" d="M28.79,5.676c-1.197,1.123-2.338,2.359-4.221,2.111
	c-0.611-0.468-1.141-1.127-0.23-1.608c1.874-0.989,3.18-2.976,5.511-3.144C29.569,3.945,28.77,4.646,28.79,5.676z"/>
<path fill-rule="evenodd" clip-rule="evenodd" fill="#D9AD65" d="M40.422,16.242c-0.002-0.176-0.003-0.352-0.005-0.528
	c-0.843-2.063-3.261-3.827-0.845-6.433c2.386-2.573,3.423-2.528,5.074,0.621c-1.981,1.439-2.871,3.299-2.404,5.787
	c0.139,0.739,0.128,1.559-0.22,2.299c-0.251,0.343-0.574,0.534-1.013,0.487C40.242,17.881,41.061,16.87,40.422,16.242z"/>
<path fill-rule="evenodd" clip-rule="evenodd" fill="#D7AA63" d="M41.478,17.818c-0.05-1.229,0-2.47-0.168-3.683
	c-0.496-3.572-0.306-3.853,3.337-4.234c0.705,0.352,1.411,0.703,2.117,1.054c1.219,0.712,2.169,1.604,2.115,3.166
	c0.33,0.426,0.483,0.888,0.298,1.42c-0.798,0.892-1.33,0.231-1.967-0.282c-2.298-1.85-2.361-1.813-3.63,0.887
	c-0.26,0.553-0.201,1.232-0.689,1.691C42.413,18.178,41.94,18.275,41.478,17.818z"/>
<path fill-rule="evenodd" clip-rule="evenodd" fill="#E1B877" d="M37.251,6.202c0.367,0.841,0.67,1.666-0.528,2.116
	c-0.795-0.554-1.203-1.204-0.526-2.123C36.548,6.197,36.899,6.2,37.251,6.202z"/>
<path fill-rule="evenodd" clip-rule="evenodd" fill="#E7C083" d="M15.053,23.637c0.179-0.697,0.357-1.395,0.536-2.092
	c-0.153-0.866,0.458-1.066,1.09-1.248c0.967-0.177,1.875,0.074,2.716,0.493c1.417,0.706,1.927,1.655,0.575,2.933
	c-1.628,0.486-3.189,1.301-4.974,1.073C14.717,24.395,14.765,24.01,15.053,23.637z"/>
<path fill-rule="evenodd" clip-rule="evenodd" fill="#CFA867" d="M16.606,20.962c-0.339,0.194-0.678,0.389-1.017,0.583
	c-1.55,0.471-1.67-0.334-1.292-1.494c0.29-0.891,1.059-1.333,1.837-1.739c0.469-0.426,0.988-0.765,1.602-0.945
	c0.388-0.059,0.747,0.002,1.063,0.249c0.91,1.802-1.158,1.866-1.661,2.844C16.971,20.637,16.793,20.805,16.606,20.962z"/>
<path fill-rule="evenodd" clip-rule="evenodd" fill="#DFBE86" d="M15.053,23.637c0.002,0.354,0.005,0.708,0.007,1.062
	c0.205,0.197,0.282,0.436,0.231,0.715c-0.285,0.584-0.69,0.763-1.265,0.378c-0.415-0.872-1.368-1.527-1.075-2.682
	C13.597,23.508,14.211,24.026,15.053,23.637z"/>
<path fill-rule="evenodd" clip-rule="evenodd" fill="#E8C58C" d="M17.676,17.794c-0.514,0.173-1.027,0.346-1.542,0.519
	c-0.011-0.335-0.022-0.669-0.034-1.004c0.707-0.183,1.414-0.366,2.122-0.548c0.041,0.106,0.081,0.211,0.122,0.316
	C18.251,17.438,17.967,17.619,17.676,17.794z"/>
<path fill-rule="evenodd" clip-rule="evenodd" fill="#E3D1AD" d="M7.132,32.623c0-0.706,0-1.41,0-2.115
	C7.13,30.154,7.127,29.8,7.125,29.445l0,0c0.179-0.354,0.355-0.353,0.53,0.003c1.855,0.753,3.41-1.521,5.289-0.522
	c0.148,0.118,0.197,0.234,0.147,0.351c-0.05,0.117-0.1,0.175-0.149,0.175C10.357,29.321,9.195,31.798,7.132,32.623z"/>
<path fill-rule="evenodd" clip-rule="evenodd" fill="#DCBA81" d="M15.088,29.446c0.058-0.239,0.116-0.479,0.174-0.717
	c0.167-0.335,0.399-0.595,0.785-0.677c0.375-0.024,0.713,0.101,1.046,0.252c0.646,0.357,1.296,0.708,1.994,0.962
	c1.388,0.772,3.222-0.151,4.463,1.175c0.203,0.691-0.199,1.032-0.743,1.293c-0.402,0.124-0.812,0.219-1.215,0.333
	c-1.208,0.387-2.439,0.334-3.674,0.182c-1.01-0.388-1.756-1.181-2.656-1.74C14.998,30.189,14.833,29.852,15.088,29.446z"/>
<path fill-rule="evenodd" clip-rule="evenodd" fill="#E8D4AF" d="M15.088,29.446c0.183,0.168,0.366,0.335,0.549,0.504
	c0.254,0.324,0.307,0.677,0.146,1.059c-0.171,0.196-0.387,0.313-0.641,0.363c-0.621,0.03-0.851-0.456-1.143-0.862
	c-0.132-0.616-0.525-0.712-1.058-0.532c0.001-0.176,0-0.352,0-0.527c0-0.176,0.001-0.351,0.002-0.526
	C13.658,29.099,14.374,29.272,15.088,29.446z"/>
<path fill-rule="evenodd" clip-rule="evenodd" fill="#DEC9A0" d="M7.655,29.448c-0.176-0.001-0.354-0.002-0.53-0.003
	c0.01-1.403,0.021-2.807,0.031-4.21c0.169,0.35,0.337,0.699,0.506,1.049C7.66,27.339,7.657,28.394,7.655,29.448z"/>
<path fill-rule="evenodd" clip-rule="evenodd" fill="#CBA86C" d="M16.063,28.416c-0.268,0.105-0.536,0.211-0.802,0.315
	c-0.071-0.11-0.131-0.225-0.18-0.346c0.162-0.352,0.324-0.703,0.486-1.055c0.276-0.294,0.603-0.339,0.968-0.199
	c0.487,0.453,0.254,0.828-0.127,1.188C16.292,28.352,16.177,28.383,16.063,28.416z"/>
<path fill-rule="evenodd" clip-rule="evenodd" fill="#DFAF66" d="M16.675,27.352c-0.369-0.007-0.739-0.014-1.108-0.021
	c-0.003-0.171-0.006-0.341-0.01-0.511c0.092-0.264,0.251-0.479,0.478-0.644c0.726-0.423,1.482-0.738,2.35-0.664
	c0.586,0.011,1.153,0.074,1.581,0.546c0.164,0.261,0.239,0.543,0.227,0.85C19.199,28.49,18.079,29.048,16.675,27.352z"/>
<path fill-rule="evenodd" clip-rule="evenodd" fill="#CBA86C" d="M16.178,26.773c-0.208,0.015-0.415,0.031-0.622,0.046
	c-0.697-0.064-1.313-0.249-1.529-1.027c0.351-0.18,0.701-0.361,1.052-0.541c0.394-0.368,0.861-0.557,1.399-0.571
	c0.255,0.051,0.482,0.162,0.684,0.325C17.724,26.089,16.465,26.161,16.178,26.773z"/>
<path fill-rule="evenodd" clip-rule="evenodd" fill="#E8C58C" d="M19.275,15.188c0.18-0.001,0.359-0.003,0.54-0.006
	c0.209,0.181,0.334,0.408,0.376,0.683c-0.005,0.597-0.285,1.01-0.831,1.247c-0.418,0.092-0.787-0.003-1.102-0.297l-0.036-0.053
	C18.573,16.237,18.924,15.712,19.275,15.188z"/>
<path fill-rule="evenodd" clip-rule="evenodd" fill="#EADDC2" d="M17.171,33.679c-0.113,1.138,0.382,2.479-1.06,3.173
	c-0.351-0.002-0.702-0.004-1.053-0.006c-0.68-0.788-2.051-0.236-2.581-1.466c-0.764-1.772-0.297-2.673,2.195-3.74
	C15.966,31.753,16.959,32.236,17.171,33.679z"/>
<path fill-rule="evenodd" clip-rule="evenodd" fill="#E6DABE" d="M15.056,32.094c-2.716,1.451-2.716,1.99,0.001,4.752
	c-1.889,0.273-3.207-0.373-3.746-2.303c-0.561-2.01,0.647-2.819,2.249-3.409c0.196-0.072,0.295-0.409,0.439-0.624
	c0.349,0.178,0.697,0.355,1.045,0.534C15.374,31.39,15.336,31.741,15.056,32.094z"/>
<path fill-rule="evenodd" clip-rule="evenodd" fill="#E1BD85" d="M52.054,15.712c1.105,2.587,2.199,5.142,0.326,7.894
	c-0.609,0.895-0.281,2.047-0.272,3.09c-0.094,0.083-0.189,0.166-0.284,0.25c-0.402,0.039-0.729-0.113-0.999-0.404
	c-1.14-1.556-2.027-3.091-0.462-4.955c0.591-0.704,0.274-1.693,0.238-2.564c0.063-0.244,0.186-0.455,0.358-0.638
	c0.453-2.251-1.061-4.183-1.033-6.365C50.635,13.251,51.345,14.481,52.054,15.712z"/>
<path fill-rule="evenodd" clip-rule="evenodd" fill="#D7A150" d="M41.478,17.818c0.353-0.174,0.704-0.348,1.057-0.521
	c2.596-3.021,2.864-3.067,6.304-1.074c0.441,0.032,0.775,0.27,1.082,0.562c0.002,0.172,0.001,0.344-0.001,0.516
	c-0.495,0.815-1.348,0.747-2.124,0.866c-0.948,0.033-1.549,0.842-2.403,1.087c-1.333,0.008-2.404,1.072-3.773,0.937
	c-0.401-0.03-0.79-0.099-1.12-0.354c-0.197-0.193-0.306-0.429-0.323-0.705c0.08-0.437,0.346-0.69,0.774-0.782
	C41.125,18.172,41.301,17.995,41.478,17.818z"/>
<path fill-rule="evenodd" clip-rule="evenodd" fill="#CD9C51" d="M47.297,17.313c0.874-0.004,1.748-0.01,2.622-0.014
	c0.347,0.361,0.693,0.724,1.04,1.085c0.017,0.162,0.031,0.323,0.045,0.483c0.631,2.726-0.005,3.541-2.85,3.659
	c-0.398-0.23-0.599-0.57-0.557-1.037C49.188,19.981,47.337,18.711,47.297,17.313z"/>
<path fill-rule="evenodd" clip-rule="evenodd" fill="#D6AB67" d="M49.92,16.784c-0.347-0.006-0.693-0.011-1.04-0.018
	c-0.311-0.35-0.335-0.7-0.005-1.053c0.001-0.53,0.003-1.061,0.004-1.591C49.851,14.765,49.952,15.748,49.92,16.784z"/>
<path fill-rule="evenodd" clip-rule="evenodd" fill="#E0C899" d="M62.615,36.322c-0.001,0.176-0.002,0.351-0.005,0.525
	c-3.557,1.49-5.293-1.264-7.392-3.171c-0.412-0.423-0.54-0.931-0.444-1.502c0.737-1.41,2.149-1.811,3.483-2.326
	c2.078-0.245,1.632,2.522,3.298,2.77C62.338,33.73,62.469,35.029,62.615,36.322z"/>
<path fill-rule="evenodd" clip-rule="evenodd" fill="#DDC495" d="M61.556,32.619c-0.725,0.652-1.488,1.367-2.52,0.734
	c-0.856-0.523-0.363-1.394-0.35-2.145c0.007-0.408-0.192-0.819-0.299-1.229c-0.135-0.116-0.181-0.233-0.136-0.351
	c0.044-0.118,0.088-0.176,0.134-0.176c0.541-0.607,0.763-1.856,1.807-1.525c0.941,0.298,1.252,1.369,1.316,2.36
	C61.56,31.063,61.543,31.842,61.556,32.619z"/>
<path fill-rule="evenodd" clip-rule="evenodd" fill="#E4C899" d="M52.583,26.72c0.551-2.345,0.831-4.865,3.688-5.722
	c-0.017,1.776,0.496,3.607-0.526,5.284c-0.022,0.41-0.164,0.763-0.487,1.03c-0.349,0.208-0.738,0.263-1.134,0.297
	C53.431,27.625,52.493,28.062,52.583,26.72z"/>
<path fill-rule="evenodd" clip-rule="evenodd" fill="#E3CA9D" d="M55.217,26.81c0.176-0.176,0.352-0.353,0.528-0.528
	c0.88,1.057,1.761,2.114,2.641,3.171c0.001,0.175,0.002,0.351,0.002,0.526c-0.558,1.453-1.892,1.74-3.168,2.115
	c-0.945-0.859-0.328-2.24-1.06-3.171l0.001,0C53.639,27.781,54.778,27.471,55.217,26.81z"/>
<path fill-rule="evenodd" clip-rule="evenodd" fill="#D4B481" d="M52.583,26.72c0.513,0.036,1.026,0.072,1.54,0.107
	c0.91,1.174,0.91,1.174-1.229,1.686c-0.276-0.01-0.532-0.087-0.768-0.231c-0.216-0.178-0.351-0.405-0.404-0.679
	c-0.013-0.283,0.08-0.527,0.275-0.732c0,0,0.109-0.173,0.109-0.173C52.266,26.724,52.424,26.732,52.583,26.72z"/>
<path fill-rule="evenodd" clip-rule="evenodd" fill="#DDB87B" d="M30.914,53.222c-1.627-1.218-0.298-2.451-0.019-3.678
	c1.397-0.202,2.942-0.064,3.744-1.638c0.413-0.136,0.821-0.121,1.229,0.025c1.048,0.738,2.402,1.257,2.097,2.951
	c-0.074,0.419-0.276,0.776-0.536,1.104c-1.383,0.795-1.326,2.441-2.114,3.591c-0.512,0.294-1.006,0.156-1.495-0.063
	C32.747,54.885,32.186,53.604,30.914,53.222z"/>
<path fill-rule="evenodd" clip-rule="evenodd" fill="#DEBD84" d="M30.914,53.222c1.803-0.955,2.398,0.489,3.165,1.593
	c0.586,0.91,1.058,1.834,0.357,2.901c-0.12,0.09-0.24,0.179-0.36,0.269c-0.702,0.352-1.406,0.704-2.108,1.057
	C32.677,56.909,32.109,55.009,30.914,53.222z"/>
<path fill-rule="evenodd" clip-rule="evenodd" fill="#D7B478" d="M34.609,48.478c-0.477,3.008-2.099,2.024-3.714,1.065
	c-0.719-0.048-1.307-0.288-1.54-1.049c0.98-1.24,2.36-0.666,3.586-0.787C33.598,47.746,34.228,47.843,34.609,48.478z"/>
<path fill-rule="evenodd" clip-rule="evenodd" fill="#D4B177" d="M28.282,46.914c-0.53-0.021-1.061-0.042-1.592-0.062
	c-0.053-1.577,1.324-1.706,2.285-2.258c1.342-0.094,2.684-0.191,4.017,0.094c0.735,0.36,1.131,0.95,1.193,1.763
	c0.001,0.286-0.069,0.56-0.203,0.813c-0.731,0.944-1.732,0.259-2.594,0.419c-0.493-0.005-0.988,0.002-1.48-0.043
	C29.308,47.528,28.745,47.332,28.282,46.914z"/>
<path fill-rule="evenodd" clip-rule="evenodd" fill="#D1AA6B" d="M28.787,45.311c-0.462,0.836-1.414,1.008-2.097,1.542
	c-0.172,0.024-0.344,0.049-0.516,0.074c-0.182-0.011-0.364-0.021-0.546-0.031c-0.521-0.546-1.001-1.109-0.82-1.951
	c0.643-1.204,1.737-0.926,2.771-0.843C28.181,44.306,28.612,44.681,28.787,45.311z"/>
<path fill-rule="evenodd" clip-rule="evenodd" fill="#E9C488" d="M31.413,46.854c0.917-0.571,1.457,0.25,2.132,0.575
	c0.268,0.564-0.17,0.765-0.521,1.01c-1.224,0.019-2.446,0.037-3.669,0.056c-0.191-0.013-0.383-0.025-0.574-0.038
	c-0.196-0.645,0.223-0.864,0.712-1.034C30.159,47.319,30.958,47.668,31.413,46.854z"/>
<path fill-rule="evenodd" clip-rule="evenodd" fill="#F3D199" d="M29.854,47.945c-0.357,0.171-0.715,0.341-1.072,0.511
	c-1.459-0.097-1.305-0.714-0.5-1.543c0.52-0.266,1.042-0.465,1.58-0.04C30.167,47.232,30.165,47.59,29.854,47.945z"/>
<path fill-rule="evenodd" clip-rule="evenodd" fill="#DFB675" d="M35.136,60.097c-0.703,0.003-1.406,0.005-2.11,0.007
	c0.581-0.593,1.063-1.233,1.051-2.119l0.002-0.002c0.344-0.303,0.705-0.566,1.188-0.587c0.979,0.117,1.695,0.636,1.679,1.637
	C36.924,60.184,35.653,59.576,35.136,60.097z"/>
<path fill-rule="evenodd" clip-rule="evenodd" fill="#D6AB65" d="M25.091,45.298c0.179,0.532,0.358,1.064,0.536,1.598l-0.241,0.002
	l-0.242-0.004c-0.277,0.238-0.614,0.158-0.933,0.178c-0.649,0.06-1.3,0.138-1.947-0.031c-0.317-0.081-0.638-0.128-0.966-0.122
	c-1.314,0.015-2.089-0.999-3.074-1.613c-1.188-0.856-1.768-1.84-0.665-3.17c1.345,0.325,2.003-0.362,2.304-1.577
	c0.292-0.277,0.638-0.423,1.04-0.435C23.325,41.018,23.667,43.595,25.091,45.298z"/>
<path fill-rule="evenodd" clip-rule="evenodd" fill="#AD823D" d="M21.299,46.918c0.209-0.186,0.418-0.372,0.627-0.558
	c0.876-0.402,1.75-0.417,2.623,0.012c0.198,0.174,0.396,0.348,0.595,0.521c-0.146,0.193-0.293,0.386-0.441,0.578
	c-0.657,0.601-1.34,1.082-2.252,0.477c-0.145-0.021-0.291-0.04-0.435-0.06C21.777,47.565,21.538,47.242,21.299,46.918z"/>
<path fill-rule="evenodd" clip-rule="evenodd" fill="#BA8F48" d="M22.451,47.948c0.75-0.159,1.5-0.317,2.251-0.477
	c-0.35,0.729-0.977,1.005-1.738,1.064C22.793,48.341,22.622,48.145,22.451,47.948z"/>
<path fill-rule="evenodd" clip-rule="evenodd" fill="#DBB475" d="M18.221,42.123c-0.75,1.062-0.459,2.122,0.005,3.182
	c-0.703-0.354-1.406-0.707-2.108-1.061c0-0.703,0-1.406,0-2.109c0.705-0.353,1.41-0.706,2.115-1.059
	C18.506,41.429,18.505,41.777,18.221,42.123z"/>
<path fill-rule="evenodd" clip-rule="evenodd" fill="#D3A760" d="M18.221,42.123c0.003-0.349,0.008-0.698,0.012-1.047
	c0.181-0.168,0.361-0.336,0.542-0.504c0.613-0.113,1.172-0.058,1.566,0.506c-0.288,0.874,0.665,1.157,0.854,1.791
	c0.26,0.87,0.382,1.837-0.572,2.322c-1.015,0.518-1.387-0.474-1.743-1.11C18.549,43.49,18.432,42.78,18.221,42.123z"/>
<path fill-rule="evenodd" clip-rule="evenodd" fill="#D0AB6B" d="M20.33,38.958c-0.002-0.357-0.005-0.715-0.008-1.072
	c-0.301-0.622-0.09-1.118,0.379-1.553c2.276-0.802,2.49-0.665,2.541,1.626c-0.055,0.897-0.387,1.599-1.331,1.864
	C21.175,39.921,20.631,39.66,20.33,38.958z"/>
<path fill-rule="evenodd" clip-rule="evenodd" fill="#CEA765" d="M20.33,38.958c0.533-0.173,0.937-0.087,1.071,0.536
	c0.265,0.578-0.042,0.865-0.538,1.054c-0.174,0.177-0.348,0.354-0.522,0.53c-0.522-0.169-1.044-0.338-1.566-0.506
	C19.098,39.848,19.497,39.193,20.33,38.958z"/>
<path fill-rule="evenodd" clip-rule="evenodd" fill="#E0C28E" d="M20.886,36.856c-0.188,0.343-0.376,0.687-0.564,1.03
	c-0.343,0.01-0.685,0.02-1.028,0.029c-0.002-0.178-0.005-0.355-0.007-0.533c0.276-0.795,0.509-1.602,0.67-2.43
	c0.478-0.766,1.057-1.406,1.991-1.611c0.27,0.012,0.51,0.1,0.73,0.252c0.18,0.203,0.295,0.438,0.349,0.703
	c0.017,0.266-0.026,0.522-0.125,0.77C22.295,35.734,21.594,36.3,20.886,36.856z"/>
<path fill-rule="evenodd" clip-rule="evenodd" fill="#E6D4AF" d="M15.056,32.094c-0.003-0.35-0.007-0.7-0.011-1.05
	c0.184-0.003,0.367-0.006,0.55-0.009c0.653-0.429,1.125,0.035,1.631,0.331c0.554,0.821,1.547,1.18,2.105,1.997
	c0.24,0.47,0.348,0.933-0.053,1.377c-0.702-0.354-1.405-0.707-2.107-1.061C16.466,33.15,15.761,32.622,15.056,32.094z"/>
<path fill-rule="evenodd" clip-rule="evenodd" fill="#EAD0A3" d="M19.278,34.739c-0.174-0.351-0.349-0.702-0.523-1.053
	c0.52-0.521,1.082-0.527,1.675-0.138c0.436,0.595,0.285,1.162-0.081,1.719c-0.149,0.808-0.476,1.526-1.063,2.115
	c-0.182-0.006-0.363-0.01-0.545-0.015C19.167,36.542,19.303,35.657,19.278,34.739z"/>
<path fill-rule="evenodd" clip-rule="evenodd" fill="#E3C693" d="M58.388,45.305c-0.224,0.788-0.555,1.674-1.507,1.466
	c-0.915-0.199-0.623-1.168-0.486-1.79c0.329-1.503-0.246-2.954-0.118-4.434c0.52-0.965,1.177-1.439,2.312-0.849
	c1.149,0.599,0.636,1.446,0.464,2.271C58.821,43.08,58.608,44.193,58.388,45.305z"/>
<path fill-rule="evenodd" clip-rule="evenodd" fill="#E6C995" d="M54.16,28.922c0.889,0.878,1.071,1.993,1.06,3.171
	c-0.001,0.527-0.001,1.055-0.001,1.583c-0.351,0.001-0.701,0.001-1.051,0.002C54.165,32.094,54.163,30.508,54.16,28.922z"/>
<path fill-rule="evenodd" clip-rule="evenodd" fill="#DBB77D" d="M55.211,41.081c-0.351-0.178-0.7-0.356-1.051-0.533
	c-1.069-0.086-1.442-0.88-1.761-1.729c-0.133-2.886-1.046-5.763-0.089-8.66c0.031-0.452,0.178-0.855,0.503-1.181
	c0.259-0.194,0.529-0.21,0.811-0.049c0.001,1.652,0.093,3.311-0.018,4.956c-0.151,2.25,0.262,4.305,1.611,6.138
	C55.542,40.377,55.515,40.729,55.211,41.081z"/>
<path fill-rule="evenodd" clip-rule="evenodd" fill="#E6C995" d="M53.624,28.929c-0.18,0.003-0.358,0.007-0.538,0.01
	c-0.837-0.079-0.94-0.451-0.425-1.068c0.653-0.116,1.724,0.352,1.462-1.044c0.364-0.005,0.729-0.012,1.094-0.017
	c0.005,0.882-0.469,1.526-1.056,2.112C53.982,28.924,53.804,28.927,53.624,28.929z"/>
<path fill-rule="evenodd" clip-rule="evenodd" fill="#D6BB87" d="M55.211,41.081c0.002-0.353,0.004-0.706,0.007-1.059
	c0.736,1.404,0.744,2.809,0.008,4.216C55.221,43.186,55.216,42.133,55.211,41.081z"/>
<path fill-rule="evenodd" clip-rule="evenodd" fill="#D8AC65" d="M52.661,27.871c0.142,0.356,0.283,0.712,0.426,1.068
	c0.003,0.346,0.008,0.692,0.012,1.039c-2.037,3.309-0.603,6.555,0.179,9.814c0.463,0.717,0.266,1.683,0.88,2.343
	c0.339,2.394-0.735,4.571-1.049,6.865c0.326,0.406,0.325,0.801-0.043,1.182c-0.652,0.174-1.149-0.059-1.535-0.581
	c-0.446-1.083-0.219-2.221-0.264-3.334c0.854-2.797,0.625-5.451-1.065-7.904c-0.662-0.57-1.544-0.63-2.301-0.983
	c-0.198-0.156-0.348-0.35-0.456-0.575c-0.072-0.234-0.093-0.476-0.067-0.718c0.833-1.328-1.268-1.771-0.906-2.961
	c0.715-1.493,2.903-1.107,3.501-2.751c0.181-0.296,0.35-0.6,0.505-0.91c0.149-0.317,0.264-0.648,0.397-0.972
	c0.27-0.446,0.659-0.665,1.184-0.633C52.259,27.863,52.46,27.867,52.661,27.871z"/>
<path fill-rule="evenodd" clip-rule="evenodd" fill="#D5B06D" d="M53.102,50.06c0.002-0.354,0.004-0.706,0.007-1.06
	c1.118,1.588,1.787,3.178,0.014,4.773l-0.023-0.018c-0.763-0.49-1.038-1.175-0.821-2.056C52.368,51.062,52.512,50.448,53.102,50.06z
	"/>
<path fill-rule="evenodd" clip-rule="evenodd" fill="#D8B06F" d="M54.157,42.135c-0.772-0.494-1.042-1.24-1.057-2.113
	c-0.322-0.358-0.296-0.715,0.007-1.068c0.352,0.531,0.702,1.063,1.053,1.595C54.159,41.076,54.158,41.605,54.157,42.135z"/>
<path fill-rule="evenodd" clip-rule="evenodd" fill="#DCB16C" d="M50.991,55.343c0.522,0.174,1.044,0.348,1.565,0.521
	c-1.731-0.327-3.053,1.17-4.734,1.065c-0.116-0.046-0.233-0.091-0.351-0.137c-1.044-1.066-2.554-1.705-3.026-3.3
	c0.093-1.186,0.577-2.139,1.627-2.76c1.977-0.394,2.598,1.189,3.484,2.385C49.981,53.891,50.552,54.575,50.991,55.343z"/>
<path fill-rule="evenodd" clip-rule="evenodd" fill="#DDB371" d="M44.646,59.048c-0.527-0.002-1.055-0.005-1.582-0.008
	c-1.626-0.875-1.65-2.063-0.671-3.443c0.585-0.674,1.186-1.317,2.215-1.017c0.063,2.152,2.343,1.282,3.207,2.347l0.007,0.002
	C47.046,58.058,45.614,58.205,44.646,59.048z"/>
<path fill-rule="evenodd" clip-rule="evenodd" fill="#D0A257" d="M50.991,55.343c-1.03,0.007-2.026-0.073-2.656-1.066
	c-0.368-1.724-0.587-3.401,1.361-4.411c1.586-0.271,2.707,0.344,3.394,1.784c0.003,0.702,0.006,1.404,0.009,2.106
	C52.396,54.284,51.694,54.813,50.991,55.343z"/>
<path fill-rule="evenodd" clip-rule="evenodd" fill="#D7AA63" d="M40.422,56.401c-0.705,0.176-1.41,0.352-2.115,0.527
	c-2.892-1.749-2.618-3.926,0.777-6.188c0.639-0.184,1.171,0.025,1.644,0.448c0.778,1.541,2.797,2.594,1.896,4.8
	C41.974,56.577,41.318,57.135,40.422,56.401z"/>
<path fill-rule="evenodd" clip-rule="evenodd" fill="#DBB270" d="M35.136,60.097c1.17-0.704,1.677-1.408-0.001-2.111
	c-0.635-0.881-0.686-1.762,0.002-2.643c-0.066-1.487,0.082-2.883,1.586-3.697c0.764,1.884-0.291,3.933,0.529,5.812
	C38.381,59.855,38.381,59.855,35.136,60.097z"/>
<path fill-rule="evenodd" clip-rule="evenodd" fill="#D8AD69" d="M37.252,57.457c-1.931-1.777-0.03-3.903-0.529-5.812
	c0.175-0.177,0.35-0.354,0.524-0.531c0.709-0.654,1.417-1.328,2.12,0.006c-2.141,1.61-2.732,3.503-1.061,5.809
	C37.955,57.104,37.604,57.28,37.252,57.457z"/>
<path fill-rule="evenodd" clip-rule="evenodd" fill="#DCB16C" d="M40.422,56.401c0.703-0.177,1.406-0.354,2.11-0.531
	c0.178-0.182,0.354-0.189,0.53,0.002c-0.552,1.057-0.555,2.112,0.002,3.168C41.381,58.965,40.501,58.083,40.422,56.401z"/>
<path fill-rule="evenodd" clip-rule="evenodd" fill="#DDBD86" d="M19.826,15.716c-0.003-0.178-0.007-0.356-0.011-0.534
	c0.374-1.042,0.288-1.995-0.18-3.045c-0.599-1.346-0.627-2.752,0.707-3.82c0.038,1.614,0.674,2.886,2.113,3.699
	c0,0.528,0,1.056,0.001,1.584c0.048,0.566,0.17,1.136-0.077,1.69C21.675,16.317,20.855,16.645,19.826,15.716z"/>
<path fill-rule="evenodd" clip-rule="evenodd" fill="#E3C188" d="M34.081,15.715c1.627,0.479,2.833,1.379,3.158,3.159
	c0.063,0.392,0.04,0.772-0.164,1.126c-0.663,1.208-1.614,1.178-2.687,0.628c-0.814-0.578-1.775-0.853-2.675-1.258
	c-0.332-1.367-2.107-0.99-2.611-2.154c0.214-1.503,1.384-1.256,2.351-1.206C32.359,16.057,33.279,16.52,34.081,15.715z"/>
<path fill-rule="evenodd" clip-rule="evenodd" fill="#DFBB7F" d="M19.826,15.716c0.877-0.004,1.517-0.478,2.103-1.062
	c0.527-0.446,1.055-0.382,1.583,0c1.622-0.034,2.851,0.976,4.229,1.588c0.418,0.504,0.509,1.041,0.163,1.622
	c-2.975,0.412-5.837-0.065-8.627-1.103C19.459,16.413,19.642,16.064,19.826,15.716z"/>
<path fill-rule="evenodd" clip-rule="evenodd" fill="#E0BD83" d="M27.735,17.818c0.001-0.525,0.004-1.05,0.005-1.576
	c2.071-0.685,4.214-0.518,6.341-0.527c-0.451,1.075-1.302,1.012-2.208,0.766c-1.03-0.281-1.91-0.116-2.547,0.819
	c0.304,0.295,0.338,0.639,0.183,1.018c-0.601,0.565-1.128,0.352-1.629-0.151C27.832,18.05,27.783,17.935,27.735,17.818z"/>
<path fill-rule="evenodd" clip-rule="evenodd" fill="#E2B775" d="M36.717,19.407c0.174-0.178,0.349-0.355,0.522-0.533
	c1.252-0.514,1.012-1.632,1.069-2.631c0.764,0.254,1.022,0.849,1.068,1.586c0.448,0.481,0.546,1.047,0.401,1.672
	c-0.258,0.6-0.749,0.919-1.34,1.122c-0.616,0.077-1.199,0.023-1.682-0.425C36.521,19.945,36.508,19.682,36.717,19.407z"/>
<path fill-rule="evenodd" clip-rule="evenodd" fill="#DBBA82" d="M23.511,14.654c-0.527,0-1.055,0-1.583,0
	c0.175-0.351,0.352-0.703,0.527-1.055C22.807,13.951,23.159,14.303,23.511,14.654z"/>
<path fill-rule="evenodd" clip-rule="evenodd" fill="#E0AF65" d="M39.334,19.388c0.015-0.52,0.028-1.04,0.043-1.559
	c0.756-0.261,1.007-0.854,1.045-1.587c0.483,0.625,0.528,1.361,0.527,2.107c-0.173,0.182-0.345,0.364-0.518,0.546
	C40.171,19.293,39.938,19.753,39.334,19.388z"/>
<path fill-rule="evenodd" clip-rule="evenodd" fill="#D7A557" d="M48.875,15.713c0.001,0.352,0.004,0.702,0.005,1.053
	c-2.258-1.526-4.274-0.172-6.346,0.53c0.354-1.408-0.225-2.952,0.817-4.284c1.102-1.408,2.084-1.808,3.288-0.179
	C47.362,13.81,48.128,14.754,48.875,15.713z"/>
<path fill-rule="evenodd" clip-rule="evenodd" fill="#E4B671" d="M16.606,20.962c0.015-0.168,0.026-0.337,0.035-0.506
	c0.909-1.256,2.438-0.695,3.597-1.228c0.301-0.029,0.601-0.023,0.9,0.018c2.934,1.177,3.062,1.731,1.219,5.307
	c-0.931,0.547-1.851,1.157-2.997,0.566c-0.247-0.195-0.41-0.445-0.49-0.749c-0.069-0.484,0.106-0.889,0.414-1.249
	c0.952-0.472,0.839-1.05,0-1.412C18.44,21.347,17.503,21.202,16.606,20.962z"/>
<path fill-rule="evenodd" clip-rule="evenodd" fill="#DEB778" d="M19.284,23.123c-0.001,0.35-0.003,0.7-0.004,1.049
	c-0.613,0.995-1.782,0.568-2.607,1.021c-0.531,0.02-1.063,0.039-1.594,0.058c-0.006-0.184-0.013-0.368-0.019-0.552
	C16.189,23.426,17.856,23.594,19.284,23.123z"/>
<path fill-rule="evenodd" clip-rule="evenodd" fill="#C79A51" d="M20.328,19.91c-1.133,0.829-2.449,0.426-3.687,0.546
	c-0.622-1.972,1.828-1.401,2.147-2.594c2.396-1.601,4.694-0.911,6.968,0.3c-0.111,0.46-0.428,0.719-0.854,0.868
	c-0.65,0.142-1.316,0.106-1.974,0.126C22.021,19.26,20.983,18.923,20.328,19.91z"/>
<path fill-rule="evenodd" clip-rule="evenodd" fill="#DFB471" d="M25.674,18.316c-2.261-0.668-4.529-1.239-6.886-0.454
	c-0.371-0.022-0.741-0.044-1.112-0.067c0.194-0.328,0.388-0.655,0.583-0.981c0.339-0.017,0.678-0.035,1.017-0.052
	c2.924-0.483,5.723,0.039,8.459,1.057c0,0,0.004,0.019,0.004,0.019c0.17,0.294,0.132,0.557-0.115,0.791
	C26.886,19.08,26.223,19.057,25.674,18.316z"/>
<path fill-rule="evenodd" clip-rule="evenodd" fill="#D9B070" d="M18.227,29.982c-0.531-0.347-1.063-0.694-1.594-1.041
	c1.461-0.914,3.232-0.728,4.777-1.349c1.733-0.534,3.47-1.033,5.316-0.883c0.28,0.104,0.513,0.273,0.699,0.506
	c0.579,2.304-1.684,1.963-2.641,2.839c-0.433,0.136-0.875,0.101-1.317,0.064C21.717,30.219,19.961,30.496,18.227,29.982z"/>
<path fill-rule="evenodd" clip-rule="evenodd" fill="#E8C791" d="M21.401,31.05c0.35-0.002,0.699-0.004,1.048-0.006
	c0.495,0.527,1.313-0.093,1.788,0.506c0.341,0.692,0.104,1.302-0.271,1.894c-0.448,0.408-0.939,0.558-1.507,0.252l-0.006-0.02
	c-0.542-0.42-1.475-0.186-1.751-1.047C20.577,31.944,21.097,31.544,21.401,31.05z"/>
<path fill-rule="evenodd" clip-rule="evenodd" fill="#CDA15C" d="M21.383,28.392c-1.422,1.578-3.134,0.65-4.75,0.549
	c-0.19-0.175-0.38-0.351-0.57-0.526c0,0.001,0.101-0.025,0.101-0.025C17.904,27.931,19.644,27.304,21.383,28.392z"/>
<path fill-rule="evenodd" clip-rule="evenodd" fill="#DFC38F" d="M21.401,31.05c-0.177,0.524-0.353,1.048-0.529,1.572
	c-0.087,0.1-0.175,0.198-0.262,0.298c-1.237,0.395-2.352,0.41-3.007-0.98c0.037-0.126,0.074-0.253,0.111-0.38
	C18.968,31.57,20.229,31.623,21.401,31.05z"/>
<path fill-rule="evenodd" clip-rule="evenodd" fill="#E1BF86" d="M24.039,31.566c-0.53-0.174-1.059-0.348-1.589-0.522
	c0.354-0.179,0.708-0.357,1.063-0.535c0.088-0.102,0.176-0.204,0.264-0.307c1.006-0.132,1.912-1.278,3.029-0.3
	c0.119,0.27,0.141,0.546,0.068,0.832C26.165,31.816,25.331,32.473,24.039,31.566z"/>
<path fill-rule="evenodd" clip-rule="evenodd" fill="#DCB575" d="M18.227,29.982c1.774-0.077,3.589,0.253,5.294-0.521
	c0.304,0.352,0.303,0.701-0.009,1.048l0,0C21.749,30.351,19.913,30.917,18.227,29.982z"/>
<path fill-rule="evenodd" clip-rule="evenodd" fill="#E0C697" d="M17.146,31.582c-0.517-0.182-1.034-0.365-1.551-0.547
	c0.014-0.361,0.027-0.723,0.041-1.084c0.943,0.213,1.591,0.807,2.078,1.609l-0.025,0.008C17.515,31.837,17.334,31.829,17.146,31.582
	z"/>
<path fill-rule="evenodd" clip-rule="evenodd" fill="#D09F53" d="M21.383,28.392c-1.74-0.001-3.48-0.002-5.22-0.003
	c0.171-0.346,0.341-0.691,0.511-1.038c1.114,0.235,2.194,0.26,3.144-0.512c0.683-0.551,0.861-1.625,1.885-1.836
	c1.078-0.048,2.159-0.076,3.239,0.003c0.814,0.207,1.634,0.396,2.28,0.989c0.365,0.668,0.007,1.042-0.544,1.337
	C24.918,27.71,23.217,28.383,21.383,28.392z"/>
<path fill-rule="evenodd" clip-rule="evenodd" fill="#A77528" d="M25.083,25.738c-1.235,0.025-2.47,0.05-3.706,0.076
	c-0.429,0.43-0.917,0.699-1.55,0.563c-0.518-0.059-1.035-0.119-1.553-0.177c-0.341-0.254-0.392-0.59-0.277-0.974
	c0.293-0.499,0.79-0.519,1.283-0.547c0.89-0.162,1.779-0.323,2.668-0.484c0.304-0.304,0.643-0.551,1.053-0.69
	c1.034-0.274,1.984,0.043,2.927,0.414c0.272,0.125,0.498,0.306,0.681,0.542C27.188,26.185,26.347,26.214,25.083,25.738z"/>
<path fill-rule="evenodd" clip-rule="evenodd" fill="#B38946" d="M18.244,25.25c0.01,0.317,0.02,0.633,0.031,0.95
	c-0.699,0.191-1.398,0.383-2.097,0.574c-0.45-1.053,0.626-1.042,1.041-1.492C17.55,24.92,17.893,24.959,18.244,25.25z"/>
<path fill-rule="evenodd" clip-rule="evenodd" fill="#E9B66B" d="M19.827,26.376c0.517-0.188,1.033-0.375,1.55-0.563
	c0.164,1.381-0.921,0.864-1.56,1.026C19.82,26.685,19.823,26.531,19.827,26.376z"/>
<path fill-rule="evenodd" clip-rule="evenodd" fill="#E9BF7C" d="M18.244,25.25c-0.341,0.011-0.683,0.021-1.025,0.032
	c-0.182-0.029-0.364-0.059-0.546-0.088c0.625-0.966,1.599-1.037,2.607-1.021c-0.001,0.169,0,0.338,0,0.507
	C18.935,24.869,18.589,25.059,18.244,25.25z"/>
<path fill-rule="evenodd" clip-rule="evenodd" fill="#D8A75E" d="M47.827,22.05c2.006-0.115,3.278-0.961,3.176-3.182
	c0.902,1.081,1.386,2.153,0.221,3.406c-1.301,1.398-0.004,2.739,0.193,4.103c-0.752,0.9-1.64,0.711-2.553,0.323
	c-0.594-0.278-1.189-0.554-1.815-0.76c-0.253-0.102-0.465-0.257-0.645-0.46c-0.159-0.219-0.257-0.464-0.3-0.73
	c0.153-0.987-0.333-2.125,0.67-2.92C47.168,21.692,47.527,21.73,47.827,22.05z"/>
<path fill-rule="evenodd" clip-rule="evenodd" fill="#B17D2A" d="M48.959,25.708c0.819,0.223,1.639,0.446,2.458,0.669
	c0.193,0.165,0.388,0.329,0.581,0.494c0.008,0.14-0.005,0.277-0.036,0.414c-1.578,1.418-2.944,0.717-4.267-0.426
	C47.455,25.747,47.79,25.27,48.959,25.708z"/>
<path fill-rule="evenodd" clip-rule="evenodd" fill="#D9A85B" d="M39.334,19.388c0.365-0.164,0.731-0.329,1.097-0.493
	c0.006,0.188,0.012,0.376,0.019,0.565c0.457,1.199-0.306,2.071-1.026,2.7c-1.324,1.156-1.464,2.44-0.962,3.957
	c0.131,0.634,0.665,0.972,1.05,1.42c0.28,0.413,0.558,0.827,0.595,1.347c0.013,0.257,0.005,0.511-0.021,0.767
	c-0.07,0.401-0.269,0.719-0.608,0.946c-1.48,0.404-1.813-1.179-2.806-1.62c-0.411-0.331-0.873-0.587-1.311-0.881
	c-1.637-1.096-2.703-2.329-0.991-4.246c0.408-0.457,0.356-1.167,0.617-1.727c0.109-0.236,0.264-0.441,0.446-0.625
	c0.933-0.565,1.83-1.202,2.877-1.562C38.65,19.754,38.992,19.571,39.334,19.388z"/>
<path fill-rule="evenodd" clip-rule="evenodd" fill="#B57E28" d="M41.483,19.426c1.133-0.654,2.321-1.136,3.653-1.173
	c0.793-0.548,1.628-0.433,2.473-0.155c1.456,1.689,1.397,1.836-1.171,2.938c-0.576,0.239-1.176,0.442-1.624,0.92
	c-0.198,0.166-0.423,0.28-0.666,0.366c-0.254,0.055-0.507,0.105-0.76,0.169c-0.645,0.251-1.292,0.44-1.962,0.082
	C39.866,21.496,40.372,20.455,41.483,19.426z"/>
<path fill-rule="evenodd" clip-rule="evenodd" fill="#C78D36" d="M41.483,19.426c-0.195,0.949-0.643,1.948,0.522,2.627
	c0.241,0.32,0.169,0.646,0.022,0.974c-0.303,0.453-0.593,0.917-0.841,1.407c-0.362,0.444-0.429,1.058-0.833,1.48
	c-0.253,0.257-0.493,0.531-0.818,0.707c-0.567,0.307-1.199,0.114-1.792,0.235c-1.397-1.878-0.762-3.556,0.553-5.123
	c0.669-0.798,1.432-1.518,2.151-2.272C40.794,19.448,41.138,19.437,41.483,19.426z"/>
<path fill-rule="evenodd" clip-rule="evenodd" fill="#C89241" d="M47.815,18.365c-0.893-0.037-1.786-0.073-2.679-0.111
	c0.462-0.909,1.308-0.932,2.16-0.94c3.191,1.484,3.4,2.313,1.058,4.203c-1.397-0.402-3.033,1.061-4.276-0.546
	c0.543-0.169,1.085-0.338,1.627-0.507c0.523-0.475,1.191-0.112,1.757-0.298C48.61,19.785,48.915,19.204,47.815,18.365z"/>
<path fill-rule="evenodd" clip-rule="evenodd" fill="#D59B44" d="M44.078,20.97c1.431,0.143,2.933-0.272,4.276,0.546
	c-0.176,0.178-0.353,0.355-0.527,0.533c-0.354,0.001-0.708,0.002-1.062,0.003c-1.195,0.628-2.326,0.873-3.181-0.533
	C43.749,21.336,43.914,21.153,44.078,20.97z"/>
<path fill-rule="evenodd" clip-rule="evenodd" fill="#D19C4B" d="M39.361,29.458c0.002-0.179,0.004-0.359,0.007-0.539
	c0.342-0.482,0.674-0.973,1.069-1.417c0.753-0.819,1.061-2.051,2.269-2.45c0.925-0.093,1.849-0.2,2.746,0.143
	c0.215,0.131,0.393,0.306,0.533,0.508c0.288,0.628,0.763,0.996,1.482,1.013c0.117,0.004,0.231,0.01,0.346,0.015
	c1.385,0.17,2.718,0.731,4.149,0.553c0.031,0.191,0.063,0.383,0.095,0.574c-0.181,0.353-0.361,0.707-0.542,1.06
	c-0.683,0.486-1.462,0.234-2.201,0.291c-0.511,0.004-1.019,0.027-1.525,0.085c-0.809,0.02-1.455,0.553-2.223,0.703
	C43.535,29.388,41.294,31.188,39.361,29.458z"/>
<path fill-rule="evenodd" clip-rule="evenodd" fill="#DCB06C" d="M39.367,51.12c-0.706-0.303-1.413-0.121-2.12-0.006
	c0.062-1.228-1.007-1.78-1.574-2.632c0.221-0.416,0.581-0.633,1.029-0.726c1.302,0.027,2.598-0.508,3.904-0.039
	c0.498,0.426,0.563,1.01,0.589,1.607c-0.018,0.719,0.172,1.479-0.403,2.09c-0.123,0.078-0.247,0.156-0.371,0.233
	C40.069,51.473,39.718,51.296,39.367,51.12z"/>
<path fill-rule="evenodd" clip-rule="evenodd" fill="#EBC07C" d="M36.718,48.464c-0.349,0.006-0.697,0.013-1.046,0.019
	c-0.354-0.002-0.708-0.004-1.063-0.005c-0.528-0.014-1.057-0.025-1.585-0.038c0.174-0.337,0.348-0.674,0.521-1.011
	c0.009-0.161,0.014-0.323,0.015-0.485c0.293-0.352,0.646-0.604,1.112-0.673c0.695-0.021,1.346,0.237,2.023,0.336
	c0.664,0.095,1.545,0.103,1.584,0.972C38.325,48.633,37.105,47.907,36.718,48.464z"/>
<path fill-rule="evenodd" clip-rule="evenodd" fill="#E1BC7F" d="M35.137,55.343c-0.001,0.881-0.001,1.762-0.002,2.643
	c-0.352-0.001-0.704-0.002-1.057-0.003c0.001-1.056,0.001-2.111,0.002-3.167C34.432,54.991,34.784,55.167,35.137,55.343z"/>
<path fill-rule="evenodd" clip-rule="evenodd" fill="#CA9D56" d="M34.612,46.901c-0.352,0.014-0.702,0.027-1.053,0.041
	c-0.17-0.542-0.34-1.085-0.51-1.628c-0.059-0.366-0.026-0.717,0.179-1.038c0.243-0.277,0.523-0.504,0.859-0.659
	c0.234-0.074,0.473-0.12,0.717-0.139c0.483-0.015,0.967-0.036,1.445,0.056c0.445,0.152,0.824,0.422,1.203,0.689
	c0.173,0.138,0.327,0.297,0.465,0.47c0.194,0.269,0.419,0.513,0.681,0.725c0.524,0.346,1.019,0.711,0.884,1.459
	c-0.177,0.221-0.402,0.355-0.68,0.41C37.424,46.941,35.969,47.453,34.612,46.901z"/>
<path fill-rule="evenodd" clip-rule="evenodd" fill="#D7B57D" d="M33.584,44.799c-0.179,0.172-0.356,0.344-0.534,0.516
	c-1.421-0.001-2.842-0.003-4.263-0.004c-0.354-0.175-0.708-0.35-1.062-0.524c-0.174-0.284-0.155-0.556,0.056-0.813
	c0.342-0.329,0.768-0.44,1.225-0.469C30.591,43.725,32.336,43.384,33.584,44.799z"/>
<path fill-rule="evenodd" clip-rule="evenodd" fill="#EECD91" d="M29.854,47.945c0.002-0.357,0.005-0.715,0.008-1.072
	c0.518-0.006,1.034-0.013,1.552-0.02C31.717,48.394,30.486,47.742,29.854,47.945z"/>
<path fill-rule="evenodd" clip-rule="evenodd" fill="#DCB472" d="M27.729,44.251c-0.001,0.179-0.003,0.356-0.004,0.535
	c-0.912-0.005-1.835-0.063-2.634,0.512c-2.876-0.277-2.653-3.314-4.229-4.75c0.179-0.352,0.358-0.702,0.538-1.054
	c0.59-0.372,0.946-0.902,1.066-1.59c0.334-0.517,0.699-0.938,1.368-0.465c0.892,1.47,0.494,3.188,0.909,4.744
	C25.081,43.819,27.186,42.913,27.729,44.251z"/>
<path fill-rule="evenodd" clip-rule="evenodd" fill="#BA8F48" d="M24.549,46.372c-0.874-0.004-1.749-0.008-2.623-0.012
	C22.804,45.744,23.679,45.684,24.549,46.372z"/>
<path fill-rule="evenodd" clip-rule="evenodd" fill="#D4B176" d="M23.511,37.375c-0.348,0.178-0.696,0.354-1.043,0.529
	c0.363-1.693-0.695-1.24-1.581-1.049c0.362-0.826,0.764-1.623,1.567-2.125C24.343,34.887,24.546,35.397,23.511,37.375z"/>
<path fill-rule="evenodd" clip-rule="evenodd" fill="#DCB87C" d="M23.511,37.375c-0.045-1.004,0.177-2.115-1.057-2.645
	c0.003-0.172,0.006-0.342,0.01-0.514c0.961-0.75,1.989-0.604,3.032-0.229c0.863,0.388,1.596,1.123,2.658,0.999
	C28.697,34.999,29.236,35,29.78,35c1.607,0.188,3.316-0.471,4.813,0.592c-0.192,2.417-2.221,1.135-3.348,1.664
	c-0.527,0.08-1.05,0.193-1.563,0.336c-0.237,0.057-0.479,0.113-0.716,0.173c-0.664,0.316-1.548,0.158-1.976,0.916
	c0.374,0.809,1.028,0.361,1.568,0.377c1.162-0.189,2.344-0.759,3.439,0.196c0.503,1.521-0.954,1.792-1.631,2.561
	c-1.252,0.492-2.463,1.125-3.853,1.16c-1.003-0.003-1.948,0.814-2.994,0.212C23.517,41.25,23.513,39.313,23.511,37.375z"/>
<path fill-rule="evenodd" clip-rule="evenodd" fill="#DBBD88" d="M25.622,34.74c-1.053-0.174-2.105-0.349-3.158-0.523
	c-0.002-0.174-0.004-0.348-0.004-0.521c0.35-0.183,0.7-0.365,1.049-0.549c0.515-0.875,1.227-1.452,2.281-1.515
	C28.083,32.795,26.17,33.73,25.622,34.74z"/>
<path fill-rule="evenodd" clip-rule="evenodd" fill="#E9CC99" d="M20.872,32.622c0.736,0.038,1.328,0.291,1.582,1.054
	c-0.702,0.529-1.403,1.061-2.104,1.592c-0.003-0.528-0.007-1.057-0.011-1.584c-0.347-0.615,0.219-0.771,0.529-1.055L20.872,32.622z"
	/>
<path fill-rule="evenodd" clip-rule="evenodd" fill="#E1C99C" d="M20.867,32.629c-0.176,0.352-0.353,0.703-0.529,1.055
	c-0.528,0.001-1.055,0.002-1.583,0.002c-0.81-0.492-1.409-1.146-1.609-2.104c0.181-0.004,0.362-0.01,0.542-0.014
	C18.479,32.729,19.696,32.609,20.867,32.629z"/>
<path fill-rule="evenodd" clip-rule="evenodd" fill="#D7AF6E" d="M53.107,38.953c-0.002,0.355-0.004,0.712-0.007,1.068
	c-0.707-1.49-1.007-3.11-1.744-4.629c-0.993-2.045,0.544-3.792,1.742-5.415C52.521,32.971,53.119,35.961,53.107,38.953z"/>
<path fill-rule="evenodd" clip-rule="evenodd" fill="#D7A456" d="M39.361,29.458c2.156,0.336,4.136-1.444,6.342-0.531
	c1.912,0.461,4.044-0.3,5.798,1.043c-0.171,0.179-0.343,0.358-0.514,0.537c-2.107,1.674-4.989,1.571-7.152,3.12
	c-0.391,0.152-0.786,0.166-1.183,0.053c-0.236-0.084-0.446-0.221-0.63-0.391c-0.304-0.467-0.716-0.809-1.27-0.968
	c-0.689-0.272-1.089-0.81-1.344-1.476c-0.017-0.113-0.033-0.226-0.049-0.339C39.36,30.157,39.36,29.808,39.361,29.458z"/>
<path fill-rule="evenodd" clip-rule="evenodd" fill="#D5A458" d="M50.987,37.377c1.11,2.727,2.627,5.4,1.061,8.462
	c-0.463,0.348-0.725,0.985-1.429,0.991c-0.404-0.01-0.745-0.163-1.027-0.454c-1.159-1.491,1.118-2.602,0.445-4.039
	c0.363-2.146-1.249-2.508-2.714-3.008c-0.674-0.858-1.699-1.613-0.832-2.91c0.654-0.513,1.011-0.103,1.329,0.429h0.001
	C48.737,37.852,49.983,36.894,50.987,37.377z"/>
<path fill-rule="evenodd" clip-rule="evenodd" fill="#D8A85C" d="M43.592,33.146c0.103-0.631,0.285-1.402,0.983-1.388
	c2.242,0.043,4.169-1.403,6.412-1.251c-0.687,2.035-2.545,2.198-4.225,2.645c-0.506,0.391-0.258,1.089-0.622,1.544
	c-0.153,0.211-0.346,0.368-0.576,0.487c-0.391,0.144-0.778,0.131-1.163-0.02C43.737,34.65,43.138,34.108,43.592,33.146z"/>
<path fill-rule="evenodd" clip-rule="evenodd" fill="#DEB067" d="M45.72,34.725c-0.271-0.596-0.541-1.191-0.821-1.809
	c0.695-0.492,1.257,0.064,1.864,0.236c0.749,0.717,2.367,0.248,2.503,1.771c0.088,0.983-0.613,1.292-1.444,1.4
	C47.01,35.938,45.708,36.195,45.72,34.725z"/>
<path fill-rule="evenodd" clip-rule="evenodd" fill="#CA984A" d="M51.501,29.97c-1.986-0.05-4.063,0.396-5.798-1.043
	c0.64-0.492,1.388-0.529,2.148-0.513c0.515,0.485,1.028,0.55,1.538-0.008c0.709,0.171,1.417,0.342,2.126,0.513
	C51.511,29.269,51.506,29.619,51.501,29.97z"/>
<path fill-rule="evenodd" clip-rule="evenodd" fill="#D8AC65" d="M50.99,46.363c0.134-0.616,0.524-0.713,1.058-0.524
	c-0.001,1.229-0.002,2.459-0.002,3.689c-0.463,0.334-0.919,0.322-1.369-0.024C49.798,48.358,50.144,47.336,50.99,46.363z"/>
<path fill-rule="evenodd" clip-rule="evenodd" fill="#D4A75E" d="M50.987,49.528c0.353,0,0.706,0,1.059,0
	c0.352,0.177,0.703,0.354,1.056,0.531c-0.004,0.529-0.008,1.061-0.012,1.59c-1.029-0.427-1.938-1.21-3.161-1.065
	C49.782,49.731,50.113,49.357,50.987,49.528z"/>
<path fill-rule="evenodd" clip-rule="evenodd" fill="#D8A85D" d="M50.987,37.377c-1.177,0.547-2.295,0.745-3.166-0.529
	C48.854,37.16,50.153,35.877,50.987,37.377z"/>
<path fill-rule="evenodd" clip-rule="evenodd" fill="#D8A85C" d="M45.72,34.725c0.701,0.533,1.401,1.066,2.102,1.598
	c0,0.176-0.001,0.351-0.001,0.525c-0.355-0.175-0.71-0.35-1.064-0.525c-1.202,0.057-1.558-0.466-1.071-1.564L45.72,34.725z"/>
<path fill-rule="evenodd" clip-rule="evenodd" fill="#E0B065" d="M50.987,49.528c-0.353,0.352-0.706,0.703-1.059,1.056
	c-1.001,1.028-1.687,2.192-1.593,3.693c-0.669-1.073-0.517-2.692-2.1-3.157c-0.049-0.116-0.099-0.232-0.148-0.349
	c1.054-1.528,2.163-3.012,3.468-4.339c0.123-0.028,0.245-0.057,0.368-0.086c0.355,0.006,0.711,0.012,1.066,0.017
	C50.989,47.418,50.988,48.474,50.987,49.528z"/>
<path fill-rule="evenodd" clip-rule="evenodd" fill="#D8AD69" d="M43.063,55.872c-0.177,0-0.354-0.001-0.53-0.002
	c-0.704-1.407-1.408-2.814-2.111-4.222l0.006-0.017c0.384-0.364,0.829-0.54,1.362-0.454c1.072,0.436,1.581-0.42,2.216-0.988
	c0.357-0.194,0.735-0.241,1.132-0.164c0.575,0.152,0.813,0.645,1.098,1.088l0.002,0.007c-0.353,0.879-0.706,1.758-1.06,2.637
	c0.009,0.445-0.069,0.847-0.528,1.06C44.12,55.168,43.592,55.521,43.063,55.872z"/>
<path fill-rule="evenodd" clip-rule="evenodd" fill="#E0B876" d="M44.648,54.816c0.176-0.354,0.353-0.707,0.528-1.06
	c1.133,0.846,2.878,1.182,2.639,3.17C46.139,57.154,43.916,58.202,44.648,54.816z"/>
<path fill-rule="evenodd" clip-rule="evenodd" fill="#E4BA7A" d="M36.717,19.407c0.006,0.185,0.013,0.371,0.019,0.557
	c0.604,0.905-0.223,1.429-0.557,2.083l0.004-0.003c-0.435,0.903-0.627,2.361-2.046,1.813c-1.781-0.687-0.815-2.195-0.621-3.42
	c0.264-0.388,0.573-0.676,1.095-0.5C35.408,20.138,36.132,20.051,36.717,19.407z"/>
<path fill-rule="evenodd" clip-rule="evenodd" fill="#ECC78E" d="M29.339,18.339c-0.004-0.346-0.009-0.693-0.013-1.039
	c0.688,0.017,1.382-0.014,2.063,0.063c1.113,0.124,1.34,0.646,0.567,1.51c-0.117,0.252-0.297,0.446-0.539,0.582
	c-0.532,0.195-1.056,0.194-1.566-0.073C29.506,19.119,29.323,18.778,29.339,18.339z"/>
<path fill-rule="evenodd" clip-rule="evenodd" fill="#E0BD83" d="M31.414,18.903c0.181-0.01,0.361-0.02,0.542-0.03
	c1.024,0.006,2.019,0.088,2.654,1.064c-0.176,0.176-0.352,0.353-0.527,0.529C32.692,20.799,31.326,21.092,31.414,18.903z"/>
<path fill-rule="evenodd" clip-rule="evenodd" fill="#E0B675" d="M29.339,18.339c0.177,0.177,0.353,0.354,0.528,0.531
	c-0.142,0.685-0.738,0.815-1.261,1.037c-0.231,0.031-0.458,0.009-0.679-0.062c-0.205-0.111-0.359-0.273-0.473-0.477
	c-0.087-0.354-0.012-0.666,0.248-0.929c0.012-0.201,0.025-0.401,0.038-0.602C28.272,18.004,28.806,18.172,29.339,18.339z"/>
<path fill-rule="evenodd" clip-rule="evenodd" fill="#D8A960" d="M36.179,22.047c0.186-0.694,0.371-1.39,0.557-2.084
	c0.524-0.008,1.049-0.017,1.573-0.025C37.6,20.641,36.89,21.344,36.179,22.047z"/>
<path fill-rule="evenodd" clip-rule="evenodd" fill="#D59E4A" d="M22.981,24.144c-0.344,0.017-0.688,0.033-1.033,0.05
	c0.179-1.567,1.68-3.467-1.08-4.295c-0.041-1.072,0.769-0.924,1.425-0.996c0.824,0.071,1.629,0.281,2.455,0.341
	c1.212,0.438,2.458,0.775,3.64,1.303c0.38,0.223,0.729,0.487,1.102,0.713c0.943,0.57,1.316,1.375,0.98,2.439
	c-0.316,1.001-1.17,1.156-2.066,1.302c-0.813,0.132-1.554-0.083-2.315-0.26c-0.156,0.002-0.312-0.013-0.464-0.046
	C24.819,24.152,24.137,23.014,22.981,24.144z"/>
<path fill-rule="evenodd" clip-rule="evenodd" fill="#BC8C40" d="M22.45,19.404c-0.527,0.166-1.054,0.331-1.581,0.495
	c-0.18,0.003-0.36,0.007-0.541,0.011c-0.845-2.634,1.382-1.062,2.11-1.542C22.761,18.71,22.783,19.055,22.45,19.404z"/>
<path fill-rule="evenodd" clip-rule="evenodd" fill="#C3903F" d="M27.752,21.015c-1.149-0.099-2.237-0.384-3.189-1.069
	c-0.42-0.53-0.428-1.056,0.015-1.578c0.366-0.017,0.731-0.035,1.097-0.052c0.676,0.04,1.352,0.081,2.028,0.123
	c0.028,0.311,0.057,0.622,0.085,0.933l-0.13,0.171l0.15-0.163c0.155-0.031,0.311-0.052,0.468-0.061
	c0.288-0.142,0.53-0.086,0.728,0.166C29.265,20.55,28.916,21.115,27.752,21.015z"/>
<path fill-rule="evenodd" clip-rule="evenodd" fill="#C89445" d="M24.578,18.368c-0.005,0.526-0.01,1.052-0.015,1.578
	c-0.704-0.181-1.408-0.361-2.112-0.542c-0.003-0.345-0.007-0.69-0.012-1.036C23.152,18.368,23.865,18.368,24.578,18.368z"/>
<path fill-rule="evenodd" clip-rule="evenodd" fill="#D8A960" d="M28.761,19.448c-0.166-0.03-0.328-0.073-0.485-0.129
	c0.53-0.15,1.061-0.3,1.592-0.449c0.516,0.011,1.031,0.022,1.547,0.033c0.612,0.996,1.754,1.086,2.669,1.563
	c-0.008,0.263-0.038,0.528-0.019,0.789c0.048,0.661-0.485,1.549,0.305,1.926c0.989,0.474,1.224-0.713,1.813-1.137
	c-0.027,0.346,0.083,0.825-0.103,1.019c-2.284,2.386-0.9,3.925,1.172,5.329c-0.112,0.248-0.285,0.442-0.52,0.581
	c-0.495,0.203-1.006,0.199-1.521,0.106c-2.335-1.113-4.738-1.874-7.376-1.361c-0.235-0.077-0.441-0.203-0.622-0.371
	c-0.178-0.005-0.355-0.009-0.534-0.014c0.179-0.35,0.358-0.699,0.538-1.048c0.153-1.113,1.021-1.31,1.902-1.456
	c1.227-0.204,1.827-0.919,1.827-2.15c0.318-1.171-0.39-1.696-1.313-2.085C29.191,20.326,29.135,19.767,28.761,19.448z"/>
<path fill-rule="evenodd" clip-rule="evenodd" fill="#DFBB80" d="M23.513,30.508c0.003-0.349,0.006-0.699,0.009-1.048
	c0.35-0.003,0.698-0.006,1.048-0.009c2.438-1.112,4.797-2.518,7.657-2.057c0.388,0.075,0.699,0.304,1.026,0.501
	c0.793,0.697,1.735,1.003,2.776,1.057c0.262,0.047,0.509,0.13,0.746,0.25c0.872,0.654,1.997,1.187,1.226,2.61
	c-0.188,0.209-0.417,0.36-0.683,0.454c-1.665,0.958-2.718-0.773-4.124-0.943c-1.484-0.236-2.559-2.068-4.351-1.124
	c-0.736,0.069-1.461,0.036-2.164-0.222C25.625,30.155,24.569,30.332,23.513,30.508z"/>
<path fill-rule="evenodd" clip-rule="evenodd" fill="#DCB575" d="M32.495,27.87c-2.707,0.202-5.313,0.91-7.926,1.582
	c0.54-1.13,2.226-0.821,2.643-2.105c0.171-0.008,0.342-0.014,0.514-0.016C29.406,26.712,31.035,26.547,32.495,27.87z"/>
<path fill-rule="evenodd" clip-rule="evenodd" fill="#E3C38D" d="M25.625,32.094c-0.705,0.351-1.41,0.702-2.116,1.053
	c0.177-0.527,0.354-1.054,0.53-1.581c0.881-0.352,1.762-0.705,2.643-1.058c0.074,0.093,0.147,0.185,0.221,0.277
	C27.18,31.909,26.076,31.683,25.625,32.094z"/>
<path fill-rule="evenodd" clip-rule="evenodd" fill="#E3C38D" d="M26.68,29.978c0.627-0.484,1.365-0.532,2.115-0.533
	c-0.014,1.72-0.906,1.703-2.11,1.066l-0.003-0.003C26.681,30.331,26.681,30.155,26.68,29.978z"/>
<path fill-rule="evenodd" clip-rule="evenodd" fill="#D19D4C" d="M28.761,19.448c0.364,0.164,0.728,0.327,1.091,0.491
	c0.931,0.911,2.938,1.1,2.126,3.177c-0.679,2.422-3.009,2.361-4.761,3.168c-0.757-0.005-1.503-0.048-2.133-0.547
	c0.573-0.092,1.347,0.018,1.007-0.997c0.327-0.125,0.657-0.245,0.981-0.378c0.846-0.348,2.18,0.128,2.494-1.054
	c0.36-1.354-1.194-1.526-1.814-2.294C28.313,20.638,28.676,20.133,28.761,19.448z"/>
<path fill-rule="evenodd" clip-rule="evenodd" fill="#CD9844" d="M22.981,24.144c0.252-0.713,0.683-1.311,1.489-1.264
	c1.127,0.064,0.78,1.197,1.155,1.815C24.744,24.512,23.863,24.328,22.981,24.144z"/>
<path fill-rule="evenodd" clip-rule="evenodd" fill="#E1AB5C" d="M43.585,21.52c1.083,0.042,2.203-0.141,3.181,0.533
	c0.445,0.929,1.702,1.896-0.13,2.715c-0.696,0.624-1.496,0.448-2.293,0.297C42.425,24.238,42.393,23.009,43.585,21.52L43.585,21.52z
	"/>
<path fill-rule="evenodd" clip-rule="evenodd" fill="#B17D2A" d="M45.639,25.785c-1.035-0.004-2.069-0.009-3.104-0.013
	c-0.571,0.007-0.842-0.356-0.65-0.818c0.408-0.983,1.225-0.756,2.001-0.515c0.86,0.784,2.043,0.275,2.983,0.742
	c0.141,0,0.279,0.018,0.415,0.054C47.091,26.48,46.359,26.118,45.639,25.785z"/>
<path fill-rule="evenodd" clip-rule="evenodd" fill="#B07F31" d="M45.639,25.785c0.548-0.184,1.097-0.368,1.645-0.551
	c0.558,0.159,1.116,0.317,1.675,0.475c-0.54,0.163-0.942,0.48-1.145,1.022v0.172c-0.896,0.424-1.644,0.397-2.045-0.676
	C45.737,26.076,45.693,25.929,45.639,25.785z"/>
<path fill-rule="evenodd" clip-rule="evenodd" fill="#AF7E2E" d="M46.868,25.18c-0.948,0.041-1.901,0.114-2.753-0.445
	c0.14-0.257,0.313-0.295,0.526-0.082c0.665,0.039,1.33,0.076,1.994,0.114C46.713,24.906,46.791,25.043,46.868,25.18z"/>
<path fill-rule="evenodd" clip-rule="evenodd" fill="#B67F28" d="M37.744,26.855c0.106-0.842-0.185-1.74,0.424-2.667
	c0.956,0.411,0.569,1.582,1.185,2.115c0.473,0.764,0.616,1.418-0.546,1.638C38.452,27.578,38.098,27.217,37.744,26.855z"/>
<path fill-rule="evenodd" clip-rule="evenodd" fill="#DAAD66" d="M36.722,28.395c0.177-0.001,0.354-0.002,0.53-0.003
	c1.123,0.285,1.376,1.438,2.108,2.115l0.001,0.003c0.486,0.728,1.491,1.397,0.264,2.32c-0.597,0.124-1.002-0.178-1.347-0.608
	c-0.124-0.224-0.196-0.466-0.223-0.72c0.123-0.887-0.477-1.344-1.078-1.799C36.693,29.306,36.369,28.917,36.722,28.395z"/>
<path fill-rule="evenodd" clip-rule="evenodd" fill="#C7903B" d="M38.807,27.94c0.183-0.546,0.364-1.092,0.546-1.638
	c0.006-0.361,0.012-0.721,0.018-1.083c2.477,0.078,1.574,1.853,1.591,3.167c-0.531,0.178-1.063,0.355-1.593,0.533
	C39.181,28.593,38.993,28.267,38.807,27.94z"/>
<path fill-rule="evenodd" clip-rule="evenodd" fill="#D59B44" d="M40.961,28.387c-0.53-1.055-1.061-2.111-1.591-3.167
	c0.174-0.528,0.347-1.056,0.52-1.584c0.482-0.423,1.18-0.521,1.591-1.051c0.175-0.178,0.351-0.355,0.525-0.533
	c0.526-0.178,1.054-0.356,1.58-0.534c-0.038,1.177,0.057,2.308,1.056,3.135c-0.176,0.026-0.351,0.054-0.526,0.081
	c-0.68,0.113-1.874-0.56-1.581,1.037C42.517,26.949,41.713,27.652,40.961,28.387z"/>
<path fill-rule="evenodd" clip-rule="evenodd" fill="#BC852F" d="M47.815,18.365c0.607,0.273,1.144,0.714,0.735,1.382
	c-0.668,1.096-1.859,0.605-2.846,0.716C46.332,19.688,48.309,20.268,47.815,18.365z"/>
<path fill-rule="evenodd" clip-rule="evenodd" fill="#D0933B" d="M41.48,22.585c-0.257,0.763-0.85,1.019-1.591,1.051
	C40.261,23.045,40.792,22.696,41.48,22.585z"/>
<path fill-rule="evenodd" clip-rule="evenodd" fill="#E3AC5A" d="M45.769,26.227c0.682,0.225,1.363,0.45,2.045,0.676
	c-1.36,1.498-2.689,0.629-4.129,0.053C44.225,25.916,45.112,26.439,45.769,26.227z"/>
<path fill-rule="evenodd" clip-rule="evenodd" fill="#BA8532" d="M49.39,28.405c0.105,0.452,0.114,0.892-0.49,0.923
	s-0.878-0.403-1.048-0.916C48.364,28.411,48.877,28.408,49.39,28.405z"/>
<path fill-rule="evenodd" clip-rule="evenodd" fill="#DAA85D" d="M45.176,50.59c-0.349-0.002-0.699-0.003-1.048-0.004
	c-0.506,0.052-0.986,0.257-1.502,0.255c-1.116,0.204-1.627-0.609-2.204-1.31c-0.003-0.525-0.005-1.052-0.008-1.577
	c-0.371-0.295-1.226-0.065-1.045-0.962l-0.015-0.144c0.336-0.525,0.822-0.742,1.433-0.701c0.271,0.014,0.533,0.074,0.784,0.178
	c0.736,1.554,2.337,1.234,3.604,1.649c0.367,0.265,0.572,0.627,0.662,1.063C45.89,49.673,45.756,50.227,45.176,50.59z"/>
<path fill-rule="evenodd" clip-rule="evenodd" fill="#E5B771" d="M40.422,49.531c0.882,0.176,1.763,0.353,2.645,0.528
	c1.032-0.101,0.859,0.717,0.718,1.174c-0.359,1.154-1.363,1.04-2.306,0.937c-0.351-0.179-0.701-0.358-1.052-0.537
	C40.425,50.932,40.424,50.231,40.422,49.531z"/>
<path fill-rule="evenodd" clip-rule="evenodd" fill="#E4B46C" d="M39.369,46.992c0.349,0.321,0.696,0.642,1.045,0.962
	c-1.177,0.576-2.439,0.525-3.696,0.51c0.068-0.341,1.529-0.613,0.096-1.005c-0.727-0.198-1.539-0.071-2.202-0.558
	C36.198,46.932,37.783,46.962,39.369,46.992z"/>
<path fill-rule="evenodd" clip-rule="evenodd" fill="#D7A352" d="M37.259,44.788c-0.356-0.185-0.712-0.368-1.067-0.552
	c-0.31-1.532-0.878-2.92-2.176-3.902c-0.513-0.388-0.861-0.834-0.512-1.521c2.971-1.527,4.077-0.961,4.949,2.527
	c0.262,1.249,1.004,2.607-0.763,3.403C37.547,44.758,37.402,44.773,37.259,44.788z"/>
<path fill-rule="evenodd" clip-rule="evenodd" fill="#E2B36C" d="M33.561,39.451c2.771,0.663,3.897,2.713,2.631,4.785
	c-0.527-0.001-1.054-0.002-1.58-0.003c-0.521-0.494-0.311-1.299-0.788-1.809c-0.155-0.16-0.278-0.341-0.391-0.53
	c-0.452-0.746-1.232-1.344-1.087-2.365c0.152-0.189,0.35-0.301,0.586-0.349C33.175,39.194,33.386,39.28,33.561,39.451z"/>
<path fill-rule="evenodd" clip-rule="evenodd" fill="#B17C2B" d="M40.978,46.84c-0.541,0.003-1.082,0.006-1.623,0.01
	c-0.521-0.18-1.041-0.358-1.561-0.537c-0.337-0.351-0.318-0.738-0.117-1.144c0.813-0.884,1.842-1.202,3.009-1.163
	c0.275,0.007,0.548,0.04,0.816,0.099c0.515,0.208,0.941,0.522,1.216,1.019C42.987,46.557,41.604,46.314,40.978,46.84z"/>
<path fill-rule="evenodd" clip-rule="evenodd" fill="#E0C089" d="M33.584,44.799c-1.621,0.021-3.23-0.052-4.79-0.556
	c-0.191-0.237-0.208-0.485-0.048-0.745c0.278-0.322,0.641-0.475,1.056-0.517c1.194-0.019,2.29,0.579,3.485,0.559
	c0.253,0.078,0.475,0.21,0.669,0.391c0.057,0.117,0.113,0.235,0.171,0.353C33.946,44.455,33.765,44.627,33.584,44.799z"/>
<path fill-rule="evenodd" clip-rule="evenodd" fill="#E5BE80" d="M35.141,41.605c0.826,1.078-0.084,1.806-0.529,2.628
	c-0.162,0.018-0.323,0.034-0.484,0.05l-0.095-0.06C33.155,42.823,33.529,41.952,35.141,41.605z"/>
<path fill-rule="evenodd" clip-rule="evenodd" fill="#BA8433" d="M40.963,44.763c-1.054,0.186-2.107,0.371-3.161,0.557
	c-0.199,0.182-0.391,0.166-0.575-0.022c0.011-0.17,0.021-0.34,0.032-0.509l0.007,0.001C38.496,44.455,39.711,42.035,40.963,44.763z"
	/>
<path fill-rule="evenodd" clip-rule="evenodd" fill="#B58436" d="M37.227,45.297c0.191,0.007,0.383,0.015,0.575,0.022
	c-0.003,0.331-0.005,0.662-0.008,0.994c-0.546-0.043-1.318,0.304-1.498-0.464C36.181,45.356,36.839,45.375,37.227,45.297z"/>
<path fill-rule="evenodd" clip-rule="evenodd" fill="#E4BE81" d="M28.793,43.72c0.001,0.174,0.001,0.349,0.001,0.523
	c-0.354,0.003-0.709,0.005-1.064,0.008c-1.426-0.268-3.163,0.695-4.21-1.064c0.804-0.537,1.606-1.078,2.636-1.05
	C26.619,43.356,28.343,42.478,28.793,43.72z"/>
<path fill-rule="evenodd" clip-rule="evenodd" fill="#E5C48D" d="M28.793,43.72c-0.973-0.37-2.95,0.929-2.638-1.583
	c1.309-0.092,2.516-0.54,3.7-1.063c1.863-0.861,3.729-1.744,5.281,0.526l0.004,0.005c-0.543,0.799-1.065,1.606-1.107,2.618
	c-0.167,0.005-0.334,0.007-0.501,0.008c-1.576-0.739-3.212-1.229-4.961-1.228c-0.367,0.063-0.089,0.485-0.102,0.133
	c-0.004-0.121,0.064-0.176,0.206-0.163c0.518,0.047,1.34-0.389,1.179,0.741C29.5,43.716,29.146,43.718,28.793,43.72z"/>
<path fill-rule="evenodd" clip-rule="evenodd" fill="#E0C492" d="M26.685,30.511c0.873-0.02,1.621-0.286,2.11-1.066
	c1.803-1.205,2.949,0.19,4.227,1.066c0.298,0.292,0.358,0.638,0.238,1.027c-0.295,0.507-0.808,0.791-1.317,0.675
	c-2.063-0.464-3.009,0.867-3.917,2.303c-0.135,0.424-0.272,0.85-0.264,1.305c-1.512,1.222-2.017,0.448-2.14-1.08
	c-0.333-0.883,0.837-1.764,0.003-2.646C25.978,31.566,26.332,31.039,26.685,30.511z"/>
<path fill-rule="evenodd" clip-rule="evenodd" fill="#EACC9A" d="M27.762,35.82c-0.923-0.16-1.802-0.351-1.074-1.612
	c2.342-0.481,4.413-1.716,6.681-2.417c1.898-0.01,2.715,0.907,2.402,2.793c-0.184,0.415-0.486,0.706-0.911,0.863
	c-1.837,0.192-3.72-0.311-5.53,0.347C28.808,35.803,28.285,35.813,27.762,35.82z"/>
<path fill-rule="evenodd" clip-rule="evenodd" fill="#D5AC69" d="M30.334,36.359c1.422-0.19,2.935,0.282,4.269-0.572
	c0.143-0.356,0.381-0.623,0.74-0.773c0.604-0.276,1.263-0.153,1.89-0.267c1.947-0.289,3.812-0.171,5.453,1.077
	c-0.367,1.707-2.014,1.421-3.104,2.001c-0.581-0.072-1.164-0.138-1.752-0.114c-1.711-0.121-3.348,0.646-5.068,0.439
	c-0.567-0.066-1.071-0.327-1.593-0.531C30.62,37.378,30.188,37.06,30.334,36.359z"/>
<path fill-rule="evenodd" clip-rule="evenodd" fill="#E1BB7D" d="M28.271,40.019c-1.438,0.681-2.507-0.347-3.64-0.875
	c-0.579-0.27-0.763-1.055-0.287-1.584c0.49-0.545,0.902,0.093,1.314,0.341c0.927-0.12,1.737,0.19,2.501,0.676
	C28.501,39.033,28.59,39.511,28.271,40.019z"/>
<path fill-rule="evenodd" clip-rule="evenodd" fill="#C8A05F" d="M27.716,39.012c-0.686-0.37-1.372-0.74-2.058-1.111
	c1.052-0.338,2.104-0.677,3.157-1.016c0.379,0.486,1.186,0.406,1.426,1.079c0.111,0.384,0.061,0.742-0.162,1.075
	C29.28,39.946,28.498,39.496,27.716,39.012z"/>
<path fill-rule="evenodd" clip-rule="evenodd" fill="#E5BE80" d="M35.137,41.601c-1.627-1.518-3.478-0.788-5.281-0.526
	c0.466-0.843,1.435-1.013,2.11-1.575c0.175-0.128,0.352-0.137,0.531-0.007C33.372,40.201,35.109,39.83,35.137,41.601z"/>
<path fill-rule="evenodd" clip-rule="evenodd" fill="#E0C08B" d="M35.161,35.277c-0.186,0.171-0.372,0.341-0.559,0.51
	c-1.758,0.004-3.516,0.006-5.273,0.008c1.67-0.952,3.451-0.823,5.249-0.543C34.783,35.033,34.978,35.041,35.161,35.277z"/>
<path fill-rule="evenodd" clip-rule="evenodd" fill="#D8AE6B" d="M32.497,39.492c-0.177,0.002-0.354,0.005-0.531,0.007
	c-1.232,0.173-2.464,0.347-3.695,0.52c-0.185-0.336-0.369-0.671-0.554-1.007c0.71-0.017,1.421-0.034,2.132-0.051
	c0.729-0.733,1.593-0.87,2.554-0.585c0.433,0.232,0.75,0.538,0.68,1.086C32.887,39.472,32.691,39.482,32.497,39.492z"/>
<path fill-rule="evenodd" clip-rule="evenodd" fill="#B58D49" d="M29.863,37.926c-0.648-0.046-1.319-0.07-1.048-1.041
	c0.161-0.029,0.324-0.049,0.489-0.059c0.709-0.121,1.402,0.629,2.119,0.037c0.367,0.168,0.735,0.338,1.103,0.508
	c0.1,0.522-0.199,0.786-0.628,0.966C31.167,38.461,30.462,38.46,29.863,37.926z"/>
<path fill-rule="evenodd" clip-rule="evenodd" fill="#AF8540" d="M31.424,36.863c-0.716,0.533-1.422,0.523-2.119-0.037
	c0.343-0.156,0.687-0.311,1.029-0.467C30.697,36.527,31.061,36.695,31.424,36.863z"/>
<path fill-rule="evenodd" clip-rule="evenodd" fill="#D3A65D" d="M39.382,32.627c0.483-0.71,0.074-1.412-0.021-2.117
	c0.529,0.351,1.058,0.702,1.586,1.053c0.842-0.118,1.099,0.643,1.586,1.057c0.003,0.18,0.007,0.361,0.01,0.541
	c0.309,0.375,0.307,0.765,0.061,1.168c-1.301,0.363-2.535,0.468-3.385-0.889C39.143,33.143,39.197,32.872,39.382,32.627z"/>
<path fill-rule="evenodd" clip-rule="evenodd" fill="#CC9749" d="M42.507,34.211c0.012-0.35,0.024-0.7,0.036-1.051
	c0.35-0.004,0.699-0.01,1.049-0.014c0.349,0.539,0.698,1.078,1.048,1.617c0.429,0.502,0.308,0.984-0.19,1.285
	c-0.696,0.422-1.304,0.203-1.741-0.477c-0.167-0.197-0.304-0.416-0.403-0.656C42.269,34.652,42.335,34.416,42.507,34.211z"/>
<path fill-rule="evenodd" clip-rule="evenodd" fill="#D9A85B" d="M42.533,32.619c-0.689-0.111-1.217-0.465-1.586-1.057
	c0.215-0.66,0.481-1.584,1.295-1.244C43.343,30.781,42.354,31.844,42.533,32.619z"/>
<path fill-rule="evenodd" clip-rule="evenodd" fill="#D29944" d="M42.587,34.715c0.671,0.609,1.334,1.55,2.053,0.048
	c0.349-0.001,0.697-0.003,1.046-0.005c0.13,0.676,0.485,1.199,1.07,1.564c-0.021,1.031,0.782,1.728,1.068,2.633
	c0.965,0.703,2.363,1.151,1.664,2.83c-0.123,0.241-0.302,0.434-0.531,0.577c-2.205-0.12-3.226-2.153-4.896-3.154
	c-0.902-0.54-1.648-0.843-2.628-0.774c-1.112-0.038-1.912-0.467-2.103-1.664c1.053-0.324,2.105-0.648,3.159-0.974
	C42.214,35.408,42.255,35.049,42.587,34.715z"/>
<path fill-rule="evenodd" clip-rule="evenodd" fill="#D29B47" d="M50.987,42.133c0.324,1.576-0.868,2.77-1.063,4.215
	c0-0.001,0.004,0.011,0.004,0.011c-1.081,0.969-1.465,2.81-3.396,2.718c-0.313-0.269-0.465-0.618-0.509-1.021
	c-0.036-0.521-0.092-1.154,0.312-1.46c1.496-1.136,1.98-2.8,2.52-4.451l0.041-0.023C49.597,41.532,50.293,41.563,50.987,42.133z"/>
<path fill-rule="evenodd" clip-rule="evenodd" fill="#D7A04C" d="M50.987,42.133c-0.697-0.004-1.396-0.007-2.092-0.012
	c0.123-1.218-0.675-2.124-1.071-3.166C50.007,38.891,51.068,39.944,50.987,42.133z"/>
<path fill-rule="evenodd" clip-rule="evenodd" fill="#D9A75C" d="M46.767,49.006c0.853-1.122,1.98-1.917,3.161-2.647
	c-0.589,2.084-2.084,3.464-3.693,4.755c-0.353-0.174-0.705-0.349-1.059-0.523c0-0.525-0.001-1.052-0.001-1.577
	C45.703,48.469,46.235,48.87,46.767,49.006z"/>
<path fill-rule="evenodd" clip-rule="evenodd" fill="#DDB26D" d="M41.479,52.17c0.706-0.57,2.477-0.34,1.588-2.11
	c0.634-0.39,0.889-0.016,1.062,0.526C44.312,52.855,43.703,53.22,41.479,52.17z"/>
<path fill-rule="evenodd" clip-rule="evenodd" fill="#B98531" d="M27.807,19.379c-0.665,0.378-1.33,0.839-2.171-0.137
	c0.837,0.05,1.494,0.089,2.151,0.129L27.807,19.379z"/>
<path fill-rule="evenodd" clip-rule="evenodd" fill="#DDB473" d="M32.495,27.87c-1.509-0.895-3.175-0.395-4.769-0.539
	c2.778-1.784,5.1-0.396,7.415,1.061c-0.09,0.098-0.18,0.195-0.27,0.292c-0.682,0.327-1.281,0.124-1.848-0.289
	C32.848,28.22,32.671,28.045,32.495,27.87z"/>
<path fill-rule="evenodd" clip-rule="evenodd" fill="#D1A157" d="M31.978,23.116c-0.709-1.059-1.417-2.118-2.126-3.177
	C32.843,20.692,33.191,21.214,31.978,23.116z"/>
<path fill-rule="evenodd" clip-rule="evenodd" fill="#DDB473" d="M36.722,28.395c0.176,0.352,0.353,0.704,0.528,1.056
	c-0.352,0.342-0.703,0.293-1.056,0.001l-0.002-0.002c-0.25-0.454-1.38-0.023-1.057-1.052c0,0,0.004-0.006,0.004-0.006
	C35.667,28.393,36.194,28.394,36.722,28.395z"/>
<path fill-rule="evenodd" clip-rule="evenodd" fill="#E0C08B" d="M35.121,34.729c0.05-1.471-0.938-2.121-2.088-2.646
	c-0.139-0.11-0.187-0.223-0.145-0.338c0.043-0.117,0.087-0.175,0.132-0.175c0.001-0.353,0.001-0.706,0.001-1.058
	c1.544-0.186,2.685,1.233,4.226,1.059c0.906,1.016,1.088,2.085,0.235,3.231C36.676,35.409,35.895,35.208,35.121,34.729z"/>
<path fill-rule="evenodd" clip-rule="evenodd" fill="#E7C085" d="M37.244,34.729c0.001-1.054,0.002-2.106,0.003-3.16
	c0.177-0.001,0.354-0.002,0.53-0.003c0.175-0.36,0.353-0.361,0.531-0.003v0c0.56,0.664,0.771,1.535,1.309,2.215
	c0.076,0.247,0.07,0.492-0.007,0.737c-0.581,0.671-1.322,0.641-2.094,0.487C37.426,34.912,37.335,34.821,37.244,34.729z"/>
<path fill-rule="evenodd" clip-rule="evenodd" fill="#DCB575" d="M35.136,28.397c0.352,0.351,0.704,0.701,1.057,1.052
	c-1.169-0.015-2.386,0.116-3.169-1.055C33.728,28.396,34.432,28.396,35.136,28.397z"/>
<path fill-rule="evenodd" clip-rule="evenodd" fill="#DEB677" d="M38.309,31.564c-0.178,0-0.354,0.001-0.531,0.002
	c-0.528-0.705-1.056-1.41-1.583-2.114c0.352,0,0.704,0,1.056-0.001C38.024,29.944,38.301,30.687,38.309,31.564z"/>
<path fill-rule="evenodd" clip-rule="evenodd" fill="#DEB677" d="M39.355,33.688c-0.586-0.591-0.912-1.31-1.047-2.123
	c0.357,0.354,0.715,0.709,1.073,1.063c0.003,0.173,0.007,0.346,0.011,0.518c0.166,0.133,0.216,0.258,0.149,0.373
	C39.479,33.631,39.416,33.688,39.355,33.688z"/>
<path fill-rule="evenodd" clip-rule="evenodd" fill="#9E6913" d="M40.978,46.84c0.195-0.859,1.012-1.058,1.599-1.499
	c0.094-1.03,0.898-1.532,1.579-2.129c0.207-0.178,0.444-0.296,0.709-0.361c2.601-0.198,2.876,0.223,2.076,3.168
	c-0.493,0.765-0.637,1.795-1.638,2.179c-0.266,0.021-0.533,0.026-0.8,0.015c-1.364,0.38-2.299-0.268-3.076-1.287
	C41.273,46.911,41.124,46.883,40.978,46.84z"/>
<path fill-rule="evenodd" clip-rule="evenodd" fill="#B17C2B" d="M41.427,46.925c1.087,0.353,2.175,0.706,3.262,1.06
	c0.176,0.127,0.226,0.239,0.15,0.336c-0.068,0.089-0.137,0.134-0.207,0.134C43.097,48.922,41.491,49.537,41.427,46.925z"/>
<path fill-rule="evenodd" clip-rule="evenodd" fill="#CD9848" d="M44.632,48.454c0.02-0.156,0.038-0.313,0.057-0.47
	c0.163-0.02,0.327-0.035,0.491-0.049c0.523-0.229,1.048-0.392,1.575-0.01c0.004,0.36,0.008,0.72,0.012,1.08
	c-0.528,0.43-1.061,0.242-1.592,0.007C44.994,48.826,44.813,48.641,44.632,48.454z"/>
<path fill-rule="evenodd" clip-rule="evenodd" fill="#D19943" d="M31.97,37.911c0.186-0.181,0.371-0.36,0.557-0.54
	c1.741-0.175,3.481-0.349,5.222-0.522c0.194,0.216,0.348,0.47,0.583,0.651c0.299,0.129,0.604,0.24,0.847,0.474
	c0.256,0.281,0.391,0.61,0.413,0.988c-0.118,1.145,0.21,2.378-0.691,3.358c-0.409,0.162-0.782,0.116-1.111-0.188
	c-0.551-2.247-1.296-4.188-4.228-2.681c-0.159,0.008-0.319,0.012-0.479,0.011c-0.188-0.17-0.376-0.34-0.564-0.51
	C32.2,38.676,31.638,38.528,31.97,37.911z"/>
<path fill-rule="evenodd" clip-rule="evenodd" fill="#D79B44" d="M37.788,42.132c0.351-0.001,0.701-0.001,1.052-0.002
	c0.726-1.169,1.938-1.12,3.086-1.232c0.768,0.123,1.276,0.554,1.528,1.288c0.125,1.171-0.702,1.881-1.314,2.696
	c-0.239,0.126-0.46,0.105-0.658-0.087c-0.173-0.016-0.346-0.026-0.519-0.032c-1.238-0.887-2.465,0.036-3.697,0.025
	C37.854,43.984,38.074,43.107,37.788,42.132z"/>
<path fill-rule="evenodd" clip-rule="evenodd" fill="#BA8433" d="M41.481,44.795c0.175-0.027,0.35-0.051,0.524-0.07
	c0.438-0.79,1.291-0.925,2.011-1.272c0.241,0.012,0.448,0.104,0.618,0.274c0,1.415-0.936,1.634-2.059,1.614
	C42.212,45.159,41.847,44.977,41.481,44.795z"/>
<path fill-rule="evenodd" clip-rule="evenodd" fill="#E8C893" d="M29.854,43.715c-0.363-0.216-0.726-0.432-1.089-0.646
	c2.372-0.651,2.885-0.526,4.768,1.163C32.266,44.345,31.06,44.028,29.854,43.715z"/>
<path fill-rule="evenodd" clip-rule="evenodd" fill="#E7CFA3" d="M33.021,31.569c0.004,0.172,0.009,0.343,0.013,0.514
	c-1.217,2.308-3.449,3.055-6.345,2.125c0.32-0.4,0.664-0.784,0.956-1.204C29.818,29.876,29.815,29.874,33.021,31.569z"/>
<path fill-rule="evenodd" clip-rule="evenodd" fill="#E7C085" d="M35.121,34.729c0.708,0,1.416,0.001,2.123,0.001l0.012,0.015
	c0.324,0.602-0.202,0.76-0.534,1.018c-0.52-0.161-1.04-0.322-1.561-0.484c-0.193-0.008-0.388-0.017-0.583-0.025
	C34.759,35.078,34.939,34.903,35.121,34.729z"/>
<path fill-rule="evenodd" clip-rule="evenodd" fill="#B77C20" d="M36.809,37.402c0.313-0.186,0.627-0.369,0.939-0.554
	c0.527-0.026,1.055-0.052,1.582-0.078c0.887,0.185,1.772,0.369,2.658,0.554c0.526-0.227,0.838,0.113,1.041,0.483
	c0.735,1.342,1.7,2.14,3.308,2.533c1.22,0.299,2.368,1.418,1.166,3.04c-0.706-0.132-1.281-0.749-2.074-0.561
	c-1.538,0.288-2.097-1.741-3.605-1.524c-1.841,0.278-2.253-1.226-2.957-2.366c-0.182-0.174-0.362-0.348-0.543-0.521
	C38.049,37.727,36.563,38.868,36.809,37.402z"/>
<path fill-rule="evenodd" clip-rule="evenodd" fill="#EEBB72" d="M36.722,35.762c0.179-0.34,0.356-0.679,0.534-1.018
	c0.766-0.004,1.52-0.054,2.149-0.568c1.136-0.364,2.13,0.023,3.092,0.581c0,0,0.089-0.041,0.09-0.041
	c-0.032,0.36-0.064,0.72-0.098,1.08C40.566,35.864,38.647,35.314,36.722,35.762z"/>
<path fill-rule="evenodd" clip-rule="evenodd" fill="#D5AC69" d="M31.97,37.911c0.182,0.348,0.364,0.694,0.546,1.041
	c-0.889,0.003-1.777,0.006-2.667,0.009c0.005-0.346,0.01-0.69,0.015-1.035C30.565,37.921,31.268,37.916,31.97,37.911z"/>
<path fill-rule="evenodd" clip-rule="evenodd" fill="#DAAD66" d="M42.497,34.757c-1.03-0.194-2.062-0.388-3.092-0.581
	c-0.019-0.163-0.035-0.326-0.05-0.488c0.013-0.182,0.024-0.362,0.037-0.543c1.039,0.355,2.077,0.711,3.115,1.066
	C42.504,34.393,42.501,34.575,42.497,34.757z"/>
<path fill-rule="evenodd" clip-rule="evenodd" fill="#C1862D" d="M47.299,43.194c0.45-0.948,0.213-2.054-0.745-2.022
	c-2.814,0.091-3.53-2.001-4.565-3.848c2.424,0.082,3.724,2.07,5.481,3.271c0.556,0.379,0.929,1.025,1.386,1.55
	c0.659,1.718,0.615,3.185-1.211,4.253c-0.443,0.259-0.601,1.007-0.89,1.528c-0.523,0.246-1.049,0.267-1.575,0.01
	c0.35-0.701,0.699-1.403,1.049-2.104C46.109,44.759,47.122,44.146,47.299,43.194z"/>
<path fill-rule="evenodd" clip-rule="evenodd" fill="#AF751B" d="M41.982,41.108c1.528-0.692,2.369,1.101,3.725,1.031
	c0.281,0.681-0.247,1.088-0.531,1.577c-0.181,0.003-0.36,0.006-0.54,0.01c-0.17,0-0.34-0.001-0.51-0.004
	c-0.694,0.008-1.238-0.148-1.124-1.027c-0.337-0.359-0.674-0.72-1.011-1.08c-0.188-0.109-0.252-0.221-0.192-0.334
	C41.859,41.166,41.921,41.108,41.982,41.108z"/>
<path fill-rule="evenodd" clip-rule="evenodd" fill="#AA7218" d="M45.176,43.717c0.178-0.525,0.354-1.052,0.531-1.577
	c0.53,0.352,1.061,0.703,1.592,1.055c0.032,1.037-0.526,1.834-1.07,2.637C44.882,45.622,48.111,43.135,45.176,43.717z"/>
<path fill-rule="evenodd" clip-rule="evenodd" fill="#CC9037" d="M41.982,41.108c0.007,0.169,0.01,0.338,0.009,0.506
	c-1.05,0.172-2.101,0.344-3.151,0.516c-0.634-1.071-0.264-2.136,0.025-3.2C40.197,39.237,40.751,40.657,41.982,41.108z"/>
<path fill-rule="evenodd" clip-rule="evenodd" fill="#C08B39" d="M36.809,37.402c0.505,0.335,1.01,0.671,1.515,1.006
	C37.706,38.242,36.566,38.861,36.809,37.402z"/>
<path fill-rule="evenodd" clip-rule="evenodd" fill="#DFA24D" d="M43.002,42.695c0.375,0.343,0.749,0.686,1.124,1.027
	c-0.352,1.086-1.225,1.068-2.12,1.003C40.852,43.318,42.108,43.097,43.002,42.695z"/>
</svg>
