<?xml version="1.0" encoding="utf-8"?>
<!-- Generator: Adobe Illustrator 16.0.0, SVG Export Plug-In . SVG Version: 6.00 Build 0)  -->
<!DOCTYPE svg PUBLIC "-//W3C//DTD SVG 1.1//EN" "http://www.w3.org/Graphics/SVG/1.1/DTD/svg11.dtd">
<svg version="1.1" id="Layer_1" xmlns="http://www.w3.org/2000/svg" xmlns:xlink="http://www.w3.org/1999/xlink" x="0px" y="0px"
	 width="64px" height="64px" viewBox="0 0 64 64" enable-background="new 0 0 64 64" xml:space="preserve">
<ellipse fill="#92D4D7" cx="32" cy="31.843" rx="30.151" ry="29.717"/>
<path fill="#CCC99A" d="M62.151,31.843c0,2.052-53.859,21.876-58.246,10.809c-1.328-3.35-2.057-6.996-2.057-10.809
	c0-2.606,54.287-21.566,58.495-10.153C61.513,24.857,62.151,28.277,62.151,31.843z"/>
<path fill="#77B174" d="M1.849,31.75c0-4.103,0.737-8.012,2.069-11.567c4-10.666,37.856-14.958,42.598-9.772
	C51.453,15.812,1.849,48.162,1.849,31.75z"/>
<path fill="#77B174" d="M58.419,46.492C53.285,55.663,43.379,61.875,32,61.875c-5.986,0-11.563-1.717-16.252-4.681
	C7.389,51.911,60.797,42.241,58.419,46.492z"/>
<path fill="#77B174" d="M58.646,35.805c-1.503,5.79-10.441,8.754-11.346,7.197c-2.016-3.47,3.459-1.743,4.962-7.535
	c1.502-5.79-6.044-12.189,0.476-13.434C54.551,21.688,60.147,30.014,58.646,35.805z"/>
</svg>
