<?xml version="1.0" encoding="utf-8"?>
<!-- Generator: Adobe Illustrator 16.0.0, SVG Export Plug-In . SVG Version: 6.00 Build 0)  -->
<!DOCTYPE svg PUBLIC "-//W3C//DTD SVG 1.1//EN" "http://www.w3.org/Graphics/SVG/1.1/DTD/svg11.dtd">
<svg version="1.1" id="Layer_1" xmlns="http://www.w3.org/2000/svg" xmlns:xlink="http://www.w3.org/1999/xlink" x="0px" y="0px"
	 width="64px" height="64px" viewBox="0 0 64 64" enable-background="new 0 0 64 64" xml:space="preserve">
<circle fill="#A83894" cx="31.635" cy="31.947" r="19.409"/>
<path fill="#F9C74F" d="M38.578,13.864c4.09,1.502,7.37,4.237,9.576,7.628c3.221,4.954-6.098,28.369-12.522,29.64
	c-3.376,0.667-6.971,0.444-10.438-0.829c-4.182-1.535-7.516-4.36-9.721-7.858c-3.102-4.919,5.392-27.431,11.191-29.057
	C30.454,12.326,34.602,12.403,38.578,13.864z"/>
<path fill="#A83894" d="M38.295,13.719c2.047,0.752,3.888,1.811,5.496,3.105c1.606,1.296-10.92,34.529-12.186,34.53
	c-2.224,0.001-4.485-0.383-6.694-1.195c-1.95-0.717-3.717-1.714-5.271-2.931c-1.776-1.389,10.269-34.716,12.093-34.704
	C33.916,12.54,36.131,12.925,38.295,13.719z"/>
<path fill="#65CAE3" d="M34.541,12.774c0.679,0.103,1.355,0.245,2.031,0.421C46.55,6.116,55.298,3.178,58.59,6.513
	c3.4,3.444,0.037,12.621-7.688,22.911c-2.845,3.793-6.278,7.732-10.191,11.597c-3.964,3.915-8.004,7.339-11.879,10.158
	C18.508,58.688,9.364,61.887,5.981,58.46c-3.276-3.316-0.275-11.954,6.849-21.778c-0.168-0.673-0.3-1.355-0.396-2.045
	C3.109,46.657-1.078,57.543,2.866,61.536c4.074,4.127,15.62-0.332,28.238-10.161c3.498-2.726,7.079-5.861,10.606-9.343
	c3.479-3.435,6.618-6.926,9.358-10.344C61.138,19.142,65.796,7.581,61.706,3.438C57.746-0.573,46.734,3.525,34.541,12.774z"/>
</svg>
