<?xml version="1.0" encoding="utf-8"?>
<!-- Generator: Adobe Illustrator 16.0.0, SVG Export Plug-In . SVG Version: 6.00 Build 0)  -->
<!DOCTYPE svg PUBLIC "-//W3C//DTD SVG 1.1//EN" "http://www.w3.org/Graphics/SVG/1.1/DTD/svg11.dtd">
<svg version="1.1" id="Layer_1" xmlns="http://www.w3.org/2000/svg" xmlns:xlink="http://www.w3.org/1999/xlink" x="0px" y="0px"
	 width="64px" height="64px" viewBox="0 0 64 64" enable-background="new 0 0 64 64" xml:space="preserve">
<g>
	<path fill="#FFCE03" d="M35.543,8.13l2.087,11.278l0.403,2.179l2.126-0.623l11.007-3.226l-6.499,9.451l-1.255,1.826l1.944,1.063
		l10.063,5.503l-11.279,2.088l-2.178,0.403l0.623,2.126l3.225,11.005l-9.451-6.499l-1.825-1.255l-1.063,1.943l-5.504,10.065
		L25.88,44.18l-0.403-2.178l-2.126,0.623L12.345,45.85l6.499-9.452l1.255-1.825l-1.943-1.063L8.092,28.007L19.37,25.92l2.178-0.403
		l-0.623-2.126L17.7,12.383l9.451,6.5l1.825,1.255l1.063-1.944L35.543,8.13 M36.486,2.237l-8.202,14.998L14.199,7.548l4.807,16.405
		L2.198,27.064l14.998,8.201L7.511,49.35l16.403-4.806l3.111,16.808l8.202-14.999l14.085,9.686l-4.807-16.402l16.809-3.112
		l-14.998-8.2L56,14.238l-16.403,4.807L36.486,2.237L36.486,2.237z"/>
</g>
</svg>
