<?xml version="1.0" encoding="utf-8"?>
<!-- Generator: Adobe Illustrator 16.0.0, SVG Export Plug-In . SVG Version: 6.00 Build 0)  -->
<!DOCTYPE svg PUBLIC "-//W3C//DTD SVG 1.1//EN" "http://www.w3.org/Graphics/SVG/1.1/DTD/svg11.dtd">
<svg version="1.1" id="레이어_1" xmlns="http://www.w3.org/2000/svg" xmlns:xlink="http://www.w3.org/1999/xlink" x="0px"
	 y="0px" width="600px" height="600px" viewBox="0 0 600 600" enable-background="new 0 0 600 600" xml:space="preserve">
<g id="레이어_3">
</g>
<g id="레이어_1_1_">
	<g id="레이어_2_1_" display="none">
		<rect x="196.5" y="45" display="inline" fill="none" stroke="#000000" stroke-miterlimit="10" width="229" height="229"/>
		
			<rect x="196.5" y="284.241" display="inline" fill="none" stroke="#000000" stroke-miterlimit="10" width="229" height="272.759"/>
		<rect x="440.5" y="45" display="inline" fill="none" stroke="#000000" stroke-miterlimit="10" width="127" height="127"/>
		<rect x="440.5" y="188.833" display="inline" fill="none" stroke="#000000" stroke-miterlimit="10" width="127" height="127"/>
		<rect x="440.5" y="333.5" display="inline" fill="none" stroke="#000000" stroke-miterlimit="10" width="127" height="223.5"/>
	</g>
	<g id="레이어_1_3_">
	</g>
	<g id="레이어_2">
	</g>
</g>
<path fill="#333333" d="M506.003,45.488c-0.514,0-1.023,0.021-1.53,0.056c-16.788,1.154-30.154,21.174-30.154,45.706h14.875h31.715
	h16.779C537.688,65.976,523.502,45.488,506.003,45.488z"/>
<path fill="#333333" d="M541.202,95.379c0,3.799-2.768,6.879-6.183,6.879h-58.67c-3.415,0-6.183-3.08-6.183-6.879l0,0
	c0-3.799,2.768-6.879,6.183-6.879h58.67C538.435,88.5,541.202,91.58,541.202,95.379L541.202,95.379z"/>
<rect x="517.452" y="85.5" fill="#C9AC79" width="19.298" height="9.879"/>
</svg>
