<?xml version="1.0" encoding="utf-8"?>
<!-- Generator: Adobe Illustrator 16.0.0, SVG Export Plug-In . SVG Version: 6.00 Build 0)  -->
<!DOCTYPE svg PUBLIC "-//W3C//DTD SVG 1.1//EN" "http://www.w3.org/Graphics/SVG/1.1/DTD/svg11.dtd">
<svg version="1.1" id="레이어_1" xmlns="http://www.w3.org/2000/svg" xmlns:xlink="http://www.w3.org/1999/xlink" x="0px"
	 y="0px" width="600px" height="600px" viewBox="0 0 600 600" enable-background="new 0 0 600 600" xml:space="preserve">
<g id="레이어_3">
</g>
<g id="레이어_1_1_">
	<g id="레이어_2_1_" display="none">
		<rect x="196.5" y="45" display="inline" fill="none" stroke="#000000" stroke-miterlimit="10" width="229" height="229"/>
		
			<rect x="196.5" y="284.241" display="inline" fill="none" stroke="#000000" stroke-miterlimit="10" width="229" height="272.759"/>
		<rect x="440.5" y="45" display="inline" fill="none" stroke="#000000" stroke-miterlimit="10" width="127" height="127"/>
		<rect x="440.5" y="188.833" display="inline" fill="none" stroke="#000000" stroke-miterlimit="10" width="127" height="127"/>
		<rect x="440.5" y="333.5" display="inline" fill="none" stroke="#000000" stroke-miterlimit="10" width="127" height="223.5"/>
	</g>
	<g id="레이어_1_3_">
	</g>
	<g id="레이어_2">
	</g>
</g>
<ellipse fill="#5E5E5E" cx="479.71" cy="237.171" rx="13.043" ry="28.245"/>
<g>
	<g opacity="0.1">
		<path d="M498.151,274.271c-0.679-7-1.271-14.641-2.436-21.622c-1.893-11.351,2.322-21.32-0.014-32.517
			c-1.427-6.846-5.485-13.134-13.146-13.433c0,0-19.396-1.29-15.236,34.54c0,0,0.538,17.581-0.501,20.698
			c-0.648,1.948-1.37,18.846,2.683,29.904c2.432,6.634,5.854,7.917,12.772,8.159c5.945,0.208,10.834-1.493,13.285-8.045
			C497.669,286.321,498.516,278.035,498.151,274.271z M491.358,240.833c0,7.333-17.685,7.773-18.62,0.5
			c-0.451-3.5-1.74-6.629-1.74-12.37c0-8.822,4.988-15.974,11.14-15.974c6.152,0,11.141,7.151,11.141,15.974
			C493.276,234.5,491.358,237.096,491.358,240.833z"/>
	</g>
	<g>
		<g>
			<path fill="#AF8935" d="M496.151,272.271c-0.679-7-1.271-14.641-2.436-21.622c-1.893-11.351,2.322-21.32-0.014-32.517
				c-1.427-6.846-5.485-13.134-13.146-13.433c0,0-19.396-1.29-15.236,34.54c0,0,0.538,17.581-0.501,20.698
				c-0.648,1.948-1.37,18.846,2.683,29.904c2.432,6.634,5.854,7.917,12.772,8.159c5.945,0.208,10.834-1.493,13.285-8.045
				C495.669,284.321,496.516,276.035,496.151,272.271z M489.358,238.833c0,7.333-17.685,7.773-18.62,0.5
				c-0.451-3.5-1.74-6.629-1.74-12.37c0-8.822,4.988-15.974,11.14-15.974c6.152,0,11.141,7.151,11.141,15.974
				C491.276,232.5,489.358,235.096,489.358,238.833z"/>
		</g>
	</g>
</g>
<circle fill="#FFEFCA" cx="476.777" cy="245.604" r="2.958"/>
<circle fill="#FFEFCA" cx="483.208" cy="245.604" r="2.958"/>
<circle fill="#FFEFCA" cx="479.71" cy="251.52" r="2.958"/>
<ellipse fill="#5E5E5E" cx="530.982" cy="237.171" rx="13.044" ry="28.245"/>
<g>
	<g opacity="0.1">
		<path d="M519.133,291.955c2.453,6.552,7.34,8.252,13.287,8.045c6.918-0.242,10.341-1.525,12.771-8.159
			c4.054-11.058,3.332-27.956,2.684-29.904c-1.039-3.117-0.501-20.698-0.501-20.698c4.158-35.83-15.238-34.54-15.238-34.54
			c-7.661,0.299-11.72,6.587-13.146,13.433c-2.336,11.197,1.879,21.166-0.016,32.517c-1.162,6.981-1.757,14.622-2.434,21.622
			C516.178,278.035,517.023,286.321,519.133,291.955z M521.417,228.963c0-8.822,4.987-15.974,11.139-15.974
			c6.152,0,11.142,7.151,11.142,15.974c0,5.74-1.289,8.87-1.74,12.37c-0.938,7.273-18.62,6.834-18.62-0.5
			C523.335,237.096,521.417,234.5,521.417,228.963z"/>
	</g>
	<g>
		<g>
			<path fill="#AF8935" d="M517.133,289.955c2.453,6.552,7.34,8.252,13.287,8.045c6.918-0.242,10.341-1.525,12.771-8.159
				c4.054-11.058,3.332-27.956,2.684-29.904c-1.039-3.117-0.501-20.698-0.501-20.698c4.158-35.83-15.238-34.54-15.238-34.54
				c-7.661,0.299-11.72,6.587-13.146,13.433c-2.336,11.197,1.879,21.166-0.016,32.517c-1.162,6.981-1.757,14.622-2.434,21.622
				C514.178,276.035,515.023,284.321,517.133,289.955z M519.417,226.963c0-8.822,4.987-15.974,11.139-15.974
				c6.152,0,11.142,7.151,11.142,15.974c0,5.74-1.289,8.87-1.74,12.37c-0.938,7.273-18.62,6.834-18.62-0.5
				C521.335,235.096,519.417,232.5,519.417,226.963z"/>
		</g>
	</g>
</g>
<circle fill="#FFEFCA" cx="527.768" cy="245.604" r="2.958"/>
<circle fill="#FFEFCA" cx="534.198" cy="245.604" r="2.958"/>
<circle fill="#FFEFCA" cx="530.7" cy="251.52" r="2.958"/>
</svg>
