<?xml version="1.0" encoding="utf-8"?>
<!-- Generator: Adobe Illustrator 16.0.0, SVG Export Plug-In . SVG Version: 6.00 Build 0)  -->
<!DOCTYPE svg PUBLIC "-//W3C//DTD SVG 1.1//EN" "http://www.w3.org/Graphics/SVG/1.1/DTD/svg11.dtd">
<svg version="1.1" id="레이어_1" xmlns="http://www.w3.org/2000/svg" xmlns:xlink="http://www.w3.org/1999/xlink" x="0px"
	 y="0px" width="600px" height="600px" viewBox="0 0 600 600" enable-background="new 0 0 600 600" xml:space="preserve">
<g id="레이어_3">
</g>
<g id="레이어_1_1_">
	<g id="레이어_2_1_" display="none">
		<rect x="196.5" y="45" display="inline" fill="none" stroke="#000000" stroke-miterlimit="10" width="229" height="229"/>
		
			<rect x="196.5" y="284.241" display="inline" fill="none" stroke="#000000" stroke-miterlimit="10" width="229" height="272.759"/>
		<rect x="440.5" y="45" display="inline" fill="none" stroke="#000000" stroke-miterlimit="10" width="127" height="127"/>
		<rect x="440.5" y="188.833" display="inline" fill="none" stroke="#000000" stroke-miterlimit="10" width="127" height="127"/>
		<rect x="440.5" y="333.5" display="inline" fill="none" stroke="#000000" stroke-miterlimit="10" width="127" height="223.5"/>
	</g>
	<g id="레이어_1_3_">
	</g>
	<g id="레이어_2">
	</g>
</g>
<g>
	<g opacity="0.1">
		<path d="M539.688,93.982c0-0.247-0.048-0.491-0.124-0.732h0.124c0-17.535-14.186-31.75-31.685-31.75
			c-0.514,0-1.023,0.015-1.53,0.039c-16.788,0.8-30.154,14.69-30.154,31.711h0.124c-0.076,0.241-0.124,0.485-0.124,0.732
			c0,3.713-2.248,13.201,13.813,15.009c3.929,0.442,12.392-1.526,17.871-1.526c6.096,0,16.054,2.318,20.078,1.34
			C541.873,105.454,539.688,97.625,539.688,93.982z"/>
	</g>
	<g>
		<path fill="#C6B393" d="M537.688,91.982c0-0.247-0.048-0.491-0.124-0.732h0.124c0-17.535-14.186-31.75-31.685-31.75
			c-0.514,0-1.023,0.015-1.53,0.039c-16.788,0.8-30.154,14.69-30.154,31.711h0.124c-0.076,0.241-0.124,0.485-0.124,0.732
			c0,3.713-2.248,13.201,13.813,15.009c3.929,0.442,12.392-1.526,17.871-1.526c6.096,0,16.054,2.318,20.078,1.34
			C539.873,103.454,537.688,95.625,537.688,91.982z"/>
	</g>
</g>
<path fill="#BAA683" d="M537.688,91.982c0,3.644,2.186,11.472-11.606,14.823c-4.024,0.978-13.982-1.34-20.078-1.34
	c-5.479,0-13.942,1.968-17.871,1.526c-16.062-1.808-13.813-11.296-13.813-15.009c0-4.707,14.186-8.522,31.686-8.522
	C523.502,83.46,537.688,87.275,537.688,91.982z"/>
<g>
	<path fill="#D1BE99" d="M505.051,59.58c-13.168,1.408-15.857,31.67-15.857,31.67h31.715
		C520.908,91.25,518.219,60.988,505.051,59.58z"/>
	<path fill="#C6B393" d="M505.051,59.58c-0.19-0.021-0.384-0.033-0.578-0.041c-16.788,0.8-30.154,14.69-30.154,31.711h14.875
		C489.193,91.25,491.883,60.988,505.051,59.58z"/>
	<path fill="#C6B393" d="M506.003,59.5c-0.514,0-1.023,0.015-1.53,0.039c0.194,0.008,0.388,0.021,0.578,0.041
		c0.313-0.034,0.627-0.068,0.952-0.068c-0.325,0-0.639,0.034-0.952,0.068c13.168,1.408,15.857,31.67,15.857,31.67h16.779
		C537.688,73.715,523.502,59.5,506.003,59.5z"/>
</g>
<ellipse fill="#C6B393" cx="504.668" cy="59.623" rx="3.885" ry="1.79"/>
<circle fill="#FFFFFF" cx="506.012" cy="83.46" r="4.417"/>
</svg>
