<?xml version="1.0" encoding="utf-8"?>
<!-- Generator: Adobe Illustrator 16.0.0, SVG Export Plug-In . SVG Version: 6.00 Build 0)  -->
<!DOCTYPE svg PUBLIC "-//W3C//DTD SVG 1.1//EN" "http://www.w3.org/Graphics/SVG/1.1/DTD/svg11.dtd">
<svg version="1.1" id="레이어_1" xmlns="http://www.w3.org/2000/svg" xmlns:xlink="http://www.w3.org/1999/xlink" x="0px"
	 y="0px" width="120px" height="120px" viewBox="0 0 120 120" enable-background="new 0 0 120 120" xml:space="preserve">
<path fill="none" stroke="#515151" stroke-width="2" stroke-linecap="round" stroke-linejoin="round" stroke-miterlimit="10" d="
	M36.184,28.797C25.371,16.669,5.056,0.227,0,0"/>
<g>
	<path fill="#EADFCE" d="M65.177,27.638l-34.402,1.376l-1.376,34.401l52.908,52.91l35.779-35.779L65.177,27.638z M42.186,44.194
		c-1.915,0-3.468-1.553-3.468-3.468s1.553-3.468,3.468-3.468c1.915,0,3.468,1.553,3.468,3.468S44.101,44.194,42.186,44.194z"/>
</g>
<g>
	<path fill="#515151" d="M63.465,49.384c-0.433-0.433-0.929-0.604-1.492-0.517c-0.562,0.086-1.133,0.421-1.714,1.002
		c-1.208,1.207-1.358,2.265-0.451,3.172c0.381,0.38,0.936,0.746,1.667,1.097l-0.963,0.963c-0.63-0.259-1.219-0.663-1.767-1.212
		c-0.789-0.788-1.152-1.629-1.091-2.525c0.06-0.896,0.538-1.791,1.433-2.685c0.563-0.562,1.159-0.955,1.787-1.173
		c0.628-0.219,1.249-0.249,1.858-0.091c0.61,0.158,1.172,0.496,1.689,1.013c0.526,0.525,0.928,1.181,1.204,1.966l-1.304,0.563
		c-0.106-0.299-0.227-0.587-0.359-0.864S63.663,49.583,63.465,49.384z"/>
	<path fill="#515151" d="M65.898,60.897l-1.145-1.145l2.339-2.338l-2.146-2.145l-2.338,2.337l-1.149-1.149l5.417-5.417l1.149,1.148
		l-2.123,2.124l2.145,2.145l2.123-2.123l1.145,1.145L65.898,60.897z"/>
	<path fill="#515151" d="M70.583,65.582l0.897-1.683l-1.976-1.975l-1.684,0.897l-1.237-1.238l7.352-3.527l1.404,1.404l-3.52,7.359
		L70.583,65.582z M72.168,62.662c0.806-1.532,1.262-2.396,1.369-2.596c0.107-0.199,0.197-0.353,0.265-0.462
		c-0.397,0.236-1.413,0.784-3.045,1.646L72.168,62.662z"/>
	<path fill="#515151" d="M77.308,72.307l-1.459-1.459l1.741-6.455l-0.033-0.034c-0.677,0.771-1.171,1.311-1.479,1.619l-2.549,2.549
		l-1.025-1.025l5.417-5.417l1.448,1.449l-1.705,6.41l0.026,0.026c0.667-0.742,1.146-1.258,1.438-1.55l2.564-2.564l1.034,1.034
		L77.308,72.307z"/>
	<path fill="#515151" d="M83.77,72.685l2.149,2.148l-2.809,2.809c-0.463-0.234-0.869-0.482-1.222-0.744
		c-0.354-0.262-0.691-0.554-1.013-0.875c-0.817-0.817-1.201-1.683-1.152-2.594c0.05-0.912,0.524-1.817,1.423-2.716
		c0.874-0.874,1.806-1.306,2.795-1.294c0.989,0.011,1.928,0.46,2.815,1.347c0.555,0.556,0.979,1.203,1.273,1.941l-1.3,0.538
		c-0.198-0.593-0.509-1.104-0.938-1.532c-0.497-0.497-1.061-0.727-1.694-0.691c-0.632,0.035-1.229,0.334-1.793,0.897
		c-0.587,0.587-0.916,1.157-0.985,1.708c-0.069,0.551,0.125,1.055,0.585,1.514c0.241,0.24,0.508,0.458,0.805,0.656l1.13-1.131
		l-1.025-1.025L83.77,72.685z"/>
	<path fill="#515151" d="M87.286,82.286l-3.119-3.12l5.418-5.417l3.119,3.12l-0.942,0.941l-1.97-1.971l-1.189,1.189l1.835,1.834
		l-0.941,0.941l-1.834-1.834l-1.398,1.396l1.973,1.971L87.286,82.286z"/>
	<path fill="#515151" d="M54.359,58.492c-0.434-0.433-0.929-0.604-1.492-0.517c-0.562,0.087-1.134,0.421-1.714,1.001
		c-1.208,1.208-1.358,2.266-0.451,3.173c0.38,0.38,0.935,0.745,1.667,1.096l-0.963,0.963c-0.63-0.26-1.219-0.663-1.768-1.211
		c-0.788-0.788-1.152-1.629-1.09-2.525c0.06-0.896,0.537-1.79,1.431-2.685c0.563-0.563,1.159-0.955,1.788-1.173
		c0.628-0.219,1.249-0.249,1.859-0.091c0.609,0.158,1.171,0.495,1.688,1.012c0.525,0.525,0.928,1.181,1.204,1.967l-1.305,0.563
		c-0.106-0.299-0.226-0.587-0.359-0.864C54.722,58.926,54.556,58.688,54.359,58.492z"/>
	<path fill="#515151" d="M52.354,65.564l5.417-5.417l1.148,1.149l-4.469,4.469l2.197,2.198L55.7,68.91L52.354,65.564z"/>
	<path fill="#515151" d="M64.2,71.979c-0.896,0.896-1.809,1.363-2.734,1.401c-0.927,0.037-1.805-0.359-2.634-1.19
		c-0.829-0.83-1.227-1.708-1.19-2.634c0.038-0.927,0.507-1.84,1.409-2.743c0.901-0.901,1.812-1.367,2.733-1.397
		c0.922-0.028,1.798,0.372,2.632,1.205c0.833,0.833,1.23,1.709,1.19,2.63C65.567,70.17,65.099,71.08,64.2,71.979z M60.246,68.025
		c-0.605,0.605-0.946,1.176-1.021,1.711c-0.077,0.537,0.113,1.034,0.57,1.49c0.916,0.917,1.984,0.766,3.201-0.452
		c1.221-1.221,1.375-2.286,0.463-3.198c-0.457-0.457-0.956-0.648-1.495-0.572C61.424,67.081,60.85,67.42,60.246,68.025z"/>
	<path fill="#515151" d="M64.586,77.797l-1.149-1.15l4.461-4.46l-1.472-1.471l0.957-0.957l4.091,4.091l-0.956,0.957l-1.471-1.471
		L64.586,77.797z"/>
	<path fill="#515151" d="M71.33,84.541l-1.145-1.145l2.337-2.338l-2.145-2.145l-2.337,2.338l-1.148-1.149l5.417-5.417l1.148,1.149
		l-2.123,2.122l2.145,2.146l2.123-2.123l1.145,1.145L71.33,84.541z"/>
	<path fill="#515151" d="M75.817,89.028l-3.122-3.12l5.418-5.418l3.121,3.12l-0.941,0.94l-1.972-1.97l-1.189,1.188l1.834,1.834
		l-0.94,0.941l-1.835-1.833l-1.397,1.396l1.972,1.971L75.817,89.028z"/>
	<path fill="#515151" d="M81.649,91.851c-0.489,0.489-1.05,0.699-1.685,0.629c-0.633-0.071-1.263-0.421-1.891-1.048
		c-0.579-0.579-0.982-1.199-1.208-1.859l1.067-1.068c0.202,0.529,0.397,0.954,0.584,1.272c0.187,0.321,0.384,0.586,0.593,0.795
		c0.252,0.253,0.494,0.396,0.725,0.436c0.231,0.039,0.442-0.037,0.632-0.228c0.106-0.105,0.17-0.23,0.195-0.372
		c0.024-0.143,0.015-0.31-0.022-0.501c-0.04-0.191-0.15-0.548-0.335-1.068c-0.176-0.487-0.274-0.885-0.296-1.194
		c-0.022-0.309,0.013-0.607,0.104-0.897c0.09-0.289,0.263-0.561,0.518-0.814c0.479-0.479,1.02-0.694,1.617-0.644
		c0.6,0.051,1.187,0.362,1.76,0.937c0.281,0.282,0.517,0.583,0.706,0.905c0.188,0.322,0.361,0.685,0.52,1.083l-1.263,0.524
		c-0.17-0.41-0.327-0.73-0.469-0.966c-0.143-0.235-0.305-0.444-0.488-0.629c-0.217-0.217-0.435-0.334-0.652-0.348
		c-0.218-0.017-0.408,0.059-0.571,0.222c-0.101,0.103-0.167,0.213-0.196,0.335c-0.028,0.123-0.025,0.27,0.006,0.443
		c0.032,0.172,0.148,0.542,0.348,1.108c0.265,0.748,0.369,1.338,0.314,1.771C82.207,91.105,82.002,91.498,81.649,91.851z"/>
	<path fill="#515151" d="M81.408,93.56c0.208-0.209,0.42-0.31,0.638-0.304c0.217,0.004,0.432,0.113,0.643,0.324
		c0.206,0.206,0.311,0.419,0.316,0.64c0.003,0.222-0.097,0.434-0.299,0.636c-0.196,0.195-0.405,0.292-0.631,0.291
		c-0.227-0.001-0.441-0.103-0.644-0.307c-0.207-0.206-0.312-0.423-0.317-0.646C81.11,93.971,81.208,93.76,81.408,93.56z
		 M83.783,93.4l-0.904-0.904l3.431-3.809l1.283,1.281L83.783,93.4z"/>
</g>
<path fill="none" stroke="#515151" stroke-width="2" stroke-linecap="round" stroke-linejoin="round" stroke-miterlimit="10" d="
	M0,0c0,0,27.037,49.854,42.003,41.273c1.25-0.717,1.505-2.19,0.319-3.331"/>
</svg>
