<?xml version="1.0" encoding="utf-8"?>
<!-- Generator: Adobe Illustrator 16.0.0, SVG Export Plug-In . SVG Version: 6.00 Build 0)  -->
<!DOCTYPE svg PUBLIC "-//W3C//DTD SVG 1.1//EN" "http://www.w3.org/Graphics/SVG/1.1/DTD/svg11.dtd">
<svg version="1.1" id="레이어_1" xmlns="http://www.w3.org/2000/svg" xmlns:xlink="http://www.w3.org/1999/xlink" x="0px"
	 y="0px" width="600px" height="600px" viewBox="0 0 600 600" enable-background="new 0 0 600 600" xml:space="preserve">
<g id="레이어_3">
</g>
<g id="레이어_1_1_">
	<g id="레이어_2_1_" display="none">
		<rect x="196.5" y="45" display="inline" fill="none" stroke="#000000" stroke-miterlimit="10" width="229" height="229"/>
		
			<rect x="196.5" y="284.241" display="inline" fill="none" stroke="#000000" stroke-miterlimit="10" width="229" height="272.759"/>
		<rect x="440.5" y="45" display="inline" fill="none" stroke="#000000" stroke-miterlimit="10" width="127" height="127"/>
		<rect x="440.5" y="188.833" display="inline" fill="none" stroke="#000000" stroke-miterlimit="10" width="127" height="127"/>
		<rect x="440.5" y="333.5" display="inline" fill="none" stroke="#000000" stroke-miterlimit="10" width="127" height="223.5"/>
	</g>
	<g id="레이어_1_3_">
	</g>
	<g id="레이어_2">
	</g>
</g>
<rect x="283.5" y="52.055" fill="#EFD6CE" width="52" height="57.445"/>
<g>
	<g opacity="0.1">
		<path d="M421.652,124l-29.536-50.631l-42.541-18.314c-0.456,9.213-18.675,52.137-36.571,52.137
			c-17.897,0-35.472-42.924-35.927-52.137l-42.541,18.314L205,124l45.214,45.973c-0.079,6.516,4.806,6.05,4.647,17.24
			c-0.671,47.288-17.123,134.152-19.921,137.839c0,0,47.228,15.212,77.714,14.277v0.022c0.224-0.011,0.447-0.018,0.672-0.025
			c0.224,0.01,0.447,0.017,0.672,0.025v-0.022c8.137,0.249,16.754-0.651,25.016-2.106c2.262-0.396,0.809-4.989,3-5.46
			c19.795-4.234,48.074-18.271,48.074-18.271c-2.725-3.591-19.158-81.661-19.427-125.991c-0.071-11.787,5.868-10.036,5.78-17.166
			L421.652,124z M249.84,110.157c0.16,2.453,0.307,8.218,0.403,16.042l-5.912-5.912L249.84,110.157z M376.404,126.572
			c0.097-8.016,0.246-13.923,0.408-16.415l5.639,10.369L376.404,126.572z"/>
	</g>
	<g>
		<g>
			<path fill="#FFD9D7" d="M418.652,121l-29.536-50.631l-42.541-18.314c-0.456,9.213-18.675,52.137-36.571,52.137
				c-17.897,0-35.472-42.924-35.927-52.137l-42.541,18.314L202,121l45.214,45.973c-0.079,6.516,4.806,6.05,4.647,17.24
				c-0.671,47.288-17.123,134.152-19.921,137.839c0,0,47.228,15.212,77.714,14.277v0.022c0.224-0.011,0.447-0.018,0.672-0.025
				c0.224,0.01,0.447,0.017,0.672,0.025v-0.022c8.137,0.249,16.754-0.651,25.016-2.106c2.262-0.396,0.809-4.989,3-5.46
				c19.795-4.234,48.074-18.271,48.074-18.271c-2.725-3.591-19.158-81.661-19.427-125.991c-0.071-11.787,5.868-10.036,5.78-17.166
				L418.652,121z M246.84,107.157c0.16,2.453,0.307,8.218,0.403,16.042l-5.912-5.912L246.84,107.157z M373.404,123.572
				c0.097-8.016,0.246-13.923,0.408-16.415l5.639,10.369L373.404,123.572z"/>
		</g>
	</g>
</g>
<g>
	<g opacity="0.1">
		<polygon points="312.004,94.705 331.611,46.692 348.12,50.123 357.243,87.433 338.396,95.691 343.35,110.418 326.223,125.917 		
			"/>
	</g>
	<g>
		<polygon fill="#FFD9D7" points="310.004,92.705 329.611,44.692 346.12,48.123 355.243,85.433 336.396,93.691 341.35,108.418 
			324.223,123.917 		"/>
	</g>
</g>
<g>
	<g opacity="0.1">
		<polygon points="308.909,88.318 292.319,46.634 276.077,50.009 267.1,86.718 285.644,94.844 280.77,109.334 339.663,162.624 
			346.566,165.75 		"/>
	</g>
	<g>
		<polygon fill="#FFD9D7" points="306.909,86.318 290.319,44.634 274.077,48.009 265.1,84.718 283.644,92.844 278.77,107.334 
			337.663,160.624 344.566,163.75 		"/>
	</g>
</g>
<circle fill="#443308" cx="296.556" cy="183.333" r="5.056"/>
<circle fill="#443308" cx="322.057" cy="183.333" r="5.056"/>
<polygon opacity="0.1" enable-background="new    " points="339.014,328.764 340.885,162.083 343.5,162.083 343.256,327.7 "/>
<path fill="#FFD9D7" d="M372.938,194.213"/>
<g>
	<g opacity="0.1">
		<rect x="249.634" y="177.312" width="125.384" height="16.862"/>
	</g>
	<g>
		<rect x="247.634" y="175.312" fill="#FFD9D7" width="125.384" height="16.862"/>
	</g>
</g>
<polygon opacity="0.1" enable-background="new    " points="310.246,182.042 247.554,119 247.554,170.5 285.5,208.5 
	310.246,186.036 334.993,208.5 372.938,170.5 372.938,119 "/>
<rect x="245.491" y="107.781" transform="matrix(0.7071 -0.7071 0.7071 0.7071 -36.0094 231.1084)" fill="#FFD9D7" width="30.971" height="102.484"/>
<rect x="344.184" y="107.777" transform="matrix(-0.7071 -0.7071 0.7071 -0.7071 501.5452 525.7897)" fill="#FFD9D7" width="30.971" height="102.485"/>
<ellipse fill="#443308" cx="322.719" cy="161.958" rx="5.718" ry="1.792"/>
<ellipse fill="#443308" cx="322.719" cy="210.292" rx="5.718" ry="1.792"/>
<ellipse fill="#443308" cx="322.719" cy="228.774" rx="5.718" ry="1.792"/>
<ellipse fill="#443308" cx="322.719" cy="247.256" rx="5.718" ry="1.792"/>
</svg>
