<?xml version="1.0" encoding="utf-8"?>
<!-- Generator: Adobe Illustrator 16.0.0, SVG Export Plug-In . SVG Version: 6.00 Build 0)  -->
<!DOCTYPE svg PUBLIC "-//W3C//DTD SVG 1.1//EN" "http://www.w3.org/Graphics/SVG/1.1/DTD/svg11.dtd">
<svg version="1.1" id="레이어_1" xmlns="http://www.w3.org/2000/svg" xmlns:xlink="http://www.w3.org/1999/xlink" x="0px"
	 y="0px" width="600px" height="600px" viewBox="0 0 600 600" enable-background="new 0 0 600 600" xml:space="preserve">
<g id="레이어_3">
</g>
<g id="레이어_1_1_">
	<g id="레이어_2_1_" display="none">
		<rect x="196.5" y="45" display="inline" fill="none" stroke="#000000" stroke-miterlimit="10" width="229" height="229"/>
		
			<rect x="196.5" y="284.241" display="inline" fill="none" stroke="#000000" stroke-miterlimit="10" width="229" height="272.759"/>
		<rect x="440.5" y="45" display="inline" fill="none" stroke="#000000" stroke-miterlimit="10" width="127" height="127"/>
		<rect x="440.5" y="188.833" display="inline" fill="none" stroke="#000000" stroke-miterlimit="10" width="127" height="127"/>
		<rect x="440.5" y="333.5" display="inline" fill="none" stroke="#000000" stroke-miterlimit="10" width="127" height="223.5"/>
	</g>
	<g id="레이어_1_3_">
	</g>
	<g id="레이어_2">
	</g>
</g>
<rect x="283.5" y="52.055" fill="#869FA5" width="52" height="57.445"/>
<g>
	<g opacity="0.1">
		<path d="M421.652,124l-29.536-50.631l-42.541-18.314c-0.456,9.213-18.675,52.137-36.571,52.137
			c-17.897,0-35.472-42.924-35.927-52.137l-42.541,18.314L205,124l45.214,45.973c-0.079,6.516,4.806,6.05,4.647,17.24
			c-0.671,47.288-17.123,134.152-19.921,137.839c0,0,47.228,15.212,77.714,14.277v0.022c0.224-0.011,0.447-0.018,0.672-0.025
			c0.224,0.01,0.447,0.017,0.672,0.025v-0.022c8.137,0.249,16.754-0.651,25.016-2.106c2.262-0.396,0.809-4.989,3-5.46
			c19.795-4.234,48.074-18.271,48.074-18.271c-2.725-3.591-13.158-81.661-13.427-125.991c-0.071-11.787-0.132-10.036-0.22-17.166
			L421.652,124z M249.84,110.157c0.16,2.453,0.307,8.218,0.403,16.042l-5.912-5.912L249.84,110.157z M376.404,126.572
			c0.097-8.016,0.246-13.923,0.408-16.415l5.639,10.369L376.404,126.572z"/>
	</g>
	<g>
		<g>
			<path fill="#7CC1DD" d="M418.652,121l-29.536-50.631l-42.541-18.314c-0.456,9.213-18.675,52.137-36.571,52.137
				c-17.897,0-35.472-42.924-35.927-52.137l-42.541,18.314L202,121l45.214,45.973c-0.079,6.516-0.194,6.05-0.353,17.24
				c-0.671,47.288-12.123,134.152-14.921,137.839c0,0,47.228,15.212,77.714,14.277v0.022c0.224-0.011,0.447-0.018,0.672-0.025
				c0.224,0.01,0.447,0.017,0.672,0.025v-0.022c8.137,0.249,16.754-0.651,25.016-2.106c2.262-0.396,0.809-4.989,3-5.46
				c19.795-4.234,48.074-18.271,48.074-18.271c-2.725-3.591-13.158-81.661-13.427-125.991c-0.071-11.787-0.132-10.036-0.22-17.166
				L418.652,121z M246.84,107.157c0.16,2.453,0.307,8.218,0.403,16.042l-5.912-5.912L246.84,107.157z M373.404,123.572
				c0.097-8.016,0.246-13.923,0.408-16.415l5.639,10.369L373.404,123.572z"/>
		</g>
	</g>
</g>
<g>
	<g opacity="0.1">
		<polygon points="311.653,92.798 330.775,45.974 346.874,49.32 355.772,85.707 337.392,93.76 342.223,108.122 325.52,123.237 		"/>
	</g>
	<g>
		<polygon fill="#7CC1DD" points="309.703,90.848 328.825,44.024 344.925,47.37 353.821,83.756 335.442,91.809 340.272,106.171 
			323.569,121.286 		"/>
	</g>
</g>
<g>
	<g opacity="0.1">
		<polygon points="308.636,86.569 292.456,45.918 276.617,49.209 267.862,85.008 285.946,92.933 281.193,107.065 338.627,159.035 
			345.36,162.083 		"/>
	</g>
	<g>
		<polygon fill="#7CC1DD" points="306.685,84.619 290.506,43.967 274.666,47.259 265.912,83.059 283.997,90.983 279.243,105.114 
			336.677,157.084 343.409,160.132 		"/>
	</g>
</g>
<circle fill="#443308" cx="296.556" cy="183.333" r="5.056"/>
<circle fill="#443308" cx="322.057" cy="183.333" r="5.056"/>
<circle fill="#443308" cx="322.057" cy="158.514" r="5.056"/>
<polygon opacity="0.1" enable-background="new    " points="339.014,328.764 340.885,162.083 343.5,162.083 343.256,327.7 "/>
<path fill="#7CC1DD" d="M372.938,194.213"/>
<polygon opacity="0.1" enable-background="new    " points="310.246,182.042 247.554,119 247.554,170.5 285.5,208.5 
	310.246,186.036 334.993,208.5 372.938,170.5 372.938,119 "/>
<rect x="245.491" y="107.781" transform="matrix(0.7071 -0.7071 0.7071 0.7071 -36.0094 231.1084)" fill="#7CC1DD" width="30.971" height="102.484"/>
<rect x="344.184" y="107.777" transform="matrix(-0.7071 -0.7071 0.7071 -0.7071 501.5452 525.7897)" fill="#7CC1DD" width="30.971" height="102.485"/>
</svg>
