<?xml version="1.0" encoding="utf-8"?>
<!-- Generator: Adobe Illustrator 16.0.0, SVG Export Plug-In . SVG Version: 6.00 Build 0)  -->
<!DOCTYPE svg PUBLIC "-//W3C//DTD SVG 1.1//EN" "http://www.w3.org/Graphics/SVG/1.1/DTD/svg11.dtd">
<svg version="1.1" id="레이어_1" xmlns="http://www.w3.org/2000/svg" xmlns:xlink="http://www.w3.org/1999/xlink" x="0px"
	 y="0px" width="30px" height="30px" viewBox="0 0 30 30" enable-background="new 0 0 30 30" xml:space="preserve">
<path fill="#BCCFD8" d="M17.515,19.14V3.415c0-1.438-1.165-2.603-2.603-2.603h-0.098c-1.438,0-2.603,1.165-2.603,2.603v15.89
	c-1.396,0.912-2.319,2.484-2.319,4.276c0,2.82,2.286,5.106,5.106,5.106c2.821,0,5.107-2.287,5.107-5.106
	C20.106,21.676,19.062,20.017,17.515,19.14z"/>
<path fill="#840303" d="M15.925,22.059V7.521c0-0.529-0.429-0.958-0.958-0.958h-0.162c-0.529,0-0.958,0.429-0.958,0.958v14.662
	c-0.609,0.383-1.015,1.06-1.015,1.833c0,1.196,0.97,2.167,2.167,2.167s2.167-0.969,2.167-2.167
	C17.167,23.151,16.659,22.407,15.925,22.059z"/>
</svg>
