<?xml version="1.0" encoding="utf-8"?>
<!-- Generator: Adobe Illustrator 16.0.0, SVG Export Plug-In . SVG Version: 6.00 Build 0)  -->
<!DOCTYPE svg PUBLIC "-//W3C//DTD SVG 1.1//EN" "http://www.w3.org/Graphics/SVG/1.1/DTD/svg11.dtd">
<svg version="1.1" id="레이어_1" xmlns="http://www.w3.org/2000/svg" xmlns:xlink="http://www.w3.org/1999/xlink" x="0px"
	 y="0px" width="600px" height="600px" viewBox="0 0 600 600" enable-background="new 0 0 600 600" xml:space="preserve">
<rect x="0" y="0" fill="#D3BB7F" width="600" height="600"/>
<g id="레이어_3">
</g>
<g id="레이어_1_1_">
	<g id="레이어_2_1_" display="none">
		<rect x="-201.5" y="-453" display="inline" fill="none" stroke="#000000" stroke-miterlimit="10" width="229" height="229"/>
		
			<rect x="-201.5" y="-213.759" display="inline" fill="none" stroke="#000000" stroke-miterlimit="10" width="229" height="272.759"/>
		<rect x="42.5" y="-453" display="inline" fill="none" stroke="#000000" stroke-miterlimit="10" width="127" height="127"/>
		<rect x="42.5" y="-309.167" display="inline" fill="none" stroke="#000000" stroke-miterlimit="10" width="127" height="127"/>
		<rect x="42.5" y="-164.5" display="inline" fill="none" stroke="#000000" stroke-miterlimit="10" width="127" height="223.5"/>
	</g>
	<g id="레이어_1_3_">
	</g>
	<g id="레이어_2">
	</g>
</g>
<path fill-rule="evenodd" clip-rule="evenodd" fill="#913535" d="M81.912,527.727c-9.243,9.242-15.996,10.403-19.446,6.953
	c-3.449-3.449-2.289-10.203,6.954-19.445c9.242-9.242,22.98-10.488,22.98-10.488S91.154,518.484,81.912,527.727z"/>
<path fill-rule="evenodd" clip-rule="evenodd" fill="#913535" d="M67.485,515.167c2.119,10.491-0.147,15.622-4.063,16.414
	c-3.915,0.79-7.996-3.059-10.115-13.549c-2.119-10.489,3.253-20.426,3.253-20.426S65.366,504.679,67.485,515.167z"/>
<path fill-rule="evenodd" clip-rule="evenodd" fill="#913535" d="M55.651,521.868c7.759,4.986,9.993,8.812,8.651,10.902
	c-1.342,2.087-5.751,1.647-13.51-3.339c-7.759-4.984-11.618-12.807-11.618-12.807S47.893,516.885,55.651,521.868z"/>
<path fill-rule="evenodd" clip-rule="evenodd" fill="#913535" d="M58.492,532.483c3.933,0.029,5.609,0.899,5.602,1.958
	c-0.008,1.059-1.697,1.905-5.629,1.876c-3.934-0.027-7.107-1.969-7.107-1.969S54.56,532.455,58.492,532.483z"/>
<path fill-rule="evenodd" clip-rule="evenodd" fill="#913535" d="M64.492,538.661c0.453-3.907-0.206-5.678-1.258-5.8
	c-1.052-0.121-2.098,1.451-2.551,5.358c-0.453,3.907,1.084,7.294,1.084,7.294S64.04,542.567,64.492,538.661z"/>
<path fill-rule="evenodd" clip-rule="evenodd" fill="#913535" d="M81.163,528.845c-10.491-2.119-15.622,0.146-16.414,4.062
	c-0.791,3.915,3.059,7.996,13.548,10.116c10.49,2.118,20.426-3.253,20.426-3.253S91.651,530.964,81.163,528.845z"/>
<path fill-rule="evenodd" clip-rule="evenodd" fill="#913535" d="M74.461,540.679c-4.986-7.76-8.812-9.993-10.902-8.651
	c-2.087,1.342-1.647,5.751,3.338,13.51c4.984,7.76,12.807,11.618,12.807,11.618S79.445,548.437,74.461,540.679z"/>
<path fill-rule="evenodd" clip-rule="evenodd" fill="#913535" d="M56.279,542.786c-3.774,3.774-3.729,2.87-4.259,2.34
	c-0.53-0.529-1.435-0.484,2.34-4.259c3.775-3.774,7.265-6.406,7.795-5.876C62.685,535.521,60.054,539.012,56.279,542.786z"/>
<path fill-rule="evenodd" clip-rule="evenodd" fill="#913535" d="M82.497,465.072c-2.395-2.395-2.695-4.145-1.801-5.038
	c0.894-0.894,2.644-0.593,5.038,1.802s2.717,5.953,2.717,5.953S84.891,467.467,82.497,465.072z"/>
<path fill-rule="evenodd" clip-rule="evenodd" fill="#913535" d="M85.75,461.334c-2.718,0.55-4.047-0.037-4.252-1.053
	c-0.205-1.014,0.792-2.07,3.51-2.62c2.718-0.549,5.292,0.843,5.292,0.843S88.468,460.785,85.75,461.334z"/>
<path fill-rule="evenodd" clip-rule="evenodd" fill="#913535" d="M84.015,458.269c-1.292,2.011-2.283,2.589-2.825,2.241
	c-0.541-0.348-0.427-1.49,0.865-3.5c1.291-2.01,3.318-3.01,3.318-3.01S85.306,456.259,84.015,458.269z"/>
<path fill-rule="evenodd" clip-rule="evenodd" fill="#913535" d="M81.264,459.005c-0.007,1.019-0.232,1.453-0.507,1.451
	s-0.494-0.44-0.486-1.458c0.007-1.02,0.51-1.842,0.51-1.842S81.272,457.986,81.264,459.005z"/>
<path fill-rule="evenodd" clip-rule="evenodd" fill="#913535" d="M79.664,460.559c1.013,0.117,1.472-0.053,1.503-0.325
	s-0.376-0.544-1.389-0.661c-1.012-0.117-1.89,0.281-1.89,0.281S78.652,460.441,79.664,460.559z"/>
<path fill-rule="evenodd" clip-rule="evenodd" fill="#913535" d="M82.208,464.879c0.549-2.719-0.038-4.048-1.053-4.253
	s-2.072,0.792-2.621,3.51s0.843,5.292,0.843,5.292S81.658,467.596,82.208,464.879z"/>
<path fill-rule="evenodd" clip-rule="evenodd" fill="#913535" d="M79.141,463.143c2.011-1.293,2.589-2.283,2.241-2.825
	c-0.348-0.54-1.49-0.427-3.5,0.865c-2.011,1.292-3.01,3.317-3.01,3.317S77.131,464.434,79.141,463.143z"/>
<path fill-rule="evenodd" clip-rule="evenodd" fill="#913535" d="M78.595,458.432c-0.978-0.979-0.744-0.967-0.606-1.104
	c0.138-0.138,0.126-0.372,1.104,0.605c0.978,0.979,1.66,1.883,1.522,2.02C80.477,460.091,79.573,459.409,78.595,458.432z"/>
<path fill-rule="evenodd" clip-rule="evenodd" fill="#913535" d="M143.979,490.234c5.257,5.256,5.917,9.097,3.955,11.059
	c-1.962,1.963-5.803,1.303-11.06-3.955c-5.257-5.256-5.965-13.068-5.965-13.068S138.723,484.978,143.979,490.234z"/>
<path fill-rule="evenodd" clip-rule="evenodd" fill="#913535" d="M136.836,498.438c5.967-1.204,8.885,0.084,9.335,2.312
	c0.449,2.227-1.739,4.547-7.706,5.753c-5.965,1.204-11.616-1.851-11.616-1.851S130.871,499.645,136.836,498.438z"/>
<path fill-rule="evenodd" clip-rule="evenodd" fill="#913535" d="M140.646,505.169c2.836-4.413,5.013-5.683,6.201-4.92
	c1.187,0.763,0.937,3.271-1.899,7.684c-2.834,4.413-7.283,6.607-7.283,6.607S137.812,509.582,140.646,505.169z"/>
<path fill-rule="evenodd" clip-rule="evenodd" fill="#913535" d="M146.685,503.554c0.017-2.237,0.511-3.19,1.113-3.187
	c0.603,0.005,1.084,0.966,1.067,3.201c-0.016,2.238-1.12,4.043-1.12,4.043S146.668,505.79,146.685,503.554z"/>
<path fill-rule="evenodd" clip-rule="evenodd" fill="#913535" d="M150.197,500.141c-2.222-0.257-3.229,0.117-3.298,0.716
	s0.825,1.193,3.047,1.45c2.223,0.258,4.148-0.616,4.148-0.616S152.419,500.398,150.197,500.141z"/>
<path fill-rule="evenodd" clip-rule="evenodd" fill="#913535" d="M144.615,490.66c-1.206,5.967,0.083,8.885,2.311,9.335
	c2.227,0.45,4.547-1.739,5.753-7.706c1.205-5.965-1.85-11.616-1.85-11.616S145.82,484.695,144.615,490.66z"/>
<path fill-rule="evenodd" clip-rule="evenodd" fill="#913535" d="M151.346,494.471c-4.414,2.836-5.684,5.013-4.921,6.201
	c0.763,1.187,3.271,0.937,7.684-1.898c4.413-2.836,6.607-7.285,6.607-7.285S155.758,491.637,151.346,494.471z"/>
<path fill-rule="evenodd" clip-rule="evenodd" fill="#913535" d="M152.544,504.812c2.146,2.146,1.632,2.121,1.331,2.422
	c-0.302,0.302-0.276,0.816-2.423-1.33c-2.146-2.147-3.644-4.133-3.342-4.434C148.412,501.169,150.397,502.665,152.544,504.812z"/>
</svg>
