<?xml version="1.0" encoding="utf-8"?>
<!-- Generator: Adobe Illustrator 16.0.0, SVG Export Plug-In . SVG Version: 6.00 Build 0)  -->
<!DOCTYPE svg PUBLIC "-//W3C//DTD SVG 1.1//EN" "http://www.w3.org/Graphics/SVG/1.1/DTD/svg11.dtd">
<svg version="1.1" xmlns="http://www.w3.org/2000/svg" xmlns:xlink="http://www.w3.org/1999/xlink" x="0px" y="0px" width="600px"
	 height="600px" viewBox="0 0 600 600" enable-background="new 0 0 600 600" xml:space="preserve">
<g id="레이어_3">
</g>
<g id="레이어_1">
	<g id="레이어_2_1_" display="none">
		<rect x="196.5" y="45" display="inline" fill="none" stroke="#000000" stroke-miterlimit="10" width="229" height="229"/>
		
			<rect x="196.5" y="284.241" display="inline" fill="none" stroke="#000000" stroke-miterlimit="10" width="229" height="272.759"/>
		<rect x="440.5" y="45" display="inline" fill="none" stroke="#000000" stroke-miterlimit="10" width="127" height="127"/>
		<rect x="440.5" y="188.833" display="inline" fill="none" stroke="#000000" stroke-miterlimit="10" width="127" height="127"/>
		<rect x="440.5" y="333.5" display="inline" fill="none" stroke="#000000" stroke-miterlimit="10" width="127" height="223.5"/>
	</g>
	<g id="레이어_1_3_">
	</g>
	<g id="레이어_2">
	</g>
</g>
<g id="레이어_2_2_">
	<g>
		<g opacity="0.1">
			<path d="M535.764,92.526c-2.047-10.325-13.653-18.236-27.666-18.236c-14.14,0-25.824,8.058-27.713,18.522
				c-20.168,2.25-33.949,6.768-33.949,11.978c0,7.456,28.206,13.5,63,13.5s63-6.044,63-13.5
				C572.436,99.349,557.405,94.664,535.764,92.526z"/>
		</g>
		<g>
			<path fill="#D3B779" d="M531.764,88.526c-2.047-10.325-13.653-18.236-27.666-18.236c-14.14,0-25.824,8.058-27.713,18.522
				c-20.168,2.25-33.949,6.768-33.949,11.978c0,7.456,28.206,13.5,63,13.5s63-6.044,63-13.5
				C568.436,95.349,553.405,90.664,531.764,88.526z"/>
		</g>
	</g>
	<path fill="#CED5D8" d="M522.682,96.731l6.669-3.616c0,0,16.28,10.676,28.848,7.676s19.067-3.572,19.067-3.572v10.572
		C577.266,107.791,552.098,111.671,522.682,96.731z"/>
	<path fill="#CED5D8" d="M514.625,98.453l3.609-6.673c0,0,19.469,0.045,28.354-9.335s14.017-13.411,14.017-13.411l5.777,8.854
		C566.383,77.888,547.425,94.891,514.625,98.453z"/>
	<g>
		<g opacity="0.1">
			<path d="M505.099,94.189c-16.928,0-24.25-5.137-26.819-7.648c-0.756,1.948-1.168,4.011-1.168,6.148c0,0,5.586,9,27.987,9
				s27.986-9,27.986-9c0-2.137-0.412-4.2-1.168-6.148C529.348,89.052,522.026,94.189,505.099,94.189z"/>
		</g>
		<g>
			<g>
				<path fill="#CED5D8" d="M504.099,93.189c-16.928,0-24.25-5.137-26.819-7.648c-0.756,1.948-1.168,4.011-1.168,6.148
					c0,0,5.586,9,27.987,9s27.986-9,27.986-9c0-2.137-0.412-4.2-1.168-6.148C528.348,88.052,521.026,93.189,504.099,93.189z"/>
			</g>
		</g>
	</g>
</g>
</svg>
