<?xml version="1.0" encoding="utf-8"?>
<!-- Generator: Adobe Illustrator 16.0.0, SVG Export Plug-In . SVG Version: 6.00 Build 0)  -->
<!DOCTYPE svg PUBLIC "-//W3C//DTD SVG 1.1//EN" "http://www.w3.org/Graphics/SVG/1.1/DTD/svg11.dtd">
<svg version="1.1" id="레이어_1" xmlns="http://www.w3.org/2000/svg" xmlns:xlink="http://www.w3.org/1999/xlink" x="0px"
	 y="0px" width="600px" height="600px" viewBox="0 0 600 600" enable-background="new 0 0 600 600" xml:space="preserve">
<rect x="283.149" y="103.157" fill="#1C6868" width="54.351" height="75.843"/>
<rect x="283.149" y="121.157" fill="#4A7776" width="54.351" height="75.843"/>
<g id="레이어_3">
</g>
<g id="레이어_1_1_">
	<g id="레이어_2_1_" display="none">
		<rect x="196.5" y="45" display="inline" fill="none" stroke="#000000" stroke-miterlimit="10" width="229" height="229"/>
		
			<rect x="196.5" y="284.241" display="inline" fill="none" stroke="#000000" stroke-miterlimit="10" width="229" height="272.759"/>
		<rect x="440.5" y="45" display="inline" fill="none" stroke="#000000" stroke-miterlimit="10" width="127" height="127"/>
		<rect x="440.5" y="188.833" display="inline" fill="none" stroke="#000000" stroke-miterlimit="10" width="127" height="127"/>
		<rect x="440.5" y="333.5" display="inline" fill="none" stroke="#000000" stroke-miterlimit="10" width="127" height="223.5"/>
	</g>
	<g id="레이어_1_3_">
	</g>
	<g id="레이어_2">
	</g>
</g>
<g>
	<g opacity="0.1">
		<path d="M421.652,184l-29.536-50.631l-42.541-18.314c-0.911,18.426-16.775,33.106-36.249,33.199
			c-19.474-0.092-35.338-14.772-36.25-33.199l-42.541,18.314L205,184l45.214,45.973c-0.413,34.051-1.813,70.519-5.274,75.08
			c0,0,37.228,15.212,67.714,14.277v0.021c0.224-0.011,0.447-0.018,0.672-0.024c0.224,0.01,0.447,0.017,0.672,0.024v-0.021
			c30.486,0.935,67.714-14.277,67.714-14.277c-3.448-4.545-4.851-40.77-5.271-74.716L421.652,184z M249.84,170.157
			c0.16,2.453,0.307,8.218,0.403,16.042l-5.912-5.912L249.84,170.157z M376.404,186.572c0.097-8.016,0.246-13.923,0.408-16.415
			l5.639,10.369L376.404,186.572z"/>
	</g>
	<g>
		<g>
			<path fill="#37999B" d="M418.652,181l-29.536-50.631l-42.541-18.314c-0.911,18.426-16.775,33.106-36.249,33.199
				c-19.474-0.092-35.338-14.772-36.25-33.199l-42.541,18.314L202,181l45.214,45.973c-0.413,34.051-1.813,70.519-5.274,75.08
				c0,0,37.228,15.212,67.714,14.277v0.021c0.224-0.011,0.447-0.018,0.672-0.024c0.224,0.01,0.447,0.017,0.672,0.024v-0.021
				c30.486,0.935,67.714-14.277,67.714-14.277c-3.448-4.545-4.851-40.77-5.271-74.716L418.652,181z M246.84,167.157
				c0.16,2.453,0.307,8.218,0.403,16.042l-5.912-5.912L246.84,167.157z M373.404,183.572c0.097-8.016,0.246-13.923,0.408-16.415
				l5.639,10.369L373.404,183.572z"/>
		</g>
	</g>
</g>
<polygon opacity="0.1" enable-background="new    " points="310.246,242.042 247.554,179 247.554,230.5 285.5,268.5 
	310.246,246.036 334.993,268.5 372.938,230.5 372.938,179 "/>
<rect x="245.486" y="167.783" transform="matrix(-0.7071 0.7071 -0.7071 -0.7071 600.3796 189.3674)" fill="#37999B" width="30.971" height="102.483"/>
<rect x="344.189" y="167.78" transform="matrix(0.7071 0.7071 -0.7071 0.7071 260.2135 -190.1774)" fill="#37999B" width="30.971" height="102.484"/>
<g>
	<g>
		<g opacity="0.1">
			<polygon points="287.149,107.157 274.861,118.992 287.149,160.586 314.324,153.437 			"/>
		</g>
		<g>
			<g>
				<polygon fill="#1C6868" points="283.149,103.157 270.861,114.992 283.149,156.586 310.324,149.437 				"/>
			</g>
		</g>
	</g>
	<g>
		<g opacity="0.1">
			<polygon points="341.499,107.278 353.792,119.111 341.499,160.709 314.324,153.437 			"/>
		</g>
		<g>
			<g>
				<polygon fill="#1C6868" points="337.499,103.278 349.792,115.111 337.499,156.709 310.324,149.437 				"/>
			</g>
		</g>
	</g>
</g>
<rect x="308.544" y="148.254" fill="#1C6868" width="3.892" height="168.117"/>
</svg>
