<?xml version="1.0" encoding="utf-8"?>
<!-- Generator: Adobe Illustrator 16.0.0, SVG Export Plug-In . SVG Version: 6.00 Build 0)  -->
<!DOCTYPE svg PUBLIC "-//W3C//DTD SVG 1.1//EN" "http://www.w3.org/Graphics/SVG/1.1/DTD/svg11.dtd">
<svg version="1.1" id="레이어_1" xmlns="http://www.w3.org/2000/svg" xmlns:xlink="http://www.w3.org/1999/xlink" x="0px"
	 y="0px" width="600px" height="600px" viewBox="0 0 600 600" enable-background="new 0 0 600 600" xml:space="preserve">
<rect x="283.149" y="101.157" fill="#144C8E" width="54.351" height="53.343"/>
<g id="레이어_3">
</g>
<g id="레이어_1_1_">
	<g id="레이어_2_1_" display="none">
		<rect x="196.5" y="45" display="inline" fill="none" stroke="#000000" stroke-miterlimit="10" width="229" height="229"/>
		
			<rect x="196.5" y="284.241" display="inline" fill="none" stroke="#000000" stroke-miterlimit="10" width="229" height="272.759"/>
		<rect x="440.5" y="45" display="inline" fill="none" stroke="#000000" stroke-miterlimit="10" width="127" height="127"/>
		<rect x="440.5" y="188.833" display="inline" fill="none" stroke="#000000" stroke-miterlimit="10" width="127" height="127"/>
		<rect x="440.5" y="333.5" display="inline" fill="none" stroke="#000000" stroke-miterlimit="10" width="127" height="223.5"/>
	</g>
	<g id="레이어_1_3_">
	</g>
	<g id="레이어_2">
	</g>
</g>
<g>
	<g opacity="0.1">
		<path d="M421.652,184l-29.536-50.631l-42.541-18.314c-0.911,18.426-16.775,33.106-36.249,33.199
			c-19.474-0.092-35.338-14.772-36.25-33.199l-42.541,18.314L205,184l45.214,45.973c-0.413,34.051-1.813,70.519-5.274,75.08
			c0,0,37.228,15.212,67.714,14.277v0.022c0.224-0.011,0.447-0.018,0.672-0.025c0.224,0.01,0.447,0.017,0.672,0.025v-0.022
			c30.486,0.935,65.925-10.392,67.714-14.277s-4.851-40.77-5.271-74.716L421.652,184z M249.84,170.157
			c0.16,2.453,0.307,8.218,0.403,16.042l-5.912-5.912L249.84,170.157z M376.404,186.572c0.097-8.016,0.246-13.923,0.408-16.415
			l5.639,10.369L376.404,186.572z"/>
	</g>
	<g>
		<g>
			<path fill="#36619E" d="M418.652,181l-29.536-50.631l-42.541-18.314c-0.911,18.426-16.775,33.106-36.249,33.199
				c-19.474-0.092-35.338-14.772-36.25-33.199l-42.541,18.314L202,181l45.214,45.973c-0.413,34.051-6.168,70.298-5.274,75.08
				s37.228,15.212,67.714,14.277v0.022c0.224-0.011,0.447-0.018,0.672-0.025c0.224,0.01,0.447,0.017,0.672,0.025v-0.022
				c30.486,0.935,66.774-9.57,67.714-14.277c0.939-4.708-4.851-40.77-5.271-74.716L418.652,181z M246.84,167.157
				c0.16,2.453,0.307,8.218,0.403,16.042l-5.912-5.912L246.84,167.157z M373.404,183.572c0.097-8.016,0.246-13.923,0.408-16.415
				l5.639,10.369L373.404,183.572z"/>
		</g>
	</g>
</g>
<polygon opacity="0.1" enable-background="new    " points="310.246,242.042 247.554,179 247.554,230.5 285.5,268.5 
	310.246,246.036 334.993,268.5 372.938,230.5 372.938,179 "/>
<rect x="245.489" y="167.778" transform="matrix(0.7071 -0.7071 0.7071 0.7071 -78.4329 248.6902)" fill="#36619E" width="30.971" height="102.485"/>
<rect x="344.188" y="167.776" transform="matrix(-0.7071 -0.7071 0.7071 -0.7071 459.1415 628.2128)" fill="#36619E" width="30.973" height="102.485"/>
<g>
	<g opacity="0.1">
		<polygon points="287.149,105.157 274.861,118.992 287.149,145.586 314.324,153.437 		"/>
	</g>
	<g>
		<g>
			<polygon fill="#36619E" points="283.149,101.157 270.861,114.992 283.149,141.586 310.324,149.437 			"/>
		</g>
	</g>
</g>
<g>
	<g opacity="0.1">
		<polygon points="339.499,103.278 351.792,117.111 339.499,144.709 312.324,151.437 		"/>
	</g>
	<g>
		<g>
			<polygon fill="#36619E" points="337.499,101.278 349.792,115.111 337.499,142.709 310.324,149.437 			"/>
		</g>
	</g>
</g>
<g>
	<g>
		
			<line fill="none" stroke="#EFCE45" stroke-width="0.25" stroke-linecap="round" stroke-linejoin="round" x1="274.368" y1="115.055" x2="274.554" y2="115.519"/>
		
			<line fill="none" stroke="#EFCE45" stroke-width="0.25" stroke-linecap="round" stroke-linejoin="round" stroke-dasharray="0.9687,0.9687" x1="274.916" y1="116.418" x2="284.133" y2="139.337"/>
		<polyline fill="none" stroke="#EFCE45" stroke-width="0.25" stroke-linecap="round" stroke-linejoin="round" points="
			284.313,139.786 284.5,140.25 284.982,140.384 		"/>
		
			<line fill="none" stroke="#EFCE45" stroke-width="0.25" stroke-linecap="round" stroke-linejoin="round" stroke-dasharray="0.9718,0.9718" x1="285.918" y1="140.644" x2="306.05" y2="146.236"/>
		
			<line fill="none" stroke="#EFCE45" stroke-width="0.25" stroke-linecap="round" stroke-linejoin="round" x1="306.519" y1="146.366" x2="307" y2="146.5"/>
	</g>
</g>
<g>
	<g>
		
			<line fill="none" stroke="#EFCE45" stroke-width="0.25" stroke-linecap="round" stroke-linejoin="round" x1="348.375" y1="115.055" x2="348.188" y2="115.519"/>
		
			<line fill="none" stroke="#EFCE45" stroke-width="0.25" stroke-linecap="round" stroke-linejoin="round" stroke-dasharray="0.9687,0.9687" x1="347.826" y1="116.418" x2="338.609" y2="139.337"/>
		<polyline fill="none" stroke="#EFCE45" stroke-width="0.25" stroke-linecap="round" stroke-linejoin="round" points="
			338.428,139.786 338.242,140.25 337.76,140.384 		"/>
		
			<line fill="none" stroke="#EFCE45" stroke-width="0.25" stroke-linecap="round" stroke-linejoin="round" stroke-dasharray="0.9718,0.9718" x1="336.824" y1="140.644" x2="316.691" y2="146.236"/>
		
			<line fill="none" stroke="#EFCE45" stroke-width="0.25" stroke-linecap="round" stroke-linejoin="round" x1="316.224" y1="146.366" x2="315.742" y2="146.5"/>
	</g>
</g>
<polygon fill="none" stroke="#EFCE45" stroke-width="0.25" stroke-linecap="round" stroke-linejoin="round" stroke-miterlimit="10" stroke-dasharray="1,1" points="
	361.04,185.205 346,197.959 330.96,185.205 330.96,158.791 361.04,158.791 "/>
<line fill="none" stroke="#EFCE45" stroke-width="0.25" stroke-linecap="round" stroke-linejoin="round" stroke-miterlimit="10" stroke-dasharray="1,1" x1="330.96" y1="164.419" x2="361.04" y2="164.419"/>
<polygon fill="none" stroke="#EFCE45" stroke-width="0.25" stroke-linecap="round" stroke-linejoin="round" stroke-miterlimit="10" stroke-dasharray="1,1" points="
	289.901,185.205 274.861,197.959 259.821,185.205 259.821,158.791 289.901,158.791 "/>
<line fill="none" stroke="#EFCE45" stroke-width="0.25" stroke-linecap="round" stroke-linejoin="round" stroke-miterlimit="10" stroke-dasharray="1,1" x1="259.821" y1="164.419" x2="289.901" y2="164.419"/>
<rect x="308.544" y="148.254" fill="none" stroke="#EFCE45" stroke-width="0.25" stroke-linecap="round" stroke-linejoin="round" stroke-miterlimit="10" stroke-dasharray="1,1" width="3.892" height="168.117"/>
</svg>
