<?xml version="1.0" encoding="utf-8"?>
<!-- Generator: Adobe Illustrator 16.0.0, SVG Export Plug-In . SVG Version: 6.00 Build 0)  -->
<!DOCTYPE svg PUBLIC "-//W3C//DTD SVG 1.1//EN" "http://www.w3.org/Graphics/SVG/1.1/DTD/svg11.dtd">
<svg version="1.1" id="레이어_1" xmlns="http://www.w3.org/2000/svg" xmlns:xlink="http://www.w3.org/1999/xlink" x="0px"
	 y="0px" width="600px" height="600px" viewBox="0 0 600 600" enable-background="new 0 0 600 600" xml:space="preserve">
<g id="레이어_3">
</g>
<g id="레이어_1_1_">
	<g id="레이어_2_1_" display="none">
		<rect x="196.5" y="45" display="inline" fill="none" stroke="#000000" stroke-miterlimit="10" width="229" height="229"/>
		
			<rect x="196.5" y="284.241" display="inline" fill="none" stroke="#000000" stroke-miterlimit="10" width="229" height="272.759"/>
		<rect x="440.5" y="45" display="inline" fill="none" stroke="#000000" stroke-miterlimit="10" width="127" height="127"/>
		<rect x="440.5" y="188.833" display="inline" fill="none" stroke="#000000" stroke-miterlimit="10" width="127" height="127"/>
		<rect x="440.5" y="333.5" display="inline" fill="none" stroke="#000000" stroke-miterlimit="10" width="127" height="223.5"/>
	</g>
	<g id="레이어_1_3_">
	</g>
	<g id="레이어_2">
	</g>
</g>
<g>
	<g opacity="0.1">
		<path d="M421.652,184l-29.536-50.631l-42.541-18.314c-0.911,18.426-16.775,33.106-36.249,33.199
			c-19.474-0.092-35.338-14.772-36.25-33.199l-42.541,18.314L205,184l45.214,45.973c-0.413,34.051-1.813,70.519-5.274,75.08
			c0,0,37.228,15.212,67.714,14.277v0.024c0.224-0.011,0.448-0.018,0.672-0.027c0.224,0.01,0.448,0.017,0.672,0.027v-0.024
			c30.486,0.935,67.714-14.277,67.714-14.277c-3.448-4.545-4.851-40.77-5.27-74.716L421.652,184z M249.84,170.157
			c0.16,2.453,0.307,8.218,0.403,16.042l-5.912-5.912L249.84,170.157z M376.405,186.572c0.096-8.016,0.245-13.923,0.407-16.415
			l5.639,10.369L376.405,186.572z"/>
	</g>
	<g>
		<g>
			<path fill="#DAE1ED" d="M418.652,181l-29.536-50.631l-42.541-18.314c-0.911,18.426-16.775,33.106-36.249,33.199
				c-19.474-0.092-35.338-14.772-36.25-33.199l-42.541,18.314L202,181l45.214,45.973c-0.413,34.051-1.813,70.519-5.274,75.08
				c0,0,37.228,15.212,67.714,14.277v0.024c0.224-0.011,0.448-0.018,0.672-0.027c0.224,0.01,0.448,0.017,0.672,0.027v-0.024
				c30.486,0.935,67.714-14.277,67.714-14.277c-3.448-4.545-4.851-40.77-5.27-74.716L418.652,181z M246.84,167.157
				c0.16,2.453,0.307,8.218,0.403,16.042l-5.912-5.912L246.84,167.157z M373.405,183.572c0.096-8.016,0.245-13.923,0.407-16.415
				l5.639,10.369L373.405,183.572z"/>
		</g>
	</g>
</g>
<g>
	<path fill="#FFFFFF" d="M255.326,120.127v186.689c3.132,1.008,6.705,2.088,10.566,3.146V115.578L255.326,120.127z"/>
	<path fill="#FFFFFF" d="M276.078,121.913v190.589c3.424,0.767,6.966,1.47,10.566,2.06V136.749
		C281.886,132.808,278.203,127.711,276.078,121.913z"/>
	<path fill="#FFFFFF" d="M297.078,142.804v173.094c3.555,0.321,7.096,0.488,10.566,0.461V145.137
		C303.939,144.862,300.39,144.06,297.078,142.804z"/>
	<path fill="#FFFFFF" d="M318.078,144.417v171.849c3.501-0.15,7.042-0.465,10.566-0.917V140.44
		C325.41,142.264,321.853,143.615,318.078,144.417z"/>
	<path fill="#FFFFFF" d="M346.575,112.055c-0.363,7.341-3.104,14.083-7.497,19.549V313.65c3.64-0.706,7.184-1.505,10.566-2.35
		V113.376L346.575,112.055z"/>
	<path fill="#FFFFFF" d="M360.078,117.868V308.44c4.062-1.211,7.652-2.392,10.566-3.403v-182.62L360.078,117.868z"/>
</g>
<polygon opacity="0.1" points="310.246,242.042 247.554,179 247.554,230.5 285.5,268.5 310.246,246.036 334.993,268.5 
	372.938,230.5 372.938,179 "/>
<rect x="245.488" y="167.773" transform="matrix(0.7071 -0.7071 0.7071 0.7071 -78.4298 248.6889)" fill="#DAE1ED" width="30.972" height="102.487"/>
<rect x="344.192" y="167.772" transform="matrix(-0.7071 -0.7071 0.7071 -0.7071 459.1368 628.2159)" fill="#DAE1ED" width="30.972" height="102.487"/>
<g>
	<g opacity="0.1">
		<polygon points="287.149,105.157 274.861,118.992 287.149,166.586 314.324,153.437 		"/>
	</g>
	<g>
		<g>
			<polygon fill="#DAE1ED" points="283.149,101.157 270.861,114.992 283.149,162.586 310.324,149.437 			"/>
		</g>
	</g>
</g>
<g>
	<g opacity="0.1">
		<polygon points="341.499,105.278 353.792,119.111 341.499,166.709 314.324,153.437 		"/>
	</g>
	<g>
		<g>
			<polygon fill="#DAE1ED" points="337.499,101.278 349.792,115.111 337.499,162.709 310.324,149.437 			"/>
		</g>
	</g>
</g>
</svg>
