<?xml version="1.0" encoding="utf-8"?>
<!-- Generator: Adobe Illustrator 16.0.0, SVG Export Plug-In . SVG Version: 6.00 Build 0)  -->
<!DOCTYPE svg PUBLIC "-//W3C//DTD SVG 1.1//EN" "http://www.w3.org/Graphics/SVG/1.1/DTD/svg11.dtd">
<svg version="1.1" id="레이어_1" xmlns="http://www.w3.org/2000/svg" xmlns:xlink="http://www.w3.org/1999/xlink" x="0px"
	 y="0px" width="600px" height="600px" viewBox="0 0 600 600" enable-background="new 0 0 600 600" xml:space="preserve">
<g id="레이어_3">
</g>
<g id="레이어_1_1_">
	<g id="레이어_2_1_" display="none">
		<rect x="196.5" y="45" display="inline" fill="none" stroke="#000000" stroke-miterlimit="10" width="229" height="229"/>
		
			<rect x="196.5" y="284.241" display="inline" fill="none" stroke="#000000" stroke-miterlimit="10" width="229" height="272.759"/>
		<rect x="440.5" y="45" display="inline" fill="none" stroke="#000000" stroke-miterlimit="10" width="127" height="127"/>
		<rect x="440.5" y="188.833" display="inline" fill="none" stroke="#000000" stroke-miterlimit="10" width="127" height="127"/>
		<rect x="440.5" y="333.5" display="inline" fill="none" stroke="#000000" stroke-miterlimit="10" width="127" height="223.5"/>
	</g>
	<g id="레이어_1_3_">
	</g>
	<g id="레이어_2">
	</g>
</g>
<path opacity="0.1" d="M421.652,184l-29.536-50.631l-42.541-18.314c-0.911,18.426-16.775,33.106-36.249,33.199
	c-19.474-0.092-35.338-14.772-36.25-33.199l-42.541,18.314L205,184l45.214,45.973c-0.413,34.051-1.813,70.519-5.274,75.08
	c0,0,37.228,15.212,67.714,14.277v0.022c0.224-0.011,0.447-0.018,0.672-0.025c0.224,0.01,0.447,0.017,0.672,0.025v-0.022
	c30.486,0.935,67.714-14.277,67.714-14.277c-3.448-4.545-4.851-40.77-5.271-74.716L421.652,184z M249.84,170.157
	c0.16,2.453,0.307,8.218,0.403,16.042l-5.912-5.912L249.84,170.157z M376.404,186.572c0.097-8.016,0.246-13.923,0.408-16.415
	l5.639,10.369L376.404,186.572z"/>
<path fill="#BACECE" d="M418.652,181l-29.536-50.631l-47.613-18.345c-12.253,16.262-11.262,26.639-30.735,26.732
	c-19.474-0.092-12.252-10.47-30.733-26.825l-48.5,18.438L202,181l45.214,45.973c-0.413,34.051-1.813,70.519-5.274,75.08
	c0,0,37.228,15.212,67.714,14.277v0.022c0.224-0.011,0.447-0.018,0.672-0.025c0.224,0.01,0.447,0.017,0.672,0.025v-0.022
	c30.486,0.935,67.714-14.277,67.714-14.277c-3.448-4.545-4.851-40.77-5.271-74.716L418.652,181z M246.84,167.157
	c0.16,2.453,0.307,8.218,0.403,16.042l-5.912-5.912L246.84,167.157z M373.404,183.572c0.097-8.016,0.246-13.923,0.408-16.415
	l5.639,10.369L373.404,183.572z"/>
<polygon opacity="0.1" enable-background="new    " points="310.246,242.042 247.554,179 247.554,230.5 285.5,268.5 
	310.246,246.036 334.993,268.5 372.938,230.5 372.938,179 "/>
<rect x="245.489" y="167.778" transform="matrix(0.7071 -0.7071 0.7071 0.7071 -78.4329 248.6902)" fill="#BACECE" width="30.971" height="102.485"/>
<rect x="344.188" y="167.776" transform="matrix(-0.7071 -0.7071 0.7071 -0.7071 459.1325 628.215)" fill="#BACECE" width="30.972" height="102.484"/>
<polygon opacity="0.1" points="292.719,104.272 283.15,115.046 292.719,152.11 313.882,141.871 "/>
<polygon fill="#5D7C7A" points="289.604,101.157 280.035,111.931 289.604,148.996 310.768,138.756 "/>
<polygon opacity="0.1" points="335.045,104.366 344.618,115.139 335.045,152.207 313.882,141.871 "/>
<polygon fill="#5D7C7A" points="331.93,101.251 341.503,112.024 331.93,149.091 310.768,138.756 "/>
<circle opacity="0.1" cx="312.804" cy="141.5" r="2.337"/>
<circle opacity="0.1" cx="312.804" cy="168.833" r="2.337"/>
<circle opacity="0.1" cx="312.804" cy="196.167" r="2.337"/>
<circle opacity="0.1" cx="312.804" cy="223.5" r="2.337"/>
<circle opacity="0.1" cx="312.804" cy="250.834" r="2.337"/>
<circle opacity="0.1" cx="312.804" cy="278.167" r="2.337"/>
<circle fill="#5D7C7A" cx="311.804" cy="140.5" r="2.337"/>
<circle fill="#5D7C7A" cx="311.804" cy="167.833" r="2.337"/>
<circle fill="#5D7C7A" cx="311.804" cy="195.167" r="2.337"/>
<circle fill="#5D7C7A" cx="311.804" cy="222.5" r="2.337"/>
<circle fill="#5D7C7A" cx="311.804" cy="249.834" r="2.337"/>
<circle fill="#5D7C7A" cx="311.804" cy="277.167" r="2.337"/>
</svg>
