<?xml version="1.0" encoding="utf-8"?>
<!-- Generator: Adobe Illustrator 16.0.0, SVG Export Plug-In . SVG Version: 6.00 Build 0)  -->
<!DOCTYPE svg PUBLIC "-//W3C//DTD SVG 1.1//EN" "http://www.w3.org/Graphics/SVG/1.1/DTD/svg11.dtd">
<svg version="1.1" id="레이어_1" xmlns="http://www.w3.org/2000/svg" xmlns:xlink="http://www.w3.org/1999/xlink" x="0px"
	 y="0px" width="600px" height="600px" viewBox="0 0 600 600" enable-background="new 0 0 600 600" xml:space="preserve">
<g opacity="0.1">
	<polygon points="319.094,344.258 312.163,344.258 247.089,344.258 247.089,433.851 247.089,537.131 312.163,537.131 
		312.163,410.532 319.094,410.532 319.094,537.131 384.169,537.131 384.169,433.851 384.169,344.258 	"/>
</g>
<g id="레이어_3">
</g>
<g id="레이어_1_1_">
	<g id="레이어_2_1_" display="none">
		<rect x="196.5" y="45" display="inline" fill="none" stroke="#000000" stroke-miterlimit="10" width="229" height="229"/>
		
			<rect x="196.5" y="284.241" display="inline" fill="none" stroke="#000000" stroke-miterlimit="10" width="229" height="272.759"/>
		<rect x="440.5" y="45" display="inline" fill="none" stroke="#000000" stroke-miterlimit="10" width="127" height="127"/>
		<rect x="440.5" y="188.833" display="inline" fill="none" stroke="#000000" stroke-miterlimit="10" width="127" height="127"/>
		<rect x="440.5" y="333.5" display="inline" fill="none" stroke="#000000" stroke-miterlimit="10" width="127" height="223.5"/>
	</g>
	<g id="레이어_1_3_">
	</g>
	<g id="레이어_2">
	</g>
</g>
<g opacity="0.1">
	<path d="M384.682,444.7l-0.513-0.513V433.85v-89.593h-65.075h-6.931h-65.074v89.593v103.28h65.074v-1.085l1.084,1.084l5.847-5.846
		v5.847h65.075v-0.114l0.112,0.114L384.682,444.7z M312.163,446.184v-34.648h6.931v27.723L312.163,446.184z"/>
</g>
<g>
	<path fill="#919191" d="M380.682,440.7l-0.513-0.513V429.85v-89.593h-65.075h-6.931h-65.074v89.593v103.28h65.074v-1.085
		l1.084,1.084l5.847-5.846v5.847h65.075v-0.114l0.112,0.114L380.682,440.7z"/>
</g>
<line fill="none" stroke="#8AABBA" stroke-miterlimit="10" x1="243.089" y1="349.971" x2="380.169" y2="349.971"/>
<line fill="none" stroke="#8AABBA" stroke-miterlimit="10" x1="243.089" y1="357" x2="380.169" y2="357"/>
<g opacity="0.1">
	<rect x="272.986" y="341.805" width="2.724" height="10.113"/>
	<rect x="272.039" y="341.258" width="2.723" height="10.113"/>
</g>
<g>
	<g>
		<g opacity="0.1">
			<rect x="271.986" y="340.805" fill="#919191" width="2.724" height="10.113"/>
		</g>
		<g>
			<rect x="271.039" y="340.258" fill="#919191" width="2.723" height="10.113"/>
		</g>
	</g>
</g>
<g opacity="0.1">
	<rect x="351.607" y="341.805" width="2.724" height="10.113"/>
	<rect x="350.659" y="341.258" width="2.725" height="10.113"/>
</g>
<g>
	<g>
		<g opacity="0.1">
			<rect x="350.607" y="340.805" fill="#919191" width="2.724" height="10.113"/>
		</g>
		<g>
			<rect x="349.659" y="340.258" fill="#919191" width="2.725" height="10.113"/>
		</g>
	</g>
</g>
<path opacity="0.1" d="M359.257,383.278c0,0,4.431,78.788-44.163,144.005C315.094,527.283,366.014,493.057,359.257,383.278z"/>
</svg>
