<?xml version="1.0" encoding="utf-8"?>
<!-- Generator: Adobe Illustrator 16.0.0, SVG Export Plug-In . SVG Version: 6.00 Build 0)  -->
<!DOCTYPE svg PUBLIC "-//W3C//DTD SVG 1.1//EN" "http://www.w3.org/Graphics/SVG/1.1/DTD/svg11.dtd">
<svg version="1.1" id="레이어_1" xmlns="http://www.w3.org/2000/svg" xmlns:xlink="http://www.w3.org/1999/xlink" x="0px"
	 y="0px" width="600px" height="600px" viewBox="0 0 600 600" enable-background="new 0 0 600 600" xml:space="preserve">
<g id="레이어_3">
</g>
<g id="레이어_1_1_">
	<g id="레이어_2_1_" display="none">
		<rect x="196.5" y="45" display="inline" fill="none" stroke="#000000" stroke-miterlimit="10" width="229" height="229"/>
		
			<rect x="196.5" y="284.241" display="inline" fill="none" stroke="#000000" stroke-miterlimit="10" width="229" height="272.759"/>
		<rect x="440.5" y="45" display="inline" fill="none" stroke="#000000" stroke-miterlimit="10" width="127" height="127"/>
		<rect x="440.5" y="188.833" display="inline" fill="none" stroke="#000000" stroke-miterlimit="10" width="127" height="127"/>
		<rect x="440.5" y="333.5" display="inline" fill="none" stroke="#000000" stroke-miterlimit="10" width="127" height="223.5"/>
	</g>
	<g id="레이어_1_3_">
	</g>
	<g id="레이어_2">
	</g>
</g>
<path fill="none" stroke="#D1D1D1" stroke-width="3" stroke-miterlimit="10" d="M483.472,156.882
	c-3.664-0.098-9.165-3.688-10.947-4.527c-4.454-2.099-7.133-3.13-8.157-8.271c-0.814-4.084-0.997-8.384-1.477-12.526
	c0-2.237,2.238-4.05,5-4.05h14.037"/>
<path fill="none" stroke="#D1D1D1" stroke-width="3" stroke-miterlimit="10" d="M529.182,156.882
	c3.664-0.098,9.165-3.688,10.947-4.527c4.454-2.099,7.133-3.13,8.157-8.271c0.814-4.084,0.997-8.384,1.477-12.526
	c0-2.237-2.238-4.05-5-4.05h-14.037"/>
<path fill="#F8F9F4" d="M535.465,151.949c0,2.761-2.238,5-5,5h-47.994c-2.762,0-5-2.239-5-5v-20.562c0-2.761,2.238-5,5-5h47.994
	c2.762,0,5,2.239,5,5V151.949z"/>
<path fill="none" stroke="#D1D1D1" stroke-miterlimit="10" d="M532.64,150.238c0,2.302-1.866,4.168-4.168,4.168h-44.008
	c-2.302,0-4.168-1.866-4.168-4.168v-17.14c0-2.302,1.866-4.168,4.168-4.168h44.008c2.302,0,4.168,1.866,4.168,4.168V150.238z"/>
</svg>
