<?xml version="1.0" encoding="utf-8"?>
<!-- Generator: Adobe Illustrator 16.0.0, SVG Export Plug-In . SVG Version: 6.00 Build 0)  -->
<!DOCTYPE svg PUBLIC "-//W3C//DTD SVG 1.1//EN" "http://www.w3.org/Graphics/SVG/1.1/DTD/svg11.dtd">
<svg version="1.1" id="레이어_1" xmlns="http://www.w3.org/2000/svg" xmlns:xlink="http://www.w3.org/1999/xlink" x="0px"
	 y="0px" width="600px" height="600px" viewBox="0 0 600 600" enable-background="new 0 0 600 600" xml:space="preserve">
<g id="레이어_3">
</g>
<g id="레이어_1_1_">
	<g id="레이어_2_1_" display="none">
		<rect x="196.5" y="45" display="inline" fill="none" stroke="#000000" stroke-miterlimit="10" width="229" height="229"/>
		
			<rect x="196.5" y="284.241" display="inline" fill="none" stroke="#000000" stroke-miterlimit="10" width="229" height="272.759"/>
		<rect x="440.5" y="45" display="inline" fill="none" stroke="#000000" stroke-miterlimit="10" width="127" height="127"/>
		<rect x="440.5" y="188.833" display="inline" fill="none" stroke="#000000" stroke-miterlimit="10" width="127" height="127"/>
		<rect x="440.5" y="333.5" display="inline" fill="none" stroke="#000000" stroke-miterlimit="10" width="127" height="223.5"/>
	</g>
	<g id="레이어_1_3_">
	</g>
	<g id="레이어_2">
	</g>
</g>
<g>
	<g opacity="0.1">
		<path d="M575.416,169.212c0.69,0,1.25-0.56,1.25-1.25s-0.56-1.25-1.25-1.25h-12.061v-0.664c0-0.245-0.038-0.479-0.072-0.715
			h12.133c0.69,0,1.25-0.56,1.25-1.25s-0.56-1.25-1.25-1.25h-13.261c-0.917-1.083-2.271-1.785-3.8-1.785h-18.541
			c0.09-0.223,0.137-0.465,0.083-0.718c-0.146-0.675-0.81-1.105-1.483-0.961l-7.852,1.679h-3.04v-0.59
			c0-0.057-0.016-0.11-0.018-0.167l10.62-2.271c0.675-0.144,1.105-0.809,0.961-1.484c-0.145-0.675-0.809-1.105-1.484-0.961
			l-10.812,2.312c-0.219-0.361-0.469-0.7-0.769-0.994v-0.251l11.292-2.415c0.675-0.145,1.104-0.809,0.961-1.484
			c-0.145-0.675-0.81-1.105-1.483-0.961l-10.77,2.302v-1.411l10.479-2.241c0.676-0.144,1.105-0.809,0.962-1.483
			c-0.145-0.675-0.809-1.105-1.484-0.961l-9.957,2.129v-1.411l9.67-2.067c0.675-0.145,1.104-0.809,0.961-1.484
			c-0.146-0.675-0.81-1.105-1.483-0.961l-9.146,1.956v-0.692c0-0.241-0.038-0.471-0.071-0.703l8.93-1.909
			c0.676-0.145,1.105-0.809,0.962-1.484c-0.145-0.675-0.809-1.105-1.483-0.961l-9.397,2.009c-0.915-1.18-2.33-1.953-3.938-1.953
			l-66.189-6c-2.762,0-5,2.239-5,5v16.254c-2.022,0.64-3.5,2.511-3.5,4.746v20.285c0,2.762,2.238,5,5,5h71.189
			c0.702,0,1.37-0.148,1.978-0.41h33.855c0.849,0,1.635-0.231,2.334-0.604h14.727c0.69,0,1.25-0.56,1.25-1.25s-0.56-1.25-1.25-1.25
			H562.98c0.177-0.431,0.273-0.897,0.324-1.379h12.112c0.69,0,1.25-0.56,1.25-1.25s-0.56-1.25-1.25-1.25h-12.061v-1.379h12.061
			c0.69,0,1.25-0.56,1.25-1.25s-0.56-1.25-1.25-1.25h-12.061v-1.379h12.061c0.69,0,1.25-0.56,1.25-1.25c0-0.69-0.56-1.25-1.25-1.25
			h-12.061v-1.379H575.416L575.416,169.212z"/>
	</g>
	<g>
		<path fill="#CCCCCC" d="M573.416,167.212c0.69,0,1.25-0.56,1.25-1.25s-0.56-1.25-1.25-1.25h-12.061v-0.664
			c0-0.245-0.038-0.479-0.072-0.715h12.133c0.69,0,1.25-0.56,1.25-1.25s-0.56-1.25-1.25-1.25h-13.261
			c-0.917-1.083-2.271-1.785-3.8-1.785h-18.541c0.09-0.223,0.137-0.465,0.083-0.718c-0.146-0.675-0.81-1.105-1.483-0.961
			l-7.852,1.679h-3.04v-0.59c0-0.057-0.016-0.11-0.018-0.167l10.62-2.271c0.675-0.144,1.105-0.809,0.961-1.484
			c-0.145-0.675-0.809-1.105-1.484-0.961l-10.812,2.312c-0.219-0.361-0.469-0.7-0.769-0.994v-0.251l11.292-2.415
			c0.675-0.145,1.104-0.809,0.961-1.484c-0.145-0.675-0.81-1.105-1.483-0.961l-10.77,2.302v-1.411l10.479-2.241
			c0.676-0.144,1.105-0.809,0.962-1.483c-0.145-0.675-0.809-1.105-1.484-0.961l-9.957,2.129v-1.411l9.67-2.067
			c0.675-0.145,1.104-0.809,0.961-1.484c-0.146-0.675-0.81-1.105-1.483-0.961l-9.146,1.956v-0.692c0-0.241-0.038-0.471-0.071-0.703
			l8.93-1.909c0.676-0.145,1.105-0.809,0.962-1.484c-0.145-0.675-0.809-1.105-1.483-0.961l-9.397,2.009
			c-0.915-1.18-2.33-1.953-3.938-1.953l-66.189-6c-2.762,0-5,2.239-5,5v16.254c-2.022,0.64-3.5,2.511-3.5,4.746v20.285
			c0,2.762,2.238,5,5,5h71.189c0.702,0,1.37-0.148,1.978-0.41h33.855c0.849,0,1.635-0.231,2.334-0.604h14.727
			c0.69,0,1.25-0.56,1.25-1.25s-0.56-1.25-1.25-1.25H560.98c0.177-0.431,0.273-0.897,0.324-1.379h12.112c0.69,0,1.25-0.56,1.25-1.25
			s-0.56-1.25-1.25-1.25h-12.061v-1.379h12.061c0.69,0,1.25-0.56,1.25-1.25s-0.56-1.25-1.25-1.25h-12.061v-1.379h12.061
			c0.69,0,1.25-0.56,1.25-1.25c0-0.69-0.56-1.25-1.25-1.25h-12.061v-1.379H573.416L573.416,167.212z"/>
	</g>
</g>
<path fill="#CCCCCC" d="M524.021,163.743c0,2.762-2.237,5-5,5l-66.188-6c-2.762,0-5-2.238-5-5v-20.285c0-2.761,2.238-5,5-5l66.188,6
	c2.763,0,5,2.239,5,5V163.743z"/>
<path fill="#CCCCCC" d="M533.843,139.362c0.145,0.675-0.286,1.339-0.962,1.484l-17.438,3.728c-0.676,0.145-1.34-0.286-1.483-0.961
	l0,0c-0.145-0.675,0.285-1.339,0.961-1.484l17.438-3.728C533.034,138.256,533.698,138.687,533.843,139.362L533.843,139.362z"/>
<path fill="#CCCCCC" d="M534.653,143.155c0.145,0.675-0.286,1.339-0.961,1.484l-17.439,3.729c-0.675,0.144-1.339-0.286-1.483-0.961
	l0,0c-0.145-0.675,0.286-1.339,0.962-1.484l17.438-3.729C533.845,142.05,534.509,142.48,534.653,143.155L534.653,143.155z"/>
<path fill="#CCCCCC" d="M535.465,146.949c0.145,0.675-0.286,1.339-0.962,1.483l-17.438,3.729c-0.676,0.145-1.339-0.286-1.483-0.961
	l0,0c-0.145-0.675,0.285-1.339,0.961-1.484l17.438-3.728C534.656,145.844,535.32,146.274,535.465,146.949L535.465,146.949z"/>
<path fill="#CCCCCC" d="M536.275,150.743c0.145,0.675-0.286,1.339-0.961,1.484l-17.438,3.729c-0.676,0.144-1.34-0.286-1.484-0.961
	l0,0c-0.145-0.675,0.286-1.339,0.962-1.483l17.438-3.729C535.467,149.637,536.131,150.067,536.275,150.743L536.275,150.743z"/>
<path fill="#CCCCCC" d="M537.087,154.536c0.146,0.675-0.286,1.34-0.961,1.484l-17.439,3.729c-0.675,0.145-1.339-0.286-1.482-0.961
	l0,0c-0.146-0.675,0.286-1.339,0.961-1.484l17.438-3.729C536.278,153.431,536.942,153.861,537.087,154.536L537.087,154.536z"/>
<path fill="#CCCCCC" d="M537.896,158.33c0.146,0.675-0.284,1.339-0.961,1.484l-17.438,3.728c-0.676,0.145-1.34-0.286-1.484-0.961
	l0,0c-0.144-0.675,0.286-1.339,0.962-1.483l17.438-3.729C537.089,157.225,537.753,157.655,537.896,158.33L537.896,158.33z"/>
<rect x="447.833" y="152.189" opacity="0.1" enable-background="new    " width="76.067" height="21.531"/>
<path fill="#CCCCCC" d="M525.521,178.743c0,2.762-2.237,5-5,5h-71.188c-2.762,0-5-2.238-5-5v-20.285c0-2.761,2.238-5,5-5h71.188
	c2.763,0,5,2.239,5,5V178.743z"/>
<g>
	<path opacity="0.1" enable-background="new    " d="M483.574,158.215c-2.619,0-4.742,2.315-4.742,5.171v14.775
		c0,2.856,2.123,5.171,4.742,5.171h41.948v-25.118L483.574,158.215L483.574,158.215z"/>
</g>
<path fill="#CCCCCC" d="M574.666,162.083c0,0.69-0.56,1.25-1.25,1.25h-17.833c-0.69,0-1.25-0.56-1.25-1.25l0,0
	c0-0.69,0.56-1.25,1.25-1.25h17.833C574.106,160.833,574.666,161.392,574.666,162.083L574.666,162.083z"/>
<path fill="#CCCCCC" d="M574.666,165.962c0,0.69-0.56,1.25-1.25,1.25h-17.833c-0.69,0-1.25-0.56-1.25-1.25l0,0
	c0-0.69,0.56-1.25,1.25-1.25h17.833C574.106,164.712,574.666,165.271,574.666,165.962L574.666,165.962z"/>
<path fill="#CCCCCC" d="M574.666,169.841c0,0.69-0.56,1.25-1.25,1.25h-17.833c-0.69,0-1.25-0.56-1.25-1.25l0,0
	c0-0.69,0.56-1.25,1.25-1.25h17.833C574.106,168.591,574.666,169.151,574.666,169.841L574.666,169.841z"/>
<path fill="#CCCCCC" d="M574.666,173.721c0,0.69-0.56,1.25-1.25,1.25h-17.833c-0.69,0-1.25-0.56-1.25-1.25l0,0
	c0-0.69,0.56-1.25,1.25-1.25h17.833C574.106,172.471,574.666,173.03,574.666,173.721L574.666,173.721z"/>
<path fill="#CCCCCC" d="M574.666,177.6c0,0.69-0.56,1.25-1.25,1.25h-17.833c-0.69,0-1.25-0.56-1.25-1.25l0,0
	c0-0.69,0.56-1.25,1.25-1.25h17.833C574.106,176.35,574.666,176.91,574.666,177.6L574.666,177.6z"/>
<path fill="#CCCCCC" d="M574.666,181.479c0,0.69-0.56,1.25-1.25,1.25h-17.833c-0.69,0-1.25-0.56-1.25-1.25l0,0
	c0-0.69,0.56-1.25,1.25-1.25h17.833C574.106,180.229,574.666,180.789,574.666,181.479L574.666,181.479z"/>
<path fill="#CCCCCC" d="M561.355,178.333c0,2.762-2.238,5-5,5h-71.189c-2.762,0-5-2.238-5-5v-14.285c0-2.761,2.238-5,5-5h71.189
	c2.762,0,5,2.239,5,5V178.333z"/>
</svg>
