<?xml version="1.0" encoding="utf-8"?>
<!-- Generator: Adobe Illustrator 16.0.0, SVG Export Plug-In . SVG Version: 6.00 Build 0)  -->
<!DOCTYPE svg PUBLIC "-//W3C//DTD SVG 1.1//EN" "http://www.w3.org/Graphics/SVG/1.1/DTD/svg11.dtd">
<svg version="1.1" id="레이어_1" xmlns="http://www.w3.org/2000/svg" xmlns:xlink="http://www.w3.org/1999/xlink" x="0px"
	 y="0px" width="600px" height="600px" viewBox="0 0 600 600" enable-background="new 0 0 600 600" xml:space="preserve">
<g id="레이어_3">
</g>
<g id="레이어_1_1_">
	<g id="레이어_2_1_" display="none">
		<rect x="196.5" y="45" display="inline" fill="none" stroke="#000000" stroke-miterlimit="10" width="229" height="229"/>
		
			<rect x="196.5" y="284.241" display="inline" fill="none" stroke="#000000" stroke-miterlimit="10" width="229" height="272.759"/>
		<rect x="440.5" y="45" display="inline" fill="none" stroke="#000000" stroke-miterlimit="10" width="127" height="127"/>
		<rect x="440.5" y="188.833" display="inline" fill="none" stroke="#000000" stroke-miterlimit="10" width="127" height="127"/>
		<rect x="440.5" y="333.5" display="inline" fill="none" stroke="#000000" stroke-miterlimit="10" width="127" height="223.5"/>
	</g>
	<g id="레이어_1_3_">
	</g>
	<g id="레이어_2">
	</g>
</g>
<g opacity="0.1">
	<path d="M421.652,184c0.348-20.5-11.92-36.762-29.536-50.631s-42.541-18.314-42.541-18.314c-29.075-0.041-18.942-0.092-38.416,0
		c-19.474-0.092,0,0-34.083,0c0,0-25.505,6.184-42.541,18.314C217.499,145.499,203.5,166.5,205,184s45.214,45.973,45.214,45.973
		c-0.413,34.051-1.813,70.519-5.274,75.08c0,0,37.228,15.212,67.714,14.277v0.023c0.224-0.012,0.447-0.019,0.672-0.026
		c0.224,0.01,0.447,0.017,0.672,0.026v-0.023c30.486,0.935,67.714-14.277,67.714-14.277c-3.448-4.545-4.851-40.77-5.271-74.716
		C376.441,230.336,421.305,204.5,421.652,184z M260.166,169.429c0.16,2.453,0.307,8.218,0.403,16.042l-5.912-5.912L260.166,169.429z
		 M368.79,182.539c0.097-6.402,0.245-11.12,0.407-13.11l5.639,8.282L368.79,182.539z"/>
</g>
<g>
	<g>
		<path fill="#353535" d="M418.652,181c0.348-20.5-11.92-36.762-29.536-50.631s-42.541-18.314-42.541-18.314
			c-5.396-0.007-9.442-10.016-12.577-10.023c-13.756-0.032-9.979-3.052-25.839-2.977c-17.048-0.081-4.247,2.98-23.658,2.996
			c-2.763,0.002-6.178,10.004-10.425,10.004c0,0-25.505,6.184-42.541,18.314C214.499,142.499,200.5,163.5,202,181
			s45.214,45.973,45.214,45.973c-0.413,34.051-1.813,70.519-5.274,75.08c0,0,37.228,15.212,67.714,14.277v0.023
			c0.224-0.012,0.447-0.019,0.672-0.026c0.224,0.01,0.447,0.017,0.672,0.026v-0.023c30.486,0.935,67.714-14.277,67.714-14.277
			c-3.448-4.545-4.851-40.77-5.271-74.716C373.441,227.336,418.305,201.5,418.652,181z M257.166,166.429
			c0.16,2.453,0.307,8.218,0.403,16.042l-5.912-5.912L257.166,166.429z M365.79,179.539c0.097-6.402,0.245-11.12,0.407-13.11
			l5.639,8.282L365.79,179.539z"/>
	</g>
</g>
<g>
	<g opacity="0.1">
		<path d="M252.935,252.939v33.591c0,1.545,1.252,2.797,2.797,2.797h32.099c1.544,0,2.796-1.252,2.796-2.797v-33.591H252.935z"/>
	</g>
	<g>
		<g>
			<path fill="#353535" d="M250.935,250.939v33.591c0,1.545,1.252,2.797,2.797,2.797h32.099c1.544,0,2.796-1.252,2.796-2.797
				v-33.591H250.935z"/>
		</g>
	</g>
</g>
<g>
	<g opacity="0.1">
		<path d="M332.254,252.939v33.591c0,1.545,1.252,2.797,2.797,2.797h32.1c1.543,0,2.796-1.252,2.796-2.797v-33.591H332.254z"/>
	</g>
	<g>
		<g>
			<path fill="#353535" d="M330.254,250.939v33.591c0,1.545,1.252,2.797,2.797,2.797h32.1c1.543,0,2.796-1.252,2.796-2.797v-33.591
				H330.254z"/>
		</g>
	</g>
</g>
<g>
	<polygon opacity="0.1" enable-background="new    " points="309.915,232.834 257.077,179.996 247.669,229.919 280.25,262.5 	"/>
</g>
<g>
	<polygon opacity="0.1" enable-background="new    " points="311.419,232.834 364.257,179.996 373.665,229.919 341.084,262.5 	"/>
</g>
<g>
	<g opacity="0.1">
		<path d="M326.559,155.729v26.591c0,1.545,1.252,2.797,2.797,2.797h22.101c1.544,0,2.796-1.252,2.796-2.797v-26.591H326.559z"/>
	</g>
	<g>
		<g>
			<path fill="#353535" d="M324.559,153.729v26.591c0,1.545,1.252,2.797,2.797,2.797h22.101c1.544,0,2.796-1.252,2.796-2.797
				v-26.591H324.559z"/>
		</g>
	</g>
</g>
<g>
	<path fill="#848484" d="M325.643,155.924v6.591c0,1.545,13.848,6.797,13.848,6.797s13.846-5.252,13.846-6.797v-6.591H325.643z"/>
</g>
<g>
	<path fill="#353535" d="M325.199,154.406v6.591c0,1.545,13.847,6.797,13.847,6.797s13.847-5.252,13.847-6.797v-6.591H325.199z"/>
</g>
<g>
	<path fill="#353535" d="M245.462,279.123c-0.297,4.368-0.636,8.292-1.023,11.626c13.808,2.723,45.102,8.405,65.806,8.405
		c19.173,0,49.638-4.873,65.983-7.756c-0.399-3.309-0.748-7.25-1.054-11.642c-16.573,2.901-46.161,7.571-64.93,7.571
		C290.038,287.327,259.742,281.915,245.462,279.123z"/>
</g>
<g>
	<g opacity="0.1">
		<polygon points="313.486,150.282 335.749,99.115 354.495,102.772 364.853,142.533 343.454,151.333 349.078,167.027 
			329.631,183.544 		"/>
	</g>
	<g>
		<path fill="#E0E0E0" d="M311.216,148.151l22.264-51.167c0,0,12.937-1.632,18.744,3.657c5.807,5.289,13.755,28.789,10.358,39.761
			c-3.396,10.972-21.399,8.8-21.399,8.8s8.292,4.417,5.624,15.694c-2.668,11.277-19.446,16.517-19.446,16.517L311.216,148.151z"/>
	</g>
</g>
<g>
	<g opacity="0.1">
		<polygon points="309.973,143.476 291.136,99.053 272.694,102.65 262.501,141.771 283.557,150.43 278.022,165.872 344.892,222.663 
			352.729,225.994 		"/>
	</g>
	<g>
		<path fill="#E0E0E0" d="M307.702,141.344l-18.837-44.422c0,0-9.554-3.097-18.441,3.597s-16.325,25.499-10.193,39.121
			c6.131,13.622,21.056,8.66,21.056,8.66s-11.473,2.477-5.535,15.442c5.938,12.965,66.869,56.791,66.869,56.791l7.84,3.332
			L307.702,141.344z"/>
	</g>
</g>
<rect x="240.755" y="166.573" transform="matrix(0.7071 -0.7071 0.7071 0.7071 -74.2345 246.1897)" fill="#353535" width="38.611" height="92.261"/>
<rect x="341.549" y="166.571" transform="matrix(-0.7071 -0.7071 0.7071 -0.7071 465.6173 618.2654)" fill="#353535" width="38.61" height="92.261"/>
<polygon fill="#E0E0E0" points="268.627,246.881 296.784,219.563 305.357,227.881 277.201,255.199 "/>
<polygon fill="#E0E0E0" points="343.997,255.202 316.871,228.508 325.13,220.381 352.256,247.075 "/>
</svg>
