<?xml version="1.0" encoding="utf-8"?>
<!-- Generator: Adobe Illustrator 16.0.0, SVG Export Plug-In . SVG Version: 6.00 Build 0)  -->
<!DOCTYPE svg PUBLIC "-//W3C//DTD SVG 1.1//EN" "http://www.w3.org/Graphics/SVG/1.1/DTD/svg11.dtd">
<svg version="1.1" id="레이어_1" xmlns="http://www.w3.org/2000/svg" xmlns:xlink="http://www.w3.org/1999/xlink" x="0px"
	 y="0px" width="600px" height="600px" viewBox="0 0 600 600" enable-background="new 0 0 600 600" xml:space="preserve">
<path fill="#D0DEEA" d="M357.605,112.63c0,0,29.316-32.088-47.606-32.088h-0.012c-76.923,0-47.607,32.088-47.607,32.088"/>
<path fill="#B6C6D1" d="M352.768,97.643c-7.869-3.594-21.054-6.085-42.486-6.084h-0.012c-24.914,0-38.684,3.366-45.914,7.917
	l45.919,41.359L352.768,97.643z"/>
<g id="레이어_3">
</g>
<g id="레이어_1_1_">
	<g id="레이어_2_1_" display="none">
		<rect x="196.5" y="45" display="inline" fill="none" stroke="#000000" stroke-miterlimit="10" width="229" height="229"/>
		
			<rect x="196.5" y="284.241" display="inline" fill="none" stroke="#000000" stroke-miterlimit="10" width="229" height="272.759"/>
		<rect x="440.5" y="45" display="inline" fill="none" stroke="#000000" stroke-miterlimit="10" width="127" height="127"/>
		<rect x="440.5" y="188.833" display="inline" fill="none" stroke="#000000" stroke-miterlimit="10" width="127" height="127"/>
		<rect x="440.5" y="333.5" display="inline" fill="none" stroke="#000000" stroke-miterlimit="10" width="127" height="223.5"/>
	</g>
	<g id="레이어_1_3_">
	</g>
	<g id="레이어_2">
	</g>
</g>
<g>
	<g opacity="0.1">
		<path d="M421.652,184c0.348-20.5-11.92-36.762-29.536-50.631s-42.541-18.314-42.541-18.314c-29.075-0.041-18.942-0.092-38.416,0
			c-19.474-0.092,0,0-34.083,0c0,0-25.505,6.184-42.541,18.314C217.499,145.499,203.5,166.5,205,184s45.214,45.973,45.214,45.973
			c-0.413,34.051-1.813,70.519-5.274,75.08c0,0,37.228,15.212,67.714,14.277v0.023c0.224-0.013,0.447-0.02,0.672-0.026
			c0.224,0.01,0.447,0.017,0.672,0.026v-0.023c30.486,0.935,67.714-14.277,67.714-14.277c-3.448-4.545-4.851-40.77-5.271-74.716
			C376.441,230.336,421.305,204.5,421.652,184z M260.166,169.429c0.16,2.453,0.307,8.218,0.403,16.042l-5.912-5.912L260.166,169.429
			z M368.79,182.539c0.097-6.402,0.245-11.12,0.407-13.11l5.639,8.282L368.79,182.539z"/>
	</g>
	<g>
		<g>
			<path fill="#D0DEEA" d="M418.652,181c0.348-20.5-11.92-36.762-29.536-50.631s-42.541-18.314-42.541-18.314
				c-29.075-0.041-18.942-0.092-38.416,0c-19.474-0.092,0,0-34.083,0c0,0-25.505,6.184-42.541,18.314
				C214.499,142.499,200.5,163.5,202,181s45.214,45.973,45.214,45.973c-0.413,34.051-1.813,70.519-5.274,75.08
				c0,0,37.228,15.212,67.714,14.277v0.023c0.224-0.013,0.447-0.02,0.672-0.026c0.224,0.01,0.447,0.017,0.672,0.026v-0.023
				c30.486,0.935,67.714-14.277,67.714-14.277c-3.448-4.545-4.851-40.77-5.271-74.716C373.441,227.336,418.305,201.5,418.652,181z
				 M257.166,166.429c0.16,2.453,0.307,8.218,0.403,16.042l-5.912-5.912L257.166,166.429z M365.79,179.539
				c0.097-6.402,0.245-11.12,0.407-13.11l5.639,8.282L365.79,179.539z"/>
		</g>
	</g>
</g>
<g>
	<g opacity="0.1">
		<path d="M253.467,253.471v42.532c0,1.957,1.585,3.542,3.542,3.542h40.643c1.955,0,3.54-1.585,3.54-3.542v-42.532H253.467z"/>
	</g>
	<g>
		<g>
			<path fill="#D0DEEA" d="M250.935,250.939v42.532c0,1.956,1.585,3.542,3.542,3.542h40.643c1.955,0,3.54-1.585,3.54-3.542v-42.532
				H250.935L250.935,250.939z"/>
		</g>
	</g>
</g>
<rect x="250.935" y="250.939" fill="#C4C4C4" width="47.723" height="11.226"/>
<g>
	<g opacity="0.1">
		<path d="M323.271,253.416v41.597c0,1.913,1.551,3.463,3.463,3.463h39.75c1.91,0,3.462-1.55,3.462-3.463v-41.597H323.271z"/>
	</g>
	<g>
		<g>
			<path fill="#D0DEEA" d="M320.795,250.939v41.597c0,1.913,1.55,3.463,3.463,3.463h39.75c1.91,0,3.463-1.551,3.463-3.463v-41.597
				H320.795L320.795,250.939z"/>
		</g>
	</g>
</g>
<rect x="320.795" y="250.939" fill="#C4C4C4" width="46.674" height="10.979"/>
<g>
	<polygon opacity="0.1" enable-background="new    " points="302.915,224.834 257.077,179.996 247.669,229.919 273.25,254.5 	"/>
</g>
<g>
	<polygon opacity="0.1" enable-background="new    " points="318.419,223.834 364.257,179.996 373.665,229.919 348.084,253.5 	"/>
</g>
<rect x="307.914" y="112.045" fill="#C4C4C4" width="4.669" height="204.316"/>
<g>
	<g opacity="0.1">
		<path d="M277.178,92.267c8.6,3.299,33.043,19.534,31.198,27.286c-1.842,7.754-29.273,4.09-37.871,0.791
			c-8.601-3.299-14.078-12.258-12.235-20.011C260.112,92.579,268.578,88.967,277.178,92.267z"/>
	</g>
	<g>
		<path fill="#D0DEEA" d="M275.325,89.913c8.6,3.299,33.042,19.534,31.199,27.286c-1.843,7.754-29.273,4.09-37.871,0.791
			c-8.601-3.299-14.078-12.258-12.236-20.011C258.259,90.225,266.725,86.613,275.325,89.913z"/>
	</g>
</g>
<g>
	<g opacity="0.1">
		<path d="M360.48,100.333c1.842,7.753-3.635,16.712-12.236,20.011c-8.598,3.299-36.029,6.963-37.871-0.791
			c-1.844-7.752,22.599-23.987,31.199-27.286C350.172,88.967,358.637,92.579,360.48,100.333z"/>
	</g>
	<g>
		<path fill="#D0DEEA" d="M362.334,97.979c1.842,7.753-3.635,16.712-12.236,20.011c-8.598,3.299-36.029,6.963-37.871-0.791
			c-1.844-7.752,22.599-23.987,31.198-27.286S360.49,90.225,362.334,97.979z"/>
	</g>
</g>
<g>
	<g opacity="0.14">
		<polygon points="309.163,237.956 287.383,260.774 273.531,245.578 295.311,222.76 		"/>
	</g>
	<g>
		<g>
			<g>
				<polygon fill="#9E9E9E" points="307.163,235.956 285.383,258.774 271.531,243.578 293.311,220.76 				"/>
			</g>
		</g>
	</g>
</g>
<polygon fill="#C4C4C4" points="288.869,254.861 285.383,258.774 271.531,243.578 275.017,239.666 "/>
<polygon fill="#C4C4C4" points="295.146,248.584 291.66,252.497 277.808,237.301 281.294,233.388 "/>
<polygon fill="#C4C4C4" points="300.926,242.804 297.439,246.717 283.587,231.521 287.073,227.608 "/>
<polygon fill="#C4C4C4" points="307.469,236.261 303.982,240.174 290.131,224.978 293.616,221.065 "/>
<g>
	<g opacity="0.14">
		<polygon points="330.991,222.76 352.771,245.578 338.918,260.774 317.139,237.956 		"/>
	</g>
	<g>
		<g>
			<g>
				<polygon fill="#9E9E9E" points="328.991,220.76 350.771,243.578 336.918,258.774 315.139,235.956 				"/>
			</g>
		</g>
	</g>
</g>
<polygon fill="#C4C4C4" points="347.285,239.666 350.771,243.578 336.918,258.774 333.434,254.861 "/>
<polygon fill="#C4C4C4" points="341.008,233.388 344.493,237.301 330.643,252.497 327.155,248.584 "/>
<polygon fill="#C4C4C4" points="335.229,227.608 338.715,231.521 324.861,246.717 321.376,242.804 "/>
<polygon fill="#C4C4C4" points="328.686,221.065 332.171,224.978 318.318,240.174 314.833,236.261 "/>
<polygon fill="#D0DEEA" points="298.33,222.672 271.028,249.974 213.79,193.735 241.092,166.434 "/>
<polygon fill="#D0DEEA" points="379.822,166.432 407.124,193.733 349.886,249.971 322.584,222.67 "/>
</svg>
