<?xml version="1.0" encoding="utf-8"?>
<!-- Generator: Adobe Illustrator 16.0.0, SVG Export Plug-In . SVG Version: 6.00 Build 0)  -->
<!DOCTYPE svg PUBLIC "-//W3C//DTD SVG 1.1//EN" "http://www.w3.org/Graphics/SVG/1.1/DTD/svg11.dtd">
<svg version="1.1" id="레이어_1" xmlns="http://www.w3.org/2000/svg" xmlns:xlink="http://www.w3.org/1999/xlink" x="0px"
	 y="0px" width="600px" height="600px" viewBox="0 0 600 600" enable-background="new 0 0 600 600" xml:space="preserve">
<g id="레이어_3">
</g>
<g id="레이어_1_1_">
	<g id="레이어_2_1_" display="none">
		<rect x="196.5" y="45" display="inline" fill="none" stroke="#000000" stroke-miterlimit="10" width="229" height="229"/>
		
			<rect x="196.5" y="284.241" display="inline" fill="none" stroke="#000000" stroke-miterlimit="10" width="229" height="272.759"/>
		<rect x="440.5" y="45" display="inline" fill="none" stroke="#000000" stroke-miterlimit="10" width="127" height="127"/>
		<rect x="440.5" y="188.833" display="inline" fill="none" stroke="#000000" stroke-miterlimit="10" width="127" height="127"/>
		<rect x="440.5" y="333.5" display="inline" fill="none" stroke="#000000" stroke-miterlimit="10" width="127" height="223.5"/>
	</g>
	<g id="레이어_1_3_">
	</g>
	<g id="레이어_2">
	</g>
</g>
<g>
	<g opacity="0.1">
		<path d="M421.652,184c0.348-20.5-11.92-36.762-29.536-50.631s-42.541-18.314-42.541-18.314c-29.075-0.041-18.942-0.092-38.416,0
			c-19.474-0.092,0,0-34.083,0c0,0-25.505,6.184-42.541,18.314S203.5,166.5,205,184s45.214,45.973,45.214,45.973
			c-0.413,34.051-1.813,70.519-5.274,75.08c0,0,37.228,15.212,67.714,14.277v0.024c0.224-0.011,0.448-0.018,0.672-0.027
			c0.224,0.01,0.448,0.017,0.672,0.027v-0.024c30.486,0.935,67.714-14.277,67.714-14.277c-3.448-4.545-4.851-40.77-5.27-74.716
			C376.442,230.336,421.305,204.5,421.652,184z M260.166,169.429c0.16,2.453,0.307,8.218,0.403,16.042l-5.912-5.912L260.166,169.429
			z M368.79,182.539c0.096-6.402,0.245-11.12,0.407-13.11l5.639,8.282L368.79,182.539z"/>
	</g>
	<g>
		<g>
			<path fill="#F8F9F4" d="M418.652,181c0.348-20.5-11.92-36.762-29.536-50.631s-42.541-18.314-42.541-18.314
				c-29.075-0.041-18.942-0.092-38.416,0c-19.474-0.092,0,0-34.083,0c0,0-25.505,6.184-42.541,18.314S200.5,163.5,202,181
				s45.214,45.973,45.214,45.973c-0.413,34.051-1.813,70.519-5.274,75.08c0,0,37.228,15.212,67.714,14.277v0.024
				c0.224-0.011,0.448-0.018,0.672-0.027c0.224,0.01,0.448,0.017,0.672,0.027v-0.024c30.486,0.935,67.714-14.277,67.714-14.277
				c-3.448-4.545-4.851-40.77-5.27-74.716C373.442,227.336,418.305,201.5,418.652,181z M257.166,166.429
				c0.16,2.453,0.307,8.218,0.403,16.042l-5.912-5.912L257.166,166.429z M365.79,179.539c0.096-6.402,0.245-11.12,0.407-13.11
				l5.639,8.282L365.79,179.539z"/>
		</g>
	</g>
</g>
<g>
	<g opacity="0.1">
		<path d="M252.935,252.939v33.591c0,1.545,1.252,2.797,2.797,2.797h32.099c1.544,0,2.796-1.252,2.796-2.797v-33.591H252.935z"/>
	</g>
	<g>
		<g>
			<path fill="#F8F9F4" d="M250.935,250.939v33.591c0,1.545,1.252,2.797,2.797,2.797h32.099c1.544,0,2.796-1.252,2.796-2.797
				v-33.591H250.935z"/>
		</g>
	</g>
</g>
<rect x="250.935" y="250.939" fill="#C4C4C4" width="37.691" height="8.866"/>
<g>
	<g opacity="0.1">
		<path d="M332.254,252.939v33.591c0,1.545,1.252,2.797,2.797,2.797h32.099c1.544,0,2.796-1.252,2.796-2.797v-33.591H332.254z"/>
	</g>
	<g>
		<g>
			<path fill="#F8F9F4" d="M330.254,250.939v33.591c0,1.545,1.252,2.797,2.797,2.797h32.099c1.544,0,2.796-1.252,2.796-2.797
				v-33.591H330.254z"/>
		</g>
	</g>
</g>
<rect x="330.254" y="250.939" fill="#C4C4C4" width="37.691" height="8.866"/>
<g>
	<polygon opacity="0.1" points="309.915,232.834 257.077,179.996 247.669,229.919 280.25,262.5 	"/>
</g>
<g>
	<polygon opacity="0.1" points="311.419,232.834 364.257,179.996 373.665,229.919 341.084,262.5 	"/>
</g>
<rect x="240.754" y="166.569" transform="matrix(0.7071 -0.7071 0.7071 0.7071 -74.2317 246.1948)" fill="#F8F9F4" width="38.611" height="92.263"/>
<rect x="267.437" y="236.322" transform="matrix(0.7071 -0.7071 0.7071 0.7071 -87.5804 270.5753)" fill="#C4C4C4" width="30.772" height="9.37"/>
<rect x="277.028" y="234.919" transform="matrix(0.7071 -0.7071 0.7071 0.7071 -84.2213 272.4142)" fill="#474747" width="19.405" height="5.909"/>
<rect x="341.548" y="166.569" transform="matrix(-0.7071 -0.7071 0.7071 -0.7071 465.607 618.267)" fill="#F8F9F4" width="38.611" height="92.263"/>
<rect x="307.914" y="109.123" fill="#C4C4C4" width="4.669" height="207.238"/>
<ellipse fill="#E2E2E2" cx="309.915" cy="96.062" rx="54.188" ry="13.062"/>
<ellipse fill="#C4C4C4" cx="309.915" cy="102.759" rx="54.188" ry="13.062"/>
<g>
	<g opacity="0.1">
		<path d="M278.136,91.729c9.282,2.803,35.663,16.596,33.672,23.183c-1.988,6.588-31.594,3.475-40.875,0.672
			c-9.283-2.803-15.195-10.415-13.206-17.002C259.717,91.994,268.854,88.926,278.136,91.729z"/>
	</g>
	<g>
		<path fill="#F8F9F4" d="M276.136,89.729c9.282,2.803,35.663,16.596,33.672,23.183c-1.988,6.588-31.594,3.475-40.875,0.672
			c-9.283-2.803-15.195-10.415-13.206-17.002C257.717,89.994,266.854,86.926,276.136,89.729z"/>
	</g>
</g>
<g>
	<g opacity="0.1">
		<path d="M345.693,91.729c-9.281,2.803-35.662,16.596-33.672,23.183c1.988,6.588,31.594,3.475,40.875,0.672
			c9.283-2.803,15.195-10.415,13.206-17.002C364.113,91.994,354.977,88.926,345.693,91.729z"/>
	</g>
	<g>
		<path fill="#F8F9F4" d="M343.693,89.729c-9.281,2.803-35.662,16.596-33.672,23.183c1.988,6.588,31.594,3.475,40.875,0.672
			c9.283-2.803,15.195-10.415,13.206-17.002C362.113,89.994,352.977,86.926,343.693,89.729z"/>
	</g>
</g>
<g>
	<g opacity="0.1">
		<path d="M326.559,155.729v26.591c0,1.545,1.252,2.797,2.797,2.797h22.099c1.544,0,2.796-1.252,2.796-2.797v-26.591H326.559z"/>
	</g>
	<g>
		<g>
			<path fill="#F8F9F4" d="M324.559,153.729v26.591c0,1.545,1.252,2.797,2.797,2.797h22.099c1.544,0,2.796-1.252,2.796-2.797
				v-26.591H324.559z"/>
		</g>
	</g>
</g>
<g>
	<path fill="#C4C4C4" d="M325.642,155.924v6.591c0,1.545,13.847,6.797,13.847,6.797s13.846-5.252,13.846-6.797v-6.591H325.642z"/>
</g>
<rect x="322.671" y="236.322" transform="matrix(-0.7071 -0.7071 0.7071 -0.7071 406.6877 650.4661)" fill="#C4C4C4" width="30.773" height="9.369"/>
<rect x="324.447" y="234.92" transform="matrix(-0.7071 -0.7071 0.7071 -0.7071 402.2346 642.3544)" fill="#474747" width="19.405" height="5.908"/>
<g>
	<path fill="#F8F9F4" d="M325.199,154.406v6.591c0,1.545,13.847,6.797,13.847,6.797s13.846-5.252,13.846-6.797v-6.591H325.199z"/>
</g>
<circle fill="#474747" cx="339.404" cy="163.618" r="1.382"/>
<g>
	<g opacity="0.1">
		<path d="M270.241,155.729v26.591c0,1.545,1.252,2.797,2.797,2.797h22.099c1.544,0,2.796-1.252,2.796-2.797v-26.591H270.241z"/>
	</g>
	<g>
		<g>
			<path fill="#F8F9F4" d="M268.241,153.729v26.591c0,1.545,1.252,2.797,2.797,2.797h22.099c1.544,0,2.796-1.252,2.796-2.797
				v-26.591H268.241z"/>
		</g>
	</g>
</g>
<g>
	<path fill="#C4C4C4" d="M269.324,155.924v6.591c0,1.545,13.847,6.797,13.847,6.797s13.846-5.252,13.846-6.797v-6.591H269.324z"/>
</g>
<g>
	<path fill="#F8F9F4" d="M268.882,154.406v6.591c0,1.545,13.847,6.797,13.847,6.797s13.846-5.252,13.846-6.797v-6.591H268.882z"/>
</g>
<circle fill="#474747" cx="283.087" cy="163.618" r="1.382"/>
</svg>
