<?xml version="1.0" encoding="utf-8"?>
<!-- Generator: Adobe Illustrator 16.0.0, SVG Export Plug-In . SVG Version: 6.00 Build 0)  -->
<!DOCTYPE svg PUBLIC "-//W3C//DTD SVG 1.1//EN" "http://www.w3.org/Graphics/SVG/1.1/DTD/svg11.dtd">
<svg version="1.1" id="레이어_1" xmlns="http://www.w3.org/2000/svg" xmlns:xlink="http://www.w3.org/1999/xlink" x="0px"
	 y="0px" width="30px" height="30px" viewBox="0 0 30 30" enable-background="new 0 0 30 30" xml:space="preserve">
<path fill="#DDDDDD" d="M22.575,11.034c0.146-0.384,0.23-0.799,0.23-1.234c0-1.912-1.549-3.461-3.46-3.461
	c-0.618,0-1.197,0.164-1.699,0.447c-0.81-1.918-2.708-3.264-4.921-3.264c-2.95,0-5.341,2.391-5.341,5.34
	c0,0.738,0.15,1.441,0.421,2.081h-0.5c-2.083,0-3.771,1.688-3.771,3.771c0,2.083,1.688,3.771,3.771,3.771h14.457
	c2.083,0,3.771-1.689,3.771-3.771C25.533,12.912,24.266,11.406,22.575,11.034z"/>
<line fill="none" stroke="#B2CED8" stroke-width="2" stroke-linecap="round" stroke-linejoin="round" stroke-miterlimit="10" x1="11.123" y1="20.096" x2="4.814" y2="26.405"/>
<line fill="none" stroke="#B2CED8" stroke-width="2" stroke-linecap="round" stroke-linejoin="round" stroke-miterlimit="10" x1="17.095" y1="20.096" x2="10.786" y2="26.405"/>
<line fill="none" stroke="#B2CED8" stroke-width="2" stroke-linecap="round" stroke-linejoin="round" stroke-miterlimit="10" x1="23.066" y1="20.096" x2="16.756" y2="26.405"/>
<rect fill="none" width="30" height="30"/>
</svg>
