<?xml version="1.0" encoding="utf-8"?>
<!-- Generator: Adobe Illustrator 16.0.0, SVG Export Plug-In . SVG Version: 6.00 Build 0)  -->
<!DOCTYPE svg PUBLIC "-//W3C//DTD SVG 1.1//EN" "http://www.w3.org/Graphics/SVG/1.1/DTD/svg11.dtd">
<svg version="1.1" id="레이어_1" xmlns="http://www.w3.org/2000/svg" xmlns:xlink="http://www.w3.org/1999/xlink" x="0px"
	 y="0px" width="600px" height="600px" viewBox="0 0 600 600" enable-background="new 0 0 600 600" xml:space="preserve">
<g id="레이어_2_1_" display="none">
	<rect x="196.5" y="45" display="inline" fill="none" stroke="#000000" stroke-miterlimit="10" width="229" height="229"/>
	<rect x="196.5" y="284.241" display="inline" fill="none" stroke="#000000" stroke-miterlimit="10" width="229" height="272.759"/>
	<rect x="440.5" y="45" display="inline" fill="none" stroke="#000000" stroke-miterlimit="10" width="127" height="127"/>
	<rect x="440.5" y="188.833" display="inline" fill="none" stroke="#000000" stroke-miterlimit="10" width="127" height="127"/>
	<rect x="440.5" y="333.5" display="inline" fill="none" stroke="#000000" stroke-miterlimit="10" width="127" height="223.5"/>
</g>
<path opacity="0.1" d="M480.239,205.596c0,0-19.396-1.29-15.238,34.54c0,0-2.772,16.78-3.812,19.897
	c-1.038,3.117-7.003,41.043,23.203,41.043c14.389,0,17.505-19.911,13.773-28.384c-2.833-6.437-3.603-14.164-4.767-21.145
	c-1.893-11.351,2.322-21.32-0.014-32.517C491.959,212.183,487.9,205.895,480.239,205.596z"/>
<path fill="#444444" d="M479.239,204.596c0,0-19.396-1.29-15.238,34.54c0,0-2.772,16.78-3.812,19.897
	c-1.038,3.117-7.003,41.042,23.203,41.042c14.389,0,17.505-19.911,13.773-28.384c-2.833-6.437-3.603-14.164-4.767-21.145
	c-1.893-11.351,2.322-21.32-0.014-32.517C490.959,211.183,486.9,204.895,479.239,204.596z"/>
<path opacity="0.1" d="M478.471,261.257c2.5,1.853,5.247,3.647,8.226,5.298c3.42-3.303,6.006-6.343,7.722-8.538
	c-0.347-2.187-0.666-4.363-1.018-6.471c-0.227-1.354-0.359-2.687-0.434-4.005C489.873,251.258,484.996,256.424,478.471,261.257z"/>
<path opacity="0.1" d="M498.166,272.692c-0.182-0.412-0.333-0.843-0.498-1.265c-3.95-1.335-7.61-3.006-10.973-4.872
	c-2.979-1.651-5.726-3.446-8.226-5.298c-6.667-4.938-11.617-10.226-14.698-13.958c-0.597,3.371-1.305,7.224-1.881,9.9
	c1.682,2.216,4.483,5.619,8.354,9.356c2.354,2.273,5.1,4.662,8.226,6.976c5.732,4.246,12.741,8.218,20.93,10.724
	C499.924,279.897,499.452,275.615,498.166,272.692z"/>
<path opacity="0.1" d="M470.245,266.555c-3.146,1.746-6.555,3.317-10.217,4.607c-0.007,3.65,0.33,7.787,1.349,11.799
	c6.562-2.477,12.274-5.861,17.094-9.43C475.345,271.217,472.6,268.828,470.245,266.555z"/>
<path fill="#161616" d="M477.471,260.257c2.5,1.853,5.247,3.647,8.226,5.298c3.42-3.303,6.006-6.343,7.722-8.538
	c-0.347-2.187-0.666-4.363-1.018-6.471c-0.227-1.354-0.359-2.687-0.434-4.005C488.873,250.258,483.996,255.424,477.471,260.257z"/>
<path fill="#161616" d="M497.166,271.692c-0.182-0.412-0.333-0.843-0.498-1.265c-3.95-1.335-7.61-3.006-10.973-4.872
	c-2.979-1.651-5.726-3.446-8.226-5.298c-6.667-4.938-11.617-10.226-14.698-13.958c-0.597,3.371-1.305,7.224-1.881,9.9
	c1.682,2.216,4.483,5.619,8.354,9.356c2.354,2.273,5.1,4.662,8.226,6.976c5.732,4.246,12.741,8.218,20.93,10.724
	C498.924,278.897,498.452,274.615,497.166,271.692z"/>
<path fill="#161616" d="M469.245,265.555c-3.146,1.746-6.555,3.317-10.217,4.607c-0.007,3.65,0.33,7.787,1.349,11.799
	c6.562-2.477,12.274-5.861,17.094-9.43C474.345,270.217,471.6,267.828,469.245,265.555z"/>
<g>
	<ellipse opacity="0.1" cx="478.506" cy="263.182" rx="1.468" ry="5.171"/>
	<ellipse opacity="0.1" cx="478.405" cy="263.082" rx="1.469" ry="5.171"/>
	<g opacity="0.1">
		<ellipse opacity="0.1" cx="478.405" cy="263.082" rx="1.469" ry="5.171"/>
	</g>
	<g>
		<ellipse fill="#004700" cx="478.306" cy="262.982" rx="1.468" ry="5.171"/>
	</g>
	
		<ellipse transform="matrix(-0.342 -0.9397 0.9397 -0.342 392.8674 801.9958)" opacity="0.1" cx="477.217" cy="263.453" rx="5.171" ry="1.47"/>
	
		<ellipse transform="matrix(-0.342 -0.9397 0.9397 -0.342 392.8278 801.7679)" opacity="0.1" cx="477.117" cy="263.353" rx="5.171" ry="1.469"/>
	<g opacity="0.1">
		
			<ellipse transform="matrix(-0.342 -0.9397 0.9397 -0.342 392.8278 801.7679)" opacity="0.1" cx="477.117" cy="263.353" rx="5.171" ry="1.469"/>
	</g>
	<g>
		
			<ellipse transform="matrix(-0.342 -0.9397 0.9397 -0.342 392.7877 801.5406)" fill="#004700" cx="477.018" cy="263.253" rx="5.171" ry="1.469"/>
	</g>
	
		<ellipse transform="matrix(-0.6432 -0.7657 0.7657 -0.6432 580.1255 798.4688)" opacity="0.1" cx="476.093" cy="264.075" rx="5.171" ry="1.468"/>
	
		<ellipse transform="matrix(-0.6432 -0.7657 0.7657 -0.6432 579.9987 798.2359)" opacity="0.1" cx="475.993" cy="263.975" rx="5.171" ry="1.468"/>
	<g opacity="0.1">
		
			<ellipse transform="matrix(-0.6432 -0.7657 0.7657 -0.6432 579.9987 798.2359)" opacity="0.1" cx="475.993" cy="263.975" rx="5.171" ry="1.468"/>
	</g>
	<g>
		
			<ellipse transform="matrix(-0.6432 -0.7657 0.7657 -0.6432 579.9676 797.9844)" fill="#004700" cx="475.894" cy="263.875" rx="5.171" ry="1.468"/>
	</g>
	
		<ellipse transform="matrix(-0.866 -0.5 0.5 -0.866 754.2915 732.4275)" opacity="0.1" cx="475.277" cy="265.153" rx="5.17" ry="1.468"/>
	
		<ellipse transform="matrix(-0.866 -0.5 0.5 -0.866 754.179 732.1771)" opacity="0.1" cx="475.178" cy="265.053" rx="5.17" ry="1.468"/>
	<g opacity="0.1">
		
			<ellipse transform="matrix(-0.866 -0.5 0.5 -0.866 754.179 732.1771)" opacity="0.1" cx="475.178" cy="265.053" rx="5.17" ry="1.468"/>
	</g>
	<g>
		
			<ellipse transform="matrix(-0.866 -0.5001 0.5001 -0.866 754.0009 731.9653)" fill="#004700" cx="475.078" cy="264.953" rx="5.17" ry="1.468"/>
	</g>
	<path opacity="0.1" d="M475.103,264.916c2.811,0.497,4.978,1.544,4.836,2.342c-0.142,0.801-2.535,1.046-5.347,0.548
		c-2.815-0.494-4.98-1.543-4.839-2.343C469.895,264.665,472.288,264.418,475.103,264.916z"/>
	<path opacity="0.1" d="M475.003,264.815c2.81,0.497,4.977,1.544,4.836,2.342c-0.143,0.801-2.535,1.046-5.348,0.548
		c-2.814-0.494-4.979-1.543-4.839-2.343C469.795,264.564,472.188,264.318,475.003,264.815z"/>
	<g opacity="0.1">
		<path opacity="0.1" d="M475.003,264.815c2.81,0.497,4.977,1.544,4.836,2.342c-0.143,0.801-2.535,1.046-5.348,0.548
			c-2.814-0.494-4.979-1.543-4.839-2.343C469.795,264.564,472.188,264.318,475.003,264.815z"/>
	</g>
	<g>
		<path fill="#004700" d="M474.903,264.714c2.811,0.497,4.978,1.544,4.836,2.342c-0.142,0.801-2.534,1.046-5.347,0.548
			c-2.814-0.494-4.979-1.543-4.839-2.343C469.695,264.464,472.089,264.218,474.903,264.714z"/>
	</g>
	<path opacity="0.1" d="M474.614,266.224c2.812-0.495,5.204-0.25,5.347,0.546c0.142,0.802-2.024,1.851-4.837,2.345
		c-2.813,0.499-5.208,0.252-5.348-0.548C469.635,267.769,471.8,266.719,474.614,266.224z"/>
	<path opacity="0.1" d="M474.515,266.124c2.812-0.495,5.204-0.25,5.346,0.546c0.143,0.802-2.023,1.851-4.837,2.345
		c-2.812,0.499-5.208,0.252-5.347-0.548C469.535,267.668,471.7,266.619,474.515,266.124z"/>
	<g opacity="0.1">
		<path opacity="0.1" d="M474.515,266.124c2.812-0.495,5.204-0.25,5.346,0.546c0.143,0.802-2.023,1.851-4.837,2.345
			c-2.812,0.499-5.208,0.252-5.347-0.548C469.535,267.668,471.7,266.619,474.515,266.124z"/>
	</g>
	<g>
		<path fill="#004700" d="M474.415,266.023c2.811-0.495,5.204-0.25,5.346,0.546c0.142,0.802-2.024,1.851-4.837,2.345
			c-2.813,0.499-5.208,0.252-5.347-0.548C469.436,267.568,471.601,266.52,474.415,266.023z"/>
	</g>
	<path opacity="0.1" d="M474.604,267.62c2.472-1.426,4.806-2.015,5.209-1.312c0.408,0.705-1.269,2.43-3.742,3.858
		c-2.474,1.43-4.808,2.018-5.212,1.313C470.454,270.775,472.13,269.048,474.604,267.62z"/>
	<path opacity="0.1" d="M474.504,267.521c2.472-1.426,4.805-2.015,5.209-1.313c0.408,0.705-1.27,2.43-3.742,3.858
		c-2.474,1.43-4.808,2.018-5.212,1.313C470.354,270.674,472.03,268.948,474.504,267.521z"/>
	<g opacity="0.1">
		<path opacity="0.1" d="M474.504,267.521c2.472-1.426,4.805-2.015,5.209-1.313c0.408,0.705-1.27,2.43-3.742,3.858
			c-2.474,1.43-4.808,2.018-5.212,1.313C470.354,270.674,472.03,268.948,474.504,267.521z"/>
	</g>
	<g>
		<path fill="#004700" d="M474.404,267.42c2.473-1.426,4.806-2.015,5.209-1.313c0.408,0.705-1.269,2.43-3.741,3.858
			c-2.475,1.43-4.809,2.018-5.212,1.313C470.255,270.574,471.931,268.849,474.404,267.42z"/>
	</g>
	<path opacity="0.1" d="M475.071,268.937c1.835-2.186,3.825-3.537,4.444-3.016c0.625,0.522-0.359,2.718-2.196,4.905
		c-1.836,2.19-3.828,3.54-4.448,3.016C472.251,273.319,473.235,271.125,475.071,268.937z"/>
	<path opacity="0.1" d="M474.972,268.836c1.835-2.186,3.825-3.537,4.444-3.016c0.625,0.522-0.359,2.718-2.196,4.905
		c-1.836,2.19-3.828,3.54-4.449,3.016C472.151,273.219,473.136,271.024,474.972,268.836z"/>
	<g opacity="0.1">
		<path opacity="0.1" d="M474.972,268.836c1.835-2.186,3.825-3.537,4.444-3.016c0.625,0.522-0.359,2.718-2.196,4.905
			c-1.836,2.19-3.828,3.54-4.449,3.016C472.151,273.219,473.136,271.024,474.972,268.836z"/>
	</g>
	<g>
		<path fill="#004700" d="M474.872,268.736c1.835-2.186,3.824-3.537,4.443-3.016c0.625,0.522-0.358,2.718-2.195,4.905
			c-1.836,2.19-3.828,3.54-4.449,3.016C472.052,273.119,473.036,270.924,474.872,268.736z"/>
	</g>
	<path opacity="0.1" d="M475.96,270.012c0.978-2.682,2.386-4.631,3.146-4.354c0.767,0.277,0.592,2.677-0.387,5.361
		c-0.978,2.686-2.387,4.636-3.148,4.356C474.81,275.097,474.985,272.697,475.96,270.012z"/>
	<path opacity="0.1" d="M475.86,269.913c0.979-2.682,2.387-4.631,3.146-4.354c0.766,0.277,0.592,2.677-0.387,5.361
		c-0.978,2.686-2.388,4.636-3.148,4.356C474.71,274.998,474.886,272.597,475.86,269.913z"/>
	<g opacity="0.1">
		<path opacity="0.1" d="M475.86,269.913c0.979-2.682,2.387-4.631,3.146-4.354c0.766,0.277,0.592,2.677-0.387,5.361
			c-0.978,2.686-2.388,4.636-3.148,4.356C474.71,274.998,474.886,272.597,475.86,269.913z"/>
	</g>
	<g>
		<path fill="#004700" d="M475.761,269.812c0.978-2.682,2.386-4.631,3.146-4.354c0.767,0.277,0.593,2.677-0.387,5.361
			c-0.977,2.686-2.387,4.636-3.147,4.356C474.61,274.897,474.786,272.498,475.761,269.812z"/>
	</g>
	<path opacity="0.1" d="M477.166,270.72c0.001-2.854,0.655-5.168,1.464-5.168c0.814-0.001,1.473,2.314,1.473,5.171
		c0,2.859-0.658,5.172-1.469,5.17C477.822,275.893,477.167,273.577,477.166,270.72z"/>
	<path opacity="0.1" d="M477.066,270.62c0.001-2.854,0.656-5.168,1.464-5.168c0.815-0.001,1.474,2.314,1.474,5.171
		c0,2.859-0.658,5.172-1.47,5.17C477.723,275.792,477.067,273.478,477.066,270.62z"/>
	<g opacity="0.1">
		<path opacity="0.1" d="M477.066,270.62c0.001-2.854,0.656-5.168,1.464-5.168c0.815-0.001,1.474,2.314,1.474,5.171
			c0,2.859-0.658,5.172-1.47,5.17C477.723,275.792,477.067,273.478,477.066,270.62z"/>
	</g>
	<g>
		<path fill="#004700" d="M476.967,270.521c0.001-2.854,0.656-5.168,1.464-5.168c0.815-0.001,1.473,2.314,1.473,5.171
			c0,2.859-0.657,5.172-1.469,5.17C477.623,275.692,476.968,273.377,476.967,270.521z"/>
	</g>
	<path opacity="0.1" d="M478.539,270.974c-0.976-2.683-1.151-5.08-0.392-5.357c0.767-0.282,2.174,1.67,3.151,4.354
		c0.979,2.687,1.149,5.085,0.388,5.361C480.925,275.608,479.517,273.658,478.539,270.974z"/>
	<path opacity="0.1" d="M478.439,270.874c-0.975-2.683-1.15-5.08-0.391-5.357c0.766-0.282,2.174,1.67,3.151,4.354
		c0.979,2.687,1.149,5.085,0.388,5.361C480.825,275.508,479.417,273.559,478.439,270.874z"/>
	<g opacity="0.1">
		<path opacity="0.1" d="M478.439,270.874c-0.975-2.683-1.15-5.08-0.391-5.357c0.766-0.282,2.174,1.67,3.151,4.354
			c0.979,2.687,1.149,5.085,0.388,5.361C480.825,275.508,479.417,273.559,478.439,270.874z"/>
	</g>
	<g>
		<path fill="#004700" d="M478.34,270.773c-0.976-2.683-1.151-5.08-0.392-5.357c0.767-0.282,2.175,1.67,3.151,4.354
			c0.979,2.687,1.15,5.085,0.388,5.361C480.726,275.408,479.317,273.458,478.34,270.773z"/>
	</g>
	<path opacity="0.1" d="M479.917,270.742c-1.835-2.188-2.819-4.381-2.2-4.901c0.625-0.527,2.615,0.826,4.45,3.015
		c1.84,2.19,2.82,4.385,2.198,4.905C483.745,274.279,481.755,272.929,479.917,270.742z"/>
	<path opacity="0.1" d="M479.817,270.643c-1.835-2.188-2.818-4.381-2.199-4.901c0.625-0.527,2.614,0.826,4.449,3.015
		c1.84,2.19,2.821,4.385,2.199,4.905C483.646,274.179,481.655,272.83,479.817,270.643z"/>
	<g opacity="0.1">
		<path opacity="0.1" d="M479.817,270.643c-1.835-2.188-2.818-4.381-2.199-4.901c0.625-0.527,2.614,0.826,4.449,3.015
			c1.84,2.19,2.821,4.385,2.199,4.905C483.646,274.179,481.655,272.83,479.817,270.643z"/>
	</g>
	<g>
		<path fill="#004700" d="M479.718,270.542c-1.835-2.188-2.819-4.381-2.2-4.901c0.625-0.527,2.615,0.826,4.45,3.015
			c1.84,2.19,2.821,4.385,2.199,4.905C483.546,274.08,481.556,272.729,479.718,270.542z"/>
	</g>
	<path opacity="0.1" d="M481.133,270.052c-2.473-1.429-4.148-3.152-3.745-3.853c0.407-0.709,2.739-0.118,5.214,1.31
		c2.478,1.429,4.151,3.156,3.744,3.858C485.938,272.067,483.606,271.479,481.133,270.052z"/>
	<path opacity="0.1" d="M481.034,269.952c-2.474-1.429-4.148-3.152-3.745-3.853c0.406-0.709,2.738-0.118,5.214,1.31
		c2.477,1.429,4.15,3.156,3.744,3.858C485.839,271.967,483.507,271.379,481.034,269.952z"/>
	<g opacity="0.1">
		<path opacity="0.1" d="M481.034,269.952c-2.474-1.429-4.148-3.152-3.745-3.853c0.406-0.709,2.738-0.118,5.214,1.31
			c2.477,1.429,4.15,3.156,3.744,3.858C485.839,271.967,483.507,271.379,481.034,269.952z"/>
	</g>
	<g>
		<path fill="#004700" d="M480.934,269.853c-2.473-1.429-4.147-3.152-3.745-3.853c0.407-0.709,2.739-0.118,5.214,1.31
			c2.478,1.429,4.151,3.156,3.744,3.858C485.739,271.867,483.407,271.279,480.934,269.853z"/>
	</g>
	<path opacity="0.1" d="M482.039,268.989c-2.813-0.496-4.979-1.544-4.836-2.339c0.138-0.806,2.53-1.048,5.346-0.552
		c2.816,0.495,4.979,1.547,4.839,2.346C487.243,269.239,484.853,269.483,482.039,268.989z"/>
	<path opacity="0.1" d="M481.939,268.889c-2.812-0.496-4.978-1.544-4.836-2.339c0.138-0.806,2.531-1.048,5.347-0.552
		c2.816,0.495,4.979,1.547,4.839,2.346C487.144,269.139,484.753,269.383,481.939,268.889z"/>
	<g opacity="0.1">
		<path opacity="0.1" d="M481.939,268.889c-2.812-0.496-4.978-1.544-4.836-2.339c0.138-0.806,2.531-1.048,5.347-0.552
			c2.816,0.495,4.979,1.547,4.839,2.346C487.144,269.139,484.753,269.383,481.939,268.889z"/>
	</g>
	<g>
		<path fill="#004700" d="M481.84,268.79c-2.813-0.496-4.979-1.544-4.836-2.339c0.138-0.806,2.531-1.048,5.346-0.552
			c2.817,0.495,4.98,1.547,4.839,2.346C487.044,269.04,484.653,269.283,481.84,268.79z"/>
	</g>
	<path opacity="0.1" d="M482.526,267.68c-2.812,0.495-5.204,0.25-5.345-0.545c-0.145-0.805,2.021-1.851,4.837-2.347
		c2.813-0.5,5.207-0.25,5.348,0.55C487.502,266.135,485.339,267.183,482.526,267.68z"/>
	<path opacity="0.1" d="M482.427,267.581c-2.812,0.495-5.204,0.25-5.345-0.545c-0.146-0.805,2.021-1.851,4.837-2.347
		c2.812-0.5,5.207-0.25,5.348,0.55C487.402,266.035,485.239,267.083,482.427,267.581z"/>
	<g opacity="0.1">
		<path opacity="0.1" d="M482.427,267.581c-2.812,0.495-5.204,0.25-5.345-0.545c-0.146-0.805,2.021-1.851,4.837-2.347
			c2.812-0.5,5.207-0.25,5.348,0.55C487.402,266.035,485.239,267.083,482.427,267.581z"/>
	</g>
	<g>
		<path fill="#004700" d="M482.327,267.48c-2.812,0.495-5.204,0.25-5.346-0.545c-0.145-0.805,2.021-1.851,4.837-2.347
			c2.813-0.5,5.207-0.25,5.349,0.55C487.303,265.936,485.14,266.982,482.327,267.48z"/>
	</g>
	<path opacity="0.1" d="M482.537,266.282c-2.476,1.427-4.806,2.015-5.209,1.316c-0.412-0.707,1.265-2.431,3.74-3.861
		c2.477-1.43,4.811-2.015,5.213-1.312C486.684,263.13,485.009,264.854,482.537,266.282z"/>
	<path opacity="0.1" d="M482.438,266.183c-2.475,1.427-4.805,2.015-5.209,1.316c-0.412-0.707,1.266-2.431,3.741-3.861
		c2.476-1.43,4.81-2.015,5.213-1.312C486.584,263.029,484.909,264.753,482.438,266.183z"/>
	<g opacity="0.1">
		<path opacity="0.1" d="M482.438,266.183c-2.475,1.427-4.805,2.015-5.209,1.316c-0.412-0.707,1.266-2.431,3.741-3.861
			c2.476-1.43,4.81-2.015,5.213-1.312C486.584,263.029,484.909,264.753,482.438,266.183z"/>
	</g>
	<g>
		<path fill="#004700" d="M482.338,266.083c-2.476,1.427-4.806,2.015-5.209,1.316c-0.412-0.707,1.265-2.431,3.741-3.861
			c2.476-1.43,4.81-2.015,5.213-1.312C486.484,262.929,484.81,264.653,482.338,266.083z"/>
	</g>
	<path opacity="0.1" d="M482.068,264.965c-1.837,2.188-3.824,3.537-4.443,3.02c-0.628-0.523,0.355-2.718,2.195-4.908
		c1.835-2.19,3.828-3.538,4.45-3.015C484.886,260.585,483.904,262.776,482.068,264.965z"/>
	<path opacity="0.1" d="M481.969,264.865c-1.837,2.188-3.825,3.537-4.444,3.02c-0.628-0.523,0.356-2.718,2.196-4.908
		c1.835-2.19,3.828-3.538,4.45-3.015C484.786,260.485,483.805,262.676,481.969,264.865z"/>
	<g opacity="0.1">
		<path opacity="0.1" d="M481.969,264.865c-1.837,2.188-3.825,3.537-4.444,3.02c-0.628-0.523,0.356-2.718,2.196-4.908
			c1.835-2.19,3.828-3.538,4.45-3.015C484.786,260.485,483.805,262.676,481.969,264.865z"/>
	</g>
	<g>
		<path fill="#004700" d="M481.869,264.766c-1.838,2.188-3.825,3.537-4.444,3.02c-0.628-0.523,0.355-2.718,2.196-4.908
			c1.835-2.19,3.827-3.538,4.449-3.015C484.687,260.385,483.705,262.576,481.869,264.766z"/>
	</g>
	<path opacity="0.1" d="M481.178,263.888c-0.979,2.685-2.383,4.633-3.144,4.358c-0.771-0.277-0.595-2.676,0.385-5.364
		c0.977-2.686,2.388-4.634,3.149-4.355C482.327,258.809,482.154,261.206,481.178,263.888z"/>
	<path opacity="0.1" d="M481.078,263.789c-0.979,2.685-2.384,4.633-3.145,4.358c-0.77-0.277-0.594-2.676,0.385-5.364
		c0.978-2.686,2.389-4.634,3.15-4.355C482.228,258.708,482.055,261.105,481.078,263.789z"/>
	<g opacity="0.1">
		<path opacity="0.1" d="M481.078,263.789c-0.979,2.685-2.384,4.633-3.145,4.358c-0.77-0.277-0.594-2.676,0.385-5.364
			c0.978-2.686,2.389-4.634,3.15-4.355C482.228,258.708,482.055,261.105,481.078,263.789z"/>
	</g>
	<g>
		<path fill="#004700" d="M480.979,263.688c-0.979,2.685-2.383,4.633-3.144,4.358c-0.771-0.277-0.595-2.676,0.385-5.364
			c0.977-2.686,2.388-4.634,3.15-4.355C482.128,258.608,481.955,261.005,480.979,263.688z"/>
	</g>
	
		<ellipse transform="matrix(-0.342 -0.9397 0.9397 -0.342 392.8674 801.9958)" opacity="0.1" cx="477.217" cy="263.453" rx="5.171" ry="1.47"/>
	
		<ellipse transform="matrix(-0.342 -0.9397 0.9397 -0.342 392.8278 801.7679)" opacity="0.1" cx="477.117" cy="263.353" rx="5.171" ry="1.469"/>
	<g opacity="0.1">
		
			<ellipse transform="matrix(-0.342 -0.9397 0.9397 -0.342 392.8278 801.7679)" opacity="0.1" cx="477.117" cy="263.353" rx="5.171" ry="1.469"/>
	</g>
	<g>
		
			<ellipse transform="matrix(-0.342 -0.9397 0.9397 -0.342 392.7877 801.5406)" fill="#004700" cx="477.018" cy="263.253" rx="5.171" ry="1.469"/>
	</g>
	
		<ellipse transform="matrix(-0.6432 -0.7657 0.7657 -0.6432 580.1255 798.4688)" opacity="0.1" cx="476.093" cy="264.075" rx="5.171" ry="1.468"/>
	
		<ellipse transform="matrix(-0.6432 -0.7657 0.7657 -0.6432 579.9987 798.2359)" opacity="0.1" cx="475.993" cy="263.975" rx="5.171" ry="1.468"/>
	<g opacity="0.1">
		
			<ellipse transform="matrix(-0.6432 -0.7657 0.7657 -0.6432 579.9987 798.2359)" opacity="0.1" cx="475.993" cy="263.975" rx="5.171" ry="1.468"/>
	</g>
	<g>
		
			<ellipse transform="matrix(-0.6432 -0.7657 0.7657 -0.6432 579.9676 797.9844)" fill="#004700" cx="475.894" cy="263.875" rx="5.171" ry="1.468"/>
	</g>
	
		<ellipse transform="matrix(-0.866 -0.5 0.5 -0.866 754.2915 732.4275)" opacity="0.1" cx="475.277" cy="265.153" rx="5.17" ry="1.468"/>
	
		<ellipse transform="matrix(-0.866 -0.5 0.5 -0.866 754.179 732.1771)" opacity="0.1" cx="475.178" cy="265.053" rx="5.17" ry="1.468"/>
	<g opacity="0.1">
		
			<ellipse transform="matrix(-0.866 -0.5 0.5 -0.866 754.179 732.1771)" opacity="0.1" cx="475.178" cy="265.053" rx="5.17" ry="1.468"/>
	</g>
	<g>
		
			<ellipse transform="matrix(-0.866 -0.5001 0.5001 -0.866 754.0009 731.9653)" fill="#004700" cx="475.078" cy="264.953" rx="5.17" ry="1.468"/>
	</g>
	<path opacity="0.1" d="M475.103,264.916c2.811,0.497,4.978,1.544,4.836,2.342c-0.142,0.801-2.535,1.046-5.347,0.548
		c-2.815-0.494-4.98-1.543-4.839-2.343C469.895,264.665,472.288,264.418,475.103,264.916z"/>
	<path opacity="0.1" d="M475.003,264.815c2.81,0.497,4.977,1.544,4.836,2.342c-0.143,0.801-2.535,1.046-5.348,0.548
		c-2.814-0.494-4.979-1.543-4.839-2.343C469.795,264.564,472.188,264.318,475.003,264.815z"/>
	<g opacity="0.1">
		<path opacity="0.1" d="M475.003,264.815c2.81,0.497,4.977,1.544,4.836,2.342c-0.143,0.801-2.535,1.046-5.348,0.548
			c-2.814-0.494-4.979-1.543-4.839-2.343C469.795,264.564,472.188,264.318,475.003,264.815z"/>
	</g>
	<g>
		<path fill="#004700" d="M474.903,264.714c2.811,0.497,4.978,1.544,4.836,2.342c-0.142,0.801-2.534,1.046-5.347,0.548
			c-2.814-0.494-4.979-1.543-4.839-2.343C469.695,264.464,472.089,264.218,474.903,264.714z"/>
	</g>
	<path opacity="0.1" d="M474.614,266.224c2.812-0.495,5.204-0.25,5.347,0.546c0.142,0.802-2.024,1.851-4.837,2.345
		c-2.813,0.499-5.208,0.252-5.348-0.548C469.635,267.769,471.8,266.719,474.614,266.224z"/>
	<path opacity="0.1" d="M474.515,266.124c2.812-0.495,5.204-0.25,5.346,0.546c0.143,0.802-2.023,1.851-4.837,2.345
		c-2.812,0.499-5.208,0.252-5.347-0.548C469.535,267.668,471.7,266.619,474.515,266.124z"/>
	<g opacity="0.1">
		<path opacity="0.1" d="M474.515,266.124c2.812-0.495,5.204-0.25,5.346,0.546c0.143,0.802-2.023,1.851-4.837,2.345
			c-2.812,0.499-5.208,0.252-5.347-0.548C469.535,267.668,471.7,266.619,474.515,266.124z"/>
	</g>
	<g>
		<path fill="#004700" d="M474.415,266.023c2.811-0.495,5.204-0.25,5.346,0.546c0.142,0.802-2.024,1.851-4.837,2.345
			c-2.813,0.499-5.208,0.252-5.347-0.548C469.436,267.568,471.601,266.52,474.415,266.023z"/>
	</g>
	<path opacity="0.1" d="M474.604,267.62c2.472-1.426,4.806-2.015,5.209-1.312c0.408,0.705-1.269,2.43-3.742,3.858
		c-2.474,1.43-4.808,2.018-5.212,1.313C470.454,270.775,472.13,269.048,474.604,267.62z"/>
	<path opacity="0.1" d="M474.504,267.521c2.472-1.426,4.805-2.015,5.209-1.313c0.408,0.705-1.27,2.43-3.742,3.858
		c-2.474,1.43-4.808,2.018-5.212,1.313C470.354,270.674,472.03,268.948,474.504,267.521z"/>
	<g opacity="0.1">
		<path opacity="0.1" d="M474.504,267.521c2.472-1.426,4.805-2.015,5.209-1.313c0.408,0.705-1.27,2.43-3.742,3.858
			c-2.474,1.43-4.808,2.018-5.212,1.313C470.354,270.674,472.03,268.948,474.504,267.521z"/>
	</g>
	<g>
		<path fill="#004700" d="M474.404,267.42c2.473-1.426,4.806-2.015,5.209-1.313c0.408,0.705-1.269,2.43-3.741,3.858
			c-2.475,1.43-4.809,2.018-5.212,1.313C470.255,270.574,471.931,268.849,474.404,267.42z"/>
	</g>
	<path opacity="0.1" d="M475.071,268.937c1.835-2.186,3.825-3.537,4.444-3.016c0.625,0.522-0.359,2.718-2.196,4.905
		c-1.836,2.19-3.828,3.54-4.448,3.016C472.251,273.319,473.235,271.125,475.071,268.937z"/>
	<path opacity="0.1" d="M474.972,268.836c1.835-2.186,3.825-3.537,4.444-3.016c0.625,0.522-0.359,2.718-2.196,4.905
		c-1.836,2.19-3.828,3.54-4.449,3.016C472.151,273.219,473.136,271.024,474.972,268.836z"/>
	<g opacity="0.1">
		<path opacity="0.1" d="M474.972,268.836c1.835-2.186,3.825-3.537,4.444-3.016c0.625,0.522-0.359,2.718-2.196,4.905
			c-1.836,2.19-3.828,3.54-4.449,3.016C472.151,273.219,473.136,271.024,474.972,268.836z"/>
	</g>
	<g>
		<path fill="#004700" d="M474.872,268.736c1.835-2.186,3.824-3.537,4.443-3.016c0.625,0.522-0.358,2.718-2.195,4.905
			c-1.836,2.19-3.828,3.54-4.449,3.016C472.052,273.119,473.036,270.924,474.872,268.736z"/>
	</g>
	<path opacity="0.1" d="M475.96,270.012c0.978-2.682,2.386-4.631,3.146-4.354c0.767,0.277,0.592,2.677-0.387,5.361
		c-0.978,2.686-2.387,4.636-3.148,4.356C474.81,275.097,474.985,272.697,475.96,270.012z"/>
	<path opacity="0.1" d="M475.86,269.913c0.979-2.682,2.387-4.631,3.146-4.354c0.766,0.277,0.592,2.677-0.387,5.361
		c-0.978,2.686-2.388,4.636-3.148,4.356C474.71,274.998,474.886,272.597,475.86,269.913z"/>
	<g opacity="0.1">
		<path opacity="0.1" d="M475.86,269.913c0.979-2.682,2.387-4.631,3.146-4.354c0.766,0.277,0.592,2.677-0.387,5.361
			c-0.978,2.686-2.388,4.636-3.148,4.356C474.71,274.998,474.886,272.597,475.86,269.913z"/>
	</g>
	<g>
		<path fill="#004700" d="M475.761,269.812c0.978-2.682,2.386-4.631,3.146-4.354c0.767,0.277,0.593,2.677-0.387,5.361
			c-0.977,2.686-2.387,4.636-3.147,4.356C474.61,274.897,474.786,272.498,475.761,269.812z"/>
	</g>
	<path opacity="0.1" d="M477.166,270.72c0.001-2.854,0.655-5.168,1.464-5.168c0.814-0.001,1.473,2.314,1.473,5.171
		c0,2.859-0.658,5.172-1.469,5.17C477.822,275.893,477.167,273.577,477.166,270.72z"/>
	<path opacity="0.1" d="M477.066,270.62c0.001-2.854,0.656-5.168,1.464-5.168c0.815-0.001,1.474,2.314,1.474,5.171
		c0,2.859-0.658,5.172-1.47,5.17C477.723,275.792,477.067,273.478,477.066,270.62z"/>
	<g opacity="0.1">
		<path opacity="0.1" d="M477.066,270.62c0.001-2.854,0.656-5.168,1.464-5.168c0.815-0.001,1.474,2.314,1.474,5.171
			c0,2.859-0.658,5.172-1.47,5.17C477.723,275.792,477.067,273.478,477.066,270.62z"/>
	</g>
	<g>
		<path fill="#004700" d="M476.967,270.521c0.001-2.854,0.656-5.168,1.464-5.168c0.815-0.001,1.473,2.314,1.473,5.171
			c0,2.859-0.657,5.172-1.469,5.17C477.623,275.692,476.968,273.377,476.967,270.521z"/>
	</g>
	<path opacity="0.1" d="M478.539,270.974c-0.976-2.683-1.151-5.08-0.392-5.357c0.767-0.282,2.174,1.67,3.151,4.354
		c0.979,2.687,1.149,5.085,0.388,5.361C480.925,275.608,479.517,273.658,478.539,270.974z"/>
	<path opacity="0.1" d="M478.439,270.874c-0.975-2.683-1.15-5.08-0.391-5.357c0.766-0.282,2.174,1.67,3.151,4.354
		c0.979,2.687,1.149,5.085,0.388,5.361C480.825,275.508,479.417,273.559,478.439,270.874z"/>
	<g opacity="0.1">
		<path opacity="0.1" d="M478.439,270.874c-0.975-2.683-1.15-5.08-0.391-5.357c0.766-0.282,2.174,1.67,3.151,4.354
			c0.979,2.687,1.149,5.085,0.388,5.361C480.825,275.508,479.417,273.559,478.439,270.874z"/>
	</g>
	<g>
		<path fill="#004700" d="M478.34,270.773c-0.976-2.683-1.151-5.08-0.392-5.357c0.767-0.282,2.175,1.67,3.151,4.354
			c0.979,2.687,1.15,5.085,0.388,5.361C480.726,275.408,479.317,273.458,478.34,270.773z"/>
	</g>
	<path opacity="0.1" d="M479.917,270.742c-1.835-2.188-2.819-4.381-2.2-4.901c0.625-0.527,2.615,0.826,4.45,3.015
		c1.84,2.19,2.82,4.385,2.198,4.905C483.745,274.279,481.755,272.929,479.917,270.742z"/>
	<path opacity="0.1" d="M479.817,270.643c-1.835-2.188-2.818-4.381-2.199-4.901c0.625-0.527,2.614,0.826,4.449,3.015
		c1.84,2.19,2.821,4.385,2.199,4.905C483.646,274.179,481.655,272.83,479.817,270.643z"/>
	<g opacity="0.1">
		<path opacity="0.1" d="M479.817,270.643c-1.835-2.188-2.818-4.381-2.199-4.901c0.625-0.527,2.614,0.826,4.449,3.015
			c1.84,2.19,2.821,4.385,2.199,4.905C483.646,274.179,481.655,272.83,479.817,270.643z"/>
	</g>
	<g>
		<path fill="#004700" d="M479.718,270.542c-1.835-2.188-2.819-4.381-2.2-4.901c0.625-0.527,2.615,0.826,4.45,3.015
			c1.84,2.19,2.821,4.385,2.199,4.905C483.546,274.08,481.556,272.729,479.718,270.542z"/>
	</g>
	<path opacity="0.1" d="M481.133,270.052c-2.473-1.429-4.148-3.152-3.745-3.853c0.407-0.709,2.739-0.118,5.214,1.31
		c2.478,1.429,4.151,3.156,3.744,3.858C485.938,272.067,483.606,271.479,481.133,270.052z"/>
	<path opacity="0.1" d="M481.034,269.952c-2.474-1.429-4.148-3.152-3.745-3.853c0.406-0.709,2.738-0.118,5.214,1.31
		c2.477,1.429,4.15,3.156,3.744,3.858C485.839,271.967,483.507,271.379,481.034,269.952z"/>
	<g opacity="0.1">
		<path opacity="0.1" d="M481.034,269.952c-2.474-1.429-4.148-3.152-3.745-3.853c0.406-0.709,2.738-0.118,5.214,1.31
			c2.477,1.429,4.15,3.156,3.744,3.858C485.839,271.967,483.507,271.379,481.034,269.952z"/>
	</g>
	<g>
		<path fill="#004700" d="M480.934,269.853c-2.473-1.429-4.147-3.152-3.745-3.853c0.407-0.709,2.739-0.118,5.214,1.31
			c2.478,1.429,4.151,3.156,3.744,3.858C485.739,271.867,483.407,271.279,480.934,269.853z"/>
	</g>
	<path opacity="0.1" d="M482.039,268.989c-2.813-0.496-4.979-1.544-4.836-2.339c0.138-0.806,2.53-1.048,5.346-0.552
		c2.816,0.495,4.979,1.547,4.839,2.346C487.243,269.239,484.853,269.483,482.039,268.989z"/>
	<path opacity="0.1" d="M481.939,268.889c-2.812-0.496-4.978-1.544-4.836-2.339c0.138-0.806,2.531-1.048,5.347-0.552
		c2.816,0.495,4.979,1.547,4.839,2.346C487.144,269.139,484.753,269.383,481.939,268.889z"/>
	<g opacity="0.1">
		<path opacity="0.1" d="M481.939,268.889c-2.812-0.496-4.978-1.544-4.836-2.339c0.138-0.806,2.531-1.048,5.347-0.552
			c2.816,0.495,4.979,1.547,4.839,2.346C487.144,269.139,484.753,269.383,481.939,268.889z"/>
	</g>
	<g>
		<path fill="#004700" d="M481.84,268.79c-2.813-0.496-4.979-1.544-4.836-2.339c0.138-0.806,2.531-1.048,5.346-0.552
			c2.817,0.495,4.98,1.547,4.839,2.346C487.044,269.04,484.653,269.283,481.84,268.79z"/>
	</g>
	<path opacity="0.1" d="M482.526,267.68c-2.812,0.495-5.204,0.25-5.345-0.545c-0.145-0.805,2.021-1.851,4.837-2.347
		c2.813-0.5,5.207-0.25,5.348,0.55C487.502,266.135,485.339,267.183,482.526,267.68z"/>
	<path opacity="0.1" d="M482.427,267.581c-2.812,0.495-5.204,0.25-5.345-0.545c-0.146-0.805,2.021-1.851,4.837-2.347
		c2.812-0.5,5.207-0.25,5.348,0.55C487.402,266.035,485.239,267.083,482.427,267.581z"/>
	<g opacity="0.1">
		<path opacity="0.1" d="M482.427,267.581c-2.812,0.495-5.204,0.25-5.345-0.545c-0.146-0.805,2.021-1.851,4.837-2.347
			c2.812-0.5,5.207-0.25,5.348,0.55C487.402,266.035,485.239,267.083,482.427,267.581z"/>
	</g>
	<g>
		<path fill="#004700" d="M482.327,267.48c-2.812,0.495-5.204,0.25-5.346-0.545c-0.145-0.805,2.021-1.851,4.837-2.347
			c2.813-0.5,5.207-0.25,5.349,0.55C487.303,265.936,485.14,266.982,482.327,267.48z"/>
	</g>
	<path opacity="0.1" d="M482.537,266.282c-2.476,1.427-4.806,2.015-5.209,1.316c-0.412-0.707,1.265-2.431,3.74-3.861
		c2.477-1.43,4.811-2.015,5.213-1.312C486.684,263.13,485.009,264.854,482.537,266.282z"/>
	<path opacity="0.1" d="M482.438,266.183c-2.475,1.427-4.805,2.015-5.209,1.316c-0.412-0.707,1.266-2.431,3.741-3.861
		c2.476-1.43,4.81-2.015,5.213-1.312C486.584,263.029,484.909,264.753,482.438,266.183z"/>
	<g opacity="0.1">
		<path opacity="0.1" d="M482.438,266.183c-2.475,1.427-4.805,2.015-5.209,1.316c-0.412-0.707,1.266-2.431,3.741-3.861
			c2.476-1.43,4.81-2.015,5.213-1.312C486.584,263.029,484.909,264.753,482.438,266.183z"/>
	</g>
	<g>
		<path fill="#004700" d="M482.338,266.083c-2.476,1.427-4.806,2.015-5.209,1.316c-0.412-0.707,1.265-2.431,3.741-3.861
			c2.476-1.43,4.81-2.015,5.213-1.312C486.484,262.929,484.81,264.653,482.338,266.083z"/>
	</g>
	<path opacity="0.1" d="M482.068,264.965c-1.837,2.188-3.824,3.537-4.443,3.02c-0.628-0.523,0.355-2.718,2.195-4.908
		c1.835-2.19,3.828-3.538,4.45-3.015C484.886,260.585,483.904,262.776,482.068,264.965z"/>
	<path opacity="0.1" d="M481.969,264.865c-1.837,2.188-3.825,3.537-4.444,3.02c-0.628-0.523,0.356-2.718,2.196-4.908
		c1.835-2.19,3.828-3.538,4.45-3.015C484.786,260.485,483.805,262.676,481.969,264.865z"/>
	<g opacity="0.1">
		<path opacity="0.1" d="M481.969,264.865c-1.837,2.188-3.825,3.537-4.444,3.02c-0.628-0.523,0.356-2.718,2.196-4.908
			c1.835-2.19,3.828-3.538,4.45-3.015C484.786,260.485,483.805,262.676,481.969,264.865z"/>
	</g>
	<g>
		<path fill="#004700" d="M481.869,264.766c-1.838,2.188-3.825,3.537-4.444,3.02c-0.628-0.523,0.355-2.718,2.196-4.908
			c1.835-2.19,3.827-3.538,4.449-3.015C484.687,260.385,483.705,262.576,481.869,264.766z"/>
	</g>
	<path opacity="0.1" d="M481.178,263.888c-0.979,2.685-2.383,4.633-3.144,4.358c-0.771-0.277-0.595-2.676,0.385-5.364
		c0.977-2.686,2.388-4.634,3.149-4.355C482.327,258.809,482.154,261.206,481.178,263.888z"/>
	<path opacity="0.1" d="M481.078,263.789c-0.979,2.685-2.384,4.633-3.145,4.358c-0.77-0.277-0.594-2.676,0.385-5.364
		c0.978-2.686,2.389-4.634,3.15-4.355C482.228,258.708,482.055,261.105,481.078,263.789z"/>
	<g opacity="0.1">
		<path opacity="0.1" d="M481.078,263.789c-0.979,2.685-2.384,4.633-3.145,4.358c-0.77-0.277-0.594-2.676,0.385-5.364
			c0.978-2.686,2.389-4.634,3.15-4.355C482.228,258.708,482.055,261.105,481.078,263.789z"/>
	</g>
	<g>
		<path fill="#004700" d="M480.979,263.688c-0.979,2.685-2.383,4.633-3.144,4.358c-0.771-0.277-0.595-2.676,0.385-5.364
			c0.977-2.686,2.388-4.634,3.15-4.355C482.128,258.608,481.955,261.005,480.979,263.688z"/>
	</g>
	<path opacity="0.1" d="M479.974,263.18c-0.002,2.858-0.656,5.169-1.463,5.172c-0.818,0.001-1.477-2.312-1.474-5.173
		c-0.003-2.857,0.658-5.17,1.47-5.169C479.315,258.013,479.973,260.325,479.974,263.18z"/>
	<path opacity="0.1" d="M479.874,263.081c-0.002,2.858-0.656,5.169-1.463,5.172c-0.818,0.001-1.478-2.312-1.475-5.173
		c-0.003-2.857,0.659-5.17,1.47-5.169C479.216,257.914,479.873,260.226,479.874,263.081z"/>
	<g opacity="0.1">
		<path opacity="0.1" d="M479.874,263.081c-0.002,2.858-0.656,5.169-1.463,5.172c-0.818,0.001-1.478-2.312-1.475-5.173
			c-0.003-2.857,0.659-5.17,1.47-5.169C479.216,257.914,479.873,260.226,479.874,263.081z"/>
	</g>
	<g>
		<path fill="#004700" d="M479.774,262.98c-0.002,2.858-0.655,5.169-1.463,5.172c-0.817,0.001-1.477-2.312-1.474-5.173
			c-0.003-2.857,0.659-5.17,1.47-5.169C479.116,257.813,479.773,260.125,479.774,262.98z"/>
	</g>
	
		<ellipse transform="matrix(-0.3418 -0.9398 0.9398 -0.3418 392.3805 803.485)" opacity="0.1" cx="477.552" cy="264.34" rx="3.827" ry="1.089"/>
	
		<ellipse transform="matrix(-0.3419 -0.9397 0.9397 -0.3419 392.4048 803.2668)" opacity="0.1" cx="477.452" cy="264.24" rx="3.827" ry="1.088"/>
	<g opacity="0.1">
		
			<ellipse transform="matrix(-0.3419 -0.9397 0.9397 -0.3419 392.4048 803.2668)" opacity="0.1" cx="477.452" cy="264.24" rx="3.827" ry="1.088"/>
	</g>
	<g>
		
			<ellipse transform="matrix(-0.3419 -0.9397 0.9397 -0.3419 392.3666 803.0398)" fill="#004700" cx="477.354" cy="264.14" rx="3.827" ry="1.088"/>
	</g>
	
		<ellipse transform="matrix(-0.6432 -0.7657 0.7657 -0.6432 580.5953 800.2167)" opacity="0.1" cx="476.739" cy="264.836" rx="3.827" ry="1.086"/>
	
		<ellipse transform="matrix(-0.6433 -0.7656 0.7656 -0.6433 580.5599 799.9646)" opacity="0.1" cx="476.639" cy="264.736" rx="3.827" ry="1.086"/>
	<g opacity="0.1">
		
			<ellipse transform="matrix(-0.6433 -0.7656 0.7656 -0.6433 580.5599 799.9646)" opacity="0.1" cx="476.639" cy="264.736" rx="3.827" ry="1.086"/>
	</g>
	<g>
		
			<ellipse transform="matrix(-0.6432 -0.7657 0.7657 -0.6432 580.3997 799.7383)" fill="#004700" cx="476.54" cy="264.635" rx="3.827" ry="1.086"/>
	</g>
	
		<ellipse transform="matrix(-0.8662 -0.4997 0.4997 -0.8662 755.8298 733.5612)" opacity="0.1" cx="476.125" cy="265.589" rx="3.827" ry="1.087"/>
	
		<ellipse transform="matrix(-0.8662 -0.4997 0.4997 -0.8662 755.6926 733.3223)" opacity="0.1" cx="476.025" cy="265.488" rx="3.827" ry="1.087"/>
	<g opacity="0.1">
		
			<ellipse transform="matrix(-0.8662 -0.4997 0.4997 -0.8662 755.6926 733.3223)" opacity="0.1" cx="476.025" cy="265.488" rx="3.827" ry="1.087"/>
	</g>
	<g>
		
			<ellipse transform="matrix(-0.8662 -0.4997 0.4997 -0.8662 755.5565 733.0866)" fill="#004700" cx="475.925" cy="265.388" rx="3.827" ry="1.087"/>
	</g>
	<path opacity="0.1" d="M476.003,265.443c2.079,0.368,3.686,1.144,3.581,1.734c-0.105,0.594-1.879,0.774-3.959,0.406
		c-2.083-0.365-3.687-1.143-3.58-1.734C472.149,265.258,473.921,265.077,476.003,265.443z"/>
	<path opacity="0.1" d="M475.903,265.343c2.079,0.368,3.687,1.144,3.581,1.734c-0.104,0.594-1.879,0.774-3.959,0.406
		c-2.083-0.365-3.686-1.143-3.58-1.734C472.05,265.158,473.821,264.978,475.903,265.343z"/>
	<g opacity="0.1">
		<path opacity="0.1" d="M475.903,265.343c2.079,0.368,3.687,1.144,3.581,1.734c-0.104,0.594-1.879,0.774-3.959,0.406
			c-2.083-0.365-3.686-1.143-3.58-1.734C472.05,265.158,473.821,264.978,475.903,265.343z"/>
	</g>
	<g>
		<path fill="#004700" d="M475.804,265.243c2.079,0.368,3.686,1.144,3.581,1.734c-0.105,0.594-1.879,0.774-3.959,0.406
			c-2.083-0.365-3.687-1.143-3.58-1.734C471.95,265.059,473.722,264.877,475.804,265.243z"/>
	</g>
	
		<ellipse transform="matrix(-0.9849 0.173 -0.173 -0.9849 990.7867 448.6311)" opacity="0.1" cx="475.84" cy="267.499" rx="3.825" ry="1.086"/>
	
		<ellipse transform="matrix(-0.9849 0.173 -0.173 -0.9849 990.5602 448.4825)" opacity="0.1" cx="475.74" cy="267.399" rx="3.825" ry="1.086"/>
	<g opacity="0.1">
		
			<ellipse transform="matrix(-0.9849 0.173 -0.173 -0.9849 990.5602 448.4825)" opacity="0.1" cx="475.74" cy="267.399" rx="3.825" ry="1.086"/>
	</g>
	<g>
		
			<ellipse transform="matrix(-0.9849 0.173 -0.173 -0.9849 990.3452 448.3001)" fill="#004700" cx="475.641" cy="267.298" rx="3.825" ry="1.086"/>
	</g>
	<path opacity="0.1" d="M475.636,267.445c1.828-1.055,3.554-1.491,3.854-0.971c0.302,0.521-0.939,1.798-2.771,2.854
		c-1.831,1.059-3.557,1.494-3.857,0.973C472.563,269.781,473.804,268.503,475.636,267.445z"/>
	<path opacity="0.1" d="M475.536,267.345c1.827-1.055,3.554-1.491,3.854-0.971c0.301,0.521-0.939,1.798-2.771,2.854
		c-1.831,1.059-3.558,1.494-3.857,0.973C472.464,269.681,473.704,268.402,475.536,267.345z"/>
	<g opacity="0.1">
		<path opacity="0.1" d="M475.536,267.345c1.827-1.055,3.554-1.491,3.854-0.971c0.301,0.521-0.939,1.798-2.771,2.854
			c-1.831,1.059-3.558,1.494-3.857,0.973C472.464,269.681,473.704,268.402,475.536,267.345z"/>
	</g>
	<g>
		<path fill="#004700" d="M475.437,267.245c1.828-1.055,3.554-1.491,3.854-0.971c0.301,0.521-0.94,1.798-2.771,2.854
			c-1.831,1.059-3.557,1.494-3.856,0.973C472.364,269.582,473.604,268.302,475.437,267.245z"/>
	</g>
	<path opacity="0.1" d="M475.981,268.421c1.357-1.618,2.83-2.618,3.287-2.232c0.464,0.387-0.263,2.011-1.623,3.631
		c-1.359,1.622-2.834,2.619-3.293,2.232C473.893,271.665,474.622,270.04,475.981,268.421z"/>
	<path opacity="0.1" d="M475.882,268.32c1.356-1.618,2.83-2.618,3.287-2.232c0.464,0.387-0.264,2.011-1.623,3.631
		c-1.36,1.622-2.834,2.619-3.293,2.232C473.793,271.564,474.522,269.939,475.882,268.32z"/>
	<g opacity="0.1">
		<path opacity="0.1" d="M475.882,268.32c1.356-1.618,2.83-2.618,3.287-2.232c0.464,0.387-0.264,2.011-1.623,3.631
			c-1.36,1.622-2.834,2.619-3.293,2.232C473.793,271.564,474.522,269.939,475.882,268.32z"/>
	</g>
	<g>
		<path fill="#004700" d="M475.782,268.22c1.357-1.618,2.83-2.618,3.287-2.232c0.464,0.387-0.263,2.011-1.623,3.631
			c-1.359,1.622-2.834,2.619-3.293,2.232C473.693,271.463,474.423,269.839,475.782,268.22z"/>
	</g>
	
		<ellipse transform="matrix(-0.3424 0.9396 -0.9396 -0.3424 894.5361 -86.8607)" opacity="0.1" cx="477.666" cy="269.623" rx="3.825" ry="1.087"/>
	
		<ellipse transform="matrix(-0.3425 0.9395 -0.9395 -0.3425 894.358 -86.8423)" opacity="0.1" cx="477.566" cy="269.523" rx="3.825" ry="1.087"/>
	<g opacity="0.1">
		
			<ellipse transform="matrix(-0.3425 0.9395 -0.9395 -0.3425 894.358 -86.8423)" opacity="0.1" cx="477.566" cy="269.523" rx="3.825" ry="1.087"/>
	</g>
	<g>
		
			<ellipse transform="matrix(-0.3424 0.9396 -0.9396 -0.3424 894.0883 -86.9335)" fill="#004700" cx="477.467" cy="269.423" rx="3.825" ry="1.087"/>
	</g>
	<path opacity="0.1" d="M477.532,269.74c0-2.112,0.485-3.824,1.081-3.825c0.605,0,1.092,1.713,1.092,3.828
		c0,2.115-0.488,3.827-1.086,3.827C478.018,273.568,477.532,271.855,477.532,269.74z"/>
	<path opacity="0.1" d="M477.433,269.641c0-2.112,0.485-3.824,1.081-3.825c0.605,0,1.091,1.713,1.091,3.828
		c0,2.115-0.488,3.827-1.086,3.827C477.918,273.468,477.433,271.755,477.433,269.641z"/>
	<g opacity="0.1">
		<path opacity="0.1" d="M477.433,269.641c0-2.112,0.485-3.824,1.081-3.825c0.605,0,1.091,1.713,1.091,3.828
			c0,2.115-0.488,3.827-1.086,3.827C477.918,273.468,477.433,271.755,477.433,269.641z"/>
	</g>
	<g>
		<path fill="#004700" d="M477.333,269.541c0-2.112,0.484-3.824,1.081-3.825c0.604,0,1.091,1.713,1.091,3.828
			c0,2.115-0.488,3.827-1.086,3.827C477.818,273.368,477.333,271.654,477.333,269.541z"/>
	</g>
	
		<ellipse transform="matrix(0.3415 0.9399 -0.9399 0.3415 569.1504 -273.209)" opacity="0.1" cx="479.556" cy="269.58" rx="3.826" ry="1.087"/>
	
		<ellipse transform="matrix(0.3415 0.9399 -0.9399 0.3415 568.9907 -273.1813)" opacity="0.1" cx="479.456" cy="269.48" rx="3.826" ry="1.087"/>
	<g opacity="0.1">
		
			<ellipse transform="matrix(0.3415 0.9399 -0.9399 0.3415 568.9907 -273.1813)" opacity="0.1" cx="479.456" cy="269.48" rx="3.826" ry="1.087"/>
	</g>
	<g>
		
			<ellipse transform="matrix(0.3414 0.9399 -0.9399 0.3414 568.9081 -273.1415)" fill="#004700" cx="479.357" cy="269.379" rx="3.826" ry="1.087"/>
	</g>
	<path opacity="0.1" d="M479.568,269.756c-1.357-1.618-2.089-3.242-1.628-3.626c0.461-0.39,1.935,0.611,3.291,2.231
		c1.363,1.621,2.089,3.245,1.629,3.63C482.4,272.375,480.928,271.375,479.568,269.756z"/>
	<path opacity="0.1" d="M479.469,269.656c-1.358-1.618-2.089-3.242-1.628-3.626c0.461-0.39,1.934,0.611,3.291,2.231
		c1.363,1.621,2.089,3.245,1.629,3.63C482.301,272.275,480.828,271.275,479.469,269.656z"/>
	<g opacity="0.1">
		<path opacity="0.1" d="M479.469,269.656c-1.358-1.618-2.089-3.242-1.628-3.626c0.461-0.39,1.934,0.611,3.291,2.231
			c1.363,1.621,2.089,3.245,1.629,3.63C482.301,272.275,480.828,271.275,479.469,269.656z"/>
	</g>
	<g>
		<path fill="#004700" d="M479.369,269.556c-1.358-1.618-2.09-3.242-1.629-3.626c0.462-0.39,1.935,0.611,3.291,2.231
			c1.363,1.621,2.09,3.245,1.63,3.63C482.2,272.174,480.729,271.174,479.369,269.556z"/>
	</g>
	<path opacity="0.1" d="M480.467,269.247c-1.831-1.056-3.07-2.332-2.772-2.851c0.304-0.525,2.026-0.088,3.858,0.97
		c1.833,1.056,3.072,2.335,2.771,2.856C484.023,270.737,482.298,270.302,480.467,269.247z"/>
	<path opacity="0.1" d="M480.366,269.146c-1.83-1.056-3.069-2.332-2.771-2.851c0.303-0.525,2.026-0.088,3.858,0.97
		c1.833,1.056,3.071,2.335,2.771,2.856C483.924,270.637,482.198,270.202,480.366,269.146z"/>
	<g opacity="0.1">
		<path opacity="0.1" d="M480.366,269.146c-1.83-1.056-3.069-2.332-2.771-2.851c0.303-0.525,2.026-0.088,3.858,0.97
			c1.833,1.056,3.071,2.335,2.771,2.856C483.924,270.637,482.198,270.202,480.366,269.146z"/>
	</g>
	<g>
		<path fill="#004700" d="M480.268,269.046c-1.831-1.056-3.07-2.332-2.771-2.851c0.303-0.525,2.025-0.088,3.857,0.97
			c1.833,1.056,3.072,2.335,2.771,2.856C483.825,270.538,482.099,270.103,480.268,269.046z"/>
	</g>
	<path opacity="0.1" d="M481.137,268.459c-2.082-0.367-3.683-1.142-3.579-1.731c0.104-0.597,1.873-0.775,3.957-0.409
		c2.085,0.365,3.688,1.144,3.581,1.736C484.99,268.646,483.22,268.825,481.137,268.459z"/>
	<path opacity="0.1" d="M481.037,268.359c-2.082-0.367-3.684-1.142-3.579-1.731c0.104-0.597,1.873-0.775,3.957-0.409
		c2.085,0.365,3.687,1.144,3.581,1.736C484.891,268.545,483.12,268.726,481.037,268.359z"/>
	<g opacity="0.1">
		<path opacity="0.1" d="M481.037,268.359c-2.082-0.367-3.684-1.142-3.579-1.731c0.104-0.597,1.873-0.775,3.957-0.409
			c2.085,0.365,3.687,1.144,3.581,1.736C484.891,268.545,483.12,268.726,481.037,268.359z"/>
	</g>
	<g>
		<path fill="#004700" d="M480.938,268.259c-2.082-0.367-3.683-1.142-3.579-1.731c0.104-0.597,1.873-0.775,3.957-0.409
			c2.085,0.365,3.688,1.144,3.581,1.736C484.791,268.444,483.021,268.625,480.938,268.259z"/>
	</g>
	<path opacity="0.1" d="M481.497,267.491c-2.082,0.366-3.852,0.186-3.954-0.403c-0.106-0.597,1.494-1.371,3.579-1.738
		c2.084-0.369,3.854-0.185,3.959,0.406C485.181,266.346,483.58,267.122,481.497,267.491z"/>
	<path opacity="0.1" d="M481.397,267.392c-2.082,0.366-3.851,0.186-3.954-0.403c-0.105-0.597,1.494-1.371,3.579-1.738
		c2.084-0.369,3.854-0.185,3.959,0.406C485.081,266.247,483.48,267.021,481.397,267.392z"/>
	<g opacity="0.1">
		<path opacity="0.1" d="M481.397,267.392c-2.082,0.366-3.851,0.186-3.954-0.403c-0.105-0.597,1.494-1.371,3.579-1.738
			c2.084-0.369,3.854-0.185,3.959,0.406C485.081,266.247,483.48,267.021,481.397,267.392z"/>
	</g>
	<g>
		<path fill="#004700" d="M481.298,267.292c-2.082,0.366-3.852,0.186-3.954-0.403c-0.106-0.597,1.494-1.371,3.579-1.738
			c2.084-0.369,3.854-0.185,3.959,0.406C484.981,266.146,483.381,266.921,481.298,267.292z"/>
	</g>
	<path opacity="0.1" d="M481.505,266.457c-1.83,1.056-3.558,1.492-3.854,0.974c-0.306-0.522,0.937-1.799,2.768-2.857
		c1.833-1.059,3.56-1.491,3.859-0.97C484.575,264.123,483.335,265.399,481.505,266.457z"/>
	<path opacity="0.1" d="M481.405,266.356c-1.829,1.056-3.557,1.492-3.854,0.974c-0.306-0.522,0.936-1.799,2.767-2.857
		c1.833-1.059,3.561-1.491,3.86-0.97C484.477,264.022,483.235,265.298,481.405,266.356z"/>
	<g opacity="0.1">
		<path opacity="0.1" d="M481.405,266.356c-1.829,1.056-3.557,1.492-3.854,0.974c-0.306-0.522,0.936-1.799,2.767-2.857
			c1.833-1.059,3.561-1.491,3.86-0.97C484.477,264.022,483.235,265.298,481.405,266.356z"/>
	</g>
	<g>
		<path fill="#004700" d="M481.306,266.256c-1.83,1.056-3.557,1.492-3.854,0.974c-0.307-0.522,0.936-1.799,2.767-2.857
			c1.833-1.059,3.56-1.491,3.86-0.97C484.377,263.922,483.136,265.198,481.306,266.256z"/>
	</g>
	<path opacity="0.1" d="M481.159,265.482c-1.36,1.619-2.83,2.618-3.288,2.235c-0.467-0.387,0.263-2.01,1.624-3.632
		c1.357-1.622,2.835-2.619,3.292-2.232C483.245,262.239,482.519,263.861,481.159,265.482z"/>
	<path opacity="0.1" d="M481.06,265.381c-1.359,1.619-2.83,2.618-3.288,2.235c-0.466-0.387,0.264-2.01,1.624-3.632
		c1.358-1.622,2.835-2.619,3.292-2.232C483.146,262.139,482.419,263.761,481.06,265.381z"/>
	<g opacity="0.1">
		<path opacity="0.1" d="M481.06,265.381c-1.359,1.619-2.83,2.618-3.288,2.235c-0.466-0.387,0.264-2.01,1.624-3.632
			c1.358-1.622,2.835-2.619,3.292-2.232C483.146,262.139,482.419,263.761,481.06,265.381z"/>
	</g>
	<g>
		<path fill="#004700" d="M480.96,265.281c-1.36,1.619-2.83,2.618-3.288,2.235c-0.466-0.387,0.263-2.01,1.624-3.632
			c1.357-1.622,2.835-2.619,3.292-2.232C483.046,262.04,482.319,263.661,480.96,265.281z"/>
	</g>
	<path opacity="0.1" d="M480.5,264.686c-0.724,1.985-1.765,3.427-2.326,3.225c-0.569-0.206-0.44-1.98,0.284-3.97
		c0.724-1.988,1.768-3.429,2.331-3.222C481.352,260.925,481.222,262.698,480.5,264.686z"/>
	<path opacity="0.1" d="M480.4,264.585c-0.723,1.985-1.764,3.427-2.325,3.225c-0.569-0.206-0.44-1.98,0.283-3.97
		c0.725-1.988,1.769-3.429,2.331-3.222C481.253,260.825,481.122,262.599,480.4,264.585z"/>
	<g opacity="0.1">
		<path opacity="0.1" d="M480.4,264.585c-0.723,1.985-1.764,3.427-2.325,3.225c-0.569-0.206-0.44-1.98,0.283-3.97
			c0.725-1.988,1.769-3.429,2.331-3.222C481.253,260.825,481.122,262.599,480.4,264.585z"/>
	</g>
	<g>
		<path fill="#004700" d="M480.301,264.484c-0.723,1.985-1.764,3.427-2.326,3.225c-0.569-0.206-0.439-1.98,0.284-3.97
			c0.724-1.988,1.768-3.429,2.331-3.222C481.152,260.725,481.022,262.499,480.301,264.484z"/>
	</g>
	<path opacity="0.1" d="M479.608,264.16c-0.001,2.115-0.484,3.826-1.081,3.828c-0.605,0.001-1.093-1.711-1.091-3.829
		c-0.002-2.114,0.487-3.826,1.086-3.826C479.121,260.336,479.607,262.048,479.608,264.16z"/>
	<path opacity="0.1" d="M479.509,264.061c-0.001,2.115-0.485,3.826-1.081,3.828c-0.606,0.001-1.093-1.711-1.091-3.829
		c-0.002-2.114,0.486-3.826,1.086-3.826C479.021,260.236,479.508,261.948,479.509,264.061z"/>
	<g opacity="0.1">
		<path opacity="0.1" d="M479.509,264.061c-0.001,2.115-0.485,3.826-1.081,3.828c-0.606,0.001-1.093-1.711-1.091-3.829
			c-0.002-2.114,0.486-3.826,1.086-3.826C479.021,260.236,479.508,261.948,479.509,264.061z"/>
	</g>
	<g>
		<path fill="#004700" d="M479.409,263.96c-0.002,2.115-0.485,3.826-1.081,3.828c-0.606,0.001-1.094-1.711-1.092-3.829
			c-0.002-2.114,0.487-3.826,1.086-3.826C478.922,260.136,479.409,261.849,479.409,263.96z"/>
	</g>
	<circle opacity="0.1" cx="478.534" cy="267.289" r="1.246"/>
	<circle fill="#004700" cx="478.435" cy="267.189" r="1.246"/>
</g>
<path opacity="0.1" d="M529.761,205.596c0,0,19.396-1.29,15.239,34.54c0,0,2.771,16.78,3.811,19.897
	c1.038,3.117,7.002,41.043-23.203,41.043c-14.389,0-17.505-19.911-13.773-28.384c2.833-6.437,3.604-14.164,4.767-21.145
	c1.893-11.351-2.322-21.32,0.014-32.517C518.041,212.183,522.1,205.895,529.761,205.596z"/>
<path fill="#444444" d="M528.761,204.596c0,0,19.396-1.29,15.239,34.54c0,0,2.771,16.78,3.811,19.897
	c1.038,3.117,7.002,41.042-23.203,41.042c-14.389,0-17.505-19.911-13.773-28.384c2.833-6.437,3.604-14.164,4.767-21.145
	c1.893-11.351-2.322-21.32,0.014-32.517C517.041,211.183,521.1,204.895,528.761,204.596z"/>
<path opacity="0.1" d="M531.529,261.257c-2.5,1.853-5.247,3.647-8.226,5.298c-3.42-3.303-6.006-6.343-7.722-8.538
	c0.347-2.187,0.666-4.363,1.018-6.471c0.227-1.354,0.359-2.687,0.434-4.005C520.127,251.258,525.005,256.424,531.529,261.257z"/>
<path opacity="0.1" d="M511.834,272.692c0.182-0.412,0.333-0.843,0.498-1.265c3.95-1.335,7.61-3.006,10.973-4.872
	c2.979-1.651,5.726-3.446,8.226-5.298c6.667-4.938,11.617-10.226,14.698-13.958c0.597,3.371,1.305,7.224,1.881,9.9
	c-1.682,2.216-4.483,5.619-8.354,9.356c-2.354,2.273-5.1,4.662-8.226,6.976c-5.732,4.246-12.741,8.218-20.93,10.724
	C510.076,279.897,510.548,275.615,511.834,272.692z"/>
<path opacity="0.1" d="M539.755,266.555c3.146,1.746,6.555,3.317,10.217,4.607c0.007,3.65-0.33,7.787-1.349,11.799
	c-6.562-2.477-12.274-5.861-17.094-9.43C534.655,271.217,537.4,268.828,539.755,266.555z"/>
<path fill="#161616" d="M530.529,260.257c-2.5,1.853-5.247,3.647-8.226,5.298c-3.42-3.303-6.006-6.343-7.722-8.538
	c0.347-2.187,0.666-4.363,1.018-6.471c0.227-1.354,0.359-2.687,0.434-4.005C519.127,250.258,524.005,255.424,530.529,260.257z"/>
<path fill="#161616" d="M510.834,271.692c0.182-0.412,0.333-0.843,0.498-1.265c3.95-1.335,7.61-3.006,10.973-4.872
	c2.979-1.651,5.726-3.446,8.226-5.298c6.667-4.938,11.616-10.226,14.698-13.958c0.597,3.371,1.305,7.224,1.881,9.9
	c-1.682,2.216-4.483,5.619-8.354,9.356c-2.354,2.273-5.1,4.662-8.226,6.976c-5.732,4.246-12.741,8.218-20.93,10.724
	C509.076,278.897,509.548,274.615,510.834,271.692z"/>
<path fill="#161616" d="M538.755,265.555c3.146,1.746,6.555,3.317,10.217,4.607c0.007,3.65-0.33,7.787-1.349,11.799
	c-6.562-2.477-12.274-5.861-17.094-9.43C533.655,270.217,536.4,267.828,538.755,265.555z"/>
<g>
	<ellipse opacity="0.1" cx="530.346" cy="263.519" rx="1.468" ry="5.171"/>
	<ellipse opacity="0.1" cx="530.245" cy="263.419" rx="1.469" ry="5.171"/>
	<g opacity="0.1">
		<ellipse opacity="0.1" cx="530.245" cy="263.419" rx="1.469" ry="5.171"/>
	</g>
	<g>
		<ellipse fill="#004700" cx="530.146" cy="263.319" rx="1.468" ry="5.171"/>
	</g>
	
		<ellipse transform="matrix(-0.342 0.9397 -0.9397 -0.342 961.3033 -145.5582)" opacity="0.1" cx="531.613" cy="263.784" rx="5.171" ry="1.469"/>
	
		<ellipse transform="matrix(-0.3419 0.9397 -0.9397 -0.3419 961.0463 -145.6309)" opacity="0.1" cx="531.514" cy="263.684" rx="5.171" ry="1.469"/>
	<g opacity="0.1">
		
			<ellipse transform="matrix(-0.3419 0.9397 -0.9397 -0.3419 961.0463 -145.6309)" opacity="0.1" cx="531.514" cy="263.684" rx="5.171" ry="1.469"/>
	</g>
	<g>
		
			<ellipse transform="matrix(-0.342 0.9397 -0.9397 -0.342 960.8542 -145.6331)" fill="#004700" cx="531.414" cy="263.584" rx="5.171" ry="1.47"/>
	</g>
	
		<ellipse transform="matrix(-0.6432 0.7657 -0.7657 -0.6432 1077.9548 26.5876)" opacity="0.1" cx="532.783" cy="264.429" rx="5.171" ry="1.468"/>
	
		<ellipse transform="matrix(-0.6432 0.7657 -0.7657 -0.6432 1077.6887 26.4426)" opacity="0.1" cx="532.683" cy="264.329" rx="5.171" ry="1.468"/>
	<g opacity="0.1">
		
			<ellipse transform="matrix(-0.6432 0.7657 -0.7657 -0.6432 1077.6887 26.4426)" opacity="0.1" cx="532.683" cy="264.329" rx="5.171" ry="1.468"/>
	</g>
	<g>
		
			<ellipse transform="matrix(-0.6432 0.7657 -0.7657 -0.6432 1077.4487 26.3552)" fill="#004700" cx="532.583" cy="264.229" rx="5.171" ry="1.468"/>
	</g>
	
		<ellipse transform="matrix(-0.866 0.5 -0.5 -0.866 1128.3507 228.593)" opacity="0.1" cx="533.548" cy="265.474" rx="5.17" ry="1.468"/>
	
		<ellipse transform="matrix(-0.866 0.5 -0.5 -0.866 1128.1145 228.4551)" opacity="0.1" cx="533.449" cy="265.373" rx="5.17" ry="1.468"/>
	<g opacity="0.1">
		
			<ellipse transform="matrix(-0.866 0.5 -0.5 -0.866 1128.1145 228.4551)" opacity="0.1" cx="533.449" cy="265.373" rx="5.17" ry="1.468"/>
	</g>
	<g>
		
			<ellipse transform="matrix(-0.866 0.5 -0.5 -0.866 1127.8787 228.3181)" fill="#004700" cx="533.349" cy="265.273" rx="5.17" ry="1.468"/>
	</g>
	<path opacity="0.1" d="M533.748,265.252c-2.81,0.497-4.977,1.544-4.836,2.342c0.143,0.801,2.535,1.046,5.348,0.548
		c2.814-0.494,4.979-1.543,4.839-2.343C538.956,265.001,536.562,264.755,533.748,265.252z"/>
	<path opacity="0.1" d="M533.648,265.152c-2.81,0.497-4.977,1.544-4.836,2.342c0.142,0.801,2.535,1.046,5.347,0.548
		c2.815-0.494,4.98-1.543,4.839-2.343C538.856,264.901,536.463,264.655,533.648,265.152z"/>
	<g opacity="0.1">
		<path opacity="0.1" d="M533.648,265.152c-2.81,0.497-4.977,1.544-4.836,2.342c0.142,0.801,2.535,1.046,5.347,0.548
			c2.815-0.494,4.98-1.543,4.839-2.343C538.856,264.901,536.463,264.655,533.648,265.152z"/>
	</g>
	<g>
		<path fill="#004700" d="M533.549,265.051c-2.811,0.497-4.978,1.544-4.836,2.342c0.142,0.801,2.534,1.046,5.347,0.548
			c2.814-0.494,4.979-1.543,4.839-2.343C538.757,264.801,536.363,264.555,533.549,265.051z"/>
	</g>
	<path opacity="0.1" d="M534.236,266.561c-2.811-0.495-5.204-0.25-5.346,0.546c-0.143,0.802,2.023,1.851,4.837,2.345
		c2.812,0.499,5.208,0.252,5.347-0.548C539.216,268.105,537.051,267.056,534.236,266.561z"/>
	<path opacity="0.1" d="M534.137,266.46c-2.812-0.495-5.204-0.25-5.347,0.546c-0.142,0.802,2.024,1.851,4.837,2.345
		c2.813,0.499,5.209,0.252,5.348-0.548C539.116,268.005,536.951,266.956,534.137,266.46z"/>
	<g opacity="0.1">
		<path opacity="0.1" d="M534.137,266.46c-2.812-0.495-5.204-0.25-5.347,0.546c-0.142,0.802,2.024,1.851,4.837,2.345
			c2.813,0.499,5.209,0.252,5.348-0.548C539.116,268.005,536.951,266.956,534.137,266.46z"/>
	</g>
	<g>
		<path fill="#004700" d="M534.037,266.36c-2.811-0.495-5.203-0.25-5.346,0.546c-0.142,0.802,2.024,1.851,4.837,2.345
			c2.813,0.499,5.208,0.252,5.347-0.548C539.017,267.905,536.852,266.856,534.037,266.36z"/>
	</g>
	<path opacity="0.1" d="M534.247,267.957c-2.472-1.426-4.805-2.015-5.209-1.312c-0.407,0.705,1.27,2.43,3.742,3.858
		c2.475,1.43,4.809,2.018,5.212,1.313C538.396,271.112,536.721,269.385,534.247,267.957z"/>
	<path opacity="0.1" d="M534.147,267.857c-2.472-1.426-4.805-2.015-5.209-1.313c-0.408,0.705,1.269,2.43,3.742,3.858
		c2.474,1.43,4.808,2.018,5.212,1.313C538.297,271.011,536.621,269.285,534.147,267.857z"/>
	<g opacity="0.1">
		<path opacity="0.1" d="M534.147,267.857c-2.472-1.426-4.805-2.015-5.209-1.313c-0.408,0.705,1.269,2.43,3.742,3.858
			c2.474,1.43,4.808,2.018,5.212,1.313C538.297,271.011,536.621,269.285,534.147,267.857z"/>
	</g>
	<g>
		<path fill="#004700" d="M534.048,267.757c-2.473-1.426-4.806-2.015-5.209-1.313c-0.408,0.705,1.269,2.43,3.741,3.858
			c2.475,1.43,4.809,2.018,5.212,1.313C538.197,270.911,536.521,269.186,534.048,267.757z"/>
	</g>
	<path opacity="0.1" d="M533.779,269.273c-1.834-2.186-3.825-3.537-4.443-3.016c-0.625,0.522,0.358,2.718,2.195,4.905
		c1.836,2.19,3.828,3.54,4.449,3.016C536.6,273.656,535.615,271.461,533.779,269.273z"/>
	<path opacity="0.1" d="M533.68,269.173c-1.834-2.186-3.825-3.537-4.444-3.016c-0.625,0.522,0.359,2.718,2.196,4.905
		c1.836,2.19,3.828,3.54,4.449,3.016C536.5,273.556,535.516,271.361,533.68,269.173z"/>
	<g opacity="0.1">
		<path opacity="0.1" d="M533.68,269.173c-1.834-2.186-3.825-3.537-4.444-3.016c-0.625,0.522,0.359,2.718,2.196,4.905
			c1.836,2.19,3.828,3.54,4.449,3.016C536.5,273.556,535.516,271.361,533.68,269.173z"/>
	</g>
	<g>
		<path fill="#004700" d="M533.58,269.073c-1.834-2.186-3.824-3.537-4.443-3.016c-0.625,0.522,0.358,2.718,2.195,4.905
			c1.836,2.19,3.828,3.54,4.449,3.016C536.4,273.456,535.416,271.261,533.58,269.073z"/>
	</g>
	<path opacity="0.1" d="M532.891,270.349c-0.979-2.682-2.386-4.631-3.146-4.354c-0.766,0.277-0.592,2.677,0.388,5.361
		c0.977,2.686,2.387,4.636,3.147,4.356C534.041,275.434,533.865,273.034,532.891,270.349z"/>
	<path opacity="0.1" d="M532.791,270.25c-0.978-2.682-2.386-4.631-3.146-4.354c-0.766,0.277-0.592,2.677,0.387,5.361
		c0.978,2.686,2.388,4.636,3.148,4.356C533.941,275.334,533.766,272.934,532.791,270.25z"/>
	<g opacity="0.1">
		<path opacity="0.1" d="M532.791,270.25c-0.978-2.682-2.386-4.631-3.146-4.354c-0.766,0.277-0.592,2.677,0.387,5.361
			c0.978,2.686,2.388,4.636,3.148,4.356C533.941,275.334,533.766,272.934,532.791,270.25z"/>
	</g>
	<g>
		<path fill="#004700" d="M532.691,270.149c-0.978-2.682-2.386-4.631-3.146-4.354c-0.767,0.277-0.593,2.677,0.387,5.361
			c0.977,2.686,2.387,4.636,3.147,4.356C533.842,275.234,533.666,272.834,532.691,270.149z"/>
	</g>
	<path opacity="0.1" d="M531.685,271.057c-0.001-2.854-0.656-5.168-1.464-5.168c-0.815-0.001-1.474,2.314-1.474,5.171
		c0,2.859,0.658,5.172,1.47,5.17C531.028,276.229,531.684,273.914,531.685,271.057z"/>
	<path opacity="0.1" d="M531.586,270.957c-0.002-2.854-0.656-5.168-1.465-5.168c-0.814-0.001-1.473,2.314-1.473,5.171
		c0,2.859,0.658,5.172,1.469,5.17C530.929,276.129,531.584,273.814,531.586,270.957z"/>
	<g opacity="0.1">
		<path opacity="0.1" d="M531.586,270.957c-0.002-2.854-0.656-5.168-1.465-5.168c-0.814-0.001-1.473,2.314-1.473,5.171
			c0,2.859,0.658,5.172,1.469,5.17C530.929,276.129,531.584,273.814,531.586,270.957z"/>
	</g>
	<g>
		<path fill="#004700" d="M531.485,270.857c-0.001-2.854-0.656-5.168-1.464-5.168c-0.815-0.001-1.473,2.314-1.473,5.171
			c0,2.859,0.657,5.172,1.469,5.17C530.829,276.029,531.484,273.714,531.485,270.857z"/>
	</g>
	<path opacity="0.1" d="M530.312,271.311c0.974-2.683,1.15-5.08,0.39-5.357c-0.766-0.282-2.174,1.67-3.15,4.354
		c-0.979,2.687-1.15,5.085-0.389,5.361C527.926,275.945,529.334,273.995,530.312,271.311z"/>
	<path opacity="0.1" d="M530.213,271.21c0.974-2.683,1.149-5.08,0.39-5.357c-0.766-0.282-2.174,1.67-3.151,4.354
		c-0.979,2.687-1.149,5.085-0.388,5.361C527.826,275.845,529.234,273.896,530.213,271.21z"/>
	<g opacity="0.1">
		<path opacity="0.1" d="M530.213,271.21c0.974-2.683,1.149-5.08,0.39-5.357c-0.766-0.282-2.174,1.67-3.151,4.354
			c-0.979,2.687-1.149,5.085-0.388,5.361C527.826,275.845,529.234,273.896,530.213,271.21z"/>
	</g>
	<g>
		<path fill="#004700" d="M530.113,271.11c0.975-2.683,1.15-5.08,0.391-5.357c-0.767-0.282-2.175,1.67-3.151,4.354
			c-0.979,2.687-1.15,5.085-0.388,5.361C527.727,275.745,529.135,273.795,530.113,271.11z"/>
	</g>
	<path opacity="0.1" d="M528.934,271.079c1.835-2.188,2.818-4.381,2.2-4.901c-0.625-0.527-2.615,0.826-4.45,3.015
		c-1.84,2.19-2.821,4.385-2.199,4.905C525.105,274.616,527.096,273.266,528.934,271.079z"/>
	<path opacity="0.1" d="M528.834,270.979c1.836-2.188,2.819-4.381,2.2-4.901c-0.625-0.527-2.614,0.826-4.45,3.015
		c-1.84,2.19-2.82,4.385-2.198,4.905C525.006,274.516,526.996,273.167,528.834,270.979z"/>
	<g opacity="0.1">
		<path opacity="0.1" d="M528.834,270.979c1.836-2.188,2.819-4.381,2.2-4.901c-0.625-0.527-2.614,0.826-4.45,3.015
			c-1.84,2.19-2.82,4.385-2.198,4.905C525.006,274.516,526.996,273.167,528.834,270.979z"/>
	</g>
	<g>
		<path fill="#004700" d="M528.734,270.879c1.835-2.188,2.819-4.381,2.2-4.901c-0.625-0.527-2.615,0.826-4.45,3.015
			c-1.84,2.19-2.821,4.385-2.199,4.905C524.906,274.417,526.896,273.066,528.734,270.879z"/>
	</g>
	<path opacity="0.1" d="M527.719,270.389c2.472-1.429,4.146-3.152,3.744-3.853c-0.407-0.709-2.739-0.118-5.215,1.31
		c-2.477,1.429-4.15,3.156-3.743,3.858C522.912,272.404,525.244,271.816,527.719,270.389z"/>
	<path opacity="0.1" d="M527.619,270.289c2.473-1.429,4.147-3.152,3.744-3.853c-0.407-0.709-2.739-0.118-5.214,1.31
		c-2.477,1.429-4.151,3.156-3.744,3.858C522.812,272.304,525.145,271.716,527.619,270.289z"/>
	<g opacity="0.1">
		<path opacity="0.1" d="M527.619,270.289c2.473-1.429,4.147-3.152,3.744-3.853c-0.407-0.709-2.739-0.118-5.214,1.31
			c-2.477,1.429-4.151,3.156-3.744,3.858C522.812,272.304,525.145,271.716,527.619,270.289z"/>
	</g>
	<g>
		<path fill="#004700" d="M527.52,270.189c2.472-1.429,4.146-3.152,3.744-3.853c-0.407-0.709-2.739-0.118-5.214,1.31
			c-2.478,1.429-4.151,3.156-3.744,3.858C522.713,272.204,525.045,271.616,527.52,270.189z"/>
	</g>
	<path opacity="0.1" d="M526.812,269.326c2.812-0.496,4.978-1.544,4.836-2.339c-0.138-0.806-2.531-1.048-5.346-0.552
		c-2.817,0.495-4.98,1.547-4.839,2.346C521.607,269.576,523.998,269.82,526.812,269.326z"/>
	<path opacity="0.1" d="M526.711,269.226c2.813-0.496,4.979-1.544,4.837-2.339c-0.139-0.806-2.531-1.048-5.347-0.552
		c-2.816,0.495-4.979,1.547-4.839,2.346C521.508,269.476,523.898,269.72,526.711,269.226z"/>
	<g opacity="0.1">
		<path opacity="0.1" d="M526.711,269.226c2.813-0.496,4.979-1.544,4.837-2.339c-0.139-0.806-2.531-1.048-5.347-0.552
			c-2.816,0.495-4.979,1.547-4.839,2.346C521.508,269.476,523.898,269.72,526.711,269.226z"/>
	</g>
	<g>
		<path fill="#004700" d="M526.612,269.126c2.813-0.496,4.979-1.544,4.836-2.339c-0.138-0.806-2.531-1.048-5.346-0.552
			c-2.817,0.495-4.98,1.547-4.839,2.346C521.408,269.376,523.799,269.62,526.612,269.126z"/>
	</g>
	<path opacity="0.1" d="M526.324,268.017c2.812,0.495,5.204,0.25,5.346-0.545c0.145-0.805-2.021-1.851-4.838-2.347
		c-2.812-0.5-5.207-0.25-5.348,0.55C521.349,266.472,523.512,267.52,526.324,268.017z"/>
	<path opacity="0.1" d="M526.225,267.917c2.812,0.495,5.204,0.25,5.345-0.545c0.146-0.805-2.021-1.851-4.837-2.347
		c-2.812-0.5-5.207-0.25-5.348,0.55C521.249,266.372,523.412,267.419,526.225,267.917z"/>
	<g opacity="0.1">
		<path opacity="0.1" d="M526.225,267.917c2.812,0.495,5.204,0.25,5.345-0.545c0.146-0.805-2.021-1.851-4.837-2.347
			c-2.812-0.5-5.207-0.25-5.348,0.55C521.249,266.372,523.412,267.419,526.225,267.917z"/>
	</g>
	<g>
		<path fill="#004700" d="M526.125,267.817c2.812,0.495,5.204,0.25,5.346-0.545c0.145-0.805-2.021-1.851-4.837-2.347
			c-2.813-0.5-5.207-0.25-5.349,0.55C521.149,266.272,523.312,267.319,526.125,267.817z"/>
	</g>
	<path opacity="0.1" d="M526.313,266.619c2.475,1.427,4.805,2.015,5.209,1.316c0.412-0.707-1.265-2.431-3.741-3.861
		c-2.476-1.43-4.81-2.015-5.213-1.312C522.167,263.467,523.842,265.19,526.313,266.619z"/>
	<path opacity="0.1" d="M526.214,266.52c2.475,1.427,4.805,2.015,5.209,1.316c0.411-0.707-1.266-2.431-3.741-3.861
		c-2.477-1.43-4.811-2.015-5.213-1.312C522.067,263.366,523.742,265.09,526.214,266.52z"/>
	<g opacity="0.1">
		<path opacity="0.1" d="M526.214,266.52c2.475,1.427,4.805,2.015,5.209,1.316c0.411-0.707-1.266-2.431-3.741-3.861
			c-2.477-1.43-4.811-2.015-5.213-1.312C522.067,263.366,523.742,265.09,526.214,266.52z"/>
	</g>
	<g>
		<path fill="#004700" d="M526.114,266.419c2.476,1.427,4.806,2.015,5.209,1.316c0.412-0.707-1.265-2.431-3.741-3.861
			c-2.476-1.43-4.81-2.015-5.213-1.312C521.968,263.266,523.643,264.99,526.114,266.419z"/>
	</g>
	<path opacity="0.1" d="M526.782,265.302c1.837,2.188,3.825,3.537,4.444,3.02c0.628-0.523-0.356-2.718-2.196-4.908
		c-1.835-2.19-3.828-3.538-4.45-3.015C523.965,260.922,524.946,263.113,526.782,265.302z"/>
	<path opacity="0.1" d="M526.683,265.202c1.837,2.188,3.825,3.537,4.443,3.02c0.628-0.523-0.355-2.718-2.195-4.908
		c-1.835-2.19-3.828-3.538-4.45-3.015C523.865,260.822,524.847,263.013,526.683,265.202z"/>
	<g opacity="0.1">
		<path opacity="0.1" d="M526.683,265.202c1.837,2.188,3.825,3.537,4.443,3.02c0.628-0.523-0.355-2.718-2.195-4.908
			c-1.835-2.19-3.828-3.538-4.45-3.015C523.865,260.822,524.847,263.013,526.683,265.202z"/>
	</g>
	<g>
		<path fill="#004700" d="M526.583,265.103c1.837,2.188,3.825,3.537,4.444,3.02c0.628-0.523-0.355-2.718-2.196-4.908
			c-1.835-2.19-3.827-3.538-4.449-3.015C523.766,260.722,524.747,262.913,526.583,265.103z"/>
	</g>
	<path opacity="0.1" d="M527.673,264.225c0.979,2.685,2.383,4.633,3.144,4.358c0.77-0.277,0.594-2.676-0.385-5.364
		c-0.978-2.686-2.389-4.634-3.15-4.355C526.523,259.146,526.696,261.542,527.673,264.225z"/>
	<path opacity="0.1" d="M527.573,264.125c0.979,2.685,2.383,4.633,3.145,4.358c0.77-0.277,0.594-2.676-0.386-5.364
		c-0.977-2.686-2.388-4.634-3.149-4.355C526.424,259.045,526.597,261.442,527.573,264.125z"/>
	<g opacity="0.1">
		<path opacity="0.1" d="M527.573,264.125c0.979,2.685,2.383,4.633,3.145,4.358c0.77-0.277,0.594-2.676-0.386-5.364
			c-0.977-2.686-2.388-4.634-3.149-4.355C526.424,259.045,526.597,261.442,527.573,264.125z"/>
	</g>
	<g>
		<path fill="#004700" d="M527.474,264.025c0.979,2.685,2.383,4.633,3.144,4.358c0.771-0.277,0.594-2.676-0.385-5.364
			c-0.977-2.686-2.388-4.634-3.15-4.355C526.324,258.945,526.497,261.342,527.474,264.025z"/>
	</g>
	
		<ellipse transform="matrix(-0.342 0.9397 -0.9397 -0.342 961.3033 -145.5582)" opacity="0.1" cx="531.613" cy="263.784" rx="5.171" ry="1.469"/>
	
		<ellipse transform="matrix(-0.3419 0.9397 -0.9397 -0.3419 961.0463 -145.6309)" opacity="0.1" cx="531.514" cy="263.684" rx="5.171" ry="1.469"/>
	<g opacity="0.1">
		
			<ellipse transform="matrix(-0.3419 0.9397 -0.9397 -0.3419 961.0463 -145.6309)" opacity="0.1" cx="531.514" cy="263.684" rx="5.171" ry="1.469"/>
	</g>
	<g>
		
			<ellipse transform="matrix(-0.342 0.9397 -0.9397 -0.342 960.8542 -145.6331)" fill="#004700" cx="531.414" cy="263.584" rx="5.171" ry="1.47"/>
	</g>
	
		<ellipse transform="matrix(-0.6432 0.7657 -0.7657 -0.6432 1077.9548 26.5876)" opacity="0.1" cx="532.783" cy="264.429" rx="5.171" ry="1.468"/>
	
		<ellipse transform="matrix(-0.6432 0.7657 -0.7657 -0.6432 1077.6887 26.4426)" opacity="0.1" cx="532.683" cy="264.329" rx="5.171" ry="1.468"/>
	<g opacity="0.1">
		
			<ellipse transform="matrix(-0.6432 0.7657 -0.7657 -0.6432 1077.6887 26.4426)" opacity="0.1" cx="532.683" cy="264.329" rx="5.171" ry="1.468"/>
	</g>
	<g>
		
			<ellipse transform="matrix(-0.6432 0.7657 -0.7657 -0.6432 1077.4487 26.3552)" fill="#004700" cx="532.583" cy="264.229" rx="5.171" ry="1.468"/>
	</g>
	
		<ellipse transform="matrix(-0.866 0.5 -0.5 -0.866 1128.3507 228.593)" opacity="0.1" cx="533.548" cy="265.474" rx="5.17" ry="1.468"/>
	
		<ellipse transform="matrix(-0.866 0.5 -0.5 -0.866 1128.1145 228.4551)" opacity="0.1" cx="533.449" cy="265.373" rx="5.17" ry="1.468"/>
	<g opacity="0.1">
		
			<ellipse transform="matrix(-0.866 0.5 -0.5 -0.866 1128.1145 228.4551)" opacity="0.1" cx="533.449" cy="265.373" rx="5.17" ry="1.468"/>
	</g>
	<g>
		
			<ellipse transform="matrix(-0.866 0.5 -0.5 -0.866 1127.8787 228.3181)" fill="#004700" cx="533.349" cy="265.273" rx="5.17" ry="1.468"/>
	</g>
	<path opacity="0.1" d="M533.748,265.252c-2.81,0.497-4.977,1.544-4.836,2.342c0.143,0.801,2.535,1.046,5.348,0.548
		c2.814-0.494,4.979-1.543,4.839-2.343C538.956,265.001,536.562,264.755,533.748,265.252z"/>
	<path opacity="0.1" d="M533.648,265.152c-2.81,0.497-4.977,1.544-4.836,2.342c0.142,0.801,2.535,1.046,5.347,0.548
		c2.815-0.494,4.98-1.543,4.839-2.343C538.856,264.901,536.463,264.655,533.648,265.152z"/>
	<g opacity="0.1">
		<path opacity="0.1" d="M533.648,265.152c-2.81,0.497-4.977,1.544-4.836,2.342c0.142,0.801,2.535,1.046,5.347,0.548
			c2.815-0.494,4.98-1.543,4.839-2.343C538.856,264.901,536.463,264.655,533.648,265.152z"/>
	</g>
	<g>
		<path fill="#004700" d="M533.549,265.051c-2.811,0.497-4.978,1.544-4.836,2.342c0.142,0.801,2.534,1.046,5.347,0.548
			c2.814-0.494,4.979-1.543,4.839-2.343C538.757,264.801,536.363,264.555,533.549,265.051z"/>
	</g>
	<path opacity="0.1" d="M534.236,266.561c-2.811-0.495-5.204-0.25-5.346,0.546c-0.143,0.802,2.023,1.851,4.837,2.345
		c2.812,0.499,5.208,0.252,5.347-0.548C539.216,268.105,537.051,267.056,534.236,266.561z"/>
	<path opacity="0.1" d="M534.137,266.46c-2.812-0.495-5.204-0.25-5.347,0.546c-0.142,0.802,2.024,1.851,4.837,2.345
		c2.813,0.499,5.209,0.252,5.348-0.548C539.116,268.005,536.951,266.956,534.137,266.46z"/>
	<g opacity="0.1">
		<path opacity="0.1" d="M534.137,266.46c-2.812-0.495-5.204-0.25-5.347,0.546c-0.142,0.802,2.024,1.851,4.837,2.345
			c2.813,0.499,5.209,0.252,5.348-0.548C539.116,268.005,536.951,266.956,534.137,266.46z"/>
	</g>
	<g>
		<path fill="#004700" d="M534.037,266.36c-2.811-0.495-5.203-0.25-5.346,0.546c-0.142,0.802,2.024,1.851,4.837,2.345
			c2.813,0.499,5.208,0.252,5.347-0.548C539.017,267.905,536.852,266.856,534.037,266.36z"/>
	</g>
	<path opacity="0.1" d="M534.247,267.957c-2.472-1.426-4.805-2.015-5.209-1.312c-0.407,0.705,1.27,2.43,3.742,3.858
		c2.475,1.43,4.809,2.018,5.212,1.313C538.396,271.112,536.721,269.385,534.247,267.957z"/>
	<path opacity="0.1" d="M534.147,267.857c-2.472-1.426-4.805-2.015-5.209-1.313c-0.408,0.705,1.269,2.43,3.742,3.858
		c2.474,1.43,4.808,2.018,5.212,1.313C538.297,271.011,536.621,269.285,534.147,267.857z"/>
	<g opacity="0.1">
		<path opacity="0.1" d="M534.147,267.857c-2.472-1.426-4.805-2.015-5.209-1.313c-0.408,0.705,1.269,2.43,3.742,3.858
			c2.474,1.43,4.808,2.018,5.212,1.313C538.297,271.011,536.621,269.285,534.147,267.857z"/>
	</g>
	<g>
		<path fill="#004700" d="M534.048,267.757c-2.473-1.426-4.806-2.015-5.209-1.313c-0.408,0.705,1.269,2.43,3.741,3.858
			c2.475,1.43,4.809,2.018,5.212,1.313C538.197,270.911,536.521,269.186,534.048,267.757z"/>
	</g>
	<path opacity="0.1" d="M533.779,269.273c-1.834-2.186-3.825-3.537-4.443-3.016c-0.625,0.522,0.358,2.718,2.195,4.905
		c1.836,2.19,3.828,3.54,4.449,3.016C536.6,273.656,535.615,271.461,533.779,269.273z"/>
	<path opacity="0.1" d="M533.68,269.173c-1.834-2.186-3.825-3.537-4.444-3.016c-0.625,0.522,0.359,2.718,2.196,4.905
		c1.836,2.19,3.828,3.54,4.449,3.016C536.5,273.556,535.516,271.361,533.68,269.173z"/>
	<g opacity="0.1">
		<path opacity="0.1" d="M533.68,269.173c-1.834-2.186-3.825-3.537-4.444-3.016c-0.625,0.522,0.359,2.718,2.196,4.905
			c1.836,2.19,3.828,3.54,4.449,3.016C536.5,273.556,535.516,271.361,533.68,269.173z"/>
	</g>
	<g>
		<path fill="#004700" d="M533.58,269.073c-1.834-2.186-3.824-3.537-4.443-3.016c-0.625,0.522,0.358,2.718,2.195,4.905
			c1.836,2.19,3.828,3.54,4.449,3.016C536.4,273.456,535.416,271.261,533.58,269.073z"/>
	</g>
	<path opacity="0.1" d="M532.891,270.349c-0.979-2.682-2.386-4.631-3.146-4.354c-0.766,0.277-0.592,2.677,0.388,5.361
		c0.977,2.686,2.387,4.636,3.147,4.356C534.041,275.434,533.865,273.034,532.891,270.349z"/>
	<path opacity="0.1" d="M532.791,270.25c-0.978-2.682-2.386-4.631-3.146-4.354c-0.766,0.277-0.592,2.677,0.387,5.361
		c0.978,2.686,2.388,4.636,3.148,4.356C533.941,275.334,533.766,272.934,532.791,270.25z"/>
	<g opacity="0.1">
		<path opacity="0.1" d="M532.791,270.25c-0.978-2.682-2.386-4.631-3.146-4.354c-0.766,0.277-0.592,2.677,0.387,5.361
			c0.978,2.686,2.388,4.636,3.148,4.356C533.941,275.334,533.766,272.934,532.791,270.25z"/>
	</g>
	<g>
		<path fill="#004700" d="M532.691,270.149c-0.978-2.682-2.386-4.631-3.146-4.354c-0.767,0.277-0.593,2.677,0.387,5.361
			c0.977,2.686,2.387,4.636,3.147,4.356C533.842,275.234,533.666,272.834,532.691,270.149z"/>
	</g>
	<path opacity="0.1" d="M531.685,271.057c-0.001-2.854-0.656-5.168-1.464-5.168c-0.815-0.001-1.474,2.314-1.474,5.171
		c0,2.859,0.658,5.172,1.47,5.17C531.028,276.229,531.684,273.914,531.685,271.057z"/>
	<path opacity="0.1" d="M531.586,270.957c-0.002-2.854-0.656-5.168-1.465-5.168c-0.814-0.001-1.473,2.314-1.473,5.171
		c0,2.859,0.658,5.172,1.469,5.17C530.929,276.129,531.584,273.814,531.586,270.957z"/>
	<g opacity="0.1">
		<path opacity="0.1" d="M531.586,270.957c-0.002-2.854-0.656-5.168-1.465-5.168c-0.814-0.001-1.473,2.314-1.473,5.171
			c0,2.859,0.658,5.172,1.469,5.17C530.929,276.129,531.584,273.814,531.586,270.957z"/>
	</g>
	<g>
		<path fill="#004700" d="M531.485,270.857c-0.001-2.854-0.656-5.168-1.464-5.168c-0.815-0.001-1.473,2.314-1.473,5.171
			c0,2.859,0.657,5.172,1.469,5.17C530.829,276.029,531.484,273.714,531.485,270.857z"/>
	</g>
	<path opacity="0.1" d="M530.312,271.311c0.974-2.683,1.15-5.08,0.39-5.357c-0.766-0.282-2.174,1.67-3.15,4.354
		c-0.979,2.687-1.15,5.085-0.389,5.361C527.926,275.945,529.334,273.995,530.312,271.311z"/>
	<path opacity="0.1" d="M530.213,271.21c0.974-2.683,1.149-5.08,0.39-5.357c-0.766-0.282-2.174,1.67-3.151,4.354
		c-0.979,2.687-1.149,5.085-0.388,5.361C527.826,275.845,529.234,273.896,530.213,271.21z"/>
	<g opacity="0.1">
		<path opacity="0.1" d="M530.213,271.21c0.974-2.683,1.149-5.08,0.39-5.357c-0.766-0.282-2.174,1.67-3.151,4.354
			c-0.979,2.687-1.149,5.085-0.388,5.361C527.826,275.845,529.234,273.896,530.213,271.21z"/>
	</g>
	<g>
		<path fill="#004700" d="M530.113,271.11c0.975-2.683,1.15-5.08,0.391-5.357c-0.767-0.282-2.175,1.67-3.151,4.354
			c-0.979,2.687-1.15,5.085-0.388,5.361C527.727,275.745,529.135,273.795,530.113,271.11z"/>
	</g>
	<path opacity="0.1" d="M528.934,271.079c1.835-2.188,2.818-4.381,2.2-4.901c-0.625-0.527-2.615,0.826-4.45,3.015
		c-1.84,2.19-2.821,4.385-2.199,4.905C525.105,274.616,527.096,273.266,528.934,271.079z"/>
	<path opacity="0.1" d="M528.834,270.979c1.836-2.188,2.819-4.381,2.2-4.901c-0.625-0.527-2.614,0.826-4.45,3.015
		c-1.84,2.19-2.82,4.385-2.198,4.905C525.006,274.516,526.996,273.167,528.834,270.979z"/>
	<g opacity="0.1">
		<path opacity="0.1" d="M528.834,270.979c1.836-2.188,2.819-4.381,2.2-4.901c-0.625-0.527-2.614,0.826-4.45,3.015
			c-1.84,2.19-2.82,4.385-2.198,4.905C525.006,274.516,526.996,273.167,528.834,270.979z"/>
	</g>
	<g>
		<path fill="#004700" d="M528.734,270.879c1.835-2.188,2.819-4.381,2.2-4.901c-0.625-0.527-2.615,0.826-4.45,3.015
			c-1.84,2.19-2.821,4.385-2.199,4.905C524.906,274.417,526.896,273.066,528.734,270.879z"/>
	</g>
	<path opacity="0.1" d="M527.719,270.389c2.472-1.429,4.146-3.152,3.744-3.853c-0.407-0.709-2.739-0.118-5.215,1.31
		c-2.477,1.429-4.15,3.156-3.743,3.858C522.912,272.404,525.244,271.816,527.719,270.389z"/>
	<path opacity="0.1" d="M527.619,270.289c2.473-1.429,4.147-3.152,3.744-3.853c-0.407-0.709-2.739-0.118-5.214,1.31
		c-2.477,1.429-4.151,3.156-3.744,3.858C522.812,272.304,525.145,271.716,527.619,270.289z"/>
	<g opacity="0.1">
		<path opacity="0.1" d="M527.619,270.289c2.473-1.429,4.147-3.152,3.744-3.853c-0.407-0.709-2.739-0.118-5.214,1.31
			c-2.477,1.429-4.151,3.156-3.744,3.858C522.812,272.304,525.145,271.716,527.619,270.289z"/>
	</g>
	<g>
		<path fill="#004700" d="M527.52,270.189c2.472-1.429,4.146-3.152,3.744-3.853c-0.407-0.709-2.739-0.118-5.214,1.31
			c-2.478,1.429-4.151,3.156-3.744,3.858C522.713,272.204,525.045,271.616,527.52,270.189z"/>
	</g>
	<path opacity="0.1" d="M526.812,269.326c2.812-0.496,4.978-1.544,4.836-2.339c-0.138-0.806-2.531-1.048-5.346-0.552
		c-2.817,0.495-4.98,1.547-4.839,2.346C521.607,269.576,523.998,269.82,526.812,269.326z"/>
	<path opacity="0.1" d="M526.711,269.226c2.813-0.496,4.979-1.544,4.837-2.339c-0.139-0.806-2.531-1.048-5.347-0.552
		c-2.816,0.495-4.979,1.547-4.839,2.346C521.508,269.476,523.898,269.72,526.711,269.226z"/>
	<g opacity="0.1">
		<path opacity="0.1" d="M526.711,269.226c2.813-0.496,4.979-1.544,4.837-2.339c-0.139-0.806-2.531-1.048-5.347-0.552
			c-2.816,0.495-4.979,1.547-4.839,2.346C521.508,269.476,523.898,269.72,526.711,269.226z"/>
	</g>
	<g>
		<path fill="#004700" d="M526.612,269.126c2.813-0.496,4.979-1.544,4.836-2.339c-0.138-0.806-2.531-1.048-5.346-0.552
			c-2.817,0.495-4.98,1.547-4.839,2.346C521.408,269.376,523.799,269.62,526.612,269.126z"/>
	</g>
	<path opacity="0.1" d="M526.324,268.017c2.812,0.495,5.204,0.25,5.346-0.545c0.145-0.805-2.021-1.851-4.838-2.347
		c-2.812-0.5-5.207-0.25-5.348,0.55C521.349,266.472,523.512,267.52,526.324,268.017z"/>
	<path opacity="0.1" d="M526.225,267.917c2.812,0.495,5.204,0.25,5.345-0.545c0.146-0.805-2.021-1.851-4.837-2.347
		c-2.812-0.5-5.207-0.25-5.348,0.55C521.249,266.372,523.412,267.419,526.225,267.917z"/>
	<g opacity="0.1">
		<path opacity="0.1" d="M526.225,267.917c2.812,0.495,5.204,0.25,5.345-0.545c0.146-0.805-2.021-1.851-4.837-2.347
			c-2.812-0.5-5.207-0.25-5.348,0.55C521.249,266.372,523.412,267.419,526.225,267.917z"/>
	</g>
	<g>
		<path fill="#004700" d="M526.125,267.817c2.812,0.495,5.204,0.25,5.346-0.545c0.145-0.805-2.021-1.851-4.837-2.347
			c-2.813-0.5-5.207-0.25-5.349,0.55C521.149,266.272,523.312,267.319,526.125,267.817z"/>
	</g>
	<path opacity="0.1" d="M526.313,266.619c2.475,1.427,4.805,2.015,5.209,1.316c0.412-0.707-1.265-2.431-3.741-3.861
		c-2.476-1.43-4.81-2.015-5.213-1.312C522.167,263.467,523.842,265.19,526.313,266.619z"/>
	<path opacity="0.1" d="M526.214,266.52c2.475,1.427,4.805,2.015,5.209,1.316c0.411-0.707-1.266-2.431-3.741-3.861
		c-2.477-1.43-4.811-2.015-5.213-1.312C522.067,263.366,523.742,265.09,526.214,266.52z"/>
	<g opacity="0.1">
		<path opacity="0.1" d="M526.214,266.52c2.475,1.427,4.805,2.015,5.209,1.316c0.411-0.707-1.266-2.431-3.741-3.861
			c-2.477-1.43-4.811-2.015-5.213-1.312C522.067,263.366,523.742,265.09,526.214,266.52z"/>
	</g>
	<g>
		<path fill="#004700" d="M526.114,266.419c2.476,1.427,4.806,2.015,5.209,1.316c0.412-0.707-1.265-2.431-3.741-3.861
			c-2.476-1.43-4.81-2.015-5.213-1.312C521.968,263.266,523.643,264.99,526.114,266.419z"/>
	</g>
	<path opacity="0.1" d="M526.782,265.302c1.837,2.188,3.825,3.537,4.444,3.02c0.628-0.523-0.356-2.718-2.196-4.908
		c-1.835-2.19-3.828-3.538-4.45-3.015C523.965,260.922,524.946,263.113,526.782,265.302z"/>
	<path opacity="0.1" d="M526.683,265.202c1.837,2.188,3.825,3.537,4.443,3.02c0.628-0.523-0.355-2.718-2.195-4.908
		c-1.835-2.19-3.828-3.538-4.45-3.015C523.865,260.822,524.847,263.013,526.683,265.202z"/>
	<g opacity="0.1">
		<path opacity="0.1" d="M526.683,265.202c1.837,2.188,3.825,3.537,4.443,3.02c0.628-0.523-0.355-2.718-2.195-4.908
			c-1.835-2.19-3.828-3.538-4.45-3.015C523.865,260.822,524.847,263.013,526.683,265.202z"/>
	</g>
	<g>
		<path fill="#004700" d="M526.583,265.103c1.837,2.188,3.825,3.537,4.444,3.02c0.628-0.523-0.355-2.718-2.196-4.908
			c-1.835-2.19-3.827-3.538-4.449-3.015C523.766,260.722,524.747,262.913,526.583,265.103z"/>
	</g>
	<path opacity="0.1" d="M527.673,264.225c0.979,2.685,2.383,4.633,3.144,4.358c0.77-0.277,0.594-2.676-0.385-5.364
		c-0.978-2.686-2.389-4.634-3.15-4.355C526.523,259.146,526.696,261.542,527.673,264.225z"/>
	<path opacity="0.1" d="M527.573,264.125c0.979,2.685,2.383,4.633,3.145,4.358c0.77-0.277,0.594-2.676-0.386-5.364
		c-0.977-2.686-2.388-4.634-3.149-4.355C526.424,259.045,526.597,261.442,527.573,264.125z"/>
	<g opacity="0.1">
		<path opacity="0.1" d="M527.573,264.125c0.979,2.685,2.383,4.633,3.145,4.358c0.77-0.277,0.594-2.676-0.386-5.364
			c-0.977-2.686-2.388-4.634-3.149-4.355C526.424,259.045,526.597,261.442,527.573,264.125z"/>
	</g>
	<g>
		<path fill="#004700" d="M527.474,264.025c0.979,2.685,2.383,4.633,3.144,4.358c0.771-0.277,0.594-2.676-0.385-5.364
			c-0.977-2.686-2.388-4.634-3.15-4.355C526.324,258.945,526.497,261.342,527.474,264.025z"/>
	</g>
	<path opacity="0.1" d="M528.877,263.517c0.003,2.858,0.656,5.169,1.464,5.172c0.817,0.001,1.477-2.312,1.474-5.173
		c0.003-2.857-0.659-5.17-1.47-5.169C529.535,258.35,528.877,260.662,528.877,263.517z"/>
	<path opacity="0.1" d="M528.777,263.417c0.002,2.858,0.656,5.169,1.463,5.172c0.818,0.001,1.478-2.312,1.475-5.173
		c0.003-2.857-0.659-5.17-1.471-5.169C529.436,258.25,528.778,260.562,528.777,263.417z"/>
	<g opacity="0.1">
		<path opacity="0.1" d="M528.777,263.417c0.002,2.858,0.656,5.169,1.463,5.172c0.818,0.001,1.478-2.312,1.475-5.173
			c0.003-2.857-0.659-5.17-1.471-5.169C529.436,258.25,528.778,260.562,528.777,263.417z"/>
	</g>
	<g>
		<path fill="#004700" d="M528.678,263.317c0.002,2.858,0.655,5.169,1.463,5.172c0.817,0.001,1.477-2.312,1.474-5.173
			c0.003-2.857-0.659-5.17-1.47-5.169C529.336,258.15,528.679,260.462,528.678,263.317z"/>
	</g>
	
		<ellipse transform="matrix(-0.3418 0.9398 -0.9398 -0.3418 961.6627 -144.1129)" opacity="0.1" cx="531.296" cy="264.696" rx="3.827" ry="1.088"/>
	
		<ellipse transform="matrix(-0.3419 0.9397 -0.9397 -0.3419 961.4829 -144.1022)" opacity="0.1" cx="531.196" cy="264.595" rx="3.827" ry="1.088"/>
	<g opacity="0.1">
		
			<ellipse transform="matrix(-0.3419 0.9397 -0.9397 -0.3419 961.4829 -144.1022)" opacity="0.1" cx="531.196" cy="264.595" rx="3.827" ry="1.088"/>
	</g>
	<g>
		
			<ellipse transform="matrix(-0.3418 0.9398 -0.9398 -0.3418 961.2068 -144.1949)" fill="#004700" cx="531.097" cy="264.495" rx="3.827" ry="1.088"/>
	</g>
	
		<ellipse transform="matrix(-0.6432 0.7657 -0.7657 -0.6432 1077.4165 28.2771)" opacity="0.1" cx="532.12" cy="265.177" rx="3.827" ry="1.086"/>
	
		<ellipse transform="matrix(-0.6432 0.7657 -0.7657 -0.6432 1077.1844 28.2125)" opacity="0.1" cx="532.019" cy="265.078" rx="3.827" ry="1.086"/>
	<g opacity="0.1">
		
			<ellipse transform="matrix(-0.6432 0.7657 -0.7657 -0.6432 1077.1844 28.2125)" opacity="0.1" cx="532.019" cy="265.078" rx="3.827" ry="1.086"/>
	</g>
	<g>
		
			<ellipse transform="matrix(-0.6432 0.7657 -0.7657 -0.6432 1076.9362 28.1015)" fill="#004700" cx="531.92" cy="264.978" rx="3.827" ry="1.086"/>
	</g>
	
		<ellipse transform="matrix(-0.8662 0.4998 -0.4998 -0.8662 1127.0693 230.0408)" opacity="0.1" cx="532.732" cy="265.934" rx="3.827" ry="1.087"/>
	
		<ellipse transform="matrix(-0.8662 0.4997 -0.4997 -0.8662 1126.8308 229.9091)" opacity="0.1" cx="532.631" cy="265.833" rx="3.827" ry="1.087"/>
	<g opacity="0.1">
		
			<ellipse transform="matrix(-0.8662 0.4997 -0.4997 -0.8662 1126.8308 229.9091)" opacity="0.1" cx="532.631" cy="265.833" rx="3.827" ry="1.087"/>
	</g>
	<g>
		
			<ellipse transform="matrix(-0.8662 0.4997 -0.4997 -0.8662 1126.5989 229.8049)" fill="#004700" cx="532.533" cy="265.734" rx="3.827" ry="1.087"/>
	</g>
	<path opacity="0.1" d="M532.848,265.78c-2.079,0.368-3.687,1.144-3.581,1.734c0.104,0.594,1.879,0.774,3.959,0.406
		c2.083-0.365,3.686-1.143,3.58-1.734C536.701,265.595,534.93,265.414,532.848,265.78z"/>
	<path opacity="0.1" d="M532.748,265.68c-2.078,0.368-3.686,1.144-3.58,1.734c0.104,0.594,1.879,0.774,3.959,0.406
		c2.082-0.365,3.686-1.143,3.579-1.734C536.602,265.495,534.83,265.314,532.748,265.68z"/>
	<g opacity="0.1">
		<path opacity="0.1" d="M532.748,265.68c-2.078,0.368-3.686,1.144-3.58,1.734c0.104,0.594,1.879,0.774,3.959,0.406
			c2.082-0.365,3.686-1.143,3.579-1.734C536.602,265.495,534.83,265.314,532.748,265.68z"/>
	</g>
	<g>
		<path fill="#004700" d="M532.648,265.58c-2.079,0.368-3.686,1.144-3.581,1.734c0.105,0.594,1.879,0.774,3.959,0.406
			c2.083-0.365,3.687-1.143,3.58-1.734C536.502,265.396,534.73,265.214,532.648,265.58z"/>
	</g>
	
		<ellipse transform="matrix(-0.9849 -0.173 0.173 -0.9849 1011.6371 623.8029)" opacity="0.1" cx="533" cy="267.82" rx="3.825" ry="1.086"/>
	
		<ellipse transform="matrix(-0.9849 -0.173 0.173 -0.9849 1011.4636 623.5772)" opacity="0.1" cx="532.9" cy="267.72" rx="3.825" ry="1.086"/>
	<g opacity="0.1">
		
			<ellipse transform="matrix(-0.9849 -0.173 0.173 -0.9849 1011.4636 623.5772)" opacity="0.1" cx="532.9" cy="267.72" rx="3.825" ry="1.086"/>
	</g>
	<g>
		
			<ellipse transform="matrix(-0.9849 -0.173 0.173 -0.9849 1011.2539 623.4025)" fill="#004700" cx="532.801" cy="267.62" rx="3.825" ry="1.086"/>
	</g>
	<path opacity="0.1" d="M533.215,267.782c-1.828-1.055-3.555-1.491-3.854-0.971c-0.301,0.521,0.94,1.798,2.771,2.854
		c1.831,1.059,3.557,1.494,3.856,0.973C536.287,270.118,535.047,268.84,533.215,267.782z"/>
	<path opacity="0.1" d="M533.115,267.682c-1.828-1.055-3.554-1.491-3.854-0.971c-0.301,0.521,0.939,1.798,2.771,2.854
		c1.831,1.059,3.558,1.494,3.857,0.973C536.188,270.018,534.947,268.739,533.115,267.682z"/>
	<g opacity="0.1">
		<path opacity="0.1" d="M533.115,267.682c-1.828-1.055-3.554-1.491-3.854-0.971c-0.301,0.521,0.939,1.798,2.771,2.854
			c1.831,1.059,3.558,1.494,3.857,0.973C536.188,270.018,534.947,268.739,533.115,267.682z"/>
	</g>
	<g>
		<path fill="#004700" d="M533.016,267.582c-1.828-1.055-3.555-1.491-3.854-0.971c-0.301,0.521,0.94,1.798,2.771,2.854
			c1.831,1.059,3.557,1.494,3.856,0.973C536.088,269.918,534.848,268.639,533.016,267.582z"/>
	</g>
	<path opacity="0.1" d="M532.869,268.758c-1.356-1.618-2.83-2.618-3.287-2.232c-0.464,0.387,0.264,2.011,1.623,3.631
		c1.36,1.622,2.834,2.619,3.293,2.232C534.958,272.001,534.229,270.376,532.869,268.758z"/>
	<path opacity="0.1" d="M532.77,268.657c-1.357-1.618-2.83-2.618-3.287-2.232c-0.464,0.387,0.263,2.011,1.623,3.631
		c1.36,1.622,2.834,2.619,3.293,2.232C534.858,271.901,534.129,270.276,532.77,268.657z"/>
	<g opacity="0.1">
		<path opacity="0.1" d="M532.77,268.657c-1.357-1.618-2.83-2.618-3.287-2.232c-0.464,0.387,0.263,2.011,1.623,3.631
			c1.36,1.622,2.834,2.619,3.293,2.232C534.858,271.901,534.129,270.276,532.77,268.657z"/>
	</g>
	<g>
		<path fill="#004700" d="M532.67,268.557c-1.357-1.618-2.83-2.618-3.287-2.232c-0.465,0.387,0.263,2.011,1.623,3.631
			c1.359,1.622,2.834,2.619,3.293,2.232C534.759,271.8,534.029,270.176,532.67,268.557z"/>
	</g>
	
		<ellipse transform="matrix(-0.3424 -0.9396 0.9396 -0.3424 459.4032 861.4189)" opacity="0.1" cx="531.158" cy="269.94" rx="3.825" ry="1.087"/>
	
		<ellipse transform="matrix(-0.3425 -0.9395 0.9395 -0.3425 459.4206 861.1979)" opacity="0.1" cx="531.058" cy="269.84" rx="3.825" ry="1.087"/>
	<g opacity="0.1">
		
			<ellipse transform="matrix(-0.3425 -0.9395 0.9395 -0.3425 459.4206 861.1979)" opacity="0.1" cx="531.058" cy="269.84" rx="3.825" ry="1.087"/>
	</g>
	<g>
		
			<ellipse transform="matrix(-0.3424 -0.9396 0.9396 -0.3424 459.3106 860.9618)" fill="#004700" cx="530.959" cy="269.74" rx="3.825" ry="1.087"/>
	</g>
	<path opacity="0.1" d="M531.318,270.077c0-2.112-0.484-3.824-1.081-3.825c-0.604,0-1.091,1.713-1.091,3.828
		c0,2.115,0.488,3.827,1.086,3.827C530.833,273.905,531.318,272.192,531.318,270.077z"/>
	<path opacity="0.1" d="M531.219,269.978c0-2.112-0.485-3.824-1.081-3.825c-0.605,0-1.091,1.713-1.091,3.828
		c0,2.115,0.487,3.827,1.086,3.827C530.733,273.805,531.219,272.092,531.219,269.978z"/>
	<g opacity="0.1">
		<path opacity="0.1" d="M531.219,269.978c0-2.112-0.485-3.824-1.081-3.825c-0.605,0-1.091,1.713-1.091,3.828
			c0,2.115,0.487,3.827,1.086,3.827C530.733,273.805,531.219,272.092,531.219,269.978z"/>
	</g>
	<g>
		<path fill="#004700" d="M531.119,269.877c0-2.112-0.484-3.824-1.081-3.825c-0.604,0-1.091,1.713-1.091,3.828
			c0,2.115,0.488,3.827,1.086,3.827C530.634,273.705,531.119,271.991,531.119,269.877z"/>
	</g>
	
		<ellipse transform="matrix(0.3415 -0.9399 0.9399 0.3415 94.8337 675.1934)" opacity="0.1" cx="529.27" cy="269.918" rx="3.826" ry="1.087"/>
	
		<ellipse transform="matrix(0.3415 -0.9399 0.9399 0.3415 94.8537 675.0242)" opacity="0.1" cx="529.17" cy="269.818" rx="3.826" ry="1.087"/>
	<g opacity="0.1">
		
			<ellipse transform="matrix(0.3415 -0.9399 0.9399 0.3415 94.8537 675.0242)" opacity="0.1" cx="529.17" cy="269.818" rx="3.826" ry="1.087"/>
	</g>
	<g>
		
			<ellipse transform="matrix(0.3415 -0.9399 0.9399 0.3415 94.8907 674.8743)" fill="#004700" cx="529.07" cy="269.718" rx="3.826" ry="1.088"/>
	</g>
	<path opacity="0.1" d="M529.282,270.093c1.358-1.618,2.089-3.242,1.628-3.626c-0.461-0.39-1.934,0.611-3.291,2.231
		c-1.362,1.621-2.089,3.245-1.629,3.63C526.45,272.712,527.923,271.712,529.282,270.093z"/>
	<path opacity="0.1" d="M529.183,269.993c1.357-1.618,2.089-3.242,1.628-3.626c-0.461-0.39-1.935,0.611-3.291,2.231
		c-1.363,1.621-2.089,3.245-1.629,3.63C526.351,272.612,527.823,271.612,529.183,269.993z"/>
	<g opacity="0.1">
		<path opacity="0.1" d="M529.183,269.993c1.357-1.618,2.089-3.242,1.628-3.626c-0.461-0.39-1.935,0.611-3.291,2.231
			c-1.363,1.621-2.089,3.245-1.629,3.63C526.351,272.612,527.823,271.612,529.183,269.993z"/>
	</g>
	<g>
		<path fill="#004700" d="M529.083,269.893c1.358-1.618,2.09-3.242,1.628-3.626c-0.461-0.39-1.934,0.611-3.291,2.231
			c-1.362,1.621-2.089,3.245-1.629,3.63C526.252,272.511,527.724,271.511,529.083,269.893z"/>
	</g>
	<path opacity="0.1" d="M528.384,269.583c1.831-1.056,3.069-2.332,2.771-2.851c-0.303-0.525-2.026-0.088-3.857,0.97
		c-1.833,1.056-3.072,2.335-2.771,2.856C524.827,271.074,526.553,270.639,528.384,269.583z"/>
	<path opacity="0.1" d="M528.284,269.483c1.831-1.056,3.07-2.332,2.772-2.851c-0.303-0.525-2.026-0.088-3.858,0.97
		c-1.833,1.056-3.072,2.335-2.771,2.856C524.728,270.974,526.453,270.539,528.284,269.483z"/>
	<g opacity="0.1">
		<path opacity="0.1" d="M528.284,269.483c1.831-1.056,3.07-2.332,2.772-2.851c-0.303-0.525-2.026-0.088-3.858,0.97
			c-1.833,1.056-3.072,2.335-2.771,2.856C524.728,270.974,526.453,270.539,528.284,269.483z"/>
	</g>
	<g>
		<path fill="#004700" d="M528.185,269.383c1.831-1.056,3.07-2.332,2.771-2.851c-0.303-0.525-2.025-0.088-3.857,0.97
			c-1.833,1.056-3.072,2.335-2.771,2.856C524.627,270.875,526.354,270.439,528.185,269.383z"/>
	</g>
	<path opacity="0.1" d="M527.714,268.796c2.081-0.367,3.684-1.142,3.578-1.731c-0.104-0.597-1.872-0.775-3.956-0.409
		c-2.086,0.365-3.688,1.144-3.581,1.736C523.86,268.982,525.631,269.162,527.714,268.796z"/>
	<path opacity="0.1" d="M527.614,268.696c2.082-0.367,3.685-1.142,3.579-1.731c-0.104-0.597-1.873-0.775-3.957-0.409
		c-2.085,0.365-3.687,1.144-3.581,1.736C523.761,268.882,525.531,269.062,527.614,268.696z"/>
	<g opacity="0.1">
		<path opacity="0.1" d="M527.614,268.696c2.082-0.367,3.685-1.142,3.579-1.731c-0.104-0.597-1.873-0.775-3.957-0.409
			c-2.085,0.365-3.687,1.144-3.581,1.736C523.761,268.882,525.531,269.062,527.614,268.696z"/>
	</g>
	<g>
		<path fill="#004700" d="M527.515,268.596c2.082-0.367,3.684-1.142,3.579-1.731c-0.104-0.597-1.873-0.775-3.957-0.409
			c-2.085,0.365-3.688,1.144-3.581,1.736C523.661,268.781,525.432,268.962,527.515,268.596z"/>
	</g>
	<path opacity="0.1" d="M527.354,267.828c2.082,0.366,3.851,0.186,3.954-0.403c0.105-0.597-1.494-1.371-3.579-1.738
		c-2.084-0.369-3.854-0.185-3.959,0.406C523.67,266.683,525.271,267.458,527.354,267.828z"/>
	<path opacity="0.1" d="M527.254,267.729c2.082,0.366,3.851,0.186,3.953-0.403c0.106-0.597-1.493-1.371-3.578-1.738
		c-2.084-0.369-3.854-0.185-3.959,0.406C523.57,266.583,525.171,267.358,527.254,267.729z"/>
	<g opacity="0.1">
		<path opacity="0.1" d="M527.254,267.729c2.082,0.366,3.851,0.186,3.953-0.403c0.106-0.597-1.493-1.371-3.578-1.738
			c-2.084-0.369-3.854-0.185-3.959,0.406C523.57,266.583,525.171,267.358,527.254,267.729z"/>
	</g>
	<g>
		<path fill="#004700" d="M527.154,267.628c2.082,0.366,3.852,0.186,3.954-0.403c0.106-0.597-1.494-1.371-3.579-1.738
			c-2.084-0.369-3.854-0.185-3.959,0.406C523.471,266.483,525.071,267.258,527.154,267.628z"/>
	</g>
	<path opacity="0.1" d="M527.346,266.793c1.83,1.056,3.557,1.492,3.854,0.974c0.307-0.522-0.936-1.799-2.767-2.857
		c-1.833-1.059-3.561-1.491-3.86-0.97C524.274,264.459,525.516,265.736,527.346,266.793z"/>
	<path opacity="0.1" d="M527.246,266.693c1.83,1.056,3.558,1.492,3.854,0.974c0.306-0.522-0.937-1.799-2.768-2.857
		c-1.833-1.059-3.56-1.491-3.859-0.97C524.175,264.359,525.416,265.635,527.246,266.693z"/>
	<g opacity="0.1">
		<path opacity="0.1" d="M527.246,266.693c1.83,1.056,3.558,1.492,3.854,0.974c0.306-0.522-0.937-1.799-2.768-2.857
			c-1.833-1.059-3.56-1.491-3.859-0.97C524.175,264.359,525.416,265.635,527.246,266.693z"/>
	</g>
	<g>
		<path fill="#004700" d="M527.146,266.593c1.83,1.056,3.557,1.492,3.854,0.974c0.307-0.522-0.936-1.799-2.767-2.857
			c-1.833-1.059-3.56-1.491-3.86-0.97C524.075,264.259,525.316,265.535,527.146,266.593z"/>
	</g>
	<path opacity="0.1" d="M527.691,265.819c1.36,1.619,2.83,2.618,3.288,2.235c0.466-0.387-0.263-2.01-1.624-3.632
		c-1.358-1.622-2.835-2.619-3.292-2.232C525.605,262.576,526.332,264.198,527.691,265.819z"/>
	<path opacity="0.1" d="M527.592,265.718c1.359,1.619,2.83,2.618,3.288,2.235c0.466-0.387-0.264-2.01-1.624-3.632
		c-1.358-1.622-2.836-2.619-3.292-2.232C525.506,262.476,526.232,264.098,527.592,265.718z"/>
	<g opacity="0.1">
		<path opacity="0.1" d="M527.592,265.718c1.359,1.619,2.83,2.618,3.288,2.235c0.466-0.387-0.264-2.01-1.624-3.632
			c-1.358-1.622-2.836-2.619-3.292-2.232C525.506,262.476,526.232,264.098,527.592,265.718z"/>
	</g>
	<g>
		<path fill="#004700" d="M527.492,265.618c1.36,1.619,2.83,2.618,3.288,2.235c0.466-0.387-0.263-2.01-1.624-3.632
			c-1.357-1.622-2.835-2.619-3.292-2.232C525.406,262.376,526.133,263.998,527.492,265.618z"/>
	</g>
	<path opacity="0.1" d="M528.351,265.022c0.723,1.985,1.764,3.427,2.326,3.225c0.568-0.206,0.439-1.98-0.284-3.97
		c-0.723-1.988-1.769-3.429-2.331-3.222C527.498,261.262,527.629,263.035,528.351,265.022z"/>
	<path opacity="0.1" d="M528.252,264.922c0.723,1.985,1.764,3.427,2.325,3.225c0.569-0.206,0.44-1.98-0.284-3.97
		c-0.723-1.988-1.768-3.429-2.33-3.222C527.399,261.162,527.529,262.936,528.252,264.922z"/>
	<g opacity="0.1">
		<path opacity="0.1" d="M528.252,264.922c0.723,1.985,1.764,3.427,2.325,3.225c0.569-0.206,0.44-1.98-0.284-3.97
			c-0.723-1.988-1.768-3.429-2.33-3.222C527.399,261.162,527.529,262.936,528.252,264.922z"/>
	</g>
	<g>
		<path fill="#004700" d="M528.151,264.821c0.723,1.985,1.764,3.427,2.326,3.225c0.569-0.206,0.439-1.98-0.284-3.97
			c-0.723-1.988-1.768-3.429-2.331-3.222C527.3,261.062,527.43,262.835,528.151,264.821z"/>
	</g>
	<path opacity="0.1" d="M529.242,264.497c0.001,2.115,0.485,3.826,1.082,3.828c0.605,0.001,1.092-1.711,1.09-3.829
		c0.002-2.114-0.486-3.826-1.086-3.826C529.729,260.673,529.243,262.385,529.242,264.497z"/>
	<path opacity="0.1" d="M529.143,264.397c0.001,2.115,0.484,3.826,1.082,3.828c0.604,0.001,1.092-1.711,1.09-3.829
		c0.002-2.114-0.487-3.826-1.086-3.826C529.63,260.573,529.144,262.285,529.143,264.397z"/>
	<g opacity="0.1">
		<path opacity="0.1" d="M529.143,264.397c0.001,2.115,0.484,3.826,1.082,3.828c0.604,0.001,1.092-1.711,1.09-3.829
			c0.002-2.114-0.487-3.826-1.086-3.826C529.63,260.573,529.144,262.285,529.143,264.397z"/>
	</g>
	<g>
		<path fill="#004700" d="M529.043,264.297c0.002,2.115,0.485,3.826,1.082,3.828c0.605,0.001,1.093-1.711,1.091-3.829
			c0.002-2.114-0.487-3.826-1.086-3.826C529.53,260.473,529.043,262.186,529.043,264.297z"/>
	</g>
	<circle opacity="0.1" cx="530.117" cy="267.626" r="1.246"/>
	<circle fill="#004700" cx="530.018" cy="267.526" r="1.246"/>
</g>
</svg>
