<?xml version="1.0" encoding="utf-8"?>
<!-- Generator: Adobe Illustrator 16.0.0, SVG Export Plug-In . SVG Version: 6.00 Build 0)  -->
<!DOCTYPE svg PUBLIC "-//W3C//DTD SVG 1.1//EN" "http://www.w3.org/Graphics/SVG/1.1/DTD/svg11.dtd">
<svg version="1.1" xmlns="http://www.w3.org/2000/svg" xmlns:xlink="http://www.w3.org/1999/xlink" x="0px" y="0px" width="600px"
	 height="600px" viewBox="0 0 600 600" enable-background="new 0 0 600 600" xml:space="preserve">
<g id="레이어_2_1_" display="none">
	<rect x="196.5" y="45" display="inline" fill="none" stroke="#000000" stroke-miterlimit="10" width="229" height="229"/>
	<rect x="196.5" y="284.241" display="inline" fill="none" stroke="#000000" stroke-miterlimit="10" width="229" height="272.759"/>
	<rect x="440.5" y="45" display="inline" fill="none" stroke="#000000" stroke-miterlimit="10" width="127" height="127"/>
	<rect x="440.5" y="188.833" display="inline" fill="none" stroke="#000000" stroke-miterlimit="10" width="127" height="127"/>
	<rect x="440.5" y="333.5" display="inline" fill="none" stroke="#000000" stroke-miterlimit="10" width="127" height="223.5"/>
</g>
<g id="레이어_1">
	<g>
		<g opacity="0.1">
			<path d="M480.239,205.596c0,0-19.396-1.29-15.238,34.54c0,0-2.772,16.78-3.812,19.897c-1.038,3.117-7.002,41.043,23.204,41.043
				c14.388,0,17.504-19.911,13.773-28.384c-2.833-6.437-3.603-14.164-4.767-21.145c-1.892-11.351,2.323-21.32-0.013-32.517
				C491.959,212.183,487.9,205.895,480.239,205.596z"/>
		</g>
		<g>
			<path fill="#967738" d="M479.239,204.596c0,0-19.396-1.29-15.238,34.54c0,0-2.772,16.78-3.812,19.897
				c-1.038,3.117-7.002,41.042,23.204,41.042c14.388,0,17.504-19.911,13.773-28.384c-2.833-6.437-3.603-14.164-4.767-21.145
				c-1.892-11.351,2.323-21.32-0.013-32.517C490.959,211.183,486.9,204.895,479.239,204.596z"/>
		</g>
	</g>
	<g>
		<g opacity="0.1">
			<path d="M478.471,261.257c2.5,1.853,5.247,3.647,8.225,5.298c3.42-3.303,6.006-6.343,7.722-8.538
				c-0.347-2.187-0.666-4.363-1.018-6.471c-0.226-1.354-0.359-2.687-0.433-4.005C489.873,251.258,484.996,256.424,478.471,261.257z"
				/>
			<path d="M498.166,272.692c-0.182-0.412-0.333-0.843-0.498-1.265c-3.95-1.335-7.61-3.006-10.973-4.872
				c-2.978-1.651-5.725-3.446-8.225-5.298c-6.667-4.938-11.617-10.226-14.699-13.958c-0.596,3.371-1.304,7.224-1.88,9.9
				c1.681,2.216,4.483,5.619,8.354,9.356c2.354,2.273,5.1,4.662,8.226,6.976c5.732,4.246,12.741,8.218,20.929,10.724
				C499.924,279.897,499.452,275.615,498.166,272.692z"/>
			<path d="M470.245,266.555c-3.146,1.746-6.555,3.317-10.217,4.607c-0.007,3.65,0.33,7.787,1.349,11.799
				c6.562-2.477,12.274-5.861,17.094-9.43C475.345,271.217,472.6,268.828,470.245,266.555z"/>
		</g>
		<g>
			<g>
				<path fill="#DBC8AB" d="M477.471,260.257c2.5,1.853,5.247,3.647,8.225,5.298c3.42-3.303,6.006-6.343,7.722-8.538
					c-0.347-2.187-0.666-4.363-1.018-6.471c-0.226-1.354-0.359-2.687-0.433-4.005C488.873,250.258,483.996,255.424,477.471,260.257z
					"/>
				<path fill="#EAD8B7" d="M497.166,271.692c-0.182-0.412-0.333-0.843-0.498-1.265c-3.95-1.335-7.61-3.006-10.973-4.872
					c-2.978-1.651-5.725-3.446-8.225-5.298c-6.667-4.938-11.617-10.226-14.699-13.958c-0.596,3.371-1.304,7.224-1.88,9.9
					c1.681,2.216,4.483,5.619,8.354,9.356c2.354,2.273,5.1,4.662,8.226,6.976c5.732,4.246,12.741,8.218,20.929,10.724
					C498.924,278.897,498.452,274.615,497.166,271.692z"/>
				<path fill="#DBC8AB" d="M469.245,265.555c-3.146,1.746-6.555,3.317-10.217,4.607c-0.007,3.65,0.33,7.787,1.349,11.799
					c6.562-2.477,12.274-5.861,17.094-9.43C474.345,270.217,471.6,267.828,469.245,265.555z"/>
			</g>
		</g>
	</g>
	<g>
		<g>
			<g opacity="0.1">
				<ellipse cx="491.743" cy="271.573" rx="1.468" ry="5.171"/>
				<ellipse cx="491.643" cy="271.473" rx="1.468" ry="5.171"/>
			</g>
			<g>
				<g opacity="0.1">
					<ellipse cx="491.643" cy="271.473" rx="1.468" ry="5.171"/>
				</g>
				<g>
					<ellipse fill="#FFF7E9" cx="491.543" cy="271.373" rx="1.468" ry="5.171"/>
				</g>
			</g>
		</g>
		<g>
			<g opacity="0.1">
				<ellipse transform="matrix(0.9397 -0.342 0.342 0.9397 -63.392 184.149)" cx="490.458" cy="271.822" rx="1.469" ry="5.171"/>
				<ellipse transform="matrix(0.9397 -0.342 0.342 0.9397 -63.3638 184.1089)" cx="490.358" cy="271.722" rx="1.469" ry="5.171"/>
			</g>
			<g>
				<g opacity="0.1">
					<ellipse transform="matrix(0.9397 -0.342 0.342 0.9397 -63.3638 184.1089)" cx="490.358" cy="271.722" rx="1.469" ry="5.171"/>
				</g>
				<g>
					
						<ellipse transform="matrix(0.9397 -0.342 0.342 0.9397 -63.3356 184.0687)" fill="#FFF7E9" cx="490.258" cy="271.622" rx="1.469" ry="5.171"/>
				</g>
			</g>
		</g>
		<g>
			<g opacity="0.1">
				
					<ellipse transform="matrix(0.7657 -0.6432 0.6432 0.7657 -60.6232 378.5556)" cx="489.335" cy="272.496" rx="1.468" ry="5.171"/>
				
					<ellipse transform="matrix(0.7657 -0.6432 0.6432 0.7657 -60.5822 378.4681)" cx="489.235" cy="272.396" rx="1.468" ry="5.171"/>
			</g>
			<g>
				<g opacity="0.1">
					
						<ellipse transform="matrix(0.7657 -0.6432 0.6432 0.7657 -60.5822 378.4681)" cx="489.235" cy="272.396" rx="1.468" ry="5.171"/>
				</g>
				<g>
					
						<ellipse transform="matrix(0.7657 -0.6432 0.6432 0.7657 -60.5411 378.3806)" fill="#FFF7E9" cx="489.136" cy="272.296" rx="1.468" ry="5.171"/>
				</g>
			</g>
		</g>
		<g>
			<g opacity="0.1">
				<ellipse transform="matrix(0.5 -0.866 0.866 0.5 7.3968 559.8369)" cx="488.51" cy="273.513" rx="1.468" ry="5.17"/>
				<ellipse transform="matrix(0.5 -0.866 0.866 0.5 7.4337 559.7006)" cx="488.411" cy="273.413" rx="1.468" ry="5.17"/>
			</g>
			<g>
				<g opacity="0.1">
					<ellipse transform="matrix(0.5 -0.866 0.866 0.5 7.4337 559.7006)" cx="488.411" cy="273.413" rx="1.468" ry="5.17"/>
				</g>
				<g>
					
						<ellipse transform="matrix(0.5 -0.866 0.866 0.5 7.4706 559.5643)" fill="#FFF7E9" cx="488.311" cy="273.313" rx="1.468" ry="5.17"/>
				</g>
			</g>
		</g>
		<g>
			<g opacity="0.1">
				<path d="M488.34,273.306c2.81,0.497,4.977,1.544,4.836,2.342c-0.142,0.801-2.535,1.046-5.347,0.548
					c-2.815-0.494-4.98-1.543-4.839-2.343C483.132,273.055,485.525,272.809,488.34,273.306z"/>
				<path d="M488.24,273.206c2.81,0.497,4.977,1.544,4.836,2.342c-0.142,0.801-2.535,1.046-5.347,0.548
					c-2.815-0.494-4.98-1.543-4.839-2.343C483.032,272.955,485.426,272.709,488.24,273.206z"/>
			</g>
			<g>
				<g opacity="0.1">
					<path d="M488.24,273.206c2.81,0.497,4.977,1.544,4.836,2.342c-0.142,0.801-2.535,1.046-5.347,0.548
						c-2.815-0.494-4.98-1.543-4.839-2.343C483.032,272.955,485.426,272.709,488.24,273.206z"/>
				</g>
				<g>
					<path fill="#FFF7E9" d="M488.141,273.105c2.81,0.497,4.977,1.544,4.836,2.342c-0.142,0.801-2.535,1.046-5.347,0.548
						c-2.815-0.494-4.98-1.543-4.839-2.343C482.933,272.855,485.326,272.609,488.141,273.105z"/>
				</g>
			</g>
		</g>
		<g>
			<g opacity="0.1">
				<path d="M487.852,274.614c2.811-0.495,5.204-0.25,5.346,0.546c0.142,0.802-2.024,1.851-4.837,2.345
					c-2.813,0.499-5.208,0.252-5.347-0.548C482.872,276.159,485.037,275.11,487.852,274.614z"/>
				<path d="M487.752,274.514c2.811-0.495,5.204-0.25,5.346,0.546c0.142,0.802-2.024,1.851-4.837,2.345
					c-2.813,0.499-5.208,0.252-5.347-0.548C482.772,276.059,484.938,275.01,487.752,274.514z"/>
			</g>
			<g>
				<g opacity="0.1">
					<path d="M487.752,274.514c2.811-0.495,5.204-0.25,5.346,0.546c0.142,0.802-2.024,1.851-4.837,2.345
						c-2.813,0.499-5.208,0.252-5.347-0.548C482.772,276.059,484.938,275.01,487.752,274.514z"/>
				</g>
				<g>
					<path fill="#FFF7E9" d="M487.652,274.414c2.811-0.495,5.204-0.25,5.346,0.546c0.142,0.802-2.024,1.851-4.837,2.345
						c-2.813,0.499-5.208,0.252-5.347-0.548C482.673,275.959,484.838,274.91,487.652,274.414z"/>
				</g>
			</g>
		</g>
		<g>
			<g opacity="0.1">
				<path d="M487.841,276.011c2.472-1.426,4.805-2.015,5.209-1.313c0.408,0.705-1.269,2.43-3.742,3.858
					c-2.474,1.43-4.808,2.018-5.212,1.313C483.691,279.166,485.367,277.439,487.841,276.011z"/>
				<path d="M487.741,275.911c2.472-1.426,4.805-2.015,5.209-1.313c0.408,0.705-1.269,2.43-3.742,3.858
					c-2.474,1.43-4.808,2.018-5.212,1.313C483.592,279.065,485.268,277.339,487.741,275.911z"/>
			</g>
			<g>
				<g opacity="0.1">
					<path d="M487.741,275.911c2.472-1.426,4.805-2.015,5.209-1.313c0.408,0.705-1.269,2.43-3.742,3.858
						c-2.474,1.43-4.808,2.018-5.212,1.313C483.592,279.065,485.268,277.339,487.741,275.911z"/>
				</g>
				<g>
					<path fill="#FFF7E9" d="M487.642,275.811c2.472-1.426,4.805-2.015,5.209-1.313c0.408,0.705-1.269,2.43-3.742,3.858
						c-2.474,1.43-4.808,2.018-5.212,1.313C483.492,278.965,485.168,277.239,487.642,275.811z"/>
				</g>
			</g>
		</g>
		<g>
			<g opacity="0.1">
				<path d="M488.309,277.327c1.835-2.186,3.825-3.537,4.444-3.016c0.625,0.522-0.359,2.718-2.196,4.905
					c-1.836,2.19-3.828,3.54-4.449,3.016C485.488,281.71,486.473,279.515,488.309,277.327z"/>
				<path d="M488.209,277.227c1.835-2.186,3.825-3.537,4.444-3.016c0.625,0.522-0.359,2.718-2.196,4.905
					c-1.836,2.19-3.828,3.54-4.449,3.016C485.389,281.61,486.373,279.415,488.209,277.227z"/>
			</g>
			<g>
				<g opacity="0.1">
					<path d="M488.209,277.227c1.835-2.186,3.825-3.537,4.444-3.016c0.625,0.522-0.359,2.718-2.196,4.905
						c-1.836,2.19-3.828,3.54-4.449,3.016C485.389,281.61,486.373,279.415,488.209,277.227z"/>
				</g>
				<g>
					<path fill="#FFF7E9" d="M488.109,277.127c1.835-2.186,3.825-3.537,4.444-3.016c0.625,0.522-0.359,2.718-2.196,4.905
						c-1.836,2.19-3.828,3.54-4.449,3.016C485.289,281.51,486.273,279.315,488.109,277.127z"/>
				</g>
			</g>
		</g>
		<g>
			<g opacity="0.1">
				<path d="M489.197,278.403c0.978-2.682,2.386-4.631,3.146-4.354c0.766,0.277,0.592,2.677-0.387,5.361
					c-0.977,2.686-2.387,4.636-3.148,4.356C488.047,283.488,488.223,281.088,489.197,278.403z"/>
				<path d="M489.098,278.303c0.978-2.682,2.386-4.631,3.146-4.354c0.766,0.277,0.592,2.677-0.387,5.361
					c-0.977,2.686-2.387,4.636-3.148,4.356C487.947,283.388,488.123,280.988,489.098,278.303z"/>
			</g>
			<g>
				<g opacity="0.1">
					<path d="M489.098,278.303c0.978-2.682,2.386-4.631,3.146-4.354c0.766,0.277,0.592,2.677-0.387,5.361
						c-0.977,2.686-2.387,4.636-3.148,4.356C487.947,283.388,488.123,280.988,489.098,278.303z"/>
				</g>
				<g>
					<path fill="#FFF7E9" d="M488.998,278.203c0.978-2.682,2.386-4.631,3.146-4.354c0.766,0.277,0.592,2.677-0.387,5.361
						c-0.977,2.686-2.387,4.636-3.148,4.356C487.848,283.288,488.023,280.888,488.998,278.203z"/>
				</g>
			</g>
		</g>
		<g>
			<g opacity="0.1">
				<path d="M490.403,279.111c0.001-2.854,0.656-5.168,1.464-5.168c0.815-0.001,1.473,2.314,1.473,5.171
					c0,2.859-0.658,5.172-1.469,5.17C491.06,284.283,490.404,281.968,490.403,279.111z"/>
				<path d="M490.304,279.011c0.001-2.854,0.656-5.168,1.464-5.168c0.815-0.001,1.473,2.314,1.473,5.171
					c0,2.859-0.658,5.172-1.469,5.17C490.96,284.183,490.305,281.868,490.304,279.011z"/>
			</g>
			<g>
				<g opacity="0.1">
					<path d="M490.304,279.011c0.001-2.854,0.656-5.168,1.464-5.168c0.815-0.001,1.473,2.314,1.473,5.171
						c0,2.859-0.658,5.172-1.469,5.17C490.96,284.183,490.305,281.868,490.304,279.011z"/>
				</g>
				<g>
					<path fill="#FFF7E9" d="M490.204,278.911c0.001-2.854,0.656-5.168,1.464-5.168c0.815-0.001,1.473,2.314,1.473,5.171
						c0,2.859-0.658,5.172-1.469,5.17C490.86,284.083,490.205,281.768,490.204,278.911z"/>
				</g>
			</g>
		</g>
		<g>
			<g opacity="0.1">
				<path d="M491.776,279.364c-0.975-2.683-1.151-5.08-0.391-5.357c0.766-0.282,2.174,1.67,3.151,4.354
					c0.979,2.687,1.15,5.085,0.388,5.361C494.162,283.999,492.754,282.049,491.776,279.364z"/>
				<path d="M491.677,279.264c-0.975-2.683-1.151-5.08-0.391-5.357c0.766-0.282,2.174,1.67,3.151,4.354
					c0.979,2.687,1.15,5.085,0.388,5.361C494.062,283.899,492.654,281.949,491.677,279.264z"/>
			</g>
			<g>
				<g opacity="0.1">
					<path d="M491.677,279.264c-0.975-2.683-1.151-5.08-0.391-5.357c0.766-0.282,2.174,1.67,3.151,4.354
						c0.979,2.687,1.15,5.085,0.388,5.361C494.062,283.899,492.654,281.949,491.677,279.264z"/>
				</g>
				<g>
					<path fill="#FFF7E9" d="M491.577,279.164c-0.975-2.683-1.151-5.08-0.391-5.357c0.766-0.282,2.174,1.67,3.151,4.354
						c0.979,2.687,1.15,5.085,0.388,5.361C493.963,283.799,492.555,281.849,491.577,279.164z"/>
				</g>
			</g>
		</g>
		<g>
			<g opacity="0.1">
				<path d="M493.154,279.133c-1.835-2.188-2.819-4.381-2.2-4.901c0.625-0.527,2.615,0.826,4.45,3.015
					c1.84,2.19,2.821,4.385,2.199,4.905C496.982,282.67,494.992,281.32,493.154,279.133z"/>
				<path d="M493.055,279.033c-1.835-2.188-2.819-4.381-2.2-4.901c0.625-0.527,2.615,0.826,4.45,3.015
					c1.84,2.19,2.821,4.385,2.199,4.905C496.883,282.57,494.893,281.22,493.055,279.033z"/>
			</g>
			<g>
				<g opacity="0.1">
					<path d="M493.055,279.033c-1.835-2.188-2.819-4.381-2.2-4.901c0.625-0.527,2.615,0.826,4.45,3.015
						c1.84,2.19,2.821,4.385,2.199,4.905C496.883,282.57,494.893,281.22,493.055,279.033z"/>
				</g>
				<g>
					<path fill="#FFF7E9" d="M492.955,278.933c-1.835-2.188-2.819-4.381-2.2-4.901c0.625-0.527,2.615,0.826,4.45,3.015
						c1.84,2.19,2.821,4.385,2.199,4.905C496.783,282.47,494.793,281.12,492.955,278.933z"/>
				</g>
			</g>
		</g>
		<g>
			<g opacity="0.1">
				<path d="M494.37,278.443c-2.473-1.429-4.148-3.152-3.745-3.853c0.407-0.709,2.739-0.118,5.214,1.31
					c2.477,1.429,4.151,3.156,3.744,3.858C499.176,280.458,496.844,279.87,494.37,278.443z"/>
				<path d="M494.271,278.343c-2.473-1.429-4.148-3.152-3.745-3.853c0.407-0.709,2.739-0.118,5.214,1.31
					c2.477,1.429,4.151,3.156,3.744,3.858C499.076,280.358,496.744,279.77,494.271,278.343z"/>
			</g>
			<g>
				<g opacity="0.1">
					<path d="M494.271,278.343c-2.473-1.429-4.148-3.152-3.745-3.853c0.407-0.709,2.739-0.118,5.214,1.31
						c2.477,1.429,4.151,3.156,3.744,3.858C499.076,280.358,496.744,279.77,494.271,278.343z"/>
				</g>
				<g>
					<path fill="#FFF7E9" d="M494.171,278.243c-2.473-1.429-4.148-3.152-3.745-3.853c0.407-0.709,2.739-0.118,5.214,1.31
						c2.477,1.429,4.151,3.156,3.744,3.858C498.977,280.258,496.645,279.67,494.171,278.243z"/>
				</g>
			</g>
		</g>
		<g>
			<g opacity="0.1">
				<path d="M495.276,277.38c-2.813-0.496-4.978-1.544-4.836-2.339c0.138-0.806,2.531-1.048,5.346-0.552
					c2.817,0.495,4.98,1.547,4.839,2.346C500.48,277.63,498.09,277.874,495.276,277.38z"/>
				<path d="M495.177,277.28c-2.813-0.496-4.978-1.544-4.836-2.339c0.138-0.806,2.531-1.048,5.346-0.552
					c2.817,0.495,4.98,1.547,4.839,2.346C500.381,277.53,497.99,277.774,495.177,277.28z"/>
			</g>
			<g>
				<g opacity="0.1">
					<path d="M495.177,277.28c-2.813-0.496-4.978-1.544-4.836-2.339c0.138-0.806,2.531-1.048,5.346-0.552
						c2.817,0.495,4.98,1.547,4.839,2.346C500.381,277.53,497.99,277.774,495.177,277.28z"/>
				</g>
				<g>
					<path fill="#FFF7E9" d="M495.077,277.18c-2.813-0.496-4.978-1.544-4.836-2.339c0.138-0.806,2.531-1.048,5.346-0.552
						c2.817,0.495,4.98,1.547,4.839,2.346C500.281,277.43,497.891,277.674,495.077,277.18z"/>
				</g>
			</g>
		</g>
		<g>
			<g opacity="0.1">
				<path d="M495.764,276.071c-2.812,0.495-5.204,0.25-5.345-0.545c-0.145-0.805,2.021-1.851,4.837-2.347
					c2.813-0.5,5.207-0.25,5.348,0.55C500.739,274.526,498.576,275.573,495.764,276.071z"/>
				<path d="M495.664,275.971c-2.812,0.495-5.204,0.25-5.345-0.545c-0.145-0.805,2.021-1.851,4.837-2.347
					c2.813-0.5,5.207-0.25,5.348,0.55C500.64,274.426,498.477,275.473,495.664,275.971z"/>
			</g>
			<g>
				<g opacity="0.1">
					<path d="M495.664,275.971c-2.812,0.495-5.204,0.25-5.345-0.545c-0.145-0.805,2.021-1.851,4.837-2.347
						c2.813-0.5,5.207-0.25,5.348,0.55C500.64,274.426,498.477,275.473,495.664,275.971z"/>
				</g>
				<g>
					<path fill="#FFF7E9" d="M495.564,275.871c-2.812,0.495-5.204,0.25-5.345-0.545c-0.145-0.805,2.021-1.851,4.837-2.347
						c2.813-0.5,5.207-0.25,5.348,0.55C500.54,274.326,498.377,275.373,495.564,275.871z"/>
				</g>
			</g>
		</g>
		<g>
			<g opacity="0.1">
				<path d="M495.774,274.673c-2.475,1.427-4.805,2.015-5.209,1.316c-0.412-0.707,1.265-2.431,3.741-3.861
					c2.476-1.43,4.81-2.015,5.213-1.312C499.921,271.521,498.246,273.244,495.774,274.673z"/>
				<path d="M495.675,274.573c-2.475,1.427-4.805,2.015-5.209,1.316c-0.412-0.707,1.265-2.431,3.741-3.861
					c2.476-1.43,4.81-2.015,5.213-1.312C499.821,271.42,498.146,273.144,495.675,274.573z"/>
			</g>
			<g>
				<g opacity="0.1">
					<path d="M495.675,274.573c-2.475,1.427-4.805,2.015-5.209,1.316c-0.412-0.707,1.265-2.431,3.741-3.861
						c2.476-1.43,4.81-2.015,5.213-1.312C499.821,271.42,498.146,273.144,495.675,274.573z"/>
				</g>
				<g>
					<path fill="#FFF7E9" d="M495.575,274.473c-2.475,1.427-4.805,2.015-5.209,1.316c-0.412-0.707,1.265-2.431,3.741-3.861
						c2.476-1.43,4.81-2.015,5.213-1.312C499.722,271.32,498.047,273.044,495.575,274.473z"/>
				</g>
			</g>
		</g>
		<g>
			<g opacity="0.1">
				<path d="M495.306,273.356c-1.837,2.188-3.825,3.537-4.444,3.02c-0.628-0.523,0.356-2.718,2.196-4.908
					c1.835-2.19,3.828-3.538,4.45-3.015C498.123,268.976,497.142,271.167,495.306,273.356z"/>
				<path d="M495.206,273.256c-1.837,2.188-3.825,3.537-4.444,3.02c-0.628-0.523,0.356-2.718,2.196-4.908
					c1.835-2.19,3.828-3.538,4.45-3.015C498.023,268.876,497.042,271.067,495.206,273.256z"/>
			</g>
			<g>
				<g opacity="0.1">
					<path d="M495.206,273.256c-1.837,2.188-3.825,3.537-4.444,3.02c-0.628-0.523,0.356-2.718,2.196-4.908
						c1.835-2.19,3.828-3.538,4.45-3.015C498.023,268.876,497.042,271.067,495.206,273.256z"/>
				</g>
				<g>
					<path fill="#FFF7E9" d="M495.106,273.156c-1.837,2.188-3.825,3.537-4.444,3.02c-0.628-0.523,0.356-2.718,2.196-4.908
						c1.835-2.19,3.828-3.538,4.45-3.015C497.924,268.776,496.942,270.967,495.106,273.156z"/>
				</g>
			</g>
		</g>
		<g>
			<g opacity="0.1">
				<path d="M494.415,272.279c-0.979,2.685-2.383,4.633-3.144,4.358c-0.77-0.277-0.594-2.676,0.385-5.364
					c0.977-2.686,2.388-4.634,3.15-4.355C495.564,267.199,495.392,269.596,494.415,272.279z"/>
				<path d="M494.315,272.179c-0.979,2.685-2.383,4.633-3.144,4.358c-0.77-0.277-0.594-2.676,0.385-5.364
					c0.977-2.686,2.388-4.634,3.15-4.355C495.465,267.099,495.292,269.496,494.315,272.179z"/>
			</g>
			<g>
				<g opacity="0.1">
					<path d="M494.315,272.179c-0.979,2.685-2.383,4.633-3.144,4.358c-0.77-0.277-0.594-2.676,0.385-5.364
						c0.977-2.686,2.388-4.634,3.15-4.355C495.465,267.099,495.292,269.496,494.315,272.179z"/>
				</g>
				<g>
					<path fill="#FFF7E9" d="M494.216,272.079c-0.979,2.685-2.383,4.633-3.144,4.358c-0.77-0.277-0.594-2.676,0.385-5.364
						c0.977-2.686,2.388-4.634,3.15-4.355C495.365,266.999,495.192,269.396,494.216,272.079z"/>
				</g>
			</g>
		</g>
		<g>
			<g opacity="0.1">
				<ellipse transform="matrix(0.9397 -0.342 0.342 0.9397 -63.392 184.149)" cx="490.458" cy="271.822" rx="1.469" ry="5.171"/>
				<ellipse transform="matrix(0.9397 -0.342 0.342 0.9397 -63.3638 184.1089)" cx="490.358" cy="271.722" rx="1.469" ry="5.171"/>
			</g>
			<g>
				<g opacity="0.1">
					<ellipse transform="matrix(0.9397 -0.342 0.342 0.9397 -63.3638 184.1089)" cx="490.358" cy="271.722" rx="1.469" ry="5.171"/>
				</g>
				<g>
					
						<ellipse transform="matrix(0.9397 -0.342 0.342 0.9397 -63.3356 184.0687)" fill="#FFF7E9" cx="490.258" cy="271.622" rx="1.469" ry="5.171"/>
				</g>
			</g>
		</g>
		<g>
			<g opacity="0.1">
				
					<ellipse transform="matrix(0.7657 -0.6432 0.6432 0.7657 -60.6232 378.5556)" cx="489.335" cy="272.496" rx="1.468" ry="5.171"/>
				
					<ellipse transform="matrix(0.7657 -0.6432 0.6432 0.7657 -60.5822 378.4681)" cx="489.235" cy="272.396" rx="1.468" ry="5.171"/>
			</g>
			<g>
				<g opacity="0.1">
					
						<ellipse transform="matrix(0.7657 -0.6432 0.6432 0.7657 -60.5822 378.4681)" cx="489.235" cy="272.396" rx="1.468" ry="5.171"/>
				</g>
				<g>
					
						<ellipse transform="matrix(0.7657 -0.6432 0.6432 0.7657 -60.5411 378.3806)" fill="#FFF7E9" cx="489.136" cy="272.296" rx="1.468" ry="5.171"/>
				</g>
			</g>
		</g>
		<g>
			<g opacity="0.1">
				<ellipse transform="matrix(0.5 -0.866 0.866 0.5 7.3968 559.8369)" cx="488.51" cy="273.513" rx="1.468" ry="5.17"/>
				<ellipse transform="matrix(0.5 -0.866 0.866 0.5 7.4337 559.7006)" cx="488.411" cy="273.413" rx="1.468" ry="5.17"/>
			</g>
			<g>
				<g opacity="0.1">
					<ellipse transform="matrix(0.5 -0.866 0.866 0.5 7.4337 559.7006)" cx="488.411" cy="273.413" rx="1.468" ry="5.17"/>
				</g>
				<g>
					
						<ellipse transform="matrix(0.5 -0.866 0.866 0.5 7.4706 559.5643)" fill="#FFF7E9" cx="488.311" cy="273.313" rx="1.468" ry="5.17"/>
				</g>
			</g>
		</g>
		<g>
			<g opacity="0.1">
				<path d="M488.34,273.306c2.81,0.497,4.977,1.544,4.836,2.342c-0.142,0.801-2.535,1.046-5.347,0.548
					c-2.815-0.494-4.98-1.543-4.839-2.343C483.132,273.055,485.525,272.809,488.34,273.306z"/>
				<path d="M488.24,273.206c2.81,0.497,4.977,1.544,4.836,2.342c-0.142,0.801-2.535,1.046-5.347,0.548
					c-2.815-0.494-4.98-1.543-4.839-2.343C483.032,272.955,485.426,272.709,488.24,273.206z"/>
			</g>
			<g>
				<g opacity="0.1">
					<path d="M488.24,273.206c2.81,0.497,4.977,1.544,4.836,2.342c-0.142,0.801-2.535,1.046-5.347,0.548
						c-2.815-0.494-4.98-1.543-4.839-2.343C483.032,272.955,485.426,272.709,488.24,273.206z"/>
				</g>
				<g>
					<path fill="#FFF7E9" d="M488.141,273.105c2.81,0.497,4.977,1.544,4.836,2.342c-0.142,0.801-2.535,1.046-5.347,0.548
						c-2.815-0.494-4.98-1.543-4.839-2.343C482.933,272.855,485.326,272.609,488.141,273.105z"/>
				</g>
			</g>
		</g>
		<g>
			<g opacity="0.1">
				<path d="M487.852,274.614c2.811-0.495,5.204-0.25,5.346,0.546c0.142,0.802-2.024,1.851-4.837,2.345
					c-2.813,0.499-5.208,0.252-5.347-0.548C482.872,276.159,485.037,275.11,487.852,274.614z"/>
				<path d="M487.752,274.514c2.811-0.495,5.204-0.25,5.346,0.546c0.142,0.802-2.024,1.851-4.837,2.345
					c-2.813,0.499-5.208,0.252-5.347-0.548C482.772,276.059,484.938,275.01,487.752,274.514z"/>
			</g>
			<g>
				<g opacity="0.1">
					<path d="M487.752,274.514c2.811-0.495,5.204-0.25,5.346,0.546c0.142,0.802-2.024,1.851-4.837,2.345
						c-2.813,0.499-5.208,0.252-5.347-0.548C482.772,276.059,484.938,275.01,487.752,274.514z"/>
				</g>
				<g>
					<path fill="#FFF7E9" d="M487.652,274.414c2.811-0.495,5.204-0.25,5.346,0.546c0.142,0.802-2.024,1.851-4.837,2.345
						c-2.813,0.499-5.208,0.252-5.347-0.548C482.673,275.959,484.838,274.91,487.652,274.414z"/>
				</g>
			</g>
		</g>
		<g>
			<g opacity="0.1">
				<path d="M487.841,276.011c2.472-1.426,4.805-2.015,5.209-1.313c0.408,0.705-1.269,2.43-3.742,3.858
					c-2.474,1.43-4.808,2.018-5.212,1.313C483.691,279.166,485.367,277.439,487.841,276.011z"/>
				<path d="M487.741,275.911c2.472-1.426,4.805-2.015,5.209-1.313c0.408,0.705-1.269,2.43-3.742,3.858
					c-2.474,1.43-4.808,2.018-5.212,1.313C483.592,279.065,485.268,277.339,487.741,275.911z"/>
			</g>
			<g>
				<g opacity="0.1">
					<path d="M487.741,275.911c2.472-1.426,4.805-2.015,5.209-1.313c0.408,0.705-1.269,2.43-3.742,3.858
						c-2.474,1.43-4.808,2.018-5.212,1.313C483.592,279.065,485.268,277.339,487.741,275.911z"/>
				</g>
				<g>
					<path fill="#FFF7E9" d="M487.642,275.811c2.472-1.426,4.805-2.015,5.209-1.313c0.408,0.705-1.269,2.43-3.742,3.858
						c-2.474,1.43-4.808,2.018-5.212,1.313C483.492,278.965,485.168,277.239,487.642,275.811z"/>
				</g>
			</g>
		</g>
		<g>
			<g opacity="0.1">
				<path d="M488.309,277.327c1.835-2.186,3.825-3.537,4.444-3.016c0.625,0.522-0.359,2.718-2.196,4.905
					c-1.836,2.19-3.828,3.54-4.449,3.016C485.488,281.71,486.473,279.515,488.309,277.327z"/>
				<path d="M488.209,277.227c1.835-2.186,3.825-3.537,4.444-3.016c0.625,0.522-0.359,2.718-2.196,4.905
					c-1.836,2.19-3.828,3.54-4.449,3.016C485.389,281.61,486.373,279.415,488.209,277.227z"/>
			</g>
			<g>
				<g opacity="0.1">
					<path d="M488.209,277.227c1.835-2.186,3.825-3.537,4.444-3.016c0.625,0.522-0.359,2.718-2.196,4.905
						c-1.836,2.19-3.828,3.54-4.449,3.016C485.389,281.61,486.373,279.415,488.209,277.227z"/>
				</g>
				<g>
					<path fill="#FFF7E9" d="M488.109,277.127c1.835-2.186,3.825-3.537,4.444-3.016c0.625,0.522-0.359,2.718-2.196,4.905
						c-1.836,2.19-3.828,3.54-4.449,3.016C485.289,281.51,486.273,279.315,488.109,277.127z"/>
				</g>
			</g>
		</g>
		<g>
			<g opacity="0.1">
				<path d="M489.197,278.403c0.978-2.682,2.386-4.631,3.146-4.354c0.766,0.277,0.592,2.677-0.387,5.361
					c-0.977,2.686-2.387,4.636-3.148,4.356C488.047,283.488,488.223,281.088,489.197,278.403z"/>
				<path d="M489.098,278.303c0.978-2.682,2.386-4.631,3.146-4.354c0.766,0.277,0.592,2.677-0.387,5.361
					c-0.977,2.686-2.387,4.636-3.148,4.356C487.947,283.388,488.123,280.988,489.098,278.303z"/>
			</g>
			<g>
				<g opacity="0.1">
					<path d="M489.098,278.303c0.978-2.682,2.386-4.631,3.146-4.354c0.766,0.277,0.592,2.677-0.387,5.361
						c-0.977,2.686-2.387,4.636-3.148,4.356C487.947,283.388,488.123,280.988,489.098,278.303z"/>
				</g>
				<g>
					<path fill="#FFF7E9" d="M488.998,278.203c0.978-2.682,2.386-4.631,3.146-4.354c0.766,0.277,0.592,2.677-0.387,5.361
						c-0.977,2.686-2.387,4.636-3.148,4.356C487.848,283.288,488.023,280.888,488.998,278.203z"/>
				</g>
			</g>
		</g>
		<g>
			<g opacity="0.1">
				<path d="M490.403,279.111c0.001-2.854,0.656-5.168,1.464-5.168c0.815-0.001,1.473,2.314,1.473,5.171
					c0,2.859-0.658,5.172-1.469,5.17C491.06,284.283,490.404,281.968,490.403,279.111z"/>
				<path d="M490.304,279.011c0.001-2.854,0.656-5.168,1.464-5.168c0.815-0.001,1.473,2.314,1.473,5.171
					c0,2.859-0.658,5.172-1.469,5.17C490.96,284.183,490.305,281.868,490.304,279.011z"/>
			</g>
			<g>
				<g opacity="0.1">
					<path d="M490.304,279.011c0.001-2.854,0.656-5.168,1.464-5.168c0.815-0.001,1.473,2.314,1.473,5.171
						c0,2.859-0.658,5.172-1.469,5.17C490.96,284.183,490.305,281.868,490.304,279.011z"/>
				</g>
				<g>
					<path fill="#FFF7E9" d="M490.204,278.911c0.001-2.854,0.656-5.168,1.464-5.168c0.815-0.001,1.473,2.314,1.473,5.171
						c0,2.859-0.658,5.172-1.469,5.17C490.86,284.083,490.205,281.768,490.204,278.911z"/>
				</g>
			</g>
		</g>
		<g>
			<g opacity="0.1">
				<path d="M491.776,279.364c-0.975-2.683-1.151-5.08-0.391-5.357c0.766-0.282,2.174,1.67,3.151,4.354
					c0.979,2.687,1.15,5.085,0.388,5.361C494.162,283.999,492.754,282.049,491.776,279.364z"/>
				<path d="M491.677,279.264c-0.975-2.683-1.151-5.08-0.391-5.357c0.766-0.282,2.174,1.67,3.151,4.354
					c0.979,2.687,1.15,5.085,0.388,5.361C494.062,283.899,492.654,281.949,491.677,279.264z"/>
			</g>
			<g>
				<g opacity="0.1">
					<path d="M491.677,279.264c-0.975-2.683-1.151-5.08-0.391-5.357c0.766-0.282,2.174,1.67,3.151,4.354
						c0.979,2.687,1.15,5.085,0.388,5.361C494.062,283.899,492.654,281.949,491.677,279.264z"/>
				</g>
				<g>
					<path fill="#FFF7E9" d="M491.577,279.164c-0.975-2.683-1.151-5.08-0.391-5.357c0.766-0.282,2.174,1.67,3.151,4.354
						c0.979,2.687,1.15,5.085,0.388,5.361C493.963,283.799,492.555,281.849,491.577,279.164z"/>
				</g>
			</g>
		</g>
		<g>
			<g opacity="0.1">
				<path d="M493.154,279.133c-1.835-2.188-2.819-4.381-2.2-4.901c0.625-0.527,2.615,0.826,4.45,3.015
					c1.84,2.19,2.821,4.385,2.199,4.905C496.982,282.67,494.992,281.32,493.154,279.133z"/>
				<path d="M493.055,279.033c-1.835-2.188-2.819-4.381-2.2-4.901c0.625-0.527,2.615,0.826,4.45,3.015
					c1.84,2.19,2.821,4.385,2.199,4.905C496.883,282.57,494.893,281.22,493.055,279.033z"/>
			</g>
			<g>
				<g opacity="0.1">
					<path d="M493.055,279.033c-1.835-2.188-2.819-4.381-2.2-4.901c0.625-0.527,2.615,0.826,4.45,3.015
						c1.84,2.19,2.821,4.385,2.199,4.905C496.883,282.57,494.893,281.22,493.055,279.033z"/>
				</g>
				<g>
					<path fill="#FFF7E9" d="M492.955,278.933c-1.835-2.188-2.819-4.381-2.2-4.901c0.625-0.527,2.615,0.826,4.45,3.015
						c1.84,2.19,2.821,4.385,2.199,4.905C496.783,282.47,494.793,281.12,492.955,278.933z"/>
				</g>
			</g>
		</g>
		<g>
			<g opacity="0.1">
				<path d="M494.37,278.443c-2.473-1.429-4.148-3.152-3.745-3.853c0.407-0.709,2.739-0.118,5.214,1.31
					c2.477,1.429,4.151,3.156,3.744,3.858C499.176,280.458,496.844,279.87,494.37,278.443z"/>
				<path d="M494.271,278.343c-2.473-1.429-4.148-3.152-3.745-3.853c0.407-0.709,2.739-0.118,5.214,1.31
					c2.477,1.429,4.151,3.156,3.744,3.858C499.076,280.358,496.744,279.77,494.271,278.343z"/>
			</g>
			<g>
				<g opacity="0.1">
					<path d="M494.271,278.343c-2.473-1.429-4.148-3.152-3.745-3.853c0.407-0.709,2.739-0.118,5.214,1.31
						c2.477,1.429,4.151,3.156,3.744,3.858C499.076,280.358,496.744,279.77,494.271,278.343z"/>
				</g>
				<g>
					<path fill="#FFF7E9" d="M494.171,278.243c-2.473-1.429-4.148-3.152-3.745-3.853c0.407-0.709,2.739-0.118,5.214,1.31
						c2.477,1.429,4.151,3.156,3.744,3.858C498.977,280.258,496.645,279.67,494.171,278.243z"/>
				</g>
			</g>
		</g>
		<g>
			<g opacity="0.1">
				<path d="M495.276,277.38c-2.813-0.496-4.978-1.544-4.836-2.339c0.138-0.806,2.531-1.048,5.346-0.552
					c2.817,0.495,4.98,1.547,4.839,2.346C500.48,277.63,498.09,277.874,495.276,277.38z"/>
				<path d="M495.177,277.28c-2.813-0.496-4.978-1.544-4.836-2.339c0.138-0.806,2.531-1.048,5.346-0.552
					c2.817,0.495,4.98,1.547,4.839,2.346C500.381,277.53,497.99,277.774,495.177,277.28z"/>
			</g>
			<g>
				<g opacity="0.1">
					<path d="M495.177,277.28c-2.813-0.496-4.978-1.544-4.836-2.339c0.138-0.806,2.531-1.048,5.346-0.552
						c2.817,0.495,4.98,1.547,4.839,2.346C500.381,277.53,497.99,277.774,495.177,277.28z"/>
				</g>
				<g>
					<path fill="#FFF7E9" d="M495.077,277.18c-2.813-0.496-4.978-1.544-4.836-2.339c0.138-0.806,2.531-1.048,5.346-0.552
						c2.817,0.495,4.98,1.547,4.839,2.346C500.281,277.43,497.891,277.674,495.077,277.18z"/>
				</g>
			</g>
		</g>
		<g>
			<g opacity="0.1">
				<path d="M495.764,276.071c-2.812,0.495-5.204,0.25-5.345-0.545c-0.145-0.805,2.021-1.851,4.837-2.347
					c2.813-0.5,5.207-0.25,5.348,0.55C500.739,274.526,498.576,275.573,495.764,276.071z"/>
				<path d="M495.664,275.971c-2.812,0.495-5.204,0.25-5.345-0.545c-0.145-0.805,2.021-1.851,4.837-2.347
					c2.813-0.5,5.207-0.25,5.348,0.55C500.64,274.426,498.477,275.473,495.664,275.971z"/>
			</g>
			<g>
				<g opacity="0.1">
					<path d="M495.664,275.971c-2.812,0.495-5.204,0.25-5.345-0.545c-0.145-0.805,2.021-1.851,4.837-2.347
						c2.813-0.5,5.207-0.25,5.348,0.55C500.64,274.426,498.477,275.473,495.664,275.971z"/>
				</g>
				<g>
					<path fill="#FFF7E9" d="M495.564,275.871c-2.812,0.495-5.204,0.25-5.345-0.545c-0.145-0.805,2.021-1.851,4.837-2.347
						c2.813-0.5,5.207-0.25,5.348,0.55C500.54,274.326,498.377,275.373,495.564,275.871z"/>
				</g>
			</g>
		</g>
		<g>
			<g opacity="0.1">
				<path d="M495.774,274.673c-2.475,1.427-4.805,2.015-5.209,1.316c-0.412-0.707,1.265-2.431,3.741-3.861
					c2.476-1.43,4.81-2.015,5.213-1.312C499.921,271.521,498.246,273.244,495.774,274.673z"/>
				<path d="M495.675,274.573c-2.475,1.427-4.805,2.015-5.209,1.316c-0.412-0.707,1.265-2.431,3.741-3.861
					c2.476-1.43,4.81-2.015,5.213-1.312C499.821,271.42,498.146,273.144,495.675,274.573z"/>
			</g>
			<g>
				<g opacity="0.1">
					<path d="M495.675,274.573c-2.475,1.427-4.805,2.015-5.209,1.316c-0.412-0.707,1.265-2.431,3.741-3.861
						c2.476-1.43,4.81-2.015,5.213-1.312C499.821,271.42,498.146,273.144,495.675,274.573z"/>
				</g>
				<g>
					<path fill="#FFF7E9" d="M495.575,274.473c-2.475,1.427-4.805,2.015-5.209,1.316c-0.412-0.707,1.265-2.431,3.741-3.861
						c2.476-1.43,4.81-2.015,5.213-1.312C499.722,271.32,498.047,273.044,495.575,274.473z"/>
				</g>
			</g>
		</g>
		<g>
			<g opacity="0.1">
				<path d="M495.306,273.356c-1.837,2.188-3.825,3.537-4.444,3.02c-0.628-0.523,0.356-2.718,2.196-4.908
					c1.835-2.19,3.828-3.538,4.45-3.015C498.123,268.976,497.142,271.167,495.306,273.356z"/>
				<path d="M495.206,273.256c-1.837,2.188-3.825,3.537-4.444,3.02c-0.628-0.523,0.356-2.718,2.196-4.908
					c1.835-2.19,3.828-3.538,4.45-3.015C498.023,268.876,497.042,271.067,495.206,273.256z"/>
			</g>
			<g>
				<g opacity="0.1">
					<path d="M495.206,273.256c-1.837,2.188-3.825,3.537-4.444,3.02c-0.628-0.523,0.356-2.718,2.196-4.908
						c1.835-2.19,3.828-3.538,4.45-3.015C498.023,268.876,497.042,271.067,495.206,273.256z"/>
				</g>
				<g>
					<path fill="#FFF7E9" d="M495.106,273.156c-1.837,2.188-3.825,3.537-4.444,3.02c-0.628-0.523,0.356-2.718,2.196-4.908
						c1.835-2.19,3.828-3.538,4.45-3.015C497.924,268.776,496.942,270.967,495.106,273.156z"/>
				</g>
			</g>
		</g>
		<g>
			<g opacity="0.1">
				<path d="M494.415,272.279c-0.979,2.685-2.383,4.633-3.144,4.358c-0.77-0.277-0.594-2.676,0.385-5.364
					c0.977-2.686,2.388-4.634,3.15-4.355C495.564,267.199,495.392,269.596,494.415,272.279z"/>
				<path d="M494.315,272.179c-0.979,2.685-2.383,4.633-3.144,4.358c-0.77-0.277-0.594-2.676,0.385-5.364
					c0.977-2.686,2.388-4.634,3.15-4.355C495.465,267.099,495.292,269.496,494.315,272.179z"/>
			</g>
			<g>
				<g opacity="0.1">
					<path d="M494.315,272.179c-0.979,2.685-2.383,4.633-3.144,4.358c-0.77-0.277-0.594-2.676,0.385-5.364
						c0.977-2.686,2.388-4.634,3.15-4.355C495.465,267.099,495.292,269.496,494.315,272.179z"/>
				</g>
				<g>
					<path fill="#FFF7E9" d="M494.216,272.079c-0.979,2.685-2.383,4.633-3.144,4.358c-0.77-0.277-0.594-2.676,0.385-5.364
						c0.977-2.686,2.388-4.634,3.15-4.355C495.365,266.999,495.192,269.396,494.216,272.079z"/>
				</g>
			</g>
		</g>
		<g>
			<g opacity="0.1">
				<path d="M493.211,271.571c-0.002,2.858-0.656,5.169-1.463,5.172c-0.818,0.001-1.477-2.312-1.474-5.173
					c-0.003-2.857,0.659-5.17,1.47-5.169C492.553,266.404,493.21,268.716,493.211,271.571z"/>
				<path d="M493.111,271.471c-0.002,2.858-0.656,5.169-1.463,5.172c-0.818,0.001-1.477-2.312-1.474-5.173
					c-0.003-2.857,0.659-5.17,1.47-5.169C492.453,266.304,493.11,268.616,493.111,271.471z"/>
			</g>
			<g>
				<g opacity="0.1">
					<path d="M493.111,271.471c-0.002,2.858-0.656,5.169-1.463,5.172c-0.818,0.001-1.477-2.312-1.474-5.173
						c-0.003-2.857,0.659-5.17,1.47-5.169C492.453,266.304,493.11,268.616,493.111,271.471z"/>
				</g>
				<g>
					<path fill="#FFF7E9" d="M493.012,271.371c-0.002,2.858-0.656,5.169-1.463,5.172c-0.818,0.001-1.477-2.312-1.474-5.173
						c-0.003-2.857,0.659-5.17,1.47-5.169C492.354,266.204,493.011,268.516,493.012,271.371z"/>
				</g>
			</g>
		</g>
		<g>
			<g opacity="0.1">
				
					<ellipse transform="matrix(0.9397 -0.3419 0.3419 0.9397 -63.6714 184.2466)" cx="490.808" cy="272.737" rx="1.088" ry="3.827"/>
				
					<ellipse transform="matrix(0.9397 -0.3419 0.3419 0.9397 -63.6432 184.2065)" cx="490.708" cy="272.637" rx="1.088" ry="3.827"/>
			</g>
			<g>
				<g opacity="0.1">
					
						<ellipse transform="matrix(0.9397 -0.3419 0.3419 0.9397 -63.6432 184.2065)" cx="490.708" cy="272.637" rx="1.088" ry="3.827"/>
				</g>
				<g>
					
						<ellipse transform="matrix(0.9397 -0.3419 0.3419 0.9397 -63.615 184.1664)" fill="#FFF7E9" cx="490.609" cy="272.537" rx="1.088" ry="3.827"/>
				</g>
			</g>
		</g>
		<g>
			<g opacity="0.1">
				
					<ellipse transform="matrix(0.7657 -0.6432 0.6432 0.7657 -60.9445 379.1634)" cx="489.977" cy="273.236" rx="1.086" ry="3.827"/>
				
					<ellipse transform="matrix(0.7657 -0.6432 0.6432 0.7657 -60.9034 379.0758)" cx="489.877" cy="273.135" rx="1.086" ry="3.827"/>
			</g>
			<g>
				<g opacity="0.1">
					
						<ellipse transform="matrix(0.7657 -0.6432 0.6432 0.7657 -60.9034 379.0758)" cx="489.877" cy="273.135" rx="1.086" ry="3.827"/>
				</g>
				<g>
					
						<ellipse transform="matrix(0.7657 -0.6432 0.6432 0.7657 -60.8624 378.9883)" fill="#FFF7E9" cx="489.778" cy="273.035" rx="1.086" ry="3.827"/>
				</g>
			</g>
		</g>
		<g>
			<g opacity="0.1">
				<ellipse transform="matrix(0.4997 -0.8662 0.8662 0.4997 7.4966 560.9567)" cx="489.367" cy="273.989" rx="1.087" ry="3.827"/>
				<ellipse transform="matrix(0.4997 -0.8662 0.8662 0.4997 7.5335 560.8204)" cx="489.268" cy="273.888" rx="1.087" ry="3.827"/>
			</g>
			<g>
				<g opacity="0.1">
					<ellipse transform="matrix(0.4997 -0.8662 0.8662 0.4997 7.5335 560.8204)" cx="489.268" cy="273.888" rx="1.087" ry="3.827"/>
				</g>
				<g>
					
						<ellipse transform="matrix(0.4997 -0.8662 0.8662 0.4997 7.5704 560.684)" fill="#FFF7E9" cx="489.168" cy="273.788" rx="1.087" ry="3.827"/>
				</g>
			</g>
		</g>
		<g>
			<g opacity="0.1">
				<path d="M489.24,273.834c2.079,0.368,3.686,1.144,3.581,1.734c-0.105,0.594-1.879,0.774-3.959,0.406
					c-2.083-0.365-3.686-1.143-3.58-1.734C485.387,273.649,487.158,273.468,489.24,273.834z"/>
				<path d="M489.141,273.734c2.079,0.368,3.686,1.144,3.581,1.734c-0.105,0.594-1.879,0.774-3.959,0.406
					c-2.083-0.365-3.686-1.143-3.58-1.734C485.287,273.549,487.059,273.368,489.141,273.734z"/>
			</g>
			<g>
				<g opacity="0.1">
					<path d="M489.141,273.734c2.079,0.368,3.686,1.144,3.581,1.734c-0.105,0.594-1.879,0.774-3.959,0.406
						c-2.083-0.365-3.686-1.143-3.58-1.734C485.287,273.549,487.059,273.368,489.141,273.734z"/>
				</g>
				<g>
					<path fill="#FFF7E9" d="M489.041,273.634c2.079,0.368,3.686,1.144,3.581,1.734c-0.105,0.594-1.879,0.774-3.959,0.406
						c-2.083-0.365-3.686-1.143-3.58-1.734C485.188,273.449,486.959,273.268,489.041,273.634z"/>
				</g>
			</g>
		</g>
		<g>
			<g opacity="0.1">
				
					<ellipse transform="matrix(-0.173 -0.9849 0.9849 -0.173 301.9786 805.2985)" cx="489.068" cy="275.873" rx="1.086" ry="3.825"/>
				
					<ellipse transform="matrix(-0.173 -0.9849 0.9849 -0.173 301.9603 805.0829)" cx="488.968" cy="275.773" rx="1.086" ry="3.825"/>
			</g>
			<g>
				<g opacity="0.1">
					
						<ellipse transform="matrix(-0.173 -0.9849 0.9849 -0.173 301.9603 805.0829)" cx="488.968" cy="275.773" rx="1.086" ry="3.825"/>
				</g>
				<g>
					
						<ellipse transform="matrix(-0.173 -0.9849 0.9849 -0.173 301.942 804.8675)" fill="#FFF7E9" cx="488.869" cy="275.673" rx="1.086" ry="3.825"/>
				</g>
			</g>
		</g>
		<g>
			<g opacity="0.1">
				<path d="M488.873,275.836c1.828-1.055,3.554-1.491,3.854-0.971c0.301,0.521-0.94,1.798-2.771,2.854
					c-1.831,1.059-3.557,1.494-3.857,0.973C485.801,278.172,487.041,276.894,488.873,275.836z"/>
				<path d="M488.773,275.736c1.828-1.055,3.554-1.491,3.854-0.971c0.301,0.521-0.94,1.798-2.771,2.854
					c-1.831,1.059-3.557,1.494-3.857,0.973C485.701,278.072,486.941,276.793,488.773,275.736z"/>
			</g>
			<g>
				<g opacity="0.1">
					<path d="M488.773,275.736c1.828-1.055,3.554-1.491,3.854-0.971c0.301,0.521-0.94,1.798-2.771,2.854
						c-1.831,1.059-3.557,1.494-3.857,0.973C485.701,278.072,486.941,276.793,488.773,275.736z"/>
				</g>
				<g>
					<path fill="#FFF7E9" d="M488.674,275.636c1.828-1.055,3.554-1.491,3.854-0.971c0.301,0.521-0.94,1.798-2.771,2.854
						c-1.831,1.059-3.557,1.494-3.857,0.973C485.602,277.972,486.842,276.693,488.674,275.636z"/>
				</g>
			</g>
		</g>
		<g>
			<g opacity="0.1">
				<path d="M489.219,276.812c1.357-1.618,2.83-2.618,3.287-2.232c0.464,0.387-0.263,2.011-1.623,3.631
					c-1.36,1.622-2.834,2.619-3.293,2.232C487.13,280.055,487.859,278.43,489.219,276.812z"/>
				<path d="M489.119,276.711c1.357-1.618,2.83-2.618,3.287-2.232c0.464,0.387-0.263,2.011-1.623,3.631
					c-1.36,1.622-2.834,2.619-3.293,2.232C487.03,279.955,487.76,278.33,489.119,276.711z"/>
			</g>
			<g>
				<g opacity="0.1">
					<path d="M489.119,276.711c1.357-1.618,2.83-2.618,3.287-2.232c0.464,0.387-0.263,2.011-1.623,3.631
						c-1.36,1.622-2.834,2.619-3.293,2.232C487.03,279.955,487.76,278.33,489.119,276.711z"/>
				</g>
				<g>
					<path fill="#FFF7E9" d="M489.02,276.611c1.357-1.618,2.83-2.618,3.287-2.232c0.464,0.387-0.263,2.011-1.623,3.631
						c-1.36,1.622-2.834,2.619-3.293,2.232C486.931,279.854,487.66,278.23,489.02,276.611z"/>
				</g>
			</g>
		</g>
		<g>
			<g opacity="0.1">
				
					<ellipse transform="matrix(-0.9395 -0.3424 0.3424 -0.9395 856.9208 707.259)" cx="490.897" cy="277.98" rx="1.087" ry="3.825"/>
				
					<ellipse transform="matrix(-0.9395 -0.3424 0.3424 -0.9395 856.7618 707.0308)" cx="490.798" cy="277.88" rx="1.087" ry="3.825"/>
			</g>
			<g>
				<g opacity="0.1">
					
						<ellipse transform="matrix(-0.9395 -0.3424 0.3424 -0.9395 856.7618 707.0308)" cx="490.798" cy="277.88" rx="1.087" ry="3.825"/>
				</g>
				<g>
					
						<ellipse transform="matrix(-0.9395 -0.3424 0.3424 -0.9395 856.6029 706.8025)" fill="#FFF7E9" cx="490.698" cy="277.78" rx="1.087" ry="3.825"/>
				</g>
			</g>
		</g>
		<g>
			<g opacity="0.1">
				<path d="M490.77,278.131c0-2.112,0.485-3.824,1.081-3.825c0.605,0,1.091,1.713,1.091,3.828s-0.488,3.827-1.086,3.827
					C491.255,281.959,490.77,280.246,490.77,278.131z"/>
				<path d="M490.67,278.031c0-2.112,0.485-3.824,1.081-3.825c0.605,0,1.091,1.713,1.091,3.828s-0.488,3.827-1.086,3.827
					C491.155,281.859,490.67,280.146,490.67,278.031z"/>
			</g>
			<g>
				<g opacity="0.1">
					<path d="M490.67,278.031c0-2.112,0.485-3.824,1.081-3.825c0.605,0,1.091,1.713,1.091,3.828s-0.488,3.827-1.086,3.827
						C491.155,281.859,490.67,280.146,490.67,278.031z"/>
				</g>
				<g>
					<path fill="#FFF7E9" d="M490.57,277.931c0-2.112,0.485-3.824,1.081-3.825c0.605,0,1.091,1.713,1.091,3.828
						s-0.488,3.827-1.086,3.827C491.056,281.759,490.57,280.045,490.57,277.931z"/>
				</g>
			</g>
		</g>
		<g>
			<g opacity="0.1">
				
					<ellipse transform="matrix(-0.9399 0.3415 -0.3415 -0.9399 1050.9014 370.9203)" cx="492.807" cy="277.948" rx="1.087" ry="3.826"/>
				
					<ellipse transform="matrix(-0.9399 0.3415 -0.3415 -0.9399 1050.6741 370.7601)" cx="492.707" cy="277.848" rx="1.087" ry="3.826"/>
			</g>
			<g>
				<g opacity="0.1">
					
						<ellipse transform="matrix(-0.9399 0.3415 -0.3415 -0.9399 1050.6741 370.7601)" cx="492.707" cy="277.848" rx="1.087" ry="3.826"/>
				</g>
				<g>
					
						<ellipse transform="matrix(-0.9399 0.3415 -0.3415 -0.9399 1050.4465 370.6)" fill="#FFF7E9" cx="492.607" cy="277.748" rx="1.087" ry="3.826"/>
				</g>
			</g>
		</g>
		<g>
			<g opacity="0.1">
				<path d="M492.806,278.147c-1.358-1.618-2.089-3.242-1.628-3.626c0.461-0.39,1.934,0.611,3.291,2.231
					c1.363,1.621,2.089,3.245,1.629,3.63C495.638,280.766,494.165,279.766,492.806,278.147z"/>
				<path d="M492.706,278.047c-1.358-1.618-2.089-3.242-1.628-3.626c0.461-0.39,1.934,0.611,3.291,2.231
					c1.363,1.621,2.089,3.245,1.629,3.63C495.538,280.666,494.065,279.666,492.706,278.047z"/>
			</g>
			<g>
				<g opacity="0.1">
					<path d="M492.706,278.047c-1.358-1.618-2.089-3.242-1.628-3.626c0.461-0.39,1.934,0.611,3.291,2.231
						c1.363,1.621,2.089,3.245,1.629,3.63C495.538,280.666,494.065,279.666,492.706,278.047z"/>
				</g>
				<g>
					<path fill="#FFF7E9" d="M492.606,277.947c-1.358-1.618-2.089-3.242-1.628-3.626c0.461-0.39,1.934,0.611,3.291,2.231
						c1.363,1.621,2.089,3.245,1.629,3.63C495.438,280.565,493.966,279.565,492.606,277.947z"/>
				</g>
			</g>
		</g>
		<g>
			<g opacity="0.1">
				<path d="M493.704,277.637c-1.831-1.056-3.07-2.332-2.772-2.851c0.303-0.525,2.026-0.088,3.858,0.97
					c1.833,1.056,3.072,2.335,2.771,2.856C497.261,279.128,495.535,278.693,493.704,277.637z"/>
				<path d="M493.604,277.537c-1.831-1.056-3.07-2.332-2.772-2.851c0.303-0.525,2.026-0.088,3.858,0.97
					c1.833,1.056,3.072,2.335,2.771,2.856C497.161,279.028,495.436,278.593,493.604,277.537z"/>
			</g>
			<g>
				<g opacity="0.1">
					<path d="M493.604,277.537c-1.831-1.056-3.07-2.332-2.772-2.851c0.303-0.525,2.026-0.088,3.858,0.97
						c1.833,1.056,3.072,2.335,2.771,2.856C497.161,279.028,495.436,278.593,493.604,277.537z"/>
				</g>
				<g>
					<path fill="#FFF7E9" d="M493.505,277.437c-1.831-1.056-3.07-2.332-2.772-2.851c0.303-0.525,2.026-0.088,3.858,0.97
						c1.833,1.056,3.072,2.335,2.771,2.856C497.062,278.928,495.336,278.493,493.505,277.437z"/>
				</g>
			</g>
		</g>
		<g>
			<g opacity="0.1">
				<path d="M494.374,276.85c-2.082-0.367-3.683-1.142-3.579-1.731c0.104-0.597,1.873-0.775,3.957-0.409
					c2.085,0.365,3.687,1.144,3.581,1.736C498.228,277.036,496.457,277.216,494.374,276.85z"/>
				<path d="M494.274,276.75c-2.082-0.367-3.683-1.142-3.579-1.731c0.104-0.597,1.873-0.775,3.957-0.409
					c2.085,0.365,3.687,1.144,3.581,1.736C498.128,276.936,496.357,277.116,494.274,276.75z"/>
			</g>
			<g>
				<g opacity="0.1">
					<path d="M494.274,276.75c-2.082-0.367-3.683-1.142-3.579-1.731c0.104-0.597,1.873-0.775,3.957-0.409
						c2.085,0.365,3.687,1.144,3.581,1.736C498.128,276.936,496.357,277.116,494.274,276.75z"/>
				</g>
				<g>
					<path fill="#FFF7E9" d="M494.175,276.65c-2.082-0.367-3.683-1.142-3.579-1.731c0.104-0.597,1.873-0.775,3.957-0.409
						c2.085,0.365,3.687,1.144,3.581,1.736C498.028,276.835,496.258,277.016,494.175,276.65z"/>
				</g>
			</g>
		</g>
		<g>
			<g opacity="0.1">
				<path d="M494.734,275.882c-2.082,0.366-3.851,0.186-3.954-0.403c-0.106-0.597,1.494-1.371,3.579-1.738
					c2.084-0.369,3.854-0.185,3.959,0.406C498.418,274.737,496.817,275.512,494.734,275.882z"/>
				<path d="M494.635,275.782c-2.082,0.366-3.851,0.186-3.954-0.403c-0.106-0.597,1.494-1.371,3.579-1.738
					c2.084-0.369,3.854-0.185,3.959,0.406C498.318,274.637,496.718,275.412,494.635,275.782z"/>
			</g>
			<g>
				<g opacity="0.1">
					<path d="M494.635,275.782c-2.082,0.366-3.851,0.186-3.954-0.403c-0.106-0.597,1.494-1.371,3.579-1.738
						c2.084-0.369,3.854-0.185,3.959,0.406C498.318,274.637,496.718,275.412,494.635,275.782z"/>
				</g>
				<g>
					<path fill="#FFF7E9" d="M494.535,275.682c-2.082,0.366-3.851,0.186-3.954-0.403c-0.106-0.597,1.494-1.371,3.579-1.738
						c2.084-0.369,3.854-0.185,3.959,0.406C498.219,274.537,496.618,275.312,494.535,275.682z"/>
				</g>
			</g>
		</g>
		<g>
			<g opacity="0.1">
				<path d="M494.742,274.847c-1.83,1.056-3.557,1.492-3.854,0.974c-0.306-0.522,0.936-1.799,2.767-2.857
					c1.833-1.059,3.56-1.491,3.86-0.97C497.813,272.513,496.572,273.79,494.742,274.847z"/>
				<path d="M494.643,274.747c-1.83,1.056-3.557,1.492-3.854,0.974c-0.306-0.522,0.936-1.799,2.767-2.857
					c1.833-1.059,3.56-1.491,3.86-0.97C497.714,272.413,496.473,273.689,494.643,274.747z"/>
			</g>
			<g>
				<g opacity="0.1">
					<path d="M494.643,274.747c-1.83,1.056-3.557,1.492-3.854,0.974c-0.306-0.522,0.936-1.799,2.767-2.857
						c1.833-1.059,3.56-1.491,3.86-0.97C497.714,272.413,496.473,273.689,494.643,274.747z"/>
				</g>
				<g>
					<path fill="#FFF7E9" d="M494.543,274.647c-1.83,1.056-3.557,1.492-3.854,0.974c-0.306-0.522,0.936-1.799,2.767-2.857
						c1.833-1.059,3.56-1.491,3.86-0.97C497.614,272.313,496.373,273.589,494.543,274.647z"/>
				</g>
			</g>
		</g>
		<g>
			<g opacity="0.1">
				<path d="M494.396,273.873c-1.36,1.619-2.83,2.618-3.288,2.235c-0.466-0.387,0.263-2.01,1.624-3.632
					c1.358-1.622,2.835-2.619,3.292-2.232C496.482,270.63,495.756,272.252,494.396,273.873z"/>
				<path d="M494.297,273.772c-1.36,1.619-2.83,2.618-3.288,2.235c-0.466-0.387,0.263-2.01,1.624-3.632
					c1.358-1.622,2.835-2.619,3.292-2.232C496.383,270.53,495.656,272.152,494.297,273.772z"/>
			</g>
			<g>
				<g opacity="0.1">
					<path d="M494.297,273.772c-1.36,1.619-2.83,2.618-3.288,2.235c-0.466-0.387,0.263-2.01,1.624-3.632
						c1.358-1.622,2.835-2.619,3.292-2.232C496.383,270.53,495.656,272.152,494.297,273.772z"/>
				</g>
				<g>
					<path fill="#FFF7E9" d="M494.197,273.672c-1.36,1.619-2.83,2.618-3.288,2.235c-0.466-0.387,0.263-2.01,1.624-3.632
						c1.358-1.622,2.835-2.619,3.292-2.232C496.283,270.43,495.557,272.052,494.197,273.672z"/>
				</g>
			</g>
		</g>
		<g>
			<g opacity="0.1">
				<path d="M493.737,273.076c-0.723,1.985-1.764,3.427-2.326,3.225c-0.569-0.206-0.44-1.98,0.284-3.97
					c0.724-1.988,1.768-3.429,2.331-3.222S494.459,271.089,493.737,273.076z"/>
				<path d="M493.638,272.976c-0.723,1.985-1.764,3.427-2.326,3.225c-0.569-0.206-0.44-1.98,0.284-3.97
					c0.724-1.988,1.768-3.429,2.331-3.222S494.359,270.989,493.638,272.976z"/>
			</g>
			<g>
				<g opacity="0.1">
					<path d="M493.638,272.976c-0.723,1.985-1.764,3.427-2.326,3.225c-0.569-0.206-0.44-1.98,0.284-3.97
						c0.724-1.988,1.768-3.429,2.331-3.222S494.359,270.989,493.638,272.976z"/>
				</g>
				<g>
					<path fill="#FFF7E9" d="M493.538,272.875c-0.723,1.985-1.764,3.427-2.326,3.225c-0.569-0.206-0.44-1.98,0.284-3.97
						c0.724-1.988,1.768-3.429,2.331-3.222S494.26,270.889,493.538,272.875z"/>
				</g>
			</g>
		</g>
		<g>
			<g opacity="0.1">
				<path d="M492.846,272.551c-0.001,2.115-0.485,3.826-1.081,3.828c-0.606,0.001-1.093-1.711-1.091-3.829
					c-0.002-2.114,0.487-3.826,1.086-3.826C492.358,268.727,492.845,270.439,492.846,272.551z"/>
				<path d="M492.746,272.451c-0.001,2.115-0.485,3.826-1.081,3.828c-0.606,0.001-1.093-1.711-1.091-3.829
					c-0.002-2.114,0.487-3.826,1.086-3.826C492.259,268.627,492.745,270.339,492.746,272.451z"/>
			</g>
			<g>
				<g opacity="0.1">
					<path d="M492.746,272.451c-0.001,2.115-0.485,3.826-1.081,3.828c-0.606,0.001-1.093-1.711-1.091-3.829
						c-0.002-2.114,0.487-3.826,1.086-3.826C492.259,268.627,492.745,270.339,492.746,272.451z"/>
				</g>
				<g>
					<path fill="#FFF7E9" d="M492.646,272.351c-0.001,2.115-0.485,3.826-1.081,3.828c-0.606,0.001-1.093-1.711-1.091-3.829
						c-0.002-2.114,0.487-3.826,1.086-3.826C492.159,268.527,492.646,270.239,492.646,272.351z"/>
				</g>
			</g>
		</g>
	</g>
	<g>
		<g opacity="0.1">
			<circle cx="491.771" cy="275.68" r="1.246"/>
		</g>
		<g>
			<circle fill="#FFF7E9" cx="491.672" cy="275.58" r="1.246"/>
		</g>
	</g>
	<g>
		<g opacity="0.1">
			<path d="M529.761,205.596c0,0,19.396-1.29,15.239,34.54c0,0,2.771,16.78,3.811,19.897c1.038,3.117,7.002,41.043-23.204,41.043
				c-14.388,0-17.504-19.911-13.773-28.384c2.833-6.437,3.603-14.164,4.767-21.145c1.892-11.351-2.323-21.32,0.013-32.517
				C518.041,212.183,522.1,205.895,529.761,205.596z"/>
		</g>
		<g>
			<path fill="#967738" d="M528.761,204.596c0,0,19.396-1.29,15.239,34.54c0,0,2.771,16.78,3.811,19.897
				c1.038,3.117,7.002,41.042-23.204,41.042c-14.388,0-17.504-19.911-13.773-28.384c2.833-6.437,3.603-14.164,4.767-21.145
				c1.892-11.351-2.323-21.32,0.013-32.517C517.041,211.183,521.1,204.895,528.761,204.596z"/>
		</g>
	</g>
	<g>
		<g opacity="0.1">
			<path d="M531.529,261.257c-2.5,1.853-5.247,3.647-8.225,5.298c-3.42-3.303-6.006-6.343-7.722-8.538
				c0.347-2.187,0.666-4.363,1.018-6.471c0.226-1.354,0.359-2.687,0.433-4.005C520.127,251.258,525.005,256.424,531.529,261.257z"/>
			<path d="M511.834,272.692c0.182-0.412,0.333-0.843,0.498-1.265c3.95-1.335,7.61-3.006,10.973-4.872
				c2.978-1.651,5.725-3.446,8.225-5.298c6.667-4.938,11.617-10.226,14.699-13.958c0.596,3.371,1.304,7.224,1.88,9.9
				c-1.681,2.216-4.483,5.619-8.354,9.356c-2.354,2.273-5.1,4.662-8.226,6.976c-5.732,4.246-12.741,8.218-20.929,10.724
				C510.076,279.897,510.548,275.615,511.834,272.692z"/>
			<path d="M539.755,266.555c3.146,1.746,6.555,3.317,10.217,4.607c0.007,3.65-0.33,7.787-1.349,11.799
				c-6.562-2.477-12.274-5.861-17.094-9.43C534.655,271.217,537.4,268.828,539.755,266.555z"/>
		</g>
		<g>
			<g>
				<path fill="#DBC8AB" d="M530.529,260.257c-2.5,1.853-5.247,3.647-8.225,5.298c-3.42-3.303-6.006-6.343-7.722-8.538
					c0.347-2.187,0.666-4.363,1.018-6.471c0.226-1.354,0.359-2.687,0.433-4.005C519.127,250.258,524.005,255.424,530.529,260.257z"
					/>
				<path fill="#EAD8B7" d="M510.834,271.692c0.182-0.412,0.333-0.843,0.498-1.265c3.95-1.335,7.61-3.006,10.973-4.872
					c2.978-1.651,5.725-3.446,8.225-5.298c6.667-4.938,11.617-10.226,14.699-13.958c0.596,3.371,1.304,7.224,1.88,9.9
					c-1.681,2.216-4.483,5.619-8.354,9.356c-2.354,2.273-5.1,4.662-8.226,6.976c-5.732,4.246-12.741,8.218-20.929,10.724
					C509.076,278.897,509.548,274.615,510.834,271.692z"/>
				<path fill="#DBC8AB" d="M538.755,265.555c3.146,1.746,6.555,3.317,10.217,4.607c0.007,3.65-0.33,7.787-1.349,11.799
					c-6.562-2.477-12.274-5.861-17.094-9.43C533.655,270.217,536.4,267.828,538.755,265.555z"/>
			</g>
		</g>
	</g>
	<g>
		<g>
			<g opacity="0.1">
				<ellipse cx="516.656" cy="271.573" rx="1.468" ry="5.171"/>
				<ellipse cx="516.556" cy="271.473" rx="1.468" ry="5.171"/>
			</g>
			<g>
				<g opacity="0.1">
					<ellipse cx="516.556" cy="271.473" rx="1.468" ry="5.171"/>
				</g>
				<g>
					<ellipse fill="#FFF7E9" cx="516.457" cy="271.373" rx="1.468" ry="5.171"/>
				</g>
			</g>
		</g>
		<g>
			<g opacity="0.1">
				
					<ellipse transform="matrix(-0.9397 -0.342 0.342 -0.9397 911.6699 704.4048)" cx="517.941" cy="271.822" rx="1.469" ry="5.171"/>
				<ellipse transform="matrix(-0.9397 -0.342 0.342 -0.9397 911.511 704.1765)" cx="517.841" cy="271.722" rx="1.469" ry="5.171"/>
			</g>
			<g>
				<g opacity="0.1">
					
						<ellipse transform="matrix(-0.9397 -0.342 0.342 -0.9397 911.511 704.1765)" cx="517.841" cy="271.722" rx="1.469" ry="5.171"/>
				</g>
				<g>
					
						<ellipse transform="matrix(-0.9397 -0.342 0.342 -0.9397 911.3519 703.9483)" fill="#FFF7E9" cx="517.742" cy="271.622" rx="1.469" ry="5.171"/>
				</g>
			</g>
		</g>
		<g>
			<g opacity="0.1">
				
					<ellipse transform="matrix(-0.7657 -0.6432 0.6432 -0.7657 741.2706 814.9946)" cx="519.063" cy="272.496" rx="1.468" ry="5.171"/>
				
					<ellipse transform="matrix(-0.7657 -0.6432 0.6432 -0.7657 741.1591 814.7538)" cx="518.964" cy="272.396" rx="1.468" ry="5.171"/>
			</g>
			<g>
				<g opacity="0.1">
					
						<ellipse transform="matrix(-0.7657 -0.6432 0.6432 -0.7657 741.1591 814.7538)" cx="518.964" cy="272.396" rx="1.468" ry="5.171"/>
				</g>
				<g>
					
						<ellipse transform="matrix(-0.7657 -0.6432 0.6432 -0.7657 741.0475 814.5129)" fill="#FFF7E9" cx="518.864" cy="272.296" rx="1.468" ry="5.171"/>
				</g>
			</g>
		</g>
		<g>
			<g opacity="0.1">
				<ellipse transform="matrix(-0.5 -0.866 0.866 -0.5 542.9409 860.5067)" cx="519.888" cy="273.513" rx="1.468" ry="5.17"/>
				<ellipse transform="matrix(-0.5 -0.866 0.866 -0.5 542.8782 860.2703)" cx="519.789" cy="273.413" rx="1.468" ry="5.17"/>
			</g>
			<g>
				<g opacity="0.1">
					<ellipse transform="matrix(-0.5 -0.866 0.866 -0.5 542.8782 860.2703)" cx="519.789" cy="273.413" rx="1.468" ry="5.17"/>
				</g>
				<g>
					
						<ellipse transform="matrix(-0.5 -0.866 0.866 -0.5 542.8154 860.0339)" fill="#FFF7E9" cx="519.689" cy="273.313" rx="1.468" ry="5.17"/>
				</g>
			</g>
		</g>
		<g>
			<g opacity="0.1">
				<path d="M520.059,273.306c-2.81,0.497-4.977,1.544-4.836,2.342c0.142,0.801,2.535,1.046,5.347,0.548
					c2.815-0.494,4.98-1.543,4.839-2.343C525.267,273.055,522.873,272.809,520.059,273.306z"/>
				<path d="M519.959,273.206c-2.81,0.497-4.977,1.544-4.836,2.342c0.142,0.801,2.535,1.046,5.347,0.548
					c2.815-0.494,4.98-1.543,4.839-2.343C525.167,272.955,522.773,272.709,519.959,273.206z"/>
			</g>
			<g>
				<g opacity="0.1">
					<path d="M519.959,273.206c-2.81,0.497-4.977,1.544-4.836,2.342c0.142,0.801,2.535,1.046,5.347,0.548
						c2.815-0.494,4.98-1.543,4.839-2.343C525.167,272.955,522.773,272.709,519.959,273.206z"/>
				</g>
				<g>
					<path fill="#FFF7E9" d="M519.859,273.105c-2.81,0.497-4.977,1.544-4.836,2.342c0.142,0.801,2.535,1.046,5.347,0.548
						c2.815-0.494,4.98-1.543,4.839-2.343C525.067,272.855,522.674,272.609,519.859,273.105z"/>
				</g>
			</g>
		</g>
		<g>
			<g opacity="0.1">
				<path d="M520.547,274.614c-2.811-0.495-5.204-0.25-5.346,0.546c-0.142,0.802,2.024,1.851,4.837,2.345
					c2.813,0.499,5.208,0.252,5.347-0.548C525.526,276.159,523.361,275.11,520.547,274.614z"/>
				<path d="M520.447,274.514c-2.811-0.495-5.204-0.25-5.346,0.546c-0.142,0.802,2.024,1.851,4.837,2.345
					c2.813,0.499,5.208,0.252,5.347-0.548C525.427,276.059,523.262,275.01,520.447,274.514z"/>
			</g>
			<g>
				<g opacity="0.1">
					<path d="M520.447,274.514c-2.811-0.495-5.204-0.25-5.346,0.546c-0.142,0.802,2.024,1.851,4.837,2.345
						c2.813,0.499,5.208,0.252,5.347-0.548C525.427,276.059,523.262,275.01,520.447,274.514z"/>
				</g>
				<g>
					<path fill="#FFF7E9" d="M520.348,274.414c-2.811-0.495-5.204-0.25-5.346,0.546c-0.142,0.802,2.024,1.851,4.837,2.345
						c2.813,0.499,5.208,0.252,5.347-0.548C525.327,275.959,523.162,274.91,520.348,274.414z"/>
				</g>
			</g>
		</g>
		<g>
			<g opacity="0.1">
				<path d="M520.558,276.011c-2.472-1.426-4.805-2.015-5.209-1.313c-0.408,0.705,1.269,2.43,3.742,3.858
					c2.474,1.43,4.808,2.018,5.212,1.313C524.707,279.166,523.031,277.439,520.558,276.011z"/>
				<path d="M520.458,275.911c-2.472-1.426-4.805-2.015-5.209-1.313c-0.408,0.705,1.269,2.43,3.742,3.858
					c2.474,1.43,4.808,2.018,5.212,1.313C524.607,279.065,522.932,277.339,520.458,275.911z"/>
			</g>
			<g>
				<g opacity="0.1">
					<path d="M520.458,275.911c-2.472-1.426-4.805-2.015-5.209-1.313c-0.408,0.705,1.269,2.43,3.742,3.858
						c2.474,1.43,4.808,2.018,5.212,1.313C524.607,279.065,522.932,277.339,520.458,275.911z"/>
				</g>
				<g>
					<path fill="#FFF7E9" d="M520.358,275.811c-2.472-1.426-4.805-2.015-5.209-1.313c-0.408,0.705,1.269,2.43,3.742,3.858
						c2.474,1.43,4.808,2.018,5.212,1.313C524.508,278.965,522.832,277.239,520.358,275.811z"/>
				</g>
			</g>
		</g>
		<g>
			<g opacity="0.1">
				<path d="M520.09,277.327c-1.834-2.186-3.825-3.537-4.444-3.016c-0.625,0.522,0.359,2.718,2.196,4.905
					c1.836,2.19,3.828,3.54,4.449,3.016C522.91,281.71,521.926,279.515,520.09,277.327z"/>
				<path d="M519.99,277.227c-1.834-2.186-3.825-3.537-4.444-3.016c-0.625,0.522,0.359,2.718,2.196,4.905
					c1.836,2.19,3.828,3.54,4.449,3.016C522.811,281.61,521.826,279.415,519.99,277.227z"/>
			</g>
			<g>
				<g opacity="0.1">
					<path d="M519.99,277.227c-1.834-2.186-3.825-3.537-4.444-3.016c-0.625,0.522,0.359,2.718,2.196,4.905
						c1.836,2.19,3.828,3.54,4.449,3.016C522.811,281.61,521.826,279.415,519.99,277.227z"/>
				</g>
				<g>
					<path fill="#FFF7E9" d="M519.891,277.127c-1.834-2.186-3.825-3.537-4.444-3.016c-0.625,0.522,0.359,2.718,2.196,4.905
						c1.836,2.19,3.828,3.54,4.449,3.016C522.711,281.51,521.727,279.315,519.891,277.127z"/>
				</g>
			</g>
		</g>
		<g>
			<g opacity="0.1">
				<path d="M519.201,278.403c-0.978-2.682-2.386-4.631-3.146-4.354c-0.766,0.277-0.592,2.677,0.387,5.361
					c0.977,2.686,2.387,4.636,3.148,4.356C520.352,283.488,520.176,281.088,519.201,278.403z"/>
				<path d="M519.102,278.303c-0.978-2.682-2.386-4.631-3.146-4.354c-0.766,0.277-0.592,2.677,0.387,5.361
					c0.977,2.686,2.387,4.636,3.148,4.356C520.252,283.388,520.076,280.988,519.102,278.303z"/>
			</g>
			<g>
				<g opacity="0.1">
					<path d="M519.102,278.303c-0.978-2.682-2.386-4.631-3.146-4.354c-0.766,0.277-0.592,2.677,0.387,5.361
						c0.977,2.686,2.387,4.636,3.148,4.356C520.252,283.388,520.076,280.988,519.102,278.303z"/>
				</g>
				<g>
					<path fill="#FFF7E9" d="M519.002,278.203c-0.978-2.682-2.386-4.631-3.146-4.354c-0.766,0.277-0.592,2.677,0.387,5.361
						c0.977,2.686,2.387,4.636,3.148,4.356C520.152,283.288,519.977,280.888,519.002,278.203z"/>
				</g>
			</g>
		</g>
		<g>
			<g opacity="0.1">
				<path d="M517.995,279.111c-0.001-2.854-0.656-5.168-1.464-5.168c-0.815-0.001-1.473,2.314-1.473,5.171
					c0,2.859,0.658,5.172,1.469,5.17C517.339,284.283,517.994,281.968,517.995,279.111z"/>
				<path d="M517.896,279.011c-0.001-2.854-0.656-5.168-1.464-5.168c-0.815-0.001-1.473,2.314-1.473,5.171
					c0,2.859,0.658,5.172,1.469,5.17C517.239,284.183,517.895,281.868,517.896,279.011z"/>
			</g>
			<g>
				<g opacity="0.1">
					<path d="M517.896,279.011c-0.001-2.854-0.656-5.168-1.464-5.168c-0.815-0.001-1.473,2.314-1.473,5.171
						c0,2.859,0.658,5.172,1.469,5.17C517.239,284.183,517.895,281.868,517.896,279.011z"/>
				</g>
				<g>
					<path fill="#FFF7E9" d="M517.796,278.911c-0.001-2.854-0.656-5.168-1.464-5.168c-0.815-0.001-1.473,2.314-1.473,5.171
						c0,2.859,0.658,5.172,1.469,5.17C517.14,284.083,517.795,281.768,517.796,278.911z"/>
				</g>
			</g>
		</g>
		<g>
			<g opacity="0.1">
				<path d="M516.623,279.364c0.974-2.683,1.15-5.08,0.39-5.357c-0.766-0.282-2.174,1.67-3.151,4.354
					c-0.979,2.687-1.15,5.085-0.388,5.361C514.236,283.999,515.645,282.049,516.623,279.364z"/>
				<path d="M516.523,279.264c0.974-2.683,1.15-5.08,0.39-5.357c-0.766-0.282-2.174,1.67-3.151,4.354
					c-0.979,2.687-1.15,5.085-0.388,5.361C514.137,283.899,515.545,281.949,516.523,279.264z"/>
			</g>
			<g>
				<g opacity="0.1">
					<path d="M516.523,279.264c0.974-2.683,1.15-5.08,0.39-5.357c-0.766-0.282-2.174,1.67-3.151,4.354
						c-0.979,2.687-1.15,5.085-0.388,5.361C514.137,283.899,515.545,281.949,516.523,279.264z"/>
				</g>
				<g>
					<path fill="#FFF7E9" d="M516.424,279.164c0.974-2.683,1.15-5.08,0.39-5.357c-0.766-0.282-2.174,1.67-3.151,4.354
						c-0.979,2.687-1.15,5.085-0.388,5.361C514.037,283.799,515.445,281.849,516.424,279.164z"/>
				</g>
			</g>
		</g>
		<g>
			<g opacity="0.1">
				<path d="M515.244,279.133c1.835-2.188,2.819-4.381,2.2-4.901c-0.625-0.527-2.615,0.826-4.45,3.015
					c-1.84,2.19-2.821,4.385-2.199,4.905C511.416,282.67,513.406,281.32,515.244,279.133z"/>
				<path d="M515.145,279.033c1.835-2.188,2.819-4.381,2.2-4.901c-0.625-0.527-2.615,0.826-4.45,3.015
					c-1.84,2.19-2.821,4.385-2.199,4.905C511.316,282.57,513.307,281.22,515.145,279.033z"/>
			</g>
			<g>
				<g opacity="0.1">
					<path d="M515.145,279.033c1.835-2.188,2.819-4.381,2.2-4.901c-0.625-0.527-2.615,0.826-4.45,3.015
						c-1.84,2.19-2.821,4.385-2.199,4.905C511.316,282.57,513.307,281.22,515.145,279.033z"/>
				</g>
				<g>
					<path fill="#FFF7E9" d="M515.045,278.933c1.835-2.188,2.819-4.381,2.2-4.901c-0.625-0.527-2.615,0.826-4.45,3.015
						c-1.84,2.19-2.821,4.385-2.199,4.905C511.217,282.47,513.207,281.12,515.045,278.933z"/>
				</g>
			</g>
		</g>
		<g>
			<g opacity="0.1">
				<path d="M514.029,278.443c2.472-1.429,4.147-3.152,3.744-3.853c-0.407-0.709-2.739-0.118-5.214,1.31
					c-2.477,1.429-4.151,3.156-3.744,3.858C509.223,280.458,511.555,279.87,514.029,278.443z"/>
				<path d="M513.93,278.343c2.472-1.429,4.147-3.152,3.744-3.853c-0.407-0.709-2.739-0.118-5.214,1.31
					c-2.477,1.429-4.151,3.156-3.744,3.858C509.123,280.358,511.455,279.77,513.93,278.343z"/>
			</g>
			<g>
				<g opacity="0.1">
					<path d="M513.93,278.343c2.472-1.429,4.147-3.152,3.744-3.853c-0.407-0.709-2.739-0.118-5.214,1.31
						c-2.477,1.429-4.151,3.156-3.744,3.858C509.123,280.358,511.455,279.77,513.93,278.343z"/>
				</g>
				<g>
					<path fill="#FFF7E9" d="M513.83,278.243c2.472-1.429,4.147-3.152,3.744-3.853c-0.407-0.709-2.739-0.118-5.214,1.31
						c-2.477,1.429-4.151,3.156-3.744,3.858C509.023,280.258,511.355,279.67,513.83,278.243z"/>
				</g>
			</g>
		</g>
		<g>
			<g opacity="0.1">
				<path d="M513.122,277.38c2.813-0.496,4.978-1.544,4.836-2.339c-0.138-0.806-2.531-1.048-5.346-0.552
					c-2.817,0.495-4.98,1.547-4.839,2.346C507.918,277.63,510.309,277.874,513.122,277.38z"/>
				<path d="M513.022,277.28c2.813-0.496,4.978-1.544,4.836-2.339c-0.138-0.806-2.531-1.048-5.346-0.552
					c-2.817,0.495-4.98,1.547-4.839,2.346C507.818,277.53,510.209,277.774,513.022,277.28z"/>
			</g>
			<g>
				<g opacity="0.1">
					<path d="M513.022,277.28c2.813-0.496,4.978-1.544,4.836-2.339c-0.138-0.806-2.531-1.048-5.346-0.552
						c-2.817,0.495-4.98,1.547-4.839,2.346C507.818,277.53,510.209,277.774,513.022,277.28z"/>
				</g>
				<g>
					<path fill="#FFF7E9" d="M512.923,277.18c2.813-0.496,4.978-1.544,4.836-2.339c-0.138-0.806-2.531-1.048-5.346-0.552
						c-2.817,0.495-4.98,1.547-4.839,2.346C507.719,277.43,510.109,277.674,512.923,277.18z"/>
				</g>
			</g>
		</g>
		<g>
			<g opacity="0.1">
				<path d="M512.635,276.071c2.812,0.495,5.204,0.25,5.345-0.545c0.145-0.805-2.021-1.851-4.837-2.347
					c-2.813-0.5-5.207-0.25-5.348,0.55C507.659,274.526,509.822,275.573,512.635,276.071z"/>
				<path d="M512.535,275.971c2.812,0.495,5.204,0.25,5.345-0.545c0.145-0.805-2.021-1.851-4.837-2.347
					c-2.813-0.5-5.207-0.25-5.348,0.55C507.56,274.426,509.723,275.473,512.535,275.971z"/>
			</g>
			<g>
				<g opacity="0.1">
					<path d="M512.535,275.971c2.812,0.495,5.204,0.25,5.345-0.545c0.145-0.805-2.021-1.851-4.837-2.347
						c-2.813-0.5-5.207-0.25-5.348,0.55C507.56,274.426,509.723,275.473,512.535,275.971z"/>
				</g>
				<g>
					<path fill="#FFF7E9" d="M512.436,275.871c2.812,0.495,5.204,0.25,5.345-0.545c0.145-0.805-2.021-1.851-4.837-2.347
						c-2.813-0.5-5.207-0.25-5.348,0.55C507.46,274.326,509.623,275.373,512.436,275.871z"/>
				</g>
			</g>
		</g>
		<g>
			<g opacity="0.1">
				<path d="M512.624,274.673c2.475,1.427,4.805,2.015,5.209,1.316c0.412-0.707-1.265-2.431-3.741-3.861
					c-2.476-1.43-4.81-2.015-5.213-1.312C508.478,271.521,510.152,273.244,512.624,274.673z"/>
				<path d="M512.524,274.573c2.475,1.427,4.805,2.015,5.209,1.316c0.412-0.707-1.265-2.431-3.741-3.861
					c-2.476-1.43-4.81-2.015-5.213-1.312C508.378,271.42,510.053,273.144,512.524,274.573z"/>
			</g>
			<g>
				<g opacity="0.1">
					<path d="M512.524,274.573c2.475,1.427,4.805,2.015,5.209,1.316c0.412-0.707-1.265-2.431-3.741-3.861
						c-2.476-1.43-4.81-2.015-5.213-1.312C508.378,271.42,510.053,273.144,512.524,274.573z"/>
				</g>
				<g>
					<path fill="#FFF7E9" d="M512.425,274.473c2.475,1.427,4.805,2.015,5.209,1.316c0.412-0.707-1.265-2.431-3.741-3.861
						c-2.476-1.43-4.81-2.015-5.213-1.312C508.278,271.32,509.953,273.044,512.425,274.473z"/>
				</g>
			</g>
		</g>
		<g>
			<g opacity="0.1">
				<path d="M513.093,273.356c1.837,2.188,3.825,3.537,4.444,3.02c0.628-0.523-0.356-2.718-2.196-4.908
					c-1.835-2.19-3.828-3.538-4.45-3.015C510.275,268.976,511.257,271.167,513.093,273.356z"/>
				<path d="M512.993,273.256c1.837,2.188,3.825,3.537,4.444,3.02c0.628-0.523-0.356-2.718-2.196-4.908
					c-1.835-2.19-3.828-3.538-4.45-3.015C510.176,268.876,511.157,271.067,512.993,273.256z"/>
			</g>
			<g>
				<g opacity="0.1">
					<path d="M512.993,273.256c1.837,2.188,3.825,3.537,4.444,3.02c0.628-0.523-0.356-2.718-2.196-4.908
						c-1.835-2.19-3.828-3.538-4.45-3.015C510.176,268.876,511.157,271.067,512.993,273.256z"/>
				</g>
				<g>
					<path fill="#FFF7E9" d="M512.894,273.156c1.837,2.188,3.825,3.537,4.444,3.02c0.628-0.523-0.356-2.718-2.196-4.908
						c-1.835-2.19-3.828-3.538-4.45-3.015C510.076,268.776,511.058,270.967,512.894,273.156z"/>
				</g>
			</g>
		</g>
		<g>
			<g opacity="0.1">
				<path d="M513.983,272.279c0.979,2.685,2.383,4.633,3.144,4.358c0.77-0.277,0.594-2.676-0.385-5.364
					c-0.977-2.686-2.388-4.634-3.15-4.355C512.834,267.199,513.007,269.596,513.983,272.279z"/>
				<path d="M513.884,272.179c0.979,2.685,2.383,4.633,3.144,4.358c0.77-0.277,0.594-2.676-0.385-5.364
					c-0.977-2.686-2.388-4.634-3.15-4.355C512.734,267.099,512.907,269.496,513.884,272.179z"/>
			</g>
			<g>
				<g opacity="0.1">
					<path d="M513.884,272.179c0.979,2.685,2.383,4.633,3.144,4.358c0.77-0.277,0.594-2.676-0.385-5.364
						c-0.977-2.686-2.388-4.634-3.15-4.355C512.734,267.099,512.907,269.496,513.884,272.179z"/>
				</g>
				<g>
					<path fill="#FFF7E9" d="M513.784,272.079c0.979,2.685,2.383,4.633,3.144,4.358c0.77-0.277,0.594-2.676-0.385-5.364
						c-0.977-2.686-2.388-4.634-3.15-4.355C512.635,266.999,512.808,269.396,513.784,272.079z"/>
				</g>
			</g>
		</g>
		<g>
			<g opacity="0.1">
				
					<ellipse transform="matrix(-0.9397 -0.342 0.342 -0.9397 911.6699 704.4048)" cx="517.941" cy="271.822" rx="1.469" ry="5.171"/>
				<ellipse transform="matrix(-0.9397 -0.342 0.342 -0.9397 911.511 704.1765)" cx="517.841" cy="271.722" rx="1.469" ry="5.171"/>
			</g>
			<g>
				<g opacity="0.1">
					
						<ellipse transform="matrix(-0.9397 -0.342 0.342 -0.9397 911.511 704.1765)" cx="517.841" cy="271.722" rx="1.469" ry="5.171"/>
				</g>
				<g>
					
						<ellipse transform="matrix(-0.9397 -0.342 0.342 -0.9397 911.3519 703.9483)" fill="#FFF7E9" cx="517.742" cy="271.622" rx="1.469" ry="5.171"/>
				</g>
			</g>
		</g>
		<g>
			<g opacity="0.1">
				
					<ellipse transform="matrix(-0.7657 -0.6432 0.6432 -0.7657 741.2706 814.9946)" cx="519.063" cy="272.496" rx="1.468" ry="5.171"/>
				
					<ellipse transform="matrix(-0.7657 -0.6432 0.6432 -0.7657 741.1591 814.7538)" cx="518.964" cy="272.396" rx="1.468" ry="5.171"/>
			</g>
			<g>
				<g opacity="0.1">
					
						<ellipse transform="matrix(-0.7657 -0.6432 0.6432 -0.7657 741.1591 814.7538)" cx="518.964" cy="272.396" rx="1.468" ry="5.171"/>
				</g>
				<g>
					
						<ellipse transform="matrix(-0.7657 -0.6432 0.6432 -0.7657 741.0475 814.5129)" fill="#FFF7E9" cx="518.864" cy="272.296" rx="1.468" ry="5.171"/>
				</g>
			</g>
		</g>
		<g>
			<g opacity="0.1">
				<ellipse transform="matrix(-0.5 -0.866 0.866 -0.5 542.9409 860.5067)" cx="519.888" cy="273.513" rx="1.468" ry="5.17"/>
				<ellipse transform="matrix(-0.5 -0.866 0.866 -0.5 542.8782 860.2703)" cx="519.789" cy="273.413" rx="1.468" ry="5.17"/>
			</g>
			<g>
				<g opacity="0.1">
					<ellipse transform="matrix(-0.5 -0.866 0.866 -0.5 542.8782 860.2703)" cx="519.789" cy="273.413" rx="1.468" ry="5.17"/>
				</g>
				<g>
					
						<ellipse transform="matrix(-0.5 -0.866 0.866 -0.5 542.8154 860.0339)" fill="#FFF7E9" cx="519.689" cy="273.313" rx="1.468" ry="5.17"/>
				</g>
			</g>
		</g>
		<g>
			<g opacity="0.1">
				<path d="M520.059,273.306c-2.81,0.497-4.977,1.544-4.836,2.342c0.142,0.801,2.535,1.046,5.347,0.548
					c2.815-0.494,4.98-1.543,4.839-2.343C525.267,273.055,522.873,272.809,520.059,273.306z"/>
				<path d="M519.959,273.206c-2.81,0.497-4.977,1.544-4.836,2.342c0.142,0.801,2.535,1.046,5.347,0.548
					c2.815-0.494,4.98-1.543,4.839-2.343C525.167,272.955,522.773,272.709,519.959,273.206z"/>
			</g>
			<g>
				<g opacity="0.1">
					<path d="M519.959,273.206c-2.81,0.497-4.977,1.544-4.836,2.342c0.142,0.801,2.535,1.046,5.347,0.548
						c2.815-0.494,4.98-1.543,4.839-2.343C525.167,272.955,522.773,272.709,519.959,273.206z"/>
				</g>
				<g>
					<path fill="#FFF7E9" d="M519.859,273.105c-2.81,0.497-4.977,1.544-4.836,2.342c0.142,0.801,2.535,1.046,5.347,0.548
						c2.815-0.494,4.98-1.543,4.839-2.343C525.067,272.855,522.674,272.609,519.859,273.105z"/>
				</g>
			</g>
		</g>
		<g>
			<g opacity="0.1">
				<path d="M520.547,274.614c-2.811-0.495-5.204-0.25-5.346,0.546c-0.142,0.802,2.024,1.851,4.837,2.345
					c2.813,0.499,5.208,0.252,5.347-0.548C525.526,276.159,523.361,275.11,520.547,274.614z"/>
				<path d="M520.447,274.514c-2.811-0.495-5.204-0.25-5.346,0.546c-0.142,0.802,2.024,1.851,4.837,2.345
					c2.813,0.499,5.208,0.252,5.347-0.548C525.427,276.059,523.262,275.01,520.447,274.514z"/>
			</g>
			<g>
				<g opacity="0.1">
					<path d="M520.447,274.514c-2.811-0.495-5.204-0.25-5.346,0.546c-0.142,0.802,2.024,1.851,4.837,2.345
						c2.813,0.499,5.208,0.252,5.347-0.548C525.427,276.059,523.262,275.01,520.447,274.514z"/>
				</g>
				<g>
					<path fill="#FFF7E9" d="M520.348,274.414c-2.811-0.495-5.204-0.25-5.346,0.546c-0.142,0.802,2.024,1.851,4.837,2.345
						c2.813,0.499,5.208,0.252,5.347-0.548C525.327,275.959,523.162,274.91,520.348,274.414z"/>
				</g>
			</g>
		</g>
		<g>
			<g opacity="0.1">
				<path d="M520.558,276.011c-2.472-1.426-4.805-2.015-5.209-1.313c-0.408,0.705,1.269,2.43,3.742,3.858
					c2.474,1.43,4.808,2.018,5.212,1.313C524.707,279.166,523.031,277.439,520.558,276.011z"/>
				<path d="M520.458,275.911c-2.472-1.426-4.805-2.015-5.209-1.313c-0.408,0.705,1.269,2.43,3.742,3.858
					c2.474,1.43,4.808,2.018,5.212,1.313C524.607,279.065,522.932,277.339,520.458,275.911z"/>
			</g>
			<g>
				<g opacity="0.1">
					<path d="M520.458,275.911c-2.472-1.426-4.805-2.015-5.209-1.313c-0.408,0.705,1.269,2.43,3.742,3.858
						c2.474,1.43,4.808,2.018,5.212,1.313C524.607,279.065,522.932,277.339,520.458,275.911z"/>
				</g>
				<g>
					<path fill="#FFF7E9" d="M520.358,275.811c-2.472-1.426-4.805-2.015-5.209-1.313c-0.408,0.705,1.269,2.43,3.742,3.858
						c2.474,1.43,4.808,2.018,5.212,1.313C524.508,278.965,522.832,277.239,520.358,275.811z"/>
				</g>
			</g>
		</g>
		<g>
			<g opacity="0.1">
				<path d="M520.09,277.327c-1.834-2.186-3.825-3.537-4.444-3.016c-0.625,0.522,0.359,2.718,2.196,4.905
					c1.836,2.19,3.828,3.54,4.449,3.016C522.91,281.71,521.926,279.515,520.09,277.327z"/>
				<path d="M519.99,277.227c-1.834-2.186-3.825-3.537-4.444-3.016c-0.625,0.522,0.359,2.718,2.196,4.905
					c1.836,2.19,3.828,3.54,4.449,3.016C522.811,281.61,521.826,279.415,519.99,277.227z"/>
			</g>
			<g>
				<g opacity="0.1">
					<path d="M519.99,277.227c-1.834-2.186-3.825-3.537-4.444-3.016c-0.625,0.522,0.359,2.718,2.196,4.905
						c1.836,2.19,3.828,3.54,4.449,3.016C522.811,281.61,521.826,279.415,519.99,277.227z"/>
				</g>
				<g>
					<path fill="#FFF7E9" d="M519.891,277.127c-1.834-2.186-3.825-3.537-4.444-3.016c-0.625,0.522,0.359,2.718,2.196,4.905
						c1.836,2.19,3.828,3.54,4.449,3.016C522.711,281.51,521.727,279.315,519.891,277.127z"/>
				</g>
			</g>
		</g>
		<g>
			<g opacity="0.1">
				<path d="M519.201,278.403c-0.978-2.682-2.386-4.631-3.146-4.354c-0.766,0.277-0.592,2.677,0.387,5.361
					c0.977,2.686,2.387,4.636,3.148,4.356C520.352,283.488,520.176,281.088,519.201,278.403z"/>
				<path d="M519.102,278.303c-0.978-2.682-2.386-4.631-3.146-4.354c-0.766,0.277-0.592,2.677,0.387,5.361
					c0.977,2.686,2.387,4.636,3.148,4.356C520.252,283.388,520.076,280.988,519.102,278.303z"/>
			</g>
			<g>
				<g opacity="0.1">
					<path d="M519.102,278.303c-0.978-2.682-2.386-4.631-3.146-4.354c-0.766,0.277-0.592,2.677,0.387,5.361
						c0.977,2.686,2.387,4.636,3.148,4.356C520.252,283.388,520.076,280.988,519.102,278.303z"/>
				</g>
				<g>
					<path fill="#FFF7E9" d="M519.002,278.203c-0.978-2.682-2.386-4.631-3.146-4.354c-0.766,0.277-0.592,2.677,0.387,5.361
						c0.977,2.686,2.387,4.636,3.148,4.356C520.152,283.288,519.977,280.888,519.002,278.203z"/>
				</g>
			</g>
		</g>
		<g>
			<g opacity="0.1">
				<path d="M517.995,279.111c-0.001-2.854-0.656-5.168-1.464-5.168c-0.815-0.001-1.473,2.314-1.473,5.171
					c0,2.859,0.658,5.172,1.469,5.17C517.339,284.283,517.994,281.968,517.995,279.111z"/>
				<path d="M517.896,279.011c-0.001-2.854-0.656-5.168-1.464-5.168c-0.815-0.001-1.473,2.314-1.473,5.171
					c0,2.859,0.658,5.172,1.469,5.17C517.239,284.183,517.895,281.868,517.896,279.011z"/>
			</g>
			<g>
				<g opacity="0.1">
					<path d="M517.896,279.011c-0.001-2.854-0.656-5.168-1.464-5.168c-0.815-0.001-1.473,2.314-1.473,5.171
						c0,2.859,0.658,5.172,1.469,5.17C517.239,284.183,517.895,281.868,517.896,279.011z"/>
				</g>
				<g>
					<path fill="#FFF7E9" d="M517.796,278.911c-0.001-2.854-0.656-5.168-1.464-5.168c-0.815-0.001-1.473,2.314-1.473,5.171
						c0,2.859,0.658,5.172,1.469,5.17C517.14,284.083,517.795,281.768,517.796,278.911z"/>
				</g>
			</g>
		</g>
		<g>
			<g opacity="0.1">
				<path d="M516.623,279.364c0.974-2.683,1.15-5.08,0.39-5.357c-0.766-0.282-2.174,1.67-3.151,4.354
					c-0.979,2.687-1.15,5.085-0.388,5.361C514.236,283.999,515.645,282.049,516.623,279.364z"/>
				<path d="M516.523,279.264c0.974-2.683,1.15-5.08,0.39-5.357c-0.766-0.282-2.174,1.67-3.151,4.354
					c-0.979,2.687-1.15,5.085-0.388,5.361C514.137,283.899,515.545,281.949,516.523,279.264z"/>
			</g>
			<g>
				<g opacity="0.1">
					<path d="M516.523,279.264c0.974-2.683,1.15-5.08,0.39-5.357c-0.766-0.282-2.174,1.67-3.151,4.354
						c-0.979,2.687-1.15,5.085-0.388,5.361C514.137,283.899,515.545,281.949,516.523,279.264z"/>
				</g>
				<g>
					<path fill="#FFF7E9" d="M516.424,279.164c0.974-2.683,1.15-5.08,0.39-5.357c-0.766-0.282-2.174,1.67-3.151,4.354
						c-0.979,2.687-1.15,5.085-0.388,5.361C514.037,283.799,515.445,281.849,516.424,279.164z"/>
				</g>
			</g>
		</g>
		<g>
			<g opacity="0.1">
				<path d="M515.244,279.133c1.835-2.188,2.819-4.381,2.2-4.901c-0.625-0.527-2.615,0.826-4.45,3.015
					c-1.84,2.19-2.821,4.385-2.199,4.905C511.416,282.67,513.406,281.32,515.244,279.133z"/>
				<path d="M515.145,279.033c1.835-2.188,2.819-4.381,2.2-4.901c-0.625-0.527-2.615,0.826-4.45,3.015
					c-1.84,2.19-2.821,4.385-2.199,4.905C511.316,282.57,513.307,281.22,515.145,279.033z"/>
			</g>
			<g>
				<g opacity="0.1">
					<path d="M515.145,279.033c1.835-2.188,2.819-4.381,2.2-4.901c-0.625-0.527-2.615,0.826-4.45,3.015
						c-1.84,2.19-2.821,4.385-2.199,4.905C511.316,282.57,513.307,281.22,515.145,279.033z"/>
				</g>
				<g>
					<path fill="#FFF7E9" d="M515.045,278.933c1.835-2.188,2.819-4.381,2.2-4.901c-0.625-0.527-2.615,0.826-4.45,3.015
						c-1.84,2.19-2.821,4.385-2.199,4.905C511.217,282.47,513.207,281.12,515.045,278.933z"/>
				</g>
			</g>
		</g>
		<g>
			<g opacity="0.1">
				<path d="M514.029,278.443c2.472-1.429,4.147-3.152,3.744-3.853c-0.407-0.709-2.739-0.118-5.214,1.31
					c-2.477,1.429-4.151,3.156-3.744,3.858C509.223,280.458,511.555,279.87,514.029,278.443z"/>
				<path d="M513.93,278.343c2.472-1.429,4.147-3.152,3.744-3.853c-0.407-0.709-2.739-0.118-5.214,1.31
					c-2.477,1.429-4.151,3.156-3.744,3.858C509.123,280.358,511.455,279.77,513.93,278.343z"/>
			</g>
			<g>
				<g opacity="0.1">
					<path d="M513.93,278.343c2.472-1.429,4.147-3.152,3.744-3.853c-0.407-0.709-2.739-0.118-5.214,1.31
						c-2.477,1.429-4.151,3.156-3.744,3.858C509.123,280.358,511.455,279.77,513.93,278.343z"/>
				</g>
				<g>
					<path fill="#FFF7E9" d="M513.83,278.243c2.472-1.429,4.147-3.152,3.744-3.853c-0.407-0.709-2.739-0.118-5.214,1.31
						c-2.477,1.429-4.151,3.156-3.744,3.858C509.023,280.258,511.355,279.67,513.83,278.243z"/>
				</g>
			</g>
		</g>
		<g>
			<g opacity="0.1">
				<path d="M513.122,277.38c2.813-0.496,4.978-1.544,4.836-2.339c-0.138-0.806-2.531-1.048-5.346-0.552
					c-2.817,0.495-4.98,1.547-4.839,2.346C507.918,277.63,510.309,277.874,513.122,277.38z"/>
				<path d="M513.022,277.28c2.813-0.496,4.978-1.544,4.836-2.339c-0.138-0.806-2.531-1.048-5.346-0.552
					c-2.817,0.495-4.98,1.547-4.839,2.346C507.818,277.53,510.209,277.774,513.022,277.28z"/>
			</g>
			<g>
				<g opacity="0.1">
					<path d="M513.022,277.28c2.813-0.496,4.978-1.544,4.836-2.339c-0.138-0.806-2.531-1.048-5.346-0.552
						c-2.817,0.495-4.98,1.547-4.839,2.346C507.818,277.53,510.209,277.774,513.022,277.28z"/>
				</g>
				<g>
					<path fill="#FFF7E9" d="M512.923,277.18c2.813-0.496,4.978-1.544,4.836-2.339c-0.138-0.806-2.531-1.048-5.346-0.552
						c-2.817,0.495-4.98,1.547-4.839,2.346C507.719,277.43,510.109,277.674,512.923,277.18z"/>
				</g>
			</g>
		</g>
		<g>
			<g opacity="0.1">
				<path d="M512.635,276.071c2.812,0.495,5.204,0.25,5.345-0.545c0.145-0.805-2.021-1.851-4.837-2.347
					c-2.813-0.5-5.207-0.25-5.348,0.55C507.659,274.526,509.822,275.573,512.635,276.071z"/>
				<path d="M512.535,275.971c2.812,0.495,5.204,0.25,5.345-0.545c0.145-0.805-2.021-1.851-4.837-2.347
					c-2.813-0.5-5.207-0.25-5.348,0.55C507.56,274.426,509.723,275.473,512.535,275.971z"/>
			</g>
			<g>
				<g opacity="0.1">
					<path d="M512.535,275.971c2.812,0.495,5.204,0.25,5.345-0.545c0.145-0.805-2.021-1.851-4.837-2.347
						c-2.813-0.5-5.207-0.25-5.348,0.55C507.56,274.426,509.723,275.473,512.535,275.971z"/>
				</g>
				<g>
					<path fill="#FFF7E9" d="M512.436,275.871c2.812,0.495,5.204,0.25,5.345-0.545c0.145-0.805-2.021-1.851-4.837-2.347
						c-2.813-0.5-5.207-0.25-5.348,0.55C507.46,274.326,509.623,275.373,512.436,275.871z"/>
				</g>
			</g>
		</g>
		<g>
			<g opacity="0.1">
				<path d="M512.624,274.673c2.475,1.427,4.805,2.015,5.209,1.316c0.412-0.707-1.265-2.431-3.741-3.861
					c-2.476-1.43-4.81-2.015-5.213-1.312C508.478,271.521,510.152,273.244,512.624,274.673z"/>
				<path d="M512.524,274.573c2.475,1.427,4.805,2.015,5.209,1.316c0.412-0.707-1.265-2.431-3.741-3.861
					c-2.476-1.43-4.81-2.015-5.213-1.312C508.378,271.42,510.053,273.144,512.524,274.573z"/>
			</g>
			<g>
				<g opacity="0.1">
					<path d="M512.524,274.573c2.475,1.427,4.805,2.015,5.209,1.316c0.412-0.707-1.265-2.431-3.741-3.861
						c-2.476-1.43-4.81-2.015-5.213-1.312C508.378,271.42,510.053,273.144,512.524,274.573z"/>
				</g>
				<g>
					<path fill="#FFF7E9" d="M512.425,274.473c2.475,1.427,4.805,2.015,5.209,1.316c0.412-0.707-1.265-2.431-3.741-3.861
						c-2.476-1.43-4.81-2.015-5.213-1.312C508.278,271.32,509.953,273.044,512.425,274.473z"/>
				</g>
			</g>
		</g>
		<g>
			<g opacity="0.1">
				<path d="M513.093,273.356c1.837,2.188,3.825,3.537,4.444,3.02c0.628-0.523-0.356-2.718-2.196-4.908
					c-1.835-2.19-3.828-3.538-4.45-3.015C510.275,268.976,511.257,271.167,513.093,273.356z"/>
				<path d="M512.993,273.256c1.837,2.188,3.825,3.537,4.444,3.02c0.628-0.523-0.356-2.718-2.196-4.908
					c-1.835-2.19-3.828-3.538-4.45-3.015C510.176,268.876,511.157,271.067,512.993,273.256z"/>
			</g>
			<g>
				<g opacity="0.1">
					<path d="M512.993,273.256c1.837,2.188,3.825,3.537,4.444,3.02c0.628-0.523-0.356-2.718-2.196-4.908
						c-1.835-2.19-3.828-3.538-4.45-3.015C510.176,268.876,511.157,271.067,512.993,273.256z"/>
				</g>
				<g>
					<path fill="#FFF7E9" d="M512.894,273.156c1.837,2.188,3.825,3.537,4.444,3.02c0.628-0.523-0.356-2.718-2.196-4.908
						c-1.835-2.19-3.828-3.538-4.45-3.015C510.076,268.776,511.058,270.967,512.894,273.156z"/>
				</g>
			</g>
		</g>
		<g>
			<g opacity="0.1">
				<path d="M513.983,272.279c0.979,2.685,2.383,4.633,3.144,4.358c0.77-0.277,0.594-2.676-0.385-5.364
					c-0.977-2.686-2.388-4.634-3.15-4.355C512.834,267.199,513.007,269.596,513.983,272.279z"/>
				<path d="M513.884,272.179c0.979,2.685,2.383,4.633,3.144,4.358c0.77-0.277,0.594-2.676-0.385-5.364
					c-0.977-2.686-2.388-4.634-3.15-4.355C512.734,267.099,512.907,269.496,513.884,272.179z"/>
			</g>
			<g>
				<g opacity="0.1">
					<path d="M513.884,272.179c0.979,2.685,2.383,4.633,3.144,4.358c0.77-0.277,0.594-2.676-0.385-5.364
						c-0.977-2.686-2.388-4.634-3.15-4.355C512.734,267.099,512.907,269.496,513.884,272.179z"/>
				</g>
				<g>
					<path fill="#FFF7E9" d="M513.784,272.079c0.979,2.685,2.383,4.633,3.144,4.358c0.77-0.277,0.594-2.676-0.385-5.364
						c-0.977-2.686-2.388-4.634-3.15-4.355C512.635,266.999,512.808,269.396,513.784,272.079z"/>
				</g>
			</g>
		</g>
		<g>
			<g opacity="0.1">
				<path d="M515.188,271.571c0.002,2.858,0.656,5.169,1.463,5.172c0.818,0.001,1.477-2.312,1.474-5.173
					c0.003-2.857-0.659-5.17-1.47-5.169C515.846,266.404,515.188,268.716,515.188,271.571z"/>
				<path d="M515.088,271.471c0.002,2.858,0.656,5.169,1.463,5.172c0.818,0.001,1.477-2.312,1.474-5.173
					c0.003-2.857-0.659-5.17-1.47-5.169C515.746,266.304,515.089,268.616,515.088,271.471z"/>
			</g>
			<g>
				<g opacity="0.1">
					<path d="M515.088,271.471c0.002,2.858,0.656,5.169,1.463,5.172c0.818,0.001,1.477-2.312,1.474-5.173
						c0.003-2.857-0.659-5.17-1.47-5.169C515.746,266.304,515.089,268.616,515.088,271.471z"/>
				</g>
				<g>
					<path fill="#FFF7E9" d="M514.988,271.371c0.002,2.858,0.656,5.169,1.463,5.172c0.818,0.001,1.477-2.312,1.474-5.173
						c0.003-2.857-0.659-5.17-1.47-5.169C515.646,266.204,514.989,268.516,514.988,271.371z"/>
				</g>
			</g>
		</g>
		<g>
			<g opacity="0.1">
				
					<ellipse transform="matrix(-0.9397 -0.3419 0.3419 -0.9397 910.7375 706.0043)" cx="517.59" cy="272.737" rx="1.088" ry="3.827"/>
				
					<ellipse transform="matrix(-0.9397 -0.3419 0.3419 -0.9397 910.5786 705.7761)" cx="517.491" cy="272.637" rx="1.088" ry="3.827"/>
			</g>
			<g>
				<g opacity="0.1">
					
						<ellipse transform="matrix(-0.9397 -0.3419 0.3419 -0.9397 910.5786 705.7761)" cx="517.491" cy="272.637" rx="1.088" ry="3.827"/>
				</g>
				<g>
					
						<ellipse transform="matrix(-0.9397 -0.3419 0.3419 -0.9397 910.4196 705.5479)" fill="#FFF7E9" cx="517.391" cy="272.537" rx="1.088" ry="3.827"/>
				</g>
			</g>
		</g>
		<g>
			<g opacity="0.1">
				
					<ellipse transform="matrix(-0.7657 -0.6432 0.6432 -0.7657 739.64 815.8965)" cx="518.421" cy="273.236" rx="1.086" ry="3.827"/>
				
					<ellipse transform="matrix(-0.7657 -0.6432 0.6432 -0.7657 739.5284 815.6556)" cx="518.322" cy="273.135" rx="1.086" ry="3.827"/>
			</g>
			<g>
				<g opacity="0.1">
					
						<ellipse transform="matrix(-0.7657 -0.6432 0.6432 -0.7657 739.5284 815.6556)" cx="518.322" cy="273.135" rx="1.086" ry="3.827"/>
				</g>
				<g>
					
						<ellipse transform="matrix(-0.7657 -0.6432 0.6432 -0.7657 739.417 815.4148)" fill="#FFF7E9" cx="518.222" cy="273.035" rx="1.086" ry="3.827"/>
				</g>
			</g>
		</g>
		<g>
			<g opacity="0.1">
				
					<ellipse transform="matrix(-0.4997 -0.8662 0.8662 -0.4997 541.0735 860.4843)" cx="519.031" cy="273.989" rx="1.087" ry="3.827"/>
				
					<ellipse transform="matrix(-0.4997 -0.8662 0.8662 -0.4997 541.0108 860.2479)" cx="518.932" cy="273.888" rx="1.087" ry="3.827"/>
			</g>
			<g>
				<g opacity="0.1">
					
						<ellipse transform="matrix(-0.4997 -0.8662 0.8662 -0.4997 541.0108 860.2479)" cx="518.932" cy="273.888" rx="1.087" ry="3.827"/>
				</g>
				<g>
					
						<ellipse transform="matrix(-0.4997 -0.8662 0.8662 -0.4997 540.9481 860.0115)" fill="#FFF7E9" cx="518.832" cy="273.788" rx="1.087" ry="3.827"/>
				</g>
			</g>
		</g>
		<g>
			<g opacity="0.1">
				<path d="M519.158,273.834c-2.079,0.368-3.686,1.144-3.581,1.734c0.105,0.594,1.879,0.774,3.959,0.406
					c2.083-0.365,3.686-1.143,3.58-1.734C523.012,273.649,521.24,273.468,519.158,273.834z"/>
				<path d="M519.059,273.734c-2.079,0.368-3.686,1.144-3.581,1.734c0.105,0.594,1.879,0.774,3.959,0.406
					c2.083-0.365,3.686-1.143,3.58-1.734C522.912,273.549,521.141,273.368,519.059,273.734z"/>
			</g>
			<g>
				<g opacity="0.1">
					<path d="M519.059,273.734c-2.079,0.368-3.686,1.144-3.581,1.734c0.105,0.594,1.879,0.774,3.959,0.406
						c2.083-0.365,3.686-1.143,3.58-1.734C522.912,273.549,521.141,273.368,519.059,273.734z"/>
				</g>
				<g>
					<path fill="#FFF7E9" d="M518.959,273.634c-2.079,0.368-3.686,1.144-3.581,1.734c0.105,0.594,1.879,0.774,3.959,0.406
						c2.083-0.365,3.686-1.143,3.58-1.734C522.812,273.449,521.041,273.268,518.959,273.634z"/>
				</g>
			</g>
		</g>
		<g>
			<g opacity="0.1">
				<ellipse transform="matrix(0.173 -0.9849 0.9849 0.173 157.7592 739.6366)" cx="519.331" cy="275.873" rx="1.086" ry="3.825"/>
				<ellipse transform="matrix(0.173 -0.9849 0.9849 0.173 157.7753 739.4557)" cx="519.231" cy="275.773" rx="1.086" ry="3.825"/>
			</g>
			<g>
				<g opacity="0.1">
					<ellipse transform="matrix(0.173 -0.9849 0.9849 0.173 157.7753 739.4557)" cx="519.231" cy="275.773" rx="1.086" ry="3.825"/>
				</g>
				<g>
					
						<ellipse transform="matrix(0.173 -0.9849 0.9849 0.173 157.7916 739.2748)" fill="#FFF7E9" cx="519.131" cy="275.673" rx="1.086" ry="3.825"/>
				</g>
			</g>
		</g>
		<g>
			<g opacity="0.1">
				<path d="M519.525,275.836c-1.828-1.055-3.554-1.491-3.854-0.971c-0.301,0.521,0.94,1.798,2.771,2.854
					c1.831,1.059,3.557,1.494,3.857,0.973C522.598,278.172,521.357,276.894,519.525,275.836z"/>
				<path d="M519.426,275.736c-1.828-1.055-3.554-1.491-3.854-0.971c-0.301,0.521,0.94,1.798,2.771,2.854
					c1.831,1.059,3.557,1.494,3.857,0.973C522.498,278.072,521.258,276.793,519.426,275.736z"/>
			</g>
			<g>
				<g opacity="0.1">
					<path d="M519.426,275.736c-1.828-1.055-3.554-1.491-3.854-0.971c-0.301,0.521,0.94,1.798,2.771,2.854
						c1.831,1.059,3.557,1.494,3.857,0.973C522.498,278.072,521.258,276.793,519.426,275.736z"/>
				</g>
				<g>
					<path fill="#FFF7E9" d="M519.326,275.636c-1.828-1.055-3.554-1.491-3.854-0.971c-0.301,0.521,0.94,1.798,2.771,2.854
						c1.831,1.059,3.557,1.494,3.857,0.973C522.398,277.972,521.158,276.693,519.326,275.636z"/>
				</g>
			</g>
		</g>
		<g>
			<g opacity="0.1">
				<path d="M519.18,276.812c-1.357-1.618-2.83-2.618-3.287-2.232c-0.464,0.387,0.263,2.011,1.623,3.631
					c1.36,1.622,2.834,2.619,3.293,2.232C521.269,280.055,520.539,278.43,519.18,276.812z"/>
				<path d="M519.08,276.711c-1.357-1.618-2.83-2.618-3.287-2.232c-0.464,0.387,0.263,2.011,1.623,3.631
					c1.36,1.622,2.834,2.619,3.293,2.232C521.169,279.955,520.439,278.33,519.08,276.711z"/>
			</g>
			<g>
				<g opacity="0.1">
					<path d="M519.08,276.711c-1.357-1.618-2.83-2.618-3.287-2.232c-0.464,0.387,0.263,2.011,1.623,3.631
						c1.36,1.622,2.834,2.619,3.293,2.232C521.169,279.955,520.439,278.33,519.08,276.711z"/>
				</g>
				<g>
					<path fill="#FFF7E9" d="M518.98,276.611c-1.357-1.618-2.83-2.618-3.287-2.232c-0.464,0.387,0.263,2.011,1.623,3.631
						c1.36,1.622,2.834,2.619,3.293,2.232C521.069,279.854,520.34,278.23,518.98,276.611z"/>
				</g>
			</g>
		</g>
		<g>
			<g opacity="0.1">
				<ellipse transform="matrix(0.9395 -0.3424 0.3424 0.9395 -63.9038 194.0236)" cx="517.501" cy="277.98" rx="1.087" ry="3.825"/>
				<ellipse transform="matrix(0.9395 -0.3424 0.3424 0.9395 -63.8756 193.9834)" cx="517.401" cy="277.88" rx="1.087" ry="3.825"/>
			</g>
			<g>
				<g opacity="0.1">
					
						<ellipse transform="matrix(0.9395 -0.3424 0.3424 0.9395 -63.8756 193.9834)" cx="517.401" cy="277.88" rx="1.087" ry="3.825"/>
				</g>
				<g>
					
						<ellipse transform="matrix(0.9395 -0.3424 0.3424 0.9395 -63.8474 193.9433)" fill="#FFF7E9" cx="517.302" cy="277.78" rx="1.087" ry="3.825"/>
				</g>
			</g>
		</g>
		<g>
			<g opacity="0.1">
				<path d="M517.629,278.131c0-2.112-0.485-3.824-1.081-3.825c-0.605,0-1.091,1.713-1.091,3.828s0.488,3.827,1.086,3.827
					C517.144,281.959,517.629,280.246,517.629,278.131z"/>
				<path d="M517.529,278.031c0-2.112-0.485-3.824-1.081-3.825c-0.605,0-1.091,1.713-1.091,3.828s0.488,3.827,1.086,3.827
					C517.044,281.859,517.529,280.146,517.529,278.031z"/>
			</g>
			<g>
				<g opacity="0.1">
					<path d="M517.529,278.031c0-2.112-0.485-3.824-1.081-3.825c-0.605,0-1.091,1.713-1.091,3.828s0.488,3.827,1.086,3.827
						C517.044,281.859,517.529,280.146,517.529,278.031z"/>
				</g>
				<g>
					<path fill="#FFF7E9" d="M517.43,277.931c0-2.112-0.485-3.824-1.081-3.825c-0.605,0-1.091,1.713-1.091,3.828
						s0.488,3.827,1.086,3.827C516.944,281.759,517.43,280.045,517.43,277.931z"/>
				</g>
			</g>
		</g>
		<g>
			<g opacity="0.1">
				
					<ellipse transform="matrix(0.9399 0.3415 -0.3415 0.9399 125.8946 -159.3459)" cx="515.592" cy="277.948" rx="1.087" ry="3.826"/>
				
					<ellipse transform="matrix(0.9399 0.3415 -0.3415 0.9399 125.8544 -159.3179)" cx="515.492" cy="277.848" rx="1.087" ry="3.826"/>
			</g>
			<g>
				<g opacity="0.1">
					
						<ellipse transform="matrix(0.9399 0.3415 -0.3415 0.9399 125.8544 -159.3179)" cx="515.492" cy="277.848" rx="1.087" ry="3.826"/>
				</g>
				<g>
					
						<ellipse transform="matrix(0.9399 0.3415 -0.3415 0.9399 125.8143 -159.29)" fill="#FFF7E9" cx="515.393" cy="277.748" rx="1.087" ry="3.826"/>
				</g>
			</g>
		</g>
		<g>
			<g opacity="0.1">
				<path d="M515.593,278.147c1.358-1.618,2.089-3.242,1.628-3.626c-0.461-0.39-1.934,0.611-3.291,2.231
					c-1.363,1.621-2.089,3.245-1.629,3.63C512.761,280.766,514.233,279.766,515.593,278.147z"/>
				<path d="M515.493,278.047c1.358-1.618,2.089-3.242,1.628-3.626c-0.461-0.39-1.934,0.611-3.291,2.231
					c-1.363,1.621-2.089,3.245-1.629,3.63C512.661,280.666,514.134,279.666,515.493,278.047z"/>
			</g>
			<g>
				<g opacity="0.1">
					<path d="M515.493,278.047c1.358-1.618,2.089-3.242,1.628-3.626c-0.461-0.39-1.934,0.611-3.291,2.231
						c-1.363,1.621-2.089,3.245-1.629,3.63C512.661,280.666,514.134,279.666,515.493,278.047z"/>
				</g>
				<g>
					<path fill="#FFF7E9" d="M515.394,277.947c1.358-1.618,2.089-3.242,1.628-3.626c-0.461-0.39-1.934,0.611-3.291,2.231
						c-1.363,1.621-2.089,3.245-1.629,3.63C512.562,280.565,514.034,279.565,515.394,277.947z"/>
				</g>
			</g>
		</g>
		<g>
			<g opacity="0.1">
				<path d="M514.694,277.637c1.831-1.056,3.07-2.332,2.772-2.851c-0.303-0.525-2.026-0.088-3.858,0.97
					c-1.833,1.056-3.072,2.335-2.771,2.856C511.138,279.128,512.863,278.693,514.694,277.637z"/>
				<path d="M514.595,277.537c1.831-1.056,3.07-2.332,2.772-2.851c-0.303-0.525-2.026-0.088-3.858,0.97
					c-1.833,1.056-3.072,2.335-2.771,2.856C511.038,279.028,512.764,278.593,514.595,277.537z"/>
			</g>
			<g>
				<g opacity="0.1">
					<path d="M514.595,277.537c1.831-1.056,3.07-2.332,2.772-2.851c-0.303-0.525-2.026-0.088-3.858,0.97
						c-1.833,1.056-3.072,2.335-2.771,2.856C511.038,279.028,512.764,278.593,514.595,277.537z"/>
				</g>
				<g>
					<path fill="#FFF7E9" d="M514.495,277.437c1.831-1.056,3.07-2.332,2.772-2.851c-0.303-0.525-2.026-0.088-3.858,0.97
						c-1.833,1.056-3.072,2.335-2.771,2.856C510.938,278.928,512.664,278.493,514.495,277.437z"/>
				</g>
			</g>
		</g>
		<g>
			<g opacity="0.1">
				<path d="M514.024,276.85c2.082-0.367,3.684-1.142,3.579-1.731c-0.104-0.597-1.873-0.775-3.957-0.409
					c-2.085,0.365-3.687,1.144-3.581,1.736C510.171,277.036,511.941,277.216,514.024,276.85z"/>
				<path d="M513.925,276.75c2.082-0.367,3.684-1.142,3.579-1.731c-0.104-0.597-1.873-0.775-3.957-0.409
					c-2.085,0.365-3.687,1.144-3.581,1.736C510.071,276.936,511.842,277.116,513.925,276.75z"/>
			</g>
			<g>
				<g opacity="0.1">
					<path d="M513.925,276.75c2.082-0.367,3.684-1.142,3.579-1.731c-0.104-0.597-1.873-0.775-3.957-0.409
						c-2.085,0.365-3.687,1.144-3.581,1.736C510.071,276.936,511.842,277.116,513.925,276.75z"/>
				</g>
				<g>
					<path fill="#FFF7E9" d="M513.825,276.65c2.082-0.367,3.684-1.142,3.579-1.731c-0.104-0.597-1.873-0.775-3.957-0.409
						c-2.085,0.365-3.687,1.144-3.581,1.736C509.972,276.835,511.742,277.016,513.825,276.65z"/>
				</g>
			</g>
		</g>
		<g>
			<g opacity="0.1">
				<path d="M513.664,275.882c2.082,0.366,3.851,0.186,3.954-0.403c0.106-0.597-1.494-1.371-3.579-1.738
					c-2.084-0.369-3.854-0.185-3.959,0.406C509.98,274.737,511.581,275.512,513.664,275.882z"/>
				<path d="M513.564,275.782c2.082,0.366,3.851,0.186,3.954-0.403c0.106-0.597-1.494-1.371-3.579-1.738
					c-2.084-0.369-3.854-0.185-3.959,0.406C509.881,274.637,511.481,275.412,513.564,275.782z"/>
			</g>
			<g>
				<g opacity="0.1">
					<path d="M513.564,275.782c2.082,0.366,3.851,0.186,3.954-0.403c0.106-0.597-1.494-1.371-3.579-1.738
						c-2.084-0.369-3.854-0.185-3.959,0.406C509.881,274.637,511.481,275.412,513.564,275.782z"/>
				</g>
				<g>
					<path fill="#FFF7E9" d="M513.465,275.682c2.082,0.366,3.851,0.186,3.954-0.403c0.106-0.597-1.494-1.371-3.579-1.738
						c-2.084-0.369-3.854-0.185-3.959,0.406C509.781,274.537,511.382,275.312,513.465,275.682z"/>
				</g>
			</g>
		</g>
		<g>
			<g opacity="0.1">
				<path d="M513.656,274.847c1.83,1.056,3.557,1.492,3.854,0.974c0.306-0.522-0.936-1.799-2.767-2.857
					c-1.833-1.059-3.56-1.491-3.86-0.97C510.585,272.513,511.826,273.79,513.656,274.847z"/>
				<path d="M513.557,274.747c1.83,1.056,3.557,1.492,3.854,0.974c0.306-0.522-0.936-1.799-2.767-2.857
					c-1.833-1.059-3.56-1.491-3.86-0.97C510.485,272.413,511.727,273.689,513.557,274.747z"/>
			</g>
			<g>
				<g opacity="0.1">
					<path d="M513.557,274.747c1.83,1.056,3.557,1.492,3.854,0.974c0.306-0.522-0.936-1.799-2.767-2.857
						c-1.833-1.059-3.56-1.491-3.86-0.97C510.485,272.413,511.727,273.689,513.557,274.747z"/>
				</g>
				<g>
					<path fill="#FFF7E9" d="M513.457,274.647c1.83,1.056,3.557,1.492,3.854,0.974c0.306-0.522-0.936-1.799-2.767-2.857
						c-1.833-1.059-3.56-1.491-3.86-0.97C510.386,272.313,511.627,273.589,513.457,274.647z"/>
				</g>
			</g>
		</g>
		<g>
			<g opacity="0.1">
				<path d="M514.002,273.873c1.36,1.619,2.83,2.618,3.288,2.235c0.466-0.387-0.263-2.01-1.624-3.632
					c-1.358-1.622-2.835-2.619-3.292-2.232C511.916,270.63,512.643,272.252,514.002,273.873z"/>
				<path d="M513.902,273.772c1.36,1.619,2.83,2.618,3.288,2.235c0.466-0.387-0.263-2.01-1.624-3.632
					c-1.358-1.622-2.835-2.619-3.292-2.232C511.816,270.53,512.543,272.152,513.902,273.772z"/>
			</g>
			<g>
				<g opacity="0.1">
					<path d="M513.902,273.772c1.36,1.619,2.83,2.618,3.288,2.235c0.466-0.387-0.263-2.01-1.624-3.632
						c-1.358-1.622-2.835-2.619-3.292-2.232C511.816,270.53,512.543,272.152,513.902,273.772z"/>
				</g>
				<g>
					<path fill="#FFF7E9" d="M513.803,273.672c1.36,1.619,2.83,2.618,3.288,2.235c0.466-0.387-0.263-2.01-1.624-3.632
						c-1.358-1.622-2.835-2.619-3.292-2.232C511.717,270.43,512.443,272.052,513.803,273.672z"/>
				</g>
			</g>
		</g>
		<g>
			<g opacity="0.1">
				<path d="M514.661,273.076c0.723,1.985,1.764,3.427,2.326,3.225c0.569-0.206,0.44-1.98-0.284-3.97
					c-0.723-1.988-1.768-3.429-2.331-3.222S513.939,271.089,514.661,273.076z"/>
				<path d="M514.562,272.976c0.723,1.985,1.764,3.427,2.326,3.225c0.569-0.206,0.44-1.98-0.284-3.97
					c-0.723-1.988-1.768-3.429-2.331-3.222S513.84,270.989,514.562,272.976z"/>
			</g>
			<g>
				<g opacity="0.1">
					<path d="M514.562,272.976c0.723,1.985,1.764,3.427,2.326,3.225c0.569-0.206,0.44-1.98-0.284-3.97
						c-0.723-1.988-1.768-3.429-2.331-3.222S513.84,270.989,514.562,272.976z"/>
				</g>
				<g>
					<path fill="#FFF7E9" d="M514.462,272.875c0.723,1.985,1.764,3.427,2.326,3.225c0.569-0.206,0.44-1.98-0.284-3.97
						c-0.723-1.988-1.768-3.429-2.331-3.222S513.74,270.889,514.462,272.875z"/>
				</g>
			</g>
		</g>
		<g>
			<g opacity="0.1">
				<path d="M515.553,272.551c0.001,2.115,0.485,3.826,1.082,3.828c0.605,0.001,1.092-1.711,1.09-3.829
					c0.002-2.114-0.487-3.826-1.086-3.826C516.04,268.727,515.554,270.439,515.553,272.551z"/>
				<path d="M515.453,272.451c0.001,2.115,0.485,3.826,1.082,3.828c0.605,0.001,1.092-1.711,1.09-3.829
					c0.002-2.114-0.487-3.826-1.086-3.826C515.94,268.627,515.454,270.339,515.453,272.451z"/>
			</g>
			<g>
				<g opacity="0.1">
					<path d="M515.453,272.451c0.001,2.115,0.485,3.826,1.082,3.828c0.605,0.001,1.092-1.711,1.09-3.829
						c0.002-2.114-0.487-3.826-1.086-3.826C515.94,268.627,515.454,270.339,515.453,272.451z"/>
				</g>
				<g>
					<path fill="#FFF7E9" d="M515.354,272.351c0.001,2.115,0.485,3.826,1.082,3.828c0.605,0.001,1.092-1.711,1.09-3.829
						c0.002-2.114-0.487-3.826-1.086-3.826C515.841,268.527,515.354,270.239,515.354,272.351z"/>
				</g>
			</g>
		</g>
	</g>
	<g>
		<g opacity="0.1">
			<circle cx="516.428" cy="275.68" r="1.246"/>
		</g>
		<g>
			<circle fill="#FFF7E9" cx="516.328" cy="275.58" r="1.246"/>
		</g>
	</g>
</g>
</svg>
