<?xml version="1.0" encoding="utf-8"?>
<!-- Generator: Adobe Illustrator 16.0.0, SVG Export Plug-In . SVG Version: 6.00 Build 0)  -->
<!DOCTYPE svg PUBLIC "-//W3C//DTD SVG 1.1//EN" "http://www.w3.org/Graphics/SVG/1.1/DTD/svg11.dtd">
<svg version="1.1" id="레이어_1" xmlns="http://www.w3.org/2000/svg" xmlns:xlink="http://www.w3.org/1999/xlink" x="0px"
	 y="0px" width="600px" height="600px" viewBox="0 0 600 600" enable-background="new 0 0 600 600" xml:space="preserve">
<g id="레이어_3">
</g>
<g id="레이어_1_1_">
	<g id="레이어_2_1_" display="none">
		<rect x="196.5" y="45" display="inline" fill="none" stroke="#000000" stroke-miterlimit="10" width="229" height="229"/>
		
			<rect x="196.5" y="284.241" display="inline" fill="none" stroke="#000000" stroke-miterlimit="10" width="229" height="272.759"/>
		<rect x="440.5" y="45" display="inline" fill="none" stroke="#000000" stroke-miterlimit="10" width="127" height="127"/>
		<rect x="440.5" y="188.833" display="inline" fill="none" stroke="#000000" stroke-miterlimit="10" width="127" height="127"/>
		<rect x="440.5" y="333.5" display="inline" fill="none" stroke="#000000" stroke-miterlimit="10" width="127" height="223.5"/>
	</g>
	<g id="레이어_1_3_">
	</g>
	<g id="레이어_2">
	</g>
</g>
<g>
	<g opacity="0.1">
		<path d="M537.173,165.493c-1.836,1.836-4.812,1.836-6.646,0l0,0c-1.836-1.836-1.836-4.811,0-6.647l8.909-8.909
			c1.836-1.835,10.288-3.642,10.288-3.642l0,0c1.836,1.836-1.807,8.454-3.642,10.289L537.173,165.493z"/>
	</g>
	<g>
		<path fill="#F7E5BC" d="M535.173,163.493c-1.836,1.836-4.812,1.836-6.646,0l0,0c-1.836-1.836-1.836-4.811,0-6.647l8.909-8.909
			c1.836-1.835,10.288-3.642,10.288-3.642l0,0c1.836,1.836-1.807,8.454-3.642,10.289L535.173,163.493z"/>
	</g>
</g>
<g>
	<path fill="#360247" d="M547.995,147.547c-0.05-0.243-0.111-0.484-0.198-0.719l-8.432,0.001c-0.832,0.367-1.515,0.752-1.899,1.138
		l-2.933,2.933l12.093-0.001C547.201,149.799,547.705,148.62,547.995,147.547z"/>
	<path fill="#360247" d="M545.146,153.458h-0.082c-0.081,0.112-0.16,0.218-0.239,0.321L545.146,153.458z"/>
	<path fill="#360247" d="M544.825,153.779c0.079-0.103,0.158-0.209,0.239-0.321h-13.091l-3.418,3.418
		c-0.204,0.204-0.382,0.423-0.541,0.653h13.062L544.825,153.779z"/>
	<path fill="#360247" d="M534.391,164.214l0.125-0.125c-0.063,0.044-0.132,0.084-0.198,0.125H534.391z"/>
	<path fill="#360247" d="M527.182,160.143c-0.015,1.222,0.442,2.448,1.375,3.38c0.271,0.273,0.571,0.5,0.887,0.691h4.874
		c0.066-0.041,0.135-0.081,0.198-0.125l3.946-3.947L527.182,160.143z"/>
</g>
<g>
	<g opacity="0.1">
		<path d="M532.57,171.947c-2.493-0.727-3.924-3.335-3.197-5.828l0,0c0.727-2.493,3.335-3.924,5.828-3.197l12.097,3.527
			c2.491,0.727,8.142,7.269,8.142,7.269l0,0c-0.728,2.492-8.28,2.481-10.772,1.755L532.57,171.947z"/>
	</g>
	<g>
		<path fill="#F7E5BC" d="M530.57,169.947c-2.493-0.727-3.924-3.335-3.197-5.828l0,0c0.727-2.493,3.335-3.924,5.828-3.197
			l12.097,3.527c2.491,0.727,8.142,7.269,8.142,7.269l0,0c-0.728,2.492-8.28,2.481-10.772,1.755L530.57,169.947z"/>
	</g>
</g>
<g>
	<path fill="#360247" d="M550.718,173.52c0.189-0.161,0.371-0.331,0.534-0.52l-4.056-7.392c-0.723-0.553-1.388-0.965-1.911-1.118
		l-3.982-1.16l5.817,10.602C548.361,173.907,549.638,173.781,550.718,173.52z"/>
	<path fill="#360247" d="M544.166,173.866l-0.04-0.072c-0.137-0.018-0.269-0.036-0.396-0.055L544.166,173.866z"/>
	<path fill="#360247" d="M543.729,173.738c0.13,0.02,0.262,0.038,0.397,0.055l-6.296-11.477l-4.641-1.353
		c-0.277-0.081-0.556-0.131-0.834-0.16l6.282,11.45L543.729,173.738z"/>
	<path fill="#360247" d="M529.562,169.608l0.17,0.049c-0.07-0.035-0.139-0.075-0.205-0.115L529.562,169.608z"/>
	<path fill="#360247" d="M529.664,161.33c-1.079,0.575-1.934,1.565-2.302,2.831c-0.109,0.37-0.164,0.741-0.182,1.109l2.346,4.273
		c0.066,0.04,0.135,0.08,0.204,0.115l5.358,1.562L529.664,161.33z"/>
</g>
<g>
	<g opacity="0.1">
		<path d="M536.674,171.204c0,5.411-4.386,9.796-9.797,9.796h-37.609c-5.41,0-9.797-4.386-9.797-9.796l0,0
			c0-5.411,4.387-9.796,9.797-9.796h37.609C532.288,161.407,536.674,165.793,536.674,171.204L536.674,171.204z"/>
	</g>
	<g>
		<path fill="#F7E5BC" d="M534.674,169.204c0,5.411-4.386,9.796-9.797,9.796h-37.609c-5.41,0-9.797-4.386-9.797-9.796l0,0
			c0-5.411,4.387-9.796,9.797-9.796h37.609C530.288,159.407,534.674,163.793,534.674,169.204L534.674,169.204z"/>
	</g>
</g>
<g>
	<path fill="#360247" d="M478.013,165.144L491.869,179h11.734l-19.242-19.243C481.53,160.522,479.211,162.519,478.013,165.144z"/>
	<polygon fill="#360247" points="491.386,159.407 510.979,179 522.714,179 503.121,159.407 	"/>
	<path fill="#360247" d="M534.133,171.147l-11.74-11.74h-11.734l18.454,18.454C531.662,176.508,533.546,174.063,534.133,171.147z"/>
</g>
</svg>
