<?xml version="1.0" encoding="utf-8"?>
<!-- Generator: Adobe Illustrator 16.0.0, SVG Export Plug-In . SVG Version: 6.00 Build 0)  -->
<!DOCTYPE svg PUBLIC "-//W3C//DTD SVG 1.1//EN" "http://www.w3.org/Graphics/SVG/1.1/DTD/svg11.dtd">
<svg version="1.1" id="레이어_1" xmlns="http://www.w3.org/2000/svg" xmlns:xlink="http://www.w3.org/1999/xlink" x="0px"
	 y="0px" width="600px" height="600px" viewBox="0 0 600 600" enable-background="new 0 0 600 600" xml:space="preserve">
<g id="레이어_3">
</g>
<g id="레이어_1_1_">
	<g id="레이어_2_1_" display="none">
		<rect x="196.5" y="45" display="inline" fill="none" stroke="#000000" stroke-miterlimit="10" width="229" height="229"/>
		
			<rect x="196.5" y="284.241" display="inline" fill="none" stroke="#000000" stroke-miterlimit="10" width="229" height="272.759"/>
		<rect x="440.5" y="45" display="inline" fill="none" stroke="#000000" stroke-miterlimit="10" width="127" height="127"/>
		<rect x="440.5" y="188.833" display="inline" fill="none" stroke="#000000" stroke-miterlimit="10" width="127" height="127"/>
		<rect x="440.5" y="333.5" display="inline" fill="none" stroke="#000000" stroke-miterlimit="10" width="127" height="223.5"/>
	</g>
	<g id="레이어_1_3_">
	</g>
	<g id="레이어_2">
	</g>
</g>
<path opacity="0.1" d="M537.173,165.493c-1.836,1.836-4.812,1.836-6.646,0l0,0c-1.836-1.836-1.836-4.811,0-6.647l8.908-8.909
	c1.836-1.835,10.288-3.642,10.288-3.642l0,0c1.836,1.836-1.807,8.454-3.642,10.289L537.173,165.493z"/>
<path fill="#360247" d="M547.995,147.547c-0.05-0.243-0.111-0.484-0.198-0.719l-8.432,0.001c-0.832,0.367-1.516,0.752-1.899,1.138
	l-2.933,2.933l12.093-0.001C547.201,149.799,547.705,148.62,547.995,147.547z"/>
<path fill="#360247" d="M545.146,153.458h-0.082c-0.081,0.112-0.16,0.218-0.239,0.321L545.146,153.458z"/>
<path fill="#360247" d="M534.391,164.214l0.125-0.125c-0.062,0.044-0.132,0.084-0.197,0.125H534.391z"/>
<path opacity="0.1" d="M532.57,171.947c-2.493-0.727-3.924-3.335-3.197-5.828l0,0c0.727-2.493,3.335-3.924,5.828-3.197l12.097,3.527
	c2.491,0.727,8.143,7.269,8.143,7.269l0,0c-0.729,2.492-8.28,2.481-10.772,1.755L532.57,171.947z"/>
<path fill="#360247" d="M550.718,173.52c0.189-0.161,0.371-0.331,0.534-0.52l-4.056-7.392c-0.724-0.553-1.389-0.965-1.911-1.118
	l-3.982-1.16l5.817,10.602C548.361,173.907,549.638,173.781,550.718,173.52z"/>
<path fill="#360247" d="M544.166,173.866l-0.04-0.072c-0.137-0.018-0.269-0.036-0.396-0.055L544.166,173.866z"/>
<path fill="#360247" d="M543.729,173.738c0.131,0.02,0.263,0.038,0.397,0.055l-6.296-11.477l-4.641-1.353
	c-0.277-0.081-0.557-0.131-0.834-0.16l6.281,11.45L543.729,173.738z"/>
<path opacity="0.1" d="M536.674,171.204c0,5.411-4.386,9.796-9.797,9.796h-37.609c-5.409,0-9.797-4.386-9.797-9.796l0,0
	c0-5.411,4.388-9.796,9.797-9.796h37.609C532.288,161.407,536.674,165.793,536.674,171.204L536.674,171.204z"/>
<path fill="#F7E5BC" d="M545.298,164.449l-8.579-2.502l7.363-7.363c0.146-0.146,0.307-0.332,0.472-0.534l0.271-0.271
	c0.079-0.103,0.158-0.209,0.239-0.321h-0.057c1.881-2.597,4.276-7.603,2.716-9.163c0,0-8.452,1.807-10.288,3.642l-8.908,8.909
	c-0.797,0.797-1.227,1.81-1.331,2.849c-0.745-0.181-1.519-0.287-2.319-0.287h-2.483l-0.001-0.001h-11.733l0.001,0.001h-7.538
	l-0.001-0.001h-11.735l0.001,0.001h-4.119c-0.986,0-1.937,0.149-2.835,0.42l-0.071-0.072c-2.831,0.765-5.15,2.762-6.349,5.387
	l0.234,0.234c-0.5,1.176-0.776,2.468-0.776,3.826c0,5.41,4.388,9.796,9.797,9.796h4.602h11.733h7.376h11.735h2.163
	c4.766,0,8.732-3.403,9.611-7.911l8.18,2.384c2.492,0.726,10.044,0.737,10.772-1.755
	C553.44,171.718,547.789,165.176,545.298,164.449z"/>
</svg>
