<?xml version="1.0" encoding="utf-8"?>
<!-- Generator: Adobe Illustrator 16.0.0, SVG Export Plug-In . SVG Version: 6.00 Build 0)  -->
<!DOCTYPE svg PUBLIC "-//W3C//DTD SVG 1.1//EN" "http://www.w3.org/Graphics/SVG/1.1/DTD/svg11.dtd">
<svg version="1.1" id="레이어_1" xmlns="http://www.w3.org/2000/svg" xmlns:xlink="http://www.w3.org/1999/xlink" x="0px"
	 y="0px" width="600px" height="600px" viewBox="0 0 600 600" enable-background="new 0 0 600 600" xml:space="preserve">
<g id="레이어_3">
</g>
<g id="레이어_1_1_">
	<g id="레이어_2_1_" display="none">
		<rect x="196.5" y="45" display="inline" fill="none" stroke="#000000" stroke-miterlimit="10" width="229" height="229"/>
		
			<rect x="196.5" y="284.241" display="inline" fill="none" stroke="#000000" stroke-miterlimit="10" width="229" height="272.759"/>
		<rect x="440.5" y="45" display="inline" fill="none" stroke="#000000" stroke-miterlimit="10" width="127" height="127"/>
		<rect x="440.5" y="188.833" display="inline" fill="none" stroke="#000000" stroke-miterlimit="10" width="127" height="127"/>
		<rect x="440.5" y="333.5" display="inline" fill="none" stroke="#000000" stroke-miterlimit="10" width="127" height="223.5"/>
	</g>
	<g id="레이어_1_3_">
	</g>
	<g id="레이어_2">
	</g>
</g>
<g>
	<g opacity="0.1">
		<path d="M398.013,210.655l31.667-38.283l-48.209-45.374l-50.148-17.615l-0.496,0.673v-7.109
			c-4.471,2.209-9.657,3.328-15.437,3.328c-8.618,0-16.211-2.534-18.717-3.468l0.698,6.719l-51.431,17.4L197.731,172.3
			l31.671,38.283l16.657-11.437c0.878,13.475,6.155,98.637-0.119,106.906c0,0,37.643,15.387,68.221,14.268
			c29.737,1.751,67.31-14.193,67.31-14.193c-6.039-8.269-0.962-93.405-0.115-106.906L398.013,210.655z"/>
	</g>
	<g>
		<path fill="#FFFFFF" d="M394.013,206.655l31.667-38.283l-48.209-45.374l-50.148-17.615l-0.496,0.673v-7.109
			c-4.471,2.209-9.657,3.328-15.437,3.328c-8.618,0-16.211-2.534-18.717-3.468l0.698,6.719l-51.431,17.4L193.731,168.3
			l31.671,38.283l16.657-11.437c0.878,13.475,6.155,98.637-0.119,106.906c0,0,37.643,15.387,68.221,14.268
			c29.737,1.751,67.31-14.193,67.31-14.193c-6.039-8.269-0.962-93.405-0.115-106.906L394.013,206.655z"/>
	</g>
</g>
<g>
	<path fill="none" d="M268.39,201.661c1.354,0.695,2.017-0.971,2.701-1.943c0.255-0.364,0.365-0.861,0.439-1.314
		c0.297-1.814,0.69-3.598,1.323-5.382c-2.095,1.438-3.187,3.566-4.137,5.747C268.321,199.674,267.236,201.069,268.39,201.661z"/>
	<path fill="none" d="M242.423,140.182c1.345,0.602,2.615,1.313,4.108,2.71c-0.698-3.015-1.929-5.001-3.938-6.452
		c-0.708-0.511-1.609-1.291-2.461-0.334c-0.744,0.835-0.214,1.747,0.287,2.553C240.89,139.418,241.647,139.835,242.423,140.182z"/>
	<path fill="none" d="M262.333,261.129c-0.217,0.065-0.226,0.175-0.021,0.272c0.048,0.022,0.143-0.005,0.19-0.042
		c0.03-0.023,0.014-0.107,0.019-0.165C262.457,261.171,262.384,261.116,262.333,261.129z"/>
	<path fill="none" d="M245.754,136.216c0.161,0.439,0.334,0.877,0.534,1.301c0.525,1.113,1.028,2.742,2.5,2.188
		c1.324-0.499,0.951-2.138,0.714-3.365c-0.362-1.877-1.308-3.321-3.182-4.036c-0.948-0.362-1.858-0.822-2.805-1.186
		c-2.847-1.093-4.217-2.984-4.696-5.256l-4.424,4.164c1.414,0.208,2.875,0.091,4.28,0.403
		C242.084,131.185,244.537,132.886,245.754,136.216z"/>
	<polygon fill="none" points="273.507,192.267 273.37,192.263 273.434,192.414 	"/>
	<path fill="none" d="M206.547,176.551c-0.753-0.412-1.258,0.415-1.674,0.945c-0.612,0.78-1.092,1.614-1.48,2.485l1.438,1.738
		c0.61-1.034,1.276-2.039,1.828-3.103C207.006,177.947,207.424,177.03,206.547,176.551z"/>
	<path fill="none" d="M249.557,124.665c0.248,0.488,0.451,0.998,0.699,1.485c0.314,0.617,0.588,1.446,1.505,1.043
		c0.763-0.335,0.779-1.135,0.627-1.848c-0.407-1.908-1.287-3.58-2.417-5.136l-2.991,1.012
		C247.946,122.021,248.789,123.154,249.557,124.665z"/>
	<path fill="none" d="M282.367,202.688c1.028,0.467,1.774-0.199,2.458-0.884c1.129-1.13,1.438-2.567,1.459-4.076
		c0.027-1.892,0.343-3.7,1.181-5.51c-3.05,1.941-5.404,4.417-5.86,8.203C281.504,201.26,281.392,202.249,282.367,202.688z"/>
	<path fill="none" d="M246.492,126.655c-0.467-0.463-1.035-1.289-1.71-0.648c-0.684,0.649-0.159,1.553,0.403,2.039
		c1.335,1.151,2.789,2.164,4.7,3.617C249.143,129.188,247.786,127.938,246.492,126.655z"/>
	<path fill="none" d="M304.727,122.22c0.09-0.028,0.183-0.065,0.276-0.099l-1.314-2.005c-0.968,0.749-1.951,1.496-2.924,2.289
		C302.378,122.801,303.553,122.595,304.727,122.22z"/>
	<path fill="none" d="M304.447,126.289c1.044-0.223,1.826-0.673,2.483-1.229l-1.117-1.704c-0.019,0.039-0.036,0.079-0.054,0.117
		C305.385,124.311,304.986,125.138,304.447,126.289z"/>
	<path fill="none" d="M257.445,122.423c0.688,0.226,0.93-0.426,1.106-0.929c0.257-0.735,0.422-1.501,0.643-2.25
		c0.249-0.843,0.526-1.676,0.905-2.462l-2.285,0.773c-0.278,1.162-0.571,2.321-0.863,3.479
		C256.802,121.629,256.843,122.226,257.445,122.423z"/>
	<path fill="none" d="M330.232,112.369c-2.24-0.501-4.12,0.101-5.854-0.994c0.408-0.905,1.504-0.94,2.127-1.552
		c0.483-0.475,1.369-0.88,0.944-1.658c-0.326-0.598-1.162-0.275-1.729-0.09c-0.167,0.054-0.334,0.107-0.502,0.159l-4.073,5.527
		C324.46,114.078,327.418,114.899,330.232,112.369z"/>
	<polygon fill="none" points="348.008,244.42 348.154,244.344 348.022,244.245 	"/>
	<path fill="none" d="M350.869,232.59c0.158,0.203,0.224,0.691,0.564,0.445c0.272-0.197,0.025-0.534-0.232-0.729
		c-0.619-1.65-1.854-2.834-3.078-4.021c-0.428-0.415-0.965-1.024-1.554-0.396c-0.479,0.51-0.167,1.189,0.21,1.703
		C347.822,231.02,349.443,231.676,350.869,232.59z"/>
	<path fill="none" d="M344.627,238.418c-0.801-0.625-1.936-1.623-2.777-0.375c-0.709,1.052-0.117,2.325,0.959,3.012
		c1.529,0.975,3.162,1.783,5.141,2.881C347.51,241.321,346.283,239.709,344.627,238.418z"/>
	<path fill="none" d="M348.205,126.553c-0.414-0.437-0.969-1.074-1.556-0.588c-0.64,0.53-0.259,1.299,0.163,1.872
		c1.086,1.473,2.805,2.14,4.203,3.22c0.115,0.206-0.006,0.718,0.398,0.532c0.26-0.12,0.092-0.536-0.127-0.776
		C350.76,129.032,349.42,127.833,348.205,126.553z"/>
	<path fill="none" d="M356.231,217.891c-0.046-0.164-0.104-0.369-0.161-0.573c-0.066,0.187-0.181,0.372-0.186,0.56
		c-0.003,0.153,0.125,0.309,0.194,0.463C356.123,218.208,356.168,218.077,356.231,217.891z"/>
	<path fill="none" d="M246.4,244.659c-0.229-2.035-0.995-3.53-2.06-4.772c0.038,1.042,0.074,2.086,0.11,3.135
		C245.114,243.457,245.767,243.976,246.4,244.659z"/>
	<path fill="none" d="M246.187,228.157c-0.375-0.369-0.845-0.963-1.364-0.594c-0.598,0.426-0.303,1.133,0.006,1.69
		c1.025,1.853,2.992,2.45,5.005,3.97C248.962,230.774,247.538,229.49,246.187,228.157z"/>
	<path fill="none" d="M287.116,294.225c-3.177,1.921-5.177,4.625-5.531,8.396c-0.075,0.797,0.018,1.607,0.913,1.955
		c0.756,0.295,1.361-0.117,1.915-0.568c1.303-1.062,1.839-2.51,1.844-4.125c0.005-1.9,0.44-3.695,1.057-5.466
		c0.09-0.097,0.271-0.255,0.255-0.278C287.373,293.851,287.245,294.059,287.116,294.225z"/>
	<path fill="none" d="M254.621,193.758c0.05,0.004,0.106-0.064,0.152-0.096c-0.043-0.046-0.084-0.126-0.133-0.131
		c-0.049-0.005-0.106,0.064-0.16,0.101C254.527,193.677,254.571,193.754,254.621,193.758z"/>
	<path fill="none" d="M257.368,228.323c1.742-0.976,2.792-2.623,3.98-4.132c0.218-0.276,0.566-0.657,0.228-1.015
		c-0.418-0.443-0.87-0.153-1.204,0.18c-1.38,1.373-2.528,2.91-3.233,4.746c-0.093,0.111-0.286,0.288-0.263,0.324
		C257.1,228.77,257.224,228.473,257.368,228.323z"/>
	<path fill="none" d="M253.496,194.318c-0.027,0.005-0.05,0.011-0.065,0.024c-0.019,0.016-0.039,0.031-0.058,0.047
		c0.031-0.004,0.062-0.008,0.094-0.013C253.477,194.357,253.486,194.338,253.496,194.318z"/>
	<path fill="none" d="M253.64,194.033c-0.048,0.095-0.096,0.19-0.144,0.286C253.646,194.292,253.926,194.353,253.64,194.033z"/>
	<path fill="none" d="M246.332,239.359c0.525,1.013,0.966,2.647,2.286,2.233c1.546-0.487,1.099-2.186,0.878-3.474
		c-0.327-1.903-1.384-3.282-3.174-4.066c-0.751-0.329-1.496-0.674-2.247-1.002c0.029,0.709,0.059,1.422,0.087,2.139
		c0.641,0.743,1.172,1.613,1.574,2.647C245.932,238.344,246.083,238.877,246.332,239.359z"/>
	<path fill="none" d="M253.373,194.389c-0.176,0.024-0.353,0.048-0.53,0.073c0.042,0.085,0.084,0.17,0.127,0.255
		C253.104,194.607,253.239,194.499,253.373,194.389z"/>
	<path fill="none" d="M256.739,250.792c1.56,0.033,3.133,0.127,4.655-0.33c0.518-0.156,1.226-0.373,1.225-0.947
		c0-0.705-0.732-1.012-1.348-1.086c-2.257-0.27-4.519-0.349-6.774,0.096c-1.375,0.271-2.756,0.541-4.147,0.697
		c-1.757,0.196-2.343-0.526-1.479-2.174c0.348-0.428,1.178-0.918,0.496-1.398c-0.445-0.314-0.662,0.604-0.882,1.051
		c-1.268,1.034-2.525,2.082-3.809,3.096c-0.005,0.004-0.011,0.007-0.016,0.012c0.01,0.368,0.02,0.736,0.03,1.104
		c0.965-0.484,2.074-0.601,3.182-0.72C250.862,249.87,253.774,250.727,256.739,250.792z"/>
	<polygon fill="none" points="251.758,296.979 251.892,297.002 251.844,296.875 	"/>
	<path fill="none" d="M265.514,297.564c0.755-0.783,2.38-1.603,1.427-2.804c-1.036-1.306-2.396-0.147-3.508,0.541
		c-2.139,1.324-3.466,3.374-4.715,5.449c-1.711,2.845-3.571,4.457-5.574,5.354c2.831,0.94,6.097,1.968,9.678,3
		C260.648,303.947,261.197,302.036,265.514,297.564z"/>
	<path fill="none" d="M281.244,296.627c1.178-0.879,3.005-2.412,1.7-4.062c-1.264-1.598-3.043-0.118-4.404,0.622
		c-2.229,1.212-3.298,3.259-3.424,5.776c-0.063,1.249-0.051,2.501-0.069,3.753c-0.047,3.454-1.933,6.572-4.691,8.426
		c2.354,0.595,4.788,1.171,7.284,1.71c-0.171-0.512-0.349-1.021-0.488-1.534C275.596,305.586,276.015,300.523,281.244,296.627z"/>
	<path fill="none" d="M273.157,294.35c-0.183,0.13-0.365,0.26-0.547,0.389c-1.785,1.474-2.833,3.463-3.747,5.514
		c-0.465,1.044-1.737,2.626-0.397,3.226c1.408,0.629,2.229-1.162,2.809-2.43c0.19-0.418,0.367-0.883,0.379-1.332
		c0.044-1.668,0.759-3.145,1.238-4.691c0.102-0.211,0.205-0.422,0.306-0.633c0.236-0.023,0.437-0.064,0.197-0.354
		C273.316,294.143,273.237,294.247,273.157,294.35z"/>
	<path fill="none" d="M252.933,296.281c0.027-0.005,0.051-0.012,0.064-0.026c0.041-0.033,0.083-0.059,0.124-0.091
		c-0.053,0.019-0.106,0.038-0.16,0.057C252.952,296.241,252.942,296.261,252.933,296.281z"/>
	<path fill="none" d="M253.136,236.699c0.379-2.112,1.378-3.962,2.483-5.764c0.315-0.515,1.066-1.241,0.572-1.618
		c-1.541-1.178-0.693-2.732-0.902-4.102c-0.152-0.998-0.031-2.045-0.25-3.021c-0.197-0.876,0.123-1.904-0.666-2.898
		c0.216,9.059-1.246,17.552-4.489,25.838c1.889-1.647,3.613-3.381,6.221-4.502C253.346,239.957,252.722,239.006,253.136,236.699z"/>
	<polygon fill="none" points="249.939,233.415 249.853,233.587 249.997,233.6 	"/>
	<path fill="none" d="M252.803,296.556c0.044-0.092,0.087-0.184,0.13-0.275C252.79,296.308,252.525,296.256,252.803,296.556z"/>
	<path fill="none" d="M265.044,234.526c-3.824,0.707-5.854,3.752-9.121,5.677C260.076,240.325,263.659,238.043,265.044,234.526z"/>
	<path fill="none" d="M355.773,295.791c0.018,0.001,0.033,0,0.051,0.002c0.006-0.02,0.017-0.035,0.023-0.055
		c-0.018,0.006-0.035,0.013-0.053,0.02C355.789,295.772,355.779,295.778,355.773,295.791z"/>
	<path fill="none" d="M373.775,280.801c0.307,0.186,0.617,0.369,0.927,0.552c-0.032-1.127-0.06-2.282-0.081-3.466
		c-1.707-0.968-3.705-1.6-5.981-2.089C370.078,278.344,371.854,279.637,373.775,280.801z"/>
	<path fill="none" d="M366.3,288.278c-1.985-0.701-3.902-1.6-5.851-2.406c-1.098-0.455-2.21-0.756-3.439-0.325
		c0.105,1.204,1.055,1.509,1.914,1.765c1.567,0.465,3.184,0.764,4.756,1.212c1.011,0.287,2.618,0.104,2.768,1.313
		c0.166,1.344-1.52,1.25-2.424,1.691c-2.105,1.026-4.281,1.908-6.395,2.921c-0.65,0.312-1.488,0.46-1.781,1.29
		c4.949-1.854,9.94-3.565,15.168-4.477c1.382-0.241,2.763-0.484,4.145-0.702c-0.021-0.273-0.041-0.555-0.061-0.835
		C372.121,289.976,369.177,289.294,366.3,288.278z"/>
	<path fill="none" d="M353.865,195.182c0.149-0.108,0.298-0.215,0.447-0.323C354.094,194.853,353.779,194.691,353.865,195.182z"/>
	<path fill="none" d="M388.898,192.657c-2.404,1.227-4.072,3.106-4.951,5.57c-0.138,0.386-0.312,0.792-0.463,1.203l3.243,2.226
		c0.468-0.619,0.866-1.422,1.092-2.301C388.375,197.192,387.945,194.86,388.898,192.657z"/>
	<path fill="none" d="M368.793,174.334c2.784,4.435,7.547,5.589,11.412,8.822C378.502,178.137,373.453,174.307,368.793,174.334z"/>
	<path fill="none" d="M354.824,296.259c0.018,0,0.033-0.002,0.051-0.002c0.005-0.015,0.014-0.021,0.02-0.035
		c-0.018-0.001-0.033,0.001-0.051-0.001C354.84,296.238,354.829,296.244,354.824,296.259z"/>
	<path fill="none" d="M355.76,193.92c0.024-0.003,0.047-0.009,0.062-0.02c0.036-0.029,0.075-0.053,0.111-0.081
		c-0.049,0.016-0.097,0.032-0.146,0.048C355.778,193.885,355.769,193.902,355.76,193.92z"/>
	<path fill="none" d="M355.611,194.204c0.05-0.095,0.099-0.189,0.148-0.284C355.606,193.943,355.327,193.879,355.611,194.204z"/>
	<path fill="none" d="M354.895,296.222c0.378,0.03,0.699-0.057,0.879-0.431C355.395,295.757,355.052,295.8,354.895,296.222z"/>
	<path fill="none" d="M376.866,302.376c0.381-0.155,0.603-0.249,0.603-0.249c-0.21-0.287-0.405-0.678-0.589-1.145
		C376.88,301.447,376.877,301.912,376.866,302.376z"/>
	<path fill="none" d="M353.964,296.693c0.365,0.011,0.722,0.004,0.86-0.434C354.463,296.255,354.151,296.351,353.964,296.693z"/>
	<path fill="none" d="M370.016,301.619c-0.239,0.621-0.753,1.379-0.004,1.902c0.857,0.598,1.41-0.211,1.955-0.729
		c0.758-0.719,1.131-1.65,1.332-2.656c0.333-1.652,0.594-3.32,1.09-5.069C372.231,296.758,370.981,299.099,370.016,301.619z"/>
	<path fill="none" d="M241.939,302.053c0,0,0.036,0.015,0.054,0.021c0-0.032-0.004-0.066-0.004-0.098
		C241.972,302,241.956,302.03,241.939,302.053z"/>
	<path fill="none" d="M353.884,296.755c0.026-0.007,0.05-0.016,0.06-0.033c0.006-0.012,0.015-0.018,0.021-0.029
		c-0.018,0-0.035,0-0.054,0C353.901,296.714,353.893,296.735,353.884,296.755z"/>
	<path fill="none" d="M353.773,297.012c0.037-0.086,0.073-0.171,0.11-0.257C353.758,296.789,353.516,296.754,353.773,297.012z"/>
	<path fill="none" d="M407.258,188.716c-0.6-2.56-0.307-4.934,1.207-7.14c0.788-1.148,1.73-2.239,1.897-3.707
		c0.052-0.454,0.162-0.998-0.325-1.259c-0.512-0.274-0.879,0.159-1.194,0.485c-2.298,2.383-3.003,5.409-3.278,8.548
		c-0.163,1.854-0.223,3.736,0.344,5.575c0.072,0.235,0.19,0.534,0.203,0.809l1.763-2.13
		C407.605,189.729,407.403,189.339,407.258,188.716z"/>
	<path fill="none" d="M389.479,134.303l-0.457-0.43c-0.11,0.096-0.233,0.201-0.393,0.328
		C388.953,134.208,389.228,134.248,389.479,134.303z"/>
	<path fill="none" d="M344.203,136.313c-0.648-0.472-1.547-1.134-2.271-0.247c-0.658,0.808-0.318,1.764,0.25,2.577
		c0.507,0.724,1.264,1.117,2.014,1.533c1.213,0.674,2.402,1.391,3.602,2.088c0.082,0.193,0.166,0.386,0.248,0.579
		c0.049-0.054,0.151-0.133,0.141-0.156c-0.087-0.174-0.195-0.337-0.297-0.504C347.754,139.54,346.2,137.764,344.203,136.313z"/>
	<path fill="none" d="M359.255,122.364c1.246,0.316,1.163-1.524,1.567-2.451c0.346-0.794,0.56-1.645,0.847-2.465l-1.851-0.65
		c-0.226,0.908-0.543,1.798-0.748,2.712C358.848,120.507,357.917,122.025,359.255,122.364z"/>
	<path fill="none" d="M418.381,167.549c0.184,0.689,0.895,0.503,1.402,0.499c1.576-0.014,2.985-0.5,4.343-1.135l-1.939-1.826
		c-1.018,0.322-2.062,0.557-2.925,1.214C418.844,166.618,418.211,166.918,418.381,167.549z"/>
	<path fill="none" d="M374.51,192.866c-2.033,1.606-3.074,3.889-4.126,6.146c-0.4,0.861-1.226,2.135-0.112,2.688
		c1.176,0.584,1.857-0.806,2.401-1.701c0.394-0.648,0.678-1.441,0.747-2.193c0.154-1.662,0.803-3.156,1.328-4.698
		c0.166-0.151,0.285-0.316,0.041-0.484C374.764,192.605,374.605,192.781,374.51,192.866z"/>
	<path fill="none" d="M354.444,194.785c0.144-0.024,0.411,0.038,0.146-0.274C354.54,194.602,354.492,194.694,354.444,194.785z"/>
	<path fill="none" d="M354.312,194.858c0.037,0.001,0.071-0.001,0.1-0.013c0.011-0.02,0.021-0.04,0.032-0.06
		c-0.028,0.005-0.054,0.012-0.067,0.027C354.355,194.828,354.334,194.843,354.312,194.858z"/>
	<path fill="#B7D66D" d="M350.867,310.275c-0.196,0.293-0.375,0.587-0.543,0.881c1.428-0.376,2.821-0.76,4.178-1.146
		c-0.522-0.161-1.07-0.303-1.66-0.406C352.02,309.459,351.441,309.42,350.867,310.275z"/>
	<path fill="#B7D66D" d="M375.16,290.561c-1.382,0.218-2.763,0.46-4.145,0.702c-5.228,0.912-10.219,2.623-15.168,4.477
		c-0.007,0.02-0.018,0.035-0.023,0.055c-0.018-0.002-0.033-0.001-0.051-0.002c-0.18,0.374-0.501,0.461-0.879,0.431
		c-0.006,0.014-0.015,0.02-0.02,0.035c-0.018,0-0.033,0.002-0.051,0.002c-0.139,0.438-0.495,0.445-0.86,0.434
		c-0.006,0.011-0.015,0.017-0.021,0.029c-0.01,0.017-0.033,0.026-0.06,0.033c-0.037,0.085-0.073,0.17-0.11,0.257
		c-0.258-0.258-0.016-0.223,0.11-0.257c0.009-0.021,0.018-0.042,0.026-0.062c0.019,0,0.036,0,0.054,0
		c0.188-0.342,0.499-0.438,0.86-0.434c0.005-0.016,0.016-0.021,0.02-0.038c0.018,0.002,0.033,0,0.051,0.001
		c0.157-0.422,0.5-0.465,0.879-0.431c0.006-0.013,0.016-0.019,0.021-0.033c0.018-0.006,0.035-0.013,0.053-0.02
		c0.293-0.83,1.131-0.978,1.781-1.29c2.113-1.013,4.289-1.895,6.395-2.921c0.904-0.441,2.59-0.348,2.424-1.691
		c-0.149-1.21-1.757-1.026-2.768-1.313c-1.572-0.448-3.188-0.747-4.756-1.212c-0.859-0.256-1.809-0.561-1.914-1.765
		c1.229-0.431,2.342-0.13,3.439,0.325c1.948,0.807,3.865,1.705,5.851,2.406c2.877,1.016,5.821,1.698,8.8,1.447
		c-0.18-2.524-0.31-5.337-0.397-8.372c-0.31-0.183-0.62-0.366-0.927-0.552c-1.922-1.164-3.697-2.457-5.136-5.003
		c2.276,0.489,4.274,1.121,5.981,2.089c-0.032-1.775-0.054-3.605-0.062-5.489c-0.566-0.167-1.157-0.305-1.777-0.406
		c-2.873-0.467-5.76-0.221-8.598,0.549c-2.903,0.787-3.279,1.488-2.096,4.257c0.441,1.03,1.16,1.843,1.979,2.587
		c1.662,1.512,3.701,2.312,5.752,3.082c1.04,0.391,2.01,0.854,2.783,1.674c0.395,0.414,0.728,0.869,0.502,1.459
		c-0.222,0.58-0.75,0.729-1.33,0.775c-1.444,0.117-2.816-0.217-4.102-0.802c-2.346-1.067-4.646-2.233-6.973-3.343
		c-3.613-1.723-7.248-1.928-10.754,0.188c-1.259,0.76-3.294,1.344-2.988,3.171c0.352,2.099,2.268,3.065,4.265,3.524
		c0.75,0.172,1.557,0.141,2.337,0.132c1.721-0.019,3.441-0.12,5.16-0.107c0.645,0.005,1.637-0.242,1.753,0.696
		c0.124,0.998-0.849,1.11-1.603,1.349c-1.295,0.409-2.629,0.329-3.951,0.429c-8.654,0.65-12.603,5.582-10.82,13.511
		c0.169,0.754,0.277,1.492,1.223,1.805c4.766,1.574,11.188-0.498,14.102-4.625c0.855-1.213,1.627-2.485,2.48-3.699
		c1.185-1.687,2.632-3.114,4.482-4.05c0.771-0.39,1.797-0.665,2.395,0.105c0.664,0.857-0.118,1.556-0.717,2.202
		c-1.06,1.148-2.116,2.301-3.1,3.513c-1.514,1.866-2.213,3.995-1.416,6.344c0.053,0.154,0.115,0.305,0.171,0.457
		c6.736-2.225,11.545-4.143,13.148-4.8c0.011-0.464,0.014-0.929,0.014-1.394C376.085,298.961,375.528,295.322,375.16,290.561z
		 M371.967,302.793c-0.545,0.518-1.098,1.326-1.955,0.729c-0.749-0.523-0.235-1.281,0.004-1.902c0.966-2.52,2.216-4.861,4.373-6.551
		c-0.496,1.749-0.757,3.417-1.09,5.069C373.098,301.143,372.725,302.074,371.967,302.793z"/>
	<path fill="#B7D66D" d="M391.158,200.159c-0.279-1.529-0.47-3.124-0.123-4.667c0.546-2.427,1.909-2.881,3.775-1.378
		c0.732,0.589,1.503,1.843,2.492,0.575c0.887-1.138,0.004-2.012-0.951-2.702c-3.25-2.348-6.812-3.691-10.881-3.81
		c-7.023-0.206-13.848,0.973-20.578,2.793c-3.021,0.818-5.977,1.887-8.96,2.849c-0.036,0.028-0.075,0.052-0.111,0.081
		c-0.015,0.01-0.037,0.016-0.062,0.02c-0.05,0.095-0.099,0.189-0.148,0.284c-0.284-0.325-0.005-0.261,0.148-0.284
		c0.009-0.018,0.019-0.035,0.027-0.053c0.049-0.016,0.097-0.032,0.146-0.048c2.453-1.915,5.437-2.773,8.179-4.116
		c0.846-0.415,2.447-0.3,2.322-1.518c-0.127-1.24-1.683-1.104-2.695-1.372c-2.032-0.536-4.17-0.721-6.027-1.826
		c-0.396-0.236-0.898-0.501-0.723-1.051c0.18-0.568,0.773-0.448,1.203-0.401c1.977,0.216,3.748,1.067,5.508,1.904
		c3.746,1.783,7.662,2.601,11.814,2.416c1.625-0.073,3.05-0.506,4.368-1.451c1.301-0.933,0.283-2.255,0.585-3.741
		c3.156,3.086,6.762,4.614,10.77,5.284c0.686,0.114,1.446,0.55,1.943-0.151c0.43-0.606,0.157-1.345-0.127-2.016
		c-0.797-1.883-1.865-3.61-2.992-5.303c-1.496-2.245-2.464-4.69-2.906-7.352c-0.152-0.921-0.601-2.096,0.467-2.501
		c1.037-0.395,1.59,0.776,2.078,1.534c2.074,3.217,2.923,6.862,3.669,10.555c0.675,3.336,1.831,6.473,4.45,8.849
		c0.514,0.466,1.115,1.247,1.777,0.826c0.816-0.52,0.107-1.368-0.254-1.828c-3.242-4.142-2.975-8.826-2.412-13.656
		c0.715-6.135-0.423-11.519-6.48-14.815c-4.363-2.374-4.414-2.46-7.603,1.426c-3.269,3.986-3.36,5.975-0.454,10.291
		c0.393,0.582,0.823,1.14,1.262,1.688c1.465,1.831,2.988,3.617,4.39,5.494c0.605,0.81,1.135,1.876,0.048,2.711
		c-0.994,0.765-1.928,0.178-2.748-0.489c-1.098-0.89-1.389-2.236-1.877-3.46c-2.046-5.123-5.359-8.77-11.102-9.626
		c-3.086-0.46-6.065,0.156-9.043,0.843c-1.664,0.384-2.062,1.305-1.592,2.938c1.01,3.497,3.775,5.02,6.787,6.275
		c1.299,0.542,2.645,0.974,3.762,1.863c0.557,0.444,1.115,0.979,0.804,1.783c-0.271,0.698-0.962,0.684-1.599,0.721
		c-1.776,0.103-3.395-0.447-4.96-1.194c-2.187-1.042-4.321-2.2-6.544-3.155c-4.17-1.791-8.081-1.189-11.692,1.536
		c-1.835,1.385-1.935,2.605-0.125,4.113c2.05,1.708,4.502,1.989,7.079,1.707c1.316-0.145,2.646-0.188,3.971-0.232
		c0.541-0.019,1.18,0.011,1.278,0.722c0.092,0.655-0.42,0.998-0.952,1.167c-0.662,0.21-1.353,0.365-2.043,0.449
		c-1.549,0.189-3.109,0.283-4.658,0.48c-7.053,0.897-10.875,6.967-8.637,13.693c0.197,0.591,0.374,1.244,1.176,1.27
		c2.021,0.064,4,0.629,6.063,0.283c3.978-0.664,6.886-2.77,8.936-6.19c1.579-2.635,3.3-5.158,6.227-6.501
		c0.727-0.333,1.618-0.568,2.174,0.127c0.599,0.748,0.062,1.461-0.534,2.04c-0.336,0.327-0.674,0.654-0.993,0.999
		c-3.856,4.165-5.419,6.711-2.337,12.268c1.701,3.066,1.453,3.203,4.923,1.996c5.122-1.783,6.999-4.385,7.048-9.762
		c0.01-1.096,0.006-2.191,0.055-3.285c0.15-3.292,2.793-6.272,6.033-6.834c1.612-0.279,2.469,0.643,1.882,2.173
		c-0.481,1.255-1.432,2.189-2.485,3.051c-0.728,0.595-1.345,1.232-1.891,1.897l3.008,2.065c0.15-0.41,0.325-0.816,0.463-1.203
		c0.879-2.463,2.547-4.343,4.951-5.57c-0.953,2.203-0.523,4.535-1.079,6.697c-0.226,0.879-0.624,1.683-1.092,2.301l4.804,3.297
		C391.534,203.352,391.45,201.754,391.158,200.159z M368.793,174.334c4.66-0.027,9.709,3.803,11.412,8.822
		C376.34,179.923,371.577,178.769,368.793,174.334z M354.444,194.785c-0.011,0.02-0.021,0.04-0.032,0.06
		c-0.028,0.012-0.062,0.014-0.1,0.013c-0.149,0.108-0.298,0.215-0.447,0.323c-0.086-0.49,0.229-0.329,0.447-0.323
		c0.021-0.016,0.043-0.031,0.064-0.046C354.391,194.797,354.416,194.79,354.444,194.785c0.048-0.091,0.096-0.183,0.146-0.274
		C354.855,194.823,354.588,194.761,354.444,194.785z M374.748,193.107c-0.525,1.542-1.174,3.036-1.328,4.698
		c-0.069,0.752-0.354,1.545-0.747,2.193c-0.544,0.896-1.226,2.285-2.401,1.701c-1.113-0.553-0.288-1.826,0.112-2.688
		c1.052-2.257,2.093-4.54,4.126-6.146c0.096-0.085,0.254-0.261,0.279-0.243C375.033,192.791,374.914,192.956,374.748,193.107z"/>
	<path fill="#B7D66D" d="M289.697,305.395c-0.277-2.402-0.468-4.818-0.585-7.234c-0.065-1.334,0.611-2.504,1.735-3.133
		c0.986-0.553,1.689,0.428,2.42,0.985c0.688,0.526,1.423,1.675,2.273,0.404c0.65-0.973,0.206-1.88-0.812-2.566
		c-2.282-1.542-4.616-2.895-7.369-3.461c-7.017-1.444-13.812,0.097-20.637,1.386c-4.722,0.892-9.098,2.831-13.6,4.389
		c-0.041,0.032-0.083,0.058-0.124,0.091c-0.014,0.014-0.038,0.021-0.064,0.026c-0.043,0.091-0.086,0.183-0.13,0.275
		c-0.278-0.3-0.013-0.248,0.13-0.275c0.009-0.02,0.019-0.04,0.028-0.06c0.054-0.019,0.107-0.038,0.16-0.057
		c2.944-2.323,6.536-3.352,9.86-4.914c0.668-0.314,1.8-0.301,1.71-1.293c-0.092-1.021-1.191-1.061-2.013-1.251
		c-1.596-0.368-3.231-0.617-4.778-1.134c-0.944-0.315-2.724-0.514-2.353-1.717c0.367-1.189,1.898-0.404,2.859-0.054
		c2.64,0.96,5.201,2.159,7.879,2.985c3.393,1.047,6.907,1.513,10.356,0.234c2.578-0.955,2.865-2.721,0.896-4.624
		c-1.711-1.655-3.905-2.577-5.875-3.841c-1.759-1.127-3.565-2.23-4.618-4.704c4.118,0.778,7.478,2.202,9.576,5.584
		c3.027,4.877,7.42,7.444,12.972,8.3c1.772,0.272,2.37-0.307,1.765-1.994c-0.769-2.146-2.062-4.034-3.322-5.918
		c-1.327-1.983-2.171-4.163-2.594-6.476c-0.178-0.974-0.781-2.45,0.515-2.915c1.102-0.395,1.633,0.971,2.156,1.8
		c1.914,3.03,2.714,6.445,3.391,9.91c0.653,3.345,1.838,6.474,4.269,8.972c0.554,0.569,1.289,1.584,2.092,0.967
		c0.714-0.551-0.1-1.494-0.51-2.059c-2.669-3.682-2.875-7.717-2.298-12.07c1.247-9.41-1.198-13.932-8.991-17.451
		c-0.903-0.408-1.63-0.702-2.504,0.184c-5.813,5.883-6.874,7.916-1.453,14.91c0.383,0.494,0.846,0.924,1.231,1.416
		c1.061,1.352,2.151,2.686,3.127,4.097c0.505,0.731,0.669,1.62-0.151,2.323c-0.829,0.712-1.629,0.312-2.354-0.195
		c-1.145-0.806-1.622-2.043-2.103-3.303c-1.813-4.744-4.582-8.538-9.895-9.754c-3.044-0.695-6.051-0.342-9.065,0.209
		c-4.192,0.768-3.412,2.324-2.206,5.052c0.45,1.017,1.286,1.737,2.18,2.408c1.781,1.337,3.881,1.987,5.862,2.905
		c1.221,0.564,3.064,1.255,2.406,2.889c-0.577,1.432-2.316,0.671-3.595,0.425c-3.534-0.678-6.32-3.026-9.601-4.282
		c-3.53-1.351-6.903-1.223-10.074,0.858c-1.109,0.728-2.958,1.161-2.774,2.821c0.207,1.863,1.871,2.741,3.523,3.412
		c0.825,0.334,1.676,0.379,2.534,0.368c1.877-0.024,3.754-0.132,5.63-0.104c0.686,0.011,1.797-0.342,1.858,0.81
		c0.052,0.976-0.955,1.155-1.705,1.276c-1.229,0.195-2.476,0.29-3.719,0.373c-4.475,0.3-7.652,1.747-9.464,4.214
		c-0.441,2.983-1.021,5.121-1.766,6.162c0,0.031,0.004,0.065,0.004,0.098c0.371,0.15,4.578,1.846,11.151,4.029
		c2.002-0.896,3.863-2.509,5.574-5.354c1.249-2.075,2.576-4.125,4.715-5.449c1.112-0.688,2.472-1.847,3.508-0.541
		c0.953,1.201-0.672,2.021-1.427,2.804c-4.316,4.472-4.865,6.383-2.692,11.54c2.384,0.687,4.906,1.374,7.534,2.039
		c2.759-1.854,4.644-4.972,4.691-8.426c0.018-1.252,0.006-2.504,0.069-3.753c0.126-2.518,1.195-4.564,3.424-5.776
		c1.36-0.74,3.14-2.22,4.404-0.622c1.305,1.65-0.522,3.184-1.7,4.062c-5.229,3.896-5.648,8.958-4.092,14.691
		c0.139,0.513,0.317,1.022,0.488,1.534c3.021,0.652,6.125,1.248,9.271,1.759C289.069,312.916,290.247,310.159,289.697,305.395z
		 M251.758,296.979l0.086-0.104l0.048,0.127L251.758,296.979z M273.198,294.393c-0.101,0.211-0.204,0.422-0.306,0.633
		c-0.479,1.547-1.194,3.023-1.238,4.691c-0.012,0.448-0.188,0.914-0.379,1.332c-0.58,1.268-1.401,3.059-2.809,2.43
		c-1.34-0.6-0.068-2.182,0.397-3.226c0.913-2.051,1.962-4.04,3.747-5.514c0.182-0.129,0.365-0.259,0.547-0.389
		c0.08-0.104,0.159-0.207,0.238-0.311C273.635,294.329,273.434,294.37,273.198,294.393z M287.314,294.417
		c-0.617,1.771-1.052,3.565-1.057,5.466c-0.005,1.615-0.541,3.062-1.844,4.125c-0.554,0.451-1.159,0.863-1.915,0.568
		c-0.895-0.348-0.987-1.158-0.913-1.955c0.354-3.771,2.354-6.475,5.531-8.396c0.128-0.166,0.256-0.374,0.453-0.086
		C287.585,294.163,287.404,294.321,287.314,294.417z"/>
	<path fill="#B7D66D" d="M243.848,205.172c6.784,1.249,11.148-0.582,14.986-6.414c1.333-2.027,2.641-4.081,4.776-5.396
		c1.063-0.655,2.378-1.644,3.369-0.521c1.153,1.307-0.622,1.968-1.299,2.732c-4.8,5.415-5.22,7.058-2.499,12.9
		c1.165,2.5,2.064,2.691,4.336,1.873c5.802-2.092,7.507-4.347,7.537-10.59c0.005-1.093-0.017-2.201,0.148-3.276
		c0.48-3.15,2.806-5.559,5.897-6.217c0.692-0.148,1.391-0.275,1.937,0.398c0.549,0.677,0.271,1.32-0.03,1.969
		c-0.609,1.317-1.658,2.266-2.733,3.176c-2.742,2.322-3.963,5.193-3.937,8.849c0.025,3.574,2.093,6.719,1.799,10.308
		c-0.062,0.765,0.629,0.488,1.009,0.501c7.03,0.239,11.428-4.664,10.573-11.695c-0.292-2.4-0.483-4.816-0.605-7.232
		c-0.066-1.312,0.512-2.492,1.628-3.203c1.215-0.774,1.758,0.524,2.547,1.042c0.678,0.444,1.418,1.384,2.184,0.347
		c0.718-0.971,0.316-1.865-0.678-2.579c-3.249-2.332-6.762-3.838-10.834-3.946c-9.186-0.244-18.002,1.559-26.611,4.617
		c-0.564,0.201-1.119,0.771-2.049,0.293c2.617-1.659,5.33-2.641,7.966-3.78c0.554-0.239,1.369-0.27,1.397-1.038
		c0.034-0.937-0.868-0.98-1.507-1.177c-2.086-0.643-4.316-0.751-6.325-1.674c-0.677-0.311-1.854-0.552-1.61-1.392
		c0.308-1.06,1.49-0.53,2.238-0.36c1.055,0.24,2.053,0.736,3.073,1.127c1.968,0.754,3.888,1.687,5.913,2.229
		c3.414,0.915,6.933,1.498,10.355,0.11c2.429-0.985,2.674-2.729,0.762-4.525c-1.608-1.51-3.597-2.479-5.489-3.576
		c-1.971-1.141-3.736-2.495-5.329-5.104c4.238,0.889,7.63,2.174,9.649,5.364c3.099,4.896,7.345,7.762,13.023,8.635
		c0.683,0.104,1.438,0.559,1.932-0.164c0.413-0.603,0.218-1.372-0.056-2.036c-0.87-2.109-2.172-3.974-3.391-5.884
		c-1.364-2.138-2.287-4.446-2.549-6.974c-0.083-0.799-0.472-1.934,0.542-2.293c0.968-0.344,1.457,0.688,1.926,1.381
		c2.105,3.112,2.938,6.675,3.672,10.289c0.74,3.647,1.97,7.088,4.895,9.639c0.4,0.349,0.916,0.837,1.437,0.444
		c0.557-0.421,0.106-0.991-0.115-1.474c-0.13-0.284-0.242-0.588-0.428-0.833c-2.728-3.578-2.797-7.588-2.221-11.838
		c1.263-9.312-1.209-13.982-8.966-17.476c-0.677-0.305-1.31-0.84-2.111-0.075c-6.099,5.828-7.414,8.015-2.005,14.985
		c0.288,0.371,0.621,0.705,0.916,1.07c1.125,1.399,2.279,2.778,3.352,4.217c0.637,0.855,1.046,1.928,0.067,2.735
		c-1.068,0.879-2.102,0.201-2.897-0.6c-0.958-0.964-1.334-2.277-1.809-3.518c-1.993-5.221-5.52-8.645-11.219-9.441
		c-3.157-0.441-6.22,0.178-9.253,1.004c-1.103,0.3-1.452,0.985-1.314,2.096c0.26,2.09,1.396,3.597,2.993,4.846
		c1.564,1.224,3.386,1.934,5.216,2.617c0.966,0.36,1.867,0.795,2.613,1.516c0.468,0.451,0.863,0.962,0.647,1.648
		c-0.243,0.771-0.948,0.676-1.565,0.716c-1.86,0.122-3.544-0.481-5.174-1.276c-2.107-1.028-4.157-2.191-6.317-3.09
		c-3.599-1.496-7.19-1.45-10.509,0.798c-1.083,0.733-2.923,1.219-2.592,2.895c0.331,1.67,1.825,2.692,3.445,3.236
		c1.644,0.553,3.347,0.7,5.089,0.463c1.156-0.157,2.33-0.208,3.497-0.262c0.623-0.028,1.462-0.062,1.63,0.616
		c0.211,0.851-0.635,1.246-1.292,1.36c-1.993,0.345-4.002,0.611-6.015,0.818c-5.496,0.567-8.456,3.485-9.273,7.472
		c0.112,1.77,0.252,4.048,0.41,6.725C242.821,204.727,243.153,205.044,243.848,205.172z M287.465,192.218
		c-0.837,1.81-1.153,3.618-1.181,5.51c-0.022,1.509-0.33,2.946-1.459,4.076c-0.684,0.685-1.43,1.351-2.458,0.884
		c-0.975-0.439-0.863-1.428-0.762-2.267C282.061,196.635,284.415,194.16,287.465,192.218z M273.507,192.267l-0.073,0.147
		l-0.064-0.151L273.507,192.267z M268.716,198.768c0.95-2.181,2.042-4.31,4.137-5.747c-0.633,1.784-1.025,3.568-1.323,5.382
		c-0.074,0.453-0.185,0.95-0.439,1.314c-0.684,0.973-1.347,2.639-2.701,1.943C267.236,201.069,268.321,199.674,268.716,198.768z
		 M254.641,193.531c0.049,0.005,0.089,0.085,0.133,0.131c-0.046,0.032-0.103,0.101-0.152,0.096c-0.05-0.004-0.094-0.082-0.14-0.127
		C254.535,193.595,254.592,193.526,254.641,193.531z M253.373,194.389c0.02-0.016,0.039-0.031,0.058-0.047
		c0.015-0.013,0.038-0.019,0.065-0.024c0.048-0.095,0.096-0.19,0.144-0.286c0.287,0.32,0.007,0.259-0.144,0.286
		c-0.01,0.02-0.02,0.039-0.029,0.058C253.436,194.381,253.404,194.385,253.373,194.389c-0.134,0.109-0.269,0.218-0.403,0.328
		c-0.042-0.085-0.085-0.17-0.127-0.255C253.02,194.438,253.197,194.413,253.373,194.389z"/>
	<path fill="#B7D66D" d="M278.172,113.251c-0.037,0.418,0.423,0.335,0.701,0.39c4.133,0.811,9.349-2.73,10.583-6.791l-11.429,3.867
		C278.176,111.543,278.248,112.383,278.172,113.251z"/>
	<path fill="#B7D66D" d="M254.083,253.877c1.113,0.566,2.258,1.076,3.406,1.573c3.972,1.718,7.596,1.204,10.904-1.646
		c2.622-2.258,2.655-2.25,1.079-5.404c-2.001-4.006-3.558-4.791-7.891-3.688c-2.114,0.539-4.155,1.36-6.239,2.025
		c-0.84,0.268-1.83,0.495-2.237-0.547c-0.443-1.135,0.47-1.688,1.343-2.115c1.333-0.652,2.776-0.308,4.167-0.393
		c4.425-0.27,7.461-2.48,9.245-6.482c0.77-1.728,1.015-3.598,1.416-5.428c0.396-1.803-0.582-2.449-2.111-2.592
		c-1.209-0.113-2.293,0.366-3.322,0.966c-1.516,0.882-2.592,2.239-3.815,3.446c-0.783,0.773-1.711,2.162-2.872,1.208
		c-1.072-0.882,0.148-1.971,0.669-2.863c1.255-2.149,3.432-3.396,5.123-5.12c2.312-2.361,3.734-5.043,2.898-8.447
		c-0.258-1.051,0.015-2.607-1.489-2.868c-1.528-0.267-2.665,0.692-3.552,1.873c-0.812,1.081-1.206,2.357-1.597,3.628
		c-0.184,0.596-0.285,1.221-0.51,1.797c-0.241,0.619-0.373,1.639-1.224,1.438c-0.865-0.205-0.578-1.105-0.409-1.805
		c0.438-1.819,0.938-3.631,1.254-5.472c0.885-5.149-2.544-8.575-7.907-9.228c-0.796-0.096-1.044,0.459-1.396,0.996
		c-2.604,3.979-2.576,8.115,0.121,12.043c1.06,1.545,2.33,2.982,2.812,4.84c0.295,1.135,1.299,2.75-0.229,3.335
		c-1.528,0.585-1.56-1.378-2.028-2.295c-1.723-3.376-3.377-4.874-6.134-5.026c0.178,3.634,0.354,7.47,0.518,11.423
		c0.751,0.328,1.496,0.673,2.247,1.002c1.791,0.784,2.847,2.163,3.174,4.066c0.221,1.288,0.668,2.986-0.878,3.474
		c-1.319,0.414-1.761-1.221-2.286-2.233c-0.25-0.481-0.4-1.015-0.597-1.522c-0.401-1.034-0.933-1.905-1.574-2.647
		c0.062,1.553,0.122,3.121,0.18,4.697c1.065,1.243,1.831,2.738,2.06,4.772c-0.634-0.683-1.287-1.202-1.95-1.638
		c0.076,2.256,0.146,4.522,0.209,6.786c0.005-0.004,0.011-0.008,0.016-0.012c1.284-1.014,2.541-2.062,3.809-3.096
		c0.22-0.447,0.437-1.365,0.882-1.051c0.682,0.48-0.147,0.971-0.496,1.398c-0.864,1.647-0.278,2.37,1.479,2.174
		c1.392-0.156,2.772-0.426,4.147-0.697c2.255-0.444,4.517-0.365,6.774-0.096c0.616,0.074,1.348,0.381,1.348,1.086
		c0,0.574-0.707,0.791-1.225,0.947c-1.522,0.457-3.095,0.363-4.655,0.33c-2.965-0.064-5.877-0.922-8.868-0.601
		c-1.107,0.119-2.217,0.236-3.182,0.72c0.015,0.556,0.029,1.111,0.043,1.666c0.121-0.025,0.237-0.057,0.346-0.091
		C248.331,251.439,251.229,252.424,254.083,253.877z M257.139,228.102c0.705-1.836,1.853-3.373,3.233-4.746
		c0.334-0.333,0.786-0.623,1.204-0.18c0.338,0.357-0.01,0.738-0.228,1.015c-1.189,1.509-2.238,3.156-3.98,4.132
		c-0.144,0.15-0.268,0.447-0.492,0.104C256.853,228.39,257.046,228.213,257.139,228.102z M265.044,234.526
		c-1.385,3.518-4.968,5.799-9.121,5.677C259.19,238.278,261.221,235.233,265.044,234.526z M244.829,229.253
		c-0.309-0.558-0.604-1.265-0.006-1.69c0.519-0.369,0.989,0.225,1.364,0.594c1.351,1.333,2.775,2.617,3.646,5.066
		C247.821,231.704,245.854,231.106,244.829,229.253z M249.939,233.415l0.058,0.186l-0.144-0.013L249.939,233.415z M249.883,245.133
		c3.243-8.286,4.705-16.779,4.489-25.838c0.789,0.994,0.469,2.022,0.666,2.898c0.22,0.977,0.098,2.023,0.25,3.021
		c0.209,1.369-0.639,2.924,0.902,4.102c0.494,0.377-0.257,1.104-0.572,1.618c-1.104,1.802-2.104,3.651-2.483,5.764
		c-0.414,2.308,0.21,3.258,2.968,3.933C253.497,241.752,251.772,243.486,249.883,245.133z"/>
	<path fill="#B7D66D" d="M353.949,124.869c0.109,0.801,0.507,1.926-0.491,2.304c-1.138,0.43-1.282-0.809-1.685-1.504
		c-0.663-1.148-1.303-2.31-1.973-3.454c-0.402-0.688-0.945-1.272-1.68-1.589c-2.341-1.009-5.145-1.059-7.041-0.071
		c-1.612,0.839-0.731,3.676-0.371,5.662c0.619,3.409,3.401,4.439,6.092,5.537c1.693,0.691,3.445,1.347,4.014,3.282
		c0.469,1.592,1.367,3.926-0.372,4.622c-1.591,0.636-2.208-1.691-2.756-3.118c-1.349-3.518-3.808-5.521-7.586-6.159
		c-1.911-0.322-3.944,0.066-5.743-0.919c-0.634-0.347-0.797,0.131-0.994,0.561c-2.012,4.407-0.002,9.212,4.615,10.821
		c2.059,0.717,4.229,1.118,6.277,1.858c2.472,0.893,2.641,2.266,0.582,3.83c-0.615,0.468-1.168,0.925-0.582,1.703
		c0.532,0.707,1.195,0.534,1.855,0.082c1.621-1.109,3.058-2.423,4.393-3.855c0.311-0.472,0.62-0.944,0.93-1.417
		c3.54-7.686,4.5-15.899,5.159-24.248c0.108,1.059,0.234,2.115,0.319,3.175c0.085,1.081,0.056,2.176,0.219,3.244
		c0.108,0.707-0.494,1.867,0.961,1.934c0.166-0.145,0.33-0.291,0.496-0.435c0.834-1.774,1.92-3.385,3.242-4.826
		c0.332-0.36,0.748-1.041,1.316-0.529c0.51,0.458,0.033,1.042-0.287,1.446c-1.203,1.516-2.344,3.104-4.104,4.061
		c-0.137,0.181-0.273,0.363-0.408,0.546c-0.811,1.5-1.656,2.984-2.426,4.505c-0.6,1.183-1.05,2.42-1.062,3.786
		c-0.023,2.647,1.229,3.495,3.506,2.164c1.465-0.856,2.737-2.041,4.117-3.049c1.297-0.947,2.588-1.932,4.729-1.969
		c-1.689,2.506-3.418,4.587-6.086,5.158c-3.754,0.804-6.77,2.609-9.287,5.404c-0.205,0.552-0.412,1.104-0.975,1.407
		c-0.969,2.514-0.791,2.792,1.943,2.55c1.314-0.117,2.608-0.464,3.914-0.693c2.172-0.381,4.344-0.47,6.502,0.104
		c0.449,0.12,0.992,0.244,1.051,0.792c0.074,0.692-0.549,0.968-1.043,1.068c-1.674,0.337-3.328,0.745-5.093,0.469
		c-2.693-0.42-5.388-1.001-8.143-0.756c-1.824,0.162-3.638,0.406-4.916,2.022c0.61,0.521,1.21,0.443,1.683,0.296
		c3.705-1.155,6.887,0.264,10.051,1.914c0.967,0.504,1.999,0.882,3.006,1.308c4.891,2.068,8.332,0.231,11.93-3.378
		c0.494-0.496,0.592-1.024,0.457-1.702c-0.986-4.933-4.252-7.042-9.073-5.767c-1.43,0.378-2.813,0.931-4.226,1.382
		c-0.741,0.237-1.486,0.498-2.252,0.617c-0.668,0.104-1.498,0.248-1.779-0.659c-0.282-0.905,0.287-1.49,0.995-1.91
		c0.778-0.461,1.667-0.332,2.521-0.356c4.536-0.134,8.518-1.352,10.777-5.722c1.011-1.955,1.54-4.066,1.751-6.274
		c0.209-2.185-0.527-3.008-2.713-2.671c-1.752,0.27-3.235,1.128-4.483,2.377c-0.829,0.829-1.591,1.728-2.452,2.519
		c-0.666,0.611-1.482,1.538-2.395,0.669c-0.745-0.709-0.027-1.609,0.379-2.343c1.287-2.322,3.52-3.736,5.356-5.532
		c1.676-1.64,2.819-3.463,3.126-5.562l-6.069-2.132c-0.287,0.82-0.501,1.671-0.847,2.465c-0.404,0.927-0.321,2.767-1.567,2.451
		c-1.338-0.339-0.407-1.857-0.185-2.854c0.205-0.914,0.522-1.804,0.748-2.712l-10.953-3.848c-0.049,2.24,0.696,4.42,2.358,6.553
		C352.482,121.118,353.664,122.782,353.949,124.869z M348.045,142.843c-0.082-0.193-0.166-0.385-0.248-0.579
		c-1.199-0.698-2.389-1.414-3.602-2.088c-0.75-0.417-1.507-0.81-2.014-1.533c-0.568-0.812-0.908-1.769-0.25-2.577
		c0.725-0.887,1.623-0.225,2.271,0.247c1.997,1.451,3.551,3.227,3.686,5.869c0.102,0.167,0.21,0.33,0.297,0.504
		C348.196,142.71,348.094,142.789,348.045,142.843z M351.414,131.589c-0.404,0.186-0.283-0.326-0.398-0.532
		c-1.398-1.08-3.117-1.747-4.203-3.22c-0.422-0.573-0.803-1.342-0.163-1.872c0.587-0.486,1.142,0.151,1.556,0.588
		c1.215,1.281,2.555,2.479,3.082,4.26C351.506,131.053,351.674,131.469,351.414,131.589z"/>
	<path fill="#B7D66D" d="M340.422,223.268c-0.797,4.844,0.906,7.918,5.482,9.854c1.006,0.426,1.99,0.91,2.976,1.383
		c1.132,0.543,1.903,1.477,2.126,2.658c0.289,1.535,1.236,3.744-0.661,4.355c-1.521,0.49-2.071-1.697-2.621-3.055
		c-0.059-0.145-0.128-0.286-0.181-0.434c-1.153-3.243-3.477-5.019-6.814-5.754c-2.141-0.471-4.385-0.144-6.461-1.019
		c-0.802-0.339-0.82,0.429-0.978,0.917c-1.702,5.277,0.089,8.891,5.313,10.638c1.404,0.47,2.854,0.806,4.273,1.237
		c0.74,0.225,1.537,0.404,2.171,0.815c1.749,1.136,1.735,2.155,0.011,3.29c-0.537,0.354-1.09,0.628-1.129,1.365
		c0,0,0.014-0.004,0.012-0.005c0.509,1.247,1.355,1.142,2.246,0.493c1.26-0.916,2.477-1.894,3.713-2.845
		c0.181-0.569,0.44-1.082,0.984-1.392c4.132-8.036,5.053-16.77,5.777-25.611c0.154,2.379,0.299,4.758,0.475,7.135
		c0.031,0.436-0.137,1.021,0.403,1.24c0.663,0.27,0.995-0.32,1.296-0.732c1.01-1.385,1.945-2.826,2.969-4.201
		c0.301-0.403,0.795-0.934,1.354-0.404c0.41,0.389,0.078,0.896-0.22,1.244c-1.114,1.303-2.212,2.628-3.409,3.851
		c-2.244,2.288-3.811,4.958-4.542,8.06c-0.653,2.768,0.118,3.822,2.579,3.886c1.926-1.438,3.821-2.921,5.791-4.295
		c1.047-0.729,2.191-1.367,3.8-1.413c-2.163,3.795-5.271,5.633-9.294,6.068c-2.751,1.191-4.856,3.155-6.619,5.529
		c-0.146,0.581-0.477,1.037-0.941,1.404c-0.279,1.076,0.104,1.7,1.244,1.688c0.776-0.01,1.566-0.063,2.322-0.223
		c2.766-0.582,5.536-1.023,8.369-0.668c0.838,0.105,2.027,0.141,1.992,1.18c-0.031,0.955-1.191,1.1-2.049,1.176
		c-2.265,0.202-4.545,0.283-6.779-0.182c-2.101-0.436-4.212-0.432-6.305-0.238c-1.523,0.141-3.188,0.352-4.141,2.228
		c0.889,0,1.555,0.152,2.115-0.026c2.996-0.95,5.674-0.126,8.342,1.216c1.738,0.874,3.535,1.698,5.391,2.263
		c4.918,1.494,7.93-0.586,11.053-3.744c0.433-0.438,0.469-0.936,0.383-1.512c-0.695-4.647-4.453-7.16-8.998-5.961
		c-1.131,0.299-2.227,0.732-3.338,1.103c-0.963,0.321-1.916,0.682-2.895,0.95c-0.85,0.234-1.801,0.398-2.133-0.74
		c-0.31-1.059,0.475-1.529,1.288-1.932c0.804-0.398,1.657-0.389,2.521-0.402c7.26-0.117,11.203-3.682,12.139-10.96
		c0.424-3.293-0.92-4.325-4.086-3.154c-1.359,0.503-2.412,1.423-3.405,2.435c-0.767,0.779-1.486,1.615-2.312,2.326
		c-0.568,0.489-1.318,1.182-2.066,0.598c-0.766-0.598-0.232-1.434,0.114-2.131c1.153-2.314,3.206-3.814,5.047-5.494
		c1.903-1.738,3.486-3.699,3.618-6.344c0.096-1.936,0.442-4.268-1.573-5.443c-1.366-0.797-3.73,1.282-4.658,3.829
		c-0.479,1.317-0.798,2.694-1.241,4.026c-0.141,0.426-0.393,1.004-0.938,0.889c-0.634-0.135-0.774-0.78-0.646-1.332
		c0.355-1.519,0.829-3.011,1.179-4.531c1.313-5.702-1.839-10.134-7.446-10.594c-0.711-0.059-1.094,0.019-1.529,0.642
		c-2.674,3.817-2.752,8.186-0.143,12.085c0.825,1.234,1.664,2.46,2.438,3.725c0.716,1.168,0.959,2.471,0.834,3.832
		c-0.034,0.384-0.089,0.803-0.544,0.943c-0.532,0.166-0.917-0.087-1.163-0.529c-0.226-0.408-0.383-0.854-0.579-1.277
		c-2.389-5.172-4.647-6.303-10.249-5.234C340.66,222.166,340.533,222.586,340.422,223.268z M342.809,241.055
		c-1.076-0.687-1.668-1.96-0.959-3.012c0.842-1.248,1.977-0.25,2.777,0.375c1.656,1.291,2.883,2.902,3.322,5.518
		C345.971,242.838,344.338,242.03,342.809,241.055z M348.008,244.42l0.015-0.176l0.132,0.1L348.008,244.42z M356.07,217.318
		c0.058,0.204,0.115,0.409,0.161,0.573c-0.063,0.186-0.108,0.317-0.152,0.449c-0.069-0.154-0.197-0.31-0.194-0.463
		C355.89,217.69,356.004,217.504,356.07,217.318z M346.569,227.891c0.589-0.629,1.126-0.02,1.554,0.396
		c1.224,1.187,2.459,2.37,3.078,4.021c0.258,0.194,0.505,0.531,0.232,0.729c-0.341,0.246-0.406-0.242-0.564-0.445
		c-1.426-0.914-3.047-1.57-4.09-2.996C346.402,229.081,346.091,228.401,346.569,227.891z"/>
	<path fill="#B7D66D" d="M256.567,127.052c0.174-0.144,0.349-0.288,0.521-0.435c0.585-1.973,1.876-3.497,3.198-4.994
		c0.305-0.345,0.733-0.71,1.195-0.371c0.531,0.39,0.095,0.872-0.137,1.199c-1.16,1.635-2.504,3.108-4.11,4.326
		c-0.145,0.166-0.289,0.332-0.433,0.498c-1.314,2.376-3.101,4.515-3.592,7.303c-0.236,1.341-0.544,2.782,0.779,3.638
		c1.266,0.819,2.398-0.185,3.433-0.828c1.79-1.113,3.158-2.815,5.096-3.729c0.751-0.354,1.438-0.972,2.791-0.643
		c-1.674,2.338-3.313,4.497-6.094,5.048c-3.885,0.771-6.945,2.681-9.381,5.722c-0.134,0.176-0.269,0.354-0.402,0.531
		c0.031,0.995-1.634,1.711-0.71,2.702c0.79,0.847,2.085,0.391,3.146,0.267c1.081-0.127,2.137-0.452,3.211-0.655
		c1.941-0.367,3.897-0.303,5.839-0.048c0.667,0.087,1.671,0.274,1.673,1.024c0.002,0.868-0.952,1.122-1.753,1.216
		c-1.696,0.201-3.349,0.498-5.113,0.193c-2.527-0.437-5.086-0.951-7.683-0.656c-1.775,0.201-3.564,0.447-4.689,2.417
		c5.336-1.985,9.542,0.83,13.929,2.803c0.285,0.128,0.58,0.233,0.871,0.347c5.226,2.046,8.488-0.089,11.729-3.353
		c0.654-0.659,0.732-1.381,0.409-2.144c-2.237-5.271-3.648-6.848-9.574-5.231c-1.278,0.349-2.509,0.869-3.77,1.285
		c-0.666,0.22-1.339,0.454-2.028,0.56c-0.778,0.119-1.665,0.172-1.888-0.864c-0.202-0.937,0.464-1.53,1.211-1.766
		c0.798-0.251,1.687-0.251,2.54-0.291c6.143-0.284,9.699-2.605,11.429-7.615c0.455-1.317,0.673-2.723,0.937-4.1
		c0.453-2.37-0.542-3.367-2.933-2.925c-2.27,0.42-3.927,1.821-5.42,3.483c-0.622,0.692-1.303,1.339-2.013,1.94
		c-0.497,0.421-1.118,0.641-1.696,0.115c-0.524-0.478-0.217-1.013,0.016-1.502c0.711-1.499,1.677-2.794,2.946-3.891
		c1.3-1.123,2.589-2.278,3.739-3.55c1.948-2.155,2.776-4.711,2.048-7.59c-0.12-0.472-0.138-1.047-0.258-1.56l-5.477,1.853
		c-0.379,0.786-0.656,1.619-0.905,2.462c-0.221,0.749-0.386,1.514-0.643,2.25c-0.176,0.502-0.418,1.154-1.106,0.929
		c-0.602-0.197-0.643-0.793-0.494-1.388c0.292-1.159,0.584-2.318,0.863-3.479l-3.118,1.055c0.684,2.463,0.526,4.704,0.608,6.917
		C255.335,126.329,255.093,127.419,256.567,127.052z"/>
	<path fill="#B7D66D" d="M237.233,141.228c1.793,0.542,3.666,0.858,5.404,1.532c2.294,0.889,2.419,2.363,0.444,3.752
		c-0.615,0.432-1.252,0.828-0.688,1.659c0.492,0.724,1.139,0.632,1.839,0.198c1.888-1.17,3.365-2.783,4.851-4.391
		c0.135-0.176,0.269-0.353,0.402-0.53c3.568-7.745,4.819-15.954,4.963-24.753l-4.477,1.515c1.131,1.556,2.011,3.228,2.417,5.136
		c0.152,0.712,0.135,1.513-0.627,1.848c-0.917,0.403-1.191-0.426-1.505-1.043c-0.249-0.487-0.452-0.997-0.699-1.485
		c-0.768-1.511-1.611-2.644-2.576-3.444l-5.042,1.706l-3.118,2.935c0.479,2.272,1.849,4.163,4.696,5.256
		c0.947,0.364,1.857,0.824,2.805,1.186c1.875,0.715,2.82,2.159,3.182,4.036c0.237,1.228,0.609,2.867-0.714,3.365
		c-1.472,0.554-1.975-1.075-2.5-2.188c-0.2-0.424-0.374-0.861-0.534-1.301c-1.218-3.33-3.67-5.031-7.078-5.787
		c-1.406-0.312-2.866-0.195-4.28-0.403l-3.454,3.251C230.673,137.138,232.826,139.895,237.233,141.228z M245.184,128.046
		c-0.562-0.486-1.087-1.39-0.403-2.039c0.676-0.641,1.244,0.185,1.71,0.648c1.294,1.283,2.651,2.533,3.393,5.008
		C247.973,130.21,246.519,129.197,245.184,128.046z M240.132,136.106c0.852-0.957,1.753-0.177,2.461,0.334
		c2.008,1.451,3.24,3.437,3.938,6.452c-1.493-1.397-2.763-2.109-4.108-2.71c-0.776-0.347-1.533-0.763-2.004-1.522
		C239.918,137.853,239.388,136.941,240.132,136.106z"/>
	<path fill="#F27C84" d="M316.856,205.176c-0.002-0.014-0.001-0.03-0.003-0.044c-0.011,0.001-0.021,0.007-0.031,0.007
		C316.822,205.139,316.856,205.177,316.856,205.176z"/>
	<path fill="#F27C84" d="M294.287,230.043c0.466,3.277,2.332,5.539,4.766,5.934c3.812,0.615,9.284-1.348,10.535-3.805
		c0.209-0.411,0.439-0.9,0.402-1.333c-0.223-2.687,0.08-5.341,0.441-8.05c-0.978,0.969-1.715,2.022-2.506,3.034
		c-0.84,1.073-1.787,2.013-3.336,2.2c0.256-1.611,1.717-2.649,1.361-4.393c-1.654,0.367-3.195,1.267-5.097,0.487
		c3.723-3.013,7.606-5.511,10.034-9.79c-5.932,0.557-8.981-0.588-10.361-3.834c1.636,0.158,3.23,0.565,5.098,0.039
		c-1.232-1.834-2.718-3.433-2.247-5.738c1.169,0.078,1.47,0.951,1.878,1.676c0.794,1.408,1.897,2.486,3.365,3.152
		c1.141,0.517,2.678,1.258,3.537,0.725c1.07-0.664-0.07-2.127-0.271-3.212c-0.624-3.391-1.395-6.755-0.113-10.152
		c0.155-0.412,0.264-0.989,0.816-1.017c0.564-0.028,0.72,0.542,0.896,0.944c0.969,2.202,0.91,4.527,0.68,6.927
		c1.418-0.531,1.346-3.309,2.851-2.55c1.29,0.648-0.305,2.483-0.163,3.843c0.667-0.038,1.03-1.294,1.715-0.64
		c0.526,0.501,0.057,1.341-0.251,1.971c-0.593,1.218-1.225,2.415-2.13,4.189c3.928-2.374,6.944-4.759,9.023-8.159
		c0.95-1.555,1.475-3.251,1.439-5.117c-0.027-1.524-0.693-2.608-2.123-3.002c-1.834-0.506-2.834-1.827-3.76-3.304
		c-1.945-3.105-4.689-3.725-7.779-1.766c-0.843,0.535-1.521,1.33-2.656,1.361c-2.117,0.058-2.951,1.501-3.336,3.317
		c-0.608,2.874,0.113,5.527,1.256,8.162c0.771,1.777,1.889,3.543,1.325,5.939c-1.535-0.969-2.13-2.291-2.595-3.683
		c-0.598-1.79-1.327-3.513-2.477-5.021c-1.887-2.473-3.305-2.802-6.229-1.597c-0.56,0.231-1.197,0.293-1.807,0.38
		c-3.658,0.517-5.338,2.969-4.592,6.638c0.215,1.062,0.698,2.333,0.328,3.195c-0.871,2.024-0.983,3.395,0.324,5.579
		c1.253,2.096,2.708,2.971,4.676,3.707c2.037,0.76,4.117,0.119,6.473,0.045c-0.859,1.589-2.041,2.029-3.329,2.402
		c-2.093,0.605-4.225,1.148-6.226,1.988c-3.254,1.368-3.632,3.767-1.071,6.182C293.711,228.518,294.155,229.112,294.287,230.043z"/>
	<polygon fill="#F27C84" points="316.856,205.177 316.856,205.176 316.855,205.177 	"/>
	<path fill="#F27C84" d="M300.17,312.51c1.474-0.506,2.566,0.381,3.697,0.115c0.499-0.119,1.191,0.24,1.455-0.42
		c0.198-0.494-0.355-0.801-0.598-1.178c-0.847-1.314-1.721-2.617-1.355-4.426c1.171,0.148,1.465,0.92,1.842,1.584
		c1.244,2.186,3.121,3.33,5.586,3.836c1.764,0.363,1.95-0.139,1.451-1.623c-0.272-0.807-0.382-1.672-0.537-2.518
		c-0.508-2.77-1.096-5.545-0.162-8.334c0.23-0.685,0.197-1.835,1.193-1.718c0.771,0.09,1.066,1.122,1.198,1.867
		c0.344,1.947,0.589,3.916,0.205,6.048c0.973-0.52,1.015-1.424,1.536-1.982c0.357-0.381,0.609-1.059,1.265-0.816
		c0.649,0.24,0.472,0.914,0.408,1.428c-0.084,0.676-0.266,1.34-0.396,1.965c0.704,0.396,1.096-0.65,1.743-0.264
		c0.291,2.367-1.685,3.895-2.241,6.238c2.992-1.832,5.458-3.742,7.461-6.172c1.673-2.031,2.811-4.307,2.729-7.058
		c-0.038-1.33-0.604-2.44-1.775-2.771c-2.182-0.617-3.268-2.213-4.41-3.935c-1.75-2.638-4.4-3.116-7.131-1.485
		c-0.99,0.592-1.801,1.562-3.08,1.584c-2.072,0.031-2.83,1.475-3.225,3.145c-0.672,2.854-0.009,5.541,1.162,8.175
		c0.81,1.82,1.832,3.629,1.511,5.883c-1.512-0.398-1.948-1.594-2.389-2.74c-0.646-1.678-1.248-3.373-2.2-4.91
		c-2.019-3.261-3.559-3.748-7.101-2.32c-0.492,0.199-1.061,0.225-1.599,0.287c-3.466,0.402-5.268,2.99-4.588,6.435
		c0.265,1.346,0.916,2.723,0.162,4.117c-0.752,1.393-1.592,2.592,0.212,4.059c0.279,0.228,0.48,0.524,0.653,0.853
		c5.823,0.713,11.685,1.068,17.308,0.862c0.206,0.012,0.416,0.015,0.623,0.025c0.11-0.177,0.231-0.337,0.338-0.52
		C306.408,316.961,302.991,316.043,300.17,312.51z"/>
	<path fill="#F27C84" d="M293.968,120.007c-2.981,1.249-3.442,3.68-1.125,5.903c0.99,0.95,1.376,1.923,1.535,3.238
		c0.292,2.424,2.558,4.84,4.62,5.024c2.521,0.227,5.005-0.083,7.351-1.088c2.227-0.955,3.335-2.167,3.571-4.089l-0.216,0.293
		l-2.772-4.228c-0.657,0.555-1.439,1.005-2.483,1.229c0.539-1.151,0.938-1.979,1.312-2.815c0.018-0.039,0.035-0.078,0.054-0.117
		l-0.811-1.235c-0.094,0.034-0.187,0.07-0.276,0.099c-1.174,0.375-2.349,0.581-3.962,0.185c0.973-0.792,1.956-1.54,2.924-2.289
		l-1.812-2.765c-0.46,0.221-0.943,0.403-1.46,0.552C298.243,118.528,296.047,119.136,293.968,120.007z"/>
	<path fill="#F27C84" d="M292.167,110.993c1.137,0.856,0.967,2.894,2.666,3.601c1.967,0.818,3.923,1.483,6.043,1.235l-6.892-10.51
		l-1.651,0.559c-0.03,0.355-0.117,0.714-0.303,1.079C291.349,108.291,290.22,109.526,292.167,110.993z"/>
	<path fill="#F27C84" d="M224.818,197.075c-0.024-1.263-0.658-2.275-1.719-2.548c-2.125-0.548-3.206-2.065-4.292-3.722
		c-1.886-2.875-4.529-3.392-7.464-1.557c-0.062,0.039-0.12,0.083-0.18,0.123l11.623,14.049c0.524-0.768,1.009-1.574,1.433-2.441
		C224.812,199.764,224.844,198.421,224.818,197.075z"/>
	<path fill="#F27C84" d="M398.098,198.188c-3.505,0.531-5.248,3.084-4.459,6.558c0.14,0.612,0.314,1.262,0.388,1.892l7.637-9.233
		c-0.579,0.115-1.223,0.303-1.948,0.559C399.212,198.14,398.637,198.106,398.098,198.188z"/>
	<path fill="#F27C84" d="M330.473,281.989c2.748,0.062,4.922-2.112,5.167-4.895c0.175-1.986-0.624-3.736-1.229-5.686
		c1.451,0.318,1.945,1.326,2.55,2.218c0.878,1.291,1.669,2.655,2.666,3.847c1.694,2.027,3.382,1.945,4.695-0.265
		c0.562-0.946,1.237-1.563,2.195-1.968c0.911-0.385,1.485-1.095,1.962-1.936c1.732-3.055-1.268-9.237-4.737-9.727
		c-0.154-0.021-0.322-0.068-0.464-0.03c-2.02,0.535-3.961,1.327-6.082,1.584c1.65,0.981,3.578,1.157,4.59,2.876
		c0.096,0.09,0.283,0.244,0.273,0.257c-0.191,0.265-0.328,0.116-0.45-0.081c-0.977,0.09-1.972-0.436-2.957,0.054
		c0.075,1.198,1.675,1.928,0.995,3.409c-2.897-1.91-5.484-4.199-9.326-5.09c1.417,3.091,1.838,5.816,0.01,8.53
		c-1.173-0.988-0.385-2.722-1.668-3.548c-1.102,1.069-1.756,2.703-3.732,2.546c0.467-1.6,1.955-2.394,2.336-3.901
		c0.295-1.171,0.709-2.535-0.104-3.352c-0.844-0.846-1.785,0.412-2.668,0.768c-0.867,0.35-1.652,0.908-2.525,1.23
		c-1.094,0.4-2.234,0.678-3.365,0.963c-0.707,0.178-1.678,0.203-1.922-0.426c-0.346-0.889,0.678-1.293,1.309-1.6
		c1.136-0.552,2.358-0.924,3.536-1.368c-0.485-0.896-2.289-0.298-2.043-1.504c0.222-1.089,1.771-0.257,2.612-0.748
		c-0.274-0.392-0.482-0.688-0.691-0.987c1.5-0.902,3.029,0.218,4.904,0.081c-2.496-2.251-4.877-3.917-7.828-4.702
		c-1.504-0.4-2.932-0.346-4.367,0.183c-0.886,0.326-1.537,0.953-1.488,1.897c0.08,1.571-0.78,2.637-1.665,3.74
		c-1.901,2.371-1.728,4.342,0.558,6.277c0.543,0.459,1.105,0.89,1.365,1.574c0.667,1.75,2.115,1.949,3.66,1.752
		c1.906-0.242,3.545-1.107,5.027-2.348c1.207-1.01,2.322-2.236,4.24-2.658c-0.314,2.089-1.934,2.656-3.062,3.58
		c-3.312,2.715-3.614,4.189-1.417,7.766c0.162,0.264,0.254,0.572,0.397,0.849c1.216,2.334,3.273,3.015,5.663,1.815
		C328.377,282.472,329.32,281.963,330.473,281.989z"/>
	<path fill="#F27C84" d="M247.115,269.616c-0.521-1.787-1.252-3.167-2.165-4.156c0.026,3.325,0.024,6.552-0.011,9.628
		C247.039,273.877,247.785,271.914,247.115,269.616z"/>
	<path fill="#F27C84" d="M242.169,161.931c-0.154-0.022-0.318-0.05-0.466-0.02c-2.226,0.463-4.449,0.935-7.238,1.523
		c2.359,0.741,4.29,0.979,5.462,2.662c0.097,0.108,0.295,0.285,0.276,0.314c-0.185,0.27-0.376,0.141-0.555-0.032
		c-0.951,0.012-1.921-0.398-2.898-0.018c0.274,1.253,1.655,1.95,1.115,3.443c-2.985-1.738-5.483-4.342-9.329-4.913
		c1.54,3.037,2.052,5.807-0.205,8.595c-0.595-1.329-0.307-2.801-1.394-3.844c-1.042,0.991-1.599,2.718-3.718,2.51
		c1.007-1.774,2.589-3.069,2.505-5.101c-0.03-0.742,0.323-1.685-0.433-2.168c-0.701-0.448-1.296,0.305-1.894,0.606
		c-2.297,1.161-4.514,2.536-7.209,2.562c-0.455,0.004-1.015,0.074-1.238-0.441c-0.288-0.663,0.256-1.071,0.71-1.285
		c1.365-0.643,2.778-1.182,4.215-1.78c-0.78-0.583-1.966-0.338-2.341-1.341c0.523-1.027,2.417-0.53,2.251-1.069
		c-0.6-1.935,0.831-0.972,1.344-1.079c0.983-0.206,1.901,0.672,3.229,0.23c-2.804-2.448-5.63-4.487-9.282-4.766
		c-1.766-0.134-3.923,0.015-4.22,2.35c-0.216,1.698-1.035,2.873-1.965,4.127c-1.587,2.142-1.342,4.046,0.643,5.775
		c0.524,0.457,1.246,0.87,1.468,1.457c0.857,2.271,2.627,2.211,4.46,1.866c1.89-0.355,3.445-1.423,4.873-2.682
		c0.992-0.875,1.928-1.852,3.349-2.022c0.166-0.002,0.331-0.005,0.497-0.007c-0.063,0.108-0.126,0.215-0.188,0.323
		c-0.436,1.606-1.97,2.135-3.062,3.083c-3.292,2.857-3.541,4.149-1.376,7.757c0.16,0.266,0.261,0.566,0.406,0.842
		c1.208,2.306,3.273,2.972,5.679,1.81c0.98-0.474,1.899-1.027,3.065-1.01c2.788,0.042,4.902-2.089,5.098-4.895
		c0.128-1.843-0.405-3.564-1.097-5.534c1.429,0.373,1.879,1.192,2.399,1.96c0.96,1.417,1.891,2.863,2.958,4.199
		c0.92,1.152,2.605,1.836,3.432,0.666c1.342-1.899,3.424-2.838,4.814-4.518C248.655,169.233,245.817,162.464,242.169,161.931z"/>
	<path fill="#F27C84" d="M413.948,160.823c-3.36,3.428-3.017,6.395,0.538,9.652c1.385,1.268,2.477,2.014,4.197,1.679
		c1.791-0.348,3.342-1.22,4.76-2.4c0.641-0.533,1.256-1.133,1.97-1.631l-1.287-1.211c-1.357,0.635-2.767,1.121-4.343,1.135
		c-0.508,0.004-1.219,0.191-1.402-0.499c-0.17-0.63,0.463-0.931,0.881-1.248c0.862-0.658,1.907-0.893,2.925-1.214l-7.216-6.791
		c-0.249,0.469-0.468,1.011-0.648,1.675C414.241,160.27,414.152,160.615,413.948,160.823z"/>
	<path fill="#F27C84" d="M326.236,161.472c-0.017,0.002-0.032-0.001-0.049,0.001c0.008,0.008,0.016,0.015,0.022,0.023
		L326.236,161.472z"/>
	<path fill="#F27C84" d="M342.063,166.572c-1.293,0.122-2.39-0.827-3.601-0.075c0.42,1.098,1.67,1.888,1.226,3.41
		c-3.003-1.921-5.528-4.32-9.306-5.068c1.343,3.074,1.816,5.856-0.169,8.606c-1.03-1.116-0.288-2.759-1.505-3.744
		c-0.984,1.058-1.68,2.509-3.358,2.66c-0.106,0.049-0.214,0.098-0.321,0.146c0.034-0.123,0.068-0.245,0.102-0.369
		c0.293-1.661,2.098-2.483,2.291-4.235c0.113-1.017,0.463-2.225-0.23-2.903c-0.85-0.832-1.666,0.35-2.439,0.728
		c-2.236,1.094-4.399,2.37-7.004,2.321c-0.439-0.008-1.021,0.101-1.196-0.464c-0.167-0.54,0.331-0.827,0.682-1.102
		c1.306-1.029,2.983-1.221,4.479-1.905c-0.729-0.611-1.904-0.365-2.365-1.34c0.53-1.068,2.361-0.5,2.311-0.985
		c-0.254-2.419,1.361-1.044,2.055-1.047c0.807-0.003,1.62,0.384,2.475,0.268c-1.928-2.111-4.326-3.523-6.968-4.51
		c-1.56-0.582-3.2-0.704-4.823-0.116c-0.93,0.336-1.803,0.835-1.764,1.933c0.059,1.649-0.818,2.76-1.787,3.924
		c-1.782,2.14-1.547,4.291,0.575,6.16c0.523,0.461,1.175,0.794,1.441,1.499c0.751,1.985,2.374,2.069,4.078,1.779
		c2.241-0.381,3.969-1.747,5.669-3.146c0.914-0.751,1.78-1.64,3.342-1.733c-0.54,2.042-2.252,2.621-3.403,3.679
		c-3.2,2.939-3.392,3.954-1.194,7.621c0.16,0.266,0.254,0.571,0.398,0.848c1.24,2.354,3.289,3.01,5.684,1.758
		c0.906-0.474,1.775-0.971,2.838-0.995c3.332-0.073,5.244-2.102,5.375-5.412c0.068-1.719-0.686-3.177-1.039-4.759
		c-0.049-0.093-0.098-0.187-0.146-0.279c0.094,0.047,0.188,0.096,0.283,0.143c1.128,0.052,1.5,0.97,2.025,1.735
		c0.971,1.415,1.863,2.904,2.984,4.191c1.637,1.879,3.232,1.716,4.564-0.334c0.381-0.588,0.666-1.185,1.306-1.592
		c4.052-2.582,4.521-4.486,2.129-8.667c-0.905-1.582-1.993-3.315-3.989-3.208c-2.309,0.124-4.586,0.83-7.449,1.396
		C338.782,164.243,340.817,164.557,342.063,166.572z"/>
	<path fill="#F27C84" d="M339.322,112.737c0.088-0.929,0.607-1.563,1.078-2.28c0.088-0.134,0.146-0.268,0.221-0.402l-13.301-4.672
		l-2.101,2.851c0.168-0.052,0.335-0.105,0.502-0.159c0.566-0.185,1.402-0.508,1.729,0.09c0.425,0.778-0.461,1.184-0.944,1.658
		c-0.623,0.612-1.719,0.647-2.127,1.552c1.733,1.095,3.613,0.493,5.854,0.994c-2.814,2.53-5.772,1.708-9.086,1.392l-0.268,0.362
		c3.548,2.536,6.755,4.297,10.515,4.841C335.503,119.559,338.934,116.875,339.322,112.737z"/>
	<path fill="#F27C84" d="M320.545,215.528c3.383,2.773,6.545,4.467,10.105,5.061c4.93,0.822,7.883-1.486,8.729-6.322
		c0.102-0.586,0.445-1.154,0.773-1.669c1.764-2.755,1.313-4.651-1.566-6.044c-1.129-0.547-1.91-1.305-2.32-2.482
		c-0.259-0.745-0.664-1.399-1.273-1.932c-2.444-2.136-5.109-1.785-7.067,1.309c-1.621,2.562-3.376,4.855-6.103,6.289
		c-0.342,0.18-0.94,0.234-0.756,0.924c1.829,0.006,3.562-0.436,5.282-0.957c0.427-0.129,0.94-0.428,1.226,0.148
		c0.244,0.493-0.088,0.938-0.461,1.217c-0.899,0.672-1.845,1.283-2.896,2.004c1.836,1.205,3.84,0.311,5.938,1.172
		C327.287,216.805,324.168,215.827,320.545,215.528z"/>
	<path fill="#F27C84" d="M226.899,202.512c-0.758,1.044-1.494,2.099-2.293,3.11l0.794,0.96l7.259-4.984
		C230.866,200.307,228.35,200.513,226.899,202.512z"/>
	<path fill="#F27C84" d="M338.88,308.457c-1.384-0.631-2.172-1.57-2.78-2.947c-1.525-3.451-5.169-4.047-7.484-1.105
		c-2.189,2.781-3.929,5.93-7.748,7.635c2.248,0.447,3.801-0.029,5.346-0.566c0.447-0.154,1.02-0.365,1.31,0.049
		c0.37,0.529-0.015,1.082-0.464,1.4c-0.938,0.666-1.935,1.252-2.965,1.906c1.303,0.959,2.832,0.596,4.307,0.703
		c4.167-0.528,8.309-1.252,12.324-2.097C341.718,311.394,341.077,309.457,338.88,308.457z"/>
	<path fill="#B7D66D" d="M241.418,183.019c-0.886-1.602-1.858-2.552-3.878-1.468c-1.133,0.608-2.538,0.72-3.828,1.024
		c-3.704,0.874-6.499,2.946-8.324,6.292c-0.924,1.693-1.833,3.322,0.711,4.592c1.021,0.509,1.173,1.75,1.223,2.896
		c0.036,0.816-0.4,1.662,0.186,2.655c0.685-0.406,1.353-0.77,1.984-1.186c2.852-1.875,4.542-4.665,6.016-7.634
		c0.631-1.271,1.134-2.701,3.011-3.208c-0.24,5.35-4.2,7.936-7.526,11.251c0.676,0.468,1.423,0.74,1.781,1.274
		c0.397,0.592,0.798,0.967,1.205,1.185l6.624-4.548C242.786,192.133,243.353,186.518,241.418,183.019z"/>
	<path fill="#B7D66D" d="M342.429,181.901c-0.518-0.58-0.948-1.136-1.961-0.792c-2.139,0.725-4.357,1.214-6.503,1.921
		c-3.562,1.174-5.935,3.657-7.377,7.067c-0.332,0.784-0.846,1.889,0.023,2.356c2.783,1.495,2.73,3.88,2.248,6.58
		c5.924-2.121,7.351-8.083,10.912-12.582c0.896,1.635,0.392,2.568,0.006,3.483c-1.252,2.969-3.46,5.168-5.863,7.21
		c-0.418,0.354-1.291,0.536-0.794,1.386c1.499,2.562,3.952,3.051,6.287,1.161c4.01-3.246,5.028-7.746,4.886-12.587
		C344.24,185.247,343.749,183.382,342.429,181.901z"/>
	<path fill="#B7D66D" d="M342.855,284.258c-0.519-0.775-1.069-1.93-2.374-1.373c-2.026,0.868-4.231,1.074-6.285,1.787
		c-3.663,1.271-6.264,3.742-7.667,7.388c-0.294,0.764-0.793,1.696,0.23,2.285c2.592,1.491,2.679,3.769,1.906,6.737
		c3.697-1.848,6.082-4.312,7.77-7.501c0.656-1.238,1.283-2.498,2.033-3.678c0.343-0.539,0.844-1.412,1.619-0.939
		c0.527,0.32,0.211,1.143,0.023,1.748c-1.036,3.352-3.316,5.771-5.923,7.953c-0.464,0.389-1.184,0.629-1.196,1.33
		c-0.014,0.82,3.982,2.785,4.81,2.4c3.974-1.846,5.437-5.39,6.204-9.346C344.595,290.009,344.67,286.974,342.855,284.258z"/>
	<path fill="#B7D66D" d="M304.064,192.639c0.883-0.438-0.198-1.779-0.158-2.741c0.007-0.148-0.107-0.297-0.119-0.45
		c-0.332-4.4,0.22-8.585,3.078-12.171c0.363-0.455,0.82-1.129,1.539-0.735c0.729,0.4,0.318,1.075,0.174,1.671
		c-0.305,1.261-1.184,2.187-1.836,3.245c-1.414,2.29-2.034,4.66-1.238,7.373c0.42,1.433,0.927,1.431,1.889,0.6
		c1.219-1.053,2.594-2.004,4.232-1.542c1.776,0.5,2.414-0.387,2.973-1.74c0.769-1.862,0.93-3.707,0.488-5.717
		c-0.703-3.195-3.154-5.366-4.48-8.18c-0.195-0.416-0.652-0.354-1.039-0.243c-5.186,1.472-10.347,5.874-10.552,12.654
		c0.028,2.007,0.857,4.334,2.535,6.301C302.223,191.753,303.033,193.151,304.064,192.639z"/>
	<path fill="#B7D66D" d="M212.433,187.012c0.646-1.174,0.995-2.422,1.108-3.778c0.374-4.507-2.791-7.452-4.738-10.933
		c-0.37-0.661-0.949-0.321-1.45-0.149c-2.801,0.96-5.132,2.366-6.876,4.305l2.917,3.525c0.388-0.872,0.868-1.705,1.48-2.485
		c0.416-0.53,0.92-1.357,1.674-0.945c0.876,0.479,0.459,1.396,0.112,2.066c-0.551,1.064-1.218,2.068-1.828,3.103l5.097,6.162
		c0.2,0.033,0.402,0.073,0.612,0.138C211.448,188.3,212.029,187.746,212.433,187.012z"/>
	<path fill="#B7D66D" d="M310.773,274.352c-0.506-0.846-1.143-0.626-1.816-0.392c-4.793,1.663-8.229,4.716-9.653,9.698
		c-0.973,3.401,0.65,8.238,3.27,10.186c0.449,0.332,0.916,0.725,1.476,0.445c0.763-0.382,0.126-0.965,0.061-1.432
		c-0.173-1.232-0.586-2.432-0.481-3.715c0.344-3.738,0.748-7.468,3.545-10.373c0.338-0.352,0.691-1.01,1.332-0.511
		c0.4,0.312,0.353,0.833,0.239,1.308c-0.317,1.322-1.121,2.383-1.852,3.488c-1.378,2.086-2.15,4.312-1.569,6.861
		c0.359,1.576,0.986,2.321,2.471,0.963c0.896-0.82,1.955-1.459,3.172-1.219c2.857,0.566,3.693-1.18,4.21-3.418
		c0.496-2.15,0.196-4.227-0.847-6.12C313.242,278.145,311.933,276.292,310.773,274.352z"/>
	<path fill="#B7D66D" d="M411.26,172.044c-5.345,0.94-10.365,6.771-10.379,10.731c-0.064,4.515,1.141,7.116,3.475,9.212
		c0.348,0.312,0.709,0.802,1.177,0.739l0.579-0.7c-0.013-0.275-0.131-0.573-0.203-0.809c-0.566-1.839-0.507-3.721-0.344-5.575
		c0.275-3.139,0.98-6.165,3.278-8.548c0.315-0.326,0.683-0.76,1.194-0.485c0.487,0.261,0.377,0.805,0.325,1.259
		c-0.167,1.468-1.109,2.559-1.897,3.707c-1.514,2.206-1.807,4.58-1.207,7.14c0.146,0.623,0.348,1.013,0.616,1.181l8.664-10.475
		c-0.973-2.58-2.936-4.598-4.073-7.07C412.209,171.792,411.74,171.959,411.26,172.044z"/>
	<path fill="#F27C84" d="M323.631,127.091c-0.943,0.816-2.101-0.53-2.912-1.313c-1.346-1.299-2.586-2.708-4.244-4.465
		c0.168,1.519,0.156,2.465,0.391,3.346c1.229,4.615,3.625,8.303,8.463,9.745c3.529,1.052,5.809-0.468,6.404-4.098
		c0.134-0.813,0.543-1.442,1.004-2.075c3.271-4.505,2.449-6.343-3.115-6.967c-0.154-0.018-0.311-0.022-0.467-0.018
		c-2.525,0.059-4.707-0.949-6.797-2.211c-1.175-0.709-2.326-1.454-3.482-2.191l-0.447,0.606c0.589,2.699,2.598,4.595,4.207,6.725
		C323.294,125.047,324.732,126.137,323.631,127.091z"/>
	<path fill="#F27C84" d="M318.234,218.311c0.007,0,0.013,0.003,0.02,0.003c-0.001-0.006-0.003-0.012-0.004-0.019L318.234,218.311z"
		/>
	<path fill="#F27C84" d="M320.186,227.106c-1.285-1.002-1.886-2.721-3.69-3.631c0.149,1.231,0.207,2.16,0.382,3.064
		c0.918,4.779,5.279,9.271,9.521,9.846c2.971,0.404,4.975-1.078,5.315-4.029c0.124-1.078,0.628-1.897,1.272-2.698
		c2.963-3.681,2.248-5.598-2.406-6.481c-0.307-0.058-0.619-0.121-0.927-0.113c-3.206,0.085-5.856-1.369-8.493-2.95
		c-0.979-0.585-1.648-1.677-2.906-1.798c0.348,2.865,2.184,4.881,3.882,7.014c0.852,1.07,2.807,2.475,1.651,3.572
		C322.706,229.926,321.321,227.993,320.186,227.106z"/>
	<path fill="#F27C84" d="M318.375,154.445c2.459,0.813,4.819,1.67,6.812,3.86c0.088-2.054-1.342-3.113-1.802-4.725
		c1.687-0.411,2.047,1.24,3.165,1.521c0.656-1.425-0.646-2.782-0.222-4.365c1.294,0.764,1.796,1.812,2.122,2.929
		c0.31,1.061,0.479,2.162,0.756,3.472c0.946-1.527,1.117-2.993,1.387-4.438c0.529-2.854,0.602-5.594-1.655-7.856
		c-2.422-2.428-5.569-1.036-8.356-1.505c-0.916-0.154-1.791,0.8-1.938,1.996c-0.145,1.181-0.626,2.135-1.549,3.016
		C314.635,150.696,315.165,153.384,318.375,154.445z"/>
	<path fill="#F27C84" d="M215.819,154.126c2.521,1.042,5.257,1.583,7.459,4.075c0.091-2.289-1.535-3.277-1.671-4.911
		c1.576-0.071,2.107,1.501,3.491,1.984c-0.257-1.615-0.474-2.98-0.761-4.783c2.553,1.974,2.755,4.371,2.904,6.884
		c1.213-2.067,1.671-3.993,1.808-6.742c0.109-2.193-0.202-4.203-1.902-5.783c-0.932-0.866-4.344-1.617-6.726-1.671l-4.068,3.829
		c-0.372,0.601-0.881,1.122-1.4,1.681C213.225,150.551,213.625,153.219,215.819,154.126z"/>
	<path fill="#F27C84" d="M329.249,259.036c0.924-1.764,1.13-3.465,1.424-5.133c0.497-2.813,0.362-5.506-2.028-7.509
		c-2.531-2.121-5.617-0.886-8.443-1.173c-0.804-0.08-1.418,0.876-1.531,1.831c-0.152,1.285-0.721,2.269-1.684,3.208
		c-2.337,2.282-1.766,5.01,1.334,5.962c2.422,0.745,4.68,1.645,6.732,3.679c0.238-2.148-1.695-3.122-1.584-4.826
		c1.52-0.046,1.997,1.433,3.064,1.859c0.625-1.498-0.604-2.782-0.18-4.326C328.823,254.081,328.529,256.653,329.249,259.036z"/>
	<path fill="#F27C84" d="M342.361,247.924c-0.598-0.704-1.361-1.275-2.217-0.918c-1.425,0.596-2.549-0.051-3.781-0.496
		c-2.562-0.924-3.969-0.078-3.545,2.594c0.604,3.799,0.146,7.377-0.994,10.953l0.078,0.078c1.04-0.108,1.631-0.909,2.208-1.598
		c1.097-1.31,2.037-2.748,3.092-4.094c0.313-0.4,0.716-1.043,1.308-0.731c0.602,0.316,0.217,0.941,0.1,1.457
		c-0.405,1.771-1.771,3.056-2.561,4.907c2.663-0.289,4.13-1.931,5.611-3.625c1.756-2.01,1.738-4.555,2.281-6.937
		c0.002,0.001-0.012,0.005-0.012,0.005C342.989,249.403,342.843,248.493,342.361,247.924z"/>
	<path fill="#F27C84" d="M229.992,158.684c-0.003-0.011,0-0.021-0.003-0.033c-0.006,0.002-0.012,0.006-0.019,0.009L229.992,158.684z
		"/>
	<path fill="#F27C84" d="M236.891,151.621c0.394,2.781-1.741,4.327-2.312,6.542c4.363-0.865,7.891-5.852,7.081-9.809
		c-0.321-1.571-1.109-3.314-2.902-3.109c-1.646,0.188-3.002-0.11-4.497-0.569c-2.425-0.746-3.633,0.19-3.292,2.806
		c0.407,3.131,0.692,6.175-0.517,9.19c-0.25,0.624-0.638,1.246-0.463,1.98C233.176,157.362,233.846,153.451,236.891,151.621z"/>
	<path fill="#F27C84" d="M336.098,158.213c0.008-0.013,0.016-0.026,0.023-0.04c-0.02,0.001-0.038,0.007-0.058,0.009L336.098,158.213
		z"/>
	<path fill="#F27C84" d="M331.969,158.313c0.779-0.043,1.195-0.657,1.703-1.11c1.226-1.093,2.043-2.503,2.965-3.838
		c0.461-0.667,1.074-1.864,1.834-1.425c0.986,0.568,0.115,1.687-0.236,2.449c-0.603,1.309-1.396,2.529-2.113,3.785
		c4.172-0.348,8.364-6.013,7.324-9.929c-0.59-2.221-1.869-3.095-4.199-2.768c-0.919,0.13-1.668-0.247-2.467-0.543
		c-3.092-1.148-4.542-0.268-3.942,2.944c0.676,3.623-0.007,6.931-1.016,10.293l0.001,0v0
		C331.821,158.171,331.969,158.313,331.969,158.313z"/>
	<path fill="#B7D66D" d="M307.039,246.044c-4.382,0.153-5.072,1.143-3.647,5.384c0.124,0.369,0.249,0.742,0.413,1.096
		c2.029,4.349,8.01,6.25,11.327,3.51c-0.796-0.244-1.558-0.416-2.267-0.715c-0.785-0.328-1.521-0.771-2.279-1.166
		c-0.301-0.17-0.604-0.342-0.905-0.512c-1.962-1.006-3.428-2.426-3.945-4.65c2.197,0.672,2.913,2.791,4.284,4.26
		c0.3,0.172,0.6,0.344,0.9,0.516c1.779,0.504,3.621,1.146,3.045-2.004c-0.07-0.385,0.217-0.922,0.492-1.268
		c0.811-1.021,0.264-1.709-0.451-2.416C312.048,246.139,309.6,245.956,307.039,246.044z"/>
	<path fill="#B7D66D" d="M411.863,155.371l-7.105-6.688c0.297,1.041,0.824,2.079,1.381,3.034
		C407.158,153.467,409.377,154.999,411.863,155.371z"/>
	<path fill="#B7D66D" d="M213.886,154.322c-1.552-0.374-2.87-0.712-4.015-1.214l-2.253,2.121c0.058,0.01,0.114,0.027,0.172,0.035
		C209.63,155.516,211.64,155.805,213.886,154.322z"/>
	<path fill="#B7D66D" d="M211.27,151.792l-0.126,0.118C211.188,151.877,211.229,151.835,211.27,151.792z"/>
	<path fill="#B7D66D" d="M315.077,154.328c-3.899-1.374-7.868-2.656-9.334-7.122c1.198,0.153,1.81,0.913,2.38,1.769
		c0.736,1.107,1.598,2.1,2.818,2.742c2.361,1.239,2.695,1.083,2.988-1.452c0.052-0.451,0.157-0.963,0.419-1.312
		c1.069-1.426,0.231-2.293-0.829-3.103c-1.01-0.771-2.173-1.316-3.41-1.454c-2.424-0.269-5.102-0.773-7.023,1.017
		c-1.191,1.11,0.488,5.732,2.354,7.637C308.018,155.685,312.729,156.311,315.077,154.328z"/>
	<path fill="#B7D66D" d="M301.088,257.926c0.594-1.451-0.469-2.09-1.803-2.977c1.963,0.044,2.633-0.867,2.793-2.275
		c0.152-1.355-0.969-2.014-1.812-2.042c-1.351-0.046-1.856-0.722-2.553-1.647c-0.565-0.752-1.521-1.424-2.657-0.678
		c-0.696,0.457-1.877,0.885-1.263,1.836c0.516,0.801-0.234,2.75,1.982,2.395c0.57-0.092,2.167,0.416,1.866,1.856
		c-0.306,1.46-1.119,2.522-2.748,1.581c-1.481-0.855-2.311,0.176-2.755,1.049c-0.472,0.927-0.34,2.365,0.845,2.834
		c1.205,0.478,2.51,0.297,2.958-1.338c0.099-0.361,0.221-0.717,0.533-1.718c0.542,2.015,1.323,3.052,3.094,2.696
		C300.516,259.309,300.788,258.661,301.088,257.926z"/>
	<path fill="#B7D66D" d="M267.526,261.718c-1.254-0.054-1.086-0.776-1.196-1.675c-0.103-0.848-0.526-2.012-1.653-1.973
		c-0.909,0.031-2.119,0.077-2.207,1.557c-0.075,1.263-0.64,0.531-1.182,0.285c-0.966-0.439-2.074-0.564-2.798,0.307
		c-0.476,0.572-0.574,1.637,0.065,2.166c0.812,0.674,2.121,1.488,2.949,0.684c1.534-1.488,2.294-0.184,3.432,0.574
		c-0.682,0.582-1.162,1.065-1.712,1.45c-1.045,0.73-0.815,1.786-0.661,2.739c0.131,0.812,0.949,0.988,1.651,1.046
		c3.12,0.257,1.373-3.954,3.947-4.356c0.426-0.067,0.881-1.104,0.286-1.829C268.157,262.338,267.847,261.732,267.526,261.718z
		 M262.501,261.36c-0.047,0.037-0.142,0.064-0.19,0.042c-0.205-0.098-0.196-0.207,0.021-0.272c0.051-0.014,0.124,0.042,0.188,0.065
		C262.515,261.252,262.532,261.336,262.501,261.36z"/>
	<path fill="#F27C84" d="M313.873,124.844c-0.014-0.412-0.01-0.82,0.009-1.226l-1.325,1.797c0.038,1.909,0.305,3.828,1.328,5.933
		C313.885,128.894,313.939,126.867,313.873,124.844z"/>
	<path fill="#F27C84" d="M314.717,213.756c-1.225-0.193-1.373,1.28-1.586,2.229c-0.689,3.073-0.574,6.208-0.583,9.331
		c-0.007,2.555-0.036,5.109,1.396,7.415c-0.402-5.545-0.016-10.95,1.684-16.243C315.949,215.486,316.09,213.971,314.717,213.756z"/>
	<path fill="#F27C84" d="M314.846,315.543c-0.753-0.153-1.119,0.334-1.31,0.894c0.716,0.012,1.433,0.019,2.155,0.012
		C315.609,316.018,315.401,315.655,314.846,315.543z"/>
	<path fill="#B7D66D" d="M387.049,135.149c-0.286,1.447,0.105,2.53,1.647,2.744c0.906,0.125,1.932-0.043,2.166-1.268
		c0.07-0.369,0.082-0.696,0.039-0.983l-1.422-1.339c-0.252-0.055-0.526-0.095-0.85-0.102c0.159-0.127,0.282-0.232,0.393-0.328
		l-2.368-2.229C386.088,132.906,387.281,133.971,387.049,135.149z"/>
	<path fill="#F27C84" d="M229.179,162.836c2.047-0.044,4.021-0.564,5.968-1.107c2.138-0.596,4.355-1.11,5.976-2.911
		c-3.152,0.812-6.214,1.983-9.529,1.879c-0.851-0.027-1.718,0.045-2.557,0.192c-0.726,0.127-1.797,0.166-1.63,1.239
		C227.54,162.98,228.489,162.851,229.179,162.836z"/>
	<path fill="#F27C84" d="M330.242,264.604c1.08-0.062,2.176-0.119,3.229-0.346c3.288-0.707,6.643-1.275,9.354-3.596
		c-3.946,1.254-7.939,2.061-12.081,1.933c-0.221-0.007-0.449,0.114-0.668,0.194c-0.524,0.194-1.078,0.422-0.922,1.121
		C329.271,264.434,329.776,264.631,330.242,264.604z"/>
	<path fill="#F27C84" d="M331.188,162.823c2.419-0.184,4.758-0.816,7.076-1.48c1.696-0.486,3.4-1.043,4.64-2.536
		c-3.494,1.08-6.97,2.107-10.662,1.892c-0.457-0.026-0.938,0.064-1.383,0.185c-0.71,0.191-1.83,0.155-1.647,1.221
		C329.381,163.088,330.453,162.879,331.188,162.823z"/>
	<path fill="#B7D66D" d="M260.163,162c-1.305,0.084-2.107,0.492-1.917,1.897c-0.132,1.53,0.939,2.123,2.008,2.05
		c1.365-0.092,1.754-1.547,1.865-2.603C262.234,162.256,261.263,161.929,260.163,162z"/>
	<path fill="#F27C84" d="M314.668,239.861c-0.021-0.603-0.404-0.973-0.95-1.09c-0.606-0.13-1.062,0.15-1.056,0.825
		c0.005,0.627,0.458,0.961,1.021,1.022C314.17,240.67,314.56,240.424,314.668,239.861z"/>
	<path fill="#F27C84" d="M313.729,138.824c0.5,0.031,0.915-0.265,0.914-0.806c-0.002-0.653-0.486-0.892-1.205-0.981
		c-0.329,0.084-0.811,0.151-0.766,0.786C312.717,138.459,313.151,138.788,313.729,138.824z"/>
	<path fill="#F27C84" d="M316.026,235.85c-0.036,0.5,0.257,0.92,0.778,0.947c0.645,0.033,0.941-0.398,0.973-1.021
		c-0.035-0.543-0.314-0.863-0.87-0.82C316.385,234.995,316.061,235.358,316.026,235.85z"/>
	<path fill="#F27C84" d="M314.09,135.384c0.492-0.085,0.749-0.465,0.766-1.021c-0.064-0.477-0.355-0.833-0.875-0.791
		c-0.617,0.05-0.924,0.477-0.846,1.101C313.203,135.212,313.588,135.471,314.09,135.384z"/>
	<path fill="#F27C84" d="M318.377,138.022c0.549-0.047,0.814-0.363,0.805-0.891c-0.01-0.636-0.348-0.986-0.994-0.939
		c-0.525,0.038-0.811,0.381-0.817,0.896C317.361,137.746,317.76,138.015,318.377,138.022z"/>
	<path fill="#F27C84" d="M317.382,238.733c-0.058,0.619,0.261,1.061,0.929,1.1c0.574,0.034,0.828-0.327,0.883-0.863
		c0.014-0.549-0.227-0.906-0.791-0.951C317.885,237.977,317.434,238.174,317.382,238.733z"/>
	<path fill="#F27C84" d="M318.226,218.268c0.001,0.015,0.006,0.028,0.009,0.043l0.016-0.016
		C318.242,218.287,318.233,218.277,318.226,218.268z"/>
	<path fill="#F27C84" d="M318.051,218.077c0.059,0.065,0.116,0.128,0.175,0.191c-0.006-0.052-0.007-0.108-0.032-0.148
		C318.174,218.087,318.1,218.09,318.051,218.077z"/>
	<polygon fill="#F27C84" points="316.856,205.176 316.856,205.176 316.856,205.176 	"/>
	<path fill="#F27C84" d="M316.782,205.224c0.025-0.016,0.05-0.031,0.073-0.047l-0.033-0.038
		C316.811,205.167,316.794,205.194,316.782,205.224z"/>
	<path fill="#F27C84" d="M316.727,205.342c0.027-0.033,0.04-0.077,0.056-0.119c-0.068,0.043-0.137,0.086-0.204,0.13
		C316.629,205.351,316.703,205.368,316.727,205.342z"/>
	<polygon fill="#F27C84" points="316.855,205.177 316.856,205.176 316.856,205.176 316.822,205.139 	"/>
	<polygon fill="#F27C84" points="320.328,215.272 320.455,215.295 320.41,215.183 	"/>
	<polygon fill="#F27C84" points="241.998,158.419 241.857,158.399 241.91,158.525 	"/>
	<path fill="#F27C84" d="M331.822,158.171c-0.061,0.104-0.121,0.208-0.182,0.313c0.109-0.058,0.219-0.115,0.328-0.171
		L331.822,158.171z"/>
	<polygon fill="#F27C84" points="331.822,158.171 331.822,158.171 331.969,158.313 	"/>
	<path fill="#F27C84" d="M335.902,158.441c0.04-0.064,0.079-0.127,0.119-0.191c-0.039,0.015-0.081,0.027-0.111,0.053
		C335.886,158.323,335.904,158.393,335.902,158.441z"/>
	<path fill="#F27C84" d="M336.021,158.25c0.026-0.011,0.05-0.025,0.076-0.037l-0.034-0.031
		C336.05,158.205,336.035,158.227,336.021,158.25z"/>
	<path fill="#F27C84" d="M229.991,158.684c0,0-0.021-0.024-0.021-0.024c-0.033,0.045-0.065,0.09-0.098,0.135
		C229.912,158.758,229.952,158.721,229.991,158.684z"/>
	<path fill="#F27C84" d="M331.685,260.422c0.072-0.096,0.146-0.191,0.218-0.287c0,0-0.078-0.078-0.078-0.077
		C331.641,260.125,331.398,260.172,331.685,260.422z"/>
	<path fill="#F27C84" d="M326.396,161.609c-0.054-0.046-0.107-0.092-0.16-0.138l-0.026,0.024
		C326.271,161.534,326.334,161.572,326.396,161.609z"/>
</g>
<g>
	<g opacity="0.1">
		<polygon points="296.021,101.873 288.025,110.875 296.021,141.844 313.704,133.288 		"/>
	</g>
	<g>
		<g>
			<polygon fill="#F27C84" points="292.021,97.873 284.025,106.875 292.021,137.844 309.704,129.288 			"/>
		</g>
	</g>
</g>
<g>
	<g opacity="0.1">
		<polygon points="331.387,101.951 339.386,110.953 331.387,141.924 313.704,133.288 		"/>
	</g>
	<g>
		<g>
			<polygon fill="#F27C84" points="327.387,97.951 335.386,106.953 327.387,137.924 309.704,129.288 			"/>
		</g>
	</g>
</g>
</svg>
