<?xml version="1.0" encoding="utf-8"?>
<!-- Generator: Adobe Illustrator 16.0.0, SVG Export Plug-In . SVG Version: 6.00 Build 0)  -->
<!DOCTYPE svg PUBLIC "-//W3C//DTD SVG 1.1//EN" "http://www.w3.org/Graphics/SVG/1.1/DTD/svg11.dtd">
<svg version="1.1" id="레이어_1" xmlns="http://www.w3.org/2000/svg" xmlns:xlink="http://www.w3.org/1999/xlink" x="0px"
	 y="0px" width="600px" height="600px" viewBox="0 0 600 600" enable-background="new 0 0 600 600" xml:space="preserve">
<g opacity="0.1">
	<path d="M339.887,112.742c-1.899,13.428-13.434,23.759-27.387,23.759c-13.757,0-25.164-10.042-27.302-23.195l-40.258,13.62
		l-54.773,36.241c0,0,2.333,15.667,10,28.333s28.235,19.083,28.235,19.083l17.098-41.417c0.417,6.401,4.786,47.433,9.333,67
		c7.489,32.224-6.6,65.544-9.894,69.885c0,0,37.643,15.389,68.221,14.27c29.737,1.751,67.31-14.193,67.31-14.193
		c-3.261-4.464-13.393-39.653-7.638-71.961c4.334-24.333,7.277-54.455,7.667-60.667l16.514,37.155c0,0,17.486-6.488,27.486-18.488
		s10.333-25.667,10.333-25.667l-54.362-39.502L339.887,112.742z"/>
</g>
<g id="레이어_3">
</g>
<g id="레이어_1_1_">
	<g id="레이어_2_1_" display="none">
		<rect x="196.5" y="45" display="inline" fill="none" stroke="#000000" stroke-miterlimit="10" width="229" height="229"/>
		
			<rect x="196.5" y="284.241" display="inline" fill="none" stroke="#000000" stroke-miterlimit="10" width="229" height="272.759"/>
		<rect x="440.5" y="45" display="inline" fill="none" stroke="#000000" stroke-miterlimit="10" width="127" height="127"/>
		<rect x="440.5" y="188.833" display="inline" fill="none" stroke="#000000" stroke-miterlimit="10" width="127" height="127"/>
		<rect x="440.5" y="333.5" display="inline" fill="none" stroke="#000000" stroke-miterlimit="10" width="127" height="223.5"/>
	</g>
	<g id="레이어_1_3_">
	</g>
	<g id="레이어_2">
	</g>
</g>
<g>
	<path fill="#D2FFF6" d="M336.887,108.742c-1.899,13.428-13.434,23.759-27.387,23.759c-13.757,0-25.164-10.042-27.302-23.195
		l-40.258,13.62l-54.773,36.241c0,0,2.333,15.667,10,28.333s28.235,19.083,28.235,19.083l17.098-41.417
		c0.417,6.401,4.786,47.433,9.333,67c7.489,32.224-6.6,65.544-9.894,69.885c0,0,37.643,15.389,68.221,14.27
		c29.737,1.751,67.31-14.193,67.31-14.193c-3.261-4.464-13.393-39.653-7.638-71.961c4.334-24.333,7.277-54.455,7.667-60.667
		l16.514,37.155c0,0,17.486-6.488,27.486-18.488s10.333-25.667,10.333-25.667l-54.362-39.502L336.887,108.742z"/>
</g>
</svg>
