<?xml version="1.0" encoding="utf-8"?>
<!-- Generator: Adobe Illustrator 16.0.0, SVG Export Plug-In . SVG Version: 6.00 Build 0)  -->
<!DOCTYPE svg PUBLIC "-//W3C//DTD SVG 1.1//EN" "http://www.w3.org/Graphics/SVG/1.1/DTD/svg11.dtd">
<svg version="1.1" id="레이어_1" xmlns="http://www.w3.org/2000/svg" xmlns:xlink="http://www.w3.org/1999/xlink" x="0px"
	 y="0px" width="600px" height="600px" viewBox="0 0 600 600" enable-background="new 0 0 600 600" xml:space="preserve">
<g id="레이어_2_1_" display="none">
	<rect x="196.5" y="45" display="inline" fill="none" stroke="#040000" stroke-miterlimit="10" width="229" height="229"/>
	<rect x="196.5" y="284.241" display="inline" fill="none" stroke="#040000" stroke-miterlimit="10" width="229" height="272.759"/>
	<rect x="440.5" y="45" display="inline" fill="none" stroke="#040000" stroke-miterlimit="10" width="127" height="127"/>
	<rect x="440.5" y="188.833" display="inline" fill="none" stroke="#040000" stroke-miterlimit="10" width="127" height="127"/>
	<rect x="440.5" y="333.5" display="inline" fill="none" stroke="#040000" stroke-miterlimit="10" width="127" height="223.5"/>
</g>
<g id="레이어_1_2_">
	<g id="레이어_1_1_">
	</g>
	<g id="레이어_2">
	</g>
	<g>
		<g opacity="0.1">
			<polygon fill="#040000" points="317.361,354.5 310.049,354.5 241.369,354.5 241.369,438.5 241.369,467.5 310.049,467.5 
				310.049,438.5 317.361,438.5 317.361,467.5 386.041,467.5 386.041,438.5 386.041,354.5 			"/>
		</g>
		<g>
			<polygon fill="#F9DCDC" points="313.361,349.5 306.049,349.5 237.369,349.5 237.369,433.5 237.369,462.5 306.049,462.5 
				306.049,433.5 313.361,433.5 313.361,462.5 382.041,462.5 382.041,433.5 382.041,349.5 			"/>
		</g>
	</g>
	<g>
		<g opacity="0.1">
			<circle fill="#111111" cx="269.741" cy="376.759" r="1.789"/>
		</g>
		<g>
			<circle fill="#111111" cx="268.741" cy="375.759" r="1.789"/>
		</g>
	</g>
	<g>
		<g opacity="0.1">
			<circle fill="#111111" cx="352.279" cy="376.759" r="1.789"/>
		</g>
		<g>
			<circle fill="#111111" cx="351.279" cy="375.759" r="1.789"/>
		</g>
	</g>
	<path fill="none" stroke="#F4F4F4" stroke-miterlimit="10" d="M238.555,399.486c0,0,30.041,1.936,30.041-20.319"/>
	<path fill="none" stroke="#F4F4F4" stroke-miterlimit="10" d="M381.318,399.486c0,0-30.039,1.936-30.039-20.319"/>
	<path fill="none" stroke="#F4F4F4" stroke-miterlimit="10" d="M304.073,362.5v43.334c0,0,0.646,6.666,8.583,6.666v-50H304.073
		L304.073,362.5z"/>
	<g>
		<rect x="237.369" y="355" fill="#F4F4F4" width="144.672" height="10"/>
	</g>
	<g>
		<g opacity="0.1">
			<rect x="267.867" y="350.5" fill="#040000" width="2.874" height="18.5"/>
		</g>
		<g>
			<rect x="266.867" y="349.5" fill="#F9DCDC" width="2.874" height="18.5"/>
		</g>
	</g>
	<g>
		<g opacity="0.1">
			<rect x="350.843" y="350.5" fill="#040000" width="2.874" height="18.5"/>
		</g>
		<g>
			<rect x="349.843" y="349.5" fill="#F9DCDC" width="2.874" height="18.5"/>
		</g>
	</g>
</g>
</svg>
