<?xml version="1.0" encoding="utf-8"?>
<!-- Generator: Adobe Illustrator 16.0.0, SVG Export Plug-In . SVG Version: 6.00 Build 0)  -->
<!DOCTYPE svg PUBLIC "-//W3C//DTD SVG 1.1//EN" "http://www.w3.org/Graphics/SVG/1.1/DTD/svg11.dtd">
<svg version="1.1" id="레이어_1" xmlns="http://www.w3.org/2000/svg" xmlns:xlink="http://www.w3.org/1999/xlink" x="0px"
	 y="0px" width="600px" height="600px" viewBox="0 0 600 600" enable-background="new 0 0 600 600" xml:space="preserve">
<rect x="284.949" y="108.375" fill="#DDC6BF" width="51.551" height="72.125"/>
<g id="레이어_3">
</g>
<g id="레이어_1_1_">
	<g id="레이어_2_1_" display="none">
		<rect x="196.5" y="45" display="inline" fill="none" stroke="#000000" stroke-miterlimit="10" width="229" height="229"/>
		
			<rect x="196.5" y="284.241" display="inline" fill="none" stroke="#000000" stroke-miterlimit="10" width="229" height="272.759"/>
		<rect x="440.5" y="45" display="inline" fill="none" stroke="#000000" stroke-miterlimit="10" width="127" height="127"/>
		<rect x="440.5" y="188.833" display="inline" fill="none" stroke="#000000" stroke-miterlimit="10" width="127" height="127"/>
		<rect x="440.5" y="333.5" display="inline" fill="none" stroke="#000000" stroke-miterlimit="10" width="127" height="223.5"/>
	</g>
	<g id="레이어_1_3_">
	</g>
	<g id="레이어_2">
	</g>
</g>
<g>
	<g opacity="0.1">
		<path d="M398.013,210.655l31.667-38.283l-48.209-45.374l-42.769-15.023c-0.073,13.902-11.235,49.192-24.997,49.192
			c-13.61,0-24.672-34.505-24.985-48.714l-42.78,14.473L197.731,172.3l31.671,38.283l16.657-11.437
			c0.878,13.475,6.155,98.637-0.119,106.906c0,0,37.643,15.39,68.221,14.271c29.737,1.751,67.31-14.193,67.31-14.193
			c-6.039-8.269-0.962-93.405-0.115-106.906L398.013,210.655z"/>
	</g>
	<g>
		<path fill="#FFE2D7" d="M394.014,206.655l31.666-38.283l-48.209-45.374l-43.082-15.134c0.207,1.293,0.316,2.618,0.316,3.969
			c0,13.807-11.193,49.333-25,49.333c-13.807,0-25-35.526-25-49.333c0-1.174,0.087-2.327,0.244-3.458l-43.009,14.551L193.731,168.3
			l31.671,38.283l16.657-11.437c0.878,13.475,6.155,98.637-0.119,106.906c0,0,37.643,15.39,68.221,14.271
			c29.737,1.751,67.31-14.193,67.31-14.193c-6.039-8.269-0.962-93.405-0.115-106.906L394.014,206.655z"/>
	</g>
</g>
</svg>
