<?xml version="1.0" encoding="utf-8"?>
<!-- Generator: Adobe Illustrator 16.0.0, SVG Export Plug-In . SVG Version: 6.00 Build 0)  -->
<!DOCTYPE svg PUBLIC "-//W3C//DTD SVG 1.1//EN" "http://www.w3.org/Graphics/SVG/1.1/DTD/svg11.dtd">
<svg version="1.1" id="레이어_1" xmlns="http://www.w3.org/2000/svg" xmlns:xlink="http://www.w3.org/1999/xlink" x="0px"
	 y="0px" width="600px" height="600px" viewBox="0 0 600 600" enable-background="new 0 0 600 600" xml:space="preserve">
<g id="레이어_3">
</g>
<g id="레이어_1_1_">
	<g id="레이어_2_1_" display="none">
		<rect x="196.5" y="45" display="inline" fill="none" stroke="#000000" stroke-miterlimit="10" width="229" height="229"/>
		
			<rect x="196.5" y="284.241" display="inline" fill="none" stroke="#000000" stroke-miterlimit="10" width="229" height="272.759"/>
		<rect x="440.5" y="45" display="inline" fill="none" stroke="#000000" stroke-miterlimit="10" width="127" height="127"/>
		<rect x="440.5" y="188.833" display="inline" fill="none" stroke="#000000" stroke-miterlimit="10" width="127" height="127"/>
		<rect x="440.5" y="333.5" display="inline" fill="none" stroke="#000000" stroke-miterlimit="10" width="127" height="223.5"/>
	</g>
	<g id="레이어_1_3_">
	</g>
	<g id="레이어_2">
	</g>
</g>
<g>
	<g opacity="0.1">
		<path d="M398.013,210.655l31.667-38.283l-48.209-45.374l-50.147-17.615l-0.496,0.673v-7.109
			c-4.472,2.209-9.657,3.328-15.437,3.328c-8.619,0-16.211-2.534-18.718-3.468l0.698,6.719l-51.431,17.4L197.731,172.3
			l31.671,38.283l16.657-11.437c0.878,13.475,6.155,98.637-0.119,106.906c0,0,37.643,15.388,68.221,14.269
			c29.737,1.751,67.31-14.193,67.31-14.193c-6.039-8.269-0.962-93.405-0.115-106.906L398.013,210.655z"/>
	</g>
	<g>
		<path fill="#D2FFF6" d="M394.014,206.655l31.666-38.283l-48.209-45.374l-50.147-17.615l-0.496,0.673v-7.109
			c-4.472,2.209-9.657,3.328-15.437,3.328c-8.619,0-16.211-2.534-18.718-3.468l0.698,6.719l-51.431,17.4L193.731,168.3
			l31.671,38.283l16.657-11.437c0.878,13.475,6.155,98.637-0.119,106.906c0,0,37.643,15.388,68.221,14.269
			c29.737,1.751,67.31-14.193,67.31-14.193c-6.039-8.269-0.962-93.405-0.115-106.906L394.014,206.655z"/>
	</g>
</g>
<g>
	<g opacity="0.1">
		<polygon points="296.021,101.873 288.025,110.875 296.021,141.844 313.704,133.288 		"/>
	</g>
	<g>
		<g>
			<polygon fill="#217F6D" points="292.021,97.873 284.025,106.875 292.021,137.844 309.704,129.288 			"/>
		</g>
	</g>
</g>
<g>
	<g opacity="0.1">
		<polygon points="331.387,101.951 339.386,110.953 331.387,141.924 313.704,133.288 		"/>
	</g>
	<g>
		<g>
			<polygon fill="#217F6D" points="327.387,97.951 335.386,106.953 327.387,137.924 309.704,129.288 			"/>
		</g>
	</g>
</g>
</svg>
