<?xml version="1.0" encoding="utf-8"?>
<!-- Generator: Adobe Illustrator 16.0.0, SVG Export Plug-In . SVG Version: 6.00 Build 0)  -->
<!DOCTYPE svg PUBLIC "-//W3C//DTD SVG 1.1//EN" "http://www.w3.org/Graphics/SVG/1.1/DTD/svg11.dtd">
<svg version="1.1" id="레이어_1" xmlns="http://www.w3.org/2000/svg" xmlns:xlink="http://www.w3.org/1999/xlink" x="0px"
	 y="0px" width="600px" height="600px" viewBox="0 0 600 600" enable-background="new 0 0 600 600" xml:space="preserve">
<g id="레이어_3">
</g>
<g id="레이어_1_1_">
	<g id="레이어_2_1_" display="none">
		<rect x="196.5" y="45" display="inline" fill="none" stroke="#000000" stroke-miterlimit="10" width="229" height="229"/>
		
			<rect x="196.5" y="284.241" display="inline" fill="none" stroke="#000000" stroke-miterlimit="10" width="229" height="272.759"/>
		<rect x="440.5" y="45" display="inline" fill="none" stroke="#000000" stroke-miterlimit="10" width="127" height="127"/>
		<rect x="440.5" y="188.833" display="inline" fill="none" stroke="#000000" stroke-miterlimit="10" width="127" height="127"/>
		<rect x="440.5" y="333.5" display="inline" fill="none" stroke="#000000" stroke-miterlimit="10" width="127" height="223.5"/>
	</g>
	<g id="레이어_1_3_">
	</g>
	<g id="레이어_2">
	</g>
</g>
<g id="레이어_2_4_">
	<g>
		<g opacity="0.1">
			<path d="M466.213,455.199l-46.014-46.018L384.682,444.7l-0.513-0.513V433.85v-89.593h-65.075h-6.93h-65.075v89.593v103.28h65.075
				v-1.085l1.084,1.084l5.846-5.846v5.847h65.075v-0.114l0.113,0.114L466.213,455.199z M312.164,446.184v-34.648h6.93v27.723
				L312.164,446.184z"/>
		</g>
		<g>
			<path fill="#161616" d="M462.213,451.199l-46.014-46.018L380.682,440.7l-0.513-0.513V429.85v-89.593h-65.075h-6.93h-65.075
				v89.593v103.28h65.075v-1.085l1.084,1.084l5.846-5.846v5.847h65.075v-0.114l0.113,0.114L462.213,451.199z M308.164,442.184
				v-34.648h6.93v27.723L308.164,442.184z"/>
		</g>
	</g>
	
		<rect x="294.678" y="411.222" transform="matrix(-0.7071 -0.7071 0.7071 -0.7071 226.8492 1032.2706)" fill="#161616" width="65.073" height="115.863"/>
	
		<rect x="365.71" y="411.219" transform="matrix(-0.7071 -0.7071 0.7071 -0.7071 348.1151 1082.4966)" fill="#161616" width="65.074" height="115.866"/>
	<g>
		<g opacity="0.1">
			<polygon points="319.094,344.258 312.164,344.258 247.089,344.258 247.089,433.851 247.089,537.131 312.164,537.131 
				312.164,410.532 319.094,410.532 319.094,537.131 384.169,537.131 384.169,433.851 384.169,344.258 			"/>
		</g>
		<g>
			<g>
				<g>
					<polygon fill="#161616" points="315.094,340.258 308.164,340.258 243.089,340.258 243.089,429.851 243.089,533.131 
						308.164,533.131 308.164,406.532 315.094,406.532 315.094,533.131 380.169,533.131 380.169,429.851 380.169,340.258 					"/>
				</g>
			</g>
		</g>
	</g>
	<line fill="none" stroke="#3A3A3A" stroke-miterlimit="10" x1="243.089" y1="349.971" x2="380.169" y2="349.971"/>
	<g>
		<g opacity="0.1">
			<circle fill="#040000" cx="312.393" cy="346.844" r="2.737"/>
		</g>
		<g>
			<circle fill="#96978F" cx="310.863" cy="345.315" r="2.737"/>
		</g>
	</g>
	<path fill="none" stroke="#3A3A3A" stroke-miterlimit="10" d="M306.293,349.971v36.543c0,0,0.611,5.621,8.133,5.621v-42.164
		H306.293L306.293,349.971z"/>
	<g>
		<g opacity="0.1">
			<rect x="272.986" y="341.805" width="2.723" height="10.113"/>
			<rect x="272.039" y="341.258" width="2.723" height="10.113"/>
		</g>
		<g>
			<g>
				<g opacity="0.1">
					<rect x="271.986" y="340.805" fill="#161616" width="2.723" height="10.113"/>
				</g>
				<g>
					<rect x="271.039" y="340.258" fill="#161616" width="2.723" height="10.113"/>
				</g>
			</g>
		</g>
	</g>
	<g>
		<g opacity="0.1">
			<rect x="351.607" y="341.805" width="2.724" height="10.113"/>
			<rect x="350.66" y="341.258" width="2.724" height="10.113"/>
		</g>
		<g>
			<g>
				<g opacity="0.1">
					<rect x="350.607" y="340.805" fill="#161616" width="2.724" height="10.113"/>
				</g>
				<g>
					<rect x="349.66" y="340.258" fill="#161616" width="2.724" height="10.113"/>
				</g>
			</g>
		</g>
	</g>
</g>
</svg>
