<?xml version="1.0" encoding="utf-8"?>
<!-- Generator: Adobe Illustrator 16.0.0, SVG Export Plug-In . SVG Version: 6.00 Build 0)  -->
<!DOCTYPE svg PUBLIC "-//W3C//DTD SVG 1.1//EN" "http://www.w3.org/Graphics/SVG/1.1/DTD/svg11.dtd">
<svg version="1.1" id="레이어_1" xmlns="http://www.w3.org/2000/svg" xmlns:xlink="http://www.w3.org/1999/xlink" x="0px"
	 y="0px" width="600px" height="600px" viewBox="0 0 600 600" enable-background="new 0 0 600 600" xml:space="preserve">
<g id="레이어_2_1_" display="none">
	<rect x="196.5" y="45" display="inline" fill="none" stroke="#000000" stroke-miterlimit="10" width="229" height="229"/>
	<rect x="196.5" y="284.241" display="inline" fill="none" stroke="#000000" stroke-miterlimit="10" width="229" height="272.759"/>
	<rect x="440.5" y="45" display="inline" fill="none" stroke="#000000" stroke-miterlimit="10" width="127" height="127"/>
	<rect x="440.5" y="188.833" display="inline" fill="none" stroke="#000000" stroke-miterlimit="10" width="127" height="127"/>
	<rect x="440.5" y="333.5" display="inline" fill="none" stroke="#000000" stroke-miterlimit="10" width="127" height="223.5"/>
</g>
<g id="레이어_1_1_">
	<g id="레이어_2_3_">
		<g>
			<g opacity="0.1">
				<path d="M400.244,146.865c-0.188-4.914-1.171-8.989-3.799-11.678c-1.916-1.959-4.702-3.183-8.688-3.46
					c-4.479-0.311-9.475-0.474-14.424-0.196l-16,3.276c-8.499,4.384-18.552,17.785-42.334,17.785
					c-23.781,0-33.835-13.4-42.333-17.784l-16-3.276c-4.95-0.278-9.946-0.115-14.426,0.196c-3.984,0.277-6.771,1.5-8.686,3.46
					c-2.628,2.689-3.614,6.764-3.799,11.678c-0.278,7.368-10.534,14.753-10.195,22.124c0.168,3.65-0.516,13.934,2.442,16.728
					c4.197,3.956,17.075,1.345,24.513-1.513L229.5,316.925h171l-17.016-132.719c7.438,2.856,20.312,5.467,24.511,1.511
					c2.957-2.794,2.271-13.078,2.439-16.728C410.777,161.618,400.521,154.233,400.244,146.865z"/>
			</g>
			<g>
				<path fill="#11193F" d="M396.244,141.865c-0.188-4.914-1.171-8.989-3.799-11.678c-1.916-1.959-4.702-3.183-8.688-3.46
					c-4.479-0.311-9.475-0.474-14.424-0.196l-16,3.275c-8.499,4.384-18.554,1.583-42.336,1.583c-23.781,0-33.833,2.802-42.331-1.582
					l-16-3.276c-4.95-0.278-9.946-0.115-14.426,0.196c-3.984,0.277-6.771,1.5-8.686,3.46c-2.628,2.689-3.614,6.764-3.799,11.678
					c-0.278,7.368-10.534,14.753-10.195,22.124c0.168,3.65-0.516,13.934,2.442,16.728c4.197,3.956,17.075,1.345,24.513-1.513
					c0,0-23.053,126.682-17.015,132.72S270.482,320,313.741,320s75.297-0.614,82.759-8.076s-17.016-132.719-17.016-132.719
					c7.438,2.856,20.312,5.467,24.511,1.511c2.957-2.794,2.271-13.078,2.439-16.728
					C406.777,156.618,396.521,149.233,396.244,141.865z"/>
			</g>
			<rect x="287" y="97" fill="#11193F" width="55.5" height="11"/>
			<rect x="290" y="99.5" opacity="0.1" width="55.5" height="11"/>
		</g>
		<polygon fill="#11193F" points="396.501,311.924 225.501,311.924 245.501,155.924 376.501,155.924 		"/>
		<circle opacity="0.1" enable-background="new    " cx="311" cy="152.665" r="2.741"/>
		<circle opacity="0.1" enable-background="new    " cx="311" cy="198.424" r="2.741"/>
		<circle opacity="0.1" enable-background="new    " cx="311" cy="227.183" r="2.741"/>
		<circle opacity="0.1" enable-background="new    " cx="311" cy="255.942" r="2.741"/>
		<circle opacity="0.1" enable-background="new    " cx="311" cy="284.701" r="2.741"/>
	</g>
</g>
<ellipse fill="#FFFFFF" cx="230.728" cy="160.67" rx="0.583" ry="2.917"/>
<ellipse transform="matrix(0.5 -0.866 0.866 0.5 -27.8875 277.7786)" fill="#FFFFFF" cx="226.624" cy="163.041" rx="0.583" ry="2.917"/>
<ellipse transform="matrix(-0.5 -0.866 0.866 -0.5 194.6384 447.9342)" fill="#FFFFFF" cx="226.625" cy="167.781" rx="0.583" ry="2.917"/>
<ellipse fill="#FFFFFF" cx="230.729" cy="170.15" rx="0.583" ry="2.917"/>
<ellipse transform="matrix(-0.5 0.866 -0.866 -0.5 497.555 48.3008)" fill="#FFFFFF" cx="234.834" cy="167.78" rx="0.583" ry="2.918"/>
<ellipse transform="matrix(0.5 0.866 -0.866 0.5 258.6086 -121.8526)" fill="#FFFFFF" cx="234.833" cy="163.039" rx="0.583" ry="2.918"/>
<circle fill="#FFFFFF" cx="230.729" cy="165.411" r="0.51"/>
<ellipse fill="#FFFFFF" cx="391.587" cy="160.67" rx="0.583" ry="2.917"/>
<ellipse transform="matrix(0.5 -0.866 0.866 0.5 52.5402 417.0858)" fill="#FFFFFF" cx="387.483" cy="163.041" rx="0.583" ry="2.917"/>
<ellipse transform="matrix(-0.5 -0.866 0.866 -0.5 435.9294 587.2413)" fill="#FFFFFF" cx="387.484" cy="167.781" rx="0.583" ry="2.917"/>
<ellipse fill="#FFFFFF" cx="391.589" cy="170.15" rx="0.583" ry="2.917"/>
<ellipse transform="matrix(-0.5 0.866 -0.866 -0.5 738.8461 -91.0063)" fill="#FFFFFF" cx="395.694" cy="167.78" rx="0.583" ry="2.918"/>
<ellipse transform="matrix(0.5 0.866 -0.866 0.5 339.0363 -261.1597)" fill="#FFFFFF" cx="395.693" cy="163.039" rx="0.583" ry="2.918"/>
<circle fill="#FFFFFF" cx="391.588" cy="165.411" r="0.51"/>
<ellipse fill="#FFFFFF" cx="371.865" cy="176.479" rx="0.321" ry="1.604"/>
<ellipse transform="matrix(0.5006 -0.8657 0.8657 0.5006 30.6907 408.7637)" fill="#FFFFFF" cx="369.608" cy="177.783" rx="0.321" ry="1.604"/>
<ellipse transform="matrix(-0.4994 -0.8664 0.8664 -0.4994 397.9134 590.694)" fill="#FFFFFF" cx="369.608" cy="180.39" rx="0.321" ry="1.604"/>
<ellipse fill="#FFFFFF" cx="371.866" cy="181.693" rx="0.321" ry="1.604"/>
<ellipse transform="matrix(-0.4994 0.8664 -0.8664 -0.4994 717.2481 -53.6482)" fill="#FFFFFF" cx="374.123" cy="180.389" rx="0.321" ry="1.605"/>
<ellipse transform="matrix(0.5009 0.8655 -0.8655 0.5009 340.6024 -235.0745)" fill="#FFFFFF" cx="374.123" cy="177.782" rx="0.321" ry="1.605"/>
<circle fill="#FFFFFF" cx="371.865" cy="179.086" r="0.28"/>
<ellipse fill="#FFFFFF" cx="356.167" cy="179.086" rx="0.321" ry="1.604"/>
<ellipse transform="matrix(0.5006 -0.8657 0.8657 0.5006 20.5934 396.4757)" fill="#FFFFFF" cx="353.91" cy="180.39" rx="0.321" ry="1.604"/>
<ellipse transform="matrix(-0.4994 -0.8664 0.8664 -0.4994 372.1166 581.0024)" fill="#FFFFFF" cx="353.91" cy="182.997" rx="0.321" ry="1.604"/>
<ellipse fill="#FFFFFF" cx="356.167" cy="184.3" rx="0.321" ry="1.604"/>
<ellipse transform="matrix(-0.4994 0.8664 -0.8664 -0.4994 695.9685 -36.1389)" fill="#FFFFFF" cx="358.425" cy="182.996" rx="0.321" ry="1.605"/>
<ellipse transform="matrix(0.5009 0.8655 -0.8655 0.5009 335.0235 -220.1863)" fill="#FFFFFF" cx="358.424" cy="180.389" rx="0.321" ry="1.605"/>
<circle fill="#FFFFFF" cx="356.167" cy="181.693" r="0.28"/>
<ellipse fill="#FFFFFF" cx="336.5" cy="179.086" rx="0.321" ry="1.604"/>
<ellipse transform="matrix(0.5006 -0.8657 0.8657 0.5006 10.7709 379.4499)" fill="#FFFFFF" cx="334.243" cy="180.39" rx="0.321" ry="1.604"/>
<ellipse transform="matrix(-0.4994 -0.8664 0.8664 -0.4994 342.6277 563.9637)" fill="#FFFFFF" cx="334.243" cy="182.997" rx="0.321" ry="1.604"/>
<ellipse fill="#FFFFFF" cx="336.5" cy="184.3" rx="0.321" ry="1.604"/>
<ellipse transform="matrix(-0.4994 0.8664 -0.8664 -0.4994 666.4795 -19.1002)" fill="#FFFFFF" cx="338.758" cy="182.996" rx="0.321" ry="1.605"/>
<ellipse transform="matrix(0.5009 0.8655 -0.8655 0.5009 325.2075 -203.1643)" fill="#FFFFFF" cx="338.757" cy="180.389" rx="0.321" ry="1.605"/>
<ellipse fill="#FFFFFF" cx="317.75" cy="179.086" rx="0.321" ry="1.604"/>
<ellipse transform="matrix(0.5006 -0.8657 0.8657 0.5006 1.4063 363.218)" fill="#FFFFFF" cx="315.493" cy="180.39" rx="0.321" ry="1.604"/>
<ellipse transform="matrix(-0.4994 -0.8664 0.8664 -0.4994 314.5136 547.7194)" fill="#FFFFFF" cx="315.493" cy="182.997" rx="0.321" ry="1.604"/>
<ellipse fill="#FFFFFF" cx="317.75" cy="184.3" rx="0.321" ry="1.604"/>
<ellipse transform="matrix(-0.4994 0.8664 -0.8664 -0.4994 638.3655 -2.8559)" fill="#FFFFFF" cx="320.008" cy="182.996" rx="0.321" ry="1.605"/>
<ellipse transform="matrix(0.5009 0.8655 -0.8655 0.5009 315.8491 -186.9359)" fill="#FFFFFF" cx="320.007" cy="180.389" rx="0.321" ry="1.605"/>
<circle fill="#FFFFFF" cx="336.5" cy="181.693" r="0.28"/>
<circle fill="#FFFFFF" cx="317.75" cy="181.693" r="0.28"/>
<ellipse fill="#FFFFFF" cx="258.835" cy="176.479" rx="0.321" ry="1.604"/>
<ellipse transform="matrix(-0.5006 -0.8657 0.8657 -0.5006 237.8754 492.8019)" fill="#FFFFFF" cx="261.092" cy="177.783" rx="0.321" ry="1.604"/>
<ellipse transform="matrix(0.4994 -0.8664 0.8664 0.4994 -25.5845 316.5002)" fill="#FFFFFF" cx="261.091" cy="180.39" rx="0.321" ry="1.604"/>
<ellipse fill="#FFFFFF" cx="258.834" cy="181.693" rx="0.321" ry="1.604"/>
<ellipse transform="matrix(0.4994 0.8664 -0.8664 0.4994 284.7209 -131.9884)" fill="#FFFFFF" cx="256.577" cy="180.389" rx="0.321" ry="1.605"/>
<ellipse transform="matrix(-0.5009 0.8655 -0.8655 -0.5009 538.9658 44.7596)" fill="#FFFFFF" cx="256.577" cy="177.782" rx="0.321" ry="1.605"/>
<circle fill="#FFFFFF" cx="258.834" cy="179.086" r="0.28"/>
<ellipse fill="#FFFFFF" cx="274.533" cy="179.086" rx="0.321" ry="1.604"/>
<ellipse transform="matrix(-0.5006 -0.8657 0.8657 -0.5006 259.1746 510.3038)" fill="#FFFFFF" cx="276.79" cy="180.39" rx="0.321" ry="1.604"/>
<ellipse transform="matrix(0.4994 -0.8664 0.8664 0.4994 -19.9847 331.4056)" fill="#FFFFFF" cx="276.79" cy="182.997" rx="0.321" ry="1.604"/>
<ellipse fill="#FFFFFF" cx="274.532" cy="184.3" rx="0.321" ry="1.604"/>
<ellipse transform="matrix(0.4994 0.8664 -0.8664 0.4994 294.8378 -144.2838)" fill="#FFFFFF" cx="272.275" cy="182.996" rx="0.321" ry="1.605"/>
<ellipse transform="matrix(-0.5009 0.8655 -0.8655 -0.5009 564.7833 35.0853)" fill="#FFFFFF" cx="272.275" cy="180.389" rx="0.321" ry="1.605"/>
<circle fill="#FFFFFF" cx="274.533" cy="181.693" r="0.28"/>
<ellipse fill="#FFFFFF" cx="294.2" cy="179.086" rx="0.321" ry="1.604"/>
<ellipse transform="matrix(-0.5006 -0.8657 0.8657 -0.5006 288.686 527.3296)" fill="#FFFFFF" cx="296.457" cy="180.39" rx="0.321" ry="1.604"/>
<ellipse transform="matrix(0.4994 -0.8664 0.8664 0.4994 -10.1397 348.4444)" fill="#FFFFFF" cx="296.457" cy="182.997" rx="0.321" ry="1.604"/>
<ellipse fill="#FFFFFF" cx="294.199" cy="184.3" rx="0.321" ry="1.604"/>
<ellipse transform="matrix(0.4994 0.8664 -0.8664 0.4994 304.6828 -161.3225)" fill="#FFFFFF" cx="291.942" cy="182.996" rx="0.321" ry="1.605"/>
<ellipse transform="matrix(-0.5009 0.8655 -0.8655 -0.5009 594.3013 18.0633)" fill="#FFFFFF" cx="291.942" cy="180.389" rx="0.321" ry="1.605"/>
<circle fill="#FFFFFF" cx="294.2" cy="181.693" r="0.28"/>
</svg>
