<?xml version="1.0" encoding="utf-8"?>
<!-- Generator: Adobe Illustrator 16.0.0, SVG Export Plug-In . SVG Version: 6.00 Build 0)  -->
<!DOCTYPE svg PUBLIC "-//W3C//DTD SVG 1.1//EN" "http://www.w3.org/Graphics/SVG/1.1/DTD/svg11.dtd">
<svg version="1.1" id="레이어_1" xmlns="http://www.w3.org/2000/svg" xmlns:xlink="http://www.w3.org/1999/xlink" x="0px"
	 y="0px" width="600px" height="600px" viewBox="0 0 600 600" enable-background="new 0 0 600 600" xml:space="preserve">
<g id="레이어_2_1_" display="none">
	<rect x="196.5" y="45" display="inline" fill="none" stroke="#000000" stroke-miterlimit="10" width="229" height="229"/>
	<rect x="196.5" y="284.241" display="inline" fill="none" stroke="#000000" stroke-miterlimit="10" width="229" height="272.759"/>
	<rect x="440.5" y="45" display="inline" fill="none" stroke="#000000" stroke-miterlimit="10" width="127" height="127"/>
	<rect x="440.5" y="188.833" display="inline" fill="none" stroke="#000000" stroke-miterlimit="10" width="127" height="127"/>
	<rect x="440.5" y="333.5" display="inline" fill="none" stroke="#000000" stroke-miterlimit="10" width="127" height="223.5"/>
</g>
<g id="레이어_1_1_">
	<g id="레이어_2_3_">
		<g>
			<g opacity="0.1">
				<path d="M400.244,146.865c-0.187-4.914-1.171-8.989-3.799-11.678c-1.916-1.959-4.702-3.183-8.688-3.46
					c-4.479-0.311-9.475-0.474-14.424-0.196v-29.272h-16v32.548c-8.499,4.384-18.552,17.785-42.334,17.785
					c-23.781,0-33.835-13.4-42.333-17.784v-32.549h-16v29.273c-4.95-0.278-9.946-0.115-14.426,0.196
					c-3.984,0.277-6.771,1.5-8.686,3.46c-2.628,2.689-3.614,6.764-3.799,11.678c-0.278,7.368-10.534,14.753-10.195,22.124
					c0.168,3.65-0.516,13.934,2.442,16.728c4.197,3.956,17.075,1.345,24.513-1.513L229.5,316.925h171l-17.016-132.719
					c7.438,2.856,20.313,5.467,24.511,1.511c2.957-2.794,2.272-13.078,2.44-16.728C410.777,161.618,400.521,154.233,400.244,146.865
					z"/>
			</g>
			<g>
				<path fill="#B7B4FC" d="M396.244,141.865c-0.187-4.914-1.171-8.989-3.799-11.678c-1.916-1.959-4.702-3.183-8.688-3.46
					c-4.479-0.311-9.475-0.474-14.424-0.196V97.258h-16v32.548c-8.499,4.384-18.552,17.785-42.334,17.785
					c-23.781,0-33.835-13.4-42.333-17.784V97.258h-16v29.273c-4.95-0.278-9.946-0.115-14.426,0.196
					c-3.984,0.277-6.771,1.5-8.686,3.46c-2.628,2.689-3.614,6.764-3.799,11.678c-0.278,7.368-10.534,14.753-10.195,22.124
					c0.168,3.65-0.516,13.934,2.442,16.728c4.197,3.956,17.075,1.345,24.513-1.513L225.5,311.924h171l-17.016-132.719
					c7.438,2.856,20.313,5.467,24.511,1.511c2.957-2.794,2.272-13.078,2.44-16.728C406.777,156.618,396.521,149.233,396.244,141.865
					z"/>
			</g>
		</g>
		<rect x="252.667" y="97.258" fill="#B7B4FC" width="16" height="48"/>
		<path opacity="0.1" enable-background="new    " d="M252.667,124.258v11c0,0,16,1.667,16,4s0-11.333,0-11.333
			S263.889,124.258,252.667,124.258z"/>
		<rect x="353.334" y="97.258" fill="#B7B4FC" width="16" height="48"/>
		<path opacity="0.1" enable-background="new    " d="M369.334,124.258v11c0,0-16,1.667-16,4s0-11.333,0-11.333
			S358.111,124.258,369.334,124.258z"/>
		<polygon fill="#B7B4FC" points="396.501,311.924 225.501,311.924 245.501,155.924 376.501,155.924 		"/>
		<g>
			<g>
				<path opacity="0.1" enable-background="new    " d="M304.477,186.036c0.023,0.016,0.047,0.033,0.07,0.05l0.087-0.457
					L304.477,186.036z"/>
				<path opacity="0.1" enable-background="new    " d="M376.312,130.403c-7.095-0.108-14.648,0.425-20.938,2.521
					c-9.001,3-18.668,18.667-44.375,18.667s-35.375-15.667-44.375-18.667c-5.417-1.806-11.777-2.451-17.97-2.527l-5.653,53.209
					c1.601-0.909,3.032-1.871,4.124-2.683c0.001-0.001,9.75-7.25,17,0s10,7.5,16,7.5s2.875-7.325,12.375-7.325
					c5.874,0,10.864,2.621,13.958,4.758l4.042-23.765l3.334,23.767c3.52-2.162,9.111-4.758,15.665-4.758
					c9.5,0,6.375,7.325,12.375,7.325s8.75-0.25,16-7.5c7.249-7.25,16.999-0.001,17,0c1.396,1.036,3.33,2.318,5.485,3.417
					L376.312,130.403z"/>
			</g>
		</g>
		<g>
			<path fill="#B7B4FC" d="M396.244,141.865c-0.187-4.914-1.171-8.989-3.799-11.678c-1.916-1.959-4.702-3.183-8.688-3.46
				c-8.892-0.617-19.815-0.659-28.383,2.197c-9.001,3-18.668,18.667-44.375,18.667s-35.375-15.667-44.375-18.667
				c-8.566-2.855-19.492-2.814-28.384-2.197c-3.984,0.277-6.771,1.5-8.686,3.46c-2.628,2.689-3.614,6.764-3.799,11.678
				c-0.278,7.368-10.534,14.753-10.195,22.124c0.168,3.65-0.516,13.934,2.442,16.728c5.35,5.043,24.81-0.586,29.122-3.792
				c0.001-0.001,9.75-7.25,17,0s10,7.5,16,7.5S283,177.1,292.5,177.1c6.653,0,9.63,3.586,13.221,5.739l4.779-26.915l5.451,27.102
				c3.74-2.124,6.695-5.927,13.548-5.927c9.5,0,6.375,7.325,12.375,7.325s8.75-0.25,16-7.5c7.249-7.25,16.999-0.001,17,0
				c4.312,3.206,23.772,8.835,29.122,3.792c2.957-2.794,2.272-13.078,2.441-16.728C406.777,156.618,396.521,149.233,396.244,141.865
				z"/>
		</g>
		<circle opacity="0.1" enable-background="new    " cx="311" cy="152.665" r="2.741"/>
		<circle fill="#FFFFFF" cx="311" cy="151.665" r="2.741"/>
		<circle opacity="0.1" enable-background="new    " cx="311" cy="198.424" r="2.741"/>
		<circle fill="#FFFFFF" cx="311" cy="197.424" r="2.741"/>
		<circle opacity="0.1" enable-background="new    " cx="311" cy="227.183" r="2.741"/>
		<circle fill="#FFFFFF" cx="311" cy="226.183" r="2.741"/>
		<circle opacity="0.1" enable-background="new    " cx="311" cy="255.942" r="2.741"/>
		<circle fill="#FFFFFF" cx="311" cy="254.942" r="2.741"/>
		<circle opacity="0.1" enable-background="new    " cx="311" cy="284.701" r="2.741"/>
		<circle fill="#FFFFFF" cx="311" cy="283.701" r="2.741"/>
	</g>
	<path fill="none" stroke="#9E9E9E" stroke-miterlimit="10" d="M286.499,97.258c0,0,13.018,27,25.759,27
		c12.741,0,23.241-27,23.241-27"/>
	<circle fill="#FFFFFF" stroke="#9E9E9E" stroke-miterlimit="10" cx="311.324" cy="127.324" r="3.066"/>
</g>
</svg>
