<?xml version="1.0" encoding="utf-8"?>
<!-- Generator: Adobe Illustrator 16.0.0, SVG Export Plug-In . SVG Version: 6.00 Build 0)  -->
<!DOCTYPE svg PUBLIC "-//W3C//DTD SVG 1.1//EN" "http://www.w3.org/Graphics/SVG/1.1/DTD/svg11.dtd">
<svg version="1.1" id="레이어_1" xmlns="http://www.w3.org/2000/svg" xmlns:xlink="http://www.w3.org/1999/xlink" x="0px"
	 y="0px" width="600px" height="600px" viewBox="0 0 600 600" enable-background="new 0 0 600 600" xml:space="preserve">
<rect x="289.805" y="92.5" opacity="0.1" width="45.75" height="3"/>
<polygon opacity="0.1" points="309.471,100.659 309.701,97.086 312.91,95.5 315.889,97.485 315.658,101.058 312.449,102.645 "/>
<g id="레이어_2_1_" display="none">
	<rect x="196.5" y="45" display="inline" fill="none" stroke="#000000" stroke-miterlimit="10" width="229" height="229"/>
	<rect x="196.5" y="284.241" display="inline" fill="none" stroke="#000000" stroke-miterlimit="10" width="229" height="272.759"/>
	<rect x="440.5" y="45" display="inline" fill="none" stroke="#000000" stroke-miterlimit="10" width="127" height="127"/>
	<rect x="440.5" y="188.833" display="inline" fill="none" stroke="#000000" stroke-miterlimit="10" width="127" height="127"/>
	<rect x="440.5" y="333.5" display="inline" fill="none" stroke="#000000" stroke-miterlimit="10" width="127" height="223.5"/>
</g>
<path opacity="0.1" d="M396.445,135.187c-1.916-1.959-4.702-3.183-8.688-3.46c-4.479-0.311-9.475-0.474-14.424-0.196v-29.272h-16
	v32.548c-8.499,4.384-18.552,17.785-42.334,17.785c-23.781,0-33.835-13.4-42.333-17.784v-32.549h-16v29.273
	c-4.95-0.278-9.946-0.115-14.426,0.196c-3.984,0.277-6.771,1.5-8.686,3.46c-2.628,2.689-3.614,6.764-3.799,11.678
	c-0.278,7.368,9.322,40.197,16.76,37.339L229.5,316.925h171l-17.016-132.719C390.922,187.062,399.073,137.876,396.445,135.187z"/>
<path fill="#CFCFE8" d="M383.757,126.727c-4.479-0.311-9.475-0.474-14.424-0.196V97.258h-16v32.548
	c-8.499,4.384-18.552,17.785-42.334,17.785c-23.781,0-33.835-13.4-42.333-17.784V97.258h-16v29.273
	c-4.95-0.278-9.946-0.115-14.426,0.196c-3.984,0.277-3.163,55.335,4.275,52.477L225.5,311.924h171l-17.016-132.719
	C386.922,182.061,387.743,127.004,383.757,126.727z"/>
<rect x="252.667" y="97.258" fill="#CFCFE8" width="16" height="48"/>
<path opacity="0.1" enable-background="new    " d="M252.667,124.258v11c0,0,16,1.667,16,4s0-11.333,0-11.333
	S263.889,124.258,252.667,124.258z"/>
<rect x="353.334" y="97.258" fill="#CFCFE8" width="16" height="48"/>
<path opacity="0.1" enable-background="new    " d="M369.334,124.258v11c0,0-16,1.667-16,4s0-11.333,0-11.333
	S358.111,124.258,369.334,124.258z"/>
<polygon fill="#CFCFE8" points="396.501,311.924 225.501,311.924 245.501,155.924 376.501,155.924 "/>
<path opacity="0.1" enable-background="new    " d="M304.477,186.036c0.023,0.016,0.047,0.033,0.07,0.05l0.087-0.457
	L304.477,186.036z"/>
<path opacity="0.1" enable-background="new    " d="M377.463,130.403c-7.223-0.109-14.909,0.433-21.312,2.566
	c-9.161,3.054-19,19-45.164,19c-26.165,0-36.005-15.946-45.165-19c-5.513-1.837-11.986-2.494-18.29-2.572l-5.753,54.156
	c1.629-0.925,3.086-1.904,4.197-2.73c0.001-0.001,9.924-7.379,17.303,0c7.379,7.379,10.178,7.633,16.285,7.633
	S282.49,182,292.159,182c5.979,0,11.057,2.667,14.207,4.842l4.113-24.188l3.394,24.19c3.582-2.2,9.273-4.842,15.944-4.842
	c9.669,0,6.488,7.455,12.595,7.455c6.107,0,8.906-0.254,16.285-7.633c7.378-7.379,17.301-0.001,17.302,0
	c1.421,1.054,3.39,2.359,5.583,3.478L377.463,130.403z"/>
<circle opacity="0.1" enable-background="new    " cx="311" cy="152.665" r="2.741"/>
<circle fill="#FFFFFF" cx="311" cy="151.665" r="2.741"/>
<path opacity="0.1" fill="#CFCFE8" enable-background="new    " d="M302.569,193.087c0.029,0.02,0.06,0.041,0.089,0.063l0.11-0.578
	L302.569,193.087z"/>
<path fill="#CFCFE8" enable-background="new    " d="M390.001,118.723c-8.599-0.13-17.751,0.516-25.373,3.055
	c-10.907,3.635-22.622,22.621-53.773,22.621s-42.867-18.985-53.773-22.621c-6.564-2.188-14.271-2.97-21.776-3.062l-6.849,64.478
	c1.939-1.102,3.674-2.268,4.997-3.251c0.001-0.001,11.815-8.785,20.6,0c8.786,8.785,12.118,9.088,19.389,9.088
	c7.271,0,3.484-8.876,14.996-8.876c7.118,0,13.165,3.176,16.914,5.765l4.898-28.798l4.04,28.801
	c4.265-2.62,11.041-5.766,18.983-5.766c11.512,0,7.726,8.876,14.995,8.876c7.271,0,10.604-0.303,19.389-9.088
	c8.784-8.785,20.599-0.001,20.601,0c1.691,1.256,4.035,2.81,6.646,4.141L390.001,118.723z"/>
<rect x="288.805" y="91.5" width="45.75" height="3"/>
<polygon fill="#F4E90B" points="308.471,99.659 308.701,96.086 311.91,94.5 314.889,96.485 314.658,100.058 311.449,101.645 "/>
</svg>
