<?xml version="1.0" encoding="utf-8"?>
<!-- Generator: Adobe Illustrator 16.0.0, SVG Export Plug-In . SVG Version: 6.00 Build 0)  -->
<!DOCTYPE svg PUBLIC "-//W3C//DTD SVG 1.1//EN" "http://www.w3.org/Graphics/SVG/1.1/DTD/svg11.dtd">
<svg version="1.1" xmlns="http://www.w3.org/2000/svg" xmlns:xlink="http://www.w3.org/1999/xlink" x="0px" y="0px" width="600px"
	 height="600px" viewBox="0 0 600 600" enable-background="new 0 0 600 600" xml:space="preserve">
<g id="레이어_3">
</g>
<g id="레이어_1">
	<g id="레이어_2_1_" display="none">
		<rect x="196.5" y="45" display="inline" fill="none" stroke="#000000" stroke-miterlimit="10" width="229" height="229"/>
		
			<rect x="196.5" y="284.241" display="inline" fill="none" stroke="#000000" stroke-miterlimit="10" width="229" height="272.759"/>
		<rect x="440.5" y="45" display="inline" fill="none" stroke="#000000" stroke-miterlimit="10" width="127" height="127"/>
		<rect x="440.5" y="188.833" display="inline" fill="none" stroke="#000000" stroke-miterlimit="10" width="127" height="127"/>
		<rect x="440.5" y="333.5" display="inline" fill="none" stroke="#000000" stroke-miterlimit="10" width="127" height="223.5"/>
	</g>
	<g id="레이어_1_3_">
	</g>
	<g id="레이어_2">
	</g>
</g>
<g id="레이어_2_2_">
	<ellipse fill="#5E5E5E" cx="480.273" cy="225.931" rx="11.859" ry="17.006"/>
	<path fill="#E8E6E2" d="M488.151,272.27c0,0.552-0.447,1-1,1h-14c-0.553,0-1-0.448-1-1v-34.333c0-0.552,0.447-1,1-1h14
		c0.553,0,1,0.448,1,1V272.27z"/>
	<g>
		<path fill="#DDD9D0" d="M496.151,272.271c-0.677-7-1.27-14.641-2.434-21.622c-1.893-11.351,2.322-21.32-0.014-32.517
			c-1.427-6.846-5.485-13.134-13.146-13.433c0,0-19.396-1.29-15.238,34.54c0,0,0.538,17.581-0.501,20.698
			c-1.038,3.117-2.264,39.386,16.184,40.03C492.062,300.354,496.938,280.414,496.151,272.271z M486.328,240.242l-0.97,4.223
			c-0.807,3.955-1.629,8.901-1.629,12.639c0,7.333-3.456,9.5-3.456,9.5s-3.456-2.167-3.456-9.5c0-3.737-0.822-8.684-1.629-12.639
			l-0.901-3.927c-3.17-2.816-5.289-7.834-5.289-13.574c0-8.822,4.988-15.974,11.14-15.974s11.139,7.151,11.139,15.974
			C491.276,232.5,489.312,237.375,486.328,240.242z"/>
		<path fill="#DDD9D0" d="M474.287,240.538l0.901,3.927c-0.299-1.469-0.596-2.798-0.848-3.88
			C474.322,240.569,474.305,240.553,474.287,240.538z"/>
		<path fill="#DDD9D0" d="M485.358,244.464l0.97-4.223c-0.018,0.016-0.035,0.029-0.053,0.045
			C486.01,241.417,485.686,242.859,485.358,244.464z"/>
	</g>
	<circle fill="#848380" cx="488.152" cy="242.478" r="1.042"/>
	<circle fill="#848380" cx="487.238" cy="248.644" r="1.042"/>
	<circle fill="#848380" cx="486.069" cy="254.686" r="1.042"/>
	<circle fill="#848380" cx="485.358" cy="261.27" r="1.042"/>
	<circle fill="#848380" cx="472.235" cy="242.478" r="1.042"/>
	<circle fill="#848380" cx="473.149" cy="248.644" r="1.042"/>
	<circle fill="#848380" cx="474.318" cy="254.686" r="1.042"/>
	<circle fill="#848380" cx="475.029" cy="261.27" r="1.042"/>
	<path fill="none" stroke="#848380" stroke-linecap="round" stroke-linejoin="round" stroke-miterlimit="10" d="M467.886,246.731
		c5.365-0.488,10.464-4.181,11.948-4.878c1.483-0.697-4.796-7.805-10.544-3.983c-5.749,3.821,10.544,4.796,10.544,4.796h0.439
		c0,0,16.293-0.976,10.544-4.796c-5.748-3.822-12.027,3.286-10.544,3.983c1.484,0.697,6.583,4.39,11.948,4.878"/>
	<polyline fill="none" stroke="#848380" stroke-linecap="round" stroke-linejoin="round" stroke-miterlimit="10" points="
		488.152,242.478 473.148,248.644 486.068,254.686 475.029,261.27 485.357,261.27 474.318,254.686 487.238,248.644 472.234,242.478 
		480.273,241.853 	"/>
	<ellipse fill="#5E5E5E" cx="530.597" cy="225.931" rx="11.859" ry="17.006"/>
	<path fill="#E8E6E2" d="M522.719,272.27c0,0.552,0.447,1,1,1h14c0.553,0,1-0.448,1-1v-34.333c0-0.552-0.447-1-1-1h-14
		c-0.553,0-1,0.448-1,1V272.27z"/>
	<g>
		<path fill="#DDD9D0" d="M529.868,299.967c18.447-0.644,17.222-36.914,16.184-40.03c-1.039-3.117-0.501-20.698-0.501-20.698
			c4.158-35.83-15.238-34.54-15.238-34.54c-7.661,0.299-11.72,6.587-13.146,13.433c-2.336,11.197,1.879,21.166-0.014,32.517
			c-1.164,6.981-1.757,14.622-2.434,21.622C513.932,280.414,518.808,300.354,529.868,299.967z M519.594,226.963
			c0-8.822,4.987-15.974,11.139-15.974s11.14,7.151,11.14,15.974c0,5.74-2.119,10.758-5.289,13.574l-0.901,3.927
			c-0.807,3.955-1.629,8.901-1.629,12.639c0,7.333-3.456,9.5-3.456,9.5s-3.456-2.167-3.456-9.5c0-3.737-0.822-8.684-1.629-12.639
			l-0.97-4.223C521.559,237.375,519.594,232.5,519.594,226.963z"/>
		<path fill="#DDD9D0" d="M536.583,240.538l-0.901,3.927c0.299-1.469,0.596-2.798,0.848-3.88
			C536.548,240.569,536.565,240.553,536.583,240.538z"/>
		<path fill="#DDD9D0" d="M525.512,244.464l-0.97-4.223c0.018,0.016,0.035,0.029,0.053,0.045
			C524.86,241.417,525.185,242.859,525.512,244.464z"/>
	</g>
	<circle fill="#848380" cx="522.718" cy="242.478" r="1.042"/>
	<circle fill="#848380" cx="523.632" cy="248.644" r="1.042"/>
	<circle fill="#848380" cx="524.801" cy="254.686" r="1.042"/>
	<circle fill="#848380" cx="525.512" cy="261.27" r="1.042"/>
	<circle fill="#848380" cx="538.635" cy="242.478" r="1.042"/>
	<circle fill="#848380" cx="537.721" cy="248.644" r="1.042"/>
	<circle fill="#848380" cx="536.552" cy="254.686" r="1.042"/>
	<circle fill="#848380" cx="535.841" cy="261.27" r="1.042"/>
	<path fill="none" stroke="#848380" stroke-linecap="round" stroke-linejoin="round" stroke-miterlimit="10" d="M542.984,246.731
		c-5.365-0.488-10.464-4.181-11.948-4.878c-1.483-0.697,4.796-7.805,10.544-3.983c5.749,3.821-10.544,4.796-10.544,4.796h-0.439
		c0,0-16.293-0.976-10.544-4.796c5.748-3.822,12.027,3.286,10.544,3.983c-1.484,0.697-6.583,4.39-11.948,4.878"/>
	<polyline fill="none" stroke="#848380" stroke-linecap="round" stroke-linejoin="round" stroke-miterlimit="10" points="
		522.718,242.478 537.722,248.644 524.802,254.686 535.841,261.27 525.513,261.27 536.552,254.686 523.632,248.644 538.636,242.478 
		530.597,241.853 	"/>
</g>
</svg>
