<?xml version="1.0" encoding="utf-8"?>
<!-- Generator: Adobe Illustrator 16.0.0, SVG Export Plug-In . SVG Version: 6.00 Build 0)  -->
<!DOCTYPE svg PUBLIC "-//W3C//DTD SVG 1.1//EN" "http://www.w3.org/Graphics/SVG/1.1/DTD/svg11.dtd">
<svg version="1.1" id="레이어_1" xmlns="http://www.w3.org/2000/svg" xmlns:xlink="http://www.w3.org/1999/xlink" x="0px"
	 y="0px" width="600px" height="600px" viewBox="0 0 600 600" enable-background="new 0 0 600 600" xml:space="preserve">
<g id="레이어_3">
</g>
<g id="레이어_1_1_">
	<g id="레이어_2_1_" display="none">
		<rect x="196.5" y="45" display="inline" fill="none" stroke="#000000" stroke-miterlimit="10" width="229" height="229"/>
		
			<rect x="196.5" y="284.241" display="inline" fill="none" stroke="#000000" stroke-miterlimit="10" width="229" height="272.759"/>
		<rect x="440.5" y="45" display="inline" fill="none" stroke="#000000" stroke-miterlimit="10" width="127" height="127"/>
		<rect x="440.5" y="188.833" display="inline" fill="none" stroke="#000000" stroke-miterlimit="10" width="127" height="127"/>
		<rect x="440.5" y="333.5" display="inline" fill="none" stroke="#000000" stroke-miterlimit="10" width="127" height="223.5"/>
	</g>
	<g id="레이어_1_3_">
	</g>
	<g id="레이어_2">
	</g>
</g>
<ellipse fill="#5E5E5E" cx="480.273" cy="225.931" rx="11.858" ry="17.006"/>
<path fill="#E8E6E2" d="M488.151,272.27c0,0.552-0.447,1-1,1h-14c-0.554,0-1-0.448-1-1v-34.333c0-0.552,0.446-1,1-1h14
	c0.553,0,1,0.448,1,1V272.27z"/>
<g>
	<g opacity="0.1">
		<path d="M498.151,274.271c-0.678-7-1.271-14.641-2.435-21.622c-1.893-11.351,2.322-21.32-0.014-32.517
			c-1.427-6.846-5.485-13.134-13.146-13.433c0,0-19.396-1.29-15.237,34.54c0,0,0.538,17.581-0.501,20.698
			c-1.038,3.117-2.265,39.386,16.184,40.03C494.062,302.354,498.938,282.414,498.151,274.271z M488.328,242.242l-0.97,4.223
			c-0.808,3.955-1.63,8.901-1.63,12.639c0,7.333-3.455,9.5-3.455,9.5s-3.456-2.167-3.456-9.5c0-3.737-0.822-8.684-1.629-12.639
			l-0.901-3.927c-3.17-2.816-5.289-7.834-5.289-13.574c0-8.822,4.988-15.974,11.14-15.974c6.152,0,11.14,7.151,11.14,15.974
			C493.276,234.5,491.312,239.375,488.328,242.242z"/>
		<path d="M476.287,242.538l0.9,3.927c-0.299-1.469-0.596-2.798-0.848-3.88C476.322,242.569,476.305,242.553,476.287,242.538z"/>
		<path d="M487.358,246.464l0.97-4.223c-0.019,0.016-0.035,0.029-0.053,0.045C488.01,243.417,487.686,244.859,487.358,246.464z"/>
		<path d="M499.131,271.667h-33.865c0.762,12.537,4.579,29.841,17.707,30.3c11.844,0.414,17.062-20.935,16.221-29.654
			C499.172,272.1,499.152,271.881,499.131,271.667z"/>
		<path d="M498.462,272.667h-30.513c0.686,11.296,4.126,26.887,15.954,27.3c10.671,0.373,15.374-18.863,14.613-26.718
			C498.499,273.057,498.481,272.86,498.462,272.667z"/>
		<path d="M497.462,271.667h-30.513c0.686,11.296,4.126,26.887,15.954,27.3c10.671,0.373,15.374-18.863,14.613-26.718
			C497.499,272.057,497.481,271.86,497.462,271.667z"/>
	</g>
	<g>
		<g>
			<path fill="#191919" d="M496.151,272.271c-0.678-7-1.271-14.641-2.435-21.622c-1.893-11.351,2.322-21.32-0.014-32.517
				c-1.427-6.846-5.485-13.134-13.146-13.433c0,0-19.396-1.29-15.237,34.54c0,0,0.538,17.581-0.501,20.698
				c-1.038,3.117-2.265,39.386,16.184,40.03C492.062,300.354,496.938,280.414,496.151,272.271z M486.328,240.242l-0.97,4.223
				c-0.808,3.955-1.63,8.901-1.63,12.639c0,7.333-3.455,9.5-3.455,9.5s-3.456-2.167-3.456-9.5c0-3.737-0.822-8.684-1.629-12.639
				l-0.901-3.927c-3.17-2.816-5.289-7.834-5.289-13.574c0-8.822,4.988-15.974,11.14-15.974c6.152,0,11.14,7.151,11.14,15.974
				C491.276,232.5,489.312,237.375,486.328,240.242z"/>
			<path fill="#191919" d="M474.287,240.538l0.9,3.927c-0.299-1.469-0.596-2.798-0.848-3.88
				C474.322,240.569,474.305,240.553,474.287,240.538z"/>
			<path fill="#191919" d="M485.358,244.464l0.97-4.223c-0.019,0.016-0.035,0.029-0.053,0.045
				C486.01,241.417,485.686,242.859,485.358,244.464z"/>
			<g>
				<path fill="#191919" d="M497.131,269.667h-33.865c0.762,12.537,4.579,29.841,17.707,30.3
					c11.844,0.414,17.062-20.935,16.221-29.654C497.172,270.1,497.152,269.881,497.131,269.667z"/>
				<g>
					<g opacity="0.1">
						<path d="M496.462,270.667h-30.513c0.686,11.296,4.126,26.887,15.954,27.3c10.671,0.373,15.374-18.863,14.613-26.718
							C496.499,271.057,496.481,270.86,496.462,270.667z"/>
					</g>
					<g>
						<path fill="#FFFFFF" d="M495.462,269.667h-30.513c0.686,11.296,4.126,26.887,15.954,27.3
							c10.671,0.373,15.374-18.863,14.613-26.718C495.499,270.057,495.481,269.86,495.462,269.667z"/>
					</g>
				</g>
			</g>
		</g>
	</g>
</g>
<circle fill="#848380" cx="488.152" cy="242.478" r="1.042"/>
<circle fill="#848380" cx="487.238" cy="248.644" r="1.042"/>
<circle fill="#848380" cx="486.069" cy="254.686" r="1.042"/>
<circle fill="#848380" cx="485.358" cy="261.27" r="1.042"/>
<circle fill="#848380" cx="472.235" cy="242.478" r="1.042"/>
<circle fill="#848380" cx="473.149" cy="248.644" r="1.042"/>
<circle fill="#848380" cx="474.318" cy="254.686" r="1.042"/>
<circle fill="#848380" cx="475.029" cy="261.27" r="1.042"/>
<path fill="none" stroke="#FFFFFF" stroke-width="3" stroke-linecap="square" stroke-linejoin="round" stroke-miterlimit="10" d="
	M467.886,246.731c5.365-0.488,10.464-4.181,11.948-4.878c1.483-0.697-4.796-7.805-10.544-3.983
	c-5.749,3.821,10.544,4.796,10.544,4.796h0.439c0,0,16.293-0.976,10.544-4.796c-5.748-3.822-12.027,3.286-10.544,3.983
	s6.583,4.39,11.947,4.878"/>
<polyline fill="none" stroke="#FFFFFF" stroke-width="3" stroke-linecap="square" stroke-linejoin="round" stroke-miterlimit="10" points="
	488.152,242.478 473.148,248.644 486.068,254.686 475.029,261.27 485.357,261.27 474.318,254.686 487.238,248.644 472.234,242.478 
	480.273,241.853 "/>
<ellipse fill="#5E5E5E" cx="532.773" cy="225.931" rx="11.858" ry="17.006"/>
<path fill="#E8E6E2" d="M524.896,272.27c0,0.552,0.446,1,1,1h14c0.553,0,1-0.448,1-1v-34.333c0-0.552-0.447-1-1-1h-14
	c-0.554,0-1,0.448-1,1V272.27z"/>
<g>
	<g opacity="0.1">
		<path d="M534.045,301.967c18.447-0.644,17.222-36.913,16.184-40.03s-0.5-20.698-0.5-20.698c4.157-35.83-15.238-34.54-15.238-34.54
			c-7.661,0.299-11.72,6.587-13.146,13.433c-2.336,11.197,1.879,21.166-0.014,32.517c-1.164,6.981-1.757,14.622-2.434,21.622
			C518.108,282.414,522.984,302.354,534.045,301.967z M523.771,228.963c0-8.822,4.986-15.974,11.139-15.974
			c6.151,0,11.14,7.151,11.14,15.974c0,5.74-2.119,10.758-5.289,13.574l-0.9,3.927c-0.808,3.955-1.63,8.901-1.63,12.639
			c0,7.333-3.455,9.5-3.455,9.5s-3.456-2.167-3.456-9.5c0-3.737-0.822-8.684-1.63-12.639l-0.97-4.223
			C525.735,239.375,523.771,234.5,523.771,228.963z"/>
		<path d="M540.76,242.538l-0.9,3.927c0.299-1.469,0.596-2.798,0.848-3.88C540.725,242.569,540.742,242.553,540.76,242.538z"/>
		<path d="M529.688,246.464l-0.97-4.223c0.019,0.016,0.035,0.029,0.054,0.045C529.037,243.417,529.361,244.859,529.688,246.464z"/>
		<path d="M517.916,271.667h33.865c-0.762,12.537-4.579,29.841-17.707,30.3c-11.844,0.414-17.062-20.935-16.221-29.654
			C517.875,272.1,517.895,271.881,517.916,271.667z"/>
		<path d="M520.585,272.667h30.513c-0.686,11.296-4.126,26.887-15.953,27.3c-10.672,0.373-15.375-18.863-14.614-26.718
			C520.548,273.057,520.565,272.86,520.585,272.667z"/>
		<path d="M519.585,271.667h30.513c-0.686,11.296-4.126,26.887-15.953,27.3c-10.672,0.373-15.375-18.863-14.614-26.718
			C519.548,272.057,519.565,271.86,519.585,271.667z"/>
	</g>
	<g>
		<g>
			<path fill="#191919" d="M532.045,299.967c18.447-0.644,17.222-36.914,16.184-40.03c-1.038-3.117-0.5-20.698-0.5-20.698
				c4.157-35.83-15.238-34.54-15.238-34.54c-7.661,0.299-11.72,6.587-13.146,13.433c-2.336,11.197,1.879,21.166-0.014,32.517
				c-1.164,6.981-1.757,14.622-2.434,21.622C516.108,280.414,520.984,300.354,532.045,299.967z M521.771,226.963
				c0-8.822,4.986-15.974,11.139-15.974c6.151,0,11.14,7.151,11.14,15.974c0,5.74-2.119,10.758-5.289,13.574l-0.9,3.927
				c-0.808,3.955-1.63,8.901-1.63,12.639c0,7.333-3.455,9.5-3.455,9.5s-3.456-2.167-3.456-9.5c0-3.737-0.822-8.684-1.63-12.639
				l-0.97-4.223C523.735,237.375,521.771,232.5,521.771,226.963z"/>
			<path fill="#191919" d="M538.76,240.538l-0.9,3.927c0.299-1.469,0.596-2.798,0.848-3.88
				C538.725,240.569,538.742,240.553,538.76,240.538z"/>
			<path fill="#191919" d="M527.688,244.464l-0.97-4.223c0.019,0.016,0.035,0.029,0.054,0.045
				C527.037,241.417,527.361,242.859,527.688,244.464z"/>
			<g>
				<path fill="#191919" d="M515.916,269.667h33.865c-0.762,12.537-4.579,29.841-17.707,30.3
					c-11.844,0.414-17.062-20.935-16.221-29.654C515.875,270.1,515.895,269.881,515.916,269.667z"/>
				<g>
					<g opacity="0.1">
						<path d="M518.585,270.667h30.513c-0.686,11.296-4.126,26.887-15.953,27.3c-10.672,0.373-15.375-18.863-14.614-26.718
							C518.548,271.057,518.565,270.86,518.585,270.667z"/>
					</g>
					<g>
						<path fill="#FFFFFF" d="M517.585,269.667h30.513c-0.686,11.296-4.126,26.887-15.953,27.3
							c-10.672,0.373-15.375-18.863-14.614-26.718C517.548,270.057,517.565,269.86,517.585,269.667z"/>
					</g>
				</g>
			</g>
		</g>
	</g>
</g>
<circle fill="#848380" cx="524.895" cy="242.478" r="1.042"/>
<circle fill="#848380" cx="525.809" cy="248.644" r="1.042"/>
<circle fill="#848380" cx="526.979" cy="254.686" r="1.042"/>
<circle fill="#848380" cx="527.689" cy="261.27" r="1.042"/>
<circle fill="#848380" cx="540.812" cy="242.478" r="1.042"/>
<circle fill="#848380" cx="539.898" cy="248.644" r="1.042"/>
<circle fill="#848380" cx="538.729" cy="254.686" r="1.042"/>
<circle fill="#848380" cx="538.018" cy="261.27" r="1.042"/>
<path fill="none" stroke="#FFFFFF" stroke-width="3" stroke-linecap="square" stroke-linejoin="round" stroke-miterlimit="10" d="
	M545.161,246.731c-5.365-0.488-10.464-4.181-11.948-4.878c-1.482-0.697,4.796-7.805,10.544-3.983
	c5.749,3.821-10.544,4.796-10.544,4.796h-0.438c0,0-16.294-0.976-10.544-4.796c5.747-3.822,12.026,3.286,10.544,3.983
	c-1.484,0.697-6.583,4.39-11.948,4.878"/>
<polyline fill="none" stroke="#FFFFFF" stroke-width="3" stroke-linecap="square" stroke-linejoin="round" stroke-miterlimit="10" points="
	524.895,242.478 539.898,248.644 526.979,254.686 538.018,261.27 527.689,261.27 538.729,254.686 525.809,248.644 540.812,242.478 
	532.773,241.853 "/>
</svg>
