<?xml version="1.0" encoding="utf-8"?>
<!-- Generator: Adobe Illustrator 16.0.0, SVG Export Plug-In . SVG Version: 6.00 Build 0)  -->
<!DOCTYPE svg PUBLIC "-//W3C//DTD SVG 1.1//EN" "http://www.w3.org/Graphics/SVG/1.1/DTD/svg11.dtd">
<svg version="1.1" id="레이어_1" xmlns="http://www.w3.org/2000/svg" xmlns:xlink="http://www.w3.org/1999/xlink" x="0px"
	 y="0px" width="600px" height="600px" viewBox="0 0 600 600" enable-background="new 0 0 600 600" xml:space="preserve">
<rect fill="#F9EAF2" width="600" height="600"/>
<g id="레이어_3">
</g>
<g id="레이어_1_1_">
	<g id="레이어_2_1_" display="none">
		<rect x="196.5" y="45" display="inline" fill="none" stroke="#000000" stroke-miterlimit="10" width="229" height="229"/>
		
			<rect x="196.5" y="284.241" display="inline" fill="none" stroke="#000000" stroke-miterlimit="10" width="229" height="272.759"/>
		<rect x="440.5" y="45" display="inline" fill="none" stroke="#000000" stroke-miterlimit="10" width="127" height="127"/>
		<rect x="440.5" y="188.833" display="inline" fill="none" stroke="#000000" stroke-miterlimit="10" width="127" height="127"/>
		<rect x="440.5" y="333.5" display="inline" fill="none" stroke="#000000" stroke-miterlimit="10" width="127" height="223.5"/>
	</g>
	<g id="레이어_1_3_">
	</g>
	<g id="레이어_2">
	</g>
</g>
<path fill="#FFB0BA" d="M81.082,429.597c0,7.972-4.965,22.938-11.089,22.938s-11.089-14.968-11.089-22.938
	c0-7.97,11.089-14.431,11.089-14.431S81.082,421.626,81.082,429.597z"/>
<path fill="#FFB0BA" d="M55.672,431.462c6.902,3.985,17.383,15.77,14.321,21.073s-18.507,2.12-25.41-1.865
	s-6.953-16.819-6.953-16.819S48.771,427.477,55.672,431.462z"/>
<path fill="#FFB0BA" d="M44.583,454.4c6.902-3.985,22.348-7.17,25.41-1.865c3.062,5.304-7.418,17.087-14.321,21.072
	c-6.901,3.984-18.042-2.389-18.042-2.389S37.681,458.386,44.583,454.4z"/>
<path fill="#FFB0BA" d="M58.904,475.474c0-7.972,4.965-22.938,11.089-22.938s11.089,14.967,11.089,22.938
	c0,7.972-11.089,14.432-11.089,14.432S58.904,483.444,58.904,475.474z"/>
<path fill="#FFB0BA" d="M84.313,473.607c-6.902-3.985-17.382-15.77-14.32-21.072c3.062-5.305,18.506-2.12,25.409,1.865
	c6.902,3.984,6.954,16.818,6.954,16.818S91.216,477.593,84.313,473.607z"/>
<path fill="#FFB0BA" d="M95.402,450.67c-6.902,3.985-22.347,7.169-25.409,1.865c-3.062-5.305,7.418-17.088,14.32-21.073
	s18.043,2.389,18.043,2.389S102.305,446.685,95.402,450.67z"/>
<path fill="#B2626C" d="M70.676,437.04c0,3.859-0.683,15.495-0.683,15.495s-0.683-11.636-0.683-15.495
	c0-3.858,0.683-6.986,0.683-6.986S70.676,433.182,70.676,437.04z"/>
<path fill="#B2626C" d="M56.917,444.196c3.342,1.93,13.077,8.339,13.077,8.339s-10.418-5.228-13.76-7.154
	c-3.343-1.93-5.711-4.088-5.711-4.088S53.575,442.266,56.917,444.196z"/>
<path fill="#B2626C" d="M56.233,459.689c3.341-1.929,13.76-7.154,13.76-7.154s-9.734,6.409-13.077,8.339
	c-3.342,1.93-6.394,2.902-6.394,2.902S52.89,461.619,56.233,459.689z"/>
<path fill="#B2626C" d="M69.31,468.03c0-3.859,0.683-15.495,0.683-15.495s0.684,11.636,0.684,15.495
	c0,3.857-0.684,6.985-0.684,6.985S69.309,471.889,69.31,468.03z"/>
<path fill="#B2626C" d="M83.069,460.874c-3.342-1.93-13.076-8.339-13.076-8.339s10.418,5.227,13.76,7.154
	c3.343,1.93,5.71,4.087,5.71,4.087S86.412,462.804,83.069,460.874z"/>
<path fill="#B2626C" d="M83.753,445.381c-3.341,1.928-13.76,7.154-13.76,7.154s9.734-6.409,13.076-8.339
	c3.343-1.932,6.394-2.903,6.394-2.903S87.097,443.451,83.753,445.381z"/>
<circle fill="#B2626C" cx="69.993" cy="452.535" r="3.067"/>
<path fill="#FFB0BA" d="M175.815,435.84c-2.003,3.366-7.858,8.438-10.443,6.899c-2.586-1.538-0.923-9.104,1.08-12.471
	c2.002-3.364,8.307-3.308,8.307-3.308S177.816,432.475,175.815,435.84z"/>
<path fill="#FFB0BA" d="M164.618,430.246c1.913,3.416,3.378,11.022,0.754,12.493c-2.625,1.471-8.348-3.752-10.259-7.169
	c-1.914-3.416,1.289-8.849,1.289-8.849S162.705,426.831,164.618,430.246z"/>
<path fill="#FFB0BA" d="M154.175,437.146c3.915,0.05,11.235,2.586,11.196,5.594c-0.04,3.008-7.425,5.352-11.34,5.3
	c-3.913-0.051-7.017-5.539-7.017-5.539S150.26,437.094,154.175,437.146z"/>
<path fill="#FFB0BA" d="M154.927,449.64c2.003-3.365,7.858-8.438,10.444-6.899c2.585,1.538,0.922,9.104-1.081,12.471
	c-2.001,3.364-8.307,3.309-8.307,3.309S152.925,453.004,154.927,449.64z"/>
<path fill="#FFB0BA" d="M166.124,455.233c-1.914-3.416-3.377-11.023-0.752-12.494c2.624-1.471,8.345,3.752,10.258,7.17
	c1.915,3.416-1.289,8.848-1.289,8.848S168.038,458.649,166.124,455.233z"/>
<path fill="#FFB0BA" d="M176.567,448.334c-3.915-0.05-11.235-2.587-11.195-5.595c0.039-3.008,7.424-5.353,11.338-5.3
	c3.914,0.052,7.018,5.54,7.018,5.54S180.482,448.386,176.567,448.334z"/>
<path fill="#B2626C" d="M169.551,436.369c-0.968,1.629-4.179,6.37-4.179,6.37s2.634-5.084,3.604-6.714
	c0.969-1.628,2.043-2.777,2.043-2.777S170.52,434.74,169.551,436.369z"/>
<path fill="#B2626C" d="M161.945,435.935c0.926,1.653,3.426,6.806,3.426,6.806s-3.086-4.823-4.013-6.478
	c-0.927-1.653-1.384-3.159-1.384-3.159S161.019,434.28,161.945,435.935z"/>
<path fill="#B2626C" d="M157.765,442.305c1.895,0.024,7.607,0.436,7.607,0.436s-5.72,0.262-7.616,0.236
	c-1.895-0.024-3.428-0.381-3.428-0.381S155.869,442.279,157.765,442.305z"/>
<path fill="#B2626C" d="M161.19,449.111c0.97-1.631,4.181-6.372,4.181-6.372s-2.634,5.085-3.604,6.715
	c-0.969,1.627-2.044,2.777-2.044,2.777S160.222,450.737,161.19,449.111z"/>
<path fill="#B2626C" d="M168.797,449.545c-0.926-1.653-3.425-6.806-3.425-6.806s3.085,4.824,4.012,6.478
	c0.927,1.654,1.384,3.159,1.384,3.159S169.724,451.199,168.797,449.545z"/>
<path fill="#B2626C" d="M172.978,443.175c-1.895-0.024-7.606-0.436-7.606-0.436s5.719-0.262,7.615-0.236
	c1.895,0.025,3.428,0.381,3.428,0.381S174.873,443.2,172.978,443.175z"/>
<circle fill="#B2626C" cx="165.372" cy="442.74" r="1.507"/>
<path fill="#FFB0BA" d="M108.296,513.032c2.768,2.769,6.243,9.692,4.116,11.819c-2.127,2.129-9.052-1.348-11.82-4.115
	c-2.769-2.77-1.161-8.865-1.161-8.865S105.527,510.264,108.296,513.032z"/>
<path fill="#FFB0BA" d="M100.116,522.507c3.782-1.014,11.517-0.561,12.295,2.347c0.778,2.906-5.692,7.166-9.475,8.178
	c-3.782,1.015-8.258-3.428-8.258-3.428S96.335,523.521,100.116,522.507z"/>
<path fill="#FFB0BA" d="M104.233,534.327c1.013-3.782,5.273-10.254,8.179-9.476c2.906,0.779,3.359,8.514,2.345,12.296
	c-1.013,3.779-7.096,5.438-7.096,5.438S103.219,538.108,104.233,534.327z"/>
<path fill="#FFB0BA" d="M116.527,536.673c-2.769-2.77-6.243-9.692-4.116-11.82c2.127-2.127,9.051,1.348,11.82,4.116
	c2.769,2.77,1.161,8.865,1.161,8.865S119.296,539.441,116.527,536.673z"/>
<path fill="#FFB0BA" d="M124.706,527.198c-3.781,1.014-11.515,0.561-12.294-2.347c-0.779-2.906,5.691-7.164,9.474-8.179
	c3.782-1.014,8.258,3.427,8.258,3.427S128.487,526.184,124.706,527.198z"/>
<path fill="#FFB0BA" d="M120.59,515.378c-1.013,3.782-5.272,10.254-8.178,9.475c-2.906-0.778-3.36-8.514-2.346-12.295
	c1.014-3.78,7.097-5.438,7.097-5.438S121.604,511.596,120.59,515.378z"/>
<path fill="#B2626C" d="M107.265,519.232c1.341,1.341,5.146,5.619,5.146,5.619s-4.28-3.806-5.621-5.146
	c-1.339-1.339-2.189-2.663-2.189-2.663S105.926,517.894,107.265,519.232z"/>
<path fill="#B2626C" d="M104.972,526.497c1.832-0.489,7.44-1.646,7.44-1.646s-5.436,1.805-7.266,2.295
	c-1.831,0.49-3.403,0.562-3.403,0.562S103.141,526.988,104.972,526.497z"/>
<path fill="#B2626C" d="M110.117,532.117c0.49-1.83,2.294-7.266,2.294-7.266s-1.155,5.607-1.645,7.439
	c-0.492,1.831-1.213,3.229-1.213,3.229S109.625,533.948,110.117,532.117z"/>
<path fill="#B2626C" d="M117.557,530.473c-1.34-1.341-5.146-5.619-5.146-5.619s4.28,3.805,5.62,5.146
	c1.34,1.339,2.19,2.664,2.19,2.664S118.896,531.812,117.557,530.473z"/>
<path fill="#B2626C" d="M119.851,523.208c-1.832,0.489-7.439,1.646-7.439,1.646s5.435-1.805,7.265-2.296
	c1.831-0.49,3.404-0.562,3.404-0.562S121.682,522.716,119.851,523.208z"/>
<path fill="#B2626C" d="M114.706,517.587c-0.491,1.83-2.294,7.266-2.294,7.266s1.155-5.606,1.645-7.438
	c0.492-1.831,1.213-3.229,1.213-3.229S115.197,515.756,114.706,517.587z"/>
<circle fill="#B2626C" cx="112.412" cy="524.853" r="1.506"/>
<ellipse transform="matrix(0.707 -0.7072 0.7072 0.707 -289.9975 243.3449)" fill="#FFCE00" cx="148.698" cy="471.674" rx="7.618" ry="1.329"/>
<ellipse transform="matrix(-0.2584 -0.966 0.966 -0.2584 -275.9178 727.587)" fill="#FFCE00" cx="141.31" cy="469.699" rx="7.617" ry="1.33"/>
<ellipse transform="matrix(-0.9659 -0.2589 0.2589 -0.9659 144.2425 969.1762)" fill="#FFCE00" cx="135.944" cy="475.089" rx="7.617" ry="1.331"/>
<path fill="#FFCE00" d="M136.979,481.511c2.973-2.976,5.808-4.965,6.325-4.446c0.52,0.52-1.471,3.354-4.444,6.327
	c-2.978,2.978-5.809,4.966-6.329,4.445C132.012,487.317,134.001,484.486,136.979,481.511z"/>
<ellipse transform="matrix(0.2593 0.9658 -0.9658 0.2593 575.455 218.5271)" fill="#FFCE00" cx="145.259" cy="484.431" rx="7.618" ry="1.33"/>
<ellipse transform="matrix(0.9659 0.2587 -0.2587 0.9659 129.0771 -22.6768)" fill="#FFCE00" cx="150.691" cy="479.044" rx="7.619" ry="1.33"/>
<circle fill="#996807" cx="143.304" cy="477.064" r="1.738"/>
<ellipse transform="matrix(0.707 -0.7072 0.7072 0.707 -317.1719 277.4098)" fill="#FFCE00" cx="176.213" cy="521.492" rx="7.618" ry="1.329"/>
<ellipse transform="matrix(-0.2584 -0.966 0.966 -0.2584 -289.4298 816.8401)" fill="#FFCE00" cx="168.822" cy="519.515" rx="7.617" ry="1.33"/>
<ellipse transform="matrix(-0.9659 -0.2589 0.2589 -0.9659 185.4681 1074.2338)" fill="#FFCE00" cx="163.458" cy="524.906" rx="7.617" ry="1.331"/>
<path fill="#FFCE00" d="M164.494,531.328c2.973-2.977,5.808-4.965,6.325-4.447c0.52,0.521-1.471,3.354-4.444,6.328
	c-2.978,2.977-5.809,4.965-6.329,4.445C159.527,537.135,161.517,534.304,164.494,531.328z"/>
<ellipse transform="matrix(0.2593 0.9658 -0.9658 0.2593 643.9491 228.8545)" fill="#FFCE00" cx="172.773" cy="534.249" rx="7.618" ry="1.33"/>
<ellipse transform="matrix(0.966 0.2587 -0.2587 0.966 142.8647 -28.0979)" fill="#FFCE00" cx="178.209" cy="528.862" rx="7.619" ry="1.33"/>
<circle fill="#996807" cx="170.819" cy="526.881" r="1.738"/>
<ellipse transform="matrix(0.7072 -0.707 0.707 0.7072 -365.2564 203.3135)" fill="#FFCE00" cx="62.847" cy="542.657" rx="5.55" ry="0.969"/>
<ellipse transform="matrix(-0.2585 -0.966 0.966 -0.2585 -450.4928 736.6367)" fill="#FFCE00" cx="57.462" cy="541.21" rx="5.549" ry="0.969"/>
<ellipse transform="matrix(-0.9658 -0.2592 0.2592 -0.9658 -36.0792 1085.506)" fill="#FFCE00" cx="53.532" cy="545.132" rx="5.549" ry="0.969"/>
<path fill="#FFCE00" d="M54.296,549.814c2.166-2.168,4.231-3.617,4.608-3.24c0.379,0.378-1.071,2.441-3.238,4.608
	c-2.169,2.171-4.231,3.617-4.61,3.239C50.679,554.044,52.127,551.981,54.296,549.814z"/>
<path fill="#FFCE00" d="M59.406,552.186c-0.794-2.959-1.018-5.473-0.502-5.61c0.518-0.141,1.58,2.149,2.373,5.107
	c0.793,2.964,1.018,5.476,0.5,5.612C61.262,557.434,60.199,555.146,59.406,552.186z"/>
<ellipse transform="matrix(0.9659 0.259 -0.259 0.9659 144.1234 2.0569)" fill="#FFCE00" cx="64.255" cy="547.999" rx="5.55" ry="0.97"/>
<circle fill="#996807" cx="58.904" cy="546.574" r="1.266"/>
<ellipse transform="matrix(0.7072 -0.707 0.707 0.7072 -235.557 209.2252)" fill="#FFCE00" cx="134.834" cy="389.018" rx="5.55" ry="0.969"/>
<ellipse transform="matrix(-0.2585 -0.966 0.966 -0.2585 -211.4887 612.8156)" fill="#FFCE00" cx="129.454" cy="387.577" rx="5.549" ry="0.969"/>
<ellipse transform="matrix(-0.9658 -0.2592 0.2592 -0.9658 145.2697 802.1584)" fill="#FFCE00" cx="125.524" cy="391.501" rx="5.549" ry="0.969"/>
<path fill="#FFCE00" d="M126.287,396.18c2.166-2.168,4.231-3.617,4.608-3.24c0.379,0.379-1.071,2.442-3.238,4.609
	c-2.169,2.17-4.231,3.617-4.61,3.239C122.669,400.409,124.118,398.347,126.287,396.18z"/>
<path fill="#FFCE00" d="M131.397,398.551c-0.794-2.959-1.018-5.473-0.502-5.611c0.518-0.14,1.58,2.15,2.373,5.108
	c0.793,2.964,1.018,5.476,0.5,5.612C133.252,403.799,132.19,401.513,131.397,398.551z"/>
<ellipse transform="matrix(0.9659 0.259 -0.259 0.9659 106.7898 -21.8309)" fill="#FFCE00" cx="136.247" cy="394.368" rx="5.55" ry="0.97"/>
<circle fill="#996807" cx="130.895" cy="392.939" r="1.266"/>
</svg>
