<?xml version="1.0" encoding="utf-8"?>
<!-- Generator: Adobe Illustrator 16.0.0, SVG Export Plug-In . SVG Version: 6.00 Build 0)  -->
<!DOCTYPE svg PUBLIC "-//W3C//DTD SVG 1.1//EN" "http://www.w3.org/Graphics/SVG/1.1/DTD/svg11.dtd">
<svg version="1.1" id="레이어_1" xmlns="http://www.w3.org/2000/svg" xmlns:xlink="http://www.w3.org/1999/xlink" x="0px"
	 y="0px" width="600px" height="600px" viewBox="0 0 600 600" enable-background="new 0 0 600 600" xml:space="preserve">
<rect x="0" y="0" fill="#D7FFFE" width="600" height="600"/>
<g id="레이어_3">
</g>
<g id="레이어_1_1_">
	<g id="레이어_2_1_" display="none">
		<rect x="-201.5" y="-453" display="inline" fill="none" stroke="#000000" stroke-miterlimit="10" width="229" height="229"/>
		
			<rect x="-201.5" y="-213.759" display="inline" fill="none" stroke="#000000" stroke-miterlimit="10" width="229" height="272.759"/>
		<rect x="42.5" y="-453" display="inline" fill="none" stroke="#000000" stroke-miterlimit="10" width="127" height="127"/>
		<rect x="42.5" y="-309.167" display="inline" fill="none" stroke="#000000" stroke-miterlimit="10" width="127" height="127"/>
		<rect x="42.5" y="-164.5" display="inline" fill="none" stroke="#000000" stroke-miterlimit="10" width="127" height="223.5"/>
	</g>
	<g id="레이어_1_3_">
	</g>
	<g id="레이어_2">
	</g>
</g>
<path fill="#89572E" d="M89.742,469.217c0,0,32.761,74.494,20.702,92.583h13.602C124.046,561.8,116.188,509.459,89.742,469.217z"/>
<g>
	<path fill="#248E79" d="M37.102,462.192l6.824,5.943l8.32-5.943l7.322,5.943l5.826-8.279l12.646,6.846l4.161-6.846l7.543,5.955
		c-7.326-12.725-20.037-15.521-33.668-15.521c-13.417,0-24.636,2.532-31.991,14.921l7.528,2.922L37.102,462.192z"/>
</g>
<g>
	<path fill="#248E79" d="M48.491,504.224l9.027-0.623l1.681-10.085l9.381-0.976l-1.736-9.972l13.784-4.104l-1.898-7.78l9.543-1.122
		c-14.178-3.816-25.144,3.195-34.783,12.834c-9.487,9.486-15.626,19.212-12.069,33.171l7.389-3.257L48.491,504.224z"/>
</g>
<g>
	<path fill="#248E79" d="M85.035,504.131l3.486-4.002l-3.486-4.882l3.486-4.295l-4.856-3.416l4.015-7.422l-4.015-2.439l3.495-4.425
		c-7.464,4.297-9.105,11.753-9.105,19.749c0,7.869,1.487,14.451,8.753,18.765l1.714-4.415L85.035,504.131z"/>
</g>
<g>
	<path fill="#248E79" d="M115.09,417.061l1.89,8.849l-9.233,4.396l1.647,9.287l-10.064,1.077l-0.149,14.381l-8.001,0.32l1.551,9.483
		c-7.578-12.577-3.857-25.05,2.752-36.972c6.506-11.734,14.162-20.317,28.562-20.743l-1.095,8.001L115.09,417.061z"/>
</g>
<g>
	<path fill="#248E79" d="M146.325,447.403l-4.921,7.594l-9.636-3.42l-5.402,7.729l-7.878-6.353l-10.273,10.063l-5.883-5.433
		l-5.61,7.803c3.534-14.251,14.985-20.441,28.088-24.197c12.896-3.696,24.379-4.352,34.863,5.529l-6.432,4.884L146.325,447.403z"/>
</g>
<g>
	<path fill="#248E79" d="M128.524,479.318l-5.191,1.107l-2.578-5.415l-5.448,0.966l-0.633-5.902l-8.436-0.088l-0.187-4.694
		l-5.563,0.91c7.378-4.443,14.695-2.262,21.689,1.615c6.882,3.816,11.917,8.308,12.167,16.755l-4.693-0.642L128.524,479.318z"/>
</g>
<rect x="203.5" y="97.258" fill="none" stroke="#000000" stroke-miterlimit="10" width="219.667" height="219.667"/>
<rect x="203.5" y="340.258" fill="none" stroke="#000000" stroke-miterlimit="10" width="219.667" height="219.667"/>
<rect x="442.436" y="41.157" fill="none" stroke="#000000" stroke-miterlimit="10" width="126" height="101.433"/>
<rect x="441.099" y="189.333" fill="none" stroke="#000000" stroke-miterlimit="10" width="126" height="126"/>
<rect x="441.099" y="142.59" fill="none" stroke="#000000" stroke-miterlimit="10" width="126" height="46.743"/>
<rect x="442.436" y="336.529" fill="none" stroke="#000000" stroke-miterlimit="10" width="126" height="223.396"/>
<circle fill="#FFB839" cx="162.104" cy="396.602" r="11.223"/>
<polygon fill="#FFB839" points="169.689,383.019 177.882,380.823 175.687,389.016 "/>
<polygon fill="#FFB839" points="154.133,383.24 156.327,375.048 162.325,381.046 "/>
<polygon fill="#FFB839" points="146.546,396.825 140.549,390.827 148.742,388.632 "/>
<polygon fill="#FFB839" points="154.517,410.186 146.325,412.38 148.521,404.188 "/>
<polygon fill="#FFB839" points="170.074,409.964 167.878,418.156 161.881,412.158 "/>
<polygon fill="#FFB839" points="177.66,396.38 183.657,402.378 175.463,404.573 "/>
</svg>
