<?xml version="1.0" encoding="utf-8"?>
<!-- Generator: Adobe Illustrator 16.0.0, SVG Export Plug-In . SVG Version: 6.00 Build 0)  -->
<!DOCTYPE svg PUBLIC "-//W3C//DTD SVG 1.1//EN" "http://www.w3.org/Graphics/SVG/1.1/DTD/svg11.dtd">
<svg version="1.1" id="레이어_1" xmlns="http://www.w3.org/2000/svg" xmlns:xlink="http://www.w3.org/1999/xlink" x="0px"
	 y="0px" width="600px" height="600px" viewBox="0 0 600 600" enable-background="new 0 0 600 600" xml:space="preserve">
<g id="레이어_2" display="none">
	<rect x="196.5" y="45" display="inline" fill="none" stroke="#000000" stroke-miterlimit="10" width="229" height="229"/>
	<rect x="196.5" y="284.241" display="inline" fill="none" stroke="#000000" stroke-miterlimit="10" width="229" height="272.759"/>
	<rect x="440.5" y="45" display="inline" fill="none" stroke="#000000" stroke-miterlimit="10" width="127" height="127"/>
	<rect x="440.5" y="188.833" display="inline" fill="none" stroke="#000000" stroke-miterlimit="10" width="127" height="127"/>
	<rect x="440.5" y="333.5" display="inline" fill="none" stroke="#000000" stroke-miterlimit="10" width="127" height="223.5"/>
</g>
<g id="레이어_1_5_">
	<g>
		<g opacity="0.1">
			<path fill="none" stroke="#000000" stroke-miterlimit="10" d="M514.771,123.067c0,0-2.711-4.91-5.772-4.91
				c-3.063,0-4.9,4.91-4.9,4.91"/>
		</g>
		<g>
			<path fill="none" stroke="#000000" stroke-miterlimit="10" d="M510.771,119.067c0,0-2.711-4.91-5.772-4.91
				c-3.063,0-4.9,4.91-4.9,4.91"/>
		</g>
	</g>
	<g>
		<g opacity="0.1">
			<path d="M487.768,103.974h-17.601v17.601c0,9.721,7.88,17.601,17.601,17.601c9.722,0,17.602-7.88,17.602-17.601
				C505.368,111.854,497.488,103.974,487.768,103.974z"/>
			<path d="M531.101,103.974c-9.721,0-17.601,7.88-17.601,17.601c0,9.721,7.88,17.601,17.601,17.601
				c9.722,0,17.602-7.88,17.602-17.601v-17.601H531.101z"/>
		</g>
		<g>
			<g>
				<path d="M483.768,99.974h-17.601v17.601c0,9.721,7.88,17.601,17.601,17.601c9.722,0,17.602-7.88,17.602-17.601
					C501.368,107.854,493.488,99.974,483.768,99.974z"/>
				<path d="M527.101,99.974c-9.721,0-17.601,7.88-17.601,17.601c0,9.721,7.88,17.601,17.601,17.601
					c9.722,0,17.602-7.88,17.602-17.601V99.974H527.101z"/>
			</g>
		</g>
	</g>
	<g>
		<g opacity="0.1">
			<circle cx="487.768" cy="121.574" r="13.934"/>
		</g>
		<g>
			<circle fill="#0084A8" cx="483.768" cy="117.574" r="13.934"/>
		</g>
	</g>
	<g>
		<g opacity="0.1">
			<circle cx="531.101" cy="121.574" r="14.101"/>
		</g>
		<g>
			<circle fill="#0084A8" cx="527.101" cy="117.574" r="14.101"/>
		</g>
	</g>
</g>
</svg>
