<?xml version="1.0" encoding="utf-8"?>
<!-- Generator: Adobe Illustrator 16.0.0, SVG Export Plug-In . SVG Version: 6.00 Build 0)  -->
<!DOCTYPE svg PUBLIC "-//W3C//DTD SVG 1.1//EN" "http://www.w3.org/Graphics/SVG/1.1/DTD/svg11.dtd">
<svg version="1.1" id="레이어_1" xmlns="http://www.w3.org/2000/svg" xmlns:xlink="http://www.w3.org/1999/xlink" x="0px"
	 y="0px" width="600px" height="600px" viewBox="0 0 600 600" enable-background="new 0 0 600 600" xml:space="preserve">
<g id="레이어_3">
</g>
<g id="레이어_1_1_">
	<g id="레이어_2_1_" display="none">
		<rect x="196.5" y="45" display="inline" fill="none" stroke="#000000" stroke-miterlimit="10" width="229" height="229"/>
		
			<rect x="196.5" y="284.241" display="inline" fill="none" stroke="#000000" stroke-miterlimit="10" width="229" height="272.759"/>
		<rect x="440.5" y="45" display="inline" fill="none" stroke="#000000" stroke-miterlimit="10" width="127" height="127"/>
		<rect x="440.5" y="188.833" display="inline" fill="none" stroke="#000000" stroke-miterlimit="10" width="127" height="127"/>
		<rect x="440.5" y="333.5" display="inline" fill="none" stroke="#000000" stroke-miterlimit="10" width="127" height="223.5"/>
	</g>
	<g id="레이어_1_3_">
	</g>
	<g id="레이어_2">
	</g>
</g>
<g>
	<g opacity="0.1">
		<path d="M421.652,184l-29.536-50.631l-42.541-18.314c-0.911,18.426-16.775,33.106-36.249,33.199
			c-19.474-0.092-35.338-14.772-36.25-33.199l-42.541,18.314L205,184l45.214,45.973c-0.413,34.051-1.813,70.519-5.274,75.08
			c0,0,37.228,15.212,67.714,14.277v0.024c0.224-0.011,0.448-0.018,0.672-0.027c0.224,0.01,0.448,0.017,0.672,0.027v-0.024
			c30.486,0.935,67.714-14.277,67.714-14.277c-3.448-4.545-4.851-40.77-5.27-74.716L421.652,184z M249.84,170.157
			c0.16,2.453,0.307,8.218,0.403,16.042l-5.912-5.912L249.84,170.157z M376.405,186.572c0.096-8.016,0.245-13.923,0.407-16.415
			l5.639,10.369L376.405,186.572z"/>
	</g>
	<g>
		<g>
			<path fill="#FFE1E1" d="M418.652,181l-29.536-50.631l-42.541-18.314c-0.911,18.426-16.775,33.106-36.249,33.199
				c-19.474-0.092-35.338-14.772-36.25-33.199l-42.541,18.314L202,181l45.214,45.973c-0.413,34.051-1.813,70.519-5.274,75.08
				c0,0,37.228,15.212,67.714,14.277v0.024c0.224-0.011,0.448-0.018,0.672-0.027c0.224,0.01,0.448,0.017,0.672,0.027v-0.024
				c30.486,0.935,67.714-14.277,67.714-14.277c-3.448-4.545-4.851-40.77-5.27-74.716L418.652,181z M246.84,167.157
				c0.16,2.453,0.307,8.218,0.403,16.042l-5.912-5.912L246.84,167.157z M373.405,183.572c0.096-8.016,0.245-13.923,0.407-16.415
				l5.639,10.369L373.405,183.572z"/>
		</g>
	</g>
</g>
<path fill="#F4DCDC" stroke="#FFE1E1" stroke-miterlimit="10" d="M297.079,151.469l-8.105,3.913l3.913,8.105l7.323,15.167
	c2.161,4.476,7.542,6.353,12.019,4.191l8.104-3.913l-3.913-8.105l-7.323-15.167C306.936,151.184,301.555,149.308,297.079,151.469z"
	/>
<path fill="#F4DCDC" stroke="#FFE1E1" stroke-miterlimit="10" d="M327.908,151.469l8.104,3.913l-3.913,8.105l-7.323,15.167
	c-2.161,4.476-7.542,6.353-12.019,4.191l-8.104-3.913l3.913-8.105l7.323-15.167C318.051,151.184,323.432,149.308,327.908,151.469z"
	/>
<path fill="#F4DCDC" stroke="#FFE1E1" stroke-miterlimit="10" d="M297.079,168.891l-8.105,3.913l3.913,8.105l7.323,15.167
	c2.161,4.476,7.542,6.353,12.019,4.191l8.104-3.913l-3.913-8.105l-7.323-15.167C306.936,168.606,301.555,166.729,297.079,168.891z"
	/>
<path fill="#F4DCDC" stroke="#FFE1E1" stroke-miterlimit="10" d="M327.908,168.891l8.104,3.913l-3.913,8.105l-7.323,15.167
	c-2.161,4.476-7.542,6.353-12.019,4.191l-8.104-3.913l3.913-8.105l7.323-15.167C318.051,168.606,323.432,166.729,327.908,168.891z"
	/>
<path fill="#F4DCDC" stroke="#FFE1E1" stroke-miterlimit="10" d="M297.079,186.312l-8.105,3.913l3.913,8.105l7.323,15.167
	c2.161,4.476,7.542,6.353,12.019,4.191l8.104-3.913l-3.913-8.105l-7.323-15.167C306.936,186.028,301.555,184.151,297.079,186.312z"
	/>
<path fill="#F4DCDC" stroke="#FFE1E1" stroke-miterlimit="10" d="M327.908,186.312l8.104,3.913l-3.913,8.105l-7.323,15.167
	c-2.161,4.476-7.542,6.353-12.019,4.191l-8.104-3.913l3.913-8.105l7.323-15.167C318.051,186.028,323.432,184.151,327.908,186.312z"
	/>
<path fill="#F4DCDC" stroke="#FFE1E1" stroke-miterlimit="10" d="M297.079,203.734l-8.105,3.913l3.913,8.105l7.323,15.167
	c2.161,4.476,7.542,6.353,12.019,4.191l8.104-3.913l-3.913-8.105l-7.323-15.167C306.936,203.45,301.555,201.573,297.079,203.734z"/>
<path fill="#F4DCDC" stroke="#FFE1E1" stroke-miterlimit="10" d="M327.908,203.734l8.104,3.913l-3.913,8.105l-7.323,15.167
	c-2.161,4.476-7.542,6.353-12.019,4.191l-8.104-3.913l3.913-8.105l7.323-15.167C318.051,203.45,323.432,201.573,327.908,203.734z"/>
<path fill="#F4DCDC" stroke="#FFE1E1" stroke-miterlimit="10" d="M297.079,221.156l-8.105,3.913l3.913,8.105l7.323,15.167
	c2.161,4.476,7.542,6.353,12.019,4.191l8.104-3.913l-3.913-8.105l-7.323-15.167C306.936,220.872,301.555,218.995,297.079,221.156z"
	/>
<path fill="#F4DCDC" stroke="#FFE1E1" stroke-miterlimit="10" d="M327.908,221.156l8.104,3.913l-3.913,8.105l-7.323,15.167
	c-2.161,4.476-7.542,6.353-12.019,4.191l-8.104-3.913l3.913-8.105l7.323-15.167C318.051,220.872,323.432,218.995,327.908,221.156z"
	/>
<path fill="#F4DCDC" stroke="#FFE1E1" stroke-miterlimit="10" d="M297.079,238.578l-8.105,3.913l3.913,8.105l7.323,15.167
	c2.161,4.477,7.542,6.353,12.019,4.191l8.104-3.913l-3.913-8.105l-7.323-15.167C306.936,238.293,301.555,236.417,297.079,238.578z"
	/>
<path fill="#F4DCDC" stroke="#FFE1E1" stroke-miterlimit="10" d="M327.908,238.578l8.104,3.913l-3.913,8.105l-7.323,15.167
	c-2.161,4.477-7.542,6.353-12.019,4.191l-8.104-3.913l3.913-8.105l7.323-15.167C318.051,238.293,323.432,236.417,327.908,238.578z"
	/>
<path fill="#F4DCDC" stroke="#FFE1E1" stroke-miterlimit="10" d="M297.079,256l-8.105,3.913l3.913,8.104l7.323,15.168
	c2.161,4.477,7.542,6.353,12.019,4.191l8.104-3.913l-3.913-8.104l-7.323-15.168C306.936,255.715,301.555,253.839,297.079,256z"/>
<path fill="#F4DCDC" stroke="#FFE1E1" stroke-miterlimit="10" d="M327.908,256l8.104,3.913l-3.913,8.104l-7.323,15.168
	c-2.161,4.477-7.542,6.353-12.019,4.191l-8.104-3.913l3.913-8.104l7.323-15.168C318.051,255.715,323.432,253.839,327.908,256z"/>
<path fill="#F4DCDC" stroke="#FFE1E1" stroke-miterlimit="10" d="M297.079,273.422l-8.105,3.913l3.913,8.104l7.323,15.168
	c2.161,4.477,7.542,6.353,12.019,4.191l8.104-3.913l-3.913-8.104l-7.323-15.168C306.936,273.137,301.555,271.261,297.079,273.422z"
	/>
<path fill="#F4DCDC" stroke="#FFE1E1" stroke-miterlimit="10" d="M327.908,273.422l8.104,3.913l-3.913,8.104l-7.323,15.168
	c-2.161,4.477-7.542,6.353-12.019,4.191l-8.104-3.913l3.913-8.104l7.323-15.168C318.051,273.137,323.432,271.261,327.908,273.422z"
	/>
<polygon opacity="0.1" points="310.246,242.042 247.554,179 247.554,230.5 285.5,268.5 310.246,246.036 334.993,268.5 
	372.938,230.5 372.938,179 "/>
<rect x="245.488" y="167.773" transform="matrix(0.7071 -0.7071 0.7071 0.7071 -78.4298 248.6889)" fill="#FFE1E1" width="30.972" height="102.487"/>
<rect x="278.591" y="247.689" transform="matrix(0.7071 -0.7071 0.7071 0.7071 -92.1412 281.7917)" fill="#F4DCDC" width="30.972" height="8.86"/>
<rect x="344.192" y="167.772" transform="matrix(-0.7071 -0.7071 0.7071 -0.7071 459.1368 628.2159)" fill="#FFE1E1" width="30.972" height="102.487"/>
<g>
	<path fill="#F4DCDC" d="M341.602,110.625c-0.422,16.257-14.254,29.313-31.267,29.313c-17.281,0-31.289-13.465-31.289-30.075
		c0-0.01,0.001-0.02,0.001-0.03l-7.812,3.411c1.78,19.259,18.6,34.361,39.1,34.361c20.422,0,37.197-14.99,39.081-34.148
		L341.602,110.625z"/>
</g>
<rect x="311.09" y="247.689" transform="matrix(-0.7071 -0.7071 0.7071 -0.7071 379.2203 661.3175)" fill="#F4DCDC" width="30.972" height="8.86"/>
</svg>
