<?xml version="1.0" encoding="utf-8"?>
<!-- Generator: Adobe Illustrator 16.0.0, SVG Export Plug-In . SVG Version: 6.00 Build 0)  -->
<!DOCTYPE svg PUBLIC "-//W3C//DTD SVG 1.1//EN" "http://www.w3.org/Graphics/SVG/1.1/DTD/svg11.dtd">
<svg version="1.1" id="레이어_1" xmlns="http://www.w3.org/2000/svg" xmlns:xlink="http://www.w3.org/1999/xlink" x="0px"
	 y="0px" width="459.334px" height="36px" viewBox="0 0 459.334 36" enable-background="new 0 0 459.334 36" xml:space="preserve">
<g>
	<path fill="#383838" d="M6.677,4.18l5.221,13.359L17.119,4.18l5.221,13.359L27.542,4.18h6.117l-11.32,28.863l-5.273-14.045
		l-5.168,14.045L0.578,4.18H6.677z"/>
	<path fill="#383838" d="M52.767,4.18v5.66h-11.32v5.678h8.49v5.66h-8.49v5.66h11.32v5.678h-11.32h-5.677V4.18H52.767z"/>
	<path fill="#383838" d="M62.646,28.367L60.8,32.445h-0.984h-0.229h-3.691h-1.213l12.85-28.793l12.885,28.793h-1.213h-3.691h-0.246
		h-0.984l-1.828-4.096l-0.088-0.193h-9.65L62.646,28.367z M70.046,23.146l-2.496-5.889l-2.514,5.889H70.046z"/>
	<path fill="#383838" d="M82.526,4.145h9.211c2.725,0,5.414,0.949,7.365,2.9s2.742,3.779,2.742,6.504v0.879
		c0,2.109-0.598,3.656-1.793,5.344s-2.197,2.18-4.061,2.883l6.398,9.861h-6.926l-7.242-11.074v11.074h-5.678L82.526,4.145z"/>
	<path fill="#383838" d="M120.97,4.18l5.221,13.359l5.221-13.359l5.221,13.359l5.203-13.359h6.117l-11.32,28.863l-5.273-14.045
		l-5.168,14.045L114.87,4.18H120.97z"/>
	<path fill="#383838" d="M167.06,4.18v5.66h-11.32v5.678h8.49v5.66h-8.49v5.66h11.32v5.678h-11.32h-5.678V4.18H167.06z"/>
	<path fill="#383838" d="M176.938,28.367l-1.846,4.078h-0.984h-0.229h-3.691h-1.213l12.85-28.793l12.885,28.793h-1.213h-3.691
		h-0.246h-0.984l-1.828-4.096l-0.088-0.193h-9.65L176.938,28.367z M184.339,23.146l-2.496-5.889l-2.514,5.889H184.339z"/>
	<path fill="#383838" d="M209.247,4.18h7.084v5.66h-7.084v22.676h-5.678V9.84h-7.084V4.18h7.084H209.247z"/>
	<path fill="#383838" d="M224.47,4.18v11.338h8.49V4.18h5.678v28.336h-5.678V21.178h-8.49v11.338h-5.678V4.18H224.47z"/>
	<path fill="#383838" d="M258.448,4.18v5.66h-11.32v5.678h8.49v5.66h-8.49v5.66h11.32v5.678h-11.32h-5.678V4.18H258.448z"/>
	<path fill="#383838" d="M261.067,4.145h9.211c2.725,0,5.414,0.949,7.365,2.9s2.742,3.779,2.742,6.504v0.879
		c0,2.109-0.598,3.656-1.793,5.344s-2.197,2.18-4.061,2.883l6.398,9.861h-6.926l-7.242-11.074v11.074h-5.678L261.067,4.145z"/>
	<path fill="#383838" d="M306.524,4.18h7.084v5.66h-7.084v22.676h-5.678V9.84h-7.084V4.18h7.084H306.524z"/>
	<path fill="#383838" d="M339.8,8.258c2.812,2.812,4.219,6.188,4.219,10.125s-1.406,7.312-4.219,10.107s-6.188,4.201-10.125,4.201
		s-7.312-1.406-10.107-4.201s-4.201-6.17-4.201-10.107s1.406-7.312,4.201-10.125s6.17-4.219,10.107-4.219S336.987,5.445,339.8,8.258
		z"/>
	<path fill="#383838" d="M353.071,4.232c3.885,0,7.559,1.389,10.336,4.166c5.062,5.062,5.062,14.924,0,19.969
		c-2.777,2.76-6.451,4.148-10.336,4.148h-6.996V4.25h6.996V4.232z M353.106,26.838c2.32,0,4.465-0.65,6.117-2.303
		s2.303-3.832,2.303-6.17c0-2.32-0.65-4.5-2.32-6.17c-1.652-1.67-3.832-2.32-6.152-2.32h-1.301v16.963h1.336H353.106z"/>
	<path fill="#383838" d="M374.112,28.367l-1.846,4.078h-0.984h-0.229h-3.691h-1.213l12.85-28.793l12.885,28.793h-1.213h-3.691
		h-0.246h-0.984l-1.828-4.096l-0.088-0.193h-9.65L374.112,28.367z M381.513,23.146l-2.496-5.889l-2.514,5.889H381.513z"/>
	<path fill="#383838" d="M394.468,4.18l4.887,8.982l4.887-8.982h6.451l-8.508,15.627v12.709h-5.66V19.807l-8.49-15.627H394.468z"/>
</g>
<g>
	<g>
		<path fill="#383838" d="M449,34.166h-24V19.123l-1.553,1.957l-7.481-7.737l10.929-10.177h7.686l0.081,1.413
			c0.087,1.498,1.421,2.763,2.912,2.763s2.824-1.265,2.911-2.763l0.081-1.413h7.449l10.78,10.211l-7.275,7.179L449,18.237V34.166z
			 M428,31.166h18V11.399l5.447,5.013l3.031-2.991l-7.659-7.255h-3.603c-0.767,2.4-3.053,4.176-5.644,4.176
			s-4.878-1.776-5.645-4.176h-3.854l-7.827,7.289l2.978,3.079L428,10.514V31.166z"/>
	</g>
</g>
<g>
	<path fill="#FFFFFF" d="M334.771,14.744c0.094-0.243,0.146-0.505,0.146-0.779c0-1.208-0.978-2.188-2.185-2.188
		c-0.391,0-0.756,0.104-1.074,0.283c-0.511-1.211-1.711-2.061-3.108-2.061c-1.862,0-3.373,1.51-3.373,3.372
		c0,0.466,0.095,0.91,0.266,1.315h-0.315c-1.315,0-2.382,1.067-2.382,2.382s1.066,2.382,2.382,2.382h9.132
		c1.316,0,2.382-1.067,2.382-2.382C336.641,15.93,335.84,14.978,334.771,14.744z"/>
</g>
<g>
	<path fill="#FFFFFF" d="M323.554,26.208c-0.161,0-0.323-0.062-0.446-0.185c-0.247-0.247-0.247-0.646,0-0.893l3.984-3.985
		c0.247-0.247,0.646-0.247,0.894,0c0.246,0.247,0.246,0.647,0,0.894L324,26.023C323.876,26.146,323.716,26.208,323.554,26.208z"/>
</g>
<g>
	<path fill="#FFFFFF" d="M327.325,26.208c-0.162,0-0.322-0.062-0.445-0.185c-0.247-0.247-0.247-0.646,0-0.893l3.984-3.985
		c0.247-0.247,0.646-0.247,0.894,0c0.246,0.247,0.246,0.647,0,0.894l-3.985,3.984C327.648,26.146,327.487,26.208,327.325,26.208z"/>
</g>
<g>
	<path fill="#FFFFFF" d="M331.097,26.208c-0.162,0-0.324-0.062-0.447-0.185c-0.247-0.247-0.247-0.646,0-0.893l3.986-3.985
		c0.247-0.247,0.646-0.247,0.893,0c0.247,0.247,0.247,0.647,0,0.894l-3.985,3.984C331.42,26.146,331.258,26.208,331.097,26.208z"/>
</g>
<g>
	<path fill="#FFFFFF" d="M91.5,9.666c-0.276,0-0.5-0.224-0.5-0.5v-2c0-0.276,0.224-0.5,0.5-0.5S92,6.89,92,7.166v2
		C92,9.442,91.776,9.666,91.5,9.666z"/>
</g>
<g>
	<path fill="#FFFFFF" d="M88.831,10.807c-0.128,0-0.256-0.049-0.354-0.146l-1.414-1.414c-0.195-0.195-0.195-0.512,0-0.707
		s0.512-0.195,0.707,0l1.414,1.414c0.195,0.195,0.195,0.512,0,0.707C89.087,10.758,88.959,10.807,88.831,10.807z"/>
</g>
<g>
	<path fill="#FFFFFF" d="M88,13.166h-2c-0.276,0-0.5-0.224-0.5-0.5s0.224-0.5,0.5-0.5h2c0.276,0,0.5,0.224,0.5,0.5
		S88.276,13.166,88,13.166z"/>
</g>
<g>
	<path fill="#FFFFFF" d="M87.417,17.171c-0.128,0-0.256-0.049-0.354-0.146c-0.195-0.195-0.195-0.512,0-0.707l1.414-1.414
		c0.195-0.195,0.512-0.195,0.707,0s0.195,0.512,0,0.707l-1.414,1.414C87.673,17.122,87.545,17.171,87.417,17.171z"/>
</g>
<g>
	<path fill="#FFFFFF" d="M91.5,18.666c-0.276,0-0.5-0.224-0.5-0.5v-2c0-0.276,0.224-0.5,0.5-0.5s0.5,0.224,0.5,0.5v2
		C92,18.442,91.776,18.666,91.5,18.666z"/>
</g>
<g>
	<path fill="#FFFFFF" d="M95.195,17.171c-0.128,0-0.256-0.049-0.354-0.146l-1.414-1.414c-0.195-0.195-0.195-0.512,0-0.707
		s0.512-0.195,0.707,0l1.414,1.414c0.195,0.195,0.195,0.512,0,0.707C95.451,17.122,95.323,17.171,95.195,17.171z"/>
</g>
<g>
	<path fill="#FFFFFF" d="M97,13.166h-2c-0.276,0-0.5-0.224-0.5-0.5s0.224-0.5,0.5-0.5h2c0.276,0,0.5,0.224,0.5,0.5
		S97.276,13.166,97,13.166z"/>
</g>
<g>
	<path fill="#FFFFFF" d="M93.781,10.807c-0.128,0-0.256-0.049-0.354-0.146c-0.195-0.195-0.195-0.512,0-0.707l1.414-1.414
		c0.195-0.195,0.512-0.195,0.707,0s0.195,0.512,0,0.707l-1.414,1.414C94.037,10.758,93.909,10.807,93.781,10.807z"/>
</g>
<circle fill="#FFFFFF" cx="91.5" cy="12.947" r="2.219"/>
<polygon fill="#FFFFFF" points="275.926,13.776 273.285,14.483 271.406,13.399 273.18,12.375 275.956,13.119 276.137,12.445 
	274.035,11.881 275.505,11.032 275.157,10.428 273.771,11.228 274.298,9.261 273.624,9.08 272.917,11.721 271.038,12.806 
	271.038,10.758 273.07,8.726 272.577,8.233 271.038,9.771 271.038,8.073 270.341,8.073 270.341,9.672 268.901,8.233 268.408,8.726 
	270.341,10.659 270.341,12.828 268.567,11.804 267.823,9.029 267.149,9.209 267.713,11.311 266.242,10.462 265.894,11.066 
	267.278,11.866 265.312,12.393 265.492,13.066 268.133,12.359 270.011,13.444 268.237,14.468 265.462,13.724 265.281,14.398 
	267.383,14.961 265.912,15.81 266.261,16.414 267.646,15.614 267.12,17.582 267.794,17.762 268.501,15.121 270.38,14.037 
	270.38,16.084 268.348,18.117 268.841,18.61 270.38,17.071 270.38,18.77 271.077,18.77 271.077,17.17 272.518,18.61 273.011,18.117 
	271.077,16.183 271.077,14.014 272.851,15.038 273.595,17.814 274.269,17.633 273.705,15.531 275.176,16.38 275.525,15.776 
	274.14,14.977 276.106,14.45 "/>
</svg>
