<?xml version="1.0" encoding="utf-8"?>
<!-- Generator: Adobe Illustrator 16.0.0, SVG Export Plug-In . SVG Version: 6.00 Build 0)  -->
<!DOCTYPE svg PUBLIC "-//W3C//DTD SVG 1.1//EN" "http://www.w3.org/Graphics/SVG/1.1/DTD/svg11.dtd">
<svg version="1.1" id="레이어_1" xmlns="http://www.w3.org/2000/svg" xmlns:xlink="http://www.w3.org/1999/xlink" x="0px"
	 y="0px" width="30px" height="30px" viewBox="0 0 30 30" enable-background="new 0 0 30 30" xml:space="preserve">
<path fill="none" stroke="#3C5E8E" stroke-width="2" stroke-linecap="round" stroke-linejoin="round" stroke-miterlimit="10" d="
	M12.044,6.354c0-1.499,1.546-3.18,3.249-3.18c1.703,0,3.166,1.914,3.166,3.413c0,1.498-1.297,3.412-3,3.412H6"/>
<path fill="none" stroke="#3C5E8E" stroke-width="2" stroke-linecap="round" stroke-linejoin="round" stroke-miterlimit="10" d="
	M12.044,23.733c0,1.499,1.546,3.223,3.249,3.223c1.703,0,3.166-1.979,3.166-3.479c0-1.498-1.297-3.478-3-3.478H6"/>
<path fill="none" stroke="#3C5E8E" stroke-width="2" stroke-linecap="round" stroke-linejoin="round" stroke-miterlimit="10" d="
	M21.044,12.354c0-1.499,1.546-3.18,3.249-3.18c1.703,0,3.166,1.914,3.166,3.413c0,1.498-1.297,3.412-3,3.412H3"/>
</svg>
