<?xml version="1.0" encoding="utf-8"?>
<!-- Generator: Adobe Illustrator 16.0.0, SVG Export Plug-In . SVG Version: 6.00 Build 0)  -->
<!DOCTYPE svg PUBLIC "-//W3C//DTD SVG 1.1//EN" "http://www.w3.org/Graphics/SVG/1.1/DTD/svg11.dtd">
<svg version="1.1" id="레이어_1" xmlns="http://www.w3.org/2000/svg" xmlns:xlink="http://www.w3.org/1999/xlink" x="0px"
	 y="0px" width="600px" height="600px" viewBox="0 0 600 600" enable-background="new 0 0 600 600" xml:space="preserve">
<rect fill="#E9EDF4" width="600" height="600"/>
<g id="레이어_3">
</g>
<g id="레이어_1_1_">
	<g id="레이어_2_1_" display="none">
		<rect x="196.5" y="45" display="inline" fill="none" stroke="#000000" stroke-miterlimit="10" width="229" height="229"/>
		
			<rect x="196.5" y="284.241" display="inline" fill="none" stroke="#000000" stroke-miterlimit="10" width="229" height="272.759"/>
		<rect x="440.5" y="45" display="inline" fill="none" stroke="#000000" stroke-miterlimit="10" width="127" height="127"/>
		<rect x="440.5" y="188.833" display="inline" fill="none" stroke="#000000" stroke-miterlimit="10" width="127" height="127"/>
		<rect x="440.5" y="333.5" display="inline" fill="none" stroke="#000000" stroke-miterlimit="10" width="127" height="223.5"/>
	</g>
	<g id="레이어_1_3_">
	</g>
	<g id="레이어_2">
	</g>
</g>
<path fill="#A8C9EF" d="M134.961,449.813c2.925-1.155,4.674-3.963,4.674-3.963s-3.44-1.845-6.832-0.937
	c-1.908,0.512-3.514,1.334-4.486,2.209l-2.843-3.884l2.63-3.594c0.945,0.942,2.635,1.846,4.675,2.393
	c3.39,0.908,6.831-0.936,6.831-0.936s-1.749-2.81-4.674-3.964c2.524-1.872,3.487-5.037,3.487-5.037s-3.222-0.75-6.105,0.501
	c0.462-3.111-1.096-6.029-1.096-6.029s-3.317,2.058-4.226,5.448c-0.495,1.849-0.593,3.594-0.353,4.865l-4.552,0.494l-1.761-3.993
	c1.246-0.403,2.763-1.384,4.161-2.783c2.482-2.481,2.606-6.384,2.606-6.384s-3.308,0.11-5.771,2.066
	c-0.358-3.123-2.618-5.538-2.618-5.538s-2.26,2.415-2.619,5.538c-2.462-1.956-5.77-2.066-5.77-2.066s0.124,3.902,2.606,6.384
	c1.398,1.399,2.916,2.38,4.161,2.783l-1.761,3.993l-4.521-0.491c0.232-1.268,0.131-2.996-0.359-4.825
	c-0.908-3.391-4.226-5.449-4.226-5.449s-1.559,2.92-1.096,6.031c-2.884-1.251-6.105-0.502-6.105-0.502s0.961,3.165,3.487,5.037
	c-2.925,1.154-4.674,3.964-4.674,3.964s3.441,1.844,6.832,0.935c2.042-0.546,3.734-1.45,4.677-2.395l2.602,3.554l-2.834,3.871
	c-0.978-0.854-2.553-1.652-4.42-2.153c-3.39-0.908-6.832,0.936-6.832,0.936s1.749,2.81,4.674,3.964
	c-2.525,1.872-3.487,5.037-3.487,5.037s3.222,0.75,6.105-0.501c-0.463,3.11,1.096,6.029,1.096,6.029s3.317-2.058,4.226-5.449
	c0.564-2.107,0.616-4.085,0.232-5.373l4.622-0.502l1.969,4.466c-1.274,0.368-2.86,1.367-4.32,2.827
	c-2.481,2.481-2.605,6.383-2.605,6.383s3.308-0.109,5.77-2.065c0.359,3.123,2.618,5.538,2.618,5.538s2.261-2.415,2.62-5.537
	c2.463,1.955,5.769,2.065,5.769,2.065s-0.123-3.902-2.605-6.385c-1.494-1.493-3.121-2.505-4.409-2.852l1.958-4.44l4.684,0.509
	c-0.368,1.289-0.312,3.242,0.245,5.324c0.908,3.391,4.226,5.448,4.226,5.448s1.559-2.919,1.096-6.03
	c2.883,1.251,6.105,0.502,6.105,0.502S137.487,451.686,134.961,449.813z M120.811,445.34l-0.563,3.64l-2.307-2.87l-3.433,1.332
	l1.332-3.434l-2.87-2.307l3.639-0.562l0.563-3.64l2.307,2.87l3.433-1.332l-1.333,3.434l2.87,2.307L120.811,445.34z"/>
<path fill="#A8C9EF" d="M64.379,531.482c1.636-0.646,2.614-2.217,2.614-2.217s-1.924-1.031-3.82-0.523
	c-1.067,0.286-1.965,0.746-2.509,1.235l-1.59-2.172l1.471-2.01c0.528,0.527,1.473,1.032,2.614,1.338
	c1.896,0.508,3.82-0.523,3.82-0.523s-0.978-1.57-2.613-2.216c1.412-1.047,1.95-2.817,1.95-2.817s-1.802-0.419-3.415,0.28
	c0.258-1.74-0.612-3.372-0.612-3.372s-1.855,1.151-2.364,3.047c-0.277,1.034-0.332,2.01-0.197,2.721l-2.546,0.276l-0.984-2.232
	c0.696-0.226,1.545-0.774,2.327-1.557c1.388-1.388,1.458-3.57,1.458-3.57s-1.85,0.062-3.227,1.155
	c-0.201-1.746-1.464-3.097-1.464-3.097s-1.264,1.351-1.464,3.097c-1.377-1.094-3.227-1.155-3.227-1.155s0.069,2.183,1.457,3.57
	c0.782,0.782,1.631,1.331,2.327,1.557l-0.984,2.232l-2.528-0.274c0.13-0.709,0.074-1.676-0.201-2.698
	c-0.508-1.896-2.363-3.048-2.363-3.048s-0.872,1.633-0.613,3.373c-1.613-0.699-3.415-0.28-3.415-0.28s0.538,1.77,1.95,2.816
	c-1.636,0.646-2.614,2.217-2.614,2.217s1.924,1.031,3.821,0.522c1.142-0.305,2.088-0.811,2.616-1.339l1.455,1.987l-1.585,2.165
	c-0.547-0.479-1.428-0.924-2.472-1.204c-1.896-0.508-3.82,0.522-3.82,0.522s0.978,1.571,2.614,2.217
	c-1.412,1.047-1.95,2.817-1.95,2.817s1.801,0.419,3.414-0.28c-0.259,1.739,0.613,3.372,0.613,3.372s1.855-1.151,2.363-3.048
	c0.316-1.179,0.344-2.284,0.13-3.005l2.585-0.28l1.101,2.497c-0.712,0.206-1.6,0.765-2.416,1.581
	c-1.388,1.388-1.457,3.569-1.457,3.569s1.85-0.061,3.227-1.154c0.201,1.746,1.464,3.097,1.464,3.097s1.265-1.351,1.465-3.097
	c1.377,1.094,3.227,1.155,3.227,1.155s-0.069-2.183-1.457-3.57c-0.835-0.835-1.745-1.401-2.465-1.595l1.095-2.483l2.62,0.284
	c-0.206,0.721-0.175,1.813,0.137,2.978c0.508,1.896,2.363,3.047,2.363,3.047s0.872-1.632,0.613-3.372
	c1.613,0.699,3.415,0.28,3.415,0.28S65.792,532.529,64.379,531.482z M56.465,528.98l-0.315,2.035l-1.29-1.604l-1.919,0.744
	l0.745-1.92l-1.605-1.29l2.035-0.314l0.315-2.035l1.291,1.604l1.919-0.744l-0.745,1.92l1.605,1.29L56.465,528.98z"/>
<path fill="#A8C9EF" d="M183.791,437.963c0.985-0.39,1.574-1.336,1.574-1.336s-1.159-0.621-2.301-0.315
	c-0.643,0.173-1.184,0.45-1.511,0.744l-0.958-1.308l0.886-1.211c0.318,0.318,0.887,0.622,1.575,0.806
	c1.142,0.307,2.301-0.314,2.301-0.314s-0.589-0.946-1.574-1.335c0.85-0.631,1.174-1.697,1.174-1.697s-1.085-0.252-2.057,0.169
	c0.156-1.048-0.369-2.03-0.369-2.03s-1.118,0.693-1.424,1.835c-0.167,0.623-0.2,1.21-0.119,1.639l-1.533,0.166l-0.593-1.345
	c0.419-0.136,0.93-0.466,1.401-0.938c0.836-0.836,0.878-2.15,0.878-2.15s-1.114,0.037-1.943,0.696
	c-0.121-1.052-0.882-1.865-0.882-1.865s-0.761,0.813-0.882,1.865c-0.829-0.659-1.943-0.696-1.943-0.696s0.042,1.314,0.877,2.15
	c0.471,0.472,0.982,0.802,1.402,0.938l-0.593,1.345l-1.523-0.165c0.078-0.427,0.044-1.01-0.121-1.625
	c-0.306-1.143-1.423-1.836-1.423-1.836s-0.525,0.983-0.369,2.031c-0.971-0.421-2.057-0.169-2.057-0.169s0.324,1.066,1.175,1.697
	c-0.986,0.389-1.575,1.335-1.575,1.335s1.159,0.621,2.301,0.314c0.688-0.184,1.257-0.488,1.576-0.807l0.876,1.197l-0.955,1.304
	c-0.33-0.288-0.86-0.557-1.489-0.725c-1.142-0.307-2.301,0.314-2.301,0.314s0.589,0.946,1.575,1.335
	c-0.851,0.631-1.174,1.697-1.174,1.697s1.084,0.252,2.056-0.169c-0.156,1.047,0.369,2.03,0.369,2.03s1.117-0.693,1.423-1.835
	c0.19-0.71,0.208-1.376,0.078-1.811l1.557-0.168l0.663,1.504c-0.429,0.124-0.963,0.46-1.455,0.952
	c-0.836,0.836-0.877,2.149-0.877,2.149s1.114-0.036,1.943-0.695c0.121,1.052,0.882,1.865,0.882,1.865s0.762-0.813,0.882-1.865
	c0.83,0.659,1.943,0.696,1.943,0.696s-0.042-1.314-0.877-2.15c-0.503-0.503-1.051-0.845-1.485-0.961l0.659-1.495l1.578,0.171
	c-0.124,0.434-0.105,1.092,0.083,1.793c0.306,1.143,1.423,1.835,1.423,1.835s0.525-0.982,0.369-2.03
	c0.971,0.421,2.057,0.169,2.057,0.169S184.642,438.593,183.791,437.963z M179.024,436.455l-0.189,1.227l-0.777-0.967l-1.156,0.448
	l0.449-1.156l-0.967-0.777l1.226-0.189l0.189-1.226l0.777,0.967l1.156-0.448l-0.449,1.156l0.966,0.776L179.024,436.455z"/>
<polygon fill="#A8C9EF" points="112.562,490.548 105.106,492.545 99.803,489.483 104.809,486.592 112.646,488.691 113.157,486.789 
	107.222,485.199 111.374,482.802 110.39,481.097 106.48,483.354 107.967,477.801 106.065,477.291 104.067,484.747 98.764,487.81 
	98.764,482.027 104.5,476.291 103.108,474.898 98.764,479.242 98.764,474.448 96.794,474.448 96.794,478.963 92.73,474.898 
	91.338,476.291 96.794,481.748 96.794,487.872 91.788,484.981 89.688,477.146 87.785,477.654 89.375,483.589 85.224,481.191 
	84.239,482.897 88.149,485.155 82.596,486.643 83.106,488.545 90.561,486.548 95.864,489.609 90.858,492.5 83.022,490.4 
	82.511,492.303 88.446,493.893 84.293,496.29 85.278,497.995 89.188,495.737 87.701,501.292 89.603,501.801 91.601,494.345 
	96.904,491.283 96.904,497.063 91.167,502.802 92.56,504.195 96.904,499.851 96.904,504.645 98.873,504.645 98.873,500.13 
	102.939,504.194 104.331,502.802 98.873,497.343 98.874,491.219 103.879,494.11 105.98,501.947 107.884,501.438 106.292,495.503 
	110.444,497.9 111.429,496.195 107.519,493.938 113.072,492.449 "/>
<polygon fill="#A8C9EF" points="92.225,407.365 77.781,411.232 67.507,405.303 77.206,399.7 92.388,403.768 93.379,400.083 
	81.88,397.004 89.923,392.358 88.019,389.054 80.443,393.43 83.322,382.67 79.638,381.683 75.768,396.127 65.495,402.059 
	65.495,390.858 76.607,379.746 73.911,377.046 65.495,385.463 65.495,376.175 61.679,376.175 61.679,384.921 53.806,377.046 
	51.109,379.746 61.679,390.317 61.679,402.182 51.98,396.581 47.911,381.401 44.225,382.386 47.306,393.882 39.263,389.239 
	37.356,392.544 44.93,396.917 34.173,399.799 35.161,403.483 49.604,399.616 59.877,405.546 50.18,411.146 34.998,407.078 
	34.007,410.766 45.506,413.845 37.461,418.487 39.367,421.792 46.944,417.419 44.062,428.179 47.748,429.163 51.618,414.719 
	61.893,408.79 61.893,419.986 50.778,431.103 53.476,433.803 61.893,425.386 61.893,434.674 65.706,434.674 65.706,425.928 
	73.583,433.803 76.28,431.103 65.706,420.528 65.707,408.664 75.404,414.268 79.475,429.447 83.162,428.463 80.08,416.964 
	88.123,421.609 90.031,418.305 82.456,413.932 93.214,411.047 "/>
<polygon fill="#A8C9EF" points="144.792,543.643 140.82,544.706 137.995,543.075 140.663,541.535 144.837,542.653 145.11,541.64 
	141.948,540.793 144.16,539.516 143.636,538.607 141.553,539.811 142.344,536.852 141.331,536.58 140.267,540.552 137.442,542.184 
	137.442,539.104 140.498,536.047 139.756,535.305 137.442,537.619 137.442,535.065 136.393,535.065 136.393,537.471 
	134.227,535.305 133.486,536.047 136.393,538.954 136.393,542.217 133.725,540.677 132.606,536.503 131.593,536.773 132.44,539.935 
	130.228,538.658 129.704,539.566 131.787,540.77 128.828,541.562 129.1,542.575 133.072,541.512 135.897,543.143 133.23,544.683 
	129.055,543.563 128.783,544.578 131.945,545.425 129.732,546.701 130.257,547.609 132.34,546.407 131.548,549.366 132.562,549.637 
	133.625,545.665 136.451,544.034 136.451,547.113 133.395,550.17 134.137,550.913 136.451,548.599 136.451,551.152 137.5,551.152 
	137.5,548.747 139.666,550.913 140.408,550.17 137.5,547.263 137.5,544 140.167,545.541 141.286,549.715 142.3,549.444 
	141.453,546.282 143.665,547.56 144.189,546.651 142.106,545.448 145.064,544.655 "/>
</svg>
