<?xml version="1.0" encoding="utf-8"?>
<!-- Generator: Adobe Illustrator 16.0.0, SVG Export Plug-In . SVG Version: 6.00 Build 0)  -->
<!DOCTYPE svg PUBLIC "-//W3C//DTD SVG 1.1//EN" "http://www.w3.org/Graphics/SVG/1.1/DTD/svg11.dtd">
<svg version="1.1" id="레이어_1" xmlns="http://www.w3.org/2000/svg" xmlns:xlink="http://www.w3.org/1999/xlink" x="0px"
	 y="0px" width="600px" height="600px" viewBox="0 0 600 600" enable-background="new 0 0 600 600" xml:space="preserve">
<g id="레이어_3">
</g>
<g id="레이어_1_1_">
	<g id="레이어_2_1_" display="none">
		<rect x="196.5" y="45" display="inline" fill="none" stroke="#000000" stroke-miterlimit="10" width="229" height="229"/>
		
			<rect x="196.5" y="284.241" display="inline" fill="none" stroke="#000000" stroke-miterlimit="10" width="229" height="272.759"/>
		<rect x="440.5" y="45" display="inline" fill="none" stroke="#000000" stroke-miterlimit="10" width="127" height="127"/>
		<rect x="440.5" y="188.833" display="inline" fill="none" stroke="#000000" stroke-miterlimit="10" width="127" height="127"/>
		<rect x="440.5" y="333.5" display="inline" fill="none" stroke="#000000" stroke-miterlimit="10" width="127" height="223.5"/>
	</g>
	<g id="레이어_1_3_">
	</g>
	<g id="레이어_2">
	</g>
</g>
<g>
	<g>
		<path fill="none" d="M246.84,102.157l-5.509,10.131l5.912,5.912C247.146,110.375,247,104.61,246.84,102.157z"/>
		<path fill="none" d="M373.812,102.157c-0.162,2.492-0.312,8.399-0.408,16.415l6.047-6.045L373.812,102.157z"/>
		<g>
			<g opacity="0.1">
				<path d="M313.335,85.605c-11.004,0-20.943-4.355-28.069-11.365l-24.303,171.407c13.647,4.232,33.822,9.23,51.691,8.683v0.024
					c0.224-0.011,0.447-0.018,0.672-0.027c0.224,0.01,0.447,0.017,0.672,0.027v-0.024c21.109,0.647,45.441-6.445,58.418-10.87
					L342.889,72.693C335.691,80.603,325.125,85.605,313.335,85.605z"/>
			</g>
			<g>
				<path fill="#FFE1E1" d="M310.335,82.605c-11.004,0-20.943-4.355-28.069-11.365l-24.303,171.407
					c13.647,4.232,33.822,9.23,51.691,8.683v0.024c0.224-0.011,0.447-0.018,0.672-0.027c0.224,0.01,0.447,0.017,0.672,0.027v-0.024
					c21.109,0.647,45.441-6.445,58.418-10.87L339.889,69.693C332.691,77.603,322.125,82.605,310.335,82.605z"/>
			</g>
		</g>
		<path fill="#F4DCDC" d="M310.326,80.253c-11.056-0.052-20.943-4.81-27.597-12.282l-0.463,3.269
			c7.126,7.01,17.065,11.365,28.069,11.365c11.79,0,22.356-5.002,29.554-12.912l-0.584-3.377
			C332.684,74.733,322.177,80.197,310.326,80.253z"/>
		<g>
			<path fill="#F4DCDC" d="M310.335,74.938c-11.461,0-21.478-5.927-26.928-14.762l-0.85,7.595c0.058,0.066,0.113,0.135,0.172,0.201
				l1.027-7.243l-1.027,7.243c6.653,7.472,16.541,12.229,27.597,12.282c11.828-0.056,22.314-5.5,28.938-13.89l-1.365-7.293
				C332.624,68.513,322.266,74.938,310.335,74.938z"/>
		</g>
	</g>
	<path fill="#F4DCDC" stroke="#FFE1E1" stroke-miterlimit="10" d="M297.079,86.469l-8.105,3.913l3.913,8.105l7.323,15.167
		c2.161,4.476,7.542,6.353,12.019,4.191l8.104-3.913l-3.913-8.105l-7.322-15.167C306.936,86.184,301.555,84.308,297.079,86.469z"/>
	<path fill="#F4DCDC" stroke="#FFE1E1" stroke-miterlimit="10" d="M327.908,86.469l8.104,3.913l-3.912,8.105l-7.324,15.167
		c-2.16,4.476-7.541,6.353-12.019,4.191l-8.104-3.913l3.914-8.105l7.322-15.167C318.051,86.184,323.432,84.308,327.908,86.469z"/>
	<path fill="#F4DCDC" stroke="#FFE1E1" stroke-miterlimit="10" d="M297.079,103.891l-8.105,3.913l3.913,8.105l7.323,15.167
		c2.161,4.476,7.542,6.353,12.019,4.191l8.104-3.913l-3.913-8.105l-7.322-15.167C306.936,103.606,301.555,101.729,297.079,103.891z"
		/>
	<path fill="#F4DCDC" stroke="#FFE1E1" stroke-miterlimit="10" d="M327.908,103.891l8.104,3.913l-3.912,8.105l-7.324,15.167
		c-2.16,4.476-7.541,6.353-12.019,4.191l-8.104-3.913l3.914-8.105l7.322-15.167C318.051,103.606,323.432,101.729,327.908,103.891z"
		/>
	<path fill="#F4DCDC" stroke="#FFE1E1" stroke-miterlimit="10" d="M297.079,121.312l-8.105,3.913l3.913,8.105l7.323,15.167
		c2.161,4.476,7.542,6.353,12.019,4.191l8.104-3.913l-3.913-8.105l-7.322-15.167C306.936,121.028,301.555,119.151,297.079,121.312z"
		/>
	<path fill="#F4DCDC" stroke="#FFE1E1" stroke-miterlimit="10" d="M327.908,121.312l8.104,3.913l-3.912,8.105l-7.324,15.167
		c-2.16,4.476-7.541,6.353-12.019,4.191l-8.104-3.913l3.914-8.105l7.322-15.167C318.051,121.028,323.432,119.151,327.908,121.312z"
		/>
	<path fill="#F4DCDC" stroke="#FFE1E1" stroke-miterlimit="10" d="M297.079,138.734l-8.105,3.913l3.913,8.105l7.323,15.167
		c2.161,4.476,7.542,6.353,12.019,4.191l8.104-3.913l-3.913-8.105l-7.322-15.167C306.936,138.45,301.555,136.573,297.079,138.734z"
		/>
	<path fill="#F4DCDC" stroke="#FFE1E1" stroke-miterlimit="10" d="M327.908,138.734l8.104,3.913l-3.912,8.105l-7.324,15.167
		c-2.16,4.476-7.541,6.353-12.019,4.191l-8.104-3.913l3.914-8.105l7.322-15.167C318.051,138.45,323.432,136.573,327.908,138.734z"/>
	<path fill="#F4DCDC" stroke="#FFE1E1" stroke-miterlimit="10" d="M297.079,156.156l-8.105,3.913l3.913,8.105l7.323,15.167
		c2.161,4.476,7.542,6.353,12.019,4.191l8.104-3.913l-3.913-8.105l-7.322-15.167C306.936,155.872,301.555,153.995,297.079,156.156z"
		/>
	<path fill="#F4DCDC" stroke="#FFE1E1" stroke-miterlimit="10" d="M327.908,156.156l8.104,3.913l-3.912,8.105l-7.324,15.167
		c-2.16,4.476-7.541,6.353-12.019,4.191l-8.104-3.913l3.914-8.105l7.322-15.167C318.051,155.872,323.432,153.995,327.908,156.156z"
		/>
	<path fill="#F4DCDC" stroke="#FFE1E1" stroke-miterlimit="10" d="M297.079,173.578l-8.105,3.913l3.913,8.105l7.323,15.167
		c2.161,4.477,7.542,6.353,12.019,4.191l8.104-3.913l-3.913-8.105l-7.322-15.167C306.936,173.293,301.555,171.417,297.079,173.578z"
		/>
	<path fill="#F4DCDC" stroke="#FFE1E1" stroke-miterlimit="10" d="M327.908,173.578l8.104,3.913l-3.912,8.105l-7.324,15.167
		c-2.16,4.477-7.541,6.353-12.019,4.191l-8.104-3.913l3.914-8.105l7.322-15.167C318.051,173.293,323.432,171.417,327.908,173.578z"
		/>
	<path fill="#F4DCDC" stroke="#FFE1E1" stroke-miterlimit="10" d="M297.079,191l-8.105,3.913l3.913,8.104l7.323,15.168
		c2.161,4.477,7.542,6.353,12.019,4.191l8.104-3.913l-3.913-8.104l-7.322-15.168C306.936,190.715,301.555,188.839,297.079,191z"/>
	<path fill="#F4DCDC" stroke="#FFE1E1" stroke-miterlimit="10" d="M327.908,191l8.104,3.913l-3.912,8.104l-7.324,15.168
		c-2.16,4.477-7.541,6.353-12.019,4.191l-8.104-3.913l3.914-8.104l7.322-15.168C318.051,190.715,323.432,188.839,327.908,191z"/>
	<path fill="#F4DCDC" stroke="#FFE1E1" stroke-miterlimit="10" d="M297.079,208.422l-8.105,3.913l3.913,8.104l7.323,15.168
		c2.161,4.477,7.542,6.353,12.019,4.191l8.104-3.913l-3.913-8.104l-7.322-15.168C306.936,208.137,301.555,206.261,297.079,208.422z"
		/>
	<path fill="#F4DCDC" stroke="#FFE1E1" stroke-miterlimit="10" d="M327.908,208.422l8.104,3.913l-3.912,8.104l-7.324,15.168
		c-2.16,4.477-7.541,6.353-12.019,4.191l-8.104-3.913l3.914-8.104l7.322-15.168C318.051,208.137,323.432,206.261,327.908,208.422z"
		/>
	<polygon opacity="0.1" enable-background="new    " points="310.246,177.042 247.554,114 247.554,165.5 285.5,203.5 
		310.246,181.036 334.993,203.5 372.938,165.5 372.938,114 	"/>
	
		<rect x="278.589" y="182.693" transform="matrix(-0.7071 0.7071 -0.7071 -0.7071 634.3331 111.4972)" fill="#F4DCDC" width="30.972" height="8.86"/>
	
		<rect x="311.087" y="182.692" transform="matrix(0.7071 0.7071 -0.7071 0.7071 227.9664 -176.1149)" fill="#F4DCDC" width="30.972" height="8.86"/>
</g>
<g>
	<g opacity="0.1">
		<path d="M421.652,124l-29.536-50.631l-50.541-18.314c-0.456,9.213-10.433,122.601-28.329,122.601
			c-17.896,0-26.714-113.388-27.169-122.601l-51.541,18.314L205,124l45.214,45.973c-0.413,34.051-1.813,150.519-5.274,155.08
			c0,0,37.228,15.212,67.714,14.277v0.023c0.224-0.011,0.447-0.018,0.672-0.026c0.224,0.01,0.447,0.017,0.672,0.026v-0.023
			c8.137,0.249,1.824-7.098,4.016-7.566c19.795-4.235,62.074-18.271,62.074-18.271c-3.447-4.545-3.227-109.21-3.646-143.157
			L421.652,124z M249.84,110.157c0.16,2.453,0.307,8.218,0.403,16.042l-5.912-5.912L249.84,110.157z M376.404,126.572
			c0.097-8.016,0.246-13.923,0.408-16.415l5.639,10.369L376.404,126.572z"/>
	</g>
	<g>
		<g>
			<path fill="#72530D" d="M418.652,121l-29.536-50.631l-50.541-18.314c-0.456,9.213-10.433,122.601-28.329,122.601
				c-17.896,0-26.714-113.388-27.169-122.601l-51.541,18.314L202,121l45.214,45.973c-0.413,34.051-1.813,150.519-5.274,155.08
				c0,0,37.228,15.212,67.714,14.277v0.023c0.224-0.011,0.447-0.018,0.672-0.026c0.224,0.01,0.447,0.017,0.672,0.026v-0.023
				c8.137,0.249,1.824-7.098,4.016-7.566c19.795-4.235,62.074-18.271,62.074-18.271c-3.447-4.546-3.227-109.21-3.646-143.157
				L418.652,121z M246.84,107.157c0.16,2.453,0.307,8.218,0.403,16.042l-5.912-5.912L246.84,107.157z M373.404,123.572
				c0.097-8.016,0.246-13.923,0.408-16.415l5.639,10.369L373.404,123.572z"/>
		</g>
	</g>
</g>
<polygon opacity="0.1" enable-background="new    " points="310.246,182.042 247.554,119 247.554,170.5 285.5,208.5 
	310.246,186.036 334.993,208.5 372.938,170.5 372.938,119 "/>
<rect x="245.486" y="107.778" transform="matrix(-0.7071 0.7071 -0.7071 -0.7071 557.9526 86.9331)" fill="#72530D" width="30.971" height="102.485"/>
<g opacity="0.1">
	<path fill="none" d="M373.812,107.157c-0.162,2.492-0.312,8.399-0.408,16.415l6.047-6.045L373.812,107.157z"/>
	<path fill="none" d="M241.331,117.288l5.912,5.912c-0.096-7.824-0.243-13.59-0.403-16.042L241.331,117.288z"/>
</g>
<rect x="344.189" y="107.779" transform="matrix(0.7071 0.7071 -0.7071 0.7071 217.7876 -207.7505)" fill="#72530D" width="30.971" height="102.486"/>
<g>
	<polygon fill="#896A2B" points="290.115,90.464 283.977,46.021 279.344,54.031 266.409,82.976 282.471,95.301 274.272,108.205 
		302.203,169.969 308.159,174.656 	"/>
	<polygon fill="#896A2B" points="331.378,90.464 337.518,46.021 342.148,54.031 355.084,82.976 339.021,95.301 347.221,108.205 
		319.29,169.969 313.334,174.656 	"/>
</g>
<path opacity="0.1" enable-background="new    " d="M313.689,330.5c0,0-5.031-138.688-3.443-155.844h3.088l4.643,153.44
	L313.689,330.5z"/>
<circle fill="#282828" cx="310.326" cy="204.581" r="5.464"/>
<circle fill="#282828" cx="310.326" cy="231.081" r="5.464"/>
</svg>
