<?xml version="1.0" encoding="utf-8"?>
<!-- Generator: Adobe Illustrator 16.0.0, SVG Export Plug-In . SVG Version: 6.00 Build 0)  -->
<!DOCTYPE svg PUBLIC "-//W3C//DTD SVG 1.1//EN" "http://www.w3.org/Graphics/SVG/1.1/DTD/svg11.dtd">
<svg version="1.1" id="레이어_1" xmlns="http://www.w3.org/2000/svg" xmlns:xlink="http://www.w3.org/1999/xlink" x="0px"
	 y="0px" width="600px" height="600px" viewBox="0 0 600 600" enable-background="new 0 0 600 600" xml:space="preserve">
<g id="레이어_3">
</g>
<g id="레이어_1_1_">
	<g id="레이어_2_1_" display="none">
		<rect x="196.5" y="45" display="inline" fill="none" stroke="#000000" stroke-miterlimit="10" width="229" height="229"/>
		
			<rect x="196.5" y="284.241" display="inline" fill="none" stroke="#000000" stroke-miterlimit="10" width="229" height="272.759"/>
		<rect x="440.5" y="45" display="inline" fill="none" stroke="#000000" stroke-miterlimit="10" width="127" height="127"/>
		<rect x="440.5" y="188.833" display="inline" fill="none" stroke="#000000" stroke-miterlimit="10" width="127" height="127"/>
		<rect x="440.5" y="333.5" display="inline" fill="none" stroke="#000000" stroke-miterlimit="10" width="127" height="223.5"/>
	</g>
	<g id="레이어_1_3_">
	</g>
	<g id="레이어_2">
	</g>
</g>
<ellipse fill="#5E5E5E" cx="479.71" cy="237.171" rx="13.043" ry="28.245"/>
<g>
	<g opacity="0.1">
		<path d="M498.151,274.271c-0.678-7-1.271-14.641-2.435-21.622c-1.893-11.351,2.322-21.32-0.014-32.517
			c-1.427-6.846-5.485-13.134-13.146-13.433c0,0-19.396-1.29-15.237,34.54c0,0,0.538,17.581-0.501,20.698
			c-0.648,1.948-1.37,18.846,2.683,29.904c2.432,6.634,5.854,7.917,12.772,8.159c5.946,0.208,10.834-1.493,13.286-8.045
			C497.669,286.321,498.516,278.035,498.151,274.271z M491.358,253.833c0,7.333-17.684,7.773-18.62,0.5
			c-0.451-3.5-1.74-19.629-1.74-25.37c0-8.822,4.988-15.974,11.14-15.974c6.152,0,11.14,7.151,11.14,15.974
			C493.276,234.5,491.358,250.096,491.358,253.833z"/>
	</g>
	<g>
		<g>
			<path fill="#352506" d="M496.151,272.271c-0.678-7-1.271-14.641-2.435-21.622c-1.893-11.351,2.322-21.32-0.014-32.517
				c-1.427-6.846-5.485-13.134-13.146-13.433c0,0-19.396-1.29-15.237,34.54c0,0,0.538,17.581-0.501,20.698
				c-0.648,1.948-1.37,18.846,2.683,29.904c2.432,6.634,5.854,7.917,12.772,8.159c5.946,0.208,10.834-1.493,13.286-8.045
				C495.669,284.321,496.516,276.035,496.151,272.271z M489.358,251.833c0,7.333-17.684,7.773-18.62,0.5
				c-0.451-3.5-1.74-19.629-1.74-25.37c0-8.822,4.988-15.974,11.14-15.974c6.152,0,11.14,7.151,11.14,15.974
				C491.276,232.5,489.358,248.096,489.358,251.833z"/>
		</g>
	</g>
</g>
<g>
	<path fill="none" d="M480.16,210.72c-5.141,0-9.309,6.845-9.309,15.289c0,5.494,1.077,20.933,1.454,24.282
		c0.783,6.962,15.56,6.541,15.56-0.478c0-3.577,1.603-18.505,1.603-23.804C489.468,217.565,485.301,210.72,480.16,210.72z"/>
	<path fill="none" stroke="#666666" stroke-miterlimit="10" d="M492.699,259.278h-25.57c-0.401,4.825-0.413,17.895,2.473,26.913
		c2.032,6.349,4.894,7.578,10.674,7.809c4.969,0.199,9.052-1.429,11.103-7.7c1.761-5.393,2.469-13.323,2.164-16.927
		C493.266,266.106,493.006,262.693,492.699,259.278z"/>
</g>
<g>
	<circle fill="#B29E79" cx="472.213" cy="256.493" r="4.16"/>
	<circle fill="#B29E79" cx="469.338" cy="259.278" r="4.16"/>
	<circle fill="#B29E79" cx="490.588" cy="259.278" r="4.16"/>
	<circle fill="#B29E79" cx="476.373" cy="259.278" r="4.16"/>
	<circle fill="#B29E79" cx="483.869" cy="259.278" r="4.16"/>
	<circle fill="#B29E79" cx="479.709" cy="260.653" r="4.16"/>
	<circle fill="#B29E79" cx="488.029" cy="256.493" r="4.16"/>
</g>
<ellipse fill="#5E5E5E" cx="531.337" cy="237.171" rx="13.043" ry="28.245"/>
<g>
	<g opacity="0.1">
		<path d="M519.486,291.955c2.453,6.552,7.34,8.252,13.287,8.045c6.918-0.242,10.341-1.525,12.771-8.159
			c4.053-11.058,3.331-27.956,2.683-29.904c-1.038-3.117-0.501-20.698-0.501-20.698c4.158-35.83-15.237-34.54-15.237-34.54
			c-7.661,0.299-11.72,6.587-13.146,13.433c-2.336,11.197,1.879,21.166-0.014,32.517c-1.164,6.981-1.757,14.622-2.435,21.622
			C516.531,278.035,517.378,286.321,519.486,291.955z M521.771,228.963c0-8.822,4.986-15.974,11.139-15.974
			c6.151,0,11.14,7.151,11.14,15.974c0,5.74-1.289,21.87-1.74,25.37c-0.938,7.273-18.619,6.834-18.619-0.5
			C523.688,250.096,521.771,234.5,521.771,228.963z"/>
	</g>
	<g>
		<g>
			<path fill="#352506" d="M517.486,289.955c2.453,6.552,7.34,8.252,13.287,8.045c6.918-0.242,10.341-1.525,12.771-8.159
				c4.053-11.058,3.331-27.956,2.683-29.904c-1.038-3.117-0.501-20.698-0.501-20.698c4.158-35.83-15.237-34.54-15.237-34.54
				c-7.661,0.299-11.72,6.587-13.146,13.433c-2.336,11.197,1.879,21.166-0.014,32.517c-1.164,6.981-1.757,14.622-2.435,21.622
				C514.531,276.035,515.378,284.321,517.486,289.955z M519.771,226.963c0-8.822,4.986-15.974,11.139-15.974
				c6.151,0,11.14,7.151,11.14,15.974c0,5.74-1.289,21.87-1.74,25.37c-0.938,7.273-18.619,6.834-18.619-0.5
				C521.688,248.096,519.771,232.5,519.771,226.963z"/>
		</g>
	</g>
</g>
<g>
	<path fill="none" d="M530.887,210.72c5.141,0,9.309,6.845,9.309,15.289c0,5.494-1.077,20.933-1.454,24.282
		c-0.783,6.962-15.56,6.541-15.56-0.478c0-3.577-1.603-18.505-1.603-23.804C521.579,217.565,525.746,210.72,530.887,210.72z"/>
	<path fill="none" stroke="#666666" stroke-miterlimit="10" d="M518.348,259.278h25.57c0.401,4.825,0.413,17.895-2.473,26.913
		c-2.032,6.349-4.894,7.578-10.673,7.809c-4.97,0.199-9.053-1.429-11.104-7.7c-1.761-5.393-2.469-13.323-2.164-16.927
		C517.781,266.106,518.041,262.693,518.348,259.278z"/>
</g>
<g>
	<circle fill="#B29E79" cx="538.834" cy="256.493" r="4.16"/>
	<circle fill="#B29E79" cx="541.709" cy="259.278" r="4.16"/>
	<circle fill="#B29E79" cx="520.459" cy="259.278" r="4.16"/>
	<circle fill="#B29E79" cx="534.674" cy="259.278" r="4.16"/>
	<circle fill="#B29E79" cx="527.178" cy="259.278" r="4.16"/>
	<circle fill="#B29E79" cx="531.338" cy="260.653" r="4.16"/>
	<circle fill="#B29E79" cx="523.018" cy="256.493" r="4.16"/>
</g>
</svg>
