<?xml version="1.0" encoding="utf-8"?>
<!-- Generator: Adobe Illustrator 16.0.0, SVG Export Plug-In . SVG Version: 6.00 Build 0)  -->
<!DOCTYPE svg PUBLIC "-//W3C//DTD SVG 1.1//EN" "http://www.w3.org/Graphics/SVG/1.1/DTD/svg11.dtd">
<svg version="1.1" id="Layer_1" xmlns="http://www.w3.org/2000/svg" xmlns:xlink="http://www.w3.org/1999/xlink" x="0px" y="0px"
	 width="148.667px" height="214px" viewBox="0 0 148.667 214" enable-background="new 0 0 148.667 214" xml:space="preserve">
<path fill="#7C4F00" d="M66,199.232c0,0.555,0,0.768,0,0.768h-0.517c-0.21,0-0.483-0.213-0.483-0.768v-22.098
	c0-0.555,0.272-1.134,0.483-1.134H66c0,0,0,0.579,0,1.134V199.232z"/>
<path fill="#7C4F00" d="M83,198.988c0,0.549,0,1.012,0,1.012h-0.77c-0.21,0-0.23-0.463-0.23-1.012v-21.864
	c0-0.55,0.02-1.124,0.23-1.124H83c0,0,0,0.574,0,1.124V198.988z"/>
<path fill="#7C4F00" d="M66.087,192.836c0.104,0.438,0.125,0.809-0.181,0.882l0,0c-0.307,0.073-0.455-0.268-0.56-0.707l-3.592-15.09
	c-0.104-0.438-0.125-0.809,0.181-0.882l0,0c0.307-0.074,0.455,0.267,0.56,0.706L66.087,192.836z"/>
<path fill="#7C4F00" d="M82.308,192.836c-0.104,0.438-0.125,0.809,0.182,0.882l0,0c0.307,0.073,0.455-0.268,0.559-0.707l3.593-15.09
	c0.104-0.438,0.125-0.809-0.182-0.882l0,0c-0.307-0.074-0.455,0.267-0.559,0.706L82.308,192.836z"/>
<path fill="#BC3500" d="M76.311,189.399c0,2.78-1.063,5.032-2.373,5.032c-1.311,0-2.373-2.252-2.373-5.032
	c0-2.779,2.373-7.159,2.373-7.159S76.311,186.621,76.311,189.399z"/>
<path fill="#CECCB6" d="M79.889,197H67.907c-2.382,0-3.907,2.123-3.907,4.505v0.639c0,0,0,0.879,0,3.675s1.235,6.808,1.235,6.808
	c0,0.881,0.511,1.374,1.394,1.374h14.539c0.882,0,1.598-0.493,1.598-1.374c0,0,1.017-4.522,1.336-6.919
	c0.319-2.396-0.102-3.563-0.102-3.563v-0.639C84,199.123,82.271,197,79.889,197z"/>
<path fill="#FF7061" d="M146.064,63.751c-0.426-8.309-1.494-16.496-3.769-24.518c-1.754-6.184-4.316-11.898-8.847-16.603
	c-8.064-8.376-17.981-13.466-29.113-16.295c-3.76-0.956-7.651-1.393-11.48-2.083c-4.438-0.8-8.875-1.604-13.308-2.434
	c-3.421-0.641-6.764-0.942-10.289-0.193c-6.512,1.383-13.107,2.38-19.682,3.453c-11.307,1.846-21.595,6.039-30.55,13.25
	c-5.522,4.447-9.777,9.84-12.11,16.665c-3.082,9.018-4.592,18.298-5.089,27.782c-0.396,7.561-0.123,15.078,1.231,22.539
	c2.98,16.42,9.581,31.392,18.333,45.478c2.264,3.643,4.708,7.183,7.224,10.658c4.064,5.615,8.485,10.952,13.556,15.691
	c2.354,2.2,5.267,3.851,7.401,6.224c3.23,3.591,6.103,7.435,8.929,11.363c0.958,1.334,1.653,3.271,2.144,4.271h26.684
	c1.369-4,3.522-7.063,6.252-10.205c1.44-1.656,2.8-3.337,4.208-5.021c0.263-0.314,0.569-0.576,0.883-0.841
	c2.687-2.269,5.578-4.323,8.037-6.815c12.292-12.462,21.799-26.847,29.107-42.72c3.81-8.273,6.718-16.847,8.537-25.776
	C145.958,79.742,146.476,71.791,146.064,63.751z M53.365,163.259c-0.44-0.031-0.91-0.35-1.272-0.651
	c-5.705-4.744-10.572-10.275-15.057-16.154c-1.934-2.535-3.877-5.073-5.632-7.731c-1.843-2.791-3.521-5.694-5.173-8.604
	C17.84,115.337,12.255,99.576,9.863,82.725C8.112,70.384,7.885,58.021,10.4,45.771c1.527-7.435,3.705-14.721,8.107-21.098
	c4.277-6.196,10.009-10.653,16.724-13.918c5.288-2.57,10.876-4.184,16.69-5.073c-1.799,0.651-3.628,1.233-5.394,1.967
	c-6.997,2.909-13.081,7.016-17.122,13.621c-2.486,4.064-3.799,8.632-5.228,13.13c-2.567,8.08-3.706,16.398-3.787,24.856
	c-0.126,13.103,1.316,26.021,4.494,38.757c4.538,18.185,11.962,35.095,22.206,50.76c3.013,4.607,6.361,8.994,9.554,13.483
	c0.185,0.26,0.361,0.525,0.709,1.034C55.835,163.29,54.595,163.347,53.365,163.259z M57.262,88.11
	c0.894,14.854,2.448,29.646,4.942,44.322c1.729,10.169,3.667,20.299,7,30.1c0.064,0.188,0.091,0.389,0.173,0.751
	c-1.814,0-3.538,0.044-5.256-0.038c-0.338-0.016-0.735-0.469-0.968-0.813c-3.861-5.709-7.104-11.767-10.057-17.985
	c-8.375-17.639-13.888-36.153-16.804-55.441c-1.82-12.036-2.478-24.149-1.995-36.316c0.363-9.129,1.639-18.103,4.504-26.825
	c2.307-7.021,6.634-12.434,12.684-16.551C57.309,5.35,63.743,3.02,70.751,2.207c-5.108,3.329-7.267,8.569-9.118,13.967
	c-3.336,9.733-4.462,19.858-4.996,30.054C55.905,60.198,56.423,74.163,57.262,88.11z M82.271,163.316
	c-1.219-0.118-2.459-0.024-3.831-0.024c0.409-1.297,0.779-2.429,1.123-3.567c3.06-10.137,5.167-20.491,6.63-30.956
	c1.439-10.294,2.757-20.619,3.641-30.973c0.857-10.028,1.265-20.104,1.55-30.167c0.209-7.365,0.145-14.757-0.233-22.115
	c-0.558-10.861-1.861-21.638-5.858-31.888c-1.424-3.65-3.135-7.141-6.155-9.791c-0.605-0.53-1.28-0.982-1.922-1.47
	c0.028-0.093,0.057-0.187,0.086-0.279c1.557,0.3,3.131,0.53,4.667,0.914c8.666,2.169,16.193,6.241,21.966,13.232
	c3.192,3.866,4.854,8.446,6.193,13.171c2.573,9.082,3.415,18.394,3.549,27.786c0.236,16.449-1.444,32.709-5.462,48.662
	c-1.887,7.491-4.166,14.904-6.671,22.214c-4.063,11.853-9.572,23.047-16.292,33.641C84.492,162.904,83.688,163.455,82.271,163.316z
	 M138.855,74.615c-0.556,7.834-1.87,15.553-3.899,23.129c-2.71,10.119-6.542,19.817-11.506,29.054
	c-6.434,11.973-14.223,22.953-23.96,32.492c-0.651,0.638-1.427,1.168-1.991,1.872c-1.818,2.27-4.213,2.438-6.962,2
	c0.35-0.468,0.652-0.888,0.971-1.294c10.652-13.601,19.142-28.439,25.372-44.554c4.983-12.893,8.291-26.2,9.729-39.962
	c0.912-8.721,1.204-17.451,0.415-26.191c-0.848-9.411-3.345-18.423-7.108-27.055c-3.193-7.324-9.097-11.991-16.128-15.337
	c-2.272-1.082-4.696-1.846-7.049-2.757c-0.223-0.086-0.44-0.186-0.66-0.279c0.042-0.136,0.083-0.272,0.125-0.408
	c3.914,1.142,7.899,2.085,11.727,3.467c7.897,2.853,14.719,7.338,20.023,13.975c4.049,5.066,6.228,10.998,8.029,17.102
	C139.341,51.247,139.689,62.884,138.855,74.615z"/>
<path fill="#FFE9A4" d="M108.214,105.85c4.019-15.953,5.698-32.212,5.462-48.662c-0.135-9.393-0.977-18.705-3.549-27.786
	c-1.339-4.725-3.001-9.305-6.193-13.171C98.162,9.241,90.635,5.169,81.969,3c-1.536-0.384-3.11-0.613-4.667-0.914
	c-0.029,0.093-0.058,0.187-0.086,0.279c0.642,0.488,1.317,0.939,1.922,1.47c3.021,2.65,4.731,6.141,6.155,9.791
	c3.998,10.25,5.3,21.027,5.858,31.888c0.378,7.358,0.442,14.75,0.233,22.115c-0.286,10.064-0.693,20.14-1.55,30.167
	c-0.884,10.354-2.202,20.678-3.641,30.973c-1.463,10.465-3.57,20.819-6.63,30.956c-0.344,1.139-0.713,2.27-1.123,3.567
	c1.372,0,2.612-0.094,3.831,0.024c1.417,0.139,2.221-0.413,2.98-1.611c6.72-10.594,12.229-21.788,16.292-33.641
	C104.049,120.754,106.327,113.341,108.214,105.85z"/>
<path fill="#FFE9A4" d="M61.633,16.174c1.851-5.398,4.01-10.639,9.118-13.967C63.743,3.02,57.309,5.35,51.485,9.313
	c-6.05,4.117-10.377,9.529-12.684,16.551c-2.865,8.722-4.141,17.696-4.504,26.825c-0.483,12.167,0.175,24.28,1.995,36.316
	c2.916,19.288,8.429,37.802,16.804,55.441c2.953,6.219,6.195,12.276,10.057,17.985c0.233,0.344,0.629,0.797,0.968,0.813
	c1.718,0.083,3.442,0.038,5.256,0.038c-0.082-0.362-0.109-0.563-0.173-0.751c-3.333-9.8-5.271-19.93-7-30.1
	c-2.494-14.677-4.048-29.468-4.942-44.322c-0.839-13.947-1.357-27.912-0.625-41.882C57.171,36.032,58.296,25.907,61.633,16.174z"/>
<path fill="#FFE9A4" d="M47.092,148.773c-10.244-15.665-17.668-32.575-22.206-50.76c-3.178-12.736-4.62-25.654-4.494-38.757
	c0.081-8.458,1.219-16.776,3.787-24.856c1.429-4.498,2.742-9.065,5.228-13.13c4.041-6.605,10.125-10.711,17.122-13.621
	c1.766-0.734,3.594-1.315,5.394-1.967c-5.814,0.889-11.402,2.502-16.69,5.073c-6.715,3.265-12.447,7.722-16.724,13.918
	c-4.402,6.376-6.581,13.663-8.107,21.098c-2.515,12.25-2.288,24.613-0.537,36.954c2.392,16.851,7.977,32.612,16.368,47.394
	c1.652,2.91,3.331,5.813,5.173,8.604c1.754,2.658,3.698,5.196,5.632,7.731c4.484,5.879,9.352,11.41,15.057,16.154
	c0.362,0.301,0.832,0.62,1.272,0.651c1.23,0.088,2.471,0.031,3.991,0.031c-0.348-0.509-0.524-0.774-0.709-1.034
	C53.453,157.767,50.104,153.38,47.092,148.773z"/>
<path fill="#FFE9A4" d="M127.953,22.766c-5.304-6.637-12.126-11.122-20.023-13.975c-3.827-1.382-7.813-2.325-11.727-3.467
	c-0.041,0.136-0.083,0.272-0.125,0.408c0.22,0.093,0.437,0.193,0.66,0.279c2.353,0.911,4.777,1.675,7.049,2.757
	c7.031,3.346,12.935,8.013,16.128,15.337c3.763,8.632,6.26,17.645,7.108,27.055c0.789,8.74,0.497,17.47-0.415,26.191
	c-1.439,13.763-4.747,27.069-9.729,39.962c-6.229,16.115-14.719,30.953-25.372,44.554c-0.318,0.407-0.621,0.826-0.971,1.294
	c2.749,0.437,5.144,0.27,6.962-2c0.563-0.704,1.339-1.234,1.991-1.872c9.737-9.539,17.526-20.519,23.96-32.492
	c4.964-9.237,8.796-18.935,11.506-29.054c2.029-7.576,3.343-15.294,3.899-23.129c0.833-11.73,0.485-23.368-2.873-34.747
	C134.181,33.764,132.002,27.833,127.953,22.766z"/>
<path fill="#727B89" d="M85,194.239c0,0.42-0.341,0.761-0.761,0.761H64.761c-0.42,0-0.761-0.341-0.761-0.761v-0.478
	c0-0.42,0.341-0.761,0.761-0.761h19.478c0.42,0,0.761,0.341,0.761,0.761V194.239z"/>
<path fill="#727B89" d="M77,194.268c0,0.271-0.632-0.268-0.865-0.268h-4.639c-0.233,0-0.496,0.54-0.496,0.268v-2.945
	c0-0.271,0.263-0.323,0.496-0.323h4.639c0.233,0,0.865,0.051,0.865,0.323V194.268z"/>
</svg>
