<?xml version="1.0" encoding="utf-8"?>
<!-- Generator: Adobe Illustrator 16.0.0, SVG Export Plug-In . SVG Version: 6.00 Build 0)  -->
<!DOCTYPE svg PUBLIC "-//W3C//DTD SVG 1.1//EN" "http://www.w3.org/Graphics/SVG/1.1/DTD/svg11.dtd">
<svg version="1.1" id="Layer_1" xmlns="http://www.w3.org/2000/svg" xmlns:xlink="http://www.w3.org/1999/xlink" x="0px" y="0px"
	 width="120.856px" height="88.523px" viewBox="-55 -40 120.856 88.523" enable-background="new -55 -40 120.856 88.523"
	 xml:space="preserve">
<g>
	<path fill="#FFFFFF" d="M40.523,5.075"/>
	<path fill="#FFFFFF" d="M41.084,6.201"/>
</g>
<g>
	<path fill="#FDD3BE" d="M52.186,37.004c-8.681,5.484-20.169,2.879-25.655-5.791l0,0c-5.497-8.691-2.891-20.191,5.789-25.676
		l3.691-2.333c8.691-5.486,20.181-2.879,25.666,5.8l0,0c5.486,8.682,2.891,20.18-5.81,25.666L52.186,37.004z"/>
	<path d="M42.278,41.17c-6.875,0-13.172-3.457-16.844-9.268c-2.85-4.492-3.762-9.826-2.596-15.018
		c1.176-5.184,4.299-9.604,8.791-12.443l3.691-2.332c3.186-2.013,6.845-3.078,10.597-3.078c6.886,0,13.183,3.468,16.854,9.279
		c2.84,4.496,3.762,9.82,2.586,15.012c-1.176,5.184-4.299,9.604-8.803,12.443l-3.671,2.332C49.702,40.115,46.03,41.17,42.278,41.17z
		 M45.918,1.628c-3.255,0-6.438,0.928-9.218,2.672l-3.69,2.331c-3.903,2.471-6.612,6.318-7.636,10.83
		c-1.015,4.514-0.225,9.148,2.25,13.063c3.195,5.039,8.671,8.051,14.654,8.051c3.266,0,6.449-0.922,9.218-2.666l3.67-2.332
		c3.925-2.475,6.643-6.318,7.657-10.832c1.024-4.512,0.223-9.146-2.24-13.051C57.388,4.645,51.901,1.628,45.918,1.628z"/>
</g>
<g>
	<path fill="#FFFFFF" d="M43.515,39.6c9.27-12.758-4.238-38.403-9.836-39.965C30.21-1.328,7.901,4.604-8.426,9.229l-8.244-25.403
		c-4.685-14.44-16.022-23.679-25.321-20.656c-9.309,3.012-13.071,17.157-8.386,31.588c0,0,6.175,28.829,17.472,40.045
		C-21.608,46.008,35.483,50.682,43.515,39.6z"/>
	<path d="M16.581,48.524L16.581,48.524c-19.074,0-43.543-4.168-51.311-11.875C-46.432,25.016-52.659-3.488-52.922-4.7
		c-2.343-7.19-2.738-14.841-1.015-21.285c1.815-6.85,5.771-11.576,11.135-13.314c1.439-0.467,2.93-0.7,4.462-0.7
		c9.816,0,19.744,9.466,24.135,23.024l7.484,23.03C14.807,0,28.04-3.062,32.624-3.062c0.711,0,1.258,0.061,1.754,0.198
		c4.441,1.237,9.686,10.07,12.361,17.751c2.171,6.236,4.909,17.928-1.125,26.232C41.183,47.235,27.382,48.524,16.581,48.524z
		 M-38.34-34.808c-0.984,0-1.947,0.152-2.86,0.446c-3.63,1.176-6.368,4.624-7.727,9.71c-1.46,5.491-1.095,12.098,1.014,18.608
		c0.142,0.538,6.227,28.464,16.844,39.001c5.659,5.627,27.481,10.373,47.65,10.373c15.506,0,22.989-2.717,24.835-5.252
		c4.491-6.186,2.353-15.637,0.68-20.717C39.104,8.27,34.349,2.566,32.979,2.135c-0.011,0-0.011,0-0.021,0
		c-4.462,0-19.157,3.499-40.674,9.588c-1.349,0.404-2.748-0.365-3.185-1.693l-8.234-25.403
		C-22.794-26.634-30.867-34.808-38.34-34.808z"/>
</g>
</svg>
