<?xml version="1.0" encoding="utf-8"?>
<!-- Generator: Adobe Illustrator 16.0.0, SVG Export Plug-In . SVG Version: 6.00 Build 0)  -->
<!DOCTYPE svg PUBLIC "-//W3C//DTD SVG 1.1//EN" "http://www.w3.org/Graphics/SVG/1.1/DTD/svg11.dtd">
<svg version="1.1" id="Layer_1" xmlns="http://www.w3.org/2000/svg" xmlns:xlink="http://www.w3.org/1999/xlink" x="0px" y="0px"
	 width="120.856px" height="88.523px" viewBox="-50.063 -41.194 120.856 88.523"
	 enable-background="new -50.063 -41.194 120.856 88.523" xml:space="preserve">
<g>
	<path fill="#4BBAAC" d="M65.244-27.762L53.36-39.393L28.252-31.97l-3.65,16.225l19.104,8.194l15.607,44.659
		c0.821,2.748,3.701,4.32,6.459,3.498c2.758-0.811,4.32-3.691,3.499-6.449L53.664-10.493L65.244-27.762z"/>
	<path fill="#0E4C45" d="M64.281,42.127c-2.84-0.01-5.395-1.917-6.216-4.645L42.672-6.583L23.1-14.98L27.156-33l26.568-7.854
		l13.203,12.919L55.104-10.31l15.393,44.041c0.519,1.724,0.336,3.479-0.496,5c-0.821,1.521-2.199,2.625-3.863,3.123
		C65.539,42.026,64.91,42.127,64.281,42.127z M26.102-16.511L44.74-8.52l0.193,0.542l15.605,44.66
		c0.619,2.068,2.83,3.306,4.857,2.677c1.004-0.294,1.835-0.953,2.322-1.866c0.496-0.912,0.608-1.967,0.305-2.961L52.225-10.675
		L63.563-27.59L52.994-37.933l-23.646,6.992L26.102-16.511z"/>
</g>
<g>
	<path fill="#FDD3BE" d="M57.122,35.81c-8.681,5.485-20.169,2.88-25.655-5.79l0,0c-5.497-8.691-2.891-20.191,5.789-25.677
		l3.691-2.333c8.691-5.486,20.181-2.879,25.666,5.8l0,0c5.486,8.682,2.891,20.18-5.81,25.666L57.122,35.81z"/>
	<path d="M47.215,39.977c-6.875,0-13.172-3.457-16.844-9.268c-2.85-4.492-3.762-9.826-2.596-15.019
		c1.176-5.183,4.299-9.604,8.791-12.443l3.691-2.332c3.186-2.013,6.845-3.078,10.597-3.078c6.886,0,13.183,3.468,16.854,9.278
		c2.84,4.497,3.762,9.821,2.586,15.013c-1.176,5.183-4.299,9.604-8.803,12.443l-3.671,2.332
		C54.639,38.922,50.967,39.977,47.215,39.977z M50.854,0.434c-3.255,0-6.438,0.928-9.218,2.672l-3.69,2.332
		c-3.903,2.47-6.612,6.318-7.636,10.83c-1.015,4.514-0.225,9.147,2.25,13.063c3.195,5.039,8.671,8.051,14.654,8.051
		c3.266,0,6.449-0.922,9.218-2.666l3.67-2.333c3.925-2.475,6.643-6.317,7.657-10.831c1.024-4.512,0.223-9.146-2.24-13.051
		C62.324,3.451,56.838,0.434,50.854,0.434z"/>
</g>
<g>
	<path fill="#FFFFFF" d="M48.451,38.406c9.27-12.757-4.238-38.403-9.836-39.964C35.146-2.522,12.838,3.41-3.489,8.034l-8.244-25.402
		c-4.685-14.44-16.022-23.679-25.321-20.656c-9.309,3.012-13.071,17.157-8.386,31.588c0,0,6.175,28.829,17.472,40.046
		C-16.672,44.815,40.42,49.489,48.451,38.406z"/>
	<path d="M21.518,47.329L21.518,47.329c-19.074,0-43.543-4.168-51.311-11.875C-41.496,23.823-47.722-4.682-47.985-5.894
		c-2.343-7.19-2.738-14.841-1.015-21.285c1.815-6.85,5.771-11.576,11.135-13.314c1.439-0.467,2.93-0.7,4.462-0.7
		c9.816,0,19.744,9.466,24.135,23.024l7.484,23.03c21.528-6.054,34.761-9.117,39.345-9.117c0.711,0,1.258,0.061,1.754,0.198
		C43.756-2.822,49,6.011,51.676,13.693c2.171,6.236,4.909,17.929-1.125,26.233C46.119,46.041,32.318,47.329,21.518,47.329z
		 M-33.403-36.002c-0.984,0-1.947,0.152-2.86,0.446c-3.63,1.176-6.368,4.624-7.727,9.71c-1.46,5.491-1.095,12.098,1.014,18.608
		c0.142,0.538,6.227,28.464,16.844,39.001c5.659,5.627,27.481,10.373,47.65,10.373c15.506,0,22.989-2.717,24.835-5.253
		c4.491-6.186,2.353-15.636,0.68-20.717C44.04,7.076,39.285,1.372,37.916,0.941c-0.011,0-0.011,0-0.021,0
		c-4.462,0-19.157,3.499-40.674,9.588c-1.349,0.405-2.748-0.364-3.185-1.692l-8.234-25.403
		C-17.857-27.828-25.93-36.002-33.403-36.002z"/>
</g>
</svg>
