<?xml version="1.0" encoding="utf-8"?>
<!-- Generator: Adobe Illustrator 16.0.0, SVG Export Plug-In . SVG Version: 6.00 Build 0)  -->
<!DOCTYPE svg PUBLIC "-//W3C//DTD SVG 1.1//EN" "http://www.w3.org/Graphics/SVG/1.1/DTD/svg11.dtd">
<svg version="1.1" id="Layer_1" xmlns="http://www.w3.org/2000/svg" xmlns:xlink="http://www.w3.org/1999/xlink" x="0px" y="0px"
	 width="20.796px" height="8.098px" viewBox="0 0 20.796 8.098" enable-background="new 0 0 20.796 8.098" xml:space="preserve">
<g>
	<path fill="#FFFFFF" d="M44.671,5.075"/>
	<path fill="#FFFFFF" d="M45.232,6.201"/>
</g>
<path d="M4.894,3.799c1.882,0.71,1.675,2.872,0.728,3.604c-0.541,0.417-1.16,0.644-1.827,0.669C3.154,8.096,2.511,8.023,1.869,8
	c-0.324-0.012-0.412-0.167-0.41-0.486c0.015-2.057,0.007-4.111,0.007-6.167c0-0.164,0-0.328,0-0.53c-0.476,0-0.932,0-1.438,0
	C0.018,0.625,0.01,0.472,0,0.285c0.93,0,1.825-0.001,2.721,0C3.036,0.286,3.351,0.294,3.666,0.3c0.849,0.017,1.46,0.41,1.795,1.188
	C5.798,2.27,5.632,2.979,5.068,3.605C5.019,3.66,4.969,3.715,4.894,3.799z M1.974,4.168c0,1.07-0.004,2.101,0.009,3.13
	c0.001,0.08,0.124,0.211,0.208,0.229C3.075,7.7,3.957,7.69,4.796,7.333c0.766-0.325,1.146-1.082,0.987-1.871
	C5.635,4.729,5.021,4.205,4.207,4.174C3.488,4.146,2.769,4.168,1.974,4.168z M1.986,3.632C2.054,3.65,2.096,3.67,2.138,3.67
	c0.54,0,1.079,0,1.619-0.007C4.5,3.653,5.061,3.096,5.109,2.327C5.154,1.607,4.617,0.86,3.93,0.799
	C3.295,0.744,2.65,0.788,1.986,0.788C1.986,1.748,1.986,2.674,1.986,3.632z"/>
<path d="M13.423,7.937c0,0,2.412-5.234,3.658-7.938c1.258,2.716,3.715,8.016,3.715,8.016l-0.603,0.083l-1.231-2.602h-3.789
	l-1.176,2.417L13.423,7.937z M17.078,1.31c-0.584,1.263-1.135,2.452-1.688,3.648c1.154,0,2.236,0,3.367,0
	C18.194,3.735,17.654,2.563,17.078,1.31z"/>
<path d="M10.186,8.097c-1.474-0.015-2.609-1.143-2.6-2.582c0.01-1.521,1.169-2.644,2.706-2.619c1.43,0.021,2.515,1.186,2.499,2.679
	C12.777,6.989,11.619,8.11,10.186,8.097z M12.278,5.512c-0.006-1.187-0.925-2.11-2.096-2.107C9.053,3.408,8.11,4.373,8.122,5.514
	c0.012,1.125,1.004,2.103,2.107,2.075C11.349,7.562,12.285,6.613,12.278,5.512z"/>
</svg>
