<?xml version="1.0" encoding="utf-8"?>
<!-- Generator: Adobe Illustrator 16.0.0, SVG Export Plug-In . SVG Version: 6.00 Build 0)  -->
<!DOCTYPE svg PUBLIC "-//W3C//DTD SVG 1.1//EN" "http://www.w3.org/Graphics/SVG/1.1/DTD/svg11.dtd">
<svg version="1.1" id="Layer_1" xmlns="http://www.w3.org/2000/svg" xmlns:xlink="http://www.w3.org/1999/xlink" x="0px" y="0px"
	 width="69.672px" height="50.772px" viewBox="-41.841 -32.333 69.672 50.772"
	 enable-background="new -41.841 -32.333 69.672 50.772" xml:space="preserve">
<path opacity="0.9" fill="#FFFFFF" enable-background="new    " d="M-41.841,1.724c0,6.486,5.256,11.741,11.737,11.741H0.27
	c1.438,2.939,4.448,4.974,7.946,4.974c3.494,0,6.511-2.034,7.945-4.978c6.454-0.041,11.67-5.276,11.67-11.737
	c0-4.189-2.196-7.866-5.504-9.943c0.02-0.278,0.032-0.562,0.032-0.842c0-6.823-5.531-12.355-12.355-12.355
	c-1.163,0-2.282,0.164-3.344,0.464C5.473-27.427-0.189-32.333-7.003-32.333c-7.669,0-13.889,6.219-13.889,13.889
	c0,0.542,0.035,1.078,0.094,1.604c-4.315,0.45-7.966,3.117-9.798,6.843C-36.852-9.74-41.841-4.589-41.841,1.724z"/>
</svg>
