<?xml version="1.0" encoding="utf-8"?>
<!-- Generator: Adobe Illustrator 16.0.0, SVG Export Plug-In . SVG Version: 6.00 Build 0)  -->
<!DOCTYPE svg PUBLIC "-//W3C//DTD SVG 1.1//EN" "http://www.w3.org/Graphics/SVG/1.1/DTD/svg11.dtd">
<svg version="1.1" id="Layer_1" xmlns="http://www.w3.org/2000/svg" xmlns:xlink="http://www.w3.org/1999/xlink" x="0px" y="0px"
	 width="132.425px" height="96.504px" viewBox="-26.156 -16.565 132.425 96.504"
	 enable-background="new -26.156 -16.565 132.425 96.504" xml:space="preserve">
<path opacity="0.9" fill="#FFFFFF" enable-background="new    " d="M86.838,24.614c-3.498-7.118-10.473-12.216-18.713-13.075
	c0.114-1.006,0.18-2.027,0.18-3.063c0-14.655-11.882-26.537-26.534-26.537c-13.016,0-23.838,9.377-26.096,21.743
	c-2.034-0.57-4.178-0.884-6.397-0.884c-13.037,0-23.604,10.569-23.604,23.604c0,0.542,0.025,1.079,0.062,1.613
	c-6.316,3.965-10.52,10.989-10.52,19c0,12.34,9.969,22.344,22.294,22.416c2.743,5.625,8.502,9.51,15.182,9.51
	c6.676,0,12.433-3.882,15.178-9.501h58.029c12.382,0,22.422-10.039,22.422-22.425C108.321,34.943,98.788,25.105,86.838,24.614z"/>
</svg>
