<?xml version="1.0" encoding="utf-8"?>
<!-- Generator: Adobe Illustrator 16.0.0, SVG Export Plug-In . SVG Version: 6.00 Build 0)  -->
<!DOCTYPE svg PUBLIC "-//W3C//DTD SVG 1.1//EN" "http://www.w3.org/Graphics/SVG/1.1/DTD/svg11.dtd">
<svg version="1.1" id="Layer_1" xmlns="http://www.w3.org/2000/svg" xmlns:xlink="http://www.w3.org/1999/xlink" x="0px" y="0px"
	 width="205.922px" height="390.805px" viewBox="0 0 205.922 390.805" enable-background="new 0 0 205.922 390.805"
	 xml:space="preserve">
<g>
	<path fill="#FFFFFF" d="M165.534,367.922c-27.701,27.066-99.879,27.829-127.813,0C21.64,351.849,51.268,222.818,65.926,208.142
		c14.661-14.658,56.999-14.389,71.396,0C151.719,222.531,180.604,352.853,165.534,367.922z"/>
	<path d="M101.193,390.804c-27.397,0-51.73-7.947-65.089-21.261c-17.689-17.676,12.758-147.559,28.199-163.022
		c7.244-7.24,21.158-11.567,37.221-11.567c16.186,0,30.171,4.328,37.419,11.567c8.073,8.071,19.083,46.758,25.786,80.812
		c4.182,21.261,12.801,71.836,2.427,82.21C153.531,382.867,128.874,390.804,101.193,390.804z M101.524,199.541
		c-14.652,0-27.67,3.916-33.977,10.223C51.993,225.335,25.089,352.056,39.343,366.3c12.517,12.472,35.64,19.917,61.851,19.917
		c26.111,0,50.159-7.642,62.738-19.935c5.824-5.824,4.335-37.2-3.7-78.061c-7.418-37.657-18.188-72.115-24.531-78.458
		C129.393,203.455,116.294,199.541,101.524,199.541z"/>
</g>
<g>
	<path fill="#FDD3BE" d="M169.548,175.14c-1.469-3.356-2.32-7.417-2.32-12.171c0-7.422,9.138-3.221,18.447-3.221
		c1.63,0,3.252-0.121,4.82-0.278c7.311-13.945,11.486-30.274,11.486-48.183c0-16.817-3.924-33.292-10.894-48.081
		c-39.404,5.596-69.515,35.695-69.515,71.998c0,24.854,14.129,46.799,35.677,59.965c6.163-3.746,11.853-8.248,16.976-13.403
		C172.308,180.023,170.731,177.81,169.548,175.14z"/>
	<path d="M157.249,196.513l-0.602-0.368c-22.677-13.856-36.223-36.639-36.223-60.941c0-36.576,29.647-67.333,70.502-73.13
		l0.841-0.121l0.358,0.766c7.194,15.271,11.001,32.066,11.001,48.568c0,17.624-3.905,34.014-11.62,48.717l-0.286,0.546l-0.609,0.063
		c-1.936,0.192-3.504,0.282-4.937,0.282c-2.76,0-5.51-0.357-7.939-0.676c-1.998-0.264-3.879-0.506-5.402-0.506
		c-2.965,0-3.96,0.82-3.96,3.257c0,4.399,0.753,8.341,2.222,11.71c1.103,2.485,2.581,4.586,4.399,6.239l0.886,0.807l-0.842,0.846
		c-5.205,5.242-10.994,9.811-17.202,13.574L157.249,196.513z M190.406,64.466c-39.269,5.935-67.688,35.569-67.688,70.738
		c0,23.281,12.893,45.146,34.529,58.622c5.5-3.405,10.651-7.45,15.338-12.051c-1.657-1.715-3.028-3.786-4.087-6.168
		c-1.603-3.669-2.418-7.916-2.418-12.637c0-5.55,4.704-5.55,6.253-5.55c1.676,0,3.629,0.255,5.698,0.524
		c2.357,0.31,5.036,0.659,7.643,0.659c1.2,0,2.518-0.067,4.093-0.216c7.338-14.227,11.065-30.07,11.065-47.098
		C200.835,95.398,197.233,79.227,190.406,64.466z"/>
</g>
<g>
	<path fill="#FABBA0" d="M128.148,122.316c4.22-26.296,62.338-31.053,67.338-43.037c-38.499,5.282-80.769,12.346-80.769,46.585
		c0,23.451,20.498,69.305,44.277,66.276c-8.851-11.006-19.478-21.355-23.724-30.229
		C125.272,141.059,128.148,122.316,128.148,122.316z"/>
</g>
<g>
	<path fill="#D22027" d="M183.721,170.473c0,0,4.766-7.15,6.765-11.003c-1.568,0.157-3.198,0.277-4.811,0.277
		c-9.317,0-18.457-4.202-18.457,3.222c0,4.753,0.842,8.815,2.329,12.171c1.165,2.679,2.76,4.883,4.66,6.608
		C174.566,181.389,183.721,170.473,183.721,170.473z"/>
</g>
<g>
	<g>
		<path fill="#4A3215" d="M129.608,166.288c-5.07-9.451-8.045-19.952-8.045-31.102c0-36.303,42.646-51.52,82.068-57.128
			c-15.841-33.584-14.747-66.515-93.088-73.282c-52.569-4.552-91.42,51.474-91.42,106.494c0,7.827-1.075,15.697-2.222,23.375
			C32.772,148.719,73.102,177.241,129.608,166.288z"/>
	</g>
	<g>
		<path fill="#FAEF57" d="M129.608,166.288c-56.515,10.943-96.835-17.569-112.707-31.645c-2.845,18.949-6.164,36.591,4.927,48.748
			c16.66,18.238,62.63,24.742,88.715,24.742c17.059,0,33.024-4.685,46.686-12.991C145.35,187.885,135.862,177.904,129.608,166.288z"
			/>
	</g>
</g>
<g>
	<path d="M174.208,183.401c-0.395,0-0.788-0.138-1.112-0.435c-2.096-1.909-3.815-4.318-5.052-7.163
		c-1.64-3.71-2.472-8.028-2.472-12.835c0-4.018,2.275-6.056,6.754-6.056c1.712,0,3.646,0.255,5.752,0.533
		c2.472,0.317,5.017,0.648,7.598,0.648c1.335,0,2.759-0.079,4.641-0.273c0.583-0.067,1.201,0.22,1.54,0.727
		c0.342,0.501,0.377,1.155,0.09,1.693c-2.042,3.893-6.665,10.854-6.853,11.149c-0.037,0.045-0.072,0.099-0.117,0.148
		c-2.759,3.292-9.229,11.006-9.605,11.373C175.05,183.235,174.637,183.401,174.208,183.401z M172.325,160.214
		c-2.947,0-3.44,0.847-3.44,2.755c0,4.345,0.734,8.22,2.151,11.504c0.842,1.841,1.836,3.458,3.055,4.833
		c1.854-2.181,5.582-6.622,8.279-9.823c0.403-0.606,3.082-4.69,5.152-8.131c-0.646,0.027-1.282,0.044-1.846,0.044
		c-2.822,0-5.563-0.367-8.01-0.686C175.695,160.455,173.831,160.214,172.325,160.214z"/>
</g>
<g>
	<path fill="#CF5259" d="M174.189,179.498c3.028-3.167,5.143-5.697,7.687-9.313c-4.981,0.232-7.687,1.559-11.307,3.186
		C171.717,176.372,172.254,177.644,174.189,179.498z"/>
</g>
<g>
	<path d="M110.543,210.427c-26.981,0-73.332-6.791-90.404-25.484c-11.301-12.377-8.681-29.625-5.917-47.901
		c1.286-8.439,2.607-17.184,2.607-25.762c0-54.707,38.136-113.641,93.912-108.78c67.473,5.837,77.678,31.707,88.465,59.091
		c1.989,5.066,4.049,10.303,6.504,15.495c0.304,0.663,0.287,1.425-0.072,2.066c-0.332,0.644-0.959,1.084-1.684,1.182
		c-29.934,4.255-80.097,17.036-80.097,54.853c0,23.093,12.918,44.775,34.564,57.994c0.69,0.413,1.103,1.157,1.103,1.953
		c0,0.798-0.421,1.542-1.103,1.963C144.104,205.822,127.565,210.427,110.543,210.427z M104.562,6.822
		c-49.737,0-83.147,54.015-83.147,104.457c0,8.928-1.352,17.837-2.66,26.452c-2.72,17.896-5.066,33.355,4.762,44.116
		c15.97,17.48,61.85,23.994,87.018,23.994c14.917,0,29.448-3.727,42.278-10.797c-21.09-14.194-33.562-36.315-33.562-59.848
		c0-30.018,28.742-50.889,81.01-58.952c-1.953-4.385-3.673-8.736-5.339-12.973c-10.698-27.157-19.925-50.625-84.594-56.202
		C108.41,6.893,106.471,6.822,104.562,6.822z"/>
</g>
<g>
	<path d="M150.465,138.462c-0.268,0-0.537-0.045-0.797-0.144c-1.191-0.438-1.791-1.76-1.354-2.948
		c1.944-5.24,7.93-9.057,13.135-11.49c-12.508-3.341-15.071-11.665-15.195-12.09c-0.35-1.214,0.349-2.487,1.568-2.84
		c1.227-0.385,2.472,0.35,2.831,1.55c0.153,0.471,3.225,9.354,19.988,10.115c1.121,0.05,2.043,0.909,2.168,2.025
		c0.135,1.12-0.573,2.168-1.657,2.473c-4.39,1.237-16.288,5.783-18.537,11.853C152.276,137.887,151.398,138.462,150.465,138.462z"/>
</g>
<g>
	<path fill="#FFFFFF" d="M73.191,207.963c1.241,9.498-56.623,48.272-66.927,18.51c-10.311-29.78,14.076-63.598,21.615-52.121
		C55.138,215.838,71.955,198.465,73.191,207.963z"/>
	<path d="M22.795,239.814c-9.38,0-15.844-4.355-18.698-12.589c-6.128-17.695-0.686-37.109,7.422-48.497
		c4.117-5.778,8.534-8.963,12.449-8.963c1.662,0,4.022,0.578,5.828,3.329c17.672,26.896,30.574,28.186,37.504,28.885
		c3.699,0.367,7.521,0.753,8.166,5.689c0.273,2.104-0.914,4.642-3.642,7.75C63.094,225.362,39.652,239.814,22.795,239.814z
		 M23.969,174.351c-1.707,0-5.014,1.842-8.713,7.038c-7.428,10.428-12.417,28.186-6.822,44.331
		c2.213,6.396,6.913,9.505,14.361,9.505c15.191,0,36.958-13.322,45.271-22.487c2.89-3.181,2.854-4.47,2.849-4.481
		c-0.147-1.146-0.17-1.326-4.072-1.719c-7.69-0.771-22.008-2.204-40.881-30.928C25.228,174.495,24.512,174.351,23.969,174.351z"/>
</g>
<g>
	<g>
		<path fill="#253B7F" d="M71.018,358.147c0.046-0.564-0.052-1.146-0.313-1.766c-0.247-0.625-0.825-1.11-1.734-1.486
			c-0.999-0.412-1.935-0.34-2.812,0.197c-0.884,0.52-1.583,1.416-2.102,2.688c-0.524,1.273-0.655,2.419-0.395,3.423
			c0.247,1.002,0.87,1.72,1.877,2.115c0.882,0.358,1.644,0.375,2.302,0.07c0.663-0.304,1.187-0.734,1.573-1.219l1.76,0.699
			c-0.551,0.789-1.365,1.452-2.469,2.025c-1.102,0.547-2.355,0.528-3.79-0.054c-1.549-0.627-2.548-1.675-3.019-3.081
			c-0.449-1.434-0.327-3.012,0.358-4.714c0.699-1.703,1.707-2.884,3.02-3.583c1.33-0.691,2.76-0.717,4.313-0.09
			c1.456,0.582,2.392,1.469,2.813,2.598c0.412,1.12,0.56,2.097,0.412,2.894L71.018,358.147z"/>
	</g>
	<g>
		<path fill="#253B7F" d="M71.763,366.99l3.082-11.343l1.743,0.467l-2.66,9.766l5.881,1.613l-0.43,1.559L71.763,366.99z"/>
	</g>
	<g>
		<path fill="#253B7F" d="M90.183,367.17c-0.152,1.056-0.686,1.917-1.604,2.553c-0.917,0.654-2.1,0.887-3.511,0.654
			c-1.443-0.197-2.486-0.761-3.149-1.667c-0.65-0.903-0.9-1.879-0.726-2.938l1.24-8.044l1.815,0.267l-1.201,7.777
			c-0.081,0.556,0,1.148,0.256,1.775c0.25,0.637,0.918,1.021,2.011,1.219c1.094,0.161,1.874-0.02,2.329-0.539
			c0.458-0.545,0.736-1.074,0.807-1.63l1.191-7.794l1.792,0.287L90.183,367.17z"/>
	</g>
	<g>
		<path fill="#253B7F" d="M100.987,366.007c0.394,0.563,0.574,1.235,0.484,2.06c-0.09,0.949-0.52,1.72-1.334,2.294
			c-0.815,0.573-1.779,0.823-2.889,0.778l-4.999-0.17l0.366-11.791l5.085,0.18c1.045,0.036,1.859,0.313,2.469,0.859
			c0.596,0.539,0.945,1.13,0.999,1.811c0.099,0.681-0.009,1.271-0.322,1.737c-0.287,0.502-0.659,0.878-1.085,1.147
			C100.168,365.091,100.594,365.459,100.987,366.007z M98.963,368.997c0.376-0.338,0.578-0.771,0.596-1.325
			c0.018-0.556-0.144-0.985-0.528-1.327c-0.386-0.358-0.937-0.539-1.663-0.556l-3.186-0.106l-0.107,3.637l3.136,0.107
			C98.008,369.463,98.586,369.32,98.963,368.997z M98.69,363.73c0.35-0.306,0.542-0.699,0.551-1.2
			c0.018-0.493-0.13-0.862-0.461-1.112c-0.317-0.269-0.797-0.43-1.42-0.449l-3.028-0.097l-0.104,3.162l3.011,0.107
			C97.852,364.159,98.331,364.034,98.69,363.73z"/>
	</g>
	<g>
		<path fill="#253B7F" d="M116.85,369.535l-0.806-5.232l-5.43,0.824l0.807,5.241l-1.774,0.278l-1.797-11.639l1.779-0.261
			l0.734,4.722l5.429-0.833l-0.735-4.712l1.755-0.268l1.792,11.619L116.85,369.535z"/>
	</g>
	<g>
		<path fill="#253B7F" d="M127.063,356.437c1.255,0.825,2.133,2.122,2.634,3.905c0.484,1.775,0.395,3.351-0.268,4.749
			c-0.663,1.343-1.773,2.268-3.351,2.705c-1.595,0.449-3.011,0.216-4.265-0.609c-1.255-0.859-2.114-2.158-2.616-3.968
			c-0.467-1.765-0.396-3.325,0.251-4.686c0.644-1.345,1.755-2.25,3.35-2.688C124.376,355.398,125.809,355.611,127.063,356.437z
			 M127.78,364.276c0.376-0.978,0.376-2.124,0.018-3.414c-0.358-1.292-0.949-2.268-1.738-2.903
			c-0.824-0.645-1.738-0.807-2.831-0.528c-1.058,0.285-1.756,0.922-2.115,1.88c-0.359,0.977-0.377,2.087-0.019,3.378
			c0.358,1.299,0.95,2.284,1.738,2.939c0.806,0.644,1.739,0.84,2.813,0.555C126.67,365.916,127.404,365.27,127.78,364.276z"/>
	</g>
	<g>
		<path fill="#253B7F" d="M133.335,354.385l3.565,9.497l-1.702,0.6l-3.565-9.46l-3.511,1.318l-0.592-1.55l8.763-3.263l0.592,1.522
			L133.335,354.385z"/>
	</g>
</g>
<g>
	<path fill="#F40000" d="M58.946,257.651c-5.788-8.457-17.028-10.805-25.108-5.268c-8.086,5.554-9.936,16.88-4.14,25.328
		c5.447,7.928,17.642,13.286,25.789,9.308l1.043,4.229l4.771-4.587l-3.641-1.04C65.011,279.727,64.559,265.84,58.946,257.651z"/>
	<path d="M56.276,292.126l-1.101-4.461c-1.766,0.77-3.745,1.155-5.896,1.155c-7.244,0-15.64-4.56-19.958-10.85
		c-5.927-8.635-4.019-20.284,4.256-25.964c2.938-2.016,6.393-3.082,9.985-3.082c6.24,0,12.135,3.162,15.759,8.466
		c5.456,7.956,6.204,21.637-0.717,28.024l3.588,1.022L56.276,292.126z M55.797,286.357l0.991,4.014l3.624-3.485l-3.73-1.065
		l0.693-0.556c7.248-5.816,6.594-19.478,1.196-27.353c-3.458-5.053-9.067-8.064-15.006-8.064c-3.404,0-6.679,1.003-9.466,2.913
		c-7.857,5.402-9.658,16.476-4.022,24.691c4.166,6.057,12.237,10.456,19.205,10.456c2.221,0,4.241-0.438,6.006-1.3L55.797,286.357z"
		/>
</g>
<g>
	<g>
		<path d="M39.54,271.548c0.067,0.071,0.067,0.133,0,0.206c-0.054,0.07-0.126,0.07-0.202,0c-0.484-0.413-0.869-0.628-1.138-0.646
			c-0.264,0-0.537,0.116-0.815,0.377c-0.156,0.143-0.238,0.251-0.255,0.303c-0.009,0.072,0.026,0.171,0.125,0.26l2.756,2.939
			c0.174,0.188,0.299,0.277,0.402,0.277c0.099,0,0.282-0.126,0.543-0.359c0.035-0.034,0.08-0.053,0.124-0.053
			c0.041,0.019,0.077,0.036,0.113,0.053c0.026,0.037,0.045,0.082,0.054,0.126c0,0.055-0.009,0.09-0.054,0.143l-1.604,1.506
			c-0.085,0.07-0.166,0.07-0.251-0.018c-0.071-0.081-0.071-0.162,0.009-0.234c0.251-0.231,0.368-0.412,0.368-0.501
			c0.009-0.099-0.071-0.232-0.247-0.421l-2.75-2.93c-0.103-0.106-0.192-0.161-0.259-0.152c-0.063,0.018-0.184,0.098-0.327,0.243
			c-0.261,0.232-0.39,0.493-0.39,0.752c0,0.268,0.183,0.663,0.541,1.209c0.058,0.081,0.058,0.153-0.017,0.208
			c-0.072,0.054-0.148,0.054-0.192-0.019l-1.121-1.335c-0.026-0.045-0.045-0.081-0.036-0.098c0-0.018,0.018-0.054,0.054-0.09
			l3.158-2.957c0.037-0.017,0.062-0.053,0.09-0.053c0.022,0,0.049,0.017,0.094,0.053L39.54,271.548z"/>
	</g>
	<g>
		<path d="M42.604,266.36c0.076,0.089,0.076,0.161,0,0.233c-0.174,0.161-0.256,0.287-0.264,0.394
			c-0.009,0.1,0.036,0.287,0.146,0.556l1.91,4.694c0.027,0.073,0.009,0.134-0.044,0.188c-0.067,0.063-0.129,0.082-0.193,0.045
			l-4.865-2.294c-0.129-0.072-0.228-0.099-0.291-0.099c-0.076,0.009-0.192,0.081-0.35,0.224c-0.036,0.021-0.076,0.055-0.13,0.037
			c-0.035-0.017-0.071-0.037-0.099-0.053c-0.031-0.037-0.049-0.072-0.049-0.126c0-0.045,0.018-0.081,0.068-0.115l1.347-1.264
			c0.045-0.054,0.082-0.071,0.126-0.071c0.04,0.018,0.077,0.035,0.112,0.071c0.028,0.018,0.045,0.055,0.045,0.108
			c0,0.044-0.017,0.089-0.054,0.125c-0.229,0.224-0.331,0.349-0.304,0.43c0.009,0.054,0.094,0.126,0.228,0.187l3.691,1.766
			l-1.559-3.71c-0.076-0.162-0.148-0.25-0.225-0.269c-0.071-0.018-0.21,0.063-0.412,0.252c-0.036,0.035-0.081,0.053-0.125,0.053
			c-0.049-0.01-0.084-0.037-0.112-0.053c-0.027-0.036-0.044-0.073-0.044-0.126c0-0.036,0.027-0.091,0.063-0.117l1.147-1.065
			C42.451,266.287,42.532,266.287,42.604,266.36z"/>
	</g>
	<g>
		<path d="M48.67,268.151c-0.036,0.036-0.081,0.044-0.13,0.036c-0.044,0-0.081-0.027-0.108-0.054
			c-0.035-0.026-0.045-0.071-0.045-0.124c0-0.037,0.019-0.073,0.055-0.126c0.255-0.233,0.367-0.376,0.313-0.458
			c-0.049-0.054-0.215-0.115-0.506-0.169l-1.743-0.394l0.246,1.73c0.036,0.33,0.113,0.492,0.22,0.51
			c0.111,0,0.287-0.107,0.533-0.323c0.036-0.054,0.081-0.054,0.12-0.054c0.036,0,0.082,0.018,0.109,0.054
			c0.025,0.037,0.035,0.082,0.044,0.125c0.013,0.044-0.009,0.081-0.044,0.126l-1.322,1.235c-0.036,0.036-0.08,0.056-0.125,0.056
			c-0.058-0.021-0.094-0.037-0.12-0.073c-0.027-0.018-0.045-0.072-0.045-0.116c0-0.037,0.018-0.081,0.053-0.116
			c0.166-0.163,0.256-0.288,0.264-0.414c0-0.09-0.008-0.294-0.045-0.599l-0.309-2.213l-2.509-0.557
			c-0.192-0.053-0.318-0.089-0.394-0.089c-0.071,0-0.202,0.089-0.394,0.27c-0.081,0.07-0.153,0.07-0.229,0
			c-0.072-0.091-0.072-0.171,0.009-0.234l1.469-1.363c0.045-0.044,0.081-0.071,0.131-0.071c0.044,0.009,0.08,0.027,0.107,0.054
			c0.026,0.037,0.044,0.072,0.044,0.126c0,0.034-0.019,0.089-0.063,0.125c-0.21,0.197-0.313,0.341-0.291,0.412
			c0.018,0.072,0.107,0.126,0.3,0.162l1.724,0.359l-0.237-1.756c-0.018-0.197-0.076-0.287-0.157-0.295
			c-0.081,0-0.237,0.106-0.466,0.312c-0.085,0.091-0.166,0.082-0.242,0c-0.073-0.07-0.073-0.16,0.009-0.233l1.294-1.208
			c0.085-0.081,0.157-0.081,0.238,0.009c0.077,0.081,0.077,0.162-0.009,0.233c-0.21,0.197-0.319,0.341-0.319,0.43
			c0,0.071,0.009,0.216,0.045,0.413l0.292,2.204l2.499,0.563c0.292,0.081,0.484,0.099,0.587,0.116c0.099,0,0.255-0.108,0.467-0.287
			c0.034-0.036,0.08-0.052,0.13-0.052c0.044,0.016,0.071,0.034,0.106,0.07c0.027,0.018,0.049,0.063,0.06,0.108
			c0.008,0.044-0.011,0.088-0.05,0.125L48.67,268.151z"/>
	</g>
	<g>
		<path d="M54.103,263.224c0.063-0.063,0.134-0.063,0.192,0c0.171,0.198,0.265,0.431,0.291,0.698
			c0.027,0.286-0.053,0.539-0.264,0.718c-0.287,0.232-0.569,0.321-0.829,0.232c-0.255-0.081-0.538-0.25-0.825-0.492
			c-0.063,0.115-0.139,0.224-0.21,0.339c-0.08,0.098-0.174,0.189-0.256,0.278c-0.551,0.521-1.213,0.735-1.975,0.646
			c-0.771-0.082-1.42-0.414-1.953-0.969c-0.551-0.574-0.833-1.254-0.86-2.025c-0.031-0.771,0.229-1.406,0.779-1.935
			c0.551-0.52,1.21-0.735,1.98-0.645c0.771,0.072,1.419,0.403,1.971,0.968c0.358,0.394,0.595,0.841,0.725,1.361
			c0.13,0.539,0.157,0.968,0.055,1.345c0.223,0.17,0.452,0.304,0.681,0.394c0.228,0.09,0.411,0.071,0.559-0.053
			c0.121-0.125,0.157-0.251,0.099-0.358c-0.054-0.134-0.108-0.224-0.176-0.304C54.028,263.367,54.036,263.295,54.103,263.224z
			 M52.187,262.578c-0.184-0.322-0.408-0.645-0.691-0.933c-0.506-0.554-1.039-0.895-1.576-1.021
			c-0.551-0.161-1.04-0.034-1.479,0.377c-0.421,0.413-0.586,0.878-0.479,1.443c0.112,0.565,0.426,1.111,0.927,1.657
			c0.269,0.269,0.561,0.52,0.883,0.735c0.332,0.206,0.64,0.332,0.945,0.357l0.018-0.053c-0.288-0.214-0.431-0.493-0.439-0.815
			c-0.008-0.323,0.107-0.582,0.354-0.824c0.26-0.244,0.542-0.368,0.855-0.368c0.305,0,0.65,0.135,1.034,0.43
			C52.486,263.224,52.365,262.892,52.187,262.578z M52.195,264.443c0.053-0.08,0.117-0.198,0.185-0.323
			c-0.296-0.287-0.569-0.475-0.812-0.546c-0.247-0.081-0.474,0-0.694,0.207c-0.148,0.134-0.21,0.286-0.21,0.484
			c0.008,0.197,0.079,0.384,0.228,0.537c0.099,0.108,0.174,0.179,0.21,0.197c0.037,0.053,0.072,0.081,0.107,0.117
			c0.157-0.045,0.296-0.099,0.385-0.153c0.113-0.034,0.225-0.124,0.341-0.232C52.056,264.621,52.137,264.531,52.195,264.443z"/>
	</g>
</g>
</svg>
