<?xml version="1.0" encoding="utf-8"?>
<!-- Generator: Adobe Illustrator 16.0.0, SVG Export Plug-In . SVG Version: 6.00 Build 0)  -->
<!DOCTYPE svg PUBLIC "-//W3C//DTD SVG 1.1//EN" "http://www.w3.org/Graphics/SVG/1.1/DTD/svg11.dtd">
<svg version="1.1" id="Layer_1" xmlns="http://www.w3.org/2000/svg" xmlns:xlink="http://www.w3.org/1999/xlink" x="0px" y="0px"
	 width="1150.897px" height="382.194px" viewBox="-229.85 -153.25 1150.897 382.194"
	 enable-background="new -229.85 -153.25 1150.897 382.194" xml:space="preserve">
<rect x="-229.82" y="72.144" fill="#7F4E25" width="1150.867" height="156.8"/>
<path fill="#59361D" d="M921.153,29.45h-1151.08v51.618v12.981h163.348c-6.382,6.821-13.012,15.147-1.918,10.081
	c5.125-2.341,13.551-4.935,22.977-7.445c-6.782,6.925-17.578,18.91-4.779,13.064c7.135-3.26,20.657-7.006,34.391-10.344
	c20.731,2.325,43.196,5.338,55.73,8.565c19.597,5.048-3.685-7.066-17.57-13.922h82.85c-0.844,2.896-1.158,5.169,0.793,3.041
	c0.896-0.979,2.276-2.013,3.865-3.041h1.192c-1.373,3.914-3.021,9.408-0.318,6.452c1.636-1.783,4.84-3.771,8.11-5.527
	c5.233,1.564,10.922,3.534,14.161,5.52c4.406,2.7,0.233-2.396-3.375-6.444h87.189c-1.64,7.763-2.624,15.116,1.064,9.638
	c1.963-2.927,5.329-6.073,9.138-9.09c-2.176,8.892-5.539,24.315-0.632,17.021c2.733-4.065,8.186-8.577,13.771-12.548
	c9.248,3.685,19.316,8.313,25.107,12.932c8.152,6.505-0.302-6.316-7.014-15.819c5.271,1.262,10.252,2.692,14.221,4.279
	c7.867,3.135,1.948-1.179-6.166-6.413h18.148h20.563c-1.368,4.613-1.967,8.379,1.107,5.024c1.479-1.609,3.793-3.333,6.468-5.024
	h1.403c-2.127,6.021-4.842,14.866-0.612,10.258c2.507-2.732,7.406-5.781,12.415-8.472c8.015,2.391,16.73,5.406,21.688,8.447
	c6.881,4.219,0.104-3.975-5.494-10.233h115.302c-6.745,6.821-13.765,15.147-2.019,10.081c5.418-2.341,14.335-4.932,24.313-7.445
	c-7.188,6.925-18.603,18.91-5.059,13.064c7.549-3.257,21.854-7.001,36.393-10.336c21.937,2.317,45.71,5.335,58.97,8.565
	c20.727,5.047-3.902-7.074-18.593-13.93h87.667c-0.889,2.9-1.227,5.169,0.833,3.044c0.956-0.974,2.411-2.016,4.098-3.044h1.251
	c-1.448,3.914-3.192,9.408-0.324,6.457c1.729-1.782,5.119-3.775,8.577-5.526c5.531,1.559,11.555,3.531,14.982,5.514
	c4.664,2.702,0.256-2.39-3.568-6.444h92.265c-1.74,7.766-2.787,15.12,1.12,9.638c2.076-2.927,5.644-6.071,9.675-9.09
	c-2.308,8.892-5.869,24.315-0.67,17.021c2.891-4.065,8.656-8.571,14.568-12.545c9.783,3.682,20.442,8.313,26.573,12.935
	c8.621,6.502-0.316-6.318-7.427-15.825c5.582,1.262,10.847,2.7,15.05,4.279c8.328,3.139,2.064-1.179-6.523-6.413h40.963
	c-1.448,4.613-2.081,8.379,1.176,5.024c1.564-1.609,4.012-3.333,6.842-5.024h1.486c-2.252,6.021-5.126,14.866-0.646,10.258
	c2.647-2.732,7.829-5.781,13.132-8.469c8.479,2.388,17.704,5.403,22.952,8.451c7.281,4.212,0.109-3.977-5.814-10.235h31.713V29.45
	H921.153z"/>
<path fill="#C5DD86" d="M921.26-15.505h-0.21v-99.668H608.668c12.2-13.042,24.873-28.97,3.664-19.282
	c-9.804,4.476-25.913,9.432-43.937,14.235c12.971-13.241,33.608-36.167,9.142-24.99c-13.647,6.231-39.509,13.396-65.772,19.779
	c-39.648-4.442-82.608-10.202-106.574-16.38c-37.478-9.651,7.045,13.519,33.604,26.635H280.347c1.615-5.548,2.219-9.894-1.515-5.82
	c-1.715,1.867-4.352,3.851-7.391,5.82h-2.275c2.624-7.493,5.779-17.995,0.604-12.353c-3.13,3.412-9.254,7.212-15.512,10.573
	c-10.008-2.979-20.89-6.749-27.08-10.545c-8.427-5.168-0.446,4.574,6.456,12.325H66.893c3.138-14.85,5.018-28.908-2.032-18.426
	c-3.755,5.586-10.196,11.611-17.483,17.378c4.167-17.001,10.595-46.495,1.211-32.548c-5.227,7.773-15.651,16.398-26.338,23.988
	c-17.681-7.035-36.94-15.896-48.017-24.734c-15.584-12.433,0.577,12.087,13.411,30.257c-10.081-2.415-19.604-5.152-27.194-8.182
	c-15.043-5.997-3.722,2.254,11.79,12.26h-74.03c2.621-8.825,3.761-16.02-2.12-9.61c-2.828,3.082-7.257,6.374-12.373,9.61h-2.674
	c4.063-11.505,9.258-28.428,1.169-19.613c-4.794,5.221-14.164,11.053-23.742,16.193c-15.33-4.563-31.997-10.333-41.482-16.151
	c-13.158-8.065-0.193,7.598,10.511,19.571h-57.32v99.671V66.52v12.979h163.346c-6.38,6.821-13.01,15.147-1.917,10.081
	c5.125-2.341,13.551-4.934,22.977-7.445c-6.784,6.926-17.578,18.91-4.779,13.062c7.135-3.257,20.657-7.003,34.391-10.341
	c20.731,2.326,43.196,5.334,55.73,8.567c19.597,5.047-3.685-7.068-17.571-13.924h82.852c-0.845,2.897-1.16,5.169,0.791,3.041
	c0.898-0.978,2.275-2.012,3.866-3.041h1.19c-1.372,3.915-3.02,9.408-0.318,6.453c1.636-1.784,4.841-3.771,8.111-5.527
	c5.234,1.563,10.922,3.53,14.16,5.519c4.408,2.7,0.235-2.396-3.375-6.444h87.19c-1.639,7.763-2.626,15.117,1.063,9.638
	c1.965-2.926,5.33-6.072,9.141-9.09c-2.177,8.892-5.54,24.316-0.634,17.021c2.733-4.065,8.186-8.577,13.771-12.548
	c9.249,3.685,19.317,8.314,25.108,12.933c8.152,6.502-0.303-6.316-7.014-15.82c5.271,1.264,10.252,2.694,14.222,4.279
	c7.866,3.136,1.947-1.179-6.167-6.413h18.146l0,0h20.564c-1.368,4.614-1.967,8.379,1.107,5.026c1.479-1.61,3.793-3.335,6.468-5.026
	h1.402c-2.125,6.021-4.841,14.866-0.611,10.259c2.507-2.733,7.406-5.781,12.415-8.473c8.015,2.391,16.73,5.406,21.688,8.448
	c6.883,4.218,0.104-3.976-5.491-10.234h115.308c-6.752,6.821-13.771,15.147-2.025,10.081c5.416-2.341,14.335-4.93,24.31-7.445
	c-7.18,6.926-18.599,18.91-5.059,13.065c7.553-3.258,21.858-7.001,36.396-10.337c21.936,2.318,45.709,5.335,58.969,8.565
	c20.731,5.047-3.902-7.074-18.593-13.93h87.668c-0.889,2.897-1.228,5.169,0.837,3.044c0.953-0.974,2.407-2.015,4.094-3.044h1.251
	c-1.448,3.915-3.191,9.408-0.326,6.457c1.729-1.781,5.12-3.775,8.58-5.525c5.533,1.558,11.553,3.531,14.983,5.513
	c4.662,2.703,0.254-2.39-3.569-6.444h92.264c-1.74,7.766-2.788,15.12,1.12,9.638c2.076-2.926,5.646-6.07,9.674-9.09
	c-2.307,8.892-5.866,24.316-0.67,17.021c2.892-4.065,8.658-8.571,14.572-12.543c9.787,3.68,20.441,8.312,26.57,12.933
	c8.624,6.503-0.318-6.318-7.426-15.825c5.582,1.264,10.845,2.7,15.05,4.279c8.327,3.14,2.059-1.179-6.523-6.413h40.963
	c-1.448,4.614-2.082,8.379,1.175,5.026c1.564-1.61,4.012-3.335,6.843-5.026h1.486c-2.253,6.021-5.13,14.866-0.646,10.259
	c2.648-2.733,7.829-5.781,13.136-8.469c8.479,2.387,17.704,5.402,22.948,8.45c7.281,4.212,0.109-3.977-5.814-10.234h31.716v-95.009
	H921.26z"/>
<g>
	<path fill="#A1BC4A" d="M731.101-80.662c-3.443,7.167-9.253,14.925-15.799,22.37c4.104-21.704,10.521-59.353,1.918-41.465
		c-4.791,9.97-14.16,21.1-23.74,30.912c-15.33-8.712-31.996-19.73-41.48-30.835c-14.849-17.37,3.555,22.916,14.441,45.669h65.409
		C735.288-74.05,737.926-94.868,731.101-80.662z"/>
</g>
<g>
	<path fill="#A1BC4A" d="M-18.125-98.654c-2.379,4.951-6.394,10.315-10.916,15.452c2.837-14.997,7.272-41.008,1.327-28.643
		c-3.313,6.888-9.786,14.583-16.404,21.358c-10.591-6.02-22.11-13.632-28.662-21.302c-10.258-12.007,2.457,15.835,9.981,31.56
		h45.197C-15.232-94.086-13.405-108.469-18.125-98.654z"/>
</g>
<g>
	<path fill="#A1BC4A" d="M793.327-98.41c-1.801,3.741-4.834,7.796-8.253,11.686c2.146-11.34,5.5-31.011,1.004-21.66
		c-2.505,5.208-7.403,11.021-12.404,16.148c-8.006-4.551-16.718-10.307-21.674-16.109c-7.756-9.077,1.863,11.972,7.55,23.862h34.175
		C795.513-94.957,796.895-105.832,793.327-98.41z"/>
</g>
<g>
	<path fill="#A1BC4A" d="M158.395-101.04c-1.443,4.092-3.914,8.506-6.71,12.733c1.598-12.459,4.067-34.07,0.464-23.853
		c-2.008,5.698-6.011,12.016-10.112,17.581c-6.785-5.153-14.179-11.645-18.435-18.123c-5.981-9.11,0.223,8.859,5.147,22.174
		c-3.868-1.771-7.525-3.778-10.439-5.997c-7.017-5.34,0.898,4.722,8.497,13.794h31.807
		C160.09-94.981,161.502-109.859,158.395-101.04z"/>
</g>
<g>
	<path fill="#A1BC4A" d="M590.726-49.434c-2.198,4.576-5.907,9.528-10.081,14.276c2.621-13.85,6.714-37.873,1.227-26.455
		c-3.056,6.359-9.034,13.458-15.146,19.722c-9.784-5.558-20.419-12.59-26.472-19.68c-9.473-11.083,2.271,14.624,9.215,29.141h41.742
		C593.395-45.211,595.082-58.496,590.726-49.434z"/>
</g>
<g>
	<path fill="#A1BC4A" d="M630.429,2.351c-1.145,2.38-3.076,4.969-5.262,7.453c1.366-7.233,3.512-19.787,0.645-13.821
		c-1.604,3.321-4.728,7.032-7.921,10.307c-5.111-2.904-10.666-6.582-13.83-10.283c-4.955-5.79,1.188,7.64,4.817,15.227h21.807
		C631.829,4.549,632.712-2.385,630.429,2.351z"/>
</g>
<g>
	<path fill="#A1BC4A" d="M225.269,0.671c-0.92,2.612-2.499,5.421-4.283,8.118c1.022-7.951,2.597-21.743,0.297-15.22
		c-1.281,3.635-3.834,7.672-6.453,11.22c-4.328-3.293-9.049-7.433-11.761-11.566c-3.818-5.812,0.14,5.652,3.286,14.148
		c-2.469-1.124-4.804-2.401-6.662-3.826c-4.479-3.409,0.574,3.017,5.422,8.802h20.294C226.351,4.534,227.25-4.963,225.269,0.671z"/>
</g>
<g>
	<path fill="#A1BC4A" d="M-166.836-80.032c-0.562,1.59-1.522,3.307-2.605,4.949c0.619-4.842,1.58-13.241,0.181-9.268
		c-0.78,2.213-2.335,4.669-3.929,6.829c-2.638-2.005-5.511-4.527-7.163-7.045c-2.326-3.54,0.087,3.441,2.001,8.619
		c-1.503-0.689-2.924-1.468-4.059-2.329c-2.728-2.076,0.348,1.837,3.304,5.362h12.362
		C-166.179-77.676-165.631-83.458-166.836-80.032z"/>
</g>
<g>
	<path fill="#A1BC4A" d="M884.02-115.89c-0.567,1.588-1.521,3.307-2.606,4.949c0.621-4.846,1.577-13.241,0.184-9.273
		c-0.78,2.218-2.338,4.669-3.935,6.831c-2.635-2.004-5.508-4.526-7.159-7.045c-2.325-3.543,0.085,3.441,2.005,8.619
		c-1.502-0.689-2.927-1.469-4.061-2.328c-2.729-2.076,0.346,1.838,3.305,5.365h12.362
		C884.677-113.534,885.231-119.319,884.02-115.89z"/>
</g>
<path fill="#AF6A3A" d="M-113.718,156.792c0,4.779-3.878,8.652-8.656,8.652h-30.593c-4.78,0-8.658-3.873-8.658-8.652v-3.465
	c0-4.782,3.878-8.656,8.658-8.656h30.593c4.78,0,8.656,3.874,8.656,8.656V156.792z"/>
<path fill="#AA854F" d="M149.899,183.701c0-3.064,1.85-5.556,4.131-5.556h14.586c2.279,0,4.129,2.491,4.129,5.556v2.229
	c0,3.068-1.847,5.557-4.129,5.557H154.03c-2.278,0-4.131-2.488-4.131-5.557V183.701z"/>
<path fill="#632A16" d="M-107.036,165.499c0,4.112-2.477,7.454-5.535,7.454h-19.564c-3.058,0-5.536-3.339-5.536-7.454v-2.983
	c0-4.117,2.478-7.459,5.536-7.459h19.564c3.058,0,5.535,3.34,5.535,7.459V165.499z"/>
<path fill="#AF6A3A" d="M130.198,174.97c0-4.784,2.834-8.657,6.327-8.657h22.366c3.497,0,6.33,3.873,6.33,8.657v3.461
	c0,4.782-2.833,8.658-6.33,8.658h-22.366c-3.493,0-6.327-3.876-6.327-8.658V174.97z"/>
<path fill="#632A16" d="M125.311,166.264c0-4.115,1.814-7.458,4.049-7.458h14.3c2.236,0,4.05,3.34,4.05,7.458v2.983
	c0,4.112-1.814,7.455-4.05,7.455h-14.3c-2.235,0-4.049-3.338-4.049-7.455V166.264z"/>
<path fill="#AF6A3A" d="M354.475,148.61c0,2.587-2.104,4.688-4.691,4.688h-16.577c-2.594,0-4.691-2.102-4.691-4.688v-1.882
	c0-2.59,2.101-4.689,4.691-4.689h16.577c2.587,0,4.691,2.1,4.691,4.689V148.61z"/>
<path fill="#AA854F" d="M497.32,163.191c0-1.663,0.998-3.015,2.238-3.015h7.898c1.241,0,2.243,1.352,2.243,3.015v1.207
	c0,1.663-1.002,3.012-2.243,3.012h-7.898c-1.234,0-2.238-1.349-2.238-3.012V163.191z"/>
<path fill="#632A16" d="M358.094,153.325c0,2.231-1.346,4.043-3.002,4.043h-10.599c-1.659,0-3.002-1.812-3.002-4.043v-1.616
	c0-2.231,1.346-4.042,3.002-4.042h10.599c1.656,0,3.002,1.811,3.002,4.042V153.325z"/>
<path fill="#AF6A3A" d="M581.24,198.053c0,2.591-2.103,4.69-4.69,4.69h-16.578c-2.59,0-4.689-2.1-4.689-4.69v-1.878
	c0-2.59,2.1-4.693,4.689-4.693h16.578c2.588,0,4.69,2.104,4.69,4.693V198.053z"/>
<path fill="#632A16" d="M584.86,202.769c0,2.234-1.346,4.042-3.001,4.042h-10.597c-1.66,0-3.005-1.808-3.005-4.042v-1.616
	c0-2.229,1.345-4.039,3.005-4.039h10.597c1.655,0,3.001,1.81,3.001,4.039V202.769z"/>
<path fill="#AF6A3A" d="M486.643,158.459c0-2.592,1.533-4.692,3.429-4.692h12.123c1.891,0,3.431,2.101,3.431,4.692v1.876
	c0,2.594-1.535,4.694-3.431,4.694h-12.123c-1.89,0-3.429-2.101-3.429-4.694V158.459L486.643,158.459z"/>
<path fill="#632A16" d="M483.993,153.739c0-2.23,0.98-4.039,2.192-4.039h7.75c1.212,0,2.192,1.809,2.192,4.039v1.616
	c0,2.234-0.98,4.043-2.192,4.043h-7.75c-1.212,0-2.192-1.809-2.192-4.043V153.739L483.993,153.739z"/>
<path fill="#AF6A3A" d="M785.648,164.817c0-1.663,0.999-3.016,2.238-3.016h7.899c1.241,0,2.242,1.353,2.242,3.016v1.205
	c0,1.661-1.001,3.013-2.242,3.013h-7.899c-1.232,0-2.238-1.352-2.238-3.013V164.817z"/>
<path fill="#AA854F" d="M774.971,160.085c0-2.594,1.533-4.689,3.431-4.689h12.121c1.891,0,3.431,2.096,3.431,4.689v1.875
	c0,2.595-1.534,4.694-3.431,4.694h-12.121c-1.89,0-3.431-2.1-3.431-4.694V160.085z"/>
<path fill="#632A16" d="M772.323,155.367c0-2.232,0.979-4.042,2.19-4.042h7.751c1.211,0,2.191,1.81,2.191,4.042v1.616
	c0,2.232-0.98,4.041-2.191,4.041h-7.751c-1.211,0-2.19-1.809-2.19-4.041V155.367z"/>
</svg>
