<?xml version="1.0" encoding="utf-8"?>
<!-- Generator: Adobe Illustrator 16.0.0, SVG Export Plug-In . SVG Version: 6.00 Build 0)  -->
<!DOCTYPE svg PUBLIC "-//W3C//DTD SVG 1.1//EN" "http://www.w3.org/Graphics/SVG/1.1/DTD/svg11.dtd">
<svg version="1.1" id="Layer_1" xmlns="http://www.w3.org/2000/svg" xmlns:xlink="http://www.w3.org/1999/xlink" x="0px" y="0px"
	 width="169.5px" height="136.268px" viewBox="-78.527 -61.596 169.5 136.268"
	 enable-background="new -78.527 -61.596 169.5 136.268" xml:space="preserve">
<g>
	<path fill="#FFFFFF" d="M40.524,6.637"/>
	<path fill="#FFFFFF" d="M41.084,7.764"/>
</g>
<g>
	<path fill="#C32026" d="M86.42,27.755c5.996,8.339-5.29,21.034-21.889,32.969C47.946,72.635,34.668,75.24,28.662,66.89
		c-5.984-8.361-2.446-24.471,14.141-36.382C59.412,18.586,80.424,19.416,86.42,27.755z"/>
	<path d="M38.866,74.672c-5.358,0-9.704-2.105-12.571-6.087c-6.928-9.682-3.275-27.452,14.813-40.443
		c8.441-6.063,18.873-9.534,28.635-9.534c8.691,0,15.643,2.708,19.045,7.452c4.504,6.257,4.242,17.759-22.561,37.03
		C55.681,70.667,46.215,74.672,38.866,74.672z M69.742,24.433c-8.566,0-17.759,3.071-25.244,8.441
		c-14.926,10.728-18.612,25.131-13.471,32.32c4.836,6.758,16.781,3.948,31.809-6.837c17.338-12.469,25.268-23.266,21.217-28.908
		C81.824,26.356,76.34,24.433,69.742,24.433z"/>
</g>
<g>
	<path fill="#8DD2CA" d="M55.67,1.566L26.102-42.244c-0.227-0.33-0.512-0.569-0.739-0.899c-4.926-9.215-14.517-15.54-25.677-15.54
		h-46.074c-16.144,0-29.226,13.094-29.226,29.237c0,16.132,13.083,29.226,29.226,29.226h30.329L7.24,34.285
		c10.364,15.357,29.613,20.5,42.969,11.455C63.588,36.698,66.033,16.936,55.67,1.566z"/>
	<path d="M35.385,53.114L35.385,53.114c-11.695,0-23.4-6.588-30.557-17.201l-22.434-33.22h-28.782
		c-17.725,0-32.139-14.42-32.139-32.139c0-17.73,14.414-32.15,32.139-32.15h46.074c11.786,0,22.617,6.547,28.248,17.082
		c0.17,0.108,0.375,0.347,0.568,0.614L58.081-0.06c11.239,16.666,8.441,38.293-6.245,48.213
		C47.046,51.395,41.358,53.114,35.385,53.114z M-46.388-55.771c-14.517,0-26.314,11.809-26.314,26.325
		c0,14.511,11.797,26.314,26.314,26.314h30.329c0.967,0,1.866,0.483,2.412,1.28L9.652,32.658c6.099,9.021,15.95,14.63,25.733,14.63
		l0,0c4.801,0,9.363-1.365,13.186-3.959c12.025-8.123,14.129-26.132,4.688-40.136L23.69-40.617
		c-0.329-0.364-0.534-0.603-0.728-0.871c-4.79-8.919-13.64-14.283-23.276-14.283H-46.388z"/>
</g>
<g>
	<path d="M40.471,3.057c2.764,4.584,5.313,8.715,7.747,12.889c0.272,0.455,0.239,1.309-0.046,1.798
		c-2.309,4.335-4.709,8.635-7.338,13.379c-1.398-2.354-2.627-4.403-3.822-6.484c-1.49-2.571-4.039-5.165-4.072-7.782
		c-0.046-2.514,2.514-5.073,3.947-7.61C37.99,7.311,39.128,5.377,40.471,3.057z"/>
</g>
<g>
	<path d="M22.461,31.1c-2.627-4.471-5.051-8.555-7.747-13.151c3.208,0,5.938,0.057,8.657-0.034c0.615-0.023,1.195-0.523,1.787-0.797
		c-0.615-0.262-1.218-0.738-1.844-0.773c-2.742-0.079-5.494-0.033-8.736-0.033c2.639-4.563,5.073-8.783,7.701-13.345
		c2.73,4.63,5.279,8.919,7.748,13.242c0.227,0.41,0.17,1.207-0.068,1.639C27.58,22.147,25.123,26.412,22.461,31.1z"/>
</g>
<g>
	<path d="M31.346,15.411c-2.57-4.471-4.971-8.635-7.542-13.094c5.302,0,10.239,0,15.563,0C36.694,6.686,34.112,10.895,31.346,15.411
		z"/>
</g>
<g>
	<path d="M24.02,31.805c2.525-4.448,4.915-8.611,7.521-13.197c2.582,4.506,5.017,8.715,7.61,13.197
		C34.02,31.805,29.242,31.805,24.02,31.805z"/>
</g>
</svg>
