<?xml version="1.0" encoding="utf-8"?>
<!-- Generator: Adobe Illustrator 16.0.0, SVG Export Plug-In . SVG Version: 6.00 Build 0)  -->
<!DOCTYPE svg PUBLIC "-//W3C//DTD SVG 1.1//EN" "http://www.w3.org/Graphics/SVG/1.1/DTD/svg11.dtd">
<svg version="1.1" id="Layer_1" xmlns="http://www.w3.org/2000/svg" xmlns:xlink="http://www.w3.org/1999/xlink" x="0px" y="0px"
	 width="530.027px" height="217.784px" viewBox="0 0 530.027 217.784" enable-background="new 0 0 530.027 217.784"
	 xml:space="preserve">
<polygon fill="#CFECF0" points="347.664,-40.549 347.663,-40.549 347.663,-40.548 "/>
<polygon fill="#CFECF0" points="347.663,-40.549 347.663,-40.549 347.663,-40.549 "/>
<polygon fill="#CFECF0" points="317.182,55.852 317.182,55.852 317.182,55.852 "/>
<polygon fill="#CFECF0" points="317.182,55.852 317.184,55.853 317.183,55.852 "/>
<polygon fill="#CFECF0" points="347.663,-40.548 347.663,-40.549 347.663,-40.549 "/>
<polygon fill="#CFECF0" points="317.182,55.852 317.182,55.852 317.183,55.852 "/>
<path fill="#FFFFFF" d="M82.688,97.306L59.734,199.333c0,0,42.887-66.892,190.952-14.189s178.03,6.757,178.03,6.757l33.491-94.595
	c0,0-85.49,37.838-170.98,10.135S167.635,79.063,82.688,97.306z"/>
<path fill="none" d="M137.575,157.855c0,0,69.718-33.487,124.343,5.016c54.625,38.502,127.675,6.161,132.524-7.233"/>
<text transform="matrix(0.9799 -0.1996 0.1996 0.9799 149.2759 151.7852)"><tspan x="0" y="0" stroke="#31B992" stroke-miterlimit="10" font-family="'12LotteMartHappyBold'" font-size="48">덕</tspan><tspan x="41.222" y="-0.612" stroke="#31B992" stroke-miterlimit="10" font-family="'12LotteMartHappyBold'" font-size="48" rotate="16.458">후</tspan><tspan x="80.487" y="10.203" stroke="#31B992" stroke-miterlimit="10" font-family="'12LotteMartHappyBold'" font-size="48" rotate="38.202">달</tspan><tspan x="116.409" y="44.121" stroke="#31B992" stroke-miterlimit="10" font-family="'12LotteMartHappyBold'" font-size="48" rotate="26.562">리</tspan><tspan x="164.775" y="65.272" stroke="#31B992" stroke-miterlimit="10" font-family="'12LotteMartHappyBold'" font-size="48" rotate="1.398">기</tspan></text>
<g>
	<path fill="#94D3C5" d="M24.399,78.181c-14.158-24.063-10.913-52.232,7.25-62.919c0,0,0,0,0,0
		C7.585,29.42-0.444,60.405,13.713,84.468c14.158,24.063,45.143,32.092,69.206,17.935c0,0,0,0,0,0
		C64.758,113.088,38.557,102.244,24.399,78.181z"/>
	<path fill="#94D3C5" d="M100.854,33.197C86.696,9.134,55.712,1.104,31.649,15.261c18.162-10.685,44.361,0.16,58.519,24.222
		c14.158,24.063,10.914,52.232-7.247,62.918C106.982,88.243,115.012,57.259,100.854,33.197z"/>
	<polygon fill="#CFECF0" points="31.649,15.261 31.648,15.262 31.649,15.262 	"/>
	<polygon fill="#CFECF0" points="31.648,15.262 31.648,15.262 31.648,15.262 	"/>
	<polygon fill="#CFECF0" points="112.979,54.717 112.979,54.717 112.979,54.717 	"/>
	<polygon fill="#CFECF0" points="112.979,54.717 112.98,54.716 112.979,54.717 	"/>
	<path fill="#E24040" d="M90.168,39.483C76.01,15.421,49.811,4.576,31.649,15.261v0c8.665-5.098,27.167,10.276,41.324,34.339
		c14.158,24.063,18.611,47.703,9.947,52.801c0,0,0,0,0.001,0C101.082,91.715,104.326,63.546,90.168,39.483z"/>
	<path fill="#E24040" d="M41.594,68.063C27.436,44,22.983,20.36,31.648,15.262l0,0c-18.162,10.687-21.408,38.856-7.25,62.919
		s40.359,34.907,58.521,24.222l0,0C74.254,107.501,55.752,92.126,41.594,68.063z"/>
	<polygon fill="#CFECF0" points="31.649,15.262 31.648,15.262 31.648,15.262 	"/>
	<polygon fill="#CFECF0" points="112.979,54.717 112.979,54.717 112.979,54.717 	"/>
	<path fill="#94D3C5" d="M41.594,68.063c14.158,24.063,32.66,39.438,41.325,34.339c0,0,0,0,0,0
		c8.665-5.099,4.211-28.738-9.947-52.801c-14.158-24.063-32.66-39.437-41.324-34.339c0,0,0,0,0,0
		C22.983,20.36,27.436,44,41.594,68.063z"/>
</g>
<g>
	<path fill="#94D3C5" d="M437.935,40.068c8.417-26.62,31.527-43.05,51.62-36.698c-0.001,0-0.001,0-0.001,0
		c-26.62-8.417-55.023,6.34-63.44,32.96c-8.417,26.621,6.34,55.023,32.96,63.44c0,0,0,0,0,0
		C438.982,93.418,429.518,66.688,437.935,40.068z"/>
	<path fill="#94D3C5" d="M522.515,66.811c8.416-26.62-6.34-55.022-32.959-63.44c20.091,6.354,29.555,33.083,21.138,59.703
		s-31.526,43.05-51.618,36.699C485.695,108.187,514.098,93.431,522.515,66.811z"/>
	<path fill="#E24040" d="M510.693,63.073c8.417-26.62-1.047-53.349-21.138-59.703l-0.001,0c9.585,3.031,10.533,27.068,2.116,53.688
		c-8.416,26.621-23.011,45.743-32.596,42.713v0C479.167,106.123,502.276,89.692,510.693,63.073z"/>
	<path fill="#E24040" d="M456.957,46.083c8.417-26.62,23.011-45.743,32.598-42.712l0,0c-20.093-6.353-43.203,10.078-51.62,36.698
		s1.048,53.35,21.139,59.703l0,0C449.487,96.74,448.541,72.703,456.957,46.083z"/>
	<path fill="#94D3C5" d="M456.957,46.083c-8.416,26.621-7.47,50.658,2.116,53.688c0,0,0,0,0.002,0
		c9.585,3.03,24.18-16.092,32.596-42.713c8.417-26.62,7.469-50.657-2.116-53.688c0,0,0,0,0,0
		C479.968,0.339,465.374,19.462,456.957,46.083z"/>
</g>
</svg>
