<?xml version="1.0" encoding="utf-8"?>
<!-- Generator: Adobe Illustrator 16.0.0, SVG Export Plug-In . SVG Version: 6.00 Build 0)  -->
<!DOCTYPE svg PUBLIC "-//W3C//DTD SVG 1.1//EN" "http://www.w3.org/Graphics/SVG/1.1/DTD/svg11.dtd">
<svg version="1.1" id="Layer_1" xmlns="http://www.w3.org/2000/svg" xmlns:xlink="http://www.w3.org/1999/xlink" x="0px" y="0px"
	 width="226.165px" height="230.074px" viewBox="-350.645 -354.086 226.165 230.074"
	 enable-background="new -350.645 -354.086 226.165 230.074" xml:space="preserve">
<g>
	<path fill="#FFFFFF" d="M-221.204-282.492c0.275,0.146,0.502,0.269,0.746,0.393c5.001,2.544,9.421,5.885,13.268,9.988
		c2.473,2.625,4.561,5.518,6.375,8.656c0.149,0.247,0.204,0.673,0.707,0.371c3.321-2.042,6.304-4.44,8.424-7.782
		c2.889-4.573,3.337-9.608,2.567-14.833c-0.346-2.32-0.864-4.62-1.13-6.952c-0.432-3.709,0.738-6.591,3.854-8.734
		c2.591-1.794,4.875-3.945,6.831-6.446c6.579-8.432,8.283-17.737,4.93-27.93c-0.125-0.391-0.228-0.795-0.549-1.176
		c-0.228,0.773-0.4,1.48-0.604,2.187c-1.484,4.809-3.878,8.991-8.086,11.939c-3.596,2.524-7.726,3.588-12.004,4.161
		c-1.68,0.212-3.431,0.224-5.056,0.783c-6.877,2.389-11.07,7.356-13.401,14.094c-0.738,2.163-0.628,4.452-0.832,6.693
		c-0.448,4.519-1.688,8.756-4.326,12.524C-220.002-283.838-220.599-283.177-221.204-282.492z M-204.952-210.322
		c-0.079,0.043-0.118,0.055-0.141,0.09c-0.134,0.133-0.259,0.291-0.385,0.436c-5.786,6.928-12.962,11.819-21.523,14.688
		c-0.583,0.188-1.458,0.169-1.661,0.636c-0.235,0.506,0.269,1.201,0.495,1.806c2.868,8.106,8.495,12.918,17.084,14.128
		c2.536,0.357,5.072,0.357,7.615,0.604c4.138,0.404,7.223,2.065,8.691,6.222c0.809,2.312,2.018,4.452,3.431,6.469
		c6.029,8.601,14.202,13.119,24.777,13.131c1.138,0,2.292-0.079,3.541-0.357c-0.989-0.573-1.884-1.067-2.725-1.605
		c-3.815-2.387-6.893-5.46-8.691-9.665c-1.782-4.192-1.908-8.597-1.413-13.041c0.204-1.916,0.628-3.8,0.471-5.739
		c-0.683-8.129-7.647-16.008-14.799-17.759c-0.667-0.169-1.319-0.393-1.971-0.617c-4.475-1.594-8.439-3.925-11.478-7.658
		C-204.128-209.113-204.536-209.741-204.952-210.322z M-287.942-250.529c0.055-0.145,0.079-0.212,0.1-0.291
		c2.31-9.429,6.989-17.457,14.144-24.038c0.287-0.248,0.287-0.416,0.021-0.662c-0.997-1.032-2.029-2.008-3.144-2.905
		c-4.086-3.319-8.711-4.989-14.014-4.551c-3.022,0.257-5.88,1.11-8.65,2.31c-2.008,0.864-4.037,1.647-6.173,2.186
		c-2.712,0.662-5.134,0.202-7.258-1.67c-0.44-0.393-0.903-0.764-1.353-1.156c-2.471-2.163-5.168-3.99-8.151-5.336
		c-9.288-4.192-18.359-3.757-27.211,1.29c-0.393,0.235-0.756,0.504-1.148,0.764c1.676,0.178,3.307,0.312,4.899,0.604
		c5.058,0.896,9.351,3.128,12.597,7.176c2.495,3.128,3.999,6.726,5.158,10.504c0.408,1.334,0.918,2.603,1.653,3.778
		c2.283,3.679,5.556,6.155,9.468,7.826c3.539,1.525,7.209,2.232,11.066,1.515c2.954-0.54,5.904-0.718,8.881-0.383
		C-293.834-253.219-290.769-252.321-287.942-250.529z M-275.65-352.532c0.885,1.244,1.743,2.501,2.495,3.823
		c2.546,4.474,3.639,9.206,2.591,14.34c-0.791,3.891-2.536,7.366-4.777,10.595c-2.915,4.25-3.582,8.88-2.73,13.824
		c0.897,5.091,3.225,9.329,7.197,12.77c4.34,3.769,7.417,8.411,8.371,14.23c0.088,0.581,0.359,0.324,0.622,0.212
		c8.677-4.025,17.747-5.303,27.206-3.914c0.532,0.091,0.622-0.055,0.689-0.537c0.229-1.794,0.314-3.598,0.218-5.416
		c-0.206-3.733-1.25-7.197-3.464-10.259c-2.41-3.353-5.65-5.672-9.266-7.545c-2.018-1.054-3.986-2.175-5.741-3.609
		c-1.653-1.356-2.758-3.017-2.881-5.215c-0.033-0.75-0.043-1.513-0.021-2.263c0.057-2.648,0.033-5.282-0.45-7.906
		c-1.552-8.565-5.774-15.358-13.168-20.079C-270.884-350.838-273.155-351.904-275.65-352.532z M-124.48-246.313
		c-0.549,0.214-1.091,0.438-1.641,0.628c-0.558,0.224-1.123,0.414-1.68,0.595c-7.341,2.389-14.085,1.266-20.138-3.588
		c-1.767-1.435-3.407-3.039-4.954-4.732c-1.232-1.378-2.677-2.477-4.326-3.329c-3.926-1.996-8.094-2.557-12.428-2.063
		c-3.407,0.414-6.524,1.559-9.303,3.643c-1.107,0.852-2.355,1.525-3.611,2.165c-3.855,1.928-7.89,3.105-12.287,2.758
		c-0.887-0.079-0.871-0.09-0.69,0.785c1.052,5.246,1.256,10.516,0.534,15.819c-0.518,3.914-1.523,7.69-3.007,11.345
		c-0.157,0.416-0.165,0.628,0.314,0.773c0.722,0.204,1.39,0.495,2.112,0.707c4.671,1.449,9.335,1.684,13.943-0.224
		c3.494-1.433,6.335-3.752,8.84-6.512c1.437-1.582,2.881-3.162,4.506-4.587c2.395-2.108,5.04-2.87,8.181-1.918
		c2.269,0.697,4.545,1.268,6.885,1.525c9.068,0.987,17.123-1.266,23.914-7.512C-127.385-241.849-125.712-243.879-124.48-246.313z
		 M-261.838-124.012c-0.149-1.044-0.296-1.92-0.402-2.771c-0.504-4.295-0.124-8.456,1.794-12.389
		c1.776-3.655,4.579-6.402,7.865-8.68c1.435-1.021,2.983-1.86,4.485-2.779c3.823-2.375,6.122-5.943,7.429-10.124
		c1.541-4.899,1.653-9.778-0.483-14.563c-0.471-1.044-0.791-2.143-1.099-3.25c-1.229-4.553-1.574-9.126-0.045-13.68
		c0.19-0.562-0.163-0.472-0.448-0.472c-2.102-0.012-4.183-0.212-6.245-0.525c-7.272-1.146-13.92-3.792-19.945-8.004
		c-0.45-0.314-0.619-0.192-0.87,0.2c-0.797,1.245-1.553,2.524-2.187,3.835c-1.973,4.125-2.63,8.42-1.57,12.915
		c0.791,3.419,2.422,6.446,4.44,9.26c1.334,1.86,2.606,3.757,3.584,5.829c1.126,2.41,1.115,4.766-0.157,7.121
		c-0.82,1.523-1.676,3.038-2.355,4.651c-4.25,10.238-3.778,20.06,2.618,29.367C-264.444-126.639-263.306-125.304-261.838-124.012z
		 M-344.524-182.628c0.92-0.966,1.688-1.829,2.518-2.646c2.915-2.874,6.291-4.993,10.332-5.888c3.878-0.863,7.702-0.416,11.492,0.64
		c1.984,0.569,3.867,1.445,5.853,2.018c3.941,1.111,7.787,0.64,11.531-0.829c4.82-1.884,8.732-4.867,11.154-9.578
		c0.516-0.985,1.138-1.927,1.784-2.834c2.707-3.835,6.025-6.976,10.495-8.711c0.514-0.216,0.285-0.404,0.088-0.663
		c-5.83-7.646-9.082-16.257-9.737-25.843c-0.023-0.426-0.185-0.526-0.561-0.481c-1.009,0.157-2.034,0.245-3.042,0.436
		c-4.439,0.82-8.381,2.625-11.47,6.022c-2.585,2.848-4.165,6.222-5.213,9.865c-0.724,2.5-1.386,5.001-2.579,7.333
		c-1.115,2.155-2.803,3.556-5.213,4.047c-1.347,0.282-2.708,0.518-4.043,0.852c-9.882,2.481-17.288,7.996-21.341,17.559
		C-343.604-188.606-344.304-185.745-344.524-182.628z M-170.439-280.35c-0.283,0.56-0.502,0.997-0.73,1.446
		c-3.902,7.826-11.195,11.021-18.725,9.798c-0.377-0.055-0.557,0.067-0.746,0.371c-2.12,3.229-4.946,5.627-8.393,7.31
		c-0.432,0.235-0.511,0.414-0.298,0.863c1.099,2.196,1.994,4.473,2.677,6.829c0.149,0.426,0.346,0.628,0.754,0.75
		c2.552,0.818,5.134,0.921,7.733,0.359c4.342-0.931,8.071-3.072,11.329-6.02c5.064-4.575,7.78-10.181,7.333-17.133
		C-169.623-277.312-169.866-278.792-170.439-280.35z M-165.721-209.675c-0.762,0.169-1.39,0.307-1.994,0.428
		c-7.804,1.625-14.956-1.535-18.929-8.354c-0.22-0.357-0.432-0.483-0.825-0.448c-3.792,0.369-7.403-0.29-10.857-1.86
		c-0.471-0.235-0.667-0.157-0.895,0.326c-1.029,2.199-2.238,4.302-3.612,6.289c-0.267,0.381-0.314,0.671-0.141,1.1
		c1.06,2.712,2.811,4.898,5.143,6.626c4.059,3.015,8.699,4.518,13.723,4.844c6.595,0.424,12.2-1.715,16.683-6.626
		C-166.82-208.014-166.231-208.74-165.721-209.675z M-323.58-234.226c0.135-0.012,0.157-0.012,0.179-0.021
		c0.259-0.202,0.522-0.426,0.785-0.616c2.995-2.389,6.336-4.025,10.232-4.285c4.035-0.279,7.702,0.831,11.066,3.05
		c0.275,0.19,0.493,0.393,0.879,0.145c3.319-2.051,6.934-3.048,10.83-3.093c0.41,0,0.517-0.147,0.517-0.538
		c0-2.479,0.151-4.956,0.538-7.401c0.067-0.459-0.055-0.75-0.387-1.052c-1.749-1.627-3.755-2.76-6.043-3.388
		c-4.636-1.299-9.238-0.94-13.772,0.461c-6.2,1.918-10.887,5.627-13.494,11.704C-322.942-237.669-323.423-236.009-323.58-234.226z
		 M-218.526-161.54c-0.243-0.18-0.495-0.369-0.73-0.549c-6.232-4.899-8.575-11.772-6.467-19.07c0.204-0.73,0.773-1.503,0.64-2.155
		c-0.145-0.66-0.942-1.186-1.437-1.794c-1.984-2.477-3.284-5.268-4.047-8.354c-0.066-0.255,0-0.624-0.526-0.502
		c-2.5,0.604-5.04,0.974-7.607,1.143c-0.381,0.023-0.601,0.168-0.785,0.494c-1.111,1.904-1.767,3.938-1.973,6.12
		c-0.353,3.646,0.369,7.109,1.721,10.461c1.961,4.856,4.915,8.958,9.508,11.683C-226.666-161.945-222.79-161.081-218.526-161.54z
		 M-297.682-299.67c0.55,0.114,0.921,0.202,1.274,0.281c8.336,1.794,13.572,7.58,14.373,15.91c0.04,0.371,0.185,0.528,0.522,0.628
		c3.57,1.245,6.53,3.352,8.973,6.222c0.32,0.371,0.505,0.337,0.842,0.069c1.939-1.615,4.014-3.05,6.222-4.294
		c0.342-0.202,0.481-0.426,0.516-0.842c0.196-3.026-0.528-5.819-2.023-8.408c-3.246-5.584-7.967-9.474-14.071-11.549
		c-5.288-1.794-10.45-1.289-15.411,1.268C-296.839-300.196-297.187-299.96-297.682-299.67z M-288.05-172.563
		c0-0.424,0-0.647,0-0.895c-0.033-1.861,0.096-3.714,0.567-5.504c1.613-6.28,5.666-10.237,11.709-12.278
		c0.387-0.122,0.64-0.248,0.701-0.73c0.454-3.733,1.89-7.085,4.155-10.1c0.239-0.314,0.218-0.495-0.106-0.73
		c-2.053-1.59-3.947-3.364-5.692-5.269c-0.24-0.259-0.459-0.337-0.817-0.278c-2.445,0.4-4.659,1.343-6.61,2.857
		c-4.766,3.698-7.59,8.632-8.991,14.418c-0.999,4.114-0.736,8.161,0.862,12.118C-291.318-176.63-290.001-174.502-288.05-172.563z
		 M-230.097-320.678c0.337,0.694,0.604,1.209,0.864,1.749c3.533,7.445,2.231,14.833-3.604,20.607
		c-0.275,0.28-0.242,0.482-0.136,0.807c1.239,3.476,1.486,7.04,0.858,10.685c-0.079,0.483-0.012,0.65,0.483,0.763
		c2.465,0.526,4.875,1.254,7.217,2.208c0.416,0.179,0.683,0.124,1.044-0.135c2.379-1.749,4.067-4.047,5.158-6.771
		c1.869-4.709,2.151-9.564,1.209-14.509c-0.824-4.338-2.755-8.083-5.998-11.121C-224.994-318.302-227.306-319.739-230.097-320.678z"
		/>
	<path fill="#FCE900" d="M-221.204-282.492c0.604-0.694,1.201-1.346,1.711-2.063c2.623-3.769,3.878-8.018,4.311-12.536
		c0.22-2.241,0.086-4.53,0.848-6.693c2.324-6.726,6.516-11.694,13.401-14.092c1.649-0.562,3.376-0.573,5.056-0.785
		c4.294-0.562,8.408-1.637,12.004-4.149c4.208-2.948,6.626-7.131,8.094-11.939c0.212-0.706,0.393-1.413,0.604-2.198
		c0.33,0.381,0.432,0.797,0.542,1.188c3.353,10.192,1.649,19.498-4.93,27.93c-1.955,2.501-4.24,4.652-6.831,6.446
		c-3.117,2.153-4.287,5.025-3.854,8.734c0.251,2.344,0.769,4.642,1.115,6.952c0.785,5.237,0.337,10.259-2.575,14.844
		c-2.104,3.34-5.087,5.729-8.408,7.771c-0.502,0.302-0.558-0.124-0.715-0.371c-1.798-3.139-3.886-6.032-6.375-8.656
		c-3.839-4.104-8.259-7.433-13.268-9.988C-220.701-282.213-220.929-282.346-221.204-282.492z"/>
	<path fill="#FCE900" d="M-204.952-210.322c0.44,0.581,0.848,1.197,1.295,1.771c3.046,3.733,7.019,6.053,11.478,7.658
		c0.66,0.236,1.303,0.459,1.971,0.617c7.152,1.739,14.116,9.629,14.799,17.759c0.157,1.939-0.251,3.835-0.471,5.739
		c-0.471,4.452-0.369,8.848,1.437,13.041c1.798,4.205,4.868,7.278,8.683,9.665c0.848,0.538,1.743,1.032,2.732,1.605
		c-1.233,0.279-2.403,0.357-3.541,0.357c-10.567-0.012-18.756-4.53-24.777-13.131c-1.39-2.018-2.615-4.157-3.423-6.469
		c-1.468-4.157-4.561-5.83-8.691-6.222c-2.528-0.248-5.087-0.248-7.607-0.604c-8.604-1.209-14.208-6.022-17.1-14.128
		c-0.214-0.604-0.73-1.288-0.495-1.806c0.202-0.467,1.078-0.448,1.67-0.636c8.552-2.869,15.728-7.76,21.529-14.688
		c0.118-0.146,0.235-0.279,0.369-0.436C-205.07-210.256-205.031-210.279-204.952-210.322z"/>
	<path fill="#FCE900" d="M-287.942-250.529c-2.826-1.792-5.892-2.691-9.115-3.027c-2.989-0.323-5.938-0.157-8.881,0.381
		c-3.857,0.719-7.527,0-11.066-1.513c-3.912-1.67-7.186-4.159-9.468-7.825c-0.734-1.188-1.245-2.456-1.653-3.778
		c-1.16-3.778-2.664-7.378-5.158-10.495c-3.246-4.059-7.539-6.289-12.597-7.186c-1.592-0.293-3.223-0.438-4.899-0.616
		c0.393-0.259,0.756-0.528,1.16-0.764c8.852-5.046,17.921-5.482,27.211-1.29c2.983,1.356,5.678,3.173,8.151,5.336
		c0.448,0.393,0.918,0.752,1.351,1.156c2.114,1.882,4.536,2.342,7.248,1.68c2.136-0.538,4.165-1.323,6.173-2.187
		c2.77-1.199,5.627-2.051,8.65-2.296c5.292-0.438,9.916,1.221,14.014,4.54c1.115,0.908,2.147,1.884,3.144,2.902
		c0.265,0.259,0.265,0.428-0.01,0.673c-7.166,6.571-11.845,14.599-14.155,24.028C-287.864-250.729-287.887-250.674-287.942-250.529z
		"/>
	<path fill="#FCE900" d="M-275.65-352.532c2.495,0.628,4.766,1.694,6.889,3.06c7.394,4.71,11.633,11.515,13.18,20.081
		c0.471,2.624,0.494,5.247,0.438,7.895c-0.021,0.761-0.012,1.513,0.033,2.274c0.13,2.198,1.229,3.847,2.87,5.213
		c1.755,1.437,3.723,2.558,5.741,3.6c3.605,1.885,6.844,4.204,9.254,7.545c2.204,3.062,3.258,6.526,3.466,10.259
		c0.106,1.818,0,3.622-0.22,5.416c-0.067,0.482-0.157,0.628-0.689,0.537c-9.447-1.401-18.517-0.111-27.194,3.914
		c-0.263,0.124-0.516,0.369-0.622-0.212c-0.954-5.81-4.031-10.461-8.371-14.218c-3.973-3.441-6.3-7.681-7.186-12.77
		c-0.864-4.944-0.196-9.586,2.73-13.824c2.229-3.229,3.974-6.704,4.775-10.595c1.06-5.136-0.033-9.866-2.577-14.342
		C-273.907-350.031-274.753-351.288-275.65-352.532z"/>
	<path fill="#FCE900" d="M-124.48-246.313c-1.232,2.434-2.905,4.452-4.86,6.257c-6.783,6.243-14.83,8.508-23.914,7.512
		c-2.355-0.258-4.64-0.831-6.885-1.525c-3.132-0.952-5.778-0.19-8.181,1.917c-1.625,1.423-3.069,3.005-4.506,4.585
		c-2.504,2.76-5.346,5.08-8.832,6.516c-4.625,1.916-9.288,1.668-13.951,0.224c-0.714-0.216-1.39-0.494-2.104-0.706
		c-0.487-0.146-0.487-0.361-0.314-0.773c1.476-3.654,2.489-7.435,2.999-11.349c0.722-5.303,0.542-10.571-0.534-15.819
		c-0.181-0.874-0.181-0.864,0.707-0.785c4.381,0.359,8.417-0.828,12.295-2.758c1.256-0.638,2.504-1.311,3.611-2.163
		c2.771-2.063,5.896-3.207,9.327-3.6c4.311-0.492,8.479,0.069,12.405,2.063c1.648,0.842,3.101,1.951,4.326,3.331
		c1.539,1.704,3.164,3.308,4.954,4.73c6.053,4.855,12.781,5.977,20.138,3.588c0.557-0.179,1.123-0.381,1.68-0.593
		C-125.571-245.875-125.029-246.098-124.48-246.313z"/>
	<path fill="#FCE900" d="M-261.838-124.012c-1.457-1.292-2.606-2.626-3.592-4.071c-6.396-9.307-6.856-19.128-2.606-29.366
		c0.667-1.613,1.523-3.117,2.353-4.64c1.274-2.367,1.284-4.711,0.157-7.121c-0.964-2.072-2.248-3.969-3.582-5.829
		c-2.018-2.826-3.649-5.853-4.44-9.272c-1.06-4.483-0.404-8.777,1.57-12.903c0.644-1.323,1.39-2.603,2.187-3.847
		c0.251-0.381,0.42-0.502,0.868-0.188c6.027,4.212,12.675,6.87,19.947,8.004c2.063,0.313,4.153,0.502,6.243,0.525
		c0.298,0,0.64-0.102,0.45,0.472c-1.531,4.561-1.195,9.138,0.045,13.688c0.296,1.111,0.628,2.198,1.099,3.243
		c2.136,4.785,2.012,9.676,0.481,14.563c-1.317,4.192-3.604,7.757-7.427,10.135c-1.492,0.931-3.039,1.771-4.485,2.779
		c-3.286,2.289-6.088,5.037-7.865,8.691c-1.917,3.921-2.298,8.094-1.794,12.389C-262.134-125.921-261.999-125.057-261.838-124.012z"
		/>
	<path fill="#FCE900" d="M-344.524-182.628c0.231-3.117,0.909-5.979,2.068-8.691c4.053-9.563,11.47-15.081,21.343-17.559
		c1.335-0.333,2.697-0.569,4.042-0.852c2.41-0.483,4.098-1.884,5.213-4.047c1.195-2.332,1.855-4.821,2.585-7.333
		c1.042-3.643,2.63-7.017,5.207-9.865c3.089-3.397,7.031-5.203,11.47-6.022c1.009-0.178,2.024-0.269,3.044-0.438
		c0.381-0.055,0.538,0.045,0.562,0.483c0.655,9.586,3.906,18.197,9.735,25.843c0.196,0.259,0.438,0.447-0.088,0.66
		c-4.469,1.739-7.774,4.868-10.495,8.714c-0.644,0.907-1.278,1.849-1.782,2.834c-2.422,4.711-6.335,7.694-11.156,9.574
		c-3.745,1.46-7.602,1.932-11.531,0.833c-1.984-0.573-3.869-1.46-5.853-2.018c-3.79-1.056-7.613-1.515-11.492-0.651
		c-4.053,0.907-7.416,3.015-10.332,5.888C-342.824-184.457-343.604-183.594-344.524-182.628z"/>
	<path fill="#FCCE0F" d="M-170.439-280.35c0.573,1.559,0.84,3.038,0.935,4.552c0.447,6.94-2.253,12.546-7.333,17.131
		c-3.258,2.95-6.979,5.091-11.329,6.021c-2.622,0.56-5.189,0.471-7.733-0.359c-0.416-0.124-0.628-0.326-0.754-0.752
		c-0.683-2.353-1.578-4.63-2.677-6.826c-0.212-0.449-0.134-0.628,0.298-0.863c3.446-1.683,6.272-4.083,8.393-7.312
		c0.188-0.302,0.369-0.426,0.746-0.369c7.529,1.233,14.823-1.962,18.725-9.8C-170.942-279.342-170.722-279.791-170.439-280.35z"/>
	<path fill="#FCCE0F" d="M-165.721-209.675c-0.511,0.942-1.1,1.661-1.704,2.336c-4.491,4.919-10.104,7.05-16.707,6.626
		c-5.017-0.326-9.649-1.829-13.724-4.844c-2.308-1.728-4.059-3.914-5.119-6.626c-0.173-0.428-0.149-0.719,0.141-1.1
		c1.382-1.986,2.607-4.094,3.612-6.288c0.228-0.483,0.424-0.542,0.895-0.326c3.454,1.57,7.065,2.229,10.834,1.86
		c0.424-0.047,0.628,0.079,0.84,0.448c3.957,6.807,11.132,9.967,18.913,8.354C-167.095-209.368-166.482-209.506-165.721-209.675z"/>
	<path fill="#FCCE0F" d="M-323.58-234.226c0.157-1.782,0.638-3.431,1.329-5.022c2.606-6.088,7.293-9.798,13.494-11.716
		c4.546-1.401,9.137-1.76,13.772-0.461c2.277,0.628,4.294,1.761,6.043,3.376c0.332,0.302,0.454,0.604,0.387,1.054
		c-0.404,2.444-0.55,4.921-0.55,7.388c0,0.404-0.106,0.538-0.514,0.538c-3.898,0.045-7.525,1.044-10.83,3.095
		c-0.389,0.248-0.595,0.033-0.881-0.145c-3.353-2.22-7.029-3.331-11.072-3.05c-3.89,0.257-7.219,1.894-10.226,4.283
		c-0.263,0.202-0.532,0.416-0.783,0.616C-323.423-234.238-323.444-234.248-323.58-234.226z"/>
	<path fill="#FCCE0F" d="M-218.526-161.54c-4.239,0.471-8.116-0.404-11.704-2.524c-4.593-2.725-7.547-6.826-9.508-11.694
		c-1.352-3.352-2.074-6.814-1.721-10.457c0.218-2.175,0.874-4.216,1.973-6.124c0.196-0.326,0.416-0.471,0.785-0.494
		c2.567-0.165,5.107-0.538,7.607-1.143c0.55-0.134,0.471,0.247,0.526,0.506c0.764,3.07,2.063,5.873,4.047,8.341
		c0.483,0.604,1.292,1.131,1.437,1.802c0.134,0.652-0.436,1.414-0.64,2.144c-2.108,7.286,0.235,14.171,6.467,19.07
		C-219.021-161.909-218.77-161.72-218.526-161.54z"/>
	<path fill="#FCCE0F" d="M-297.682-299.67c0.495-0.29,0.842-0.526,1.205-0.716c4.962-2.557,10.136-3.072,15.406-1.268
		c6.122,2.063,10.831,5.965,14.077,11.549c1.498,2.589,2.22,5.382,2.023,8.408c-0.023,0.404-0.163,0.64-0.516,0.842
		c-2.196,1.245-4.271,2.679-6.21,4.294c-0.348,0.278-0.534,0.312-0.854-0.069c-2.443-2.858-5.409-4.977-8.974-6.222
		c-0.326-0.112-0.482-0.257-0.522-0.64c-0.801-8.33-6.025-14.114-14.373-15.908C-296.761-299.468-297.132-299.534-297.682-299.67z"
		/>
	<path fill="#FCCE0F" d="M-288.05-172.563c-1.939-1.939-3.268-4.066-4.21-6.41c-1.598-3.961-1.861-8.008-0.864-12.122
		c1.401-5.774,4.228-10.716,8.993-14.418c1.951-1.511,4.165-2.453,6.609-2.857c0.359-0.055,0.577,0.012,0.818,0.278
		c1.743,1.92,3.627,3.679,5.696,5.272c0.308,0.235,0.341,0.412,0.1,0.726c-2.275,3.019-3.7,6.371-4.153,10.104
		c-0.061,0.482-0.314,0.604-0.701,0.726c-6.031,2.053-10.084,5.999-11.709,12.279c-0.471,1.806-0.601,3.643-0.567,5.504
		C-288.05-173.211-288.05-172.987-288.05-172.563z"/>
	<path fill="#FCCE0F" d="M-230.097-320.678c2.791,0.94,5.103,2.387,7.111,4.282c3.227,3.048,5.166,6.783,5.982,11.121
		c0.966,4.944,0.675,9.8-1.201,14.509c-1.075,2.736-2.763,5.022-5.166,6.771c-0.337,0.259-0.628,0.313-1.028,0.135
		c-2.333-0.954-4.756-1.682-7.211-2.208c-0.504-0.113-0.571-0.28-0.483-0.763c0.628-3.633,0.383-7.197-0.858-10.685
		c-0.118-0.324-0.151-0.526,0.136-0.807c5.847-5.763,7.138-13.162,3.605-20.607C-229.492-319.469-229.749-319.996-230.097-320.678z"
		/>
	<path fill="#FCE900" d="M-241.987-283.041c23.822,0,43.127,19.305,43.127,43.131c0,23.825-19.305,43.131-43.127,43.131
		c-23.824,0-43.131-19.306-43.131-43.131C-285.118-263.736-265.811-283.041-241.987-283.041z"/>
</g>
</svg>
